G04 #@! TF.FileFunction,Legend,Top*
%FSLAX46Y46*%
G04 Gerber Fmt 4.6, Leading zero omitted, Abs format (unit mm)*
G04 Created by KiCad (PCBNEW 4.0.7+dfsg1-1ubuntu2) date Mon Mar  4 23:28:43 2019*
%MOMM*%
%LPD*%
G01*
G04 APERTURE LIST*
%ADD10C,0.100000*%
%ADD11C,0.200000*%
%ADD12C,0.150000*%
%ADD13C,0.500000*%
%ADD14C,0.120000*%
%ADD15R,2.000000X2.800000*%
%ADD16O,2.000000X2.800000*%
%ADD17R,2.100000X2.100000*%
%ADD18O,2.100000X2.100000*%
%ADD19C,2.000000*%
%ADD20R,2.000000X2.000000*%
%ADD21O,2.000000X2.000000*%
G04 APERTURE END LIST*
D10*
D11*
X46857144Y17864286D02*
X46785715Y17792857D01*
X46571429Y17721429D01*
X46428572Y17721429D01*
X46214287Y17792857D01*
X46071429Y17935714D01*
X46000001Y18078571D01*
X45928572Y18364286D01*
X45928572Y18578571D01*
X46000001Y18864286D01*
X46071429Y19007143D01*
X46214287Y19150000D01*
X46428572Y19221429D01*
X46571429Y19221429D01*
X46785715Y19150000D01*
X46857144Y19078571D01*
X47500001Y17721429D02*
X47500001Y19221429D01*
X47857144Y19221429D01*
X48071429Y19150000D01*
X48214287Y19007143D01*
X48285715Y18864286D01*
X48357144Y18578571D01*
X48357144Y18364286D01*
X48285715Y18078571D01*
X48214287Y17935714D01*
X48071429Y17792857D01*
X47857144Y17721429D01*
X47500001Y17721429D01*
X49642858Y18721429D02*
X49642858Y17721429D01*
X49285715Y19292857D02*
X48928572Y18221429D01*
X49857144Y18221429D01*
X50714286Y19221429D02*
X50857143Y19221429D01*
X51000000Y19150000D01*
X51071429Y19078571D01*
X51142858Y18935714D01*
X51214286Y18650000D01*
X51214286Y18292857D01*
X51142858Y18007143D01*
X51071429Y17864286D01*
X51000000Y17792857D01*
X50857143Y17721429D01*
X50714286Y17721429D01*
X50571429Y17792857D01*
X50500000Y17864286D01*
X50428572Y18007143D01*
X50357143Y18292857D01*
X50357143Y18650000D01*
X50428572Y18935714D01*
X50500000Y19078571D01*
X50571429Y19150000D01*
X50714286Y19221429D01*
X52571429Y19221429D02*
X51857143Y19221429D01*
X51785714Y18507143D01*
X51857143Y18578571D01*
X52000000Y18650000D01*
X52357143Y18650000D01*
X52500000Y18578571D01*
X52571429Y18507143D01*
X52642857Y18364286D01*
X52642857Y18007143D01*
X52571429Y17864286D01*
X52500000Y17792857D01*
X52357143Y17721429D01*
X52000000Y17721429D01*
X51857143Y17792857D01*
X51785714Y17864286D01*
X53214285Y19078571D02*
X53285714Y19150000D01*
X53428571Y19221429D01*
X53785714Y19221429D01*
X53928571Y19150000D01*
X54000000Y19078571D01*
X54071428Y18935714D01*
X54071428Y18792857D01*
X54000000Y18578571D01*
X53142857Y17721429D01*
X54071428Y17721429D01*
D12*
X26000000Y16500000D02*
X18500000Y13500000D01*
X26000000Y16500000D02*
X32000000Y16500000D01*
X74000000Y16500000D02*
X68000000Y16500000D01*
X81500000Y13500000D02*
X74000000Y16500000D01*
X68000000Y16500000D02*
X68000000Y5000000D01*
X32000000Y16500000D02*
X32000000Y5000000D01*
X88500000Y31500001D02*
G75*
G03X11500000Y31500000I-38500000J-101000001D01*
G01*
D13*
X65257144Y33271429D02*
X65400001Y33414286D01*
X65828572Y33557143D01*
X66114286Y33557143D01*
X66542858Y33414286D01*
X66828572Y33128571D01*
X66971429Y32842857D01*
X67114286Y32271429D01*
X67114286Y31842857D01*
X66971429Y31271429D01*
X66828572Y30985714D01*
X66542858Y30700000D01*
X66114286Y30557143D01*
X65828572Y30557143D01*
X65400001Y30700000D01*
X65257144Y30842857D01*
X64257144Y31557143D02*
X63542858Y33557143D01*
X62828572Y31557143D02*
X63542858Y33557143D01*
X63828572Y34271429D01*
X63971429Y34414286D01*
X64257144Y34557143D01*
X60400001Y33414286D02*
X60685715Y33557143D01*
X61257144Y33557143D01*
X61542858Y33414286D01*
X61685715Y33271429D01*
X61828572Y32985714D01*
X61828572Y32128571D01*
X61685715Y31842857D01*
X61542858Y31700000D01*
X61257144Y31557143D01*
X60685715Y31557143D01*
X60400001Y31700000D01*
X58685715Y33557143D02*
X58971429Y33414286D01*
X59114286Y33128571D01*
X59114286Y30557143D01*
X57114286Y33557143D02*
X57400000Y33414286D01*
X57542857Y33271429D01*
X57685714Y32985714D01*
X57685714Y32128571D01*
X57542857Y31842857D01*
X57400000Y31700000D01*
X57114286Y31557143D01*
X56685714Y31557143D01*
X56400000Y31700000D01*
X56257143Y31842857D01*
X56114286Y32128571D01*
X56114286Y32985714D01*
X56257143Y33271429D01*
X56400000Y33414286D01*
X56685714Y33557143D01*
X57114286Y33557143D01*
X54828571Y31557143D02*
X54828571Y34557143D01*
X54828571Y31700000D02*
X54542857Y31557143D01*
X53971428Y31557143D01*
X53685714Y31700000D01*
X53542857Y31842857D01*
X53400000Y32128571D01*
X53400000Y32985714D01*
X53542857Y33271429D01*
X53685714Y33414286D01*
X53971428Y33557143D01*
X54542857Y33557143D01*
X54828571Y33414286D01*
X52257142Y33414286D02*
X51971428Y33557143D01*
X51400000Y33557143D01*
X51114285Y33414286D01*
X50971428Y33128571D01*
X50971428Y32985714D01*
X51114285Y32700000D01*
X51400000Y32557143D01*
X51828571Y32557143D01*
X52114285Y32414286D01*
X52257142Y32128571D01*
X52257142Y31985714D01*
X52114285Y31700000D01*
X51828571Y31557143D01*
X51400000Y31557143D01*
X51114285Y31700000D01*
X49685714Y32414286D02*
X47400000Y32414286D01*
X45971428Y31557143D02*
X45971428Y34557143D01*
X45971428Y31700000D02*
X45685714Y31557143D01*
X45114285Y31557143D01*
X44828571Y31700000D01*
X44685714Y31842857D01*
X44542857Y32128571D01*
X44542857Y32985714D01*
X44685714Y33271429D01*
X44828571Y33414286D01*
X45114285Y33557143D01*
X45685714Y33557143D01*
X45971428Y33414286D01*
X43257142Y33557143D02*
X43257142Y31557143D01*
X43257142Y32128571D02*
X43114285Y31842857D01*
X42971428Y31700000D01*
X42685714Y31557143D01*
X42399999Y31557143D01*
X40971428Y33557143D02*
X41257142Y33414286D01*
X41399999Y33271429D01*
X41542856Y32985714D01*
X41542856Y32128571D01*
X41399999Y31842857D01*
X41257142Y31700000D01*
X40971428Y31557143D01*
X40542856Y31557143D01*
X40257142Y31700000D01*
X40114285Y31842857D01*
X39971428Y32128571D01*
X39971428Y32985714D01*
X40114285Y33271429D01*
X40257142Y33414286D01*
X40542856Y33557143D01*
X40971428Y33557143D01*
X38685713Y31557143D02*
X38685713Y34128571D01*
X38828570Y34414286D01*
X39114285Y34557143D01*
X39257142Y34557143D01*
X38685713Y30557143D02*
X38828570Y30700000D01*
X38685713Y30842857D01*
X38542856Y30700000D01*
X38685713Y30557143D01*
X38685713Y30842857D01*
X36114285Y33414286D02*
X36399999Y33557143D01*
X36971428Y33557143D01*
X37257142Y33414286D01*
X37399999Y33128571D01*
X37399999Y31985714D01*
X37257142Y31700000D01*
X36971428Y31557143D01*
X36399999Y31557143D01*
X36114285Y31700000D01*
X35971428Y31985714D01*
X35971428Y32271429D01*
X37399999Y32557143D01*
X33399999Y33414286D02*
X33685713Y33557143D01*
X34257142Y33557143D01*
X34542856Y33414286D01*
X34685713Y33271429D01*
X34828570Y32985714D01*
X34828570Y32128571D01*
X34685713Y31842857D01*
X34542856Y31700000D01*
X34257142Y31557143D01*
X33685713Y31557143D01*
X33399999Y31700000D01*
X32542856Y31557143D02*
X31399999Y31557143D01*
X32114284Y30557143D02*
X32114284Y33128571D01*
X31971427Y33414286D01*
X31685713Y33557143D01*
X31399999Y33557143D01*
D12*
X32000000Y5000000D02*
G75*
G03X37000000Y0I5000000J0D01*
G01*
X68000000Y5000000D02*
G75*
G02X63000000Y0I-5000000J0D01*
G01*
X37000000Y0D02*
X63000000Y0D01*
X64000000Y5000000D02*
G75*
G03X64000000Y5000000I-1000000J0D01*
G01*
X38000000Y5000000D02*
G75*
G03X38000000Y5000000I-1000000J0D01*
G01*
X18500000Y13500000D02*
G75*
G02X11500000Y31500000I-3500000J9000000D01*
G01*
X81500001Y13500000D02*
G75*
G03X88500000Y31500000I3499999J9000000D01*
G01*
X72500000Y33000000D02*
G75*
G03X72500000Y33000000I-1000000J0D01*
G01*
X29500000Y33000000D02*
G75*
G03X29500000Y33000000I-1000000J0D01*
G01*
D14*
X60190000Y17390000D02*
G75*
G02X60190000Y19390000I0J1000000D01*
G01*
X60190000Y19390000D02*
X60190000Y20640000D01*
X60190000Y20640000D02*
X39750000Y20640000D01*
X39750000Y20640000D02*
X39750000Y16140000D01*
X39750000Y16140000D02*
X60190000Y16140000D01*
X60190000Y16140000D02*
X60190000Y17390000D01*
X58950000Y8810000D02*
X41050000Y8810000D01*
X41050000Y8810000D02*
X41050000Y6150000D01*
X41050000Y6150000D02*
X58950000Y6150000D01*
X58950000Y6150000D02*
X58950000Y8810000D01*
X58000000Y6150000D02*
X58000000Y150000D01*
X58000000Y150000D02*
X57240000Y150000D01*
X57240000Y150000D02*
X57240000Y6150000D01*
X57940000Y6150000D02*
X57940000Y150000D01*
X57820000Y6150000D02*
X57820000Y150000D01*
X57700000Y6150000D02*
X57700000Y150000D01*
X57580000Y6150000D02*
X57580000Y150000D01*
X57460000Y6150000D02*
X57460000Y150000D01*
X57340000Y6150000D02*
X57340000Y150000D01*
X58000000Y9140000D02*
X58000000Y8810000D01*
X57240000Y9140000D02*
X57240000Y8810000D01*
X56350000Y8810000D02*
X56350000Y6150000D01*
X55460000Y6150000D02*
X55460000Y150000D01*
X55460000Y150000D02*
X54700000Y150000D01*
X54700000Y150000D02*
X54700000Y6150000D01*
X55460000Y9207071D02*
X55460000Y8810000D01*
X54700000Y9207071D02*
X54700000Y8810000D01*
X53810000Y8810000D02*
X53810000Y6150000D01*
X52920000Y6150000D02*
X52920000Y150000D01*
X52920000Y150000D02*
X52160000Y150000D01*
X52160000Y150000D02*
X52160000Y6150000D01*
X52920000Y9207071D02*
X52920000Y8810000D01*
X52160000Y9207071D02*
X52160000Y8810000D01*
X51270000Y8810000D02*
X51270000Y6150000D01*
X50380000Y6150000D02*
X50380000Y150000D01*
X50380000Y150000D02*
X49620000Y150000D01*
X49620000Y150000D02*
X49620000Y6150000D01*
X50380000Y9207071D02*
X50380000Y8810000D01*
X49620000Y9207071D02*
X49620000Y8810000D01*
X48730000Y8810000D02*
X48730000Y6150000D01*
X47840000Y6150000D02*
X47840000Y150000D01*
X47840000Y150000D02*
X47080000Y150000D01*
X47080000Y150000D02*
X47080000Y6150000D01*
X47840000Y9207071D02*
X47840000Y8810000D01*
X47080000Y9207071D02*
X47080000Y8810000D01*
X46190000Y8810000D02*
X46190000Y6150000D01*
X45300000Y6150000D02*
X45300000Y150000D01*
X45300000Y150000D02*
X44540000Y150000D01*
X44540000Y150000D02*
X44540000Y6150000D01*
X45300000Y9207071D02*
X45300000Y8810000D01*
X44540000Y9207071D02*
X44540000Y8810000D01*
X43650000Y8810000D02*
X43650000Y6150000D01*
X42760000Y6150000D02*
X42760000Y150000D01*
X42760000Y150000D02*
X42000000Y150000D01*
X42000000Y150000D02*
X42000000Y6150000D01*
X42760000Y9207071D02*
X42760000Y8810000D01*
X42000000Y9207071D02*
X42000000Y8810000D01*
X57620000Y11520000D02*
X58890000Y11520000D01*
X58890000Y11520000D02*
X58890000Y10250000D01*
D12*
X60642381Y17628095D02*
X61451905Y17628095D01*
X61547143Y17675714D01*
X61594762Y17723333D01*
X61642381Y17818571D01*
X61642381Y18009048D01*
X61594762Y18104286D01*
X61547143Y18151905D01*
X61451905Y18199524D01*
X60642381Y18199524D01*
X61642381Y18723333D02*
X61642381Y18913809D01*
X61594762Y19009048D01*
X61547143Y19056667D01*
X61404286Y19151905D01*
X61213810Y19199524D01*
X60832857Y19199524D01*
X60737619Y19151905D01*
X60690000Y19104286D01*
X60642381Y19009048D01*
X60642381Y18818571D01*
X60690000Y18723333D01*
X60737619Y18675714D01*
X60832857Y18628095D01*
X61070952Y18628095D01*
X61166190Y18675714D01*
X61213810Y18723333D01*
X61261429Y18818571D01*
X61261429Y19009048D01*
X61213810Y19104286D01*
X61166190Y19151905D01*
X61070952Y19199524D01*
X59342381Y5531667D02*
X60056667Y5531667D01*
X60199524Y5484047D01*
X60294762Y5388809D01*
X60342381Y5245952D01*
X60342381Y5150714D01*
X60342381Y6531667D02*
X60342381Y5960238D01*
X60342381Y6245952D02*
X59342381Y6245952D01*
X59485238Y6150714D01*
X59580476Y6055476D01*
X59628095Y5960238D01*
%LPC*%
D15*
X58860000Y22200000D03*
D16*
X41080000Y14580000D03*
X56320000Y22200000D03*
X43620000Y14580000D03*
X53780000Y22200000D03*
X46160000Y14580000D03*
X51240000Y22200000D03*
X48700000Y14580000D03*
X48700000Y22200000D03*
X51240000Y14580000D03*
X46160000Y22200000D03*
X53780000Y14580000D03*
X43620000Y22200000D03*
X56320000Y14580000D03*
X41080000Y22200000D03*
X58860000Y14580000D03*
D17*
X57620000Y10250000D03*
D18*
X55080000Y10250000D03*
X52540000Y10250000D03*
X50000000Y10250000D03*
X47460000Y10250000D03*
X44920000Y10250000D03*
X42380000Y10250000D03*
D19*
X33730000Y26450000D03*
X36270000Y26450000D03*
X36270000Y29250000D03*
D20*
X33730000Y29250000D03*
D19*
X63730000Y26450000D03*
X66270000Y26450000D03*
X66270000Y29250000D03*
D20*
X63730000Y29250000D03*
D19*
X55840000Y34800000D03*
D21*
X66000000Y34800000D03*
D19*
X53730000Y27500000D03*
X56270000Y27500000D03*
X56270000Y30300000D03*
D20*
X53730000Y30300000D03*
D19*
X43700000Y27500000D03*
X46240000Y27500000D03*
X46240000Y30300000D03*
D20*
X43700000Y30300000D03*
D19*
X34500000Y34800000D03*
D21*
X44660000Y34800000D03*
D19*
X13730000Y21150000D03*
X16270000Y21150000D03*
X16270000Y23950000D03*
D20*
X13730000Y23950000D03*
D19*
X23730000Y24370000D03*
X26270000Y24370000D03*
X26270000Y27170000D03*
D20*
X23730000Y27170000D03*
D19*
X9640000Y28100000D03*
D21*
X19800000Y28100000D03*
D19*
X62700000Y12500000D03*
D21*
X62700000Y22660000D03*
D19*
X10100000Y16700000D03*
D21*
X20260000Y16700000D03*
D19*
X20440000Y20200000D03*
D21*
X30600000Y20200000D03*
D19*
X33900000Y12500000D03*
D21*
X33900000Y22660000D03*
D19*
X37300000Y12500000D03*
D21*
X37300000Y22660000D03*
D19*
X66100000Y12500000D03*
D21*
X66100000Y22660000D03*
D19*
X80100000Y28100000D03*
D21*
X90260000Y28100000D03*
D19*
X69300000Y20200000D03*
D21*
X79460000Y20200000D03*
D19*
X79740000Y16800000D03*
D21*
X89900000Y16800000D03*
D19*
X73730000Y24370000D03*
X76270000Y24370000D03*
X76270000Y27170000D03*
D20*
X73730000Y27170000D03*
D19*
X83730000Y21150000D03*
X86270000Y21150000D03*
X86270000Y23950000D03*
D20*
X83730000Y23950000D03*
M02*
