M48
;DRILL file {KiCad 4.0.7+dfsg1-1ubuntu2} date Wed Mar  6 00:01:30 2019
;FORMAT={-:-/ absolute / metric / decimal}
FMAT,2
METRIC,TZ
T1C0.305
T2C0.400
T3C0.800
T4C1.000
%
G90
G05
M71
T1
X35.3Y17.5
X40.6Y17.398
X56.3Y19.7
T2
X34.1Y18.9
X35.8Y15.
X37.2Y17.7
X37.5Y15.
X41.65Y5.2
X50.15Y5.1
X53.6Y18.
X55.9Y18.
X57.75Y5.
X63.1Y15.7
X64.4Y20.2
T3
X9.64Y28.1
X10.1Y16.7
X13.73Y23.95
X13.73Y21.15
X16.27Y23.95
X16.27Y21.15
X19.8Y28.1
X20.26Y16.7
X20.44Y20.2
X23.73Y27.17
X23.73Y24.37
X26.27Y27.17
X26.27Y24.37
X30.6Y20.2
X33.73Y29.25
X33.73Y26.45
X33.9Y22.66
X33.9Y12.5
X34.5Y34.8
X36.27Y29.25
X36.27Y26.45
X37.3Y22.66
X37.3Y12.5
X41.08Y22.2
X41.08Y14.58
X43.62Y22.2
X43.62Y14.58
X43.7Y30.3
X43.7Y27.5
X44.66Y34.8
X46.16Y22.2
X46.16Y14.58
X46.24Y30.3
X46.24Y27.5
X48.7Y22.2
X48.7Y14.58
X51.24Y22.2
X51.24Y14.58
X53.73Y30.3
X53.73Y27.5
X53.78Y22.2
X53.78Y14.58
X55.84Y34.8
X56.27Y30.3
X56.27Y27.5
X56.32Y22.2
X56.32Y14.58
X58.86Y22.2
X58.86Y14.58
X62.7Y22.66
X62.7Y12.5
X63.73Y29.25
X63.73Y26.45
X66.Y34.8
X66.1Y22.66
X66.1Y12.5
X66.27Y29.25
X66.27Y26.45
X69.3Y20.2
X73.73Y27.17
X73.73Y24.37
X76.27Y27.17
X76.27Y24.37
X79.46Y20.2
X79.74Y16.8
X80.1Y28.1
X83.73Y23.95
X83.73Y21.15
X86.27Y23.95
X86.27Y21.15
X89.9Y16.8
X90.26Y28.1
T4
X42.38Y10.25
X44.92Y10.25
X47.46Y10.25
X50.Y10.25
X52.54Y10.25
X55.08Y10.25
X57.62Y10.25
T0
M30
