G04 #@! TF.GenerationSoftware,KiCad,Pcbnew,5.0.2-bee76a0~70~ubuntu18.04.1*
G04 #@! TF.CreationDate,2019-09-09T13:29:18+02:00*
G04 #@! TF.ProjectId,Sensors_board,53656e73-6f72-4735-9f62-6f6172642e6b,V2*
G04 #@! TF.SameCoordinates,PX4db9760PY4ead9a0*
G04 #@! TF.FileFunction,Legend,Top*
G04 #@! TF.FilePolarity,Positive*
%FSLAX46Y46*%
G04 Gerber Fmt 4.6, Leading zero omitted, Abs format (unit mm)*
G04 Created by KiCad (PCBNEW 5.0.2-bee76a0~70~ubuntu18.04.1) date lun 09 sep 2019 13:29:18 CEST*
%MOMM*%
%LPD*%
G01*
G04 APERTURE LIST*
%ADD10C,0.200000*%
%ADD11C,0.150000*%
%ADD12C,0.500000*%
%ADD13C,0.120000*%
%ADD14R,2.100000X2.100000*%
%ADD15O,2.100000X2.100000*%
%ADD16C,2.000000*%
%ADD17R,2.000000X2.000000*%
%ADD18O,2.000000X2.000000*%
%ADD19R,2.000000X2.800000*%
%ADD20O,2.000000X2.800000*%
G04 APERTURE END LIST*
D10*
X46857142Y17864286D02*
X46785714Y17792858D01*
X46571428Y17721429D01*
X46428571Y17721429D01*
X46214285Y17792858D01*
X46071428Y17935715D01*
X46000000Y18078572D01*
X45928571Y18364286D01*
X45928571Y18578572D01*
X46000000Y18864286D01*
X46071428Y19007143D01*
X46214285Y19150000D01*
X46428571Y19221429D01*
X46571428Y19221429D01*
X46785714Y19150000D01*
X46857142Y19078572D01*
X47500000Y17721429D02*
X47500000Y19221429D01*
X47857142Y19221429D01*
X48071428Y19150000D01*
X48214285Y19007143D01*
X48285714Y18864286D01*
X48357142Y18578572D01*
X48357142Y18364286D01*
X48285714Y18078572D01*
X48214285Y17935715D01*
X48071428Y17792858D01*
X47857142Y17721429D01*
X47500000Y17721429D01*
X49642857Y18721429D02*
X49642857Y17721429D01*
X49285714Y19292858D02*
X48928571Y18221429D01*
X49857142Y18221429D01*
X50714285Y19221429D02*
X50857142Y19221429D01*
X51000000Y19150000D01*
X51071428Y19078572D01*
X51142857Y18935715D01*
X51214285Y18650000D01*
X51214285Y18292858D01*
X51142857Y18007143D01*
X51071428Y17864286D01*
X51000000Y17792858D01*
X50857142Y17721429D01*
X50714285Y17721429D01*
X50571428Y17792858D01*
X50500000Y17864286D01*
X50428571Y18007143D01*
X50357142Y18292858D01*
X50357142Y18650000D01*
X50428571Y18935715D01*
X50500000Y19078572D01*
X50571428Y19150000D01*
X50714285Y19221429D01*
X52571428Y19221429D02*
X51857142Y19221429D01*
X51785714Y18507143D01*
X51857142Y18578572D01*
X52000000Y18650000D01*
X52357142Y18650000D01*
X52500000Y18578572D01*
X52571428Y18507143D01*
X52642857Y18364286D01*
X52642857Y18007143D01*
X52571428Y17864286D01*
X52500000Y17792858D01*
X52357142Y17721429D01*
X52000000Y17721429D01*
X51857142Y17792858D01*
X51785714Y17864286D01*
X53214285Y19078572D02*
X53285714Y19150000D01*
X53428571Y19221429D01*
X53785714Y19221429D01*
X53928571Y19150000D01*
X54000000Y19078572D01*
X54071428Y18935715D01*
X54071428Y18792858D01*
X54000000Y18578572D01*
X53142857Y17721429D01*
X54071428Y17721429D01*
D11*
X26000000Y16500000D02*
X18500000Y13500000D01*
X26000000Y16500000D02*
X32000000Y16500000D01*
X74000000Y16500000D02*
X68000000Y16500000D01*
X81500000Y13500000D02*
X74000000Y16500000D01*
X68000000Y16500000D02*
X68000000Y5000000D01*
X32000000Y16500000D02*
X32000000Y5000000D01*
X88500000Y31500001D02*
G75*
G03X11500000Y31500000I-38500000J-101000001D01*
G01*
D12*
X65257142Y33271429D02*
X65400000Y33414286D01*
X65828571Y33557143D01*
X66114285Y33557143D01*
X66542857Y33414286D01*
X66828571Y33128572D01*
X66971428Y32842858D01*
X67114285Y32271429D01*
X67114285Y31842858D01*
X66971428Y31271429D01*
X66828571Y30985715D01*
X66542857Y30700000D01*
X66114285Y30557143D01*
X65828571Y30557143D01*
X65400000Y30700000D01*
X65257142Y30842858D01*
X64257142Y31557143D02*
X63542857Y33557143D01*
X62828571Y31557143D02*
X63542857Y33557143D01*
X63828571Y34271429D01*
X63971428Y34414286D01*
X64257142Y34557143D01*
X60400000Y33414286D02*
X60685714Y33557143D01*
X61257142Y33557143D01*
X61542857Y33414286D01*
X61685714Y33271429D01*
X61828571Y32985715D01*
X61828571Y32128572D01*
X61685714Y31842858D01*
X61542857Y31700000D01*
X61257142Y31557143D01*
X60685714Y31557143D01*
X60400000Y31700000D01*
X58685714Y33557143D02*
X58971428Y33414286D01*
X59114285Y33128572D01*
X59114285Y30557143D01*
X57114285Y33557143D02*
X57400000Y33414286D01*
X57542857Y33271429D01*
X57685714Y32985715D01*
X57685714Y32128572D01*
X57542857Y31842858D01*
X57400000Y31700000D01*
X57114285Y31557143D01*
X56685714Y31557143D01*
X56400000Y31700000D01*
X56257142Y31842858D01*
X56114285Y32128572D01*
X56114285Y32985715D01*
X56257142Y33271429D01*
X56400000Y33414286D01*
X56685714Y33557143D01*
X57114285Y33557143D01*
X54828571Y31557143D02*
X54828571Y34557143D01*
X54828571Y31700000D02*
X54542857Y31557143D01*
X53971428Y31557143D01*
X53685714Y31700000D01*
X53542857Y31842858D01*
X53400000Y32128572D01*
X53400000Y32985715D01*
X53542857Y33271429D01*
X53685714Y33414286D01*
X53971428Y33557143D01*
X54542857Y33557143D01*
X54828571Y33414286D01*
X52257142Y33414286D02*
X51971428Y33557143D01*
X51400000Y33557143D01*
X51114285Y33414286D01*
X50971428Y33128572D01*
X50971428Y32985715D01*
X51114285Y32700000D01*
X51400000Y32557143D01*
X51828571Y32557143D01*
X52114285Y32414286D01*
X52257142Y32128572D01*
X52257142Y31985715D01*
X52114285Y31700000D01*
X51828571Y31557143D01*
X51400000Y31557143D01*
X51114285Y31700000D01*
X49685714Y32414286D02*
X47400000Y32414286D01*
X45971428Y31557143D02*
X45971428Y34557143D01*
X45971428Y31700000D02*
X45685714Y31557143D01*
X45114285Y31557143D01*
X44828571Y31700000D01*
X44685714Y31842858D01*
X44542857Y32128572D01*
X44542857Y32985715D01*
X44685714Y33271429D01*
X44828571Y33414286D01*
X45114285Y33557143D01*
X45685714Y33557143D01*
X45971428Y33414286D01*
X43257142Y33557143D02*
X43257142Y31557143D01*
X43257142Y32128572D02*
X43114285Y31842858D01*
X42971428Y31700000D01*
X42685714Y31557143D01*
X42400000Y31557143D01*
X40971428Y33557143D02*
X41257142Y33414286D01*
X41400000Y33271429D01*
X41542857Y32985715D01*
X41542857Y32128572D01*
X41400000Y31842858D01*
X41257142Y31700000D01*
X40971428Y31557143D01*
X40542857Y31557143D01*
X40257142Y31700000D01*
X40114285Y31842858D01*
X39971428Y32128572D01*
X39971428Y32985715D01*
X40114285Y33271429D01*
X40257142Y33414286D01*
X40542857Y33557143D01*
X40971428Y33557143D01*
X38685714Y31557143D02*
X38685714Y34128572D01*
X38828571Y34414286D01*
X39114285Y34557143D01*
X39257142Y34557143D01*
X38685714Y30557143D02*
X38828571Y30700000D01*
X38685714Y30842858D01*
X38542857Y30700000D01*
X38685714Y30557143D01*
X38685714Y30842858D01*
X36114285Y33414286D02*
X36400000Y33557143D01*
X36971428Y33557143D01*
X37257142Y33414286D01*
X37400000Y33128572D01*
X37400000Y31985715D01*
X37257142Y31700000D01*
X36971428Y31557143D01*
X36400000Y31557143D01*
X36114285Y31700000D01*
X35971428Y31985715D01*
X35971428Y32271429D01*
X37400000Y32557143D01*
X33400000Y33414286D02*
X33685714Y33557143D01*
X34257142Y33557143D01*
X34542857Y33414286D01*
X34685714Y33271429D01*
X34828571Y32985715D01*
X34828571Y32128572D01*
X34685714Y31842858D01*
X34542857Y31700000D01*
X34257142Y31557143D01*
X33685714Y31557143D01*
X33400000Y31700000D01*
X32542857Y31557143D02*
X31400000Y31557143D01*
X32114285Y30557143D02*
X32114285Y33128572D01*
X31971428Y33414286D01*
X31685714Y33557143D01*
X31400000Y33557143D01*
D11*
X32000000Y5000000D02*
G75*
G03X37000000Y0I5000000J0D01*
G01*
X68000000Y5000000D02*
G75*
G02X63000000Y0I-5000000J0D01*
G01*
X37000000Y0D02*
X63000000Y0D01*
X64000000Y5000000D02*
G75*
G03X64000000Y5000000I-1000000J0D01*
G01*
X38000000Y5000000D02*
G75*
G03X38000000Y5000000I-1000000J0D01*
G01*
X18500000Y13500000D02*
G75*
G02X11500000Y31500000I-3500000J9000000D01*
G01*
X81500001Y13500000D02*
G75*
G03X88500000Y31500000I3499999J9000000D01*
G01*
X72500000Y33000000D02*
G75*
G03X72500000Y33000000I-1000000J0D01*
G01*
X29500000Y33000000D02*
G75*
G03X29500000Y33000000I-1000000J0D01*
G01*
D13*
G04 #@! TO.C,J1*
X58950000Y8810000D02*
X41050000Y8810000D01*
X41050000Y8810000D02*
X41050000Y6150000D01*
X41050000Y6150000D02*
X58950000Y6150000D01*
X58950000Y6150000D02*
X58950000Y8810000D01*
X58000000Y6150000D02*
X58000000Y150000D01*
X58000000Y150000D02*
X57240000Y150000D01*
X57240000Y150000D02*
X57240000Y6150000D01*
X57940000Y6150000D02*
X57940000Y150000D01*
X57820000Y6150000D02*
X57820000Y150000D01*
X57700000Y6150000D02*
X57700000Y150000D01*
X57580000Y6150000D02*
X57580000Y150000D01*
X57460000Y6150000D02*
X57460000Y150000D01*
X57340000Y6150000D02*
X57340000Y150000D01*
X58000000Y9140000D02*
X58000000Y8810000D01*
X57240000Y9140000D02*
X57240000Y8810000D01*
X56350000Y8810000D02*
X56350000Y6150000D01*
X55460000Y6150000D02*
X55460000Y150000D01*
X55460000Y150000D02*
X54700000Y150000D01*
X54700000Y150000D02*
X54700000Y6150000D01*
X55460000Y9207071D02*
X55460000Y8810000D01*
X54700000Y9207071D02*
X54700000Y8810000D01*
X53810000Y8810000D02*
X53810000Y6150000D01*
X52920000Y6150000D02*
X52920000Y150000D01*
X52920000Y150000D02*
X52160000Y150000D01*
X52160000Y150000D02*
X52160000Y6150000D01*
X52920000Y9207071D02*
X52920000Y8810000D01*
X52160000Y9207071D02*
X52160000Y8810000D01*
X51270000Y8810000D02*
X51270000Y6150000D01*
X50380000Y6150000D02*
X50380000Y150000D01*
X50380000Y150000D02*
X49620000Y150000D01*
X49620000Y150000D02*
X49620000Y6150000D01*
X50380000Y9207071D02*
X50380000Y8810000D01*
X49620000Y9207071D02*
X49620000Y8810000D01*
X48730000Y8810000D02*
X48730000Y6150000D01*
X47840000Y6150000D02*
X47840000Y150000D01*
X47840000Y150000D02*
X47080000Y150000D01*
X47080000Y150000D02*
X47080000Y6150000D01*
X47840000Y9207071D02*
X47840000Y8810000D01*
X47080000Y9207071D02*
X47080000Y8810000D01*
X46190000Y8810000D02*
X46190000Y6150000D01*
X45300000Y6150000D02*
X45300000Y150000D01*
X45300000Y150000D02*
X44540000Y150000D01*
X44540000Y150000D02*
X44540000Y6150000D01*
X45300000Y9207071D02*
X45300000Y8810000D01*
X44540000Y9207071D02*
X44540000Y8810000D01*
X43650000Y8810000D02*
X43650000Y6150000D01*
X42760000Y6150000D02*
X42760000Y150000D01*
X42760000Y150000D02*
X42000000Y150000D01*
X42000000Y150000D02*
X42000000Y6150000D01*
X42760000Y9207071D02*
X42760000Y8810000D01*
X42000000Y9207071D02*
X42000000Y8810000D01*
X57620000Y11520000D02*
X58890000Y11520000D01*
X58890000Y11520000D02*
X58890000Y10250000D01*
G04 #@! TO.C,U9*
X60190000Y17390000D02*
G75*
G02X60190000Y19390000I0J1000000D01*
G01*
X60190000Y19390000D02*
X60190000Y20640000D01*
X60190000Y20640000D02*
X39750000Y20640000D01*
X39750000Y20640000D02*
X39750000Y16140000D01*
X39750000Y16140000D02*
X60190000Y16140000D01*
X60190000Y16140000D02*
X60190000Y17390000D01*
X60250000Y23640000D02*
X39690000Y23640000D01*
X39690000Y23640000D02*
X39690000Y13140000D01*
X39690000Y13140000D02*
X60250000Y13140000D01*
X60250000Y13140000D02*
X60250000Y23640000D01*
G04 #@! TD*
G04 #@! TO.C,J1*
D11*
X59342380Y5531667D02*
X60056666Y5531667D01*
X60199523Y5484048D01*
X60294761Y5388810D01*
X60342380Y5245953D01*
X60342380Y5150715D01*
X60342380Y6531667D02*
X60342380Y5960239D01*
X60342380Y6245953D02*
X59342380Y6245953D01*
X59485238Y6150715D01*
X59580476Y6055477D01*
X59628095Y5960239D01*
G04 #@! TO.C,U9*
X60642380Y17628096D02*
X61451904Y17628096D01*
X61547142Y17675715D01*
X61594761Y17723334D01*
X61642380Y17818572D01*
X61642380Y18009048D01*
X61594761Y18104286D01*
X61547142Y18151905D01*
X61451904Y18199524D01*
X60642380Y18199524D01*
X61642380Y18723334D02*
X61642380Y18913810D01*
X61594761Y19009048D01*
X61547142Y19056667D01*
X61404285Y19151905D01*
X61213809Y19199524D01*
X60832857Y19199524D01*
X60737619Y19151905D01*
X60690000Y19104286D01*
X60642380Y19009048D01*
X60642380Y18818572D01*
X60690000Y18723334D01*
X60737619Y18675715D01*
X60832857Y18628096D01*
X61070952Y18628096D01*
X61166190Y18675715D01*
X61213809Y18723334D01*
X61261428Y18818572D01*
X61261428Y19009048D01*
X61213809Y19104286D01*
X61166190Y19151905D01*
X61070952Y19199524D01*
G04 #@! TD*
%LPC*%
D14*
G04 #@! TO.C,J1*
X57620000Y10250000D03*
D15*
X55080000Y10250000D03*
X52540000Y10250000D03*
X50000000Y10250000D03*
X47460000Y10250000D03*
X44920000Y10250000D03*
X42380000Y10250000D03*
G04 #@! TD*
D16*
G04 #@! TO.C,U3*
X33730000Y26450000D03*
X36270000Y26450000D03*
X36270000Y29250000D03*
D17*
X33730000Y29250000D03*
G04 #@! TD*
D16*
G04 #@! TO.C,U6*
X63730000Y26450000D03*
X66270000Y26450000D03*
X66270000Y29250000D03*
D17*
X63730000Y29250000D03*
G04 #@! TD*
D16*
G04 #@! TO.C,R7*
X55840000Y34800000D03*
D18*
X66000000Y34800000D03*
G04 #@! TD*
D16*
G04 #@! TO.C,U5*
X53730000Y27500000D03*
X56270000Y27500000D03*
X56270000Y30300000D03*
D17*
X53730000Y30300000D03*
G04 #@! TD*
D16*
G04 #@! TO.C,U4*
X43700000Y27500000D03*
X46240000Y27500000D03*
X46240000Y30300000D03*
D17*
X43700000Y30300000D03*
G04 #@! TD*
D16*
G04 #@! TO.C,R4*
X34500000Y34800000D03*
D18*
X44660000Y34800000D03*
G04 #@! TD*
D16*
G04 #@! TO.C,U1*
X13730000Y21150000D03*
X16270000Y21150000D03*
X16270000Y23950000D03*
D17*
X13730000Y23950000D03*
G04 #@! TD*
D16*
G04 #@! TO.C,U2*
X23730000Y24370000D03*
X26270000Y24370000D03*
X26270000Y27170000D03*
D17*
X23730000Y27170000D03*
G04 #@! TD*
D16*
G04 #@! TO.C,R1*
X9640000Y28100000D03*
D18*
X19800000Y28100000D03*
G04 #@! TD*
D16*
G04 #@! TO.C,R8*
X62700000Y12500000D03*
D18*
X62700000Y22660000D03*
G04 #@! TD*
D16*
G04 #@! TO.C,R2*
X10100000Y16700000D03*
D18*
X20260000Y16700000D03*
G04 #@! TD*
D16*
G04 #@! TO.C,R3*
X20440000Y20200000D03*
D18*
X30600000Y20200000D03*
G04 #@! TD*
D16*
G04 #@! TO.C,R5*
X33900000Y12500000D03*
D18*
X33900000Y22660000D03*
G04 #@! TD*
D16*
G04 #@! TO.C,R6*
X37300000Y12500000D03*
D18*
X37300000Y22660000D03*
G04 #@! TD*
D16*
G04 #@! TO.C,R9*
X66100000Y12500000D03*
D18*
X66100000Y22660000D03*
G04 #@! TD*
D16*
G04 #@! TO.C,R10*
X80100000Y28100000D03*
D18*
X90260000Y28100000D03*
G04 #@! TD*
D16*
G04 #@! TO.C,R11*
X69300000Y20200000D03*
D18*
X79460000Y20200000D03*
G04 #@! TD*
D16*
G04 #@! TO.C,R12*
X79740000Y16800000D03*
D18*
X89900000Y16800000D03*
G04 #@! TD*
D16*
G04 #@! TO.C,U7*
X73730000Y24370000D03*
X76270000Y24370000D03*
X76270000Y27170000D03*
D17*
X73730000Y27170000D03*
G04 #@! TD*
D16*
G04 #@! TO.C,U8*
X83730000Y21150000D03*
X86270000Y21150000D03*
X86270000Y23950000D03*
D17*
X83730000Y23950000D03*
G04 #@! TD*
D19*
G04 #@! TO.C,U9*
X58860000Y22200000D03*
D20*
X41080000Y14580000D03*
X56320000Y22200000D03*
X43620000Y14580000D03*
X53780000Y22200000D03*
X46160000Y14580000D03*
X51240000Y22200000D03*
X48700000Y14580000D03*
X48700000Y22200000D03*
X51240000Y14580000D03*
X46160000Y22200000D03*
X53780000Y14580000D03*
X43620000Y22200000D03*
X56320000Y14580000D03*
X41080000Y22200000D03*
X58860000Y14580000D03*
G04 #@! TD*
M02*
