G04 #@! TF.GenerationSoftware,KiCad,Pcbnew,5.0.2-bee76a0~70~ubuntu18.04.1*
G04 #@! TF.CreationDate,2019-09-09T13:29:18+02:00*
G04 #@! TF.ProjectId,Sensors_board,53656e73-6f72-4735-9f62-6f6172642e6b,V2*
G04 #@! TF.SameCoordinates,PX4db9760PY4ead9a0*
G04 #@! TF.FileFunction,Legend,Bot*
G04 #@! TF.FilePolarity,Positive*
%FSLAX46Y46*%
G04 Gerber Fmt 4.6, Leading zero omitted, Abs format (unit mm)*
G04 Created by KiCad (PCBNEW 5.0.2-bee76a0~70~ubuntu18.04.1) date lun 09 sep 2019 13:29:18 CEST*
%MOMM*%
%LPD*%
G01*
G04 APERTURE LIST*
%ADD10C,0.150000*%
%ADD11C,0.400000*%
%ADD12C,0.120000*%
%ADD13R,2.100000X2.100000*%
%ADD14O,2.100000X2.100000*%
%ADD15C,2.000000*%
%ADD16R,2.000000X2.000000*%
%ADD17O,2.000000X2.000000*%
%ADD18R,2.000000X2.800000*%
%ADD19O,2.000000X2.800000*%
G04 APERTURE END LIST*
D10*
X26000000Y16500000D02*
X18500000Y13500000D01*
X26000000Y16500000D02*
X32000000Y16500000D01*
X74000000Y16500000D02*
X68000000Y16500000D01*
X81500000Y13500000D02*
X74000000Y16500000D01*
X68000000Y16500000D02*
X68000000Y5000000D01*
X32000000Y16500000D02*
X32000000Y5000000D01*
X88500000Y31500001D02*
G75*
G03X11500000Y31500000I-38500000J-101000001D01*
G01*
D11*
X53642857Y17342858D02*
X54642857Y18771429D01*
X55357142Y17342858D02*
X55357142Y20342858D01*
X54214285Y20342858D01*
X53928571Y20200000D01*
X53785714Y20057143D01*
X53642857Y19771429D01*
X53642857Y19342858D01*
X53785714Y19057143D01*
X53928571Y18914286D01*
X54214285Y18771429D01*
X55357142Y18771429D01*
X51214285Y17485715D02*
X51500000Y17342858D01*
X52071428Y17342858D01*
X52357142Y17485715D01*
X52500000Y17771429D01*
X52500000Y18914286D01*
X52357142Y19200000D01*
X52071428Y19342858D01*
X51500000Y19342858D01*
X51214285Y19200000D01*
X51071428Y18914286D01*
X51071428Y18628572D01*
X52500000Y18342858D01*
X49928571Y17485715D02*
X49642857Y17342858D01*
X49071428Y17342858D01*
X48785714Y17485715D01*
X48642857Y17771429D01*
X48642857Y17914286D01*
X48785714Y18200000D01*
X49071428Y18342858D01*
X49500000Y18342858D01*
X49785714Y18485715D01*
X49928571Y18771429D01*
X49928571Y18914286D01*
X49785714Y19200000D01*
X49500000Y19342858D01*
X49071428Y19342858D01*
X48785714Y19200000D01*
X46071428Y17342858D02*
X46071428Y18914286D01*
X46214285Y19200000D01*
X46500000Y19342858D01*
X47071428Y19342858D01*
X47357142Y19200000D01*
X46071428Y17485715D02*
X46357142Y17342858D01*
X47071428Y17342858D01*
X47357142Y17485715D01*
X47500000Y17771429D01*
X47500000Y18057143D01*
X47357142Y18342858D01*
X47071428Y18485715D01*
X46357142Y18485715D01*
X46071428Y18628572D01*
X44642857Y19342858D02*
X44642857Y16771429D01*
X44785714Y16485715D01*
X45071428Y16342858D01*
X45214285Y16342858D01*
X44642857Y20342858D02*
X44785714Y20200000D01*
X44642857Y20057143D01*
X44500000Y20200000D01*
X44642857Y20342858D01*
X44642857Y20057143D01*
D10*
X32000000Y5000000D02*
G75*
G03X37000000Y0I5000000J0D01*
G01*
X68000000Y5000000D02*
G75*
G02X63000000Y0I-5000000J0D01*
G01*
X37000000Y0D02*
X63000000Y0D01*
X64000000Y5000000D02*
G75*
G03X64000000Y5000000I-1000000J0D01*
G01*
X38000000Y5000000D02*
G75*
G03X38000000Y5000000I-1000000J0D01*
G01*
X18500000Y13500000D02*
G75*
G02X11500000Y31500000I-3500000J9000000D01*
G01*
X81500001Y13500000D02*
G75*
G03X88500000Y31500000I3499999J9000000D01*
G01*
X72500000Y33000000D02*
G75*
G03X72500000Y33000000I-1000000J0D01*
G01*
X29500000Y33000000D02*
G75*
G03X29500000Y33000000I-1000000J0D01*
G01*
D12*
G04 #@! TO.C,U3*
X31230000Y31650000D02*
X31230000Y30150000D01*
X32830000Y31650000D02*
X31230000Y31650000D01*
X38630000Y24250000D02*
X31430000Y24250000D01*
X38630000Y31450000D02*
X38630000Y24250000D01*
X31430000Y31450000D02*
X38630000Y31450000D01*
X31430000Y24250000D02*
X31430000Y31450000D01*
G04 #@! TO.C,U6*
X61230000Y31650000D02*
X61230000Y30150000D01*
X62830000Y31650000D02*
X61230000Y31650000D01*
X68630000Y24250000D02*
X61430000Y24250000D01*
X68630000Y31450000D02*
X68630000Y24250000D01*
X61430000Y31450000D02*
X68630000Y31450000D01*
X61430000Y24250000D02*
X61430000Y31450000D01*
G04 #@! TO.C,R7*
X57650000Y33430000D02*
X57650000Y36170000D01*
X57650000Y36170000D02*
X64190000Y36170000D01*
X64190000Y36170000D02*
X64190000Y33430000D01*
X64190000Y33430000D02*
X57650000Y33430000D01*
X56880000Y34800000D02*
X57650000Y34800000D01*
X64960000Y34800000D02*
X64190000Y34800000D01*
G04 #@! TO.C,U5*
X51230000Y32700000D02*
X51230000Y31200000D01*
X52830000Y32700000D02*
X51230000Y32700000D01*
X58630000Y25300000D02*
X51430000Y25300000D01*
X58630000Y32500000D02*
X58630000Y25300000D01*
X51430000Y32500000D02*
X58630000Y32500000D01*
X51430000Y25300000D02*
X51430000Y32500000D01*
G04 #@! TO.C,U4*
X41200000Y32700000D02*
X41200000Y31200000D01*
X42800000Y32700000D02*
X41200000Y32700000D01*
X48600000Y25300000D02*
X41400000Y25300000D01*
X48600000Y32500000D02*
X48600000Y25300000D01*
X41400000Y32500000D02*
X48600000Y32500000D01*
X41400000Y25300000D02*
X41400000Y32500000D01*
G04 #@! TO.C,R4*
X36310000Y33430000D02*
X36310000Y36170000D01*
X36310000Y36170000D02*
X42850000Y36170000D01*
X42850000Y36170000D02*
X42850000Y33430000D01*
X42850000Y33430000D02*
X36310000Y33430000D01*
X35540000Y34800000D02*
X36310000Y34800000D01*
X43620000Y34800000D02*
X42850000Y34800000D01*
G04 #@! TO.C,U1*
X11230000Y26350000D02*
X11230000Y24850000D01*
X12830000Y26350000D02*
X11230000Y26350000D01*
X18630000Y18950000D02*
X11430000Y18950000D01*
X18630000Y26150000D02*
X18630000Y18950000D01*
X11430000Y26150000D02*
X18630000Y26150000D01*
X11430000Y18950000D02*
X11430000Y26150000D01*
G04 #@! TO.C,U2*
X21230000Y29570000D02*
X21230000Y28070000D01*
X22830000Y29570000D02*
X21230000Y29570000D01*
X28630000Y22170000D02*
X21430000Y22170000D01*
X28630000Y29370000D02*
X28630000Y22170000D01*
X21430000Y29370000D02*
X28630000Y29370000D01*
X21430000Y22170000D02*
X21430000Y29370000D01*
G04 #@! TO.C,R1*
X11450000Y26730000D02*
X11450000Y29470000D01*
X11450000Y29470000D02*
X17990000Y29470000D01*
X17990000Y29470000D02*
X17990000Y26730000D01*
X17990000Y26730000D02*
X11450000Y26730000D01*
X10680000Y28100000D02*
X11450000Y28100000D01*
X18760000Y28100000D02*
X17990000Y28100000D01*
G04 #@! TO.C,R8*
X64070000Y14310000D02*
X61330000Y14310000D01*
X61330000Y14310000D02*
X61330000Y20850000D01*
X61330000Y20850000D02*
X64070000Y20850000D01*
X64070000Y20850000D02*
X64070000Y14310000D01*
X62700000Y13540000D02*
X62700000Y14310000D01*
X62700000Y21620000D02*
X62700000Y20850000D01*
G04 #@! TO.C,R2*
X11910000Y15330000D02*
X11910000Y18070000D01*
X11910000Y18070000D02*
X18450000Y18070000D01*
X18450000Y18070000D02*
X18450000Y15330000D01*
X18450000Y15330000D02*
X11910000Y15330000D01*
X11140000Y16700000D02*
X11910000Y16700000D01*
X19220000Y16700000D02*
X18450000Y16700000D01*
G04 #@! TO.C,R3*
X22250000Y18830000D02*
X22250000Y21570000D01*
X22250000Y21570000D02*
X28790000Y21570000D01*
X28790000Y21570000D02*
X28790000Y18830000D01*
X28790000Y18830000D02*
X22250000Y18830000D01*
X21480000Y20200000D02*
X22250000Y20200000D01*
X29560000Y20200000D02*
X28790000Y20200000D01*
G04 #@! TO.C,R5*
X35270000Y14310000D02*
X32530000Y14310000D01*
X32530000Y14310000D02*
X32530000Y20850000D01*
X32530000Y20850000D02*
X35270000Y20850000D01*
X35270000Y20850000D02*
X35270000Y14310000D01*
X33900000Y13540000D02*
X33900000Y14310000D01*
X33900000Y21620000D02*
X33900000Y20850000D01*
G04 #@! TO.C,R6*
X38670000Y14310000D02*
X35930000Y14310000D01*
X35930000Y14310000D02*
X35930000Y20850000D01*
X35930000Y20850000D02*
X38670000Y20850000D01*
X38670000Y20850000D02*
X38670000Y14310000D01*
X37300000Y13540000D02*
X37300000Y14310000D01*
X37300000Y21620000D02*
X37300000Y20850000D01*
G04 #@! TO.C,R9*
X67470000Y14310000D02*
X64730000Y14310000D01*
X64730000Y14310000D02*
X64730000Y20850000D01*
X64730000Y20850000D02*
X67470000Y20850000D01*
X67470000Y20850000D02*
X67470000Y14310000D01*
X66100000Y13540000D02*
X66100000Y14310000D01*
X66100000Y21620000D02*
X66100000Y20850000D01*
G04 #@! TO.C,R10*
X81910000Y26730000D02*
X81910000Y29470000D01*
X81910000Y29470000D02*
X88450000Y29470000D01*
X88450000Y29470000D02*
X88450000Y26730000D01*
X88450000Y26730000D02*
X81910000Y26730000D01*
X81140000Y28100000D02*
X81910000Y28100000D01*
X89220000Y28100000D02*
X88450000Y28100000D01*
G04 #@! TO.C,R11*
X71110000Y18830000D02*
X71110000Y21570000D01*
X71110000Y21570000D02*
X77650000Y21570000D01*
X77650000Y21570000D02*
X77650000Y18830000D01*
X77650000Y18830000D02*
X71110000Y18830000D01*
X70340000Y20200000D02*
X71110000Y20200000D01*
X78420000Y20200000D02*
X77650000Y20200000D01*
G04 #@! TO.C,R12*
X81550000Y15430000D02*
X81550000Y18170000D01*
X81550000Y18170000D02*
X88090000Y18170000D01*
X88090000Y18170000D02*
X88090000Y15430000D01*
X88090000Y15430000D02*
X81550000Y15430000D01*
X80780000Y16800000D02*
X81550000Y16800000D01*
X88860000Y16800000D02*
X88090000Y16800000D01*
G04 #@! TO.C,U7*
X71230000Y29570000D02*
X71230000Y28070000D01*
X72830000Y29570000D02*
X71230000Y29570000D01*
X78630000Y22170000D02*
X71430000Y22170000D01*
X78630000Y29370000D02*
X78630000Y22170000D01*
X71430000Y29370000D02*
X78630000Y29370000D01*
X71430000Y22170000D02*
X71430000Y29370000D01*
G04 #@! TO.C,U8*
X81230000Y26350000D02*
X81230000Y24850000D01*
X82830000Y26350000D02*
X81230000Y26350000D01*
X88630000Y18950000D02*
X81430000Y18950000D01*
X88630000Y26150000D02*
X88630000Y18950000D01*
X81430000Y26150000D02*
X88630000Y26150000D01*
X81430000Y18950000D02*
X81430000Y26150000D01*
G04 #@! TD*
G04 #@! TO.C,U3*
D10*
X30182380Y28611905D02*
X30991904Y28611905D01*
X31087142Y28564286D01*
X31134761Y28516667D01*
X31182380Y28421429D01*
X31182380Y28230953D01*
X31134761Y28135715D01*
X31087142Y28088096D01*
X30991904Y28040477D01*
X30182380Y28040477D01*
X30182380Y27659524D02*
X30182380Y27040477D01*
X30563333Y27373810D01*
X30563333Y27230953D01*
X30610952Y27135715D01*
X30658571Y27088096D01*
X30753809Y27040477D01*
X30991904Y27040477D01*
X31087142Y27088096D01*
X31134761Y27135715D01*
X31182380Y27230953D01*
X31182380Y27516667D01*
X31134761Y27611905D01*
X31087142Y27659524D01*
G04 #@! TO.C,U6*
X60182380Y28611905D02*
X60991904Y28611905D01*
X61087142Y28564286D01*
X61134761Y28516667D01*
X61182380Y28421429D01*
X61182380Y28230953D01*
X61134761Y28135715D01*
X61087142Y28088096D01*
X60991904Y28040477D01*
X60182380Y28040477D01*
X60182380Y27135715D02*
X60182380Y27326191D01*
X60230000Y27421429D01*
X60277619Y27469048D01*
X60420476Y27564286D01*
X60610952Y27611905D01*
X60991904Y27611905D01*
X61087142Y27564286D01*
X61134761Y27516667D01*
X61182380Y27421429D01*
X61182380Y27230953D01*
X61134761Y27135715D01*
X61087142Y27088096D01*
X60991904Y27040477D01*
X60753809Y27040477D01*
X60658571Y27088096D01*
X60610952Y27135715D01*
X60563333Y27230953D01*
X60563333Y27421429D01*
X60610952Y27516667D01*
X60658571Y27564286D01*
X60753809Y27611905D01*
G04 #@! TO.C,R7*
X53866666Y34247620D02*
X54200000Y34723810D01*
X54438095Y34247620D02*
X54438095Y35247620D01*
X54057142Y35247620D01*
X53961904Y35200000D01*
X53914285Y35152381D01*
X53866666Y35057143D01*
X53866666Y34914286D01*
X53914285Y34819048D01*
X53961904Y34771429D01*
X54057142Y34723810D01*
X54438095Y34723810D01*
X53533333Y35247620D02*
X52866666Y35247620D01*
X53295238Y34247620D01*
G04 #@! TO.C,U5*
X50182380Y29661905D02*
X50991904Y29661905D01*
X51087142Y29614286D01*
X51134761Y29566667D01*
X51182380Y29471429D01*
X51182380Y29280953D01*
X51134761Y29185715D01*
X51087142Y29138096D01*
X50991904Y29090477D01*
X50182380Y29090477D01*
X50182380Y28138096D02*
X50182380Y28614286D01*
X50658571Y28661905D01*
X50610952Y28614286D01*
X50563333Y28519048D01*
X50563333Y28280953D01*
X50610952Y28185715D01*
X50658571Y28138096D01*
X50753809Y28090477D01*
X50991904Y28090477D01*
X51087142Y28138096D01*
X51134761Y28185715D01*
X51182380Y28280953D01*
X51182380Y28519048D01*
X51134761Y28614286D01*
X51087142Y28661905D01*
G04 #@! TO.C,U4*
X40152380Y29661905D02*
X40961904Y29661905D01*
X41057142Y29614286D01*
X41104761Y29566667D01*
X41152380Y29471429D01*
X41152380Y29280953D01*
X41104761Y29185715D01*
X41057142Y29138096D01*
X40961904Y29090477D01*
X40152380Y29090477D01*
X40485714Y28185715D02*
X41152380Y28185715D01*
X40104761Y28423810D02*
X40819047Y28661905D01*
X40819047Y28042858D01*
G04 #@! TO.C,R4*
X47066666Y34247620D02*
X47400000Y34723810D01*
X47638095Y34247620D02*
X47638095Y35247620D01*
X47257142Y35247620D01*
X47161904Y35200000D01*
X47114285Y35152381D01*
X47066666Y35057143D01*
X47066666Y34914286D01*
X47114285Y34819048D01*
X47161904Y34771429D01*
X47257142Y34723810D01*
X47638095Y34723810D01*
X46209523Y34914286D02*
X46209523Y34247620D01*
X46447619Y35295239D02*
X46685714Y34580953D01*
X46066666Y34580953D01*
G04 #@! TO.C,U1*
X10182380Y23311905D02*
X10991904Y23311905D01*
X11087142Y23264286D01*
X11134761Y23216667D01*
X11182380Y23121429D01*
X11182380Y22930953D01*
X11134761Y22835715D01*
X11087142Y22788096D01*
X10991904Y22740477D01*
X10182380Y22740477D01*
X11182380Y21740477D02*
X11182380Y22311905D01*
X11182380Y22026191D02*
X10182380Y22026191D01*
X10325238Y22121429D01*
X10420476Y22216667D01*
X10468095Y22311905D01*
G04 #@! TO.C,U2*
X20182380Y26531905D02*
X20991904Y26531905D01*
X21087142Y26484286D01*
X21134761Y26436667D01*
X21182380Y26341429D01*
X21182380Y26150953D01*
X21134761Y26055715D01*
X21087142Y26008096D01*
X20991904Y25960477D01*
X20182380Y25960477D01*
X20277619Y25531905D02*
X20230000Y25484286D01*
X20182380Y25389048D01*
X20182380Y25150953D01*
X20230000Y25055715D01*
X20277619Y25008096D01*
X20372857Y24960477D01*
X20468095Y24960477D01*
X20610952Y25008096D01*
X21182380Y25579524D01*
X21182380Y24960477D01*
G04 #@! TO.C,R1*
X14906666Y30147620D02*
X15240000Y30623810D01*
X15478095Y30147620D02*
X15478095Y31147620D01*
X15097142Y31147620D01*
X15001904Y31100000D01*
X14954285Y31052381D01*
X14906666Y30957143D01*
X14906666Y30814286D01*
X14954285Y30719048D01*
X15001904Y30671429D01*
X15097142Y30623810D01*
X15478095Y30623810D01*
X13954285Y30147620D02*
X14525714Y30147620D01*
X14240000Y30147620D02*
X14240000Y31147620D01*
X14335238Y31004762D01*
X14430476Y30909524D01*
X14525714Y30861905D01*
G04 #@! TO.C,R8*
X63202380Y10366667D02*
X62726190Y10700000D01*
X63202380Y10938096D02*
X62202380Y10938096D01*
X62202380Y10557143D01*
X62250000Y10461905D01*
X62297619Y10414286D01*
X62392857Y10366667D01*
X62535714Y10366667D01*
X62630952Y10414286D01*
X62678571Y10461905D01*
X62726190Y10557143D01*
X62726190Y10938096D01*
X62630952Y9795239D02*
X62583333Y9890477D01*
X62535714Y9938096D01*
X62440476Y9985715D01*
X62392857Y9985715D01*
X62297619Y9938096D01*
X62250000Y9890477D01*
X62202380Y9795239D01*
X62202380Y9604762D01*
X62250000Y9509524D01*
X62297619Y9461905D01*
X62392857Y9414286D01*
X62440476Y9414286D01*
X62535714Y9461905D01*
X62583333Y9509524D01*
X62630952Y9604762D01*
X62630952Y9795239D01*
X62678571Y9890477D01*
X62726190Y9938096D01*
X62821428Y9985715D01*
X63011904Y9985715D01*
X63107142Y9938096D01*
X63154761Y9890477D01*
X63202380Y9795239D01*
X63202380Y9604762D01*
X63154761Y9509524D01*
X63107142Y9461905D01*
X63011904Y9414286D01*
X62821428Y9414286D01*
X62726190Y9461905D01*
X62678571Y9509524D01*
X62630952Y9604762D01*
G04 #@! TO.C,R2*
X15166666Y13847620D02*
X15500000Y14323810D01*
X15738095Y13847620D02*
X15738095Y14847620D01*
X15357142Y14847620D01*
X15261904Y14800000D01*
X15214285Y14752381D01*
X15166666Y14657143D01*
X15166666Y14514286D01*
X15214285Y14419048D01*
X15261904Y14371429D01*
X15357142Y14323810D01*
X15738095Y14323810D01*
X14785714Y14752381D02*
X14738095Y14800000D01*
X14642857Y14847620D01*
X14404761Y14847620D01*
X14309523Y14800000D01*
X14261904Y14752381D01*
X14214285Y14657143D01*
X14214285Y14561905D01*
X14261904Y14419048D01*
X14833333Y13847620D01*
X14214285Y13847620D01*
G04 #@! TO.C,R3*
X25686666Y17377620D02*
X26020000Y17853810D01*
X26258095Y17377620D02*
X26258095Y18377620D01*
X25877142Y18377620D01*
X25781904Y18330000D01*
X25734285Y18282381D01*
X25686666Y18187143D01*
X25686666Y18044286D01*
X25734285Y17949048D01*
X25781904Y17901429D01*
X25877142Y17853810D01*
X26258095Y17853810D01*
X25353333Y18377620D02*
X24734285Y18377620D01*
X25067619Y17996667D01*
X24924761Y17996667D01*
X24829523Y17949048D01*
X24781904Y17901429D01*
X24734285Y17806191D01*
X24734285Y17568096D01*
X24781904Y17472858D01*
X24829523Y17425239D01*
X24924761Y17377620D01*
X25210476Y17377620D01*
X25305714Y17425239D01*
X25353333Y17472858D01*
G04 #@! TO.C,R5*
X34352380Y10366667D02*
X33876190Y10700000D01*
X34352380Y10938096D02*
X33352380Y10938096D01*
X33352380Y10557143D01*
X33400000Y10461905D01*
X33447619Y10414286D01*
X33542857Y10366667D01*
X33685714Y10366667D01*
X33780952Y10414286D01*
X33828571Y10461905D01*
X33876190Y10557143D01*
X33876190Y10938096D01*
X33352380Y9461905D02*
X33352380Y9938096D01*
X33828571Y9985715D01*
X33780952Y9938096D01*
X33733333Y9842858D01*
X33733333Y9604762D01*
X33780952Y9509524D01*
X33828571Y9461905D01*
X33923809Y9414286D01*
X34161904Y9414286D01*
X34257142Y9461905D01*
X34304761Y9509524D01*
X34352380Y9604762D01*
X34352380Y9842858D01*
X34304761Y9938096D01*
X34257142Y9985715D01*
G04 #@! TO.C,R6*
X37752380Y10366667D02*
X37276190Y10700000D01*
X37752380Y10938096D02*
X36752380Y10938096D01*
X36752380Y10557143D01*
X36800000Y10461905D01*
X36847619Y10414286D01*
X36942857Y10366667D01*
X37085714Y10366667D01*
X37180952Y10414286D01*
X37228571Y10461905D01*
X37276190Y10557143D01*
X37276190Y10938096D01*
X36752380Y9509524D02*
X36752380Y9700000D01*
X36800000Y9795239D01*
X36847619Y9842858D01*
X36990476Y9938096D01*
X37180952Y9985715D01*
X37561904Y9985715D01*
X37657142Y9938096D01*
X37704761Y9890477D01*
X37752380Y9795239D01*
X37752380Y9604762D01*
X37704761Y9509524D01*
X37657142Y9461905D01*
X37561904Y9414286D01*
X37323809Y9414286D01*
X37228571Y9461905D01*
X37180952Y9509524D01*
X37133333Y9604762D01*
X37133333Y9795239D01*
X37180952Y9890477D01*
X37228571Y9938096D01*
X37323809Y9985715D01*
G04 #@! TO.C,R9*
X66552380Y10366667D02*
X66076190Y10700000D01*
X66552380Y10938096D02*
X65552380Y10938096D01*
X65552380Y10557143D01*
X65600000Y10461905D01*
X65647619Y10414286D01*
X65742857Y10366667D01*
X65885714Y10366667D01*
X65980952Y10414286D01*
X66028571Y10461905D01*
X66076190Y10557143D01*
X66076190Y10938096D01*
X66552380Y9890477D02*
X66552380Y9700000D01*
X66504761Y9604762D01*
X66457142Y9557143D01*
X66314285Y9461905D01*
X66123809Y9414286D01*
X65742857Y9414286D01*
X65647619Y9461905D01*
X65600000Y9509524D01*
X65552380Y9604762D01*
X65552380Y9795239D01*
X65600000Y9890477D01*
X65647619Y9938096D01*
X65742857Y9985715D01*
X65980952Y9985715D01*
X66076190Y9938096D01*
X66123809Y9890477D01*
X66171428Y9795239D01*
X66171428Y9604762D01*
X66123809Y9509524D01*
X66076190Y9461905D01*
X65980952Y9414286D01*
G04 #@! TO.C,R10*
X85822857Y29947620D02*
X86156190Y30423810D01*
X86394285Y29947620D02*
X86394285Y30947620D01*
X86013333Y30947620D01*
X85918095Y30900000D01*
X85870476Y30852381D01*
X85822857Y30757143D01*
X85822857Y30614286D01*
X85870476Y30519048D01*
X85918095Y30471429D01*
X86013333Y30423810D01*
X86394285Y30423810D01*
X84870476Y29947620D02*
X85441904Y29947620D01*
X85156190Y29947620D02*
X85156190Y30947620D01*
X85251428Y30804762D01*
X85346666Y30709524D01*
X85441904Y30661905D01*
X84251428Y30947620D02*
X84156190Y30947620D01*
X84060952Y30900000D01*
X84013333Y30852381D01*
X83965714Y30757143D01*
X83918095Y30566667D01*
X83918095Y30328572D01*
X83965714Y30138096D01*
X84013333Y30042858D01*
X84060952Y29995239D01*
X84156190Y29947620D01*
X84251428Y29947620D01*
X84346666Y29995239D01*
X84394285Y30042858D01*
X84441904Y30138096D01*
X84489523Y30328572D01*
X84489523Y30566667D01*
X84441904Y30757143D01*
X84394285Y30852381D01*
X84346666Y30900000D01*
X84251428Y30947620D01*
G04 #@! TO.C,R11*
X75022857Y17377620D02*
X75356190Y17853810D01*
X75594285Y17377620D02*
X75594285Y18377620D01*
X75213333Y18377620D01*
X75118095Y18330000D01*
X75070476Y18282381D01*
X75022857Y18187143D01*
X75022857Y18044286D01*
X75070476Y17949048D01*
X75118095Y17901429D01*
X75213333Y17853810D01*
X75594285Y17853810D01*
X74070476Y17377620D02*
X74641904Y17377620D01*
X74356190Y17377620D02*
X74356190Y18377620D01*
X74451428Y18234762D01*
X74546666Y18139524D01*
X74641904Y18091905D01*
X73118095Y17377620D02*
X73689523Y17377620D01*
X73403809Y17377620D02*
X73403809Y18377620D01*
X73499047Y18234762D01*
X73594285Y18139524D01*
X73689523Y18091905D01*
G04 #@! TO.C,R12*
X85462857Y13977620D02*
X85796190Y14453810D01*
X86034285Y13977620D02*
X86034285Y14977620D01*
X85653333Y14977620D01*
X85558095Y14930000D01*
X85510476Y14882381D01*
X85462857Y14787143D01*
X85462857Y14644286D01*
X85510476Y14549048D01*
X85558095Y14501429D01*
X85653333Y14453810D01*
X86034285Y14453810D01*
X84510476Y13977620D02*
X85081904Y13977620D01*
X84796190Y13977620D02*
X84796190Y14977620D01*
X84891428Y14834762D01*
X84986666Y14739524D01*
X85081904Y14691905D01*
X84129523Y14882381D02*
X84081904Y14930000D01*
X83986666Y14977620D01*
X83748571Y14977620D01*
X83653333Y14930000D01*
X83605714Y14882381D01*
X83558095Y14787143D01*
X83558095Y14691905D01*
X83605714Y14549048D01*
X84177142Y13977620D01*
X83558095Y13977620D01*
G04 #@! TO.C,U7*
X70182380Y26531905D02*
X70991904Y26531905D01*
X71087142Y26484286D01*
X71134761Y26436667D01*
X71182380Y26341429D01*
X71182380Y26150953D01*
X71134761Y26055715D01*
X71087142Y26008096D01*
X70991904Y25960477D01*
X70182380Y25960477D01*
X70182380Y25579524D02*
X70182380Y24912858D01*
X71182380Y25341429D01*
G04 #@! TO.C,U8*
X80182380Y23311905D02*
X80991904Y23311905D01*
X81087142Y23264286D01*
X81134761Y23216667D01*
X81182380Y23121429D01*
X81182380Y22930953D01*
X81134761Y22835715D01*
X81087142Y22788096D01*
X80991904Y22740477D01*
X80182380Y22740477D01*
X80610952Y22121429D02*
X80563333Y22216667D01*
X80515714Y22264286D01*
X80420476Y22311905D01*
X80372857Y22311905D01*
X80277619Y22264286D01*
X80230000Y22216667D01*
X80182380Y22121429D01*
X80182380Y21930953D01*
X80230000Y21835715D01*
X80277619Y21788096D01*
X80372857Y21740477D01*
X80420476Y21740477D01*
X80515714Y21788096D01*
X80563333Y21835715D01*
X80610952Y21930953D01*
X80610952Y22121429D01*
X80658571Y22216667D01*
X80706190Y22264286D01*
X80801428Y22311905D01*
X80991904Y22311905D01*
X81087142Y22264286D01*
X81134761Y22216667D01*
X81182380Y22121429D01*
X81182380Y21930953D01*
X81134761Y21835715D01*
X81087142Y21788096D01*
X80991904Y21740477D01*
X80801428Y21740477D01*
X80706190Y21788096D01*
X80658571Y21835715D01*
X80610952Y21930953D01*
G04 #@! TD*
%LPC*%
D13*
G04 #@! TO.C,J1*
X57620000Y10250000D03*
D14*
X55080000Y10250000D03*
X52540000Y10250000D03*
X50000000Y10250000D03*
X47460000Y10250000D03*
X44920000Y10250000D03*
X42380000Y10250000D03*
G04 #@! TD*
D15*
G04 #@! TO.C,U3*
X33730000Y26450000D03*
X36270000Y26450000D03*
X36270000Y29250000D03*
D16*
X33730000Y29250000D03*
G04 #@! TD*
D15*
G04 #@! TO.C,U6*
X63730000Y26450000D03*
X66270000Y26450000D03*
X66270000Y29250000D03*
D16*
X63730000Y29250000D03*
G04 #@! TD*
D15*
G04 #@! TO.C,R7*
X55840000Y34800000D03*
D17*
X66000000Y34800000D03*
G04 #@! TD*
D15*
G04 #@! TO.C,U5*
X53730000Y27500000D03*
X56270000Y27500000D03*
X56270000Y30300000D03*
D16*
X53730000Y30300000D03*
G04 #@! TD*
D15*
G04 #@! TO.C,U4*
X43700000Y27500000D03*
X46240000Y27500000D03*
X46240000Y30300000D03*
D16*
X43700000Y30300000D03*
G04 #@! TD*
D15*
G04 #@! TO.C,R4*
X34500000Y34800000D03*
D17*
X44660000Y34800000D03*
G04 #@! TD*
D15*
G04 #@! TO.C,U1*
X13730000Y21150000D03*
X16270000Y21150000D03*
X16270000Y23950000D03*
D16*
X13730000Y23950000D03*
G04 #@! TD*
D15*
G04 #@! TO.C,U2*
X23730000Y24370000D03*
X26270000Y24370000D03*
X26270000Y27170000D03*
D16*
X23730000Y27170000D03*
G04 #@! TD*
D15*
G04 #@! TO.C,R1*
X9640000Y28100000D03*
D17*
X19800000Y28100000D03*
G04 #@! TD*
D15*
G04 #@! TO.C,R8*
X62700000Y12500000D03*
D17*
X62700000Y22660000D03*
G04 #@! TD*
D15*
G04 #@! TO.C,R2*
X10100000Y16700000D03*
D17*
X20260000Y16700000D03*
G04 #@! TD*
D15*
G04 #@! TO.C,R3*
X20440000Y20200000D03*
D17*
X30600000Y20200000D03*
G04 #@! TD*
D15*
G04 #@! TO.C,R5*
X33900000Y12500000D03*
D17*
X33900000Y22660000D03*
G04 #@! TD*
D15*
G04 #@! TO.C,R6*
X37300000Y12500000D03*
D17*
X37300000Y22660000D03*
G04 #@! TD*
D15*
G04 #@! TO.C,R9*
X66100000Y12500000D03*
D17*
X66100000Y22660000D03*
G04 #@! TD*
D15*
G04 #@! TO.C,R10*
X80100000Y28100000D03*
D17*
X90260000Y28100000D03*
G04 #@! TD*
D15*
G04 #@! TO.C,R11*
X69300000Y20200000D03*
D17*
X79460000Y20200000D03*
G04 #@! TD*
D15*
G04 #@! TO.C,R12*
X79740000Y16800000D03*
D17*
X89900000Y16800000D03*
G04 #@! TD*
D15*
G04 #@! TO.C,U7*
X73730000Y24370000D03*
X76270000Y24370000D03*
X76270000Y27170000D03*
D16*
X73730000Y27170000D03*
G04 #@! TD*
D15*
G04 #@! TO.C,U8*
X83730000Y21150000D03*
X86270000Y21150000D03*
X86270000Y23950000D03*
D16*
X83730000Y23950000D03*
G04 #@! TD*
D18*
G04 #@! TO.C,U9*
X58860000Y22200000D03*
D19*
X41080000Y14580000D03*
X56320000Y22200000D03*
X43620000Y14580000D03*
X53780000Y22200000D03*
X46160000Y14580000D03*
X51240000Y22200000D03*
X48700000Y14580000D03*
X48700000Y22200000D03*
X51240000Y14580000D03*
X46160000Y22200000D03*
X53780000Y14580000D03*
X43620000Y22200000D03*
X56320000Y14580000D03*
X41080000Y22200000D03*
X58860000Y14580000D03*
G04 #@! TD*
M02*
