G04 #@! TF.GenerationSoftware,KiCad,Pcbnew,5.0.2-bee76a0~70~ubuntu18.04.1*
G04 #@! TF.CreationDate,2019-09-09T13:29:18+02:00*
G04 #@! TF.ProjectId,Sensors_board,53656e73-6f72-4735-9f62-6f6172642e6b,V2*
G04 #@! TF.SameCoordinates,PX4db9760PY4ead9a0*
G04 #@! TF.FileFunction,Soldermask,Top*
G04 #@! TF.FilePolarity,Negative*
%FSLAX46Y46*%
G04 Gerber Fmt 4.6, Leading zero omitted, Abs format (unit mm)*
G04 Created by KiCad (PCBNEW 5.0.2-bee76a0~70~ubuntu18.04.1) date lun 09 sep 2019 13:29:18 CEST*
%MOMM*%
%LPD*%
G01*
G04 APERTURE LIST*
%ADD10C,0.150000*%
%ADD11C,0.100000*%
G04 APERTURE END LIST*
D10*
X26000000Y16500000D02*
X18500000Y13500000D01*
X26000000Y16500000D02*
X32000000Y16500000D01*
X74000000Y16500000D02*
X68000000Y16500000D01*
X81500000Y13500000D02*
X74000000Y16500000D01*
X68000000Y16500000D02*
X68000000Y5000000D01*
X32000000Y16500000D02*
X32000000Y5000000D01*
X88500000Y31500001D02*
G75*
G03X11500000Y31500000I-38500000J-101000001D01*
G01*
X32000000Y5000000D02*
G75*
G03X37000000Y0I5000000J0D01*
G01*
X68000000Y5000000D02*
G75*
G02X63000000Y0I-5000000J0D01*
G01*
X37000000Y0D02*
X63000000Y0D01*
X64000000Y5000000D02*
G75*
G03X64000000Y5000000I-1000000J0D01*
G01*
X38000000Y5000000D02*
G75*
G03X38000000Y5000000I-1000000J0D01*
G01*
X18500000Y13500000D02*
G75*
G02X11500000Y31500000I-3500000J9000000D01*
G01*
X81500001Y13500000D02*
G75*
G03X88500000Y31500000I3499999J9000000D01*
G01*
X72500000Y33000000D02*
G75*
G03X72500000Y33000000I-1000000J0D01*
G01*
X29500000Y33000000D02*
G75*
G03X29500000Y33000000I-1000000J0D01*
G01*
D11*
G36*
X42508707Y11292403D02*
X42585836Y11284807D01*
X42717787Y11244780D01*
X42783763Y11224767D01*
X42966172Y11127267D01*
X43126054Y10996054D01*
X43257267Y10836172D01*
X43354767Y10653763D01*
X43354767Y10653762D01*
X43414807Y10455836D01*
X43435080Y10250000D01*
X43414807Y10044164D01*
X43374780Y9912213D01*
X43354767Y9846237D01*
X43257267Y9663828D01*
X43126054Y9503946D01*
X42966172Y9372733D01*
X42783763Y9275233D01*
X42717787Y9255220D01*
X42585836Y9215193D01*
X42508707Y9207596D01*
X42431580Y9200000D01*
X42328420Y9200000D01*
X42251293Y9207596D01*
X42174164Y9215193D01*
X42042213Y9255220D01*
X41976237Y9275233D01*
X41793828Y9372733D01*
X41633946Y9503946D01*
X41502733Y9663828D01*
X41405233Y9846237D01*
X41385220Y9912213D01*
X41345193Y10044164D01*
X41324920Y10250000D01*
X41345193Y10455836D01*
X41405233Y10653762D01*
X41405233Y10653763D01*
X41502733Y10836172D01*
X41633946Y10996054D01*
X41793828Y11127267D01*
X41976237Y11224767D01*
X42042213Y11244780D01*
X42174164Y11284807D01*
X42251293Y11292403D01*
X42328420Y11300000D01*
X42431580Y11300000D01*
X42508707Y11292403D01*
X42508707Y11292403D01*
G37*
G36*
X55208707Y11292403D02*
X55285836Y11284807D01*
X55417787Y11244780D01*
X55483763Y11224767D01*
X55666172Y11127267D01*
X55826054Y10996054D01*
X55957267Y10836172D01*
X56054767Y10653763D01*
X56054767Y10653762D01*
X56114807Y10455836D01*
X56135080Y10250000D01*
X56114807Y10044164D01*
X56074780Y9912213D01*
X56054767Y9846237D01*
X55957267Y9663828D01*
X55826054Y9503946D01*
X55666172Y9372733D01*
X55483763Y9275233D01*
X55417787Y9255220D01*
X55285836Y9215193D01*
X55208707Y9207596D01*
X55131580Y9200000D01*
X55028420Y9200000D01*
X54951293Y9207596D01*
X54874164Y9215193D01*
X54742213Y9255220D01*
X54676237Y9275233D01*
X54493828Y9372733D01*
X54333946Y9503946D01*
X54202733Y9663828D01*
X54105233Y9846237D01*
X54085220Y9912213D01*
X54045193Y10044164D01*
X54024920Y10250000D01*
X54045193Y10455836D01*
X54105233Y10653762D01*
X54105233Y10653763D01*
X54202733Y10836172D01*
X54333946Y10996054D01*
X54493828Y11127267D01*
X54676237Y11224767D01*
X54742213Y11244780D01*
X54874164Y11284807D01*
X54951293Y11292403D01*
X55028420Y11300000D01*
X55131580Y11300000D01*
X55208707Y11292403D01*
X55208707Y11292403D01*
G37*
G36*
X58670000Y9200000D02*
X56570000Y9200000D01*
X56570000Y11300000D01*
X58670000Y11300000D01*
X58670000Y9200000D01*
X58670000Y9200000D01*
G37*
G36*
X52668707Y11292403D02*
X52745836Y11284807D01*
X52877787Y11244780D01*
X52943763Y11224767D01*
X53126172Y11127267D01*
X53286054Y10996054D01*
X53417267Y10836172D01*
X53514767Y10653763D01*
X53514767Y10653762D01*
X53574807Y10455836D01*
X53595080Y10250000D01*
X53574807Y10044164D01*
X53534780Y9912213D01*
X53514767Y9846237D01*
X53417267Y9663828D01*
X53286054Y9503946D01*
X53126172Y9372733D01*
X52943763Y9275233D01*
X52877787Y9255220D01*
X52745836Y9215193D01*
X52668707Y9207596D01*
X52591580Y9200000D01*
X52488420Y9200000D01*
X52411293Y9207596D01*
X52334164Y9215193D01*
X52202213Y9255220D01*
X52136237Y9275233D01*
X51953828Y9372733D01*
X51793946Y9503946D01*
X51662733Y9663828D01*
X51565233Y9846237D01*
X51545220Y9912213D01*
X51505193Y10044164D01*
X51484920Y10250000D01*
X51505193Y10455836D01*
X51565233Y10653762D01*
X51565233Y10653763D01*
X51662733Y10836172D01*
X51793946Y10996054D01*
X51953828Y11127267D01*
X52136237Y11224767D01*
X52202213Y11244780D01*
X52334164Y11284807D01*
X52411293Y11292403D01*
X52488420Y11300000D01*
X52591580Y11300000D01*
X52668707Y11292403D01*
X52668707Y11292403D01*
G37*
G36*
X50128707Y11292403D02*
X50205836Y11284807D01*
X50337787Y11244780D01*
X50403763Y11224767D01*
X50586172Y11127267D01*
X50746054Y10996054D01*
X50877267Y10836172D01*
X50974767Y10653763D01*
X50974767Y10653762D01*
X51034807Y10455836D01*
X51055080Y10250000D01*
X51034807Y10044164D01*
X50994780Y9912213D01*
X50974767Y9846237D01*
X50877267Y9663828D01*
X50746054Y9503946D01*
X50586172Y9372733D01*
X50403763Y9275233D01*
X50337787Y9255220D01*
X50205836Y9215193D01*
X50128707Y9207596D01*
X50051580Y9200000D01*
X49948420Y9200000D01*
X49871293Y9207596D01*
X49794164Y9215193D01*
X49662213Y9255220D01*
X49596237Y9275233D01*
X49413828Y9372733D01*
X49253946Y9503946D01*
X49122733Y9663828D01*
X49025233Y9846237D01*
X49005220Y9912213D01*
X48965193Y10044164D01*
X48944920Y10250000D01*
X48965193Y10455836D01*
X49025233Y10653762D01*
X49025233Y10653763D01*
X49122733Y10836172D01*
X49253946Y10996054D01*
X49413828Y11127267D01*
X49596237Y11224767D01*
X49662213Y11244780D01*
X49794164Y11284807D01*
X49871293Y11292403D01*
X49948420Y11300000D01*
X50051580Y11300000D01*
X50128707Y11292403D01*
X50128707Y11292403D01*
G37*
G36*
X47588707Y11292403D02*
X47665836Y11284807D01*
X47797787Y11244780D01*
X47863763Y11224767D01*
X48046172Y11127267D01*
X48206054Y10996054D01*
X48337267Y10836172D01*
X48434767Y10653763D01*
X48434767Y10653762D01*
X48494807Y10455836D01*
X48515080Y10250000D01*
X48494807Y10044164D01*
X48454780Y9912213D01*
X48434767Y9846237D01*
X48337267Y9663828D01*
X48206054Y9503946D01*
X48046172Y9372733D01*
X47863763Y9275233D01*
X47797787Y9255220D01*
X47665836Y9215193D01*
X47588707Y9207596D01*
X47511580Y9200000D01*
X47408420Y9200000D01*
X47331293Y9207596D01*
X47254164Y9215193D01*
X47122213Y9255220D01*
X47056237Y9275233D01*
X46873828Y9372733D01*
X46713946Y9503946D01*
X46582733Y9663828D01*
X46485233Y9846237D01*
X46465220Y9912213D01*
X46425193Y10044164D01*
X46404920Y10250000D01*
X46425193Y10455836D01*
X46485233Y10653762D01*
X46485233Y10653763D01*
X46582733Y10836172D01*
X46713946Y10996054D01*
X46873828Y11127267D01*
X47056237Y11224767D01*
X47122213Y11244780D01*
X47254164Y11284807D01*
X47331293Y11292403D01*
X47408420Y11300000D01*
X47511580Y11300000D01*
X47588707Y11292403D01*
X47588707Y11292403D01*
G37*
G36*
X45048707Y11292403D02*
X45125836Y11284807D01*
X45257787Y11244780D01*
X45323763Y11224767D01*
X45506172Y11127267D01*
X45666054Y10996054D01*
X45797267Y10836172D01*
X45894767Y10653763D01*
X45894767Y10653762D01*
X45954807Y10455836D01*
X45975080Y10250000D01*
X45954807Y10044164D01*
X45914780Y9912213D01*
X45894767Y9846237D01*
X45797267Y9663828D01*
X45666054Y9503946D01*
X45506172Y9372733D01*
X45323763Y9275233D01*
X45257787Y9255220D01*
X45125836Y9215193D01*
X45048707Y9207596D01*
X44971580Y9200000D01*
X44868420Y9200000D01*
X44791293Y9207596D01*
X44714164Y9215193D01*
X44582213Y9255220D01*
X44516237Y9275233D01*
X44333828Y9372733D01*
X44173946Y9503946D01*
X44042733Y9663828D01*
X43945233Y9846237D01*
X43925220Y9912213D01*
X43885193Y10044164D01*
X43864920Y10250000D01*
X43885193Y10455836D01*
X43945233Y10653762D01*
X43945233Y10653763D01*
X44042733Y10836172D01*
X44173946Y10996054D01*
X44333828Y11127267D01*
X44516237Y11224767D01*
X44582213Y11244780D01*
X44714164Y11284807D01*
X44791293Y11292403D01*
X44868420Y11300000D01*
X44971580Y11300000D01*
X45048707Y11292403D01*
X45048707Y11292403D01*
G37*
G36*
X37475770Y13484628D02*
X37591689Y13461571D01*
X37773678Y13386189D01*
X37937463Y13276751D01*
X38076751Y13137463D01*
X38186189Y12973678D01*
X38261571Y12791689D01*
X38300000Y12598491D01*
X38300000Y12401509D01*
X38261571Y12208311D01*
X38186189Y12026322D01*
X38076751Y11862537D01*
X37937463Y11723249D01*
X37773678Y11613811D01*
X37591689Y11538429D01*
X37475770Y11515372D01*
X37398493Y11500000D01*
X37201507Y11500000D01*
X37124230Y11515372D01*
X37008311Y11538429D01*
X36826322Y11613811D01*
X36662537Y11723249D01*
X36523249Y11862537D01*
X36413811Y12026322D01*
X36338429Y12208311D01*
X36300000Y12401509D01*
X36300000Y12598491D01*
X36338429Y12791689D01*
X36413811Y12973678D01*
X36523249Y13137463D01*
X36662537Y13276751D01*
X36826322Y13386189D01*
X37008311Y13461571D01*
X37124230Y13484628D01*
X37201507Y13500000D01*
X37398493Y13500000D01*
X37475770Y13484628D01*
X37475770Y13484628D01*
G37*
G36*
X66275770Y13484628D02*
X66391689Y13461571D01*
X66573678Y13386189D01*
X66737463Y13276751D01*
X66876751Y13137463D01*
X66986189Y12973678D01*
X67061571Y12791689D01*
X67100000Y12598491D01*
X67100000Y12401509D01*
X67061571Y12208311D01*
X66986189Y12026322D01*
X66876751Y11862537D01*
X66737463Y11723249D01*
X66573678Y11613811D01*
X66391689Y11538429D01*
X66275770Y11515372D01*
X66198493Y11500000D01*
X66001507Y11500000D01*
X65924230Y11515372D01*
X65808311Y11538429D01*
X65626322Y11613811D01*
X65462537Y11723249D01*
X65323249Y11862537D01*
X65213811Y12026322D01*
X65138429Y12208311D01*
X65100000Y12401509D01*
X65100000Y12598491D01*
X65138429Y12791689D01*
X65213811Y12973678D01*
X65323249Y13137463D01*
X65462537Y13276751D01*
X65626322Y13386189D01*
X65808311Y13461571D01*
X65924230Y13484628D01*
X66001507Y13500000D01*
X66198493Y13500000D01*
X66275770Y13484628D01*
X66275770Y13484628D01*
G37*
G36*
X34075770Y13484628D02*
X34191689Y13461571D01*
X34373678Y13386189D01*
X34537463Y13276751D01*
X34676751Y13137463D01*
X34786189Y12973678D01*
X34861571Y12791689D01*
X34900000Y12598491D01*
X34900000Y12401509D01*
X34861571Y12208311D01*
X34786189Y12026322D01*
X34676751Y11862537D01*
X34537463Y11723249D01*
X34373678Y11613811D01*
X34191689Y11538429D01*
X34075770Y11515372D01*
X33998493Y11500000D01*
X33801507Y11500000D01*
X33724230Y11515372D01*
X33608311Y11538429D01*
X33426322Y11613811D01*
X33262537Y11723249D01*
X33123249Y11862537D01*
X33013811Y12026322D01*
X32938429Y12208311D01*
X32900000Y12401509D01*
X32900000Y12598491D01*
X32938429Y12791689D01*
X33013811Y12973678D01*
X33123249Y13137463D01*
X33262537Y13276751D01*
X33426322Y13386189D01*
X33608311Y13461571D01*
X33724230Y13484628D01*
X33801507Y13500000D01*
X33998493Y13500000D01*
X34075770Y13484628D01*
X34075770Y13484628D01*
G37*
G36*
X62875770Y13484628D02*
X62991689Y13461571D01*
X63173678Y13386189D01*
X63337463Y13276751D01*
X63476751Y13137463D01*
X63586189Y12973678D01*
X63661571Y12791689D01*
X63700000Y12598491D01*
X63700000Y12401509D01*
X63661571Y12208311D01*
X63586189Y12026322D01*
X63476751Y11862537D01*
X63337463Y11723249D01*
X63173678Y11613811D01*
X62991689Y11538429D01*
X62875770Y11515372D01*
X62798493Y11500000D01*
X62601507Y11500000D01*
X62524230Y11515372D01*
X62408311Y11538429D01*
X62226322Y11613811D01*
X62062537Y11723249D01*
X61923249Y11862537D01*
X61813811Y12026322D01*
X61738429Y12208311D01*
X61700000Y12401509D01*
X61700000Y12598491D01*
X61738429Y12791689D01*
X61813811Y12973678D01*
X61923249Y13137463D01*
X62062537Y13276751D01*
X62226322Y13386189D01*
X62408311Y13461571D01*
X62524230Y13484628D01*
X62601507Y13500000D01*
X62798493Y13500000D01*
X62875770Y13484628D01*
X62875770Y13484628D01*
G37*
G36*
X41276030Y15965531D02*
X41276033Y15965530D01*
X41276034Y15965530D01*
X41464535Y15908349D01*
X41464537Y15908348D01*
X41638260Y15815491D01*
X41790528Y15690528D01*
X41915491Y15538260D01*
X42008349Y15364536D01*
X42065531Y15176031D01*
X42080000Y15029123D01*
X42080000Y14130876D01*
X42065531Y13983970D01*
X42008348Y13795463D01*
X41915491Y13621740D01*
X41790528Y13469472D01*
X41638258Y13344507D01*
X41464539Y13251653D01*
X41464536Y13251652D01*
X41464534Y13251651D01*
X41276033Y13194470D01*
X41276032Y13194470D01*
X41276029Y13194469D01*
X41080000Y13175162D01*
X40883970Y13194469D01*
X40883967Y13194470D01*
X40883966Y13194470D01*
X40695465Y13251651D01*
X40521742Y13344508D01*
X40521740Y13344509D01*
X40369472Y13469472D01*
X40244507Y13621742D01*
X40151653Y13795461D01*
X40094471Y13983966D01*
X40094470Y13983967D01*
X40094470Y13983968D01*
X40094469Y13983971D01*
X40080000Y14130877D01*
X40080000Y15029124D01*
X40094469Y15176035D01*
X40151651Y15364533D01*
X40244510Y15538260D01*
X40369473Y15690528D01*
X40521741Y15815491D01*
X40695464Y15908348D01*
X40695466Y15908349D01*
X40883967Y15965530D01*
X40883968Y15965530D01*
X40883971Y15965531D01*
X41080000Y15984838D01*
X41276030Y15965531D01*
X41276030Y15965531D01*
G37*
G36*
X46356030Y15965531D02*
X46356033Y15965530D01*
X46356034Y15965530D01*
X46544535Y15908349D01*
X46544537Y15908348D01*
X46718260Y15815491D01*
X46870528Y15690528D01*
X46995491Y15538260D01*
X47088349Y15364536D01*
X47145531Y15176031D01*
X47160000Y15029123D01*
X47160000Y14130876D01*
X47145531Y13983970D01*
X47088348Y13795463D01*
X46995491Y13621740D01*
X46870528Y13469472D01*
X46718258Y13344507D01*
X46544539Y13251653D01*
X46544536Y13251652D01*
X46544534Y13251651D01*
X46356033Y13194470D01*
X46356032Y13194470D01*
X46356029Y13194469D01*
X46160000Y13175162D01*
X45963970Y13194469D01*
X45963967Y13194470D01*
X45963966Y13194470D01*
X45775465Y13251651D01*
X45601742Y13344508D01*
X45601740Y13344509D01*
X45449472Y13469472D01*
X45324507Y13621742D01*
X45231653Y13795461D01*
X45174471Y13983966D01*
X45174470Y13983967D01*
X45174470Y13983968D01*
X45174469Y13983971D01*
X45160000Y14130877D01*
X45160000Y15029124D01*
X45174469Y15176035D01*
X45231651Y15364533D01*
X45324510Y15538260D01*
X45449473Y15690528D01*
X45601741Y15815491D01*
X45775464Y15908348D01*
X45775466Y15908349D01*
X45963967Y15965530D01*
X45963968Y15965530D01*
X45963971Y15965531D01*
X46160000Y15984838D01*
X46356030Y15965531D01*
X46356030Y15965531D01*
G37*
G36*
X43816030Y15965531D02*
X43816033Y15965530D01*
X43816034Y15965530D01*
X44004535Y15908349D01*
X44004537Y15908348D01*
X44178260Y15815491D01*
X44330528Y15690528D01*
X44455491Y15538260D01*
X44548349Y15364536D01*
X44605531Y15176031D01*
X44620000Y15029123D01*
X44620000Y14130876D01*
X44605531Y13983970D01*
X44548348Y13795463D01*
X44455491Y13621740D01*
X44330528Y13469472D01*
X44178258Y13344507D01*
X44004539Y13251653D01*
X44004536Y13251652D01*
X44004534Y13251651D01*
X43816033Y13194470D01*
X43816032Y13194470D01*
X43816029Y13194469D01*
X43620000Y13175162D01*
X43423970Y13194469D01*
X43423967Y13194470D01*
X43423966Y13194470D01*
X43235465Y13251651D01*
X43061742Y13344508D01*
X43061740Y13344509D01*
X42909472Y13469472D01*
X42784507Y13621742D01*
X42691653Y13795461D01*
X42634471Y13983966D01*
X42634470Y13983967D01*
X42634470Y13983968D01*
X42634469Y13983971D01*
X42620000Y14130877D01*
X42620000Y15029124D01*
X42634469Y15176035D01*
X42691651Y15364533D01*
X42784510Y15538260D01*
X42909473Y15690528D01*
X43061741Y15815491D01*
X43235464Y15908348D01*
X43235466Y15908349D01*
X43423967Y15965530D01*
X43423968Y15965530D01*
X43423971Y15965531D01*
X43620000Y15984838D01*
X43816030Y15965531D01*
X43816030Y15965531D01*
G37*
G36*
X48896030Y15965531D02*
X48896033Y15965530D01*
X48896034Y15965530D01*
X49084535Y15908349D01*
X49084537Y15908348D01*
X49258260Y15815491D01*
X49410528Y15690528D01*
X49535491Y15538260D01*
X49628349Y15364536D01*
X49685531Y15176031D01*
X49700000Y15029123D01*
X49700000Y14130876D01*
X49685531Y13983970D01*
X49628348Y13795463D01*
X49535491Y13621740D01*
X49410528Y13469472D01*
X49258258Y13344507D01*
X49084539Y13251653D01*
X49084536Y13251652D01*
X49084534Y13251651D01*
X48896033Y13194470D01*
X48896032Y13194470D01*
X48896029Y13194469D01*
X48700000Y13175162D01*
X48503970Y13194469D01*
X48503967Y13194470D01*
X48503966Y13194470D01*
X48315465Y13251651D01*
X48141742Y13344508D01*
X48141740Y13344509D01*
X47989472Y13469472D01*
X47864507Y13621742D01*
X47771653Y13795461D01*
X47714471Y13983966D01*
X47714470Y13983967D01*
X47714470Y13983968D01*
X47714469Y13983971D01*
X47700000Y14130877D01*
X47700000Y15029124D01*
X47714469Y15176035D01*
X47771651Y15364533D01*
X47864510Y15538260D01*
X47989473Y15690528D01*
X48141741Y15815491D01*
X48315464Y15908348D01*
X48315466Y15908349D01*
X48503967Y15965530D01*
X48503968Y15965530D01*
X48503971Y15965531D01*
X48700000Y15984838D01*
X48896030Y15965531D01*
X48896030Y15965531D01*
G37*
G36*
X51436030Y15965531D02*
X51436033Y15965530D01*
X51436034Y15965530D01*
X51624535Y15908349D01*
X51624537Y15908348D01*
X51798260Y15815491D01*
X51950528Y15690528D01*
X52075491Y15538260D01*
X52168349Y15364536D01*
X52225531Y15176031D01*
X52240000Y15029123D01*
X52240000Y14130876D01*
X52225531Y13983970D01*
X52168348Y13795463D01*
X52075491Y13621740D01*
X51950528Y13469472D01*
X51798258Y13344507D01*
X51624539Y13251653D01*
X51624536Y13251652D01*
X51624534Y13251651D01*
X51436033Y13194470D01*
X51436032Y13194470D01*
X51436029Y13194469D01*
X51240000Y13175162D01*
X51043970Y13194469D01*
X51043967Y13194470D01*
X51043966Y13194470D01*
X50855465Y13251651D01*
X50681742Y13344508D01*
X50681740Y13344509D01*
X50529472Y13469472D01*
X50404507Y13621742D01*
X50311653Y13795461D01*
X50254471Y13983966D01*
X50254470Y13983967D01*
X50254470Y13983968D01*
X50254469Y13983971D01*
X50240000Y14130877D01*
X50240000Y15029124D01*
X50254469Y15176035D01*
X50311651Y15364533D01*
X50404510Y15538260D01*
X50529473Y15690528D01*
X50681741Y15815491D01*
X50855464Y15908348D01*
X50855466Y15908349D01*
X51043967Y15965530D01*
X51043968Y15965530D01*
X51043971Y15965531D01*
X51240000Y15984838D01*
X51436030Y15965531D01*
X51436030Y15965531D01*
G37*
G36*
X53976030Y15965531D02*
X53976033Y15965530D01*
X53976034Y15965530D01*
X54164535Y15908349D01*
X54164537Y15908348D01*
X54338260Y15815491D01*
X54490528Y15690528D01*
X54615491Y15538260D01*
X54708349Y15364536D01*
X54765531Y15176031D01*
X54780000Y15029123D01*
X54780000Y14130876D01*
X54765531Y13983970D01*
X54708348Y13795463D01*
X54615491Y13621740D01*
X54490528Y13469472D01*
X54338258Y13344507D01*
X54164539Y13251653D01*
X54164536Y13251652D01*
X54164534Y13251651D01*
X53976033Y13194470D01*
X53976032Y13194470D01*
X53976029Y13194469D01*
X53780000Y13175162D01*
X53583970Y13194469D01*
X53583967Y13194470D01*
X53583966Y13194470D01*
X53395465Y13251651D01*
X53221742Y13344508D01*
X53221740Y13344509D01*
X53069472Y13469472D01*
X52944507Y13621742D01*
X52851653Y13795461D01*
X52794471Y13983966D01*
X52794470Y13983967D01*
X52794470Y13983968D01*
X52794469Y13983971D01*
X52780000Y14130877D01*
X52780000Y15029124D01*
X52794469Y15176035D01*
X52851651Y15364533D01*
X52944510Y15538260D01*
X53069473Y15690528D01*
X53221741Y15815491D01*
X53395464Y15908348D01*
X53395466Y15908349D01*
X53583967Y15965530D01*
X53583968Y15965530D01*
X53583971Y15965531D01*
X53780000Y15984838D01*
X53976030Y15965531D01*
X53976030Y15965531D01*
G37*
G36*
X56516030Y15965531D02*
X56516033Y15965530D01*
X56516034Y15965530D01*
X56704535Y15908349D01*
X56704537Y15908348D01*
X56878260Y15815491D01*
X57030528Y15690528D01*
X57155491Y15538260D01*
X57248349Y15364536D01*
X57305531Y15176031D01*
X57320000Y15029123D01*
X57320000Y14130876D01*
X57305531Y13983970D01*
X57248348Y13795463D01*
X57155491Y13621740D01*
X57030528Y13469472D01*
X56878258Y13344507D01*
X56704539Y13251653D01*
X56704536Y13251652D01*
X56704534Y13251651D01*
X56516033Y13194470D01*
X56516032Y13194470D01*
X56516029Y13194469D01*
X56320000Y13175162D01*
X56123970Y13194469D01*
X56123967Y13194470D01*
X56123966Y13194470D01*
X55935465Y13251651D01*
X55761742Y13344508D01*
X55761740Y13344509D01*
X55609472Y13469472D01*
X55484507Y13621742D01*
X55391653Y13795461D01*
X55334471Y13983966D01*
X55334470Y13983967D01*
X55334470Y13983968D01*
X55334469Y13983971D01*
X55320000Y14130877D01*
X55320000Y15029124D01*
X55334469Y15176035D01*
X55391651Y15364533D01*
X55484510Y15538260D01*
X55609473Y15690528D01*
X55761741Y15815491D01*
X55935464Y15908348D01*
X55935466Y15908349D01*
X56123967Y15965530D01*
X56123968Y15965530D01*
X56123971Y15965531D01*
X56320000Y15984838D01*
X56516030Y15965531D01*
X56516030Y15965531D01*
G37*
G36*
X59056030Y15965531D02*
X59056033Y15965530D01*
X59056034Y15965530D01*
X59244535Y15908349D01*
X59244537Y15908348D01*
X59418260Y15815491D01*
X59570528Y15690528D01*
X59695491Y15538260D01*
X59788349Y15364536D01*
X59845531Y15176031D01*
X59860000Y15029123D01*
X59860000Y14130876D01*
X59845531Y13983970D01*
X59788348Y13795463D01*
X59695491Y13621740D01*
X59570528Y13469472D01*
X59418258Y13344507D01*
X59244539Y13251653D01*
X59244536Y13251652D01*
X59244534Y13251651D01*
X59056033Y13194470D01*
X59056032Y13194470D01*
X59056029Y13194469D01*
X58860000Y13175162D01*
X58663970Y13194469D01*
X58663967Y13194470D01*
X58663966Y13194470D01*
X58475465Y13251651D01*
X58301742Y13344508D01*
X58301740Y13344509D01*
X58149472Y13469472D01*
X58024507Y13621742D01*
X57931653Y13795461D01*
X57874471Y13983966D01*
X57874470Y13983967D01*
X57874470Y13983968D01*
X57874469Y13983971D01*
X57860000Y14130877D01*
X57860000Y15029124D01*
X57874469Y15176035D01*
X57931651Y15364533D01*
X58024510Y15538260D01*
X58149473Y15690528D01*
X58301741Y15815491D01*
X58475464Y15908348D01*
X58475466Y15908349D01*
X58663967Y15965530D01*
X58663968Y15965530D01*
X58663971Y15965531D01*
X58860000Y15984838D01*
X59056030Y15965531D01*
X59056030Y15965531D01*
G37*
G36*
X10275770Y17684628D02*
X10391689Y17661571D01*
X10573678Y17586189D01*
X10737463Y17476751D01*
X10876751Y17337463D01*
X10986189Y17173678D01*
X11061571Y16991689D01*
X11100000Y16798491D01*
X11100000Y16601509D01*
X11061571Y16408311D01*
X10986189Y16226322D01*
X10876751Y16062537D01*
X10737463Y15923249D01*
X10573678Y15813811D01*
X10391689Y15738429D01*
X10275770Y15715372D01*
X10198493Y15700000D01*
X10001507Y15700000D01*
X9924230Y15715372D01*
X9808311Y15738429D01*
X9626322Y15813811D01*
X9462537Y15923249D01*
X9323249Y16062537D01*
X9213811Y16226322D01*
X9138429Y16408311D01*
X9100000Y16601509D01*
X9100000Y16798491D01*
X9138429Y16991689D01*
X9213811Y17173678D01*
X9323249Y17337463D01*
X9462537Y17476751D01*
X9626322Y17586189D01*
X9808311Y17661571D01*
X9924230Y17684628D01*
X10001507Y17700000D01*
X10198493Y17700000D01*
X10275770Y17684628D01*
X10275770Y17684628D01*
G37*
G36*
X20456030Y17685531D02*
X20456033Y17685530D01*
X20456034Y17685530D01*
X20644535Y17628349D01*
X20644537Y17628348D01*
X20818260Y17535491D01*
X20970528Y17410528D01*
X21095491Y17258260D01*
X21095492Y17258258D01*
X21188349Y17084535D01*
X21245530Y16896034D01*
X21245531Y16896030D01*
X21264838Y16700000D01*
X21245531Y16503970D01*
X21245530Y16503967D01*
X21245530Y16503966D01*
X21218684Y16415465D01*
X21188348Y16315463D01*
X21095491Y16141740D01*
X20970528Y15989472D01*
X20818260Y15864509D01*
X20818258Y15864508D01*
X20644535Y15771651D01*
X20456034Y15714470D01*
X20456033Y15714470D01*
X20456030Y15714469D01*
X20309124Y15700000D01*
X20210876Y15700000D01*
X20063970Y15714469D01*
X20063967Y15714470D01*
X20063966Y15714470D01*
X19875465Y15771651D01*
X19701742Y15864508D01*
X19701740Y15864509D01*
X19549472Y15989472D01*
X19424509Y16141740D01*
X19331652Y16315463D01*
X19301317Y16415465D01*
X19274470Y16503966D01*
X19274470Y16503967D01*
X19274469Y16503970D01*
X19255162Y16700000D01*
X19274469Y16896030D01*
X19274470Y16896034D01*
X19331651Y17084535D01*
X19424508Y17258258D01*
X19424509Y17258260D01*
X19549472Y17410528D01*
X19701740Y17535491D01*
X19875463Y17628348D01*
X19875465Y17628349D01*
X20063966Y17685530D01*
X20063967Y17685530D01*
X20063970Y17685531D01*
X20210876Y17700000D01*
X20309124Y17700000D01*
X20456030Y17685531D01*
X20456030Y17685531D01*
G37*
G36*
X79915770Y17784628D02*
X80031689Y17761571D01*
X80213678Y17686189D01*
X80377463Y17576751D01*
X80516751Y17437463D01*
X80626189Y17273678D01*
X80701571Y17091689D01*
X80740000Y16898491D01*
X80740000Y16701509D01*
X80701571Y16508311D01*
X80626189Y16326322D01*
X80516751Y16162537D01*
X80377463Y16023249D01*
X80213678Y15913811D01*
X80031689Y15838429D01*
X79916375Y15815492D01*
X79838493Y15800000D01*
X79641507Y15800000D01*
X79563625Y15815492D01*
X79448311Y15838429D01*
X79266322Y15913811D01*
X79102537Y16023249D01*
X78963249Y16162537D01*
X78853811Y16326322D01*
X78778429Y16508311D01*
X78740000Y16701509D01*
X78740000Y16898491D01*
X78778429Y17091689D01*
X78853811Y17273678D01*
X78963249Y17437463D01*
X79102537Y17576751D01*
X79266322Y17686189D01*
X79448311Y17761571D01*
X79564230Y17784628D01*
X79641507Y17800000D01*
X79838493Y17800000D01*
X79915770Y17784628D01*
X79915770Y17784628D01*
G37*
G36*
X90096030Y17785531D02*
X90096033Y17785530D01*
X90096034Y17785530D01*
X90284535Y17728349D01*
X90284537Y17728348D01*
X90458260Y17635491D01*
X90610528Y17510528D01*
X90735491Y17358260D01*
X90735492Y17358258D01*
X90828349Y17184535D01*
X90885530Y16996034D01*
X90885531Y16996030D01*
X90904838Y16800000D01*
X90885531Y16603970D01*
X90885530Y16603967D01*
X90885530Y16603966D01*
X90855197Y16503970D01*
X90828348Y16415463D01*
X90735491Y16241740D01*
X90610528Y16089472D01*
X90458260Y15964509D01*
X90381068Y15923249D01*
X90284535Y15871651D01*
X90096034Y15814470D01*
X90096033Y15814470D01*
X90096030Y15814469D01*
X89949124Y15800000D01*
X89850876Y15800000D01*
X89703970Y15814469D01*
X89703967Y15814470D01*
X89703966Y15814470D01*
X89515465Y15871651D01*
X89418932Y15923249D01*
X89341740Y15964509D01*
X89189472Y16089472D01*
X89064509Y16241740D01*
X88971652Y16415463D01*
X88944804Y16503970D01*
X88914470Y16603966D01*
X88914470Y16603967D01*
X88914469Y16603970D01*
X88895162Y16800000D01*
X88914469Y16996030D01*
X88914470Y16996034D01*
X88971651Y17184535D01*
X89064508Y17358258D01*
X89064509Y17358260D01*
X89189472Y17510528D01*
X89341740Y17635491D01*
X89515463Y17728348D01*
X89515465Y17728349D01*
X89703966Y17785530D01*
X89703967Y17785530D01*
X89703970Y17785531D01*
X89850876Y17800000D01*
X89949124Y17800000D01*
X90096030Y17785531D01*
X90096030Y17785531D01*
G37*
G36*
X79656030Y21185531D02*
X79656033Y21185530D01*
X79656034Y21185530D01*
X79844535Y21128349D01*
X79844537Y21128348D01*
X80018260Y21035491D01*
X80170528Y20910528D01*
X80295491Y20758260D01*
X80388348Y20584537D01*
X80445531Y20396030D01*
X80464838Y20200000D01*
X80445531Y20003970D01*
X80388348Y19815463D01*
X80295491Y19641740D01*
X80170528Y19489472D01*
X80018260Y19364509D01*
X80018258Y19364508D01*
X79844535Y19271651D01*
X79656034Y19214470D01*
X79656033Y19214470D01*
X79656030Y19214469D01*
X79509124Y19200000D01*
X79410876Y19200000D01*
X79263970Y19214469D01*
X79263967Y19214470D01*
X79263966Y19214470D01*
X79075465Y19271651D01*
X78901742Y19364508D01*
X78901740Y19364509D01*
X78749472Y19489472D01*
X78624509Y19641740D01*
X78531652Y19815463D01*
X78474469Y20003970D01*
X78455162Y20200000D01*
X78474469Y20396030D01*
X78531652Y20584537D01*
X78624509Y20758260D01*
X78749472Y20910528D01*
X78901740Y21035491D01*
X79075463Y21128348D01*
X79075465Y21128349D01*
X79263966Y21185530D01*
X79263967Y21185530D01*
X79263970Y21185531D01*
X79410876Y21200000D01*
X79509124Y21200000D01*
X79656030Y21185531D01*
X79656030Y21185531D01*
G37*
G36*
X20615770Y21184628D02*
X20731689Y21161571D01*
X20913678Y21086189D01*
X21077463Y20976751D01*
X21216751Y20837463D01*
X21326189Y20673678D01*
X21401571Y20491689D01*
X21440000Y20298491D01*
X21440000Y20101509D01*
X21401571Y19908311D01*
X21326189Y19726322D01*
X21216751Y19562537D01*
X21077463Y19423249D01*
X20913678Y19313811D01*
X20731689Y19238429D01*
X20615770Y19215372D01*
X20538493Y19200000D01*
X20341507Y19200000D01*
X20264230Y19215372D01*
X20148311Y19238429D01*
X19966322Y19313811D01*
X19802537Y19423249D01*
X19663249Y19562537D01*
X19553811Y19726322D01*
X19478429Y19908311D01*
X19440000Y20101509D01*
X19440000Y20298491D01*
X19478429Y20491689D01*
X19553811Y20673678D01*
X19663249Y20837463D01*
X19802537Y20976751D01*
X19966322Y21086189D01*
X20148311Y21161571D01*
X20264230Y21184628D01*
X20341507Y21200000D01*
X20538493Y21200000D01*
X20615770Y21184628D01*
X20615770Y21184628D01*
G37*
G36*
X30796030Y21185531D02*
X30796033Y21185530D01*
X30796034Y21185530D01*
X30984535Y21128349D01*
X30984537Y21128348D01*
X31158260Y21035491D01*
X31310528Y20910528D01*
X31435491Y20758260D01*
X31528348Y20584537D01*
X31585531Y20396030D01*
X31604838Y20200000D01*
X31585531Y20003970D01*
X31528348Y19815463D01*
X31435491Y19641740D01*
X31310528Y19489472D01*
X31158260Y19364509D01*
X31158258Y19364508D01*
X30984535Y19271651D01*
X30796034Y19214470D01*
X30796033Y19214470D01*
X30796030Y19214469D01*
X30649124Y19200000D01*
X30550876Y19200000D01*
X30403970Y19214469D01*
X30403967Y19214470D01*
X30403966Y19214470D01*
X30215465Y19271651D01*
X30041742Y19364508D01*
X30041740Y19364509D01*
X29889472Y19489472D01*
X29764509Y19641740D01*
X29671652Y19815463D01*
X29614469Y20003970D01*
X29595162Y20200000D01*
X29614469Y20396030D01*
X29671652Y20584537D01*
X29764509Y20758260D01*
X29889472Y20910528D01*
X30041740Y21035491D01*
X30215463Y21128348D01*
X30215465Y21128349D01*
X30403966Y21185530D01*
X30403967Y21185530D01*
X30403970Y21185531D01*
X30550876Y21200000D01*
X30649124Y21200000D01*
X30796030Y21185531D01*
X30796030Y21185531D01*
G37*
G36*
X69475770Y21184628D02*
X69591689Y21161571D01*
X69773678Y21086189D01*
X69937463Y20976751D01*
X70076751Y20837463D01*
X70186189Y20673678D01*
X70261571Y20491689D01*
X70300000Y20298491D01*
X70300000Y20101509D01*
X70261571Y19908311D01*
X70186189Y19726322D01*
X70076751Y19562537D01*
X69937463Y19423249D01*
X69773678Y19313811D01*
X69591689Y19238429D01*
X69475770Y19215372D01*
X69398493Y19200000D01*
X69201507Y19200000D01*
X69124230Y19215372D01*
X69008311Y19238429D01*
X68826322Y19313811D01*
X68662537Y19423249D01*
X68523249Y19562537D01*
X68413811Y19726322D01*
X68338429Y19908311D01*
X68300000Y20101509D01*
X68300000Y20298491D01*
X68338429Y20491689D01*
X68413811Y20673678D01*
X68523249Y20837463D01*
X68662537Y20976751D01*
X68826322Y21086189D01*
X69008311Y21161571D01*
X69124230Y21184628D01*
X69201507Y21200000D01*
X69398493Y21200000D01*
X69475770Y21184628D01*
X69475770Y21184628D01*
G37*
G36*
X83905770Y22134628D02*
X84021689Y22111571D01*
X84203678Y22036189D01*
X84367463Y21926751D01*
X84506751Y21787463D01*
X84616189Y21623678D01*
X84691571Y21441689D01*
X84730000Y21248491D01*
X84730000Y21051509D01*
X84691571Y20858311D01*
X84616189Y20676322D01*
X84506751Y20512537D01*
X84367463Y20373249D01*
X84203678Y20263811D01*
X84021689Y20188429D01*
X83905770Y20165372D01*
X83828493Y20150000D01*
X83631507Y20150000D01*
X83554230Y20165372D01*
X83438311Y20188429D01*
X83256322Y20263811D01*
X83092537Y20373249D01*
X82953249Y20512537D01*
X82843811Y20676322D01*
X82768429Y20858311D01*
X82730000Y21051509D01*
X82730000Y21248491D01*
X82768429Y21441689D01*
X82843811Y21623678D01*
X82953249Y21787463D01*
X83092537Y21926751D01*
X83256322Y22036189D01*
X83438311Y22111571D01*
X83554230Y22134628D01*
X83631507Y22150000D01*
X83828493Y22150000D01*
X83905770Y22134628D01*
X83905770Y22134628D01*
G37*
G36*
X86445770Y22134628D02*
X86561689Y22111571D01*
X86743678Y22036189D01*
X86907463Y21926751D01*
X87046751Y21787463D01*
X87156189Y21623678D01*
X87231571Y21441689D01*
X87270000Y21248491D01*
X87270000Y21051509D01*
X87231571Y20858311D01*
X87156189Y20676322D01*
X87046751Y20512537D01*
X86907463Y20373249D01*
X86743678Y20263811D01*
X86561689Y20188429D01*
X86445770Y20165372D01*
X86368493Y20150000D01*
X86171507Y20150000D01*
X86094230Y20165372D01*
X85978311Y20188429D01*
X85796322Y20263811D01*
X85632537Y20373249D01*
X85493249Y20512537D01*
X85383811Y20676322D01*
X85308429Y20858311D01*
X85270000Y21051509D01*
X85270000Y21248491D01*
X85308429Y21441689D01*
X85383811Y21623678D01*
X85493249Y21787463D01*
X85632537Y21926751D01*
X85796322Y22036189D01*
X85978311Y22111571D01*
X86094230Y22134628D01*
X86171507Y22150000D01*
X86368493Y22150000D01*
X86445770Y22134628D01*
X86445770Y22134628D01*
G37*
G36*
X16445770Y22134628D02*
X16561689Y22111571D01*
X16743678Y22036189D01*
X16907463Y21926751D01*
X17046751Y21787463D01*
X17156189Y21623678D01*
X17231571Y21441689D01*
X17270000Y21248491D01*
X17270000Y21051509D01*
X17231571Y20858311D01*
X17156189Y20676322D01*
X17046751Y20512537D01*
X16907463Y20373249D01*
X16743678Y20263811D01*
X16561689Y20188429D01*
X16445770Y20165372D01*
X16368493Y20150000D01*
X16171507Y20150000D01*
X16094230Y20165372D01*
X15978311Y20188429D01*
X15796322Y20263811D01*
X15632537Y20373249D01*
X15493249Y20512537D01*
X15383811Y20676322D01*
X15308429Y20858311D01*
X15270000Y21051509D01*
X15270000Y21248491D01*
X15308429Y21441689D01*
X15383811Y21623678D01*
X15493249Y21787463D01*
X15632537Y21926751D01*
X15796322Y22036189D01*
X15978311Y22111571D01*
X16094230Y22134628D01*
X16171507Y22150000D01*
X16368493Y22150000D01*
X16445770Y22134628D01*
X16445770Y22134628D01*
G37*
G36*
X13905770Y22134628D02*
X14021689Y22111571D01*
X14203678Y22036189D01*
X14367463Y21926751D01*
X14506751Y21787463D01*
X14616189Y21623678D01*
X14691571Y21441689D01*
X14730000Y21248491D01*
X14730000Y21051509D01*
X14691571Y20858311D01*
X14616189Y20676322D01*
X14506751Y20512537D01*
X14367463Y20373249D01*
X14203678Y20263811D01*
X14021689Y20188429D01*
X13905770Y20165372D01*
X13828493Y20150000D01*
X13631507Y20150000D01*
X13554230Y20165372D01*
X13438311Y20188429D01*
X13256322Y20263811D01*
X13092537Y20373249D01*
X12953249Y20512537D01*
X12843811Y20676322D01*
X12768429Y20858311D01*
X12730000Y21051509D01*
X12730000Y21248491D01*
X12768429Y21441689D01*
X12843811Y21623678D01*
X12953249Y21787463D01*
X13092537Y21926751D01*
X13256322Y22036189D01*
X13438311Y22111571D01*
X13554230Y22134628D01*
X13631507Y22150000D01*
X13828493Y22150000D01*
X13905770Y22134628D01*
X13905770Y22134628D01*
G37*
G36*
X46356030Y23585531D02*
X46356033Y23585530D01*
X46356034Y23585530D01*
X46544535Y23528349D01*
X46544537Y23528348D01*
X46718260Y23435491D01*
X46870528Y23310528D01*
X46995491Y23158260D01*
X47088349Y22984536D01*
X47145531Y22796031D01*
X47160000Y22649123D01*
X47160000Y21750876D01*
X47145531Y21603970D01*
X47088348Y21415463D01*
X46995491Y21241740D01*
X46870528Y21089472D01*
X46718258Y20964507D01*
X46544539Y20871653D01*
X46544536Y20871652D01*
X46544534Y20871651D01*
X46356033Y20814470D01*
X46356032Y20814470D01*
X46356029Y20814469D01*
X46160000Y20795162D01*
X45963970Y20814469D01*
X45963967Y20814470D01*
X45963966Y20814470D01*
X45775465Y20871651D01*
X45601742Y20964508D01*
X45601740Y20964509D01*
X45449472Y21089472D01*
X45324507Y21241742D01*
X45231653Y21415461D01*
X45223698Y21441686D01*
X45174470Y21603967D01*
X45174470Y21603968D01*
X45174469Y21603971D01*
X45160000Y21750877D01*
X45160000Y22649124D01*
X45174469Y22796035D01*
X45231651Y22984533D01*
X45324510Y23158260D01*
X45449473Y23310528D01*
X45601741Y23435491D01*
X45775464Y23528348D01*
X45775466Y23528349D01*
X45963967Y23585530D01*
X45963968Y23585530D01*
X45963971Y23585531D01*
X46160000Y23604838D01*
X46356030Y23585531D01*
X46356030Y23585531D01*
G37*
G36*
X43816030Y23585531D02*
X43816033Y23585530D01*
X43816034Y23585530D01*
X44004535Y23528349D01*
X44004537Y23528348D01*
X44178260Y23435491D01*
X44330528Y23310528D01*
X44455491Y23158260D01*
X44548349Y22984536D01*
X44605531Y22796031D01*
X44620000Y22649123D01*
X44620000Y21750876D01*
X44605531Y21603970D01*
X44548348Y21415463D01*
X44455491Y21241740D01*
X44330528Y21089472D01*
X44178258Y20964507D01*
X44004539Y20871653D01*
X44004536Y20871652D01*
X44004534Y20871651D01*
X43816033Y20814470D01*
X43816032Y20814470D01*
X43816029Y20814469D01*
X43620000Y20795162D01*
X43423970Y20814469D01*
X43423967Y20814470D01*
X43423966Y20814470D01*
X43235465Y20871651D01*
X43061742Y20964508D01*
X43061740Y20964509D01*
X42909472Y21089472D01*
X42784507Y21241742D01*
X42691653Y21415461D01*
X42683698Y21441686D01*
X42634470Y21603967D01*
X42634470Y21603968D01*
X42634469Y21603971D01*
X42620000Y21750877D01*
X42620000Y22649124D01*
X42634469Y22796035D01*
X42691651Y22984533D01*
X42784510Y23158260D01*
X42909473Y23310528D01*
X43061741Y23435491D01*
X43235464Y23528348D01*
X43235466Y23528349D01*
X43423967Y23585530D01*
X43423968Y23585530D01*
X43423971Y23585531D01*
X43620000Y23604838D01*
X43816030Y23585531D01*
X43816030Y23585531D01*
G37*
G36*
X48896030Y23585531D02*
X48896033Y23585530D01*
X48896034Y23585530D01*
X49084535Y23528349D01*
X49084537Y23528348D01*
X49258260Y23435491D01*
X49410528Y23310528D01*
X49535491Y23158260D01*
X49628349Y22984536D01*
X49685531Y22796031D01*
X49700000Y22649123D01*
X49700000Y21750876D01*
X49685531Y21603970D01*
X49628348Y21415463D01*
X49535491Y21241740D01*
X49410528Y21089472D01*
X49258258Y20964507D01*
X49084539Y20871653D01*
X49084536Y20871652D01*
X49084534Y20871651D01*
X48896033Y20814470D01*
X48896032Y20814470D01*
X48896029Y20814469D01*
X48700000Y20795162D01*
X48503970Y20814469D01*
X48503967Y20814470D01*
X48503966Y20814470D01*
X48315465Y20871651D01*
X48141742Y20964508D01*
X48141740Y20964509D01*
X47989472Y21089472D01*
X47864507Y21241742D01*
X47771653Y21415461D01*
X47763698Y21441686D01*
X47714470Y21603967D01*
X47714470Y21603968D01*
X47714469Y21603971D01*
X47700000Y21750877D01*
X47700000Y22649124D01*
X47714469Y22796035D01*
X47771651Y22984533D01*
X47864510Y23158260D01*
X47989473Y23310528D01*
X48141741Y23435491D01*
X48315464Y23528348D01*
X48315466Y23528349D01*
X48503967Y23585530D01*
X48503968Y23585530D01*
X48503971Y23585531D01*
X48700000Y23604838D01*
X48896030Y23585531D01*
X48896030Y23585531D01*
G37*
G36*
X41276030Y23585531D02*
X41276033Y23585530D01*
X41276034Y23585530D01*
X41464535Y23528349D01*
X41464537Y23528348D01*
X41638260Y23435491D01*
X41790528Y23310528D01*
X41915491Y23158260D01*
X42008349Y22984536D01*
X42065531Y22796031D01*
X42080000Y22649123D01*
X42080000Y21750876D01*
X42065531Y21603970D01*
X42008348Y21415463D01*
X41915491Y21241740D01*
X41790528Y21089472D01*
X41638258Y20964507D01*
X41464539Y20871653D01*
X41464536Y20871652D01*
X41464534Y20871651D01*
X41276033Y20814470D01*
X41276032Y20814470D01*
X41276029Y20814469D01*
X41080000Y20795162D01*
X40883970Y20814469D01*
X40883967Y20814470D01*
X40883966Y20814470D01*
X40695465Y20871651D01*
X40521742Y20964508D01*
X40521740Y20964509D01*
X40369472Y21089472D01*
X40244507Y21241742D01*
X40151653Y21415461D01*
X40143698Y21441686D01*
X40094470Y21603967D01*
X40094470Y21603968D01*
X40094469Y21603971D01*
X40080000Y21750877D01*
X40080000Y22649124D01*
X40094469Y22796035D01*
X40151651Y22984533D01*
X40244510Y23158260D01*
X40369473Y23310528D01*
X40521741Y23435491D01*
X40695464Y23528348D01*
X40695466Y23528349D01*
X40883967Y23585530D01*
X40883968Y23585530D01*
X40883971Y23585531D01*
X41080000Y23604838D01*
X41276030Y23585531D01*
X41276030Y23585531D01*
G37*
G36*
X51436030Y23585531D02*
X51436033Y23585530D01*
X51436034Y23585530D01*
X51624535Y23528349D01*
X51624537Y23528348D01*
X51798260Y23435491D01*
X51950528Y23310528D01*
X52075491Y23158260D01*
X52168349Y22984536D01*
X52225531Y22796031D01*
X52240000Y22649123D01*
X52240000Y21750876D01*
X52225531Y21603970D01*
X52168348Y21415463D01*
X52075491Y21241740D01*
X51950528Y21089472D01*
X51798258Y20964507D01*
X51624539Y20871653D01*
X51624536Y20871652D01*
X51624534Y20871651D01*
X51436033Y20814470D01*
X51436032Y20814470D01*
X51436029Y20814469D01*
X51240000Y20795162D01*
X51043970Y20814469D01*
X51043967Y20814470D01*
X51043966Y20814470D01*
X50855465Y20871651D01*
X50681742Y20964508D01*
X50681740Y20964509D01*
X50529472Y21089472D01*
X50404507Y21241742D01*
X50311653Y21415461D01*
X50303698Y21441686D01*
X50254470Y21603967D01*
X50254470Y21603968D01*
X50254469Y21603971D01*
X50240000Y21750877D01*
X50240000Y22649124D01*
X50254469Y22796035D01*
X50311651Y22984533D01*
X50404510Y23158260D01*
X50529473Y23310528D01*
X50681741Y23435491D01*
X50855464Y23528348D01*
X50855466Y23528349D01*
X51043967Y23585530D01*
X51043968Y23585530D01*
X51043971Y23585531D01*
X51240000Y23604838D01*
X51436030Y23585531D01*
X51436030Y23585531D01*
G37*
G36*
X53976030Y23585531D02*
X53976033Y23585530D01*
X53976034Y23585530D01*
X54164535Y23528349D01*
X54164537Y23528348D01*
X54338260Y23435491D01*
X54490528Y23310528D01*
X54615491Y23158260D01*
X54708349Y22984536D01*
X54765531Y22796031D01*
X54780000Y22649123D01*
X54780000Y21750876D01*
X54765531Y21603970D01*
X54708348Y21415463D01*
X54615491Y21241740D01*
X54490528Y21089472D01*
X54338258Y20964507D01*
X54164539Y20871653D01*
X54164536Y20871652D01*
X54164534Y20871651D01*
X53976033Y20814470D01*
X53976032Y20814470D01*
X53976029Y20814469D01*
X53780000Y20795162D01*
X53583970Y20814469D01*
X53583967Y20814470D01*
X53583966Y20814470D01*
X53395465Y20871651D01*
X53221742Y20964508D01*
X53221740Y20964509D01*
X53069472Y21089472D01*
X52944507Y21241742D01*
X52851653Y21415461D01*
X52843698Y21441686D01*
X52794470Y21603967D01*
X52794470Y21603968D01*
X52794469Y21603971D01*
X52780000Y21750877D01*
X52780000Y22649124D01*
X52794469Y22796035D01*
X52851651Y22984533D01*
X52944510Y23158260D01*
X53069473Y23310528D01*
X53221741Y23435491D01*
X53395464Y23528348D01*
X53395466Y23528349D01*
X53583967Y23585530D01*
X53583968Y23585530D01*
X53583971Y23585531D01*
X53780000Y23604838D01*
X53976030Y23585531D01*
X53976030Y23585531D01*
G37*
G36*
X56516030Y23585531D02*
X56516033Y23585530D01*
X56516034Y23585530D01*
X56704535Y23528349D01*
X56704537Y23528348D01*
X56878260Y23435491D01*
X57030528Y23310528D01*
X57155491Y23158260D01*
X57248349Y22984536D01*
X57305531Y22796031D01*
X57320000Y22649123D01*
X57320000Y21750876D01*
X57305531Y21603970D01*
X57248348Y21415463D01*
X57155491Y21241740D01*
X57030528Y21089472D01*
X56878258Y20964507D01*
X56704539Y20871653D01*
X56704536Y20871652D01*
X56704534Y20871651D01*
X56516033Y20814470D01*
X56516032Y20814470D01*
X56516029Y20814469D01*
X56320000Y20795162D01*
X56123970Y20814469D01*
X56123967Y20814470D01*
X56123966Y20814470D01*
X55935465Y20871651D01*
X55761742Y20964508D01*
X55761740Y20964509D01*
X55609472Y21089472D01*
X55484507Y21241742D01*
X55391653Y21415461D01*
X55383698Y21441686D01*
X55334470Y21603967D01*
X55334470Y21603968D01*
X55334469Y21603971D01*
X55320000Y21750877D01*
X55320000Y22649124D01*
X55334469Y22796035D01*
X55391651Y22984533D01*
X55484510Y23158260D01*
X55609473Y23310528D01*
X55761741Y23435491D01*
X55935464Y23528348D01*
X55935466Y23528349D01*
X56123967Y23585530D01*
X56123968Y23585530D01*
X56123971Y23585531D01*
X56320000Y23604838D01*
X56516030Y23585531D01*
X56516030Y23585531D01*
G37*
G36*
X59860000Y20800000D02*
X57860000Y20800000D01*
X57860000Y23600000D01*
X59860000Y23600000D01*
X59860000Y20800000D01*
X59860000Y20800000D01*
G37*
G36*
X34096030Y23645531D02*
X34096033Y23645530D01*
X34096034Y23645530D01*
X34284535Y23588349D01*
X34284537Y23588348D01*
X34458260Y23495491D01*
X34610528Y23370528D01*
X34735491Y23218260D01*
X34735492Y23218258D01*
X34828349Y23044535D01*
X34885530Y22856034D01*
X34885531Y22856030D01*
X34904838Y22660000D01*
X34885531Y22463970D01*
X34828348Y22275463D01*
X34735491Y22101740D01*
X34610528Y21949472D01*
X34458260Y21824509D01*
X34284537Y21731652D01*
X34284535Y21731651D01*
X34096034Y21674470D01*
X34096033Y21674470D01*
X34096030Y21674469D01*
X33949124Y21660000D01*
X33850876Y21660000D01*
X33703970Y21674469D01*
X33703967Y21674470D01*
X33703966Y21674470D01*
X33515465Y21731651D01*
X33515463Y21731652D01*
X33341740Y21824509D01*
X33189472Y21949472D01*
X33064509Y22101740D01*
X32971652Y22275463D01*
X32914469Y22463970D01*
X32895162Y22660000D01*
X32914469Y22856030D01*
X32914470Y22856034D01*
X32971651Y23044535D01*
X33064508Y23218258D01*
X33064509Y23218260D01*
X33189472Y23370528D01*
X33341740Y23495491D01*
X33515463Y23588348D01*
X33515465Y23588349D01*
X33703966Y23645530D01*
X33703967Y23645530D01*
X33703970Y23645531D01*
X33850876Y23660000D01*
X33949124Y23660000D01*
X34096030Y23645531D01*
X34096030Y23645531D01*
G37*
G36*
X66296030Y23645531D02*
X66296033Y23645530D01*
X66296034Y23645530D01*
X66484535Y23588349D01*
X66484537Y23588348D01*
X66658260Y23495491D01*
X66810528Y23370528D01*
X66935491Y23218260D01*
X66935492Y23218258D01*
X67028349Y23044535D01*
X67085530Y22856034D01*
X67085531Y22856030D01*
X67104838Y22660000D01*
X67085531Y22463970D01*
X67028348Y22275463D01*
X66935491Y22101740D01*
X66810528Y21949472D01*
X66658260Y21824509D01*
X66484537Y21731652D01*
X66484535Y21731651D01*
X66296034Y21674470D01*
X66296033Y21674470D01*
X66296030Y21674469D01*
X66149124Y21660000D01*
X66050876Y21660000D01*
X65903970Y21674469D01*
X65903967Y21674470D01*
X65903966Y21674470D01*
X65715465Y21731651D01*
X65715463Y21731652D01*
X65541740Y21824509D01*
X65389472Y21949472D01*
X65264509Y22101740D01*
X65171652Y22275463D01*
X65114469Y22463970D01*
X65095162Y22660000D01*
X65114469Y22856030D01*
X65114470Y22856034D01*
X65171651Y23044535D01*
X65264508Y23218258D01*
X65264509Y23218260D01*
X65389472Y23370528D01*
X65541740Y23495491D01*
X65715463Y23588348D01*
X65715465Y23588349D01*
X65903966Y23645530D01*
X65903967Y23645530D01*
X65903970Y23645531D01*
X66050876Y23660000D01*
X66149124Y23660000D01*
X66296030Y23645531D01*
X66296030Y23645531D01*
G37*
G36*
X62896030Y23645531D02*
X62896033Y23645530D01*
X62896034Y23645530D01*
X63084535Y23588349D01*
X63084537Y23588348D01*
X63258260Y23495491D01*
X63410528Y23370528D01*
X63535491Y23218260D01*
X63535492Y23218258D01*
X63628349Y23044535D01*
X63685530Y22856034D01*
X63685531Y22856030D01*
X63704838Y22660000D01*
X63685531Y22463970D01*
X63628348Y22275463D01*
X63535491Y22101740D01*
X63410528Y21949472D01*
X63258260Y21824509D01*
X63084537Y21731652D01*
X63084535Y21731651D01*
X62896034Y21674470D01*
X62896033Y21674470D01*
X62896030Y21674469D01*
X62749124Y21660000D01*
X62650876Y21660000D01*
X62503970Y21674469D01*
X62503967Y21674470D01*
X62503966Y21674470D01*
X62315465Y21731651D01*
X62315463Y21731652D01*
X62141740Y21824509D01*
X61989472Y21949472D01*
X61864509Y22101740D01*
X61771652Y22275463D01*
X61714469Y22463970D01*
X61695162Y22660000D01*
X61714469Y22856030D01*
X61714470Y22856034D01*
X61771651Y23044535D01*
X61864508Y23218258D01*
X61864509Y23218260D01*
X61989472Y23370528D01*
X62141740Y23495491D01*
X62315463Y23588348D01*
X62315465Y23588349D01*
X62503966Y23645530D01*
X62503967Y23645530D01*
X62503970Y23645531D01*
X62650876Y23660000D01*
X62749124Y23660000D01*
X62896030Y23645531D01*
X62896030Y23645531D01*
G37*
G36*
X37496030Y23645531D02*
X37496033Y23645530D01*
X37496034Y23645530D01*
X37684535Y23588349D01*
X37684537Y23588348D01*
X37858260Y23495491D01*
X38010528Y23370528D01*
X38135491Y23218260D01*
X38135492Y23218258D01*
X38228349Y23044535D01*
X38285530Y22856034D01*
X38285531Y22856030D01*
X38304838Y22660000D01*
X38285531Y22463970D01*
X38228348Y22275463D01*
X38135491Y22101740D01*
X38010528Y21949472D01*
X37858260Y21824509D01*
X37684537Y21731652D01*
X37684535Y21731651D01*
X37496034Y21674470D01*
X37496033Y21674470D01*
X37496030Y21674469D01*
X37349124Y21660000D01*
X37250876Y21660000D01*
X37103970Y21674469D01*
X37103967Y21674470D01*
X37103966Y21674470D01*
X36915465Y21731651D01*
X36915463Y21731652D01*
X36741740Y21824509D01*
X36589472Y21949472D01*
X36464509Y22101740D01*
X36371652Y22275463D01*
X36314469Y22463970D01*
X36295162Y22660000D01*
X36314469Y22856030D01*
X36314470Y22856034D01*
X36371651Y23044535D01*
X36464508Y23218258D01*
X36464509Y23218260D01*
X36589472Y23370528D01*
X36741740Y23495491D01*
X36915463Y23588348D01*
X36915465Y23588349D01*
X37103966Y23645530D01*
X37103967Y23645530D01*
X37103970Y23645531D01*
X37250876Y23660000D01*
X37349124Y23660000D01*
X37496030Y23645531D01*
X37496030Y23645531D01*
G37*
G36*
X84730000Y22950000D02*
X82730000Y22950000D01*
X82730000Y24950000D01*
X84730000Y24950000D01*
X84730000Y22950000D01*
X84730000Y22950000D01*
G37*
G36*
X14730000Y22950000D02*
X12730000Y22950000D01*
X12730000Y24950000D01*
X14730000Y24950000D01*
X14730000Y22950000D01*
X14730000Y22950000D01*
G37*
G36*
X16445770Y24934628D02*
X16561689Y24911571D01*
X16743678Y24836189D01*
X16907463Y24726751D01*
X17046751Y24587463D01*
X17156189Y24423678D01*
X17231571Y24241689D01*
X17270000Y24048491D01*
X17270000Y23851509D01*
X17231571Y23658311D01*
X17156189Y23476322D01*
X17046751Y23312537D01*
X16907463Y23173249D01*
X16743678Y23063811D01*
X16561689Y22988429D01*
X16445770Y22965372D01*
X16368493Y22950000D01*
X16171507Y22950000D01*
X16094230Y22965372D01*
X15978311Y22988429D01*
X15796322Y23063811D01*
X15632537Y23173249D01*
X15493249Y23312537D01*
X15383811Y23476322D01*
X15308429Y23658311D01*
X15270000Y23851509D01*
X15270000Y24048491D01*
X15308429Y24241689D01*
X15383811Y24423678D01*
X15493249Y24587463D01*
X15632537Y24726751D01*
X15796322Y24836189D01*
X15978311Y24911571D01*
X16094230Y24934628D01*
X16171507Y24950000D01*
X16368493Y24950000D01*
X16445770Y24934628D01*
X16445770Y24934628D01*
G37*
G36*
X86445770Y24934628D02*
X86561689Y24911571D01*
X86743678Y24836189D01*
X86907463Y24726751D01*
X87046751Y24587463D01*
X87156189Y24423678D01*
X87231571Y24241689D01*
X87270000Y24048491D01*
X87270000Y23851509D01*
X87231571Y23658311D01*
X87156189Y23476322D01*
X87046751Y23312537D01*
X86907463Y23173249D01*
X86743678Y23063811D01*
X86561689Y22988429D01*
X86445770Y22965372D01*
X86368493Y22950000D01*
X86171507Y22950000D01*
X86094230Y22965372D01*
X85978311Y22988429D01*
X85796322Y23063811D01*
X85632537Y23173249D01*
X85493249Y23312537D01*
X85383811Y23476322D01*
X85308429Y23658311D01*
X85270000Y23851509D01*
X85270000Y24048491D01*
X85308429Y24241689D01*
X85383811Y24423678D01*
X85493249Y24587463D01*
X85632537Y24726751D01*
X85796322Y24836189D01*
X85978311Y24911571D01*
X86094230Y24934628D01*
X86171507Y24950000D01*
X86368493Y24950000D01*
X86445770Y24934628D01*
X86445770Y24934628D01*
G37*
G36*
X73905770Y25354628D02*
X74021689Y25331571D01*
X74203678Y25256189D01*
X74367463Y25146751D01*
X74506751Y25007463D01*
X74616189Y24843678D01*
X74691571Y24661689D01*
X74730000Y24468491D01*
X74730000Y24271509D01*
X74691571Y24078311D01*
X74616189Y23896322D01*
X74506751Y23732537D01*
X74367463Y23593249D01*
X74203678Y23483811D01*
X74021689Y23408429D01*
X73905770Y23385372D01*
X73828493Y23370000D01*
X73631507Y23370000D01*
X73554230Y23385372D01*
X73438311Y23408429D01*
X73256322Y23483811D01*
X73092537Y23593249D01*
X72953249Y23732537D01*
X72843811Y23896322D01*
X72768429Y24078311D01*
X72730000Y24271509D01*
X72730000Y24468491D01*
X72768429Y24661689D01*
X72843811Y24843678D01*
X72953249Y25007463D01*
X73092537Y25146751D01*
X73256322Y25256189D01*
X73438311Y25331571D01*
X73554230Y25354628D01*
X73631507Y25370000D01*
X73828493Y25370000D01*
X73905770Y25354628D01*
X73905770Y25354628D01*
G37*
G36*
X76445770Y25354628D02*
X76561689Y25331571D01*
X76743678Y25256189D01*
X76907463Y25146751D01*
X77046751Y25007463D01*
X77156189Y24843678D01*
X77231571Y24661689D01*
X77270000Y24468491D01*
X77270000Y24271509D01*
X77231571Y24078311D01*
X77156189Y23896322D01*
X77046751Y23732537D01*
X76907463Y23593249D01*
X76743678Y23483811D01*
X76561689Y23408429D01*
X76445770Y23385372D01*
X76368493Y23370000D01*
X76171507Y23370000D01*
X76094230Y23385372D01*
X75978311Y23408429D01*
X75796322Y23483811D01*
X75632537Y23593249D01*
X75493249Y23732537D01*
X75383811Y23896322D01*
X75308429Y24078311D01*
X75270000Y24271509D01*
X75270000Y24468491D01*
X75308429Y24661689D01*
X75383811Y24843678D01*
X75493249Y25007463D01*
X75632537Y25146751D01*
X75796322Y25256189D01*
X75978311Y25331571D01*
X76094230Y25354628D01*
X76171507Y25370000D01*
X76368493Y25370000D01*
X76445770Y25354628D01*
X76445770Y25354628D01*
G37*
G36*
X26445770Y25354628D02*
X26561689Y25331571D01*
X26743678Y25256189D01*
X26907463Y25146751D01*
X27046751Y25007463D01*
X27156189Y24843678D01*
X27231571Y24661689D01*
X27270000Y24468491D01*
X27270000Y24271509D01*
X27231571Y24078311D01*
X27156189Y23896322D01*
X27046751Y23732537D01*
X26907463Y23593249D01*
X26743678Y23483811D01*
X26561689Y23408429D01*
X26445770Y23385372D01*
X26368493Y23370000D01*
X26171507Y23370000D01*
X26094230Y23385372D01*
X25978311Y23408429D01*
X25796322Y23483811D01*
X25632537Y23593249D01*
X25493249Y23732537D01*
X25383811Y23896322D01*
X25308429Y24078311D01*
X25270000Y24271509D01*
X25270000Y24468491D01*
X25308429Y24661689D01*
X25383811Y24843678D01*
X25493249Y25007463D01*
X25632537Y25146751D01*
X25796322Y25256189D01*
X25978311Y25331571D01*
X26094230Y25354628D01*
X26171507Y25370000D01*
X26368493Y25370000D01*
X26445770Y25354628D01*
X26445770Y25354628D01*
G37*
G36*
X23905770Y25354628D02*
X24021689Y25331571D01*
X24203678Y25256189D01*
X24367463Y25146751D01*
X24506751Y25007463D01*
X24616189Y24843678D01*
X24691571Y24661689D01*
X24730000Y24468491D01*
X24730000Y24271509D01*
X24691571Y24078311D01*
X24616189Y23896322D01*
X24506751Y23732537D01*
X24367463Y23593249D01*
X24203678Y23483811D01*
X24021689Y23408429D01*
X23905770Y23385372D01*
X23828493Y23370000D01*
X23631507Y23370000D01*
X23554230Y23385372D01*
X23438311Y23408429D01*
X23256322Y23483811D01*
X23092537Y23593249D01*
X22953249Y23732537D01*
X22843811Y23896322D01*
X22768429Y24078311D01*
X22730000Y24271509D01*
X22730000Y24468491D01*
X22768429Y24661689D01*
X22843811Y24843678D01*
X22953249Y25007463D01*
X23092537Y25146751D01*
X23256322Y25256189D01*
X23438311Y25331571D01*
X23554230Y25354628D01*
X23631507Y25370000D01*
X23828493Y25370000D01*
X23905770Y25354628D01*
X23905770Y25354628D01*
G37*
G36*
X33905770Y27434628D02*
X34021689Y27411571D01*
X34203678Y27336189D01*
X34367463Y27226751D01*
X34506751Y27087463D01*
X34616189Y26923678D01*
X34691571Y26741689D01*
X34730000Y26548491D01*
X34730000Y26351509D01*
X34691571Y26158311D01*
X34616189Y25976322D01*
X34506751Y25812537D01*
X34367463Y25673249D01*
X34203678Y25563811D01*
X34021689Y25488429D01*
X33905770Y25465372D01*
X33828493Y25450000D01*
X33631507Y25450000D01*
X33554230Y25465372D01*
X33438311Y25488429D01*
X33256322Y25563811D01*
X33092537Y25673249D01*
X32953249Y25812537D01*
X32843811Y25976322D01*
X32768429Y26158311D01*
X32730000Y26351509D01*
X32730000Y26548491D01*
X32768429Y26741689D01*
X32843811Y26923678D01*
X32953249Y27087463D01*
X33092537Y27226751D01*
X33256322Y27336189D01*
X33438311Y27411571D01*
X33554230Y27434628D01*
X33631507Y27450000D01*
X33828493Y27450000D01*
X33905770Y27434628D01*
X33905770Y27434628D01*
G37*
G36*
X63905770Y27434628D02*
X64021689Y27411571D01*
X64203678Y27336189D01*
X64367463Y27226751D01*
X64506751Y27087463D01*
X64616189Y26923678D01*
X64691571Y26741689D01*
X64730000Y26548491D01*
X64730000Y26351509D01*
X64691571Y26158311D01*
X64616189Y25976322D01*
X64506751Y25812537D01*
X64367463Y25673249D01*
X64203678Y25563811D01*
X64021689Y25488429D01*
X63905770Y25465372D01*
X63828493Y25450000D01*
X63631507Y25450000D01*
X63554230Y25465372D01*
X63438311Y25488429D01*
X63256322Y25563811D01*
X63092537Y25673249D01*
X62953249Y25812537D01*
X62843811Y25976322D01*
X62768429Y26158311D01*
X62730000Y26351509D01*
X62730000Y26548491D01*
X62768429Y26741689D01*
X62843811Y26923678D01*
X62953249Y27087463D01*
X63092537Y27226751D01*
X63256322Y27336189D01*
X63438311Y27411571D01*
X63554230Y27434628D01*
X63631507Y27450000D01*
X63828493Y27450000D01*
X63905770Y27434628D01*
X63905770Y27434628D01*
G37*
G36*
X36445770Y27434628D02*
X36561689Y27411571D01*
X36743678Y27336189D01*
X36907463Y27226751D01*
X37046751Y27087463D01*
X37156189Y26923678D01*
X37231571Y26741689D01*
X37270000Y26548491D01*
X37270000Y26351509D01*
X37231571Y26158311D01*
X37156189Y25976322D01*
X37046751Y25812537D01*
X36907463Y25673249D01*
X36743678Y25563811D01*
X36561689Y25488429D01*
X36445770Y25465372D01*
X36368493Y25450000D01*
X36171507Y25450000D01*
X36094230Y25465372D01*
X35978311Y25488429D01*
X35796322Y25563811D01*
X35632537Y25673249D01*
X35493249Y25812537D01*
X35383811Y25976322D01*
X35308429Y26158311D01*
X35270000Y26351509D01*
X35270000Y26548491D01*
X35308429Y26741689D01*
X35383811Y26923678D01*
X35493249Y27087463D01*
X35632537Y27226751D01*
X35796322Y27336189D01*
X35978311Y27411571D01*
X36094230Y27434628D01*
X36171507Y27450000D01*
X36368493Y27450000D01*
X36445770Y27434628D01*
X36445770Y27434628D01*
G37*
G36*
X66445770Y27434628D02*
X66561689Y27411571D01*
X66743678Y27336189D01*
X66907463Y27226751D01*
X67046751Y27087463D01*
X67156189Y26923678D01*
X67231571Y26741689D01*
X67270000Y26548491D01*
X67270000Y26351509D01*
X67231571Y26158311D01*
X67156189Y25976322D01*
X67046751Y25812537D01*
X66907463Y25673249D01*
X66743678Y25563811D01*
X66561689Y25488429D01*
X66445770Y25465372D01*
X66368493Y25450000D01*
X66171507Y25450000D01*
X66094230Y25465372D01*
X65978311Y25488429D01*
X65796322Y25563811D01*
X65632537Y25673249D01*
X65493249Y25812537D01*
X65383811Y25976322D01*
X65308429Y26158311D01*
X65270000Y26351509D01*
X65270000Y26548491D01*
X65308429Y26741689D01*
X65383811Y26923678D01*
X65493249Y27087463D01*
X65632537Y27226751D01*
X65796322Y27336189D01*
X65978311Y27411571D01*
X66094230Y27434628D01*
X66171507Y27450000D01*
X66368493Y27450000D01*
X66445770Y27434628D01*
X66445770Y27434628D01*
G37*
G36*
X76445770Y28154628D02*
X76561689Y28131571D01*
X76743678Y28056189D01*
X76907463Y27946751D01*
X77046751Y27807463D01*
X77156189Y27643678D01*
X77231571Y27461689D01*
X77254628Y27345770D01*
X77270000Y27268493D01*
X77270000Y27071507D01*
X77261012Y27026322D01*
X77231571Y26878311D01*
X77156189Y26696322D01*
X77046751Y26532537D01*
X76907463Y26393249D01*
X76743678Y26283811D01*
X76561689Y26208429D01*
X76445770Y26185372D01*
X76368493Y26170000D01*
X76171507Y26170000D01*
X76094230Y26185372D01*
X75978311Y26208429D01*
X75796322Y26283811D01*
X75632537Y26393249D01*
X75493249Y26532537D01*
X75383811Y26696322D01*
X75308429Y26878311D01*
X75278988Y27026322D01*
X75270000Y27071507D01*
X75270000Y27268493D01*
X75285372Y27345770D01*
X75308429Y27461689D01*
X75383811Y27643678D01*
X75493249Y27807463D01*
X75632537Y27946751D01*
X75796322Y28056189D01*
X75978311Y28131571D01*
X76094230Y28154628D01*
X76171507Y28170000D01*
X76368493Y28170000D01*
X76445770Y28154628D01*
X76445770Y28154628D01*
G37*
G36*
X74730000Y26170000D02*
X72730000Y26170000D01*
X72730000Y28170000D01*
X74730000Y28170000D01*
X74730000Y26170000D01*
X74730000Y26170000D01*
G37*
G36*
X24730000Y26170000D02*
X22730000Y26170000D01*
X22730000Y28170000D01*
X24730000Y28170000D01*
X24730000Y26170000D01*
X24730000Y26170000D01*
G37*
G36*
X26445770Y28154628D02*
X26561689Y28131571D01*
X26743678Y28056189D01*
X26907463Y27946751D01*
X27046751Y27807463D01*
X27156189Y27643678D01*
X27231571Y27461689D01*
X27254628Y27345770D01*
X27270000Y27268493D01*
X27270000Y27071507D01*
X27261012Y27026322D01*
X27231571Y26878311D01*
X27156189Y26696322D01*
X27046751Y26532537D01*
X26907463Y26393249D01*
X26743678Y26283811D01*
X26561689Y26208429D01*
X26445770Y26185372D01*
X26368493Y26170000D01*
X26171507Y26170000D01*
X26094230Y26185372D01*
X25978311Y26208429D01*
X25796322Y26283811D01*
X25632537Y26393249D01*
X25493249Y26532537D01*
X25383811Y26696322D01*
X25308429Y26878311D01*
X25278988Y27026322D01*
X25270000Y27071507D01*
X25270000Y27268493D01*
X25285372Y27345770D01*
X25308429Y27461689D01*
X25383811Y27643678D01*
X25493249Y27807463D01*
X25632537Y27946751D01*
X25796322Y28056189D01*
X25978311Y28131571D01*
X26094230Y28154628D01*
X26171507Y28170000D01*
X26368493Y28170000D01*
X26445770Y28154628D01*
X26445770Y28154628D01*
G37*
G36*
X53905770Y28484628D02*
X54021689Y28461571D01*
X54203678Y28386189D01*
X54367463Y28276751D01*
X54506751Y28137463D01*
X54616189Y27973678D01*
X54691571Y27791689D01*
X54706733Y27715465D01*
X54721013Y27643675D01*
X54730000Y27598491D01*
X54730000Y27401509D01*
X54691571Y27208311D01*
X54616189Y27026322D01*
X54506751Y26862537D01*
X54367463Y26723249D01*
X54203678Y26613811D01*
X54021689Y26538429D01*
X53905770Y26515372D01*
X53828493Y26500000D01*
X53631507Y26500000D01*
X53554230Y26515372D01*
X53438311Y26538429D01*
X53256322Y26613811D01*
X53092537Y26723249D01*
X52953249Y26862537D01*
X52843811Y27026322D01*
X52768429Y27208311D01*
X52730000Y27401509D01*
X52730000Y27598491D01*
X52738988Y27643675D01*
X52753267Y27715465D01*
X52768429Y27791689D01*
X52843811Y27973678D01*
X52953249Y28137463D01*
X53092537Y28276751D01*
X53256322Y28386189D01*
X53438311Y28461571D01*
X53554230Y28484628D01*
X53631507Y28500000D01*
X53828493Y28500000D01*
X53905770Y28484628D01*
X53905770Y28484628D01*
G37*
G36*
X43875770Y28484628D02*
X43991689Y28461571D01*
X44173678Y28386189D01*
X44337463Y28276751D01*
X44476751Y28137463D01*
X44586189Y27973678D01*
X44661571Y27791689D01*
X44676733Y27715465D01*
X44691013Y27643675D01*
X44700000Y27598491D01*
X44700000Y27401509D01*
X44661571Y27208311D01*
X44586189Y27026322D01*
X44476751Y26862537D01*
X44337463Y26723249D01*
X44173678Y26613811D01*
X43991689Y26538429D01*
X43875770Y26515372D01*
X43798493Y26500000D01*
X43601507Y26500000D01*
X43524230Y26515372D01*
X43408311Y26538429D01*
X43226322Y26613811D01*
X43062537Y26723249D01*
X42923249Y26862537D01*
X42813811Y27026322D01*
X42738429Y27208311D01*
X42700000Y27401509D01*
X42700000Y27598491D01*
X42708988Y27643675D01*
X42723267Y27715465D01*
X42738429Y27791689D01*
X42813811Y27973678D01*
X42923249Y28137463D01*
X43062537Y28276751D01*
X43226322Y28386189D01*
X43408311Y28461571D01*
X43524230Y28484628D01*
X43601507Y28500000D01*
X43798493Y28500000D01*
X43875770Y28484628D01*
X43875770Y28484628D01*
G37*
G36*
X46415770Y28484628D02*
X46531689Y28461571D01*
X46713678Y28386189D01*
X46877463Y28276751D01*
X47016751Y28137463D01*
X47126189Y27973678D01*
X47201571Y27791689D01*
X47216733Y27715465D01*
X47231013Y27643675D01*
X47240000Y27598491D01*
X47240000Y27401509D01*
X47201571Y27208311D01*
X47126189Y27026322D01*
X47016751Y26862537D01*
X46877463Y26723249D01*
X46713678Y26613811D01*
X46531689Y26538429D01*
X46415770Y26515372D01*
X46338493Y26500000D01*
X46141507Y26500000D01*
X46064230Y26515372D01*
X45948311Y26538429D01*
X45766322Y26613811D01*
X45602537Y26723249D01*
X45463249Y26862537D01*
X45353811Y27026322D01*
X45278429Y27208311D01*
X45240000Y27401509D01*
X45240000Y27598491D01*
X45248988Y27643675D01*
X45263267Y27715465D01*
X45278429Y27791689D01*
X45353811Y27973678D01*
X45463249Y28137463D01*
X45602537Y28276751D01*
X45766322Y28386189D01*
X45948311Y28461571D01*
X46064230Y28484628D01*
X46141507Y28500000D01*
X46338493Y28500000D01*
X46415770Y28484628D01*
X46415770Y28484628D01*
G37*
G36*
X56445770Y28484628D02*
X56561689Y28461571D01*
X56743678Y28386189D01*
X56907463Y28276751D01*
X57046751Y28137463D01*
X57156189Y27973678D01*
X57231571Y27791689D01*
X57246733Y27715465D01*
X57261013Y27643675D01*
X57270000Y27598491D01*
X57270000Y27401509D01*
X57231571Y27208311D01*
X57156189Y27026322D01*
X57046751Y26862537D01*
X56907463Y26723249D01*
X56743678Y26613811D01*
X56561689Y26538429D01*
X56445770Y26515372D01*
X56368493Y26500000D01*
X56171507Y26500000D01*
X56094230Y26515372D01*
X55978311Y26538429D01*
X55796322Y26613811D01*
X55632537Y26723249D01*
X55493249Y26862537D01*
X55383811Y27026322D01*
X55308429Y27208311D01*
X55270000Y27401509D01*
X55270000Y27598491D01*
X55278988Y27643675D01*
X55293267Y27715465D01*
X55308429Y27791689D01*
X55383811Y27973678D01*
X55493249Y28137463D01*
X55632537Y28276751D01*
X55796322Y28386189D01*
X55978311Y28461571D01*
X56094230Y28484628D01*
X56171507Y28500000D01*
X56368493Y28500000D01*
X56445770Y28484628D01*
X56445770Y28484628D01*
G37*
G36*
X90456030Y29085531D02*
X90456033Y29085530D01*
X90456034Y29085530D01*
X90644535Y29028349D01*
X90644537Y29028348D01*
X90818260Y28935491D01*
X90970528Y28810528D01*
X91095491Y28658260D01*
X91095492Y28658258D01*
X91188349Y28484535D01*
X91195315Y28461571D01*
X91245531Y28296030D01*
X91264838Y28100000D01*
X91245531Y27903970D01*
X91188348Y27715463D01*
X91095491Y27541740D01*
X90970528Y27389472D01*
X90818260Y27264509D01*
X90818258Y27264508D01*
X90644535Y27171651D01*
X90456034Y27114470D01*
X90456033Y27114470D01*
X90456030Y27114469D01*
X90309124Y27100000D01*
X90210876Y27100000D01*
X90063970Y27114469D01*
X90063967Y27114470D01*
X90063966Y27114470D01*
X89875465Y27171651D01*
X89701742Y27264508D01*
X89701740Y27264509D01*
X89549472Y27389472D01*
X89424509Y27541740D01*
X89331652Y27715463D01*
X89274469Y27903970D01*
X89255162Y28100000D01*
X89274469Y28296030D01*
X89324685Y28461571D01*
X89331651Y28484535D01*
X89424508Y28658258D01*
X89424509Y28658260D01*
X89549472Y28810528D01*
X89701740Y28935491D01*
X89875463Y29028348D01*
X89875465Y29028349D01*
X90063966Y29085530D01*
X90063967Y29085530D01*
X90063970Y29085531D01*
X90210876Y29100000D01*
X90309124Y29100000D01*
X90456030Y29085531D01*
X90456030Y29085531D01*
G37*
G36*
X9815770Y29084628D02*
X9931689Y29061571D01*
X10113678Y28986189D01*
X10277463Y28876751D01*
X10416751Y28737463D01*
X10526189Y28573678D01*
X10601571Y28391689D01*
X10640000Y28198491D01*
X10640000Y28001509D01*
X10601571Y27808311D01*
X10526189Y27626322D01*
X10416751Y27462537D01*
X10277463Y27323249D01*
X10113678Y27213811D01*
X9931689Y27138429D01*
X9815770Y27115372D01*
X9738493Y27100000D01*
X9541507Y27100000D01*
X9464230Y27115372D01*
X9348311Y27138429D01*
X9166322Y27213811D01*
X9002537Y27323249D01*
X8863249Y27462537D01*
X8753811Y27626322D01*
X8678429Y27808311D01*
X8640000Y28001509D01*
X8640000Y28198491D01*
X8678429Y28391689D01*
X8753811Y28573678D01*
X8863249Y28737463D01*
X9002537Y28876751D01*
X9166322Y28986189D01*
X9348311Y29061571D01*
X9464230Y29084628D01*
X9541507Y29100000D01*
X9738493Y29100000D01*
X9815770Y29084628D01*
X9815770Y29084628D01*
G37*
G36*
X80275770Y29084628D02*
X80391689Y29061571D01*
X80573678Y28986189D01*
X80737463Y28876751D01*
X80876751Y28737463D01*
X80986189Y28573678D01*
X81061571Y28391689D01*
X81100000Y28198491D01*
X81100000Y28001509D01*
X81061571Y27808311D01*
X80986189Y27626322D01*
X80876751Y27462537D01*
X80737463Y27323249D01*
X80573678Y27213811D01*
X80391689Y27138429D01*
X80275770Y27115372D01*
X80198493Y27100000D01*
X80001507Y27100000D01*
X79924230Y27115372D01*
X79808311Y27138429D01*
X79626322Y27213811D01*
X79462537Y27323249D01*
X79323249Y27462537D01*
X79213811Y27626322D01*
X79138429Y27808311D01*
X79100000Y28001509D01*
X79100000Y28198491D01*
X79138429Y28391689D01*
X79213811Y28573678D01*
X79323249Y28737463D01*
X79462537Y28876751D01*
X79626322Y28986189D01*
X79808311Y29061571D01*
X79924230Y29084628D01*
X80001507Y29100000D01*
X80198493Y29100000D01*
X80275770Y29084628D01*
X80275770Y29084628D01*
G37*
G36*
X19996030Y29085531D02*
X19996033Y29085530D01*
X19996034Y29085530D01*
X20184535Y29028349D01*
X20184537Y29028348D01*
X20358260Y28935491D01*
X20510528Y28810528D01*
X20635491Y28658260D01*
X20635492Y28658258D01*
X20728349Y28484535D01*
X20735315Y28461571D01*
X20785531Y28296030D01*
X20804838Y28100000D01*
X20785531Y27903970D01*
X20728348Y27715463D01*
X20635491Y27541740D01*
X20510528Y27389472D01*
X20358260Y27264509D01*
X20358258Y27264508D01*
X20184535Y27171651D01*
X19996034Y27114470D01*
X19996033Y27114470D01*
X19996030Y27114469D01*
X19849124Y27100000D01*
X19750876Y27100000D01*
X19603970Y27114469D01*
X19603967Y27114470D01*
X19603966Y27114470D01*
X19415465Y27171651D01*
X19241742Y27264508D01*
X19241740Y27264509D01*
X19089472Y27389472D01*
X18964509Y27541740D01*
X18871652Y27715463D01*
X18814469Y27903970D01*
X18795162Y28100000D01*
X18814469Y28296030D01*
X18864685Y28461571D01*
X18871651Y28484535D01*
X18964508Y28658258D01*
X18964509Y28658260D01*
X19089472Y28810528D01*
X19241740Y28935491D01*
X19415463Y29028348D01*
X19415465Y29028349D01*
X19603966Y29085530D01*
X19603967Y29085530D01*
X19603970Y29085531D01*
X19750876Y29100000D01*
X19849124Y29100000D01*
X19996030Y29085531D01*
X19996030Y29085531D01*
G37*
G36*
X36445770Y30234628D02*
X36561689Y30211571D01*
X36743678Y30136189D01*
X36907463Y30026751D01*
X37046751Y29887463D01*
X37156189Y29723678D01*
X37231571Y29541689D01*
X37270000Y29348491D01*
X37270000Y29151509D01*
X37231571Y28958311D01*
X37156189Y28776322D01*
X37046751Y28612537D01*
X36907463Y28473249D01*
X36743678Y28363811D01*
X36561689Y28288429D01*
X36445770Y28265372D01*
X36368493Y28250000D01*
X36171507Y28250000D01*
X36094230Y28265372D01*
X35978311Y28288429D01*
X35796322Y28363811D01*
X35632537Y28473249D01*
X35493249Y28612537D01*
X35383811Y28776322D01*
X35308429Y28958311D01*
X35270000Y29151509D01*
X35270000Y29348491D01*
X35308429Y29541689D01*
X35383811Y29723678D01*
X35493249Y29887463D01*
X35632537Y30026751D01*
X35796322Y30136189D01*
X35978311Y30211571D01*
X36094230Y30234628D01*
X36171507Y30250000D01*
X36368493Y30250000D01*
X36445770Y30234628D01*
X36445770Y30234628D01*
G37*
G36*
X34730000Y28250000D02*
X32730000Y28250000D01*
X32730000Y30250000D01*
X34730000Y30250000D01*
X34730000Y28250000D01*
X34730000Y28250000D01*
G37*
G36*
X64730000Y28250000D02*
X62730000Y28250000D01*
X62730000Y30250000D01*
X64730000Y30250000D01*
X64730000Y28250000D01*
X64730000Y28250000D01*
G37*
G36*
X66445770Y30234628D02*
X66561689Y30211571D01*
X66743678Y30136189D01*
X66907463Y30026751D01*
X67046751Y29887463D01*
X67156189Y29723678D01*
X67231571Y29541689D01*
X67270000Y29348491D01*
X67270000Y29151509D01*
X67231571Y28958311D01*
X67156189Y28776322D01*
X67046751Y28612537D01*
X66907463Y28473249D01*
X66743678Y28363811D01*
X66561689Y28288429D01*
X66445770Y28265372D01*
X66368493Y28250000D01*
X66171507Y28250000D01*
X66094230Y28265372D01*
X65978311Y28288429D01*
X65796322Y28363811D01*
X65632537Y28473249D01*
X65493249Y28612537D01*
X65383811Y28776322D01*
X65308429Y28958311D01*
X65270000Y29151509D01*
X65270000Y29348491D01*
X65308429Y29541689D01*
X65383811Y29723678D01*
X65493249Y29887463D01*
X65632537Y30026751D01*
X65796322Y30136189D01*
X65978311Y30211571D01*
X66094230Y30234628D01*
X66171507Y30250000D01*
X66368493Y30250000D01*
X66445770Y30234628D01*
X66445770Y30234628D01*
G37*
G36*
X44700000Y29300000D02*
X42700000Y29300000D01*
X42700000Y31300000D01*
X44700000Y31300000D01*
X44700000Y29300000D01*
X44700000Y29300000D01*
G37*
G36*
X46415770Y31284628D02*
X46531689Y31261571D01*
X46713678Y31186189D01*
X46877463Y31076751D01*
X47016751Y30937463D01*
X47126189Y30773678D01*
X47201571Y30591689D01*
X47240000Y30398491D01*
X47240000Y30201509D01*
X47201571Y30008311D01*
X47126189Y29826322D01*
X47016751Y29662537D01*
X46877463Y29523249D01*
X46713678Y29413811D01*
X46531689Y29338429D01*
X46415770Y29315372D01*
X46338493Y29300000D01*
X46141507Y29300000D01*
X46064230Y29315372D01*
X45948311Y29338429D01*
X45766322Y29413811D01*
X45602537Y29523249D01*
X45463249Y29662537D01*
X45353811Y29826322D01*
X45278429Y30008311D01*
X45240000Y30201509D01*
X45240000Y30398491D01*
X45278429Y30591689D01*
X45353811Y30773678D01*
X45463249Y30937463D01*
X45602537Y31076751D01*
X45766322Y31186189D01*
X45948311Y31261571D01*
X46064230Y31284628D01*
X46141507Y31300000D01*
X46338493Y31300000D01*
X46415770Y31284628D01*
X46415770Y31284628D01*
G37*
G36*
X56445770Y31284628D02*
X56561689Y31261571D01*
X56743678Y31186189D01*
X56907463Y31076751D01*
X57046751Y30937463D01*
X57156189Y30773678D01*
X57231571Y30591689D01*
X57270000Y30398491D01*
X57270000Y30201509D01*
X57231571Y30008311D01*
X57156189Y29826322D01*
X57046751Y29662537D01*
X56907463Y29523249D01*
X56743678Y29413811D01*
X56561689Y29338429D01*
X56445770Y29315372D01*
X56368493Y29300000D01*
X56171507Y29300000D01*
X56094230Y29315372D01*
X55978311Y29338429D01*
X55796322Y29413811D01*
X55632537Y29523249D01*
X55493249Y29662537D01*
X55383811Y29826322D01*
X55308429Y30008311D01*
X55270000Y30201509D01*
X55270000Y30398491D01*
X55308429Y30591689D01*
X55383811Y30773678D01*
X55493249Y30937463D01*
X55632537Y31076751D01*
X55796322Y31186189D01*
X55978311Y31261571D01*
X56094230Y31284628D01*
X56171507Y31300000D01*
X56368493Y31300000D01*
X56445770Y31284628D01*
X56445770Y31284628D01*
G37*
G36*
X54730000Y29300000D02*
X52730000Y29300000D01*
X52730000Y31300000D01*
X54730000Y31300000D01*
X54730000Y29300000D01*
X54730000Y29300000D01*
G37*
G36*
X66196030Y35785531D02*
X66196033Y35785530D01*
X66196034Y35785530D01*
X66384535Y35728349D01*
X66384537Y35728348D01*
X66558260Y35635491D01*
X66710528Y35510528D01*
X66835491Y35358260D01*
X66928348Y35184537D01*
X66985531Y34996030D01*
X67004838Y34800000D01*
X66985531Y34603970D01*
X66928348Y34415463D01*
X66835491Y34241740D01*
X66710528Y34089472D01*
X66558260Y33964509D01*
X66558258Y33964508D01*
X66384535Y33871651D01*
X66196034Y33814470D01*
X66196033Y33814470D01*
X66196030Y33814469D01*
X66049124Y33800000D01*
X65950876Y33800000D01*
X65803970Y33814469D01*
X65803967Y33814470D01*
X65803966Y33814470D01*
X65615465Y33871651D01*
X65441742Y33964508D01*
X65441740Y33964509D01*
X65289472Y34089472D01*
X65164509Y34241740D01*
X65071652Y34415463D01*
X65014469Y34603970D01*
X64995162Y34800000D01*
X65014469Y34996030D01*
X65071652Y35184537D01*
X65164509Y35358260D01*
X65289472Y35510528D01*
X65441740Y35635491D01*
X65615463Y35728348D01*
X65615465Y35728349D01*
X65803966Y35785530D01*
X65803967Y35785530D01*
X65803970Y35785531D01*
X65950876Y35800000D01*
X66049124Y35800000D01*
X66196030Y35785531D01*
X66196030Y35785531D01*
G37*
G36*
X56015770Y35784628D02*
X56131689Y35761571D01*
X56313678Y35686189D01*
X56477463Y35576751D01*
X56616751Y35437463D01*
X56726189Y35273678D01*
X56801571Y35091689D01*
X56840000Y34898491D01*
X56840000Y34701509D01*
X56801571Y34508311D01*
X56726189Y34326322D01*
X56616751Y34162537D01*
X56477463Y34023249D01*
X56313678Y33913811D01*
X56131689Y33838429D01*
X56015770Y33815372D01*
X55938493Y33800000D01*
X55741507Y33800000D01*
X55664230Y33815372D01*
X55548311Y33838429D01*
X55366322Y33913811D01*
X55202537Y34023249D01*
X55063249Y34162537D01*
X54953811Y34326322D01*
X54878429Y34508311D01*
X54840000Y34701509D01*
X54840000Y34898491D01*
X54878429Y35091689D01*
X54953811Y35273678D01*
X55063249Y35437463D01*
X55202537Y35576751D01*
X55366322Y35686189D01*
X55548311Y35761571D01*
X55664230Y35784628D01*
X55741507Y35800000D01*
X55938493Y35800000D01*
X56015770Y35784628D01*
X56015770Y35784628D01*
G37*
G36*
X44856030Y35785531D02*
X44856033Y35785530D01*
X44856034Y35785530D01*
X45044535Y35728349D01*
X45044537Y35728348D01*
X45218260Y35635491D01*
X45370528Y35510528D01*
X45495491Y35358260D01*
X45588348Y35184537D01*
X45645531Y34996030D01*
X45664838Y34800000D01*
X45645531Y34603970D01*
X45588348Y34415463D01*
X45495491Y34241740D01*
X45370528Y34089472D01*
X45218260Y33964509D01*
X45218258Y33964508D01*
X45044535Y33871651D01*
X44856034Y33814470D01*
X44856033Y33814470D01*
X44856030Y33814469D01*
X44709124Y33800000D01*
X44610876Y33800000D01*
X44463970Y33814469D01*
X44463967Y33814470D01*
X44463966Y33814470D01*
X44275465Y33871651D01*
X44101742Y33964508D01*
X44101740Y33964509D01*
X43949472Y34089472D01*
X43824509Y34241740D01*
X43731652Y34415463D01*
X43674469Y34603970D01*
X43655162Y34800000D01*
X43674469Y34996030D01*
X43731652Y35184537D01*
X43824509Y35358260D01*
X43949472Y35510528D01*
X44101740Y35635491D01*
X44275463Y35728348D01*
X44275465Y35728349D01*
X44463966Y35785530D01*
X44463967Y35785530D01*
X44463970Y35785531D01*
X44610876Y35800000D01*
X44709124Y35800000D01*
X44856030Y35785531D01*
X44856030Y35785531D01*
G37*
G36*
X34675770Y35784628D02*
X34791689Y35761571D01*
X34973678Y35686189D01*
X35137463Y35576751D01*
X35276751Y35437463D01*
X35386189Y35273678D01*
X35461571Y35091689D01*
X35500000Y34898491D01*
X35500000Y34701509D01*
X35461571Y34508311D01*
X35386189Y34326322D01*
X35276751Y34162537D01*
X35137463Y34023249D01*
X34973678Y33913811D01*
X34791689Y33838429D01*
X34675770Y33815372D01*
X34598493Y33800000D01*
X34401507Y33800000D01*
X34324230Y33815372D01*
X34208311Y33838429D01*
X34026322Y33913811D01*
X33862537Y34023249D01*
X33723249Y34162537D01*
X33613811Y34326322D01*
X33538429Y34508311D01*
X33500000Y34701509D01*
X33500000Y34898491D01*
X33538429Y35091689D01*
X33613811Y35273678D01*
X33723249Y35437463D01*
X33862537Y35576751D01*
X34026322Y35686189D01*
X34208311Y35761571D01*
X34324230Y35784628D01*
X34401507Y35800000D01*
X34598493Y35800000D01*
X34675770Y35784628D01*
X34675770Y35784628D01*
G37*
M02*
