G04 #@! TF.GenerationSoftware,KiCad,Pcbnew,5.0.2-bee76a0~70~ubuntu18.04.1*
G04 #@! TF.CreationDate,2019-09-09T13:29:18+02:00*
G04 #@! TF.ProjectId,Sensors_board,53656e73-6f72-4735-9f62-6f6172642e6b,V2*
G04 #@! TF.SameCoordinates,PX4db9760PY4ead9a0*
G04 #@! TF.FileFunction,Copper,L2,Bot*
G04 #@! TF.FilePolarity,Positive*
%FSLAX46Y46*%
G04 Gerber Fmt 4.6, Leading zero omitted, Abs format (unit mm)*
G04 Created by KiCad (PCBNEW 5.0.2-bee76a0~70~ubuntu18.04.1) date lun 09 sep 2019 13:29:18 CEST*
%MOMM*%
%LPD*%
G01*
G04 APERTURE LIST*
G04 #@! TA.AperFunction,NonConductor*
%ADD10C,0.150000*%
G04 #@! TD*
G04 #@! TA.AperFunction,ComponentPad*
%ADD11R,1.700000X1.700000*%
G04 #@! TD*
G04 #@! TA.AperFunction,ComponentPad*
%ADD12O,1.700000X1.700000*%
G04 #@! TD*
G04 #@! TA.AperFunction,ComponentPad*
%ADD13C,1.600000*%
G04 #@! TD*
G04 #@! TA.AperFunction,ComponentPad*
%ADD14R,1.600000X1.600000*%
G04 #@! TD*
G04 #@! TA.AperFunction,ComponentPad*
%ADD15O,1.600000X1.600000*%
G04 #@! TD*
G04 #@! TA.AperFunction,ComponentPad*
%ADD16R,1.600000X2.400000*%
G04 #@! TD*
G04 #@! TA.AperFunction,ComponentPad*
%ADD17O,1.600000X2.400000*%
G04 #@! TD*
G04 #@! TA.AperFunction,ViaPad*
%ADD18C,0.600000*%
G04 #@! TD*
G04 #@! TA.AperFunction,ViaPad*
%ADD19C,0.500000*%
G04 #@! TD*
G04 #@! TA.AperFunction,Conductor*
%ADD20C,0.500000*%
G04 #@! TD*
G04 #@! TA.AperFunction,Conductor*
%ADD21C,0.304800*%
G04 #@! TD*
G04 APERTURE END LIST*
D10*
X26000000Y16500000D02*
X18500000Y13500000D01*
X26000000Y16500000D02*
X32000000Y16500000D01*
X74000000Y16500000D02*
X68000000Y16500000D01*
X81500000Y13500000D02*
X74000000Y16500000D01*
X68000000Y16500000D02*
X68000000Y5000000D01*
X32000000Y16500000D02*
X32000000Y5000000D01*
X88500000Y31500001D02*
G75*
G03X11500000Y31500000I-38500000J-101000001D01*
G01*
X32000000Y5000000D02*
G75*
G03X37000000Y0I5000000J0D01*
G01*
X68000000Y5000000D02*
G75*
G02X63000000Y0I-5000000J0D01*
G01*
X37000000Y0D02*
X63000000Y0D01*
X64000000Y5000000D02*
G75*
G03X64000000Y5000000I-1000000J0D01*
G01*
X38000000Y5000000D02*
G75*
G03X38000000Y5000000I-1000000J0D01*
G01*
X18500000Y13500000D02*
G75*
G02X11500000Y31500000I-3500000J9000000D01*
G01*
X81500001Y13500000D02*
G75*
G03X88500000Y31500000I3499999J9000000D01*
G01*
X72500000Y33000000D02*
G75*
G03X72500000Y33000000I-1000000J0D01*
G01*
X29500000Y33000000D02*
G75*
G03X29500000Y33000000I-1000000J0D01*
G01*
D11*
G04 #@! TO.P,J1,1*
G04 #@! TO.N,+5V*
X57620000Y10250000D03*
D12*
G04 #@! TO.P,J1,2*
G04 #@! TO.N,GND*
X55080000Y10250000D03*
G04 #@! TO.P,J1,3*
G04 #@! TO.N,LINEA_1*
X52540000Y10250000D03*
G04 #@! TO.P,J1,4*
G04 #@! TO.N,LINEA_2*
X50000000Y10250000D03*
G04 #@! TO.P,J1,5*
G04 #@! TO.N,N/C*
X47460000Y10250000D03*
G04 #@! TO.P,J1,6*
G04 #@! TO.N,LINEA_SEL_1*
X44920000Y10250000D03*
G04 #@! TO.P,J1,7*
G04 #@! TO.N,LINEA_SEL_2*
X42380000Y10250000D03*
G04 #@! TD*
D13*
G04 #@! TO.P,U3,4*
G04 #@! TO.N,GND*
X33730000Y26450000D03*
G04 #@! TO.P,U3,3*
G04 #@! TO.N,SENSOR_3*
X36270000Y26450000D03*
G04 #@! TO.P,U3,2*
G04 #@! TO.N,Net-(R4-Pad1)*
X36270000Y29250000D03*
D14*
G04 #@! TO.P,U3,1*
G04 #@! TO.N,+5V*
X33730000Y29250000D03*
G04 #@! TD*
D13*
G04 #@! TO.P,U6,4*
G04 #@! TO.N,GND*
X63730000Y26450000D03*
G04 #@! TO.P,U6,3*
G04 #@! TO.N,SENSOR_6*
X66270000Y26450000D03*
G04 #@! TO.P,U6,2*
G04 #@! TO.N,GND*
X66270000Y29250000D03*
D14*
G04 #@! TO.P,U6,1*
G04 #@! TO.N,Net-(R7-Pad2)*
X63730000Y29250000D03*
G04 #@! TD*
D13*
G04 #@! TO.P,R7,1*
G04 #@! TO.N,Net-(R7-Pad1)*
X55840000Y34800000D03*
D15*
G04 #@! TO.P,R7,2*
G04 #@! TO.N,Net-(R7-Pad2)*
X66000000Y34800000D03*
G04 #@! TD*
D13*
G04 #@! TO.P,U5,4*
G04 #@! TO.N,GND*
X53730000Y27500000D03*
G04 #@! TO.P,U5,3*
G04 #@! TO.N,SENSOR_5*
X56270000Y27500000D03*
G04 #@! TO.P,U5,2*
G04 #@! TO.N,Net-(R7-Pad1)*
X56270000Y30300000D03*
D14*
G04 #@! TO.P,U5,1*
G04 #@! TO.N,+5V*
X53730000Y30300000D03*
G04 #@! TD*
D13*
G04 #@! TO.P,U4,4*
G04 #@! TO.N,GND*
X43700000Y27500000D03*
G04 #@! TO.P,U4,3*
G04 #@! TO.N,SENSOR_4*
X46240000Y27500000D03*
G04 #@! TO.P,U4,2*
G04 #@! TO.N,GND*
X46240000Y30300000D03*
D14*
G04 #@! TO.P,U4,1*
G04 #@! TO.N,Net-(R4-Pad2)*
X43700000Y30300000D03*
G04 #@! TD*
D13*
G04 #@! TO.P,R4,1*
G04 #@! TO.N,Net-(R4-Pad1)*
X34500000Y34800000D03*
D15*
G04 #@! TO.P,R4,2*
G04 #@! TO.N,Net-(R4-Pad2)*
X44660000Y34800000D03*
G04 #@! TD*
D13*
G04 #@! TO.P,U1,4*
G04 #@! TO.N,GND*
X13730000Y21150000D03*
G04 #@! TO.P,U1,3*
G04 #@! TO.N,SENSOR_1*
X16270000Y21150000D03*
G04 #@! TO.P,U1,2*
G04 #@! TO.N,Net-(R1-Pad1)*
X16270000Y23950000D03*
D14*
G04 #@! TO.P,U1,1*
G04 #@! TO.N,+5V*
X13730000Y23950000D03*
G04 #@! TD*
D13*
G04 #@! TO.P,U2,4*
G04 #@! TO.N,GND*
X23730000Y24370000D03*
G04 #@! TO.P,U2,3*
G04 #@! TO.N,SENSOR_2*
X26270000Y24370000D03*
G04 #@! TO.P,U2,2*
G04 #@! TO.N,GND*
X26270000Y27170000D03*
D14*
G04 #@! TO.P,U2,1*
G04 #@! TO.N,Net-(R1-Pad2)*
X23730000Y27170000D03*
G04 #@! TD*
D13*
G04 #@! TO.P,R1,1*
G04 #@! TO.N,Net-(R1-Pad1)*
X9640000Y28100000D03*
D15*
G04 #@! TO.P,R1,2*
G04 #@! TO.N,Net-(R1-Pad2)*
X19800000Y28100000D03*
G04 #@! TD*
D13*
G04 #@! TO.P,R8,1*
G04 #@! TO.N,+5V*
X62700000Y12500000D03*
D15*
G04 #@! TO.P,R8,2*
G04 #@! TO.N,SENSOR_5*
X62700000Y22660000D03*
G04 #@! TD*
D13*
G04 #@! TO.P,R2,1*
G04 #@! TO.N,+5V*
X10100000Y16700000D03*
D15*
G04 #@! TO.P,R2,2*
G04 #@! TO.N,SENSOR_1*
X20260000Y16700000D03*
G04 #@! TD*
D13*
G04 #@! TO.P,R3,1*
G04 #@! TO.N,+5V*
X20440000Y20200000D03*
D15*
G04 #@! TO.P,R3,2*
G04 #@! TO.N,SENSOR_2*
X30600000Y20200000D03*
G04 #@! TD*
D13*
G04 #@! TO.P,R5,1*
G04 #@! TO.N,+5V*
X33900000Y12500000D03*
D15*
G04 #@! TO.P,R5,2*
G04 #@! TO.N,SENSOR_3*
X33900000Y22660000D03*
G04 #@! TD*
D13*
G04 #@! TO.P,R6,1*
G04 #@! TO.N,+5V*
X37300000Y12500000D03*
D15*
G04 #@! TO.P,R6,2*
G04 #@! TO.N,SENSOR_4*
X37300000Y22660000D03*
G04 #@! TD*
D13*
G04 #@! TO.P,R9,1*
G04 #@! TO.N,+5V*
X66100000Y12500000D03*
D15*
G04 #@! TO.P,R9,2*
G04 #@! TO.N,SENSOR_6*
X66100000Y22660000D03*
G04 #@! TD*
D13*
G04 #@! TO.P,R10,1*
G04 #@! TO.N,Net-(R10-Pad1)*
X80100000Y28100000D03*
D15*
G04 #@! TO.P,R10,2*
G04 #@! TO.N,Net-(R10-Pad2)*
X90260000Y28100000D03*
G04 #@! TD*
D13*
G04 #@! TO.P,R11,1*
G04 #@! TO.N,+5V*
X69300000Y20200000D03*
D15*
G04 #@! TO.P,R11,2*
G04 #@! TO.N,SENSOR_7*
X79460000Y20200000D03*
G04 #@! TD*
D13*
G04 #@! TO.P,R12,1*
G04 #@! TO.N,+5V*
X79740000Y16800000D03*
D15*
G04 #@! TO.P,R12,2*
G04 #@! TO.N,SENSOR_8*
X89900000Y16800000D03*
G04 #@! TD*
D13*
G04 #@! TO.P,U7,4*
G04 #@! TO.N,GND*
X73730000Y24370000D03*
G04 #@! TO.P,U7,3*
G04 #@! TO.N,SENSOR_7*
X76270000Y24370000D03*
G04 #@! TO.P,U7,2*
G04 #@! TO.N,Net-(R10-Pad1)*
X76270000Y27170000D03*
D14*
G04 #@! TO.P,U7,1*
G04 #@! TO.N,+5V*
X73730000Y27170000D03*
G04 #@! TD*
D13*
G04 #@! TO.P,U8,4*
G04 #@! TO.N,GND*
X83730000Y21150000D03*
G04 #@! TO.P,U8,3*
G04 #@! TO.N,SENSOR_8*
X86270000Y21150000D03*
G04 #@! TO.P,U8,2*
G04 #@! TO.N,GND*
X86270000Y23950000D03*
D14*
G04 #@! TO.P,U8,1*
G04 #@! TO.N,Net-(R10-Pad2)*
X83730000Y23950000D03*
G04 #@! TD*
D16*
G04 #@! TO.P,U9,1*
G04 #@! TO.N,SENSOR_5*
X58860000Y22200000D03*
D17*
G04 #@! TO.P,U9,9*
G04 #@! TO.N,LINEA_SEL_2*
X41080000Y14580000D03*
G04 #@! TO.P,U9,2*
G04 #@! TO.N,SENSOR_7*
X56320000Y22200000D03*
G04 #@! TO.P,U9,10*
G04 #@! TO.N,LINEA_SEL_1*
X43620000Y14580000D03*
G04 #@! TO.P,U9,3*
G04 #@! TO.N,LINEA_2*
X53780000Y22200000D03*
G04 #@! TO.P,U9,11*
G04 #@! TO.N,SENSOR_4*
X46160000Y14580000D03*
G04 #@! TO.P,U9,4*
G04 #@! TO.N,SENSOR_8*
X51240000Y22200000D03*
G04 #@! TO.P,U9,12*
G04 #@! TO.N,SENSOR_1*
X48700000Y14580000D03*
G04 #@! TO.P,U9,5*
G04 #@! TO.N,SENSOR_6*
X48700000Y22200000D03*
G04 #@! TO.P,U9,13*
G04 #@! TO.N,LINEA_1*
X51240000Y14580000D03*
G04 #@! TO.P,U9,6*
G04 #@! TO.N,GND*
X46160000Y22200000D03*
G04 #@! TO.P,U9,14*
G04 #@! TO.N,SENSOR_2*
X53780000Y14580000D03*
G04 #@! TO.P,U9,7*
G04 #@! TO.N,GND*
X43620000Y22200000D03*
G04 #@! TO.P,U9,15*
G04 #@! TO.N,SENSOR_3*
X56320000Y14580000D03*
G04 #@! TO.P,U9,8*
G04 #@! TO.N,GND*
X41080000Y22200000D03*
G04 #@! TO.P,U9,16*
G04 #@! TO.N,+5V*
X58860000Y14580000D03*
G04 #@! TD*
D18*
G04 #@! TO.N,GND*
X34100000Y18900000D03*
X37200000Y17700000D03*
X35800000Y15000000D03*
X37500000Y15000000D03*
X55900000Y18000000D03*
X53600000Y18000000D03*
X64400000Y20200000D03*
X63100000Y15700000D03*
X41650000Y5200000D03*
X50150000Y5100000D03*
X57750000Y5000000D03*
D19*
G04 #@! TO.N,SENSOR_1*
X35300000Y17500000D03*
G04 #@! TO.N,SENSOR_2*
X40600000Y17397590D03*
G04 #@! TO.N,SENSOR_8*
X56300000Y19700000D03*
G04 #@! TD*
D20*
G04 #@! TO.N,GND*
X35800000Y15000000D02*
X35800000Y16300000D01*
X35800000Y16300000D02*
X37200000Y17700000D01*
X39100000Y13800000D02*
X37900000Y15000000D01*
X37900000Y15000000D02*
X37500000Y15000000D01*
X41650000Y5200000D02*
X39100000Y7750000D01*
X39100000Y7750000D02*
X39100000Y13800000D01*
X53600000Y18000000D02*
X55900000Y18000000D01*
X59700000Y12300000D02*
X63100000Y15700000D01*
X55100000Y12300000D02*
X59700000Y12300000D01*
X55080000Y12280000D02*
X55100000Y12300000D01*
X55080000Y10250000D02*
X55080000Y12280000D01*
X50150000Y5100000D02*
X41750000Y5100000D01*
X41750000Y5100000D02*
X41650000Y5200000D01*
X55080000Y10250000D02*
X55080000Y7670000D01*
X55080000Y7670000D02*
X57750000Y5000000D01*
D21*
G04 #@! TO.N,LINEA_1*
X51240000Y14580000D02*
X51240000Y11550000D01*
X51240000Y11550000D02*
X52540000Y10250000D01*
G04 #@! TO.N,LINEA_2*
X50000000Y16400000D02*
X53780000Y20180000D01*
X53780000Y20180000D02*
X53780000Y22200000D01*
X50000000Y10250000D02*
X50000000Y16400000D01*
G04 #@! TO.N,LINEA_SEL_1*
X43620000Y14580000D02*
X43620000Y11550000D01*
X43620000Y11550000D02*
X44920000Y10250000D01*
G04 #@! TO.N,SENSOR_1*
X20260000Y16700000D02*
X21059999Y17499999D01*
X21059999Y17499999D02*
X34946447Y17500000D01*
X34946447Y17500000D02*
X35300000Y17500000D01*
G04 #@! TO.N,SENSOR_2*
X40350001Y17647589D02*
X40600000Y17397590D01*
X37797590Y20200000D02*
X40350001Y17647589D01*
X30600000Y20200000D02*
X37797590Y20200000D01*
G04 #@! TO.N,SENSOR_4*
X43440000Y17700000D02*
X42260000Y17700000D01*
X42260000Y17700000D02*
X37300000Y22660000D01*
X46160000Y14580000D02*
X46160000Y14980000D01*
X46160000Y14980000D02*
X43440000Y17700000D01*
G04 #@! TO.N,SENSOR_5*
X62700000Y22660000D02*
X59320000Y22660000D01*
X59320000Y22660000D02*
X58860000Y22200000D01*
G04 #@! TO.N,SENSOR_6*
X64160000Y24600000D02*
X50700000Y24600000D01*
X50700000Y24600000D02*
X48700000Y22600000D01*
X48700000Y22600000D02*
X48700000Y22200000D01*
X66100000Y22660000D02*
X64160000Y24600000D01*
G04 #@! TO.N,LINEA_SEL_2*
X41080000Y14580000D02*
X41080000Y11550000D01*
X41080000Y11550000D02*
X42380000Y10250000D01*
G04 #@! TO.N,SENSOR_7*
X56320000Y21800000D02*
X56320000Y22200000D01*
X59920000Y18200000D02*
X56320000Y21800000D01*
X76328630Y18200000D02*
X59920000Y18200000D01*
X78328630Y20200000D02*
X76328630Y18200000D01*
X79460000Y20200000D02*
X78328630Y20200000D01*
G04 #@! TO.N,SENSOR_8*
X77500000Y17600000D02*
X58400000Y17600000D01*
X58400000Y17600000D02*
X56300000Y19700000D01*
X78400000Y18500000D02*
X77500000Y17600000D01*
X88200000Y18500000D02*
X78400000Y18500000D01*
X89900000Y16800000D02*
X88200000Y18500000D01*
G04 #@! TD*
G04 #@! TO.N,GND*
G36*
X52124143Y37832531D02*
X56242831Y37671878D01*
X60352326Y37353234D01*
X64446534Y36877074D01*
X68519486Y36244092D01*
X72565120Y35455227D01*
X76577486Y34511641D01*
X80550696Y33414719D01*
X84479024Y32166032D01*
X88220083Y30819168D01*
X89263026Y30335038D01*
X90224026Y29729852D01*
X90442860Y29549456D01*
X90331742Y29560400D01*
X90188258Y29560400D01*
X89973712Y29539269D01*
X89698425Y29455762D01*
X89444720Y29320153D01*
X89222345Y29137655D01*
X89039847Y28915280D01*
X88904238Y28661575D01*
X88820731Y28386288D01*
X88792534Y28100000D01*
X88820731Y27813712D01*
X88904238Y27538425D01*
X89039847Y27284720D01*
X89222345Y27062345D01*
X89444720Y26879847D01*
X89698425Y26744238D01*
X89973712Y26660731D01*
X90188258Y26639600D01*
X90331742Y26639600D01*
X90546288Y26660731D01*
X90821575Y26744238D01*
X91075280Y26879847D01*
X91297655Y27062345D01*
X91480153Y27284720D01*
X91615762Y27538425D01*
X91699269Y27813712D01*
X91727466Y28100000D01*
X91701099Y28367708D01*
X91877764Y28179575D01*
X92543687Y27259622D01*
X93087322Y26262504D01*
X93499851Y25204394D01*
X93774588Y24102441D01*
X93907078Y22974522D01*
X93895176Y21838894D01*
X93739072Y20713987D01*
X93441300Y19618043D01*
X93006681Y18568809D01*
X92442268Y17583309D01*
X91757211Y16677517D01*
X91169895Y16077780D01*
X91255762Y16238425D01*
X91339269Y16513712D01*
X91367466Y16800000D01*
X91339269Y17086288D01*
X91255762Y17361575D01*
X91120153Y17615280D01*
X90937655Y17837655D01*
X90715280Y18020153D01*
X90461575Y18155762D01*
X90186288Y18239269D01*
X89971742Y18260400D01*
X89828258Y18260400D01*
X89613712Y18239269D01*
X89611020Y18238452D01*
X88802971Y19046501D01*
X88777517Y19077517D01*
X88653752Y19179088D01*
X88512550Y19254562D01*
X88359337Y19301039D01*
X88239923Y19312800D01*
X88239920Y19312800D01*
X88200000Y19316732D01*
X88160080Y19312800D01*
X80621130Y19312800D01*
X80680153Y19384720D01*
X80815762Y19638425D01*
X80899269Y19913712D01*
X80923531Y20160053D01*
X82883737Y20160053D01*
X82951711Y19905924D01*
X83209373Y19777992D01*
X83487042Y19702786D01*
X83774049Y19683195D01*
X84059362Y19719973D01*
X84332018Y19811706D01*
X84508289Y19905924D01*
X84576263Y20160053D01*
X83730000Y21006316D01*
X82883737Y20160053D01*
X80923531Y20160053D01*
X80927466Y20200000D01*
X80899269Y20486288D01*
X80815762Y20761575D01*
X80680153Y21015280D01*
X80605742Y21105951D01*
X82263195Y21105951D01*
X82299973Y20820638D01*
X82391706Y20547982D01*
X82485924Y20371711D01*
X82740053Y20303737D01*
X83586316Y21150000D01*
X83873684Y21150000D01*
X84719947Y20303737D01*
X84974076Y20371711D01*
X84999463Y20422843D01*
X85135633Y20219049D01*
X85339049Y20015633D01*
X85578241Y19855811D01*
X85844017Y19745723D01*
X86126163Y19689600D01*
X86413837Y19689600D01*
X86695983Y19745723D01*
X86961759Y19855811D01*
X87200951Y20015633D01*
X87404367Y20219049D01*
X87564189Y20458241D01*
X87674277Y20724017D01*
X87730400Y21006163D01*
X87730400Y21293837D01*
X87674277Y21575983D01*
X87564189Y21841759D01*
X87404367Y22080951D01*
X87200951Y22284367D01*
X86961759Y22444189D01*
X86698376Y22553286D01*
X86872018Y22611706D01*
X87048289Y22705924D01*
X87116263Y22960053D01*
X86270000Y23806316D01*
X85423737Y22960053D01*
X85491711Y22705924D01*
X85749373Y22577992D01*
X85841216Y22553117D01*
X85578241Y22444189D01*
X85339049Y22284367D01*
X85135633Y22080951D01*
X85000543Y21878773D01*
X84974076Y21928289D01*
X84719947Y21996263D01*
X83873684Y21150000D01*
X83586316Y21150000D01*
X82740053Y21996263D01*
X82485924Y21928289D01*
X82357992Y21670627D01*
X82282786Y21392958D01*
X82263195Y21105951D01*
X80605742Y21105951D01*
X80497655Y21237655D01*
X80275280Y21420153D01*
X80021575Y21555762D01*
X79746288Y21639269D01*
X79531742Y21660400D01*
X79388258Y21660400D01*
X79173712Y21639269D01*
X78898425Y21555762D01*
X78644720Y21420153D01*
X78422345Y21237655D01*
X78239847Y21015280D01*
X78235733Y21007583D01*
X78169293Y21001039D01*
X78016080Y20954562D01*
X77874878Y20879088D01*
X77751113Y20777517D01*
X77725663Y20746506D01*
X75991958Y19012800D01*
X70151880Y19012800D01*
X70230951Y19065633D01*
X70434367Y19269049D01*
X70594189Y19508241D01*
X70704277Y19774017D01*
X70760400Y20056163D01*
X70760400Y20343837D01*
X70704277Y20625983D01*
X70594189Y20891759D01*
X70434367Y21130951D01*
X70230951Y21334367D01*
X69991759Y21494189D01*
X69725983Y21604277D01*
X69443837Y21660400D01*
X69156163Y21660400D01*
X68874017Y21604277D01*
X68608241Y21494189D01*
X68369049Y21334367D01*
X68165633Y21130951D01*
X68005811Y20891759D01*
X67895723Y20625983D01*
X67839600Y20343837D01*
X67839600Y20056163D01*
X67895723Y19774017D01*
X68005811Y19508241D01*
X68165633Y19269049D01*
X68369049Y19065633D01*
X68448120Y19012800D01*
X60256673Y19012800D01*
X58933068Y20336405D01*
X59660000Y20336405D01*
X59789461Y20349156D01*
X59913947Y20386918D01*
X60028674Y20448241D01*
X60129233Y20530767D01*
X60211759Y20631326D01*
X60273082Y20746053D01*
X60310844Y20870539D01*
X60323595Y21000000D01*
X60323595Y21847200D01*
X61478521Y21847200D01*
X61479847Y21844720D01*
X61662345Y21622345D01*
X61884720Y21439847D01*
X62138425Y21304238D01*
X62413712Y21220731D01*
X62628258Y21199600D01*
X62771742Y21199600D01*
X62986288Y21220731D01*
X63261575Y21304238D01*
X63515280Y21439847D01*
X63737655Y21622345D01*
X63920153Y21844720D01*
X64055762Y22098425D01*
X64139269Y22373712D01*
X64167466Y22660000D01*
X64139269Y22946288D01*
X64055762Y23221575D01*
X63920153Y23475280D01*
X63737655Y23697655D01*
X63628544Y23787200D01*
X63823328Y23787200D01*
X64661548Y22948980D01*
X64660731Y22946288D01*
X64632534Y22660000D01*
X64660731Y22373712D01*
X64744238Y22098425D01*
X64879847Y21844720D01*
X65062345Y21622345D01*
X65284720Y21439847D01*
X65538425Y21304238D01*
X65813712Y21220731D01*
X66028258Y21199600D01*
X66171742Y21199600D01*
X66386288Y21220731D01*
X66661575Y21304238D01*
X66915280Y21439847D01*
X67137655Y21622345D01*
X67320153Y21844720D01*
X67455762Y22098425D01*
X67539269Y22373712D01*
X67567466Y22660000D01*
X67539269Y22946288D01*
X67455762Y23221575D01*
X67371054Y23380053D01*
X72883737Y23380053D01*
X72951711Y23125924D01*
X73209373Y22997992D01*
X73487042Y22922786D01*
X73774049Y22903195D01*
X74059362Y22939973D01*
X74332018Y23031706D01*
X74508289Y23125924D01*
X74576263Y23380053D01*
X73730000Y24226316D01*
X72883737Y23380053D01*
X67371054Y23380053D01*
X67320153Y23475280D01*
X67137655Y23697655D01*
X66915280Y23880153D01*
X66661575Y24015762D01*
X66386288Y24099269D01*
X66171742Y24120400D01*
X66028258Y24120400D01*
X65813712Y24099269D01*
X65811020Y24098452D01*
X65583521Y24325951D01*
X72263195Y24325951D01*
X72299973Y24040638D01*
X72391706Y23767982D01*
X72485924Y23591711D01*
X72740053Y23523737D01*
X73586316Y24370000D01*
X72740053Y25216263D01*
X72485924Y25148289D01*
X72357992Y24890627D01*
X72282786Y24612958D01*
X72263195Y24325951D01*
X65583521Y24325951D01*
X64762972Y25146500D01*
X64737517Y25177517D01*
X64613752Y25279088D01*
X64538603Y25319256D01*
X64576263Y25460053D01*
X63730000Y26306316D01*
X62883737Y25460053D01*
X62896376Y25412800D01*
X50739920Y25412800D01*
X50699999Y25416732D01*
X50660079Y25412800D01*
X50660077Y25412800D01*
X50540663Y25401039D01*
X50387450Y25354562D01*
X50246248Y25279088D01*
X50122483Y25177517D01*
X50097033Y25146506D01*
X48988980Y24038452D01*
X48986288Y24039269D01*
X48700000Y24067466D01*
X48413713Y24039269D01*
X48138426Y23955762D01*
X47884721Y23820153D01*
X47662346Y23637655D01*
X47479847Y23415280D01*
X47428566Y23319340D01*
X47317832Y23495832D01*
X47120816Y23704501D01*
X46886877Y23870724D01*
X46625004Y23988114D01*
X46488253Y24023032D01*
X46261600Y23891309D01*
X46261600Y22301600D01*
X46281600Y22301600D01*
X46281600Y22098400D01*
X46261600Y22098400D01*
X46261600Y20508691D01*
X46488253Y20376968D01*
X46625004Y20411886D01*
X46886877Y20529276D01*
X47120816Y20695499D01*
X47317832Y20904168D01*
X47428566Y21080661D01*
X47479847Y20984721D01*
X47662345Y20762346D01*
X47884720Y20579847D01*
X48138425Y20444238D01*
X48413712Y20360731D01*
X48700000Y20332534D01*
X48986287Y20360731D01*
X49261574Y20444238D01*
X49515279Y20579847D01*
X49737654Y20762345D01*
X49920153Y20984720D01*
X49970000Y21077977D01*
X50019847Y20984721D01*
X50202345Y20762346D01*
X50424720Y20579847D01*
X50678425Y20444238D01*
X50953712Y20360731D01*
X51240000Y20332534D01*
X51526287Y20360731D01*
X51801574Y20444238D01*
X52055279Y20579847D01*
X52277654Y20762345D01*
X52460153Y20984720D01*
X52510000Y21077977D01*
X52559847Y20984721D01*
X52742345Y20762346D01*
X52964720Y20579847D01*
X52967200Y20578521D01*
X52967200Y20516673D01*
X49453495Y17002967D01*
X49422484Y16977517D01*
X49397034Y16946506D01*
X49320912Y16853751D01*
X49245438Y16712549D01*
X49223632Y16640664D01*
X49205491Y16580858D01*
X49198962Y16559336D01*
X49183268Y16400000D01*
X49187201Y16360070D01*
X49187201Y16358323D01*
X48986288Y16419269D01*
X48700000Y16447466D01*
X48413713Y16419269D01*
X48138426Y16335762D01*
X47884721Y16200153D01*
X47662346Y16017655D01*
X47479847Y15795280D01*
X47430000Y15702023D01*
X47380153Y15795280D01*
X47197655Y16017655D01*
X46975280Y16200153D01*
X46721575Y16335762D01*
X46446288Y16419269D01*
X46160000Y16447466D01*
X45873713Y16419269D01*
X45871020Y16418452D01*
X44042971Y18246501D01*
X44017517Y18277517D01*
X43893752Y18379088D01*
X43752550Y18454562D01*
X43599337Y18501039D01*
X43479923Y18512800D01*
X43479920Y18512800D01*
X43440000Y18516732D01*
X43400080Y18512800D01*
X42596673Y18512800D01*
X40725906Y20383566D01*
X40751747Y20376968D01*
X40978400Y20508691D01*
X40978400Y22098400D01*
X41181600Y22098400D01*
X41181600Y20508691D01*
X41408253Y20376968D01*
X41545004Y20411886D01*
X41806877Y20529276D01*
X42040816Y20695499D01*
X42237832Y20904168D01*
X42350000Y21082947D01*
X42462168Y20904168D01*
X42659184Y20695499D01*
X42893123Y20529276D01*
X43154996Y20411886D01*
X43291747Y20376968D01*
X43518400Y20508691D01*
X43518400Y22098400D01*
X43721600Y22098400D01*
X43721600Y20508691D01*
X43948253Y20376968D01*
X44085004Y20411886D01*
X44346877Y20529276D01*
X44580816Y20695499D01*
X44777832Y20904168D01*
X44890000Y21082947D01*
X45002168Y20904168D01*
X45199184Y20695499D01*
X45433123Y20529276D01*
X45694996Y20411886D01*
X45831747Y20376968D01*
X46058400Y20508691D01*
X46058400Y22098400D01*
X43721600Y22098400D01*
X43518400Y22098400D01*
X41181600Y22098400D01*
X40978400Y22098400D01*
X39619600Y22098400D01*
X39619600Y21698400D01*
X39662074Y21447398D01*
X38738452Y22371020D01*
X38739269Y22373712D01*
X38767466Y22660000D01*
X38763369Y22701600D01*
X39619600Y22701600D01*
X39619600Y22301600D01*
X40978400Y22301600D01*
X40978400Y23891309D01*
X41181600Y23891309D01*
X41181600Y22301600D01*
X43518400Y22301600D01*
X43518400Y23891309D01*
X43721600Y23891309D01*
X43721600Y22301600D01*
X46058400Y22301600D01*
X46058400Y23891309D01*
X45831747Y24023032D01*
X45694996Y23988114D01*
X45433123Y23870724D01*
X45199184Y23704501D01*
X45002168Y23495832D01*
X44890000Y23317053D01*
X44777832Y23495832D01*
X44580816Y23704501D01*
X44346877Y23870724D01*
X44085004Y23988114D01*
X43948253Y24023032D01*
X43721600Y23891309D01*
X43518400Y23891309D01*
X43291747Y24023032D01*
X43154996Y23988114D01*
X42893123Y23870724D01*
X42659184Y23704501D01*
X42462168Y23495832D01*
X42350000Y23317053D01*
X42237832Y23495832D01*
X42040816Y23704501D01*
X41806877Y23870724D01*
X41545004Y23988114D01*
X41408253Y24023032D01*
X41181600Y23891309D01*
X40978400Y23891309D01*
X40751747Y24023032D01*
X40614996Y23988114D01*
X40353123Y23870724D01*
X40119184Y23704501D01*
X39922168Y23495832D01*
X39769647Y23252737D01*
X39667482Y22984558D01*
X39619600Y22701600D01*
X38763369Y22701600D01*
X38739269Y22946288D01*
X38655762Y23221575D01*
X38520153Y23475280D01*
X38337655Y23697655D01*
X38115280Y23880153D01*
X37861575Y24015762D01*
X37586288Y24099269D01*
X37371742Y24120400D01*
X37228258Y24120400D01*
X37013712Y24099269D01*
X36738425Y24015762D01*
X36484720Y23880153D01*
X36262345Y23697655D01*
X36079847Y23475280D01*
X35944238Y23221575D01*
X35860731Y22946288D01*
X35832534Y22660000D01*
X35860731Y22373712D01*
X35944238Y22098425D01*
X36079847Y21844720D01*
X36262345Y21622345D01*
X36484720Y21439847D01*
X36738425Y21304238D01*
X37013712Y21220731D01*
X37228258Y21199600D01*
X37371742Y21199600D01*
X37586288Y21220731D01*
X37588980Y21221548D01*
X37794136Y21016392D01*
X37757670Y21012800D01*
X31821479Y21012800D01*
X31820153Y21015280D01*
X31637655Y21237655D01*
X31415280Y21420153D01*
X31161575Y21555762D01*
X30886288Y21639269D01*
X30671742Y21660400D01*
X30528258Y21660400D01*
X30313712Y21639269D01*
X30038425Y21555762D01*
X29784720Y21420153D01*
X29562345Y21237655D01*
X29379847Y21015280D01*
X29244238Y20761575D01*
X29160731Y20486288D01*
X29132534Y20200000D01*
X29160731Y19913712D01*
X29244238Y19638425D01*
X29379847Y19384720D01*
X29562345Y19162345D01*
X29784720Y18979847D01*
X30038425Y18844238D01*
X30313712Y18760731D01*
X30528258Y18739600D01*
X30671742Y18739600D01*
X30886288Y18760731D01*
X31161575Y18844238D01*
X31415280Y18979847D01*
X31637655Y19162345D01*
X31820153Y19384720D01*
X31821479Y19387200D01*
X37460918Y19387200D01*
X39730600Y17117517D01*
X39793214Y16966354D01*
X39892846Y16817244D01*
X40019654Y16690436D01*
X40168764Y16590804D01*
X40334446Y16522176D01*
X40510333Y16487190D01*
X40689667Y16487190D01*
X40865554Y16522176D01*
X41031236Y16590804D01*
X41180346Y16690436D01*
X41307154Y16817244D01*
X41406786Y16966354D01*
X41475414Y17132036D01*
X41509107Y17301420D01*
X41657033Y17153494D01*
X41682483Y17122483D01*
X41713493Y17097034D01*
X41806247Y17020912D01*
X41850919Y16997035D01*
X41947450Y16945438D01*
X42100663Y16898961D01*
X42220077Y16887200D01*
X42220079Y16887200D01*
X42259999Y16883268D01*
X42299920Y16887200D01*
X43103328Y16887200D01*
X43549960Y16440568D01*
X43333713Y16419269D01*
X43058426Y16335762D01*
X42804721Y16200153D01*
X42582346Y16017655D01*
X42399847Y15795280D01*
X42350000Y15702023D01*
X42300153Y15795280D01*
X42117655Y16017655D01*
X41895280Y16200153D01*
X41641575Y16335762D01*
X41366288Y16419269D01*
X41080000Y16447466D01*
X40793713Y16419269D01*
X40518426Y16335762D01*
X40264721Y16200153D01*
X40042346Y16017655D01*
X39859847Y15795280D01*
X39724238Y15541575D01*
X39640731Y15266288D01*
X39619600Y15051742D01*
X39619600Y14108259D01*
X39640731Y13893713D01*
X39724238Y13618426D01*
X39859847Y13364721D01*
X40042345Y13142346D01*
X40264720Y12959847D01*
X40267201Y12958521D01*
X40267201Y11589930D01*
X40263268Y11550000D01*
X40278962Y11390664D01*
X40325438Y11237451D01*
X40400912Y11096249D01*
X40400913Y11096248D01*
X40502484Y10972483D01*
X40533495Y10947033D01*
X40901458Y10579069D01*
X40891454Y10546090D01*
X40862292Y10250000D01*
X40891454Y9953910D01*
X40977821Y9669198D01*
X41118072Y9406807D01*
X41306818Y9176818D01*
X41536807Y8988072D01*
X41799198Y8847821D01*
X42083910Y8761454D01*
X42305800Y8739600D01*
X42454200Y8739600D01*
X42676090Y8761454D01*
X42960802Y8847821D01*
X43223193Y8988072D01*
X43453182Y9176818D01*
X43641928Y9406807D01*
X43650000Y9421909D01*
X43658072Y9406807D01*
X43846818Y9176818D01*
X44076807Y8988072D01*
X44339198Y8847821D01*
X44623910Y8761454D01*
X44845800Y8739600D01*
X44994200Y8739600D01*
X45216090Y8761454D01*
X45500802Y8847821D01*
X45763193Y8988072D01*
X45993182Y9176818D01*
X46181928Y9406807D01*
X46190000Y9421909D01*
X46198072Y9406807D01*
X46386818Y9176818D01*
X46616807Y8988072D01*
X46879198Y8847821D01*
X47163910Y8761454D01*
X47385800Y8739600D01*
X47534200Y8739600D01*
X47756090Y8761454D01*
X48040802Y8847821D01*
X48303193Y8988072D01*
X48533182Y9176818D01*
X48721928Y9406807D01*
X48730000Y9421909D01*
X48738072Y9406807D01*
X48926818Y9176818D01*
X49156807Y8988072D01*
X49419198Y8847821D01*
X49703910Y8761454D01*
X49925800Y8739600D01*
X50074200Y8739600D01*
X50296090Y8761454D01*
X50580802Y8847821D01*
X50843193Y8988072D01*
X51073182Y9176818D01*
X51261928Y9406807D01*
X51270000Y9421909D01*
X51278072Y9406807D01*
X51466818Y9176818D01*
X51696807Y8988072D01*
X51959198Y8847821D01*
X52243910Y8761454D01*
X52465800Y8739600D01*
X52614200Y8739600D01*
X52836090Y8761454D01*
X53120802Y8847821D01*
X53383193Y8988072D01*
X53613182Y9176818D01*
X53801928Y9406807D01*
X53815771Y9432706D01*
X53848172Y9375975D01*
X54042355Y9152451D01*
X54276414Y8971106D01*
X54541355Y8838908D01*
X54743907Y8777468D01*
X54978400Y8908542D01*
X54978400Y10148400D01*
X54958400Y10148400D01*
X54958400Y10351600D01*
X54978400Y10351600D01*
X54978400Y11591458D01*
X55181600Y11591458D01*
X55181600Y10351600D01*
X55201600Y10351600D01*
X55201600Y10148400D01*
X55181600Y10148400D01*
X55181600Y8908542D01*
X55416093Y8777468D01*
X55618645Y8838908D01*
X55883586Y8971106D01*
X56117645Y9152451D01*
X56145315Y9184302D01*
X56156918Y9146053D01*
X56218241Y9031326D01*
X56300767Y8930767D01*
X56401326Y8848241D01*
X56516053Y8786918D01*
X56640539Y8749156D01*
X56770000Y8736405D01*
X58470000Y8736405D01*
X58599461Y8749156D01*
X58723947Y8786918D01*
X58838674Y8848241D01*
X58939233Y8930767D01*
X59021759Y9031326D01*
X59083082Y9146053D01*
X59120844Y9270539D01*
X59133595Y9400000D01*
X59133595Y11100000D01*
X59120844Y11229461D01*
X59083082Y11353947D01*
X59021759Y11468674D01*
X58939233Y11569233D01*
X58838674Y11651759D01*
X58723947Y11713082D01*
X58599461Y11750844D01*
X58470000Y11763595D01*
X56770000Y11763595D01*
X56640539Y11750844D01*
X56516053Y11713082D01*
X56401326Y11651759D01*
X56300767Y11569233D01*
X56218241Y11468674D01*
X56156918Y11353947D01*
X56145315Y11315698D01*
X56117645Y11347549D01*
X55883586Y11528894D01*
X55618645Y11661092D01*
X55416093Y11722532D01*
X55181600Y11591458D01*
X54978400Y11591458D01*
X54743907Y11722532D01*
X54541355Y11661092D01*
X54276414Y11528894D01*
X54042355Y11347549D01*
X53848172Y11124025D01*
X53815771Y11067294D01*
X53801928Y11093193D01*
X53613182Y11323182D01*
X53383193Y11511928D01*
X53120802Y11652179D01*
X52836090Y11738546D01*
X52614200Y11760400D01*
X52465800Y11760400D01*
X52243910Y11738546D01*
X52210931Y11728542D01*
X52052800Y11886672D01*
X52052800Y12643837D01*
X61239600Y12643837D01*
X61239600Y12356163D01*
X61295723Y12074017D01*
X61405811Y11808241D01*
X61565633Y11569049D01*
X61769049Y11365633D01*
X62008241Y11205811D01*
X62274017Y11095723D01*
X62556163Y11039600D01*
X62843837Y11039600D01*
X63125983Y11095723D01*
X63391759Y11205811D01*
X63630951Y11365633D01*
X63834367Y11569049D01*
X63994189Y11808241D01*
X64104277Y12074017D01*
X64160400Y12356163D01*
X64160400Y12643837D01*
X64104277Y12925983D01*
X63994189Y13191759D01*
X63834367Y13430951D01*
X63630951Y13634367D01*
X63391759Y13794189D01*
X63125983Y13904277D01*
X62843837Y13960400D01*
X62556163Y13960400D01*
X62274017Y13904277D01*
X62008241Y13794189D01*
X61769049Y13634367D01*
X61565633Y13430951D01*
X61405811Y13191759D01*
X61295723Y12925983D01*
X61239600Y12643837D01*
X52052800Y12643837D01*
X52052800Y12958522D01*
X52055279Y12959847D01*
X52277654Y13142345D01*
X52460153Y13364720D01*
X52510000Y13457977D01*
X52559847Y13364721D01*
X52742345Y13142346D01*
X52964720Y12959847D01*
X53218425Y12824238D01*
X53493712Y12740731D01*
X53780000Y12712534D01*
X54066287Y12740731D01*
X54341574Y12824238D01*
X54595279Y12959847D01*
X54817654Y13142345D01*
X55000153Y13364720D01*
X55050000Y13457977D01*
X55099847Y13364721D01*
X55282345Y13142346D01*
X55504720Y12959847D01*
X55758425Y12824238D01*
X56033712Y12740731D01*
X56320000Y12712534D01*
X56606287Y12740731D01*
X56881574Y12824238D01*
X57135279Y12959847D01*
X57357654Y13142345D01*
X57540153Y13364720D01*
X57590000Y13457977D01*
X57639847Y13364721D01*
X57822345Y13142346D01*
X58044720Y12959847D01*
X58298425Y12824238D01*
X58573712Y12740731D01*
X58860000Y12712534D01*
X59146287Y12740731D01*
X59421574Y12824238D01*
X59675279Y12959847D01*
X59897654Y13142345D01*
X60080153Y13364720D01*
X60215762Y13618425D01*
X60299269Y13893712D01*
X60320400Y14108258D01*
X60320400Y15051741D01*
X60299269Y15266288D01*
X60215762Y15541575D01*
X60080153Y15795280D01*
X59897655Y16017655D01*
X59675280Y16200153D01*
X59421575Y16335762D01*
X59146288Y16419269D01*
X58860000Y16447466D01*
X58573713Y16419269D01*
X58298426Y16335762D01*
X58044721Y16200153D01*
X57822346Y16017655D01*
X57639847Y15795280D01*
X57590000Y15702023D01*
X57540153Y15795280D01*
X57357655Y16017655D01*
X57135280Y16200153D01*
X56881575Y16335762D01*
X56606288Y16419269D01*
X56320000Y16447466D01*
X56033713Y16419269D01*
X55758426Y16335762D01*
X55504721Y16200153D01*
X55282346Y16017655D01*
X55099847Y15795280D01*
X55050000Y15702023D01*
X55000153Y15795280D01*
X54817655Y16017655D01*
X54595280Y16200153D01*
X54341575Y16335762D01*
X54066288Y16419269D01*
X53780000Y16447466D01*
X53493713Y16419269D01*
X53218426Y16335762D01*
X52964721Y16200153D01*
X52742346Y16017655D01*
X52559847Y15795280D01*
X52510000Y15702023D01*
X52460153Y15795280D01*
X52277655Y16017655D01*
X52055280Y16200153D01*
X51801575Y16335762D01*
X51526288Y16419269D01*
X51240000Y16447466D01*
X51192234Y16442761D01*
X54326507Y19577034D01*
X54357517Y19602483D01*
X54421512Y19680461D01*
X54459088Y19726247D01*
X54492986Y19789667D01*
X54534562Y19867450D01*
X54581039Y20020663D01*
X54592800Y20140077D01*
X54592800Y20140079D01*
X54596732Y20179999D01*
X54592800Y20219920D01*
X54592800Y20578522D01*
X54595279Y20579847D01*
X54817654Y20762345D01*
X55000153Y20984720D01*
X55050000Y21077977D01*
X55099847Y20984721D01*
X55282345Y20762346D01*
X55504720Y20579847D01*
X55758425Y20444238D01*
X55769931Y20440748D01*
X55719654Y20407154D01*
X55592846Y20280346D01*
X55493214Y20131236D01*
X55424586Y19965554D01*
X55389600Y19789667D01*
X55389600Y19610333D01*
X55424586Y19434446D01*
X55493214Y19268764D01*
X55592846Y19119654D01*
X55719654Y18992846D01*
X55868764Y18893214D01*
X56019929Y18830599D01*
X57797028Y17053500D01*
X57822483Y17022483D01*
X57890877Y16966354D01*
X57946247Y16920912D01*
X57993435Y16895690D01*
X58087450Y16845438D01*
X58240663Y16798961D01*
X58360077Y16787200D01*
X58360079Y16787200D01*
X58399999Y16783268D01*
X58439920Y16787200D01*
X67319651Y16787200D01*
X67317292Y16782787D01*
X67275241Y16644164D01*
X67261042Y16500000D01*
X67264600Y16463875D01*
X67264600Y13385703D01*
X67234367Y13430951D01*
X67030951Y13634367D01*
X66791759Y13794189D01*
X66525983Y13904277D01*
X66243837Y13960400D01*
X65956163Y13960400D01*
X65674017Y13904277D01*
X65408241Y13794189D01*
X65169049Y13634367D01*
X64965633Y13430951D01*
X64805811Y13191759D01*
X64695723Y12925983D01*
X64639600Y12643837D01*
X64639600Y12356163D01*
X64695723Y12074017D01*
X64805811Y11808241D01*
X64965633Y11569049D01*
X65169049Y11365633D01*
X65408241Y11205811D01*
X65674017Y11095723D01*
X65956163Y11039600D01*
X66243837Y11039600D01*
X66525983Y11095723D01*
X66791759Y11205811D01*
X67030951Y11365633D01*
X67234367Y11569049D01*
X67264600Y11614297D01*
X67264601Y5032767D01*
X67194323Y4245322D01*
X66994392Y3514496D01*
X66668204Y2830629D01*
X66226069Y2215332D01*
X65681960Y1688054D01*
X65053081Y1265465D01*
X64359303Y960918D01*
X63616900Y782682D01*
X62973036Y735400D01*
X37032756Y735400D01*
X36245322Y805677D01*
X35514496Y1005608D01*
X34830629Y1331796D01*
X34215332Y1773931D01*
X33688054Y2318040D01*
X33265465Y2946919D01*
X32960918Y3640697D01*
X32782682Y4383100D01*
X32739180Y4975491D01*
X35244771Y4975491D01*
X35282960Y4635032D01*
X35386550Y4308474D01*
X35551596Y4008257D01*
X35771811Y3745815D01*
X36038808Y3531144D01*
X36342416Y3372421D01*
X36671071Y3275693D01*
X37012255Y3244643D01*
X37352972Y3280454D01*
X37680245Y3381761D01*
X37981607Y3544707D01*
X38245580Y3763085D01*
X38462110Y4028576D01*
X38622948Y4331069D01*
X38721969Y4659041D01*
X38752996Y4975491D01*
X61244771Y4975491D01*
X61282960Y4635032D01*
X61386550Y4308474D01*
X61551596Y4008257D01*
X61771811Y3745815D01*
X62038808Y3531144D01*
X62342416Y3372421D01*
X62671071Y3275693D01*
X63012255Y3244643D01*
X63352972Y3280454D01*
X63680245Y3381761D01*
X63981607Y3544707D01*
X64245580Y3763085D01*
X64462110Y4028576D01*
X64622948Y4331069D01*
X64721969Y4659041D01*
X64755400Y5000000D01*
X64754716Y5049014D01*
X64711777Y5388906D01*
X64603638Y5713986D01*
X64434416Y6011869D01*
X64210558Y6271211D01*
X63940590Y6482133D01*
X63634796Y6636601D01*
X63304822Y6728732D01*
X62963238Y6755015D01*
X62623054Y6714451D01*
X62297227Y6608583D01*
X61998169Y6441445D01*
X61737271Y6219403D01*
X61524469Y5950915D01*
X61367870Y5646206D01*
X61273439Y5316883D01*
X61244771Y4975491D01*
X38752996Y4975491D01*
X38755400Y5000000D01*
X38754716Y5049014D01*
X38711777Y5388906D01*
X38603638Y5713986D01*
X38434416Y6011869D01*
X38210558Y6271211D01*
X37940590Y6482133D01*
X37634796Y6636601D01*
X37304822Y6728732D01*
X36963238Y6755015D01*
X36623054Y6714451D01*
X36297227Y6608583D01*
X35998169Y6441445D01*
X35737271Y6219403D01*
X35524469Y5950915D01*
X35367870Y5646206D01*
X35273439Y5316883D01*
X35244771Y4975491D01*
X32739180Y4975491D01*
X32735400Y5026964D01*
X32735400Y11614296D01*
X32765633Y11569049D01*
X32969049Y11365633D01*
X33208241Y11205811D01*
X33474017Y11095723D01*
X33756163Y11039600D01*
X34043837Y11039600D01*
X34325983Y11095723D01*
X34591759Y11205811D01*
X34830951Y11365633D01*
X35034367Y11569049D01*
X35194189Y11808241D01*
X35304277Y12074017D01*
X35360400Y12356163D01*
X35360400Y12643837D01*
X35839600Y12643837D01*
X35839600Y12356163D01*
X35895723Y12074017D01*
X36005811Y11808241D01*
X36165633Y11569049D01*
X36369049Y11365633D01*
X36608241Y11205811D01*
X36874017Y11095723D01*
X37156163Y11039600D01*
X37443837Y11039600D01*
X37725983Y11095723D01*
X37991759Y11205811D01*
X38230951Y11365633D01*
X38434367Y11569049D01*
X38594189Y11808241D01*
X38704277Y12074017D01*
X38760400Y12356163D01*
X38760400Y12643837D01*
X38704277Y12925983D01*
X38594189Y13191759D01*
X38434367Y13430951D01*
X38230951Y13634367D01*
X37991759Y13794189D01*
X37725983Y13904277D01*
X37443837Y13960400D01*
X37156163Y13960400D01*
X36874017Y13904277D01*
X36608241Y13794189D01*
X36369049Y13634367D01*
X36165633Y13430951D01*
X36005811Y13191759D01*
X35895723Y12925983D01*
X35839600Y12643837D01*
X35360400Y12643837D01*
X35304277Y12925983D01*
X35194189Y13191759D01*
X35034367Y13430951D01*
X34830951Y13634367D01*
X34591759Y13794189D01*
X34325983Y13904277D01*
X34043837Y13960400D01*
X33756163Y13960400D01*
X33474017Y13904277D01*
X33208241Y13794189D01*
X32969049Y13634367D01*
X32765633Y13430951D01*
X32735400Y13385704D01*
X32735400Y16463875D01*
X32738958Y16500000D01*
X32724759Y16644164D01*
X32711704Y16687201D01*
X34883281Y16687201D01*
X35034446Y16624586D01*
X35210333Y16589600D01*
X35389667Y16589600D01*
X35565554Y16624586D01*
X35731236Y16693214D01*
X35880346Y16792846D01*
X36007154Y16919654D01*
X36106786Y17068764D01*
X36175414Y17234446D01*
X36210400Y17410333D01*
X36210400Y17589667D01*
X36175414Y17765554D01*
X36106786Y17931236D01*
X36007154Y18080346D01*
X35880346Y18207154D01*
X35731236Y18306786D01*
X35565554Y18375414D01*
X35389667Y18410400D01*
X35210333Y18410400D01*
X35034446Y18375414D01*
X34883283Y18312800D01*
X21099929Y18312798D01*
X21059998Y18316731D01*
X20900662Y18301037D01*
X20747449Y18254560D01*
X20606246Y18179087D01*
X20554641Y18136735D01*
X20546288Y18139269D01*
X20331742Y18160400D01*
X20188258Y18160400D01*
X19973712Y18139269D01*
X19698425Y18055762D01*
X19444720Y17920153D01*
X19222345Y17737655D01*
X19039847Y17515280D01*
X18904238Y17261575D01*
X18820731Y16986288D01*
X18792534Y16700000D01*
X18820731Y16413712D01*
X18904238Y16138425D01*
X19039847Y15884720D01*
X19222345Y15662345D01*
X19444720Y15479847D01*
X19698425Y15344238D01*
X19973712Y15260731D01*
X20188258Y15239600D01*
X20331742Y15239600D01*
X20546288Y15260731D01*
X20821575Y15344238D01*
X21075280Y15479847D01*
X21297655Y15662345D01*
X21480153Y15884720D01*
X21615762Y16138425D01*
X21699269Y16413712D01*
X21726205Y16687199D01*
X24487874Y16687199D01*
X18251936Y14192824D01*
X17150400Y13843385D01*
X16033017Y13640311D01*
X14898885Y13580863D01*
X13766408Y13666005D01*
X12653911Y13894358D01*
X11579461Y14262213D01*
X10560450Y14763617D01*
X9791956Y15272263D01*
X9956163Y15239600D01*
X10243837Y15239600D01*
X10525983Y15295723D01*
X10791759Y15405811D01*
X11030951Y15565633D01*
X11234367Y15769049D01*
X11394189Y16008241D01*
X11504277Y16274017D01*
X11560400Y16556163D01*
X11560400Y16843837D01*
X11504277Y17125983D01*
X11394189Y17391759D01*
X11234367Y17630951D01*
X11030951Y17834367D01*
X10791759Y17994189D01*
X10525983Y18104277D01*
X10243837Y18160400D01*
X9956163Y18160400D01*
X9674017Y18104277D01*
X9408241Y17994189D01*
X9169049Y17834367D01*
X8965633Y17630951D01*
X8805811Y17391759D01*
X8695723Y17125983D01*
X8639600Y16843837D01*
X8639600Y16556163D01*
X8695723Y16274017D01*
X8754694Y16131649D01*
X8753706Y16132502D01*
X7995250Y16977800D01*
X7350351Y17912618D01*
X6829462Y18921799D01*
X6441026Y19988990D01*
X6402474Y20160053D01*
X12883737Y20160053D01*
X12951711Y19905924D01*
X13209373Y19777992D01*
X13487042Y19702786D01*
X13774049Y19683195D01*
X14059362Y19719973D01*
X14332018Y19811706D01*
X14508289Y19905924D01*
X14576263Y20160053D01*
X13730000Y21006316D01*
X12883737Y20160053D01*
X6402474Y20160053D01*
X6191341Y21096885D01*
X6190484Y21105951D01*
X12263195Y21105951D01*
X12299973Y20820638D01*
X12391706Y20547982D01*
X12485924Y20371711D01*
X12740053Y20303737D01*
X13586316Y21150000D01*
X12740053Y21996263D01*
X12485924Y21928289D01*
X12357992Y21670627D01*
X12282786Y21392958D01*
X12263195Y21105951D01*
X6190484Y21105951D01*
X6084454Y22227529D01*
X6122097Y23362586D01*
X6303662Y24483660D01*
X6382553Y24750000D01*
X12266405Y24750000D01*
X12266405Y23150000D01*
X12279156Y23020539D01*
X12316918Y22896053D01*
X12378241Y22781326D01*
X12460767Y22680767D01*
X12561326Y22598241D01*
X12676053Y22536918D01*
X12800539Y22499156D01*
X12930000Y22486405D01*
X13124448Y22486405D01*
X12951711Y22394076D01*
X12883737Y22139947D01*
X13730000Y21293684D01*
X14576263Y22139947D01*
X14508289Y22394076D01*
X14322333Y22486405D01*
X14530000Y22486405D01*
X14659461Y22499156D01*
X14783947Y22536918D01*
X14898674Y22598241D01*
X14999233Y22680767D01*
X15081759Y22781326D01*
X15143082Y22896053D01*
X15169975Y22984707D01*
X15339049Y22815633D01*
X15578241Y22655811D01*
X15833691Y22550000D01*
X15578241Y22444189D01*
X15339049Y22284367D01*
X15135633Y22080951D01*
X15000543Y21878773D01*
X14974076Y21928289D01*
X14719947Y21996263D01*
X13873684Y21150000D01*
X14719947Y20303737D01*
X14974076Y20371711D01*
X14999463Y20422843D01*
X15135633Y20219049D01*
X15339049Y20015633D01*
X15578241Y19855811D01*
X15844017Y19745723D01*
X16126163Y19689600D01*
X16413837Y19689600D01*
X16695983Y19745723D01*
X16961759Y19855811D01*
X17200951Y20015633D01*
X17404367Y20219049D01*
X17487747Y20343837D01*
X18979600Y20343837D01*
X18979600Y20056163D01*
X19035723Y19774017D01*
X19145811Y19508241D01*
X19305633Y19269049D01*
X19509049Y19065633D01*
X19748241Y18905811D01*
X20014017Y18795723D01*
X20296163Y18739600D01*
X20583837Y18739600D01*
X20865983Y18795723D01*
X21131759Y18905811D01*
X21370951Y19065633D01*
X21574367Y19269049D01*
X21734189Y19508241D01*
X21844277Y19774017D01*
X21900400Y20056163D01*
X21900400Y20343837D01*
X21844277Y20625983D01*
X21734189Y20891759D01*
X21574367Y21130951D01*
X21370951Y21334367D01*
X21131759Y21494189D01*
X20865983Y21604277D01*
X20583837Y21660400D01*
X20296163Y21660400D01*
X20014017Y21604277D01*
X19748241Y21494189D01*
X19509049Y21334367D01*
X19305633Y21130951D01*
X19145811Y20891759D01*
X19035723Y20625983D01*
X18979600Y20343837D01*
X17487747Y20343837D01*
X17564189Y20458241D01*
X17674277Y20724017D01*
X17730400Y21006163D01*
X17730400Y21293837D01*
X17674277Y21575983D01*
X17564189Y21841759D01*
X17404367Y22080951D01*
X17200951Y22284367D01*
X16961759Y22444189D01*
X16706309Y22550000D01*
X16961759Y22655811D01*
X16968028Y22660000D01*
X32432534Y22660000D01*
X32460731Y22373712D01*
X32544238Y22098425D01*
X32679847Y21844720D01*
X32862345Y21622345D01*
X33084720Y21439847D01*
X33338425Y21304238D01*
X33613712Y21220731D01*
X33828258Y21199600D01*
X33971742Y21199600D01*
X34186288Y21220731D01*
X34461575Y21304238D01*
X34715280Y21439847D01*
X34937655Y21622345D01*
X35120153Y21844720D01*
X35255762Y22098425D01*
X35339269Y22373712D01*
X35367466Y22660000D01*
X35339269Y22946288D01*
X35255762Y23221575D01*
X35120153Y23475280D01*
X34937655Y23697655D01*
X34715280Y23880153D01*
X34461575Y24015762D01*
X34186288Y24099269D01*
X33971742Y24120400D01*
X33828258Y24120400D01*
X33613712Y24099269D01*
X33338425Y24015762D01*
X33084720Y23880153D01*
X32862345Y23697655D01*
X32679847Y23475280D01*
X32544238Y23221575D01*
X32460731Y22946288D01*
X32432534Y22660000D01*
X16968028Y22660000D01*
X17200951Y22815633D01*
X17404367Y23019049D01*
X17564189Y23258241D01*
X17614645Y23380053D01*
X22883737Y23380053D01*
X22951711Y23125924D01*
X23209373Y22997992D01*
X23487042Y22922786D01*
X23774049Y22903195D01*
X24059362Y22939973D01*
X24332018Y23031706D01*
X24508289Y23125924D01*
X24576263Y23380053D01*
X23730000Y24226316D01*
X22883737Y23380053D01*
X17614645Y23380053D01*
X17674277Y23524017D01*
X17730400Y23806163D01*
X17730400Y24093837D01*
X17684230Y24325951D01*
X22263195Y24325951D01*
X22299973Y24040638D01*
X22391706Y23767982D01*
X22485924Y23591711D01*
X22740053Y23523737D01*
X23586316Y24370000D01*
X23873684Y24370000D01*
X24719947Y23523737D01*
X24974076Y23591711D01*
X24999463Y23642843D01*
X25135633Y23439049D01*
X25339049Y23235633D01*
X25578241Y23075811D01*
X25844017Y22965723D01*
X26126163Y22909600D01*
X26413837Y22909600D01*
X26695983Y22965723D01*
X26961759Y23075811D01*
X27200951Y23235633D01*
X27404367Y23439049D01*
X27564189Y23678241D01*
X27674277Y23944017D01*
X27730400Y24226163D01*
X27730400Y24513837D01*
X27674277Y24795983D01*
X27564189Y25061759D01*
X27404367Y25300951D01*
X27245265Y25460053D01*
X32883737Y25460053D01*
X32951711Y25205924D01*
X33209373Y25077992D01*
X33487042Y25002786D01*
X33774049Y24983195D01*
X34059362Y25019973D01*
X34332018Y25111706D01*
X34508289Y25205924D01*
X34576263Y25460053D01*
X33730000Y26306316D01*
X32883737Y25460053D01*
X27245265Y25460053D01*
X27200951Y25504367D01*
X26961759Y25664189D01*
X26698376Y25773286D01*
X26872018Y25831706D01*
X27048289Y25925924D01*
X27116263Y26180053D01*
X26270000Y27026316D01*
X25423737Y26180053D01*
X25491711Y25925924D01*
X25749373Y25797992D01*
X25841216Y25773117D01*
X25578241Y25664189D01*
X25339049Y25504367D01*
X25135633Y25300951D01*
X25000543Y25098773D01*
X24974076Y25148289D01*
X24719947Y25216263D01*
X23873684Y24370000D01*
X23586316Y24370000D01*
X22740053Y25216263D01*
X22485924Y25148289D01*
X22357992Y24890627D01*
X22282786Y24612958D01*
X22263195Y24325951D01*
X17684230Y24325951D01*
X17674277Y24375983D01*
X17564189Y24641759D01*
X17404367Y24880951D01*
X17200951Y25084367D01*
X16961759Y25244189D01*
X16695983Y25354277D01*
X16413837Y25410400D01*
X16126163Y25410400D01*
X15844017Y25354277D01*
X15578241Y25244189D01*
X15339049Y25084367D01*
X15169975Y24915293D01*
X15143082Y25003947D01*
X15081759Y25118674D01*
X14999233Y25219233D01*
X14898674Y25301759D01*
X14783947Y25363082D01*
X14659461Y25400844D01*
X14530000Y25413595D01*
X12930000Y25413595D01*
X12800539Y25400844D01*
X12676053Y25363082D01*
X12561326Y25301759D01*
X12460767Y25219233D01*
X12378241Y25118674D01*
X12316918Y25003947D01*
X12279156Y24879461D01*
X12266405Y24750000D01*
X6382553Y24750000D01*
X6626204Y25572578D01*
X7084496Y26611691D01*
X7671103Y27584141D01*
X8179600Y28225716D01*
X8179600Y27956163D01*
X8235723Y27674017D01*
X8345811Y27408241D01*
X8505633Y27169049D01*
X8709049Y26965633D01*
X8948241Y26805811D01*
X9214017Y26695723D01*
X9496163Y26639600D01*
X9783837Y26639600D01*
X10065983Y26695723D01*
X10331759Y26805811D01*
X10570951Y26965633D01*
X10774367Y27169049D01*
X10934189Y27408241D01*
X11044277Y27674017D01*
X11100400Y27956163D01*
X11100400Y28100000D01*
X18332534Y28100000D01*
X18360731Y27813712D01*
X18444238Y27538425D01*
X18579847Y27284720D01*
X18762345Y27062345D01*
X18984720Y26879847D01*
X19238425Y26744238D01*
X19513712Y26660731D01*
X19728258Y26639600D01*
X19871742Y26639600D01*
X20086288Y26660731D01*
X20361575Y26744238D01*
X20615280Y26879847D01*
X20837655Y27062345D01*
X21020153Y27284720D01*
X21155762Y27538425D01*
X21239269Y27813712D01*
X21254662Y27970000D01*
X22266405Y27970000D01*
X22266405Y26370000D01*
X22279156Y26240539D01*
X22316918Y26116053D01*
X22378241Y26001326D01*
X22460767Y25900767D01*
X22561326Y25818241D01*
X22676053Y25756918D01*
X22800539Y25719156D01*
X22930000Y25706405D01*
X23124448Y25706405D01*
X22951711Y25614076D01*
X22883737Y25359947D01*
X23730000Y24513684D01*
X24576263Y25359947D01*
X24508289Y25614076D01*
X24322333Y25706405D01*
X24530000Y25706405D01*
X24659461Y25719156D01*
X24783947Y25756918D01*
X24898674Y25818241D01*
X24999233Y25900767D01*
X25081759Y26001326D01*
X25143082Y26116053D01*
X25180844Y26240539D01*
X25191375Y26347457D01*
X25280053Y26323737D01*
X26126316Y27170000D01*
X26413684Y27170000D01*
X27259947Y26323737D01*
X27514076Y26391711D01*
X27521146Y26405951D01*
X32263195Y26405951D01*
X32299973Y26120638D01*
X32391706Y25847982D01*
X32485924Y25671711D01*
X32740053Y25603737D01*
X33586316Y26450000D01*
X32740053Y27296263D01*
X32485924Y27228289D01*
X32357992Y26970627D01*
X32282786Y26692958D01*
X32263195Y26405951D01*
X27521146Y26405951D01*
X27642008Y26649373D01*
X27717214Y26927042D01*
X27736805Y27214049D01*
X27700027Y27499362D01*
X27608294Y27772018D01*
X27514076Y27948289D01*
X27259947Y28016263D01*
X26413684Y27170000D01*
X26126316Y27170000D01*
X25280053Y28016263D01*
X25191375Y27992543D01*
X25180844Y28099461D01*
X25162496Y28159947D01*
X25423737Y28159947D01*
X26270000Y27313684D01*
X27116263Y28159947D01*
X27048289Y28414076D01*
X26790627Y28542008D01*
X26512958Y28617214D01*
X26225951Y28636805D01*
X25940638Y28600027D01*
X25667982Y28508294D01*
X25491711Y28414076D01*
X25423737Y28159947D01*
X25162496Y28159947D01*
X25143082Y28223947D01*
X25081759Y28338674D01*
X24999233Y28439233D01*
X24898674Y28521759D01*
X24783947Y28583082D01*
X24659461Y28620844D01*
X24530000Y28633595D01*
X22930000Y28633595D01*
X22800539Y28620844D01*
X22676053Y28583082D01*
X22561326Y28521759D01*
X22460767Y28439233D01*
X22378241Y28338674D01*
X22316918Y28223947D01*
X22279156Y28099461D01*
X22266405Y27970000D01*
X21254662Y27970000D01*
X21267466Y28100000D01*
X21239269Y28386288D01*
X21155762Y28661575D01*
X21020153Y28915280D01*
X20837655Y29137655D01*
X20615280Y29320153D01*
X20361575Y29455762D01*
X20086288Y29539269D01*
X19871742Y29560400D01*
X19728258Y29560400D01*
X19513712Y29539269D01*
X19238425Y29455762D01*
X18984720Y29320153D01*
X18762345Y29137655D01*
X18579847Y28915280D01*
X18444238Y28661575D01*
X18360731Y28386288D01*
X18332534Y28100000D01*
X11100400Y28100000D01*
X11100400Y28243837D01*
X11044277Y28525983D01*
X10934189Y28791759D01*
X10774367Y29030951D01*
X10570951Y29234367D01*
X10331759Y29394189D01*
X10065983Y29504277D01*
X9783837Y29560400D01*
X9578187Y29560400D01*
X10096311Y29950842D01*
X10270150Y30050000D01*
X32266405Y30050000D01*
X32266405Y28450000D01*
X32279156Y28320539D01*
X32316918Y28196053D01*
X32378241Y28081326D01*
X32460767Y27980767D01*
X32561326Y27898241D01*
X32676053Y27836918D01*
X32800539Y27799156D01*
X32930000Y27786405D01*
X33124448Y27786405D01*
X32951711Y27694076D01*
X32883737Y27439947D01*
X33730000Y26593684D01*
X34576263Y27439947D01*
X34508289Y27694076D01*
X34322333Y27786405D01*
X34530000Y27786405D01*
X34659461Y27799156D01*
X34783947Y27836918D01*
X34898674Y27898241D01*
X34999233Y27980767D01*
X35081759Y28081326D01*
X35143082Y28196053D01*
X35169975Y28284707D01*
X35339049Y28115633D01*
X35578241Y27955811D01*
X35833691Y27850000D01*
X35578241Y27744189D01*
X35339049Y27584367D01*
X35135633Y27380951D01*
X35000543Y27178773D01*
X34974076Y27228289D01*
X34719947Y27296263D01*
X33873684Y26450000D01*
X34719947Y25603737D01*
X34974076Y25671711D01*
X34999463Y25722843D01*
X35135633Y25519049D01*
X35339049Y25315633D01*
X35578241Y25155811D01*
X35844017Y25045723D01*
X36126163Y24989600D01*
X36413837Y24989600D01*
X36695983Y25045723D01*
X36961759Y25155811D01*
X37200951Y25315633D01*
X37404367Y25519049D01*
X37564189Y25758241D01*
X37674277Y26024017D01*
X37730400Y26306163D01*
X37730400Y26510053D01*
X42853737Y26510053D01*
X42921711Y26255924D01*
X43179373Y26127992D01*
X43457042Y26052786D01*
X43744049Y26033195D01*
X44029362Y26069973D01*
X44302018Y26161706D01*
X44478289Y26255924D01*
X44546263Y26510053D01*
X43700000Y27356316D01*
X42853737Y26510053D01*
X37730400Y26510053D01*
X37730400Y26593837D01*
X37674277Y26875983D01*
X37564189Y27141759D01*
X37404367Y27380951D01*
X37329367Y27455951D01*
X42233195Y27455951D01*
X42269973Y27170638D01*
X42361706Y26897982D01*
X42455924Y26721711D01*
X42710053Y26653737D01*
X43556316Y27500000D01*
X43843684Y27500000D01*
X44689947Y26653737D01*
X44944076Y26721711D01*
X44969463Y26772843D01*
X45105633Y26569049D01*
X45309049Y26365633D01*
X45548241Y26205811D01*
X45814017Y26095723D01*
X46096163Y26039600D01*
X46383837Y26039600D01*
X46665983Y26095723D01*
X46931759Y26205811D01*
X47170951Y26365633D01*
X47315371Y26510053D01*
X52883737Y26510053D01*
X52951711Y26255924D01*
X53209373Y26127992D01*
X53487042Y26052786D01*
X53774049Y26033195D01*
X54059362Y26069973D01*
X54332018Y26161706D01*
X54508289Y26255924D01*
X54576263Y26510053D01*
X53730000Y27356316D01*
X52883737Y26510053D01*
X47315371Y26510053D01*
X47374367Y26569049D01*
X47534189Y26808241D01*
X47644277Y27074017D01*
X47700400Y27356163D01*
X47700400Y27455951D01*
X52263195Y27455951D01*
X52299973Y27170638D01*
X52391706Y26897982D01*
X52485924Y26721711D01*
X52740053Y26653737D01*
X53586316Y27500000D01*
X52740053Y28346263D01*
X52485924Y28278289D01*
X52357992Y28020627D01*
X52282786Y27742958D01*
X52263195Y27455951D01*
X47700400Y27455951D01*
X47700400Y27643837D01*
X47644277Y27925983D01*
X47534189Y28191759D01*
X47374367Y28430951D01*
X47170951Y28634367D01*
X46931759Y28794189D01*
X46668376Y28903286D01*
X46842018Y28961706D01*
X47018289Y29055924D01*
X47086263Y29310053D01*
X46240000Y30156316D01*
X45393737Y29310053D01*
X45461711Y29055924D01*
X45719373Y28927992D01*
X45811216Y28903117D01*
X45548241Y28794189D01*
X45309049Y28634367D01*
X45105633Y28430951D01*
X44970543Y28228773D01*
X44944076Y28278289D01*
X44689947Y28346263D01*
X43843684Y27500000D01*
X43556316Y27500000D01*
X42710053Y28346263D01*
X42455924Y28278289D01*
X42327992Y28020627D01*
X42252786Y27742958D01*
X42233195Y27455951D01*
X37329367Y27455951D01*
X37200951Y27584367D01*
X36961759Y27744189D01*
X36706309Y27850000D01*
X36961759Y27955811D01*
X37200951Y28115633D01*
X37404367Y28319049D01*
X37564189Y28558241D01*
X37674277Y28824017D01*
X37730400Y29106163D01*
X37730400Y29393837D01*
X37674277Y29675983D01*
X37564189Y29941759D01*
X37404367Y30180951D01*
X37200951Y30384367D01*
X36961759Y30544189D01*
X36695983Y30654277D01*
X36413837Y30710400D01*
X36126163Y30710400D01*
X35844017Y30654277D01*
X35578241Y30544189D01*
X35339049Y30384367D01*
X35169975Y30215293D01*
X35143082Y30303947D01*
X35081759Y30418674D01*
X34999233Y30519233D01*
X34898674Y30601759D01*
X34783947Y30663082D01*
X34659461Y30700844D01*
X34530000Y30713595D01*
X32930000Y30713595D01*
X32800539Y30700844D01*
X32676053Y30663082D01*
X32561326Y30601759D01*
X32460767Y30519233D01*
X32378241Y30418674D01*
X32316918Y30303947D01*
X32279156Y30179461D01*
X32266405Y30050000D01*
X10270150Y30050000D01*
X11089782Y30517519D01*
X11772171Y30816364D01*
X12561458Y31100000D01*
X42236405Y31100000D01*
X42236405Y29500000D01*
X42249156Y29370539D01*
X42286918Y29246053D01*
X42348241Y29131326D01*
X42430767Y29030767D01*
X42531326Y28948241D01*
X42646053Y28886918D01*
X42770539Y28849156D01*
X42900000Y28836405D01*
X43094448Y28836405D01*
X42921711Y28744076D01*
X42853737Y28489947D01*
X43700000Y27643684D01*
X44546263Y28489947D01*
X44478289Y28744076D01*
X44292333Y28836405D01*
X44500000Y28836405D01*
X44629461Y28849156D01*
X44753947Y28886918D01*
X44868674Y28948241D01*
X44969233Y29030767D01*
X45051759Y29131326D01*
X45113082Y29246053D01*
X45150844Y29370539D01*
X45161375Y29477457D01*
X45250053Y29453737D01*
X46096316Y30300000D01*
X46383684Y30300000D01*
X47229947Y29453737D01*
X47484076Y29521711D01*
X47612008Y29779373D01*
X47687214Y30057042D01*
X47706805Y30344049D01*
X47670027Y30629362D01*
X47578294Y30902018D01*
X47484076Y31078289D01*
X47402907Y31100000D01*
X52266405Y31100000D01*
X52266405Y29500000D01*
X52279156Y29370539D01*
X52316918Y29246053D01*
X52378241Y29131326D01*
X52460767Y29030767D01*
X52561326Y28948241D01*
X52676053Y28886918D01*
X52800539Y28849156D01*
X52930000Y28836405D01*
X53124448Y28836405D01*
X52951711Y28744076D01*
X52883737Y28489947D01*
X53730000Y27643684D01*
X54576263Y28489947D01*
X54508289Y28744076D01*
X54322333Y28836405D01*
X54530000Y28836405D01*
X54659461Y28849156D01*
X54783947Y28886918D01*
X54898674Y28948241D01*
X54999233Y29030767D01*
X55081759Y29131326D01*
X55143082Y29246053D01*
X55169975Y29334707D01*
X55339049Y29165633D01*
X55578241Y29005811D01*
X55833691Y28900000D01*
X55578241Y28794189D01*
X55339049Y28634367D01*
X55135633Y28430951D01*
X55000543Y28228773D01*
X54974076Y28278289D01*
X54719947Y28346263D01*
X53873684Y27500000D01*
X54719947Y26653737D01*
X54974076Y26721711D01*
X54999463Y26772843D01*
X55135633Y26569049D01*
X55339049Y26365633D01*
X55578241Y26205811D01*
X55844017Y26095723D01*
X56126163Y26039600D01*
X56413837Y26039600D01*
X56695983Y26095723D01*
X56961759Y26205811D01*
X57200951Y26365633D01*
X57241269Y26405951D01*
X62263195Y26405951D01*
X62299973Y26120638D01*
X62391706Y25847982D01*
X62485924Y25671711D01*
X62740053Y25603737D01*
X63586316Y26450000D01*
X63873684Y26450000D01*
X64719947Y25603737D01*
X64974076Y25671711D01*
X64999463Y25722843D01*
X65135633Y25519049D01*
X65339049Y25315633D01*
X65578241Y25155811D01*
X65844017Y25045723D01*
X66126163Y24989600D01*
X66413837Y24989600D01*
X66695983Y25045723D01*
X66961759Y25155811D01*
X67200951Y25315633D01*
X67404367Y25519049D01*
X67564189Y25758241D01*
X67674277Y26024017D01*
X67730400Y26306163D01*
X67730400Y26593837D01*
X67674277Y26875983D01*
X67564189Y27141759D01*
X67404367Y27380951D01*
X67200951Y27584367D01*
X66961759Y27744189D01*
X66698376Y27853286D01*
X66872018Y27911706D01*
X66981079Y27970000D01*
X72266405Y27970000D01*
X72266405Y26370000D01*
X72279156Y26240539D01*
X72316918Y26116053D01*
X72378241Y26001326D01*
X72460767Y25900767D01*
X72561326Y25818241D01*
X72676053Y25756918D01*
X72800539Y25719156D01*
X72930000Y25706405D01*
X73124448Y25706405D01*
X72951711Y25614076D01*
X72883737Y25359947D01*
X73730000Y24513684D01*
X74576263Y25359947D01*
X74508289Y25614076D01*
X74322333Y25706405D01*
X74530000Y25706405D01*
X74659461Y25719156D01*
X74783947Y25756918D01*
X74898674Y25818241D01*
X74999233Y25900767D01*
X75081759Y26001326D01*
X75143082Y26116053D01*
X75169975Y26204707D01*
X75339049Y26035633D01*
X75578241Y25875811D01*
X75833691Y25770000D01*
X75578241Y25664189D01*
X75339049Y25504367D01*
X75135633Y25300951D01*
X75000543Y25098773D01*
X74974076Y25148289D01*
X74719947Y25216263D01*
X73873684Y24370000D01*
X74719947Y23523737D01*
X74974076Y23591711D01*
X74999463Y23642843D01*
X75135633Y23439049D01*
X75339049Y23235633D01*
X75578241Y23075811D01*
X75844017Y22965723D01*
X76126163Y22909600D01*
X76413837Y22909600D01*
X76695983Y22965723D01*
X76961759Y23075811D01*
X77200951Y23235633D01*
X77404367Y23439049D01*
X77564189Y23678241D01*
X77674277Y23944017D01*
X77730400Y24226163D01*
X77730400Y24513837D01*
X77683424Y24750000D01*
X82266405Y24750000D01*
X82266405Y23150000D01*
X82279156Y23020539D01*
X82316918Y22896053D01*
X82378241Y22781326D01*
X82460767Y22680767D01*
X82561326Y22598241D01*
X82676053Y22536918D01*
X82800539Y22499156D01*
X82930000Y22486405D01*
X83124448Y22486405D01*
X82951711Y22394076D01*
X82883737Y22139947D01*
X83730000Y21293684D01*
X84576263Y22139947D01*
X84508289Y22394076D01*
X84322333Y22486405D01*
X84530000Y22486405D01*
X84659461Y22499156D01*
X84783947Y22536918D01*
X84898674Y22598241D01*
X84999233Y22680767D01*
X85081759Y22781326D01*
X85143082Y22896053D01*
X85180844Y23020539D01*
X85191375Y23127457D01*
X85280053Y23103737D01*
X86126316Y23950000D01*
X86413684Y23950000D01*
X87259947Y23103737D01*
X87514076Y23171711D01*
X87642008Y23429373D01*
X87717214Y23707042D01*
X87736805Y23994049D01*
X87700027Y24279362D01*
X87608294Y24552018D01*
X87514076Y24728289D01*
X87259947Y24796263D01*
X86413684Y23950000D01*
X86126316Y23950000D01*
X85280053Y24796263D01*
X85191375Y24772543D01*
X85180844Y24879461D01*
X85162496Y24939947D01*
X85423737Y24939947D01*
X86270000Y24093684D01*
X87116263Y24939947D01*
X87048289Y25194076D01*
X86790627Y25322008D01*
X86512958Y25397214D01*
X86225951Y25416805D01*
X85940638Y25380027D01*
X85667982Y25288294D01*
X85491711Y25194076D01*
X85423737Y24939947D01*
X85162496Y24939947D01*
X85143082Y25003947D01*
X85081759Y25118674D01*
X84999233Y25219233D01*
X84898674Y25301759D01*
X84783947Y25363082D01*
X84659461Y25400844D01*
X84530000Y25413595D01*
X82930000Y25413595D01*
X82800539Y25400844D01*
X82676053Y25363082D01*
X82561326Y25301759D01*
X82460767Y25219233D01*
X82378241Y25118674D01*
X82316918Y25003947D01*
X82279156Y24879461D01*
X82266405Y24750000D01*
X77683424Y24750000D01*
X77674277Y24795983D01*
X77564189Y25061759D01*
X77404367Y25300951D01*
X77200951Y25504367D01*
X76961759Y25664189D01*
X76706309Y25770000D01*
X76961759Y25875811D01*
X77200951Y26035633D01*
X77404367Y26239049D01*
X77564189Y26478241D01*
X77674277Y26744017D01*
X77730400Y27026163D01*
X77730400Y27313837D01*
X77674277Y27595983D01*
X77564189Y27861759D01*
X77404367Y28100951D01*
X77261481Y28243837D01*
X78639600Y28243837D01*
X78639600Y27956163D01*
X78695723Y27674017D01*
X78805811Y27408241D01*
X78965633Y27169049D01*
X79169049Y26965633D01*
X79408241Y26805811D01*
X79674017Y26695723D01*
X79956163Y26639600D01*
X80243837Y26639600D01*
X80525983Y26695723D01*
X80791759Y26805811D01*
X81030951Y26965633D01*
X81234367Y27169049D01*
X81394189Y27408241D01*
X81504277Y27674017D01*
X81560400Y27956163D01*
X81560400Y28243837D01*
X81504277Y28525983D01*
X81394189Y28791759D01*
X81234367Y29030951D01*
X81030951Y29234367D01*
X80791759Y29394189D01*
X80525983Y29504277D01*
X80243837Y29560400D01*
X79956163Y29560400D01*
X79674017Y29504277D01*
X79408241Y29394189D01*
X79169049Y29234367D01*
X78965633Y29030951D01*
X78805811Y28791759D01*
X78695723Y28525983D01*
X78639600Y28243837D01*
X77261481Y28243837D01*
X77200951Y28304367D01*
X76961759Y28464189D01*
X76695983Y28574277D01*
X76413837Y28630400D01*
X76126163Y28630400D01*
X75844017Y28574277D01*
X75578241Y28464189D01*
X75339049Y28304367D01*
X75169975Y28135293D01*
X75143082Y28223947D01*
X75081759Y28338674D01*
X74999233Y28439233D01*
X74898674Y28521759D01*
X74783947Y28583082D01*
X74659461Y28620844D01*
X74530000Y28633595D01*
X72930000Y28633595D01*
X72800539Y28620844D01*
X72676053Y28583082D01*
X72561326Y28521759D01*
X72460767Y28439233D01*
X72378241Y28338674D01*
X72316918Y28223947D01*
X72279156Y28099461D01*
X72266405Y27970000D01*
X66981079Y27970000D01*
X67048289Y28005924D01*
X67116263Y28260053D01*
X66270000Y29106316D01*
X65423737Y28260053D01*
X65491711Y28005924D01*
X65749373Y27877992D01*
X65841216Y27853117D01*
X65578241Y27744189D01*
X65339049Y27584367D01*
X65135633Y27380951D01*
X65000543Y27178773D01*
X64974076Y27228289D01*
X64719947Y27296263D01*
X63873684Y26450000D01*
X63586316Y26450000D01*
X62740053Y27296263D01*
X62485924Y27228289D01*
X62357992Y26970627D01*
X62282786Y26692958D01*
X62263195Y26405951D01*
X57241269Y26405951D01*
X57404367Y26569049D01*
X57564189Y26808241D01*
X57674277Y27074017D01*
X57730400Y27356163D01*
X57730400Y27643837D01*
X57674277Y27925983D01*
X57564189Y28191759D01*
X57404367Y28430951D01*
X57200951Y28634367D01*
X56961759Y28794189D01*
X56706309Y28900000D01*
X56961759Y29005811D01*
X57200951Y29165633D01*
X57404367Y29369049D01*
X57564189Y29608241D01*
X57674277Y29874017D01*
X57709282Y30050000D01*
X62266405Y30050000D01*
X62266405Y28450000D01*
X62279156Y28320539D01*
X62316918Y28196053D01*
X62378241Y28081326D01*
X62460767Y27980767D01*
X62561326Y27898241D01*
X62676053Y27836918D01*
X62800539Y27799156D01*
X62930000Y27786405D01*
X63124448Y27786405D01*
X62951711Y27694076D01*
X62883737Y27439947D01*
X63730000Y26593684D01*
X64576263Y27439947D01*
X64508289Y27694076D01*
X64322333Y27786405D01*
X64530000Y27786405D01*
X64659461Y27799156D01*
X64783947Y27836918D01*
X64898674Y27898241D01*
X64999233Y27980767D01*
X65081759Y28081326D01*
X65143082Y28196053D01*
X65180844Y28320539D01*
X65191375Y28427457D01*
X65280053Y28403737D01*
X66126316Y29250000D01*
X66413684Y29250000D01*
X67259947Y28403737D01*
X67514076Y28471711D01*
X67642008Y28729373D01*
X67717214Y29007042D01*
X67736805Y29294049D01*
X67700027Y29579362D01*
X67608294Y29852018D01*
X67514076Y30028289D01*
X67259947Y30096263D01*
X66413684Y29250000D01*
X66126316Y29250000D01*
X65280053Y30096263D01*
X65191375Y30072543D01*
X65180844Y30179461D01*
X65162496Y30239947D01*
X65423737Y30239947D01*
X66270000Y29393684D01*
X67116263Y30239947D01*
X67048289Y30494076D01*
X66790627Y30622008D01*
X66512958Y30697214D01*
X66225951Y30716805D01*
X65940638Y30680027D01*
X65667982Y30588294D01*
X65491711Y30494076D01*
X65423737Y30239947D01*
X65162496Y30239947D01*
X65143082Y30303947D01*
X65081759Y30418674D01*
X64999233Y30519233D01*
X64898674Y30601759D01*
X64783947Y30663082D01*
X64659461Y30700844D01*
X64530000Y30713595D01*
X62930000Y30713595D01*
X62800539Y30700844D01*
X62676053Y30663082D01*
X62561326Y30601759D01*
X62460767Y30519233D01*
X62378241Y30418674D01*
X62316918Y30303947D01*
X62279156Y30179461D01*
X62266405Y30050000D01*
X57709282Y30050000D01*
X57730400Y30156163D01*
X57730400Y30443837D01*
X57674277Y30725983D01*
X57564189Y30991759D01*
X57404367Y31230951D01*
X57200951Y31434367D01*
X56961759Y31594189D01*
X56695983Y31704277D01*
X56413837Y31760400D01*
X56126163Y31760400D01*
X55844017Y31704277D01*
X55578241Y31594189D01*
X55339049Y31434367D01*
X55169975Y31265293D01*
X55143082Y31353947D01*
X55081759Y31468674D01*
X54999233Y31569233D01*
X54898674Y31651759D01*
X54783947Y31713082D01*
X54659461Y31750844D01*
X54530000Y31763595D01*
X52930000Y31763595D01*
X52800539Y31750844D01*
X52676053Y31713082D01*
X52561326Y31651759D01*
X52460767Y31569233D01*
X52378241Y31468674D01*
X52316918Y31353947D01*
X52279156Y31229461D01*
X52266405Y31100000D01*
X47402907Y31100000D01*
X47229947Y31146263D01*
X46383684Y30300000D01*
X46096316Y30300000D01*
X45250053Y31146263D01*
X45161375Y31122543D01*
X45150844Y31229461D01*
X45132496Y31289947D01*
X45393737Y31289947D01*
X46240000Y30443684D01*
X47086263Y31289947D01*
X47018289Y31544076D01*
X46760627Y31672008D01*
X46482958Y31747214D01*
X46195951Y31766805D01*
X45910638Y31730027D01*
X45637982Y31638294D01*
X45461711Y31544076D01*
X45393737Y31289947D01*
X45132496Y31289947D01*
X45113082Y31353947D01*
X45051759Y31468674D01*
X44969233Y31569233D01*
X44868674Y31651759D01*
X44753947Y31713082D01*
X44629461Y31750844D01*
X44500000Y31763595D01*
X42900000Y31763595D01*
X42770539Y31750844D01*
X42646053Y31713082D01*
X42531326Y31651759D01*
X42430767Y31569233D01*
X42348241Y31468674D01*
X42286918Y31353947D01*
X42249156Y31229461D01*
X42236405Y31100000D01*
X12561458Y31100000D01*
X15640954Y32206638D01*
X18069645Y32975491D01*
X26744771Y32975491D01*
X26782960Y32635032D01*
X26886550Y32308474D01*
X27051596Y32008257D01*
X27271811Y31745815D01*
X27538808Y31531144D01*
X27842416Y31372421D01*
X28171071Y31275693D01*
X28512255Y31244643D01*
X28852972Y31280454D01*
X29180245Y31381761D01*
X29481607Y31544707D01*
X29745580Y31763085D01*
X29962110Y32028576D01*
X30122948Y32331069D01*
X30221969Y32659041D01*
X30252996Y32975491D01*
X69744771Y32975491D01*
X69782960Y32635032D01*
X69886550Y32308474D01*
X70051596Y32008257D01*
X70271811Y31745815D01*
X70538808Y31531144D01*
X70842416Y31372421D01*
X71171071Y31275693D01*
X71512255Y31244643D01*
X71852972Y31280454D01*
X72180245Y31381761D01*
X72481607Y31544707D01*
X72745580Y31763085D01*
X72962110Y32028576D01*
X73122948Y32331069D01*
X73221969Y32659041D01*
X73255400Y33000000D01*
X73254716Y33049014D01*
X73211777Y33388906D01*
X73103638Y33713986D01*
X72934416Y34011869D01*
X72710558Y34271211D01*
X72440590Y34482133D01*
X72134796Y34636601D01*
X71804822Y34728732D01*
X71463238Y34755015D01*
X71123054Y34714451D01*
X70797227Y34608583D01*
X70498169Y34441445D01*
X70237271Y34219403D01*
X70024469Y33950915D01*
X69867870Y33646206D01*
X69773439Y33316883D01*
X69744771Y32975491D01*
X30252996Y32975491D01*
X30255400Y33000000D01*
X30254716Y33049014D01*
X30211777Y33388906D01*
X30103638Y33713986D01*
X29934416Y34011869D01*
X29710558Y34271211D01*
X29440590Y34482133D01*
X29134796Y34636601D01*
X28804822Y34728732D01*
X28463238Y34755015D01*
X28123054Y34714451D01*
X27797227Y34608583D01*
X27498169Y34441445D01*
X27237271Y34219403D01*
X27024469Y33950915D01*
X26867870Y33646206D01*
X26773439Y33316883D01*
X26744771Y32975491D01*
X18069645Y32975491D01*
X19570567Y33450639D01*
X23545059Y34542878D01*
X25259098Y34943837D01*
X33039600Y34943837D01*
X33039600Y34656163D01*
X33095723Y34374017D01*
X33205811Y34108241D01*
X33365633Y33869049D01*
X33569049Y33665633D01*
X33808241Y33505811D01*
X34074017Y33395723D01*
X34356163Y33339600D01*
X34643837Y33339600D01*
X34925983Y33395723D01*
X35191759Y33505811D01*
X35430951Y33665633D01*
X35634367Y33869049D01*
X35794189Y34108241D01*
X35904277Y34374017D01*
X35960400Y34656163D01*
X35960400Y34800000D01*
X43192534Y34800000D01*
X43220731Y34513712D01*
X43304238Y34238425D01*
X43439847Y33984720D01*
X43622345Y33762345D01*
X43844720Y33579847D01*
X44098425Y33444238D01*
X44373712Y33360731D01*
X44588258Y33339600D01*
X44731742Y33339600D01*
X44946288Y33360731D01*
X45221575Y33444238D01*
X45475280Y33579847D01*
X45697655Y33762345D01*
X45880153Y33984720D01*
X46015762Y34238425D01*
X46099269Y34513712D01*
X46127466Y34800000D01*
X46113300Y34943837D01*
X54379600Y34943837D01*
X54379600Y34656163D01*
X54435723Y34374017D01*
X54545811Y34108241D01*
X54705633Y33869049D01*
X54909049Y33665633D01*
X55148241Y33505811D01*
X55414017Y33395723D01*
X55696163Y33339600D01*
X55983837Y33339600D01*
X56265983Y33395723D01*
X56531759Y33505811D01*
X56770951Y33665633D01*
X56974367Y33869049D01*
X57134189Y34108241D01*
X57244277Y34374017D01*
X57300400Y34656163D01*
X57300400Y34800000D01*
X64532534Y34800000D01*
X64560731Y34513712D01*
X64644238Y34238425D01*
X64779847Y33984720D01*
X64962345Y33762345D01*
X65184720Y33579847D01*
X65438425Y33444238D01*
X65713712Y33360731D01*
X65928258Y33339600D01*
X66071742Y33339600D01*
X66286288Y33360731D01*
X66561575Y33444238D01*
X66815280Y33579847D01*
X67037655Y33762345D01*
X67220153Y33984720D01*
X67355762Y34238425D01*
X67439269Y34513712D01*
X67467466Y34800000D01*
X67439269Y35086288D01*
X67355762Y35361575D01*
X67220153Y35615280D01*
X67037655Y35837655D01*
X66815280Y36020153D01*
X66561575Y36155762D01*
X66286288Y36239269D01*
X66071742Y36260400D01*
X65928258Y36260400D01*
X65713712Y36239269D01*
X65438425Y36155762D01*
X65184720Y36020153D01*
X64962345Y35837655D01*
X64779847Y35615280D01*
X64644238Y35361575D01*
X64560731Y35086288D01*
X64532534Y34800000D01*
X57300400Y34800000D01*
X57300400Y34943837D01*
X57244277Y35225983D01*
X57134189Y35491759D01*
X56974367Y35730951D01*
X56770951Y35934367D01*
X56531759Y36094189D01*
X56265983Y36204277D01*
X55983837Y36260400D01*
X55696163Y36260400D01*
X55414017Y36204277D01*
X55148241Y36094189D01*
X54909049Y35934367D01*
X54705633Y35730951D01*
X54545811Y35491759D01*
X54435723Y35225983D01*
X54379600Y34943837D01*
X46113300Y34943837D01*
X46099269Y35086288D01*
X46015762Y35361575D01*
X45880153Y35615280D01*
X45697655Y35837655D01*
X45475280Y36020153D01*
X45221575Y36155762D01*
X44946288Y36239269D01*
X44731742Y36260400D01*
X44588258Y36260400D01*
X44373712Y36239269D01*
X44098425Y36155762D01*
X43844720Y36020153D01*
X43622345Y35837655D01*
X43439847Y35615280D01*
X43304238Y35361575D01*
X43220731Y35086288D01*
X43192534Y34800000D01*
X35960400Y34800000D01*
X35960400Y34943837D01*
X35904277Y35225983D01*
X35794189Y35491759D01*
X35634367Y35730951D01*
X35430951Y35934367D01*
X35191759Y36094189D01*
X34925983Y36204277D01*
X34643837Y36260400D01*
X34356163Y36260400D01*
X34074017Y36204277D01*
X33808241Y36094189D01*
X33569049Y35934367D01*
X33365633Y35730951D01*
X33205811Y35491759D01*
X33095723Y35225983D01*
X33039600Y34943837D01*
X25259098Y34943837D01*
X27558548Y35481739D01*
X31605099Y36265836D01*
X35678767Y36894016D01*
X39773553Y37365354D01*
X43883444Y37679158D01*
X48002293Y37834960D01*
X52124143Y37832531D01*
X52124143Y37832531D01*
G37*
X52124143Y37832531D02*
X56242831Y37671878D01*
X60352326Y37353234D01*
X64446534Y36877074D01*
X68519486Y36244092D01*
X72565120Y35455227D01*
X76577486Y34511641D01*
X80550696Y33414719D01*
X84479024Y32166032D01*
X88220083Y30819168D01*
X89263026Y30335038D01*
X90224026Y29729852D01*
X90442860Y29549456D01*
X90331742Y29560400D01*
X90188258Y29560400D01*
X89973712Y29539269D01*
X89698425Y29455762D01*
X89444720Y29320153D01*
X89222345Y29137655D01*
X89039847Y28915280D01*
X88904238Y28661575D01*
X88820731Y28386288D01*
X88792534Y28100000D01*
X88820731Y27813712D01*
X88904238Y27538425D01*
X89039847Y27284720D01*
X89222345Y27062345D01*
X89444720Y26879847D01*
X89698425Y26744238D01*
X89973712Y26660731D01*
X90188258Y26639600D01*
X90331742Y26639600D01*
X90546288Y26660731D01*
X90821575Y26744238D01*
X91075280Y26879847D01*
X91297655Y27062345D01*
X91480153Y27284720D01*
X91615762Y27538425D01*
X91699269Y27813712D01*
X91727466Y28100000D01*
X91701099Y28367708D01*
X91877764Y28179575D01*
X92543687Y27259622D01*
X93087322Y26262504D01*
X93499851Y25204394D01*
X93774588Y24102441D01*
X93907078Y22974522D01*
X93895176Y21838894D01*
X93739072Y20713987D01*
X93441300Y19618043D01*
X93006681Y18568809D01*
X92442268Y17583309D01*
X91757211Y16677517D01*
X91169895Y16077780D01*
X91255762Y16238425D01*
X91339269Y16513712D01*
X91367466Y16800000D01*
X91339269Y17086288D01*
X91255762Y17361575D01*
X91120153Y17615280D01*
X90937655Y17837655D01*
X90715280Y18020153D01*
X90461575Y18155762D01*
X90186288Y18239269D01*
X89971742Y18260400D01*
X89828258Y18260400D01*
X89613712Y18239269D01*
X89611020Y18238452D01*
X88802971Y19046501D01*
X88777517Y19077517D01*
X88653752Y19179088D01*
X88512550Y19254562D01*
X88359337Y19301039D01*
X88239923Y19312800D01*
X88239920Y19312800D01*
X88200000Y19316732D01*
X88160080Y19312800D01*
X80621130Y19312800D01*
X80680153Y19384720D01*
X80815762Y19638425D01*
X80899269Y19913712D01*
X80923531Y20160053D01*
X82883737Y20160053D01*
X82951711Y19905924D01*
X83209373Y19777992D01*
X83487042Y19702786D01*
X83774049Y19683195D01*
X84059362Y19719973D01*
X84332018Y19811706D01*
X84508289Y19905924D01*
X84576263Y20160053D01*
X83730000Y21006316D01*
X82883737Y20160053D01*
X80923531Y20160053D01*
X80927466Y20200000D01*
X80899269Y20486288D01*
X80815762Y20761575D01*
X80680153Y21015280D01*
X80605742Y21105951D01*
X82263195Y21105951D01*
X82299973Y20820638D01*
X82391706Y20547982D01*
X82485924Y20371711D01*
X82740053Y20303737D01*
X83586316Y21150000D01*
X83873684Y21150000D01*
X84719947Y20303737D01*
X84974076Y20371711D01*
X84999463Y20422843D01*
X85135633Y20219049D01*
X85339049Y20015633D01*
X85578241Y19855811D01*
X85844017Y19745723D01*
X86126163Y19689600D01*
X86413837Y19689600D01*
X86695983Y19745723D01*
X86961759Y19855811D01*
X87200951Y20015633D01*
X87404367Y20219049D01*
X87564189Y20458241D01*
X87674277Y20724017D01*
X87730400Y21006163D01*
X87730400Y21293837D01*
X87674277Y21575983D01*
X87564189Y21841759D01*
X87404367Y22080951D01*
X87200951Y22284367D01*
X86961759Y22444189D01*
X86698376Y22553286D01*
X86872018Y22611706D01*
X87048289Y22705924D01*
X87116263Y22960053D01*
X86270000Y23806316D01*
X85423737Y22960053D01*
X85491711Y22705924D01*
X85749373Y22577992D01*
X85841216Y22553117D01*
X85578241Y22444189D01*
X85339049Y22284367D01*
X85135633Y22080951D01*
X85000543Y21878773D01*
X84974076Y21928289D01*
X84719947Y21996263D01*
X83873684Y21150000D01*
X83586316Y21150000D01*
X82740053Y21996263D01*
X82485924Y21928289D01*
X82357992Y21670627D01*
X82282786Y21392958D01*
X82263195Y21105951D01*
X80605742Y21105951D01*
X80497655Y21237655D01*
X80275280Y21420153D01*
X80021575Y21555762D01*
X79746288Y21639269D01*
X79531742Y21660400D01*
X79388258Y21660400D01*
X79173712Y21639269D01*
X78898425Y21555762D01*
X78644720Y21420153D01*
X78422345Y21237655D01*
X78239847Y21015280D01*
X78235733Y21007583D01*
X78169293Y21001039D01*
X78016080Y20954562D01*
X77874878Y20879088D01*
X77751113Y20777517D01*
X77725663Y20746506D01*
X75991958Y19012800D01*
X70151880Y19012800D01*
X70230951Y19065633D01*
X70434367Y19269049D01*
X70594189Y19508241D01*
X70704277Y19774017D01*
X70760400Y20056163D01*
X70760400Y20343837D01*
X70704277Y20625983D01*
X70594189Y20891759D01*
X70434367Y21130951D01*
X70230951Y21334367D01*
X69991759Y21494189D01*
X69725983Y21604277D01*
X69443837Y21660400D01*
X69156163Y21660400D01*
X68874017Y21604277D01*
X68608241Y21494189D01*
X68369049Y21334367D01*
X68165633Y21130951D01*
X68005811Y20891759D01*
X67895723Y20625983D01*
X67839600Y20343837D01*
X67839600Y20056163D01*
X67895723Y19774017D01*
X68005811Y19508241D01*
X68165633Y19269049D01*
X68369049Y19065633D01*
X68448120Y19012800D01*
X60256673Y19012800D01*
X58933068Y20336405D01*
X59660000Y20336405D01*
X59789461Y20349156D01*
X59913947Y20386918D01*
X60028674Y20448241D01*
X60129233Y20530767D01*
X60211759Y20631326D01*
X60273082Y20746053D01*
X60310844Y20870539D01*
X60323595Y21000000D01*
X60323595Y21847200D01*
X61478521Y21847200D01*
X61479847Y21844720D01*
X61662345Y21622345D01*
X61884720Y21439847D01*
X62138425Y21304238D01*
X62413712Y21220731D01*
X62628258Y21199600D01*
X62771742Y21199600D01*
X62986288Y21220731D01*
X63261575Y21304238D01*
X63515280Y21439847D01*
X63737655Y21622345D01*
X63920153Y21844720D01*
X64055762Y22098425D01*
X64139269Y22373712D01*
X64167466Y22660000D01*
X64139269Y22946288D01*
X64055762Y23221575D01*
X63920153Y23475280D01*
X63737655Y23697655D01*
X63628544Y23787200D01*
X63823328Y23787200D01*
X64661548Y22948980D01*
X64660731Y22946288D01*
X64632534Y22660000D01*
X64660731Y22373712D01*
X64744238Y22098425D01*
X64879847Y21844720D01*
X65062345Y21622345D01*
X65284720Y21439847D01*
X65538425Y21304238D01*
X65813712Y21220731D01*
X66028258Y21199600D01*
X66171742Y21199600D01*
X66386288Y21220731D01*
X66661575Y21304238D01*
X66915280Y21439847D01*
X67137655Y21622345D01*
X67320153Y21844720D01*
X67455762Y22098425D01*
X67539269Y22373712D01*
X67567466Y22660000D01*
X67539269Y22946288D01*
X67455762Y23221575D01*
X67371054Y23380053D01*
X72883737Y23380053D01*
X72951711Y23125924D01*
X73209373Y22997992D01*
X73487042Y22922786D01*
X73774049Y22903195D01*
X74059362Y22939973D01*
X74332018Y23031706D01*
X74508289Y23125924D01*
X74576263Y23380053D01*
X73730000Y24226316D01*
X72883737Y23380053D01*
X67371054Y23380053D01*
X67320153Y23475280D01*
X67137655Y23697655D01*
X66915280Y23880153D01*
X66661575Y24015762D01*
X66386288Y24099269D01*
X66171742Y24120400D01*
X66028258Y24120400D01*
X65813712Y24099269D01*
X65811020Y24098452D01*
X65583521Y24325951D01*
X72263195Y24325951D01*
X72299973Y24040638D01*
X72391706Y23767982D01*
X72485924Y23591711D01*
X72740053Y23523737D01*
X73586316Y24370000D01*
X72740053Y25216263D01*
X72485924Y25148289D01*
X72357992Y24890627D01*
X72282786Y24612958D01*
X72263195Y24325951D01*
X65583521Y24325951D01*
X64762972Y25146500D01*
X64737517Y25177517D01*
X64613752Y25279088D01*
X64538603Y25319256D01*
X64576263Y25460053D01*
X63730000Y26306316D01*
X62883737Y25460053D01*
X62896376Y25412800D01*
X50739920Y25412800D01*
X50699999Y25416732D01*
X50660079Y25412800D01*
X50660077Y25412800D01*
X50540663Y25401039D01*
X50387450Y25354562D01*
X50246248Y25279088D01*
X50122483Y25177517D01*
X50097033Y25146506D01*
X48988980Y24038452D01*
X48986288Y24039269D01*
X48700000Y24067466D01*
X48413713Y24039269D01*
X48138426Y23955762D01*
X47884721Y23820153D01*
X47662346Y23637655D01*
X47479847Y23415280D01*
X47428566Y23319340D01*
X47317832Y23495832D01*
X47120816Y23704501D01*
X46886877Y23870724D01*
X46625004Y23988114D01*
X46488253Y24023032D01*
X46261600Y23891309D01*
X46261600Y22301600D01*
X46281600Y22301600D01*
X46281600Y22098400D01*
X46261600Y22098400D01*
X46261600Y20508691D01*
X46488253Y20376968D01*
X46625004Y20411886D01*
X46886877Y20529276D01*
X47120816Y20695499D01*
X47317832Y20904168D01*
X47428566Y21080661D01*
X47479847Y20984721D01*
X47662345Y20762346D01*
X47884720Y20579847D01*
X48138425Y20444238D01*
X48413712Y20360731D01*
X48700000Y20332534D01*
X48986287Y20360731D01*
X49261574Y20444238D01*
X49515279Y20579847D01*
X49737654Y20762345D01*
X49920153Y20984720D01*
X49970000Y21077977D01*
X50019847Y20984721D01*
X50202345Y20762346D01*
X50424720Y20579847D01*
X50678425Y20444238D01*
X50953712Y20360731D01*
X51240000Y20332534D01*
X51526287Y20360731D01*
X51801574Y20444238D01*
X52055279Y20579847D01*
X52277654Y20762345D01*
X52460153Y20984720D01*
X52510000Y21077977D01*
X52559847Y20984721D01*
X52742345Y20762346D01*
X52964720Y20579847D01*
X52967200Y20578521D01*
X52967200Y20516673D01*
X49453495Y17002967D01*
X49422484Y16977517D01*
X49397034Y16946506D01*
X49320912Y16853751D01*
X49245438Y16712549D01*
X49223632Y16640664D01*
X49205491Y16580858D01*
X49198962Y16559336D01*
X49183268Y16400000D01*
X49187201Y16360070D01*
X49187201Y16358323D01*
X48986288Y16419269D01*
X48700000Y16447466D01*
X48413713Y16419269D01*
X48138426Y16335762D01*
X47884721Y16200153D01*
X47662346Y16017655D01*
X47479847Y15795280D01*
X47430000Y15702023D01*
X47380153Y15795280D01*
X47197655Y16017655D01*
X46975280Y16200153D01*
X46721575Y16335762D01*
X46446288Y16419269D01*
X46160000Y16447466D01*
X45873713Y16419269D01*
X45871020Y16418452D01*
X44042971Y18246501D01*
X44017517Y18277517D01*
X43893752Y18379088D01*
X43752550Y18454562D01*
X43599337Y18501039D01*
X43479923Y18512800D01*
X43479920Y18512800D01*
X43440000Y18516732D01*
X43400080Y18512800D01*
X42596673Y18512800D01*
X40725906Y20383566D01*
X40751747Y20376968D01*
X40978400Y20508691D01*
X40978400Y22098400D01*
X41181600Y22098400D01*
X41181600Y20508691D01*
X41408253Y20376968D01*
X41545004Y20411886D01*
X41806877Y20529276D01*
X42040816Y20695499D01*
X42237832Y20904168D01*
X42350000Y21082947D01*
X42462168Y20904168D01*
X42659184Y20695499D01*
X42893123Y20529276D01*
X43154996Y20411886D01*
X43291747Y20376968D01*
X43518400Y20508691D01*
X43518400Y22098400D01*
X43721600Y22098400D01*
X43721600Y20508691D01*
X43948253Y20376968D01*
X44085004Y20411886D01*
X44346877Y20529276D01*
X44580816Y20695499D01*
X44777832Y20904168D01*
X44890000Y21082947D01*
X45002168Y20904168D01*
X45199184Y20695499D01*
X45433123Y20529276D01*
X45694996Y20411886D01*
X45831747Y20376968D01*
X46058400Y20508691D01*
X46058400Y22098400D01*
X43721600Y22098400D01*
X43518400Y22098400D01*
X41181600Y22098400D01*
X40978400Y22098400D01*
X39619600Y22098400D01*
X39619600Y21698400D01*
X39662074Y21447398D01*
X38738452Y22371020D01*
X38739269Y22373712D01*
X38767466Y22660000D01*
X38763369Y22701600D01*
X39619600Y22701600D01*
X39619600Y22301600D01*
X40978400Y22301600D01*
X40978400Y23891309D01*
X41181600Y23891309D01*
X41181600Y22301600D01*
X43518400Y22301600D01*
X43518400Y23891309D01*
X43721600Y23891309D01*
X43721600Y22301600D01*
X46058400Y22301600D01*
X46058400Y23891309D01*
X45831747Y24023032D01*
X45694996Y23988114D01*
X45433123Y23870724D01*
X45199184Y23704501D01*
X45002168Y23495832D01*
X44890000Y23317053D01*
X44777832Y23495832D01*
X44580816Y23704501D01*
X44346877Y23870724D01*
X44085004Y23988114D01*
X43948253Y24023032D01*
X43721600Y23891309D01*
X43518400Y23891309D01*
X43291747Y24023032D01*
X43154996Y23988114D01*
X42893123Y23870724D01*
X42659184Y23704501D01*
X42462168Y23495832D01*
X42350000Y23317053D01*
X42237832Y23495832D01*
X42040816Y23704501D01*
X41806877Y23870724D01*
X41545004Y23988114D01*
X41408253Y24023032D01*
X41181600Y23891309D01*
X40978400Y23891309D01*
X40751747Y24023032D01*
X40614996Y23988114D01*
X40353123Y23870724D01*
X40119184Y23704501D01*
X39922168Y23495832D01*
X39769647Y23252737D01*
X39667482Y22984558D01*
X39619600Y22701600D01*
X38763369Y22701600D01*
X38739269Y22946288D01*
X38655762Y23221575D01*
X38520153Y23475280D01*
X38337655Y23697655D01*
X38115280Y23880153D01*
X37861575Y24015762D01*
X37586288Y24099269D01*
X37371742Y24120400D01*
X37228258Y24120400D01*
X37013712Y24099269D01*
X36738425Y24015762D01*
X36484720Y23880153D01*
X36262345Y23697655D01*
X36079847Y23475280D01*
X35944238Y23221575D01*
X35860731Y22946288D01*
X35832534Y22660000D01*
X35860731Y22373712D01*
X35944238Y22098425D01*
X36079847Y21844720D01*
X36262345Y21622345D01*
X36484720Y21439847D01*
X36738425Y21304238D01*
X37013712Y21220731D01*
X37228258Y21199600D01*
X37371742Y21199600D01*
X37586288Y21220731D01*
X37588980Y21221548D01*
X37794136Y21016392D01*
X37757670Y21012800D01*
X31821479Y21012800D01*
X31820153Y21015280D01*
X31637655Y21237655D01*
X31415280Y21420153D01*
X31161575Y21555762D01*
X30886288Y21639269D01*
X30671742Y21660400D01*
X30528258Y21660400D01*
X30313712Y21639269D01*
X30038425Y21555762D01*
X29784720Y21420153D01*
X29562345Y21237655D01*
X29379847Y21015280D01*
X29244238Y20761575D01*
X29160731Y20486288D01*
X29132534Y20200000D01*
X29160731Y19913712D01*
X29244238Y19638425D01*
X29379847Y19384720D01*
X29562345Y19162345D01*
X29784720Y18979847D01*
X30038425Y18844238D01*
X30313712Y18760731D01*
X30528258Y18739600D01*
X30671742Y18739600D01*
X30886288Y18760731D01*
X31161575Y18844238D01*
X31415280Y18979847D01*
X31637655Y19162345D01*
X31820153Y19384720D01*
X31821479Y19387200D01*
X37460918Y19387200D01*
X39730600Y17117517D01*
X39793214Y16966354D01*
X39892846Y16817244D01*
X40019654Y16690436D01*
X40168764Y16590804D01*
X40334446Y16522176D01*
X40510333Y16487190D01*
X40689667Y16487190D01*
X40865554Y16522176D01*
X41031236Y16590804D01*
X41180346Y16690436D01*
X41307154Y16817244D01*
X41406786Y16966354D01*
X41475414Y17132036D01*
X41509107Y17301420D01*
X41657033Y17153494D01*
X41682483Y17122483D01*
X41713493Y17097034D01*
X41806247Y17020912D01*
X41850919Y16997035D01*
X41947450Y16945438D01*
X42100663Y16898961D01*
X42220077Y16887200D01*
X42220079Y16887200D01*
X42259999Y16883268D01*
X42299920Y16887200D01*
X43103328Y16887200D01*
X43549960Y16440568D01*
X43333713Y16419269D01*
X43058426Y16335762D01*
X42804721Y16200153D01*
X42582346Y16017655D01*
X42399847Y15795280D01*
X42350000Y15702023D01*
X42300153Y15795280D01*
X42117655Y16017655D01*
X41895280Y16200153D01*
X41641575Y16335762D01*
X41366288Y16419269D01*
X41080000Y16447466D01*
X40793713Y16419269D01*
X40518426Y16335762D01*
X40264721Y16200153D01*
X40042346Y16017655D01*
X39859847Y15795280D01*
X39724238Y15541575D01*
X39640731Y15266288D01*
X39619600Y15051742D01*
X39619600Y14108259D01*
X39640731Y13893713D01*
X39724238Y13618426D01*
X39859847Y13364721D01*
X40042345Y13142346D01*
X40264720Y12959847D01*
X40267201Y12958521D01*
X40267201Y11589930D01*
X40263268Y11550000D01*
X40278962Y11390664D01*
X40325438Y11237451D01*
X40400912Y11096249D01*
X40400913Y11096248D01*
X40502484Y10972483D01*
X40533495Y10947033D01*
X40901458Y10579069D01*
X40891454Y10546090D01*
X40862292Y10250000D01*
X40891454Y9953910D01*
X40977821Y9669198D01*
X41118072Y9406807D01*
X41306818Y9176818D01*
X41536807Y8988072D01*
X41799198Y8847821D01*
X42083910Y8761454D01*
X42305800Y8739600D01*
X42454200Y8739600D01*
X42676090Y8761454D01*
X42960802Y8847821D01*
X43223193Y8988072D01*
X43453182Y9176818D01*
X43641928Y9406807D01*
X43650000Y9421909D01*
X43658072Y9406807D01*
X43846818Y9176818D01*
X44076807Y8988072D01*
X44339198Y8847821D01*
X44623910Y8761454D01*
X44845800Y8739600D01*
X44994200Y8739600D01*
X45216090Y8761454D01*
X45500802Y8847821D01*
X45763193Y8988072D01*
X45993182Y9176818D01*
X46181928Y9406807D01*
X46190000Y9421909D01*
X46198072Y9406807D01*
X46386818Y9176818D01*
X46616807Y8988072D01*
X46879198Y8847821D01*
X47163910Y8761454D01*
X47385800Y8739600D01*
X47534200Y8739600D01*
X47756090Y8761454D01*
X48040802Y8847821D01*
X48303193Y8988072D01*
X48533182Y9176818D01*
X48721928Y9406807D01*
X48730000Y9421909D01*
X48738072Y9406807D01*
X48926818Y9176818D01*
X49156807Y8988072D01*
X49419198Y8847821D01*
X49703910Y8761454D01*
X49925800Y8739600D01*
X50074200Y8739600D01*
X50296090Y8761454D01*
X50580802Y8847821D01*
X50843193Y8988072D01*
X51073182Y9176818D01*
X51261928Y9406807D01*
X51270000Y9421909D01*
X51278072Y9406807D01*
X51466818Y9176818D01*
X51696807Y8988072D01*
X51959198Y8847821D01*
X52243910Y8761454D01*
X52465800Y8739600D01*
X52614200Y8739600D01*
X52836090Y8761454D01*
X53120802Y8847821D01*
X53383193Y8988072D01*
X53613182Y9176818D01*
X53801928Y9406807D01*
X53815771Y9432706D01*
X53848172Y9375975D01*
X54042355Y9152451D01*
X54276414Y8971106D01*
X54541355Y8838908D01*
X54743907Y8777468D01*
X54978400Y8908542D01*
X54978400Y10148400D01*
X54958400Y10148400D01*
X54958400Y10351600D01*
X54978400Y10351600D01*
X54978400Y11591458D01*
X55181600Y11591458D01*
X55181600Y10351600D01*
X55201600Y10351600D01*
X55201600Y10148400D01*
X55181600Y10148400D01*
X55181600Y8908542D01*
X55416093Y8777468D01*
X55618645Y8838908D01*
X55883586Y8971106D01*
X56117645Y9152451D01*
X56145315Y9184302D01*
X56156918Y9146053D01*
X56218241Y9031326D01*
X56300767Y8930767D01*
X56401326Y8848241D01*
X56516053Y8786918D01*
X56640539Y8749156D01*
X56770000Y8736405D01*
X58470000Y8736405D01*
X58599461Y8749156D01*
X58723947Y8786918D01*
X58838674Y8848241D01*
X58939233Y8930767D01*
X59021759Y9031326D01*
X59083082Y9146053D01*
X59120844Y9270539D01*
X59133595Y9400000D01*
X59133595Y11100000D01*
X59120844Y11229461D01*
X59083082Y11353947D01*
X59021759Y11468674D01*
X58939233Y11569233D01*
X58838674Y11651759D01*
X58723947Y11713082D01*
X58599461Y11750844D01*
X58470000Y11763595D01*
X56770000Y11763595D01*
X56640539Y11750844D01*
X56516053Y11713082D01*
X56401326Y11651759D01*
X56300767Y11569233D01*
X56218241Y11468674D01*
X56156918Y11353947D01*
X56145315Y11315698D01*
X56117645Y11347549D01*
X55883586Y11528894D01*
X55618645Y11661092D01*
X55416093Y11722532D01*
X55181600Y11591458D01*
X54978400Y11591458D01*
X54743907Y11722532D01*
X54541355Y11661092D01*
X54276414Y11528894D01*
X54042355Y11347549D01*
X53848172Y11124025D01*
X53815771Y11067294D01*
X53801928Y11093193D01*
X53613182Y11323182D01*
X53383193Y11511928D01*
X53120802Y11652179D01*
X52836090Y11738546D01*
X52614200Y11760400D01*
X52465800Y11760400D01*
X52243910Y11738546D01*
X52210931Y11728542D01*
X52052800Y11886672D01*
X52052800Y12643837D01*
X61239600Y12643837D01*
X61239600Y12356163D01*
X61295723Y12074017D01*
X61405811Y11808241D01*
X61565633Y11569049D01*
X61769049Y11365633D01*
X62008241Y11205811D01*
X62274017Y11095723D01*
X62556163Y11039600D01*
X62843837Y11039600D01*
X63125983Y11095723D01*
X63391759Y11205811D01*
X63630951Y11365633D01*
X63834367Y11569049D01*
X63994189Y11808241D01*
X64104277Y12074017D01*
X64160400Y12356163D01*
X64160400Y12643837D01*
X64104277Y12925983D01*
X63994189Y13191759D01*
X63834367Y13430951D01*
X63630951Y13634367D01*
X63391759Y13794189D01*
X63125983Y13904277D01*
X62843837Y13960400D01*
X62556163Y13960400D01*
X62274017Y13904277D01*
X62008241Y13794189D01*
X61769049Y13634367D01*
X61565633Y13430951D01*
X61405811Y13191759D01*
X61295723Y12925983D01*
X61239600Y12643837D01*
X52052800Y12643837D01*
X52052800Y12958522D01*
X52055279Y12959847D01*
X52277654Y13142345D01*
X52460153Y13364720D01*
X52510000Y13457977D01*
X52559847Y13364721D01*
X52742345Y13142346D01*
X52964720Y12959847D01*
X53218425Y12824238D01*
X53493712Y12740731D01*
X53780000Y12712534D01*
X54066287Y12740731D01*
X54341574Y12824238D01*
X54595279Y12959847D01*
X54817654Y13142345D01*
X55000153Y13364720D01*
X55050000Y13457977D01*
X55099847Y13364721D01*
X55282345Y13142346D01*
X55504720Y12959847D01*
X55758425Y12824238D01*
X56033712Y12740731D01*
X56320000Y12712534D01*
X56606287Y12740731D01*
X56881574Y12824238D01*
X57135279Y12959847D01*
X57357654Y13142345D01*
X57540153Y13364720D01*
X57590000Y13457977D01*
X57639847Y13364721D01*
X57822345Y13142346D01*
X58044720Y12959847D01*
X58298425Y12824238D01*
X58573712Y12740731D01*
X58860000Y12712534D01*
X59146287Y12740731D01*
X59421574Y12824238D01*
X59675279Y12959847D01*
X59897654Y13142345D01*
X60080153Y13364720D01*
X60215762Y13618425D01*
X60299269Y13893712D01*
X60320400Y14108258D01*
X60320400Y15051741D01*
X60299269Y15266288D01*
X60215762Y15541575D01*
X60080153Y15795280D01*
X59897655Y16017655D01*
X59675280Y16200153D01*
X59421575Y16335762D01*
X59146288Y16419269D01*
X58860000Y16447466D01*
X58573713Y16419269D01*
X58298426Y16335762D01*
X58044721Y16200153D01*
X57822346Y16017655D01*
X57639847Y15795280D01*
X57590000Y15702023D01*
X57540153Y15795280D01*
X57357655Y16017655D01*
X57135280Y16200153D01*
X56881575Y16335762D01*
X56606288Y16419269D01*
X56320000Y16447466D01*
X56033713Y16419269D01*
X55758426Y16335762D01*
X55504721Y16200153D01*
X55282346Y16017655D01*
X55099847Y15795280D01*
X55050000Y15702023D01*
X55000153Y15795280D01*
X54817655Y16017655D01*
X54595280Y16200153D01*
X54341575Y16335762D01*
X54066288Y16419269D01*
X53780000Y16447466D01*
X53493713Y16419269D01*
X53218426Y16335762D01*
X52964721Y16200153D01*
X52742346Y16017655D01*
X52559847Y15795280D01*
X52510000Y15702023D01*
X52460153Y15795280D01*
X52277655Y16017655D01*
X52055280Y16200153D01*
X51801575Y16335762D01*
X51526288Y16419269D01*
X51240000Y16447466D01*
X51192234Y16442761D01*
X54326507Y19577034D01*
X54357517Y19602483D01*
X54421512Y19680461D01*
X54459088Y19726247D01*
X54492986Y19789667D01*
X54534562Y19867450D01*
X54581039Y20020663D01*
X54592800Y20140077D01*
X54592800Y20140079D01*
X54596732Y20179999D01*
X54592800Y20219920D01*
X54592800Y20578522D01*
X54595279Y20579847D01*
X54817654Y20762345D01*
X55000153Y20984720D01*
X55050000Y21077977D01*
X55099847Y20984721D01*
X55282345Y20762346D01*
X55504720Y20579847D01*
X55758425Y20444238D01*
X55769931Y20440748D01*
X55719654Y20407154D01*
X55592846Y20280346D01*
X55493214Y20131236D01*
X55424586Y19965554D01*
X55389600Y19789667D01*
X55389600Y19610333D01*
X55424586Y19434446D01*
X55493214Y19268764D01*
X55592846Y19119654D01*
X55719654Y18992846D01*
X55868764Y18893214D01*
X56019929Y18830599D01*
X57797028Y17053500D01*
X57822483Y17022483D01*
X57890877Y16966354D01*
X57946247Y16920912D01*
X57993435Y16895690D01*
X58087450Y16845438D01*
X58240663Y16798961D01*
X58360077Y16787200D01*
X58360079Y16787200D01*
X58399999Y16783268D01*
X58439920Y16787200D01*
X67319651Y16787200D01*
X67317292Y16782787D01*
X67275241Y16644164D01*
X67261042Y16500000D01*
X67264600Y16463875D01*
X67264600Y13385703D01*
X67234367Y13430951D01*
X67030951Y13634367D01*
X66791759Y13794189D01*
X66525983Y13904277D01*
X66243837Y13960400D01*
X65956163Y13960400D01*
X65674017Y13904277D01*
X65408241Y13794189D01*
X65169049Y13634367D01*
X64965633Y13430951D01*
X64805811Y13191759D01*
X64695723Y12925983D01*
X64639600Y12643837D01*
X64639600Y12356163D01*
X64695723Y12074017D01*
X64805811Y11808241D01*
X64965633Y11569049D01*
X65169049Y11365633D01*
X65408241Y11205811D01*
X65674017Y11095723D01*
X65956163Y11039600D01*
X66243837Y11039600D01*
X66525983Y11095723D01*
X66791759Y11205811D01*
X67030951Y11365633D01*
X67234367Y11569049D01*
X67264600Y11614297D01*
X67264601Y5032767D01*
X67194323Y4245322D01*
X66994392Y3514496D01*
X66668204Y2830629D01*
X66226069Y2215332D01*
X65681960Y1688054D01*
X65053081Y1265465D01*
X64359303Y960918D01*
X63616900Y782682D01*
X62973036Y735400D01*
X37032756Y735400D01*
X36245322Y805677D01*
X35514496Y1005608D01*
X34830629Y1331796D01*
X34215332Y1773931D01*
X33688054Y2318040D01*
X33265465Y2946919D01*
X32960918Y3640697D01*
X32782682Y4383100D01*
X32739180Y4975491D01*
X35244771Y4975491D01*
X35282960Y4635032D01*
X35386550Y4308474D01*
X35551596Y4008257D01*
X35771811Y3745815D01*
X36038808Y3531144D01*
X36342416Y3372421D01*
X36671071Y3275693D01*
X37012255Y3244643D01*
X37352972Y3280454D01*
X37680245Y3381761D01*
X37981607Y3544707D01*
X38245580Y3763085D01*
X38462110Y4028576D01*
X38622948Y4331069D01*
X38721969Y4659041D01*
X38752996Y4975491D01*
X61244771Y4975491D01*
X61282960Y4635032D01*
X61386550Y4308474D01*
X61551596Y4008257D01*
X61771811Y3745815D01*
X62038808Y3531144D01*
X62342416Y3372421D01*
X62671071Y3275693D01*
X63012255Y3244643D01*
X63352972Y3280454D01*
X63680245Y3381761D01*
X63981607Y3544707D01*
X64245580Y3763085D01*
X64462110Y4028576D01*
X64622948Y4331069D01*
X64721969Y4659041D01*
X64755400Y5000000D01*
X64754716Y5049014D01*
X64711777Y5388906D01*
X64603638Y5713986D01*
X64434416Y6011869D01*
X64210558Y6271211D01*
X63940590Y6482133D01*
X63634796Y6636601D01*
X63304822Y6728732D01*
X62963238Y6755015D01*
X62623054Y6714451D01*
X62297227Y6608583D01*
X61998169Y6441445D01*
X61737271Y6219403D01*
X61524469Y5950915D01*
X61367870Y5646206D01*
X61273439Y5316883D01*
X61244771Y4975491D01*
X38752996Y4975491D01*
X38755400Y5000000D01*
X38754716Y5049014D01*
X38711777Y5388906D01*
X38603638Y5713986D01*
X38434416Y6011869D01*
X38210558Y6271211D01*
X37940590Y6482133D01*
X37634796Y6636601D01*
X37304822Y6728732D01*
X36963238Y6755015D01*
X36623054Y6714451D01*
X36297227Y6608583D01*
X35998169Y6441445D01*
X35737271Y6219403D01*
X35524469Y5950915D01*
X35367870Y5646206D01*
X35273439Y5316883D01*
X35244771Y4975491D01*
X32739180Y4975491D01*
X32735400Y5026964D01*
X32735400Y11614296D01*
X32765633Y11569049D01*
X32969049Y11365633D01*
X33208241Y11205811D01*
X33474017Y11095723D01*
X33756163Y11039600D01*
X34043837Y11039600D01*
X34325983Y11095723D01*
X34591759Y11205811D01*
X34830951Y11365633D01*
X35034367Y11569049D01*
X35194189Y11808241D01*
X35304277Y12074017D01*
X35360400Y12356163D01*
X35360400Y12643837D01*
X35839600Y12643837D01*
X35839600Y12356163D01*
X35895723Y12074017D01*
X36005811Y11808241D01*
X36165633Y11569049D01*
X36369049Y11365633D01*
X36608241Y11205811D01*
X36874017Y11095723D01*
X37156163Y11039600D01*
X37443837Y11039600D01*
X37725983Y11095723D01*
X37991759Y11205811D01*
X38230951Y11365633D01*
X38434367Y11569049D01*
X38594189Y11808241D01*
X38704277Y12074017D01*
X38760400Y12356163D01*
X38760400Y12643837D01*
X38704277Y12925983D01*
X38594189Y13191759D01*
X38434367Y13430951D01*
X38230951Y13634367D01*
X37991759Y13794189D01*
X37725983Y13904277D01*
X37443837Y13960400D01*
X37156163Y13960400D01*
X36874017Y13904277D01*
X36608241Y13794189D01*
X36369049Y13634367D01*
X36165633Y13430951D01*
X36005811Y13191759D01*
X35895723Y12925983D01*
X35839600Y12643837D01*
X35360400Y12643837D01*
X35304277Y12925983D01*
X35194189Y13191759D01*
X35034367Y13430951D01*
X34830951Y13634367D01*
X34591759Y13794189D01*
X34325983Y13904277D01*
X34043837Y13960400D01*
X33756163Y13960400D01*
X33474017Y13904277D01*
X33208241Y13794189D01*
X32969049Y13634367D01*
X32765633Y13430951D01*
X32735400Y13385704D01*
X32735400Y16463875D01*
X32738958Y16500000D01*
X32724759Y16644164D01*
X32711704Y16687201D01*
X34883281Y16687201D01*
X35034446Y16624586D01*
X35210333Y16589600D01*
X35389667Y16589600D01*
X35565554Y16624586D01*
X35731236Y16693214D01*
X35880346Y16792846D01*
X36007154Y16919654D01*
X36106786Y17068764D01*
X36175414Y17234446D01*
X36210400Y17410333D01*
X36210400Y17589667D01*
X36175414Y17765554D01*
X36106786Y17931236D01*
X36007154Y18080346D01*
X35880346Y18207154D01*
X35731236Y18306786D01*
X35565554Y18375414D01*
X35389667Y18410400D01*
X35210333Y18410400D01*
X35034446Y18375414D01*
X34883283Y18312800D01*
X21099929Y18312798D01*
X21059998Y18316731D01*
X20900662Y18301037D01*
X20747449Y18254560D01*
X20606246Y18179087D01*
X20554641Y18136735D01*
X20546288Y18139269D01*
X20331742Y18160400D01*
X20188258Y18160400D01*
X19973712Y18139269D01*
X19698425Y18055762D01*
X19444720Y17920153D01*
X19222345Y17737655D01*
X19039847Y17515280D01*
X18904238Y17261575D01*
X18820731Y16986288D01*
X18792534Y16700000D01*
X18820731Y16413712D01*
X18904238Y16138425D01*
X19039847Y15884720D01*
X19222345Y15662345D01*
X19444720Y15479847D01*
X19698425Y15344238D01*
X19973712Y15260731D01*
X20188258Y15239600D01*
X20331742Y15239600D01*
X20546288Y15260731D01*
X20821575Y15344238D01*
X21075280Y15479847D01*
X21297655Y15662345D01*
X21480153Y15884720D01*
X21615762Y16138425D01*
X21699269Y16413712D01*
X21726205Y16687199D01*
X24487874Y16687199D01*
X18251936Y14192824D01*
X17150400Y13843385D01*
X16033017Y13640311D01*
X14898885Y13580863D01*
X13766408Y13666005D01*
X12653911Y13894358D01*
X11579461Y14262213D01*
X10560450Y14763617D01*
X9791956Y15272263D01*
X9956163Y15239600D01*
X10243837Y15239600D01*
X10525983Y15295723D01*
X10791759Y15405811D01*
X11030951Y15565633D01*
X11234367Y15769049D01*
X11394189Y16008241D01*
X11504277Y16274017D01*
X11560400Y16556163D01*
X11560400Y16843837D01*
X11504277Y17125983D01*
X11394189Y17391759D01*
X11234367Y17630951D01*
X11030951Y17834367D01*
X10791759Y17994189D01*
X10525983Y18104277D01*
X10243837Y18160400D01*
X9956163Y18160400D01*
X9674017Y18104277D01*
X9408241Y17994189D01*
X9169049Y17834367D01*
X8965633Y17630951D01*
X8805811Y17391759D01*
X8695723Y17125983D01*
X8639600Y16843837D01*
X8639600Y16556163D01*
X8695723Y16274017D01*
X8754694Y16131649D01*
X8753706Y16132502D01*
X7995250Y16977800D01*
X7350351Y17912618D01*
X6829462Y18921799D01*
X6441026Y19988990D01*
X6402474Y20160053D01*
X12883737Y20160053D01*
X12951711Y19905924D01*
X13209373Y19777992D01*
X13487042Y19702786D01*
X13774049Y19683195D01*
X14059362Y19719973D01*
X14332018Y19811706D01*
X14508289Y19905924D01*
X14576263Y20160053D01*
X13730000Y21006316D01*
X12883737Y20160053D01*
X6402474Y20160053D01*
X6191341Y21096885D01*
X6190484Y21105951D01*
X12263195Y21105951D01*
X12299973Y20820638D01*
X12391706Y20547982D01*
X12485924Y20371711D01*
X12740053Y20303737D01*
X13586316Y21150000D01*
X12740053Y21996263D01*
X12485924Y21928289D01*
X12357992Y21670627D01*
X12282786Y21392958D01*
X12263195Y21105951D01*
X6190484Y21105951D01*
X6084454Y22227529D01*
X6122097Y23362586D01*
X6303662Y24483660D01*
X6382553Y24750000D01*
X12266405Y24750000D01*
X12266405Y23150000D01*
X12279156Y23020539D01*
X12316918Y22896053D01*
X12378241Y22781326D01*
X12460767Y22680767D01*
X12561326Y22598241D01*
X12676053Y22536918D01*
X12800539Y22499156D01*
X12930000Y22486405D01*
X13124448Y22486405D01*
X12951711Y22394076D01*
X12883737Y22139947D01*
X13730000Y21293684D01*
X14576263Y22139947D01*
X14508289Y22394076D01*
X14322333Y22486405D01*
X14530000Y22486405D01*
X14659461Y22499156D01*
X14783947Y22536918D01*
X14898674Y22598241D01*
X14999233Y22680767D01*
X15081759Y22781326D01*
X15143082Y22896053D01*
X15169975Y22984707D01*
X15339049Y22815633D01*
X15578241Y22655811D01*
X15833691Y22550000D01*
X15578241Y22444189D01*
X15339049Y22284367D01*
X15135633Y22080951D01*
X15000543Y21878773D01*
X14974076Y21928289D01*
X14719947Y21996263D01*
X13873684Y21150000D01*
X14719947Y20303737D01*
X14974076Y20371711D01*
X14999463Y20422843D01*
X15135633Y20219049D01*
X15339049Y20015633D01*
X15578241Y19855811D01*
X15844017Y19745723D01*
X16126163Y19689600D01*
X16413837Y19689600D01*
X16695983Y19745723D01*
X16961759Y19855811D01*
X17200951Y20015633D01*
X17404367Y20219049D01*
X17487747Y20343837D01*
X18979600Y20343837D01*
X18979600Y20056163D01*
X19035723Y19774017D01*
X19145811Y19508241D01*
X19305633Y19269049D01*
X19509049Y19065633D01*
X19748241Y18905811D01*
X20014017Y18795723D01*
X20296163Y18739600D01*
X20583837Y18739600D01*
X20865983Y18795723D01*
X21131759Y18905811D01*
X21370951Y19065633D01*
X21574367Y19269049D01*
X21734189Y19508241D01*
X21844277Y19774017D01*
X21900400Y20056163D01*
X21900400Y20343837D01*
X21844277Y20625983D01*
X21734189Y20891759D01*
X21574367Y21130951D01*
X21370951Y21334367D01*
X21131759Y21494189D01*
X20865983Y21604277D01*
X20583837Y21660400D01*
X20296163Y21660400D01*
X20014017Y21604277D01*
X19748241Y21494189D01*
X19509049Y21334367D01*
X19305633Y21130951D01*
X19145811Y20891759D01*
X19035723Y20625983D01*
X18979600Y20343837D01*
X17487747Y20343837D01*
X17564189Y20458241D01*
X17674277Y20724017D01*
X17730400Y21006163D01*
X17730400Y21293837D01*
X17674277Y21575983D01*
X17564189Y21841759D01*
X17404367Y22080951D01*
X17200951Y22284367D01*
X16961759Y22444189D01*
X16706309Y22550000D01*
X16961759Y22655811D01*
X16968028Y22660000D01*
X32432534Y22660000D01*
X32460731Y22373712D01*
X32544238Y22098425D01*
X32679847Y21844720D01*
X32862345Y21622345D01*
X33084720Y21439847D01*
X33338425Y21304238D01*
X33613712Y21220731D01*
X33828258Y21199600D01*
X33971742Y21199600D01*
X34186288Y21220731D01*
X34461575Y21304238D01*
X34715280Y21439847D01*
X34937655Y21622345D01*
X35120153Y21844720D01*
X35255762Y22098425D01*
X35339269Y22373712D01*
X35367466Y22660000D01*
X35339269Y22946288D01*
X35255762Y23221575D01*
X35120153Y23475280D01*
X34937655Y23697655D01*
X34715280Y23880153D01*
X34461575Y24015762D01*
X34186288Y24099269D01*
X33971742Y24120400D01*
X33828258Y24120400D01*
X33613712Y24099269D01*
X33338425Y24015762D01*
X33084720Y23880153D01*
X32862345Y23697655D01*
X32679847Y23475280D01*
X32544238Y23221575D01*
X32460731Y22946288D01*
X32432534Y22660000D01*
X16968028Y22660000D01*
X17200951Y22815633D01*
X17404367Y23019049D01*
X17564189Y23258241D01*
X17614645Y23380053D01*
X22883737Y23380053D01*
X22951711Y23125924D01*
X23209373Y22997992D01*
X23487042Y22922786D01*
X23774049Y22903195D01*
X24059362Y22939973D01*
X24332018Y23031706D01*
X24508289Y23125924D01*
X24576263Y23380053D01*
X23730000Y24226316D01*
X22883737Y23380053D01*
X17614645Y23380053D01*
X17674277Y23524017D01*
X17730400Y23806163D01*
X17730400Y24093837D01*
X17684230Y24325951D01*
X22263195Y24325951D01*
X22299973Y24040638D01*
X22391706Y23767982D01*
X22485924Y23591711D01*
X22740053Y23523737D01*
X23586316Y24370000D01*
X23873684Y24370000D01*
X24719947Y23523737D01*
X24974076Y23591711D01*
X24999463Y23642843D01*
X25135633Y23439049D01*
X25339049Y23235633D01*
X25578241Y23075811D01*
X25844017Y22965723D01*
X26126163Y22909600D01*
X26413837Y22909600D01*
X26695983Y22965723D01*
X26961759Y23075811D01*
X27200951Y23235633D01*
X27404367Y23439049D01*
X27564189Y23678241D01*
X27674277Y23944017D01*
X27730400Y24226163D01*
X27730400Y24513837D01*
X27674277Y24795983D01*
X27564189Y25061759D01*
X27404367Y25300951D01*
X27245265Y25460053D01*
X32883737Y25460053D01*
X32951711Y25205924D01*
X33209373Y25077992D01*
X33487042Y25002786D01*
X33774049Y24983195D01*
X34059362Y25019973D01*
X34332018Y25111706D01*
X34508289Y25205924D01*
X34576263Y25460053D01*
X33730000Y26306316D01*
X32883737Y25460053D01*
X27245265Y25460053D01*
X27200951Y25504367D01*
X26961759Y25664189D01*
X26698376Y25773286D01*
X26872018Y25831706D01*
X27048289Y25925924D01*
X27116263Y26180053D01*
X26270000Y27026316D01*
X25423737Y26180053D01*
X25491711Y25925924D01*
X25749373Y25797992D01*
X25841216Y25773117D01*
X25578241Y25664189D01*
X25339049Y25504367D01*
X25135633Y25300951D01*
X25000543Y25098773D01*
X24974076Y25148289D01*
X24719947Y25216263D01*
X23873684Y24370000D01*
X23586316Y24370000D01*
X22740053Y25216263D01*
X22485924Y25148289D01*
X22357992Y24890627D01*
X22282786Y24612958D01*
X22263195Y24325951D01*
X17684230Y24325951D01*
X17674277Y24375983D01*
X17564189Y24641759D01*
X17404367Y24880951D01*
X17200951Y25084367D01*
X16961759Y25244189D01*
X16695983Y25354277D01*
X16413837Y25410400D01*
X16126163Y25410400D01*
X15844017Y25354277D01*
X15578241Y25244189D01*
X15339049Y25084367D01*
X15169975Y24915293D01*
X15143082Y25003947D01*
X15081759Y25118674D01*
X14999233Y25219233D01*
X14898674Y25301759D01*
X14783947Y25363082D01*
X14659461Y25400844D01*
X14530000Y25413595D01*
X12930000Y25413595D01*
X12800539Y25400844D01*
X12676053Y25363082D01*
X12561326Y25301759D01*
X12460767Y25219233D01*
X12378241Y25118674D01*
X12316918Y25003947D01*
X12279156Y24879461D01*
X12266405Y24750000D01*
X6382553Y24750000D01*
X6626204Y25572578D01*
X7084496Y26611691D01*
X7671103Y27584141D01*
X8179600Y28225716D01*
X8179600Y27956163D01*
X8235723Y27674017D01*
X8345811Y27408241D01*
X8505633Y27169049D01*
X8709049Y26965633D01*
X8948241Y26805811D01*
X9214017Y26695723D01*
X9496163Y26639600D01*
X9783837Y26639600D01*
X10065983Y26695723D01*
X10331759Y26805811D01*
X10570951Y26965633D01*
X10774367Y27169049D01*
X10934189Y27408241D01*
X11044277Y27674017D01*
X11100400Y27956163D01*
X11100400Y28100000D01*
X18332534Y28100000D01*
X18360731Y27813712D01*
X18444238Y27538425D01*
X18579847Y27284720D01*
X18762345Y27062345D01*
X18984720Y26879847D01*
X19238425Y26744238D01*
X19513712Y26660731D01*
X19728258Y26639600D01*
X19871742Y26639600D01*
X20086288Y26660731D01*
X20361575Y26744238D01*
X20615280Y26879847D01*
X20837655Y27062345D01*
X21020153Y27284720D01*
X21155762Y27538425D01*
X21239269Y27813712D01*
X21254662Y27970000D01*
X22266405Y27970000D01*
X22266405Y26370000D01*
X22279156Y26240539D01*
X22316918Y26116053D01*
X22378241Y26001326D01*
X22460767Y25900767D01*
X22561326Y25818241D01*
X22676053Y25756918D01*
X22800539Y25719156D01*
X22930000Y25706405D01*
X23124448Y25706405D01*
X22951711Y25614076D01*
X22883737Y25359947D01*
X23730000Y24513684D01*
X24576263Y25359947D01*
X24508289Y25614076D01*
X24322333Y25706405D01*
X24530000Y25706405D01*
X24659461Y25719156D01*
X24783947Y25756918D01*
X24898674Y25818241D01*
X24999233Y25900767D01*
X25081759Y26001326D01*
X25143082Y26116053D01*
X25180844Y26240539D01*
X25191375Y26347457D01*
X25280053Y26323737D01*
X26126316Y27170000D01*
X26413684Y27170000D01*
X27259947Y26323737D01*
X27514076Y26391711D01*
X27521146Y26405951D01*
X32263195Y26405951D01*
X32299973Y26120638D01*
X32391706Y25847982D01*
X32485924Y25671711D01*
X32740053Y25603737D01*
X33586316Y26450000D01*
X32740053Y27296263D01*
X32485924Y27228289D01*
X32357992Y26970627D01*
X32282786Y26692958D01*
X32263195Y26405951D01*
X27521146Y26405951D01*
X27642008Y26649373D01*
X27717214Y26927042D01*
X27736805Y27214049D01*
X27700027Y27499362D01*
X27608294Y27772018D01*
X27514076Y27948289D01*
X27259947Y28016263D01*
X26413684Y27170000D01*
X26126316Y27170000D01*
X25280053Y28016263D01*
X25191375Y27992543D01*
X25180844Y28099461D01*
X25162496Y28159947D01*
X25423737Y28159947D01*
X26270000Y27313684D01*
X27116263Y28159947D01*
X27048289Y28414076D01*
X26790627Y28542008D01*
X26512958Y28617214D01*
X26225951Y28636805D01*
X25940638Y28600027D01*
X25667982Y28508294D01*
X25491711Y28414076D01*
X25423737Y28159947D01*
X25162496Y28159947D01*
X25143082Y28223947D01*
X25081759Y28338674D01*
X24999233Y28439233D01*
X24898674Y28521759D01*
X24783947Y28583082D01*
X24659461Y28620844D01*
X24530000Y28633595D01*
X22930000Y28633595D01*
X22800539Y28620844D01*
X22676053Y28583082D01*
X22561326Y28521759D01*
X22460767Y28439233D01*
X22378241Y28338674D01*
X22316918Y28223947D01*
X22279156Y28099461D01*
X22266405Y27970000D01*
X21254662Y27970000D01*
X21267466Y28100000D01*
X21239269Y28386288D01*
X21155762Y28661575D01*
X21020153Y28915280D01*
X20837655Y29137655D01*
X20615280Y29320153D01*
X20361575Y29455762D01*
X20086288Y29539269D01*
X19871742Y29560400D01*
X19728258Y29560400D01*
X19513712Y29539269D01*
X19238425Y29455762D01*
X18984720Y29320153D01*
X18762345Y29137655D01*
X18579847Y28915280D01*
X18444238Y28661575D01*
X18360731Y28386288D01*
X18332534Y28100000D01*
X11100400Y28100000D01*
X11100400Y28243837D01*
X11044277Y28525983D01*
X10934189Y28791759D01*
X10774367Y29030951D01*
X10570951Y29234367D01*
X10331759Y29394189D01*
X10065983Y29504277D01*
X9783837Y29560400D01*
X9578187Y29560400D01*
X10096311Y29950842D01*
X10270150Y30050000D01*
X32266405Y30050000D01*
X32266405Y28450000D01*
X32279156Y28320539D01*
X32316918Y28196053D01*
X32378241Y28081326D01*
X32460767Y27980767D01*
X32561326Y27898241D01*
X32676053Y27836918D01*
X32800539Y27799156D01*
X32930000Y27786405D01*
X33124448Y27786405D01*
X32951711Y27694076D01*
X32883737Y27439947D01*
X33730000Y26593684D01*
X34576263Y27439947D01*
X34508289Y27694076D01*
X34322333Y27786405D01*
X34530000Y27786405D01*
X34659461Y27799156D01*
X34783947Y27836918D01*
X34898674Y27898241D01*
X34999233Y27980767D01*
X35081759Y28081326D01*
X35143082Y28196053D01*
X35169975Y28284707D01*
X35339049Y28115633D01*
X35578241Y27955811D01*
X35833691Y27850000D01*
X35578241Y27744189D01*
X35339049Y27584367D01*
X35135633Y27380951D01*
X35000543Y27178773D01*
X34974076Y27228289D01*
X34719947Y27296263D01*
X33873684Y26450000D01*
X34719947Y25603737D01*
X34974076Y25671711D01*
X34999463Y25722843D01*
X35135633Y25519049D01*
X35339049Y25315633D01*
X35578241Y25155811D01*
X35844017Y25045723D01*
X36126163Y24989600D01*
X36413837Y24989600D01*
X36695983Y25045723D01*
X36961759Y25155811D01*
X37200951Y25315633D01*
X37404367Y25519049D01*
X37564189Y25758241D01*
X37674277Y26024017D01*
X37730400Y26306163D01*
X37730400Y26510053D01*
X42853737Y26510053D01*
X42921711Y26255924D01*
X43179373Y26127992D01*
X43457042Y26052786D01*
X43744049Y26033195D01*
X44029362Y26069973D01*
X44302018Y26161706D01*
X44478289Y26255924D01*
X44546263Y26510053D01*
X43700000Y27356316D01*
X42853737Y26510053D01*
X37730400Y26510053D01*
X37730400Y26593837D01*
X37674277Y26875983D01*
X37564189Y27141759D01*
X37404367Y27380951D01*
X37329367Y27455951D01*
X42233195Y27455951D01*
X42269973Y27170638D01*
X42361706Y26897982D01*
X42455924Y26721711D01*
X42710053Y26653737D01*
X43556316Y27500000D01*
X43843684Y27500000D01*
X44689947Y26653737D01*
X44944076Y26721711D01*
X44969463Y26772843D01*
X45105633Y26569049D01*
X45309049Y26365633D01*
X45548241Y26205811D01*
X45814017Y26095723D01*
X46096163Y26039600D01*
X46383837Y26039600D01*
X46665983Y26095723D01*
X46931759Y26205811D01*
X47170951Y26365633D01*
X47315371Y26510053D01*
X52883737Y26510053D01*
X52951711Y26255924D01*
X53209373Y26127992D01*
X53487042Y26052786D01*
X53774049Y26033195D01*
X54059362Y26069973D01*
X54332018Y26161706D01*
X54508289Y26255924D01*
X54576263Y26510053D01*
X53730000Y27356316D01*
X52883737Y26510053D01*
X47315371Y26510053D01*
X47374367Y26569049D01*
X47534189Y26808241D01*
X47644277Y27074017D01*
X47700400Y27356163D01*
X47700400Y27455951D01*
X52263195Y27455951D01*
X52299973Y27170638D01*
X52391706Y26897982D01*
X52485924Y26721711D01*
X52740053Y26653737D01*
X53586316Y27500000D01*
X52740053Y28346263D01*
X52485924Y28278289D01*
X52357992Y28020627D01*
X52282786Y27742958D01*
X52263195Y27455951D01*
X47700400Y27455951D01*
X47700400Y27643837D01*
X47644277Y27925983D01*
X47534189Y28191759D01*
X47374367Y28430951D01*
X47170951Y28634367D01*
X46931759Y28794189D01*
X46668376Y28903286D01*
X46842018Y28961706D01*
X47018289Y29055924D01*
X47086263Y29310053D01*
X46240000Y30156316D01*
X45393737Y29310053D01*
X45461711Y29055924D01*
X45719373Y28927992D01*
X45811216Y28903117D01*
X45548241Y28794189D01*
X45309049Y28634367D01*
X45105633Y28430951D01*
X44970543Y28228773D01*
X44944076Y28278289D01*
X44689947Y28346263D01*
X43843684Y27500000D01*
X43556316Y27500000D01*
X42710053Y28346263D01*
X42455924Y28278289D01*
X42327992Y28020627D01*
X42252786Y27742958D01*
X42233195Y27455951D01*
X37329367Y27455951D01*
X37200951Y27584367D01*
X36961759Y27744189D01*
X36706309Y27850000D01*
X36961759Y27955811D01*
X37200951Y28115633D01*
X37404367Y28319049D01*
X37564189Y28558241D01*
X37674277Y28824017D01*
X37730400Y29106163D01*
X37730400Y29393837D01*
X37674277Y29675983D01*
X37564189Y29941759D01*
X37404367Y30180951D01*
X37200951Y30384367D01*
X36961759Y30544189D01*
X36695983Y30654277D01*
X36413837Y30710400D01*
X36126163Y30710400D01*
X35844017Y30654277D01*
X35578241Y30544189D01*
X35339049Y30384367D01*
X35169975Y30215293D01*
X35143082Y30303947D01*
X35081759Y30418674D01*
X34999233Y30519233D01*
X34898674Y30601759D01*
X34783947Y30663082D01*
X34659461Y30700844D01*
X34530000Y30713595D01*
X32930000Y30713595D01*
X32800539Y30700844D01*
X32676053Y30663082D01*
X32561326Y30601759D01*
X32460767Y30519233D01*
X32378241Y30418674D01*
X32316918Y30303947D01*
X32279156Y30179461D01*
X32266405Y30050000D01*
X10270150Y30050000D01*
X11089782Y30517519D01*
X11772171Y30816364D01*
X12561458Y31100000D01*
X42236405Y31100000D01*
X42236405Y29500000D01*
X42249156Y29370539D01*
X42286918Y29246053D01*
X42348241Y29131326D01*
X42430767Y29030767D01*
X42531326Y28948241D01*
X42646053Y28886918D01*
X42770539Y28849156D01*
X42900000Y28836405D01*
X43094448Y28836405D01*
X42921711Y28744076D01*
X42853737Y28489947D01*
X43700000Y27643684D01*
X44546263Y28489947D01*
X44478289Y28744076D01*
X44292333Y28836405D01*
X44500000Y28836405D01*
X44629461Y28849156D01*
X44753947Y28886918D01*
X44868674Y28948241D01*
X44969233Y29030767D01*
X45051759Y29131326D01*
X45113082Y29246053D01*
X45150844Y29370539D01*
X45161375Y29477457D01*
X45250053Y29453737D01*
X46096316Y30300000D01*
X46383684Y30300000D01*
X47229947Y29453737D01*
X47484076Y29521711D01*
X47612008Y29779373D01*
X47687214Y30057042D01*
X47706805Y30344049D01*
X47670027Y30629362D01*
X47578294Y30902018D01*
X47484076Y31078289D01*
X47402907Y31100000D01*
X52266405Y31100000D01*
X52266405Y29500000D01*
X52279156Y29370539D01*
X52316918Y29246053D01*
X52378241Y29131326D01*
X52460767Y29030767D01*
X52561326Y28948241D01*
X52676053Y28886918D01*
X52800539Y28849156D01*
X52930000Y28836405D01*
X53124448Y28836405D01*
X52951711Y28744076D01*
X52883737Y28489947D01*
X53730000Y27643684D01*
X54576263Y28489947D01*
X54508289Y28744076D01*
X54322333Y28836405D01*
X54530000Y28836405D01*
X54659461Y28849156D01*
X54783947Y28886918D01*
X54898674Y28948241D01*
X54999233Y29030767D01*
X55081759Y29131326D01*
X55143082Y29246053D01*
X55169975Y29334707D01*
X55339049Y29165633D01*
X55578241Y29005811D01*
X55833691Y28900000D01*
X55578241Y28794189D01*
X55339049Y28634367D01*
X55135633Y28430951D01*
X55000543Y28228773D01*
X54974076Y28278289D01*
X54719947Y28346263D01*
X53873684Y27500000D01*
X54719947Y26653737D01*
X54974076Y26721711D01*
X54999463Y26772843D01*
X55135633Y26569049D01*
X55339049Y26365633D01*
X55578241Y26205811D01*
X55844017Y26095723D01*
X56126163Y26039600D01*
X56413837Y26039600D01*
X56695983Y26095723D01*
X56961759Y26205811D01*
X57200951Y26365633D01*
X57241269Y26405951D01*
X62263195Y26405951D01*
X62299973Y26120638D01*
X62391706Y25847982D01*
X62485924Y25671711D01*
X62740053Y25603737D01*
X63586316Y26450000D01*
X63873684Y26450000D01*
X64719947Y25603737D01*
X64974076Y25671711D01*
X64999463Y25722843D01*
X65135633Y25519049D01*
X65339049Y25315633D01*
X65578241Y25155811D01*
X65844017Y25045723D01*
X66126163Y24989600D01*
X66413837Y24989600D01*
X66695983Y25045723D01*
X66961759Y25155811D01*
X67200951Y25315633D01*
X67404367Y25519049D01*
X67564189Y25758241D01*
X67674277Y26024017D01*
X67730400Y26306163D01*
X67730400Y26593837D01*
X67674277Y26875983D01*
X67564189Y27141759D01*
X67404367Y27380951D01*
X67200951Y27584367D01*
X66961759Y27744189D01*
X66698376Y27853286D01*
X66872018Y27911706D01*
X66981079Y27970000D01*
X72266405Y27970000D01*
X72266405Y26370000D01*
X72279156Y26240539D01*
X72316918Y26116053D01*
X72378241Y26001326D01*
X72460767Y25900767D01*
X72561326Y25818241D01*
X72676053Y25756918D01*
X72800539Y25719156D01*
X72930000Y25706405D01*
X73124448Y25706405D01*
X72951711Y25614076D01*
X72883737Y25359947D01*
X73730000Y24513684D01*
X74576263Y25359947D01*
X74508289Y25614076D01*
X74322333Y25706405D01*
X74530000Y25706405D01*
X74659461Y25719156D01*
X74783947Y25756918D01*
X74898674Y25818241D01*
X74999233Y25900767D01*
X75081759Y26001326D01*
X75143082Y26116053D01*
X75169975Y26204707D01*
X75339049Y26035633D01*
X75578241Y25875811D01*
X75833691Y25770000D01*
X75578241Y25664189D01*
X75339049Y25504367D01*
X75135633Y25300951D01*
X75000543Y25098773D01*
X74974076Y25148289D01*
X74719947Y25216263D01*
X73873684Y24370000D01*
X74719947Y23523737D01*
X74974076Y23591711D01*
X74999463Y23642843D01*
X75135633Y23439049D01*
X75339049Y23235633D01*
X75578241Y23075811D01*
X75844017Y22965723D01*
X76126163Y22909600D01*
X76413837Y22909600D01*
X76695983Y22965723D01*
X76961759Y23075811D01*
X77200951Y23235633D01*
X77404367Y23439049D01*
X77564189Y23678241D01*
X77674277Y23944017D01*
X77730400Y24226163D01*
X77730400Y24513837D01*
X77683424Y24750000D01*
X82266405Y24750000D01*
X82266405Y23150000D01*
X82279156Y23020539D01*
X82316918Y22896053D01*
X82378241Y22781326D01*
X82460767Y22680767D01*
X82561326Y22598241D01*
X82676053Y22536918D01*
X82800539Y22499156D01*
X82930000Y22486405D01*
X83124448Y22486405D01*
X82951711Y22394076D01*
X82883737Y22139947D01*
X83730000Y21293684D01*
X84576263Y22139947D01*
X84508289Y22394076D01*
X84322333Y22486405D01*
X84530000Y22486405D01*
X84659461Y22499156D01*
X84783947Y22536918D01*
X84898674Y22598241D01*
X84999233Y22680767D01*
X85081759Y22781326D01*
X85143082Y22896053D01*
X85180844Y23020539D01*
X85191375Y23127457D01*
X85280053Y23103737D01*
X86126316Y23950000D01*
X86413684Y23950000D01*
X87259947Y23103737D01*
X87514076Y23171711D01*
X87642008Y23429373D01*
X87717214Y23707042D01*
X87736805Y23994049D01*
X87700027Y24279362D01*
X87608294Y24552018D01*
X87514076Y24728289D01*
X87259947Y24796263D01*
X86413684Y23950000D01*
X86126316Y23950000D01*
X85280053Y24796263D01*
X85191375Y24772543D01*
X85180844Y24879461D01*
X85162496Y24939947D01*
X85423737Y24939947D01*
X86270000Y24093684D01*
X87116263Y24939947D01*
X87048289Y25194076D01*
X86790627Y25322008D01*
X86512958Y25397214D01*
X86225951Y25416805D01*
X85940638Y25380027D01*
X85667982Y25288294D01*
X85491711Y25194076D01*
X85423737Y24939947D01*
X85162496Y24939947D01*
X85143082Y25003947D01*
X85081759Y25118674D01*
X84999233Y25219233D01*
X84898674Y25301759D01*
X84783947Y25363082D01*
X84659461Y25400844D01*
X84530000Y25413595D01*
X82930000Y25413595D01*
X82800539Y25400844D01*
X82676053Y25363082D01*
X82561326Y25301759D01*
X82460767Y25219233D01*
X82378241Y25118674D01*
X82316918Y25003947D01*
X82279156Y24879461D01*
X82266405Y24750000D01*
X77683424Y24750000D01*
X77674277Y24795983D01*
X77564189Y25061759D01*
X77404367Y25300951D01*
X77200951Y25504367D01*
X76961759Y25664189D01*
X76706309Y25770000D01*
X76961759Y25875811D01*
X77200951Y26035633D01*
X77404367Y26239049D01*
X77564189Y26478241D01*
X77674277Y26744017D01*
X77730400Y27026163D01*
X77730400Y27313837D01*
X77674277Y27595983D01*
X77564189Y27861759D01*
X77404367Y28100951D01*
X77261481Y28243837D01*
X78639600Y28243837D01*
X78639600Y27956163D01*
X78695723Y27674017D01*
X78805811Y27408241D01*
X78965633Y27169049D01*
X79169049Y26965633D01*
X79408241Y26805811D01*
X79674017Y26695723D01*
X79956163Y26639600D01*
X80243837Y26639600D01*
X80525983Y26695723D01*
X80791759Y26805811D01*
X81030951Y26965633D01*
X81234367Y27169049D01*
X81394189Y27408241D01*
X81504277Y27674017D01*
X81560400Y27956163D01*
X81560400Y28243837D01*
X81504277Y28525983D01*
X81394189Y28791759D01*
X81234367Y29030951D01*
X81030951Y29234367D01*
X80791759Y29394189D01*
X80525983Y29504277D01*
X80243837Y29560400D01*
X79956163Y29560400D01*
X79674017Y29504277D01*
X79408241Y29394189D01*
X79169049Y29234367D01*
X78965633Y29030951D01*
X78805811Y28791759D01*
X78695723Y28525983D01*
X78639600Y28243837D01*
X77261481Y28243837D01*
X77200951Y28304367D01*
X76961759Y28464189D01*
X76695983Y28574277D01*
X76413837Y28630400D01*
X76126163Y28630400D01*
X75844017Y28574277D01*
X75578241Y28464189D01*
X75339049Y28304367D01*
X75169975Y28135293D01*
X75143082Y28223947D01*
X75081759Y28338674D01*
X74999233Y28439233D01*
X74898674Y28521759D01*
X74783947Y28583082D01*
X74659461Y28620844D01*
X74530000Y28633595D01*
X72930000Y28633595D01*
X72800539Y28620844D01*
X72676053Y28583082D01*
X72561326Y28521759D01*
X72460767Y28439233D01*
X72378241Y28338674D01*
X72316918Y28223947D01*
X72279156Y28099461D01*
X72266405Y27970000D01*
X66981079Y27970000D01*
X67048289Y28005924D01*
X67116263Y28260053D01*
X66270000Y29106316D01*
X65423737Y28260053D01*
X65491711Y28005924D01*
X65749373Y27877992D01*
X65841216Y27853117D01*
X65578241Y27744189D01*
X65339049Y27584367D01*
X65135633Y27380951D01*
X65000543Y27178773D01*
X64974076Y27228289D01*
X64719947Y27296263D01*
X63873684Y26450000D01*
X63586316Y26450000D01*
X62740053Y27296263D01*
X62485924Y27228289D01*
X62357992Y26970627D01*
X62282786Y26692958D01*
X62263195Y26405951D01*
X57241269Y26405951D01*
X57404367Y26569049D01*
X57564189Y26808241D01*
X57674277Y27074017D01*
X57730400Y27356163D01*
X57730400Y27643837D01*
X57674277Y27925983D01*
X57564189Y28191759D01*
X57404367Y28430951D01*
X57200951Y28634367D01*
X56961759Y28794189D01*
X56706309Y28900000D01*
X56961759Y29005811D01*
X57200951Y29165633D01*
X57404367Y29369049D01*
X57564189Y29608241D01*
X57674277Y29874017D01*
X57709282Y30050000D01*
X62266405Y30050000D01*
X62266405Y28450000D01*
X62279156Y28320539D01*
X62316918Y28196053D01*
X62378241Y28081326D01*
X62460767Y27980767D01*
X62561326Y27898241D01*
X62676053Y27836918D01*
X62800539Y27799156D01*
X62930000Y27786405D01*
X63124448Y27786405D01*
X62951711Y27694076D01*
X62883737Y27439947D01*
X63730000Y26593684D01*
X64576263Y27439947D01*
X64508289Y27694076D01*
X64322333Y27786405D01*
X64530000Y27786405D01*
X64659461Y27799156D01*
X64783947Y27836918D01*
X64898674Y27898241D01*
X64999233Y27980767D01*
X65081759Y28081326D01*
X65143082Y28196053D01*
X65180844Y28320539D01*
X65191375Y28427457D01*
X65280053Y28403737D01*
X66126316Y29250000D01*
X66413684Y29250000D01*
X67259947Y28403737D01*
X67514076Y28471711D01*
X67642008Y28729373D01*
X67717214Y29007042D01*
X67736805Y29294049D01*
X67700027Y29579362D01*
X67608294Y29852018D01*
X67514076Y30028289D01*
X67259947Y30096263D01*
X66413684Y29250000D01*
X66126316Y29250000D01*
X65280053Y30096263D01*
X65191375Y30072543D01*
X65180844Y30179461D01*
X65162496Y30239947D01*
X65423737Y30239947D01*
X66270000Y29393684D01*
X67116263Y30239947D01*
X67048289Y30494076D01*
X66790627Y30622008D01*
X66512958Y30697214D01*
X66225951Y30716805D01*
X65940638Y30680027D01*
X65667982Y30588294D01*
X65491711Y30494076D01*
X65423737Y30239947D01*
X65162496Y30239947D01*
X65143082Y30303947D01*
X65081759Y30418674D01*
X64999233Y30519233D01*
X64898674Y30601759D01*
X64783947Y30663082D01*
X64659461Y30700844D01*
X64530000Y30713595D01*
X62930000Y30713595D01*
X62800539Y30700844D01*
X62676053Y30663082D01*
X62561326Y30601759D01*
X62460767Y30519233D01*
X62378241Y30418674D01*
X62316918Y30303947D01*
X62279156Y30179461D01*
X62266405Y30050000D01*
X57709282Y30050000D01*
X57730400Y30156163D01*
X57730400Y30443837D01*
X57674277Y30725983D01*
X57564189Y30991759D01*
X57404367Y31230951D01*
X57200951Y31434367D01*
X56961759Y31594189D01*
X56695983Y31704277D01*
X56413837Y31760400D01*
X56126163Y31760400D01*
X55844017Y31704277D01*
X55578241Y31594189D01*
X55339049Y31434367D01*
X55169975Y31265293D01*
X55143082Y31353947D01*
X55081759Y31468674D01*
X54999233Y31569233D01*
X54898674Y31651759D01*
X54783947Y31713082D01*
X54659461Y31750844D01*
X54530000Y31763595D01*
X52930000Y31763595D01*
X52800539Y31750844D01*
X52676053Y31713082D01*
X52561326Y31651759D01*
X52460767Y31569233D01*
X52378241Y31468674D01*
X52316918Y31353947D01*
X52279156Y31229461D01*
X52266405Y31100000D01*
X47402907Y31100000D01*
X47229947Y31146263D01*
X46383684Y30300000D01*
X46096316Y30300000D01*
X45250053Y31146263D01*
X45161375Y31122543D01*
X45150844Y31229461D01*
X45132496Y31289947D01*
X45393737Y31289947D01*
X46240000Y30443684D01*
X47086263Y31289947D01*
X47018289Y31544076D01*
X46760627Y31672008D01*
X46482958Y31747214D01*
X46195951Y31766805D01*
X45910638Y31730027D01*
X45637982Y31638294D01*
X45461711Y31544076D01*
X45393737Y31289947D01*
X45132496Y31289947D01*
X45113082Y31353947D01*
X45051759Y31468674D01*
X44969233Y31569233D01*
X44868674Y31651759D01*
X44753947Y31713082D01*
X44629461Y31750844D01*
X44500000Y31763595D01*
X42900000Y31763595D01*
X42770539Y31750844D01*
X42646053Y31713082D01*
X42531326Y31651759D01*
X42430767Y31569233D01*
X42348241Y31468674D01*
X42286918Y31353947D01*
X42249156Y31229461D01*
X42236405Y31100000D01*
X12561458Y31100000D01*
X15640954Y32206638D01*
X18069645Y32975491D01*
X26744771Y32975491D01*
X26782960Y32635032D01*
X26886550Y32308474D01*
X27051596Y32008257D01*
X27271811Y31745815D01*
X27538808Y31531144D01*
X27842416Y31372421D01*
X28171071Y31275693D01*
X28512255Y31244643D01*
X28852972Y31280454D01*
X29180245Y31381761D01*
X29481607Y31544707D01*
X29745580Y31763085D01*
X29962110Y32028576D01*
X30122948Y32331069D01*
X30221969Y32659041D01*
X30252996Y32975491D01*
X69744771Y32975491D01*
X69782960Y32635032D01*
X69886550Y32308474D01*
X70051596Y32008257D01*
X70271811Y31745815D01*
X70538808Y31531144D01*
X70842416Y31372421D01*
X71171071Y31275693D01*
X71512255Y31244643D01*
X71852972Y31280454D01*
X72180245Y31381761D01*
X72481607Y31544707D01*
X72745580Y31763085D01*
X72962110Y32028576D01*
X73122948Y32331069D01*
X73221969Y32659041D01*
X73255400Y33000000D01*
X73254716Y33049014D01*
X73211777Y33388906D01*
X73103638Y33713986D01*
X72934416Y34011869D01*
X72710558Y34271211D01*
X72440590Y34482133D01*
X72134796Y34636601D01*
X71804822Y34728732D01*
X71463238Y34755015D01*
X71123054Y34714451D01*
X70797227Y34608583D01*
X70498169Y34441445D01*
X70237271Y34219403D01*
X70024469Y33950915D01*
X69867870Y33646206D01*
X69773439Y33316883D01*
X69744771Y32975491D01*
X30252996Y32975491D01*
X30255400Y33000000D01*
X30254716Y33049014D01*
X30211777Y33388906D01*
X30103638Y33713986D01*
X29934416Y34011869D01*
X29710558Y34271211D01*
X29440590Y34482133D01*
X29134796Y34636601D01*
X28804822Y34728732D01*
X28463238Y34755015D01*
X28123054Y34714451D01*
X27797227Y34608583D01*
X27498169Y34441445D01*
X27237271Y34219403D01*
X27024469Y33950915D01*
X26867870Y33646206D01*
X26773439Y33316883D01*
X26744771Y32975491D01*
X18069645Y32975491D01*
X19570567Y33450639D01*
X23545059Y34542878D01*
X25259098Y34943837D01*
X33039600Y34943837D01*
X33039600Y34656163D01*
X33095723Y34374017D01*
X33205811Y34108241D01*
X33365633Y33869049D01*
X33569049Y33665633D01*
X33808241Y33505811D01*
X34074017Y33395723D01*
X34356163Y33339600D01*
X34643837Y33339600D01*
X34925983Y33395723D01*
X35191759Y33505811D01*
X35430951Y33665633D01*
X35634367Y33869049D01*
X35794189Y34108241D01*
X35904277Y34374017D01*
X35960400Y34656163D01*
X35960400Y34800000D01*
X43192534Y34800000D01*
X43220731Y34513712D01*
X43304238Y34238425D01*
X43439847Y33984720D01*
X43622345Y33762345D01*
X43844720Y33579847D01*
X44098425Y33444238D01*
X44373712Y33360731D01*
X44588258Y33339600D01*
X44731742Y33339600D01*
X44946288Y33360731D01*
X45221575Y33444238D01*
X45475280Y33579847D01*
X45697655Y33762345D01*
X45880153Y33984720D01*
X46015762Y34238425D01*
X46099269Y34513712D01*
X46127466Y34800000D01*
X46113300Y34943837D01*
X54379600Y34943837D01*
X54379600Y34656163D01*
X54435723Y34374017D01*
X54545811Y34108241D01*
X54705633Y33869049D01*
X54909049Y33665633D01*
X55148241Y33505811D01*
X55414017Y33395723D01*
X55696163Y33339600D01*
X55983837Y33339600D01*
X56265983Y33395723D01*
X56531759Y33505811D01*
X56770951Y33665633D01*
X56974367Y33869049D01*
X57134189Y34108241D01*
X57244277Y34374017D01*
X57300400Y34656163D01*
X57300400Y34800000D01*
X64532534Y34800000D01*
X64560731Y34513712D01*
X64644238Y34238425D01*
X64779847Y33984720D01*
X64962345Y33762345D01*
X65184720Y33579847D01*
X65438425Y33444238D01*
X65713712Y33360731D01*
X65928258Y33339600D01*
X66071742Y33339600D01*
X66286288Y33360731D01*
X66561575Y33444238D01*
X66815280Y33579847D01*
X67037655Y33762345D01*
X67220153Y33984720D01*
X67355762Y34238425D01*
X67439269Y34513712D01*
X67467466Y34800000D01*
X67439269Y35086288D01*
X67355762Y35361575D01*
X67220153Y35615280D01*
X67037655Y35837655D01*
X66815280Y36020153D01*
X66561575Y36155762D01*
X66286288Y36239269D01*
X66071742Y36260400D01*
X65928258Y36260400D01*
X65713712Y36239269D01*
X65438425Y36155762D01*
X65184720Y36020153D01*
X64962345Y35837655D01*
X64779847Y35615280D01*
X64644238Y35361575D01*
X64560731Y35086288D01*
X64532534Y34800000D01*
X57300400Y34800000D01*
X57300400Y34943837D01*
X57244277Y35225983D01*
X57134189Y35491759D01*
X56974367Y35730951D01*
X56770951Y35934367D01*
X56531759Y36094189D01*
X56265983Y36204277D01*
X55983837Y36260400D01*
X55696163Y36260400D01*
X55414017Y36204277D01*
X55148241Y36094189D01*
X54909049Y35934367D01*
X54705633Y35730951D01*
X54545811Y35491759D01*
X54435723Y35225983D01*
X54379600Y34943837D01*
X46113300Y34943837D01*
X46099269Y35086288D01*
X46015762Y35361575D01*
X45880153Y35615280D01*
X45697655Y35837655D01*
X45475280Y36020153D01*
X45221575Y36155762D01*
X44946288Y36239269D01*
X44731742Y36260400D01*
X44588258Y36260400D01*
X44373712Y36239269D01*
X44098425Y36155762D01*
X43844720Y36020153D01*
X43622345Y35837655D01*
X43439847Y35615280D01*
X43304238Y35361575D01*
X43220731Y35086288D01*
X43192534Y34800000D01*
X35960400Y34800000D01*
X35960400Y34943837D01*
X35904277Y35225983D01*
X35794189Y35491759D01*
X35634367Y35730951D01*
X35430951Y35934367D01*
X35191759Y36094189D01*
X34925983Y36204277D01*
X34643837Y36260400D01*
X34356163Y36260400D01*
X34074017Y36204277D01*
X33808241Y36094189D01*
X33569049Y35934367D01*
X33365633Y35730951D01*
X33205811Y35491759D01*
X33095723Y35225983D01*
X33039600Y34943837D01*
X25259098Y34943837D01*
X27558548Y35481739D01*
X31605099Y36265836D01*
X35678767Y36894016D01*
X39773553Y37365354D01*
X43883444Y37679158D01*
X48002293Y37834960D01*
X52124143Y37832531D01*
G04 #@! TD*
M02*
