G04 #@! TF.FileFunction,Legend,Top*
%FSLAX46Y46*%
G04 Gerber Fmt 4.6, Leading zero omitted, Abs format (unit mm)*
G04 Created by KiCad (PCBNEW 4.0.7+dfsg1-1ubuntu2) date Sun Aug 19 23:35:29 2018*
%MOMM*%
%LPD*%
G01*
G04 APERTURE LIST*
%ADD10C,0.100000*%
%ADD11C,0.150000*%
%ADD12C,0.200000*%
%ADD13C,0.120000*%
%ADD14R,2.000000X2.000000*%
%ADD15O,2.000000X2.000000*%
%ADD16R,2.200000X2.200000*%
%ADD17C,2.200000*%
%ADD18R,2.350000X2.100000*%
%ADD19O,2.350000X2.100000*%
%ADD20R,1.750000X1.750000*%
%ADD21O,1.750000X1.750000*%
%ADD22R,2.100000X2.100000*%
%ADD23O,2.100000X2.100000*%
%ADD24R,1.900000X1.400000*%
%ADD25C,2.000000*%
%ADD26R,1.800000X1.800000*%
%ADD27C,1.800000*%
%ADD28C,2.400000*%
%ADD29R,2.000000X2.800000*%
%ADD30O,2.000000X2.800000*%
%ADD31O,2.200000X2.200000*%
G04 APERTURE END LIST*
D10*
D11*
X20452381Y27542857D02*
X20404762Y27495238D01*
X20261905Y27447619D01*
X20166667Y27447619D01*
X20023809Y27495238D01*
X19928571Y27590476D01*
X19880952Y27685714D01*
X19833333Y27876190D01*
X19833333Y28019048D01*
X19880952Y28209524D01*
X19928571Y28304762D01*
X20023809Y28400000D01*
X20166667Y28447619D01*
X20261905Y28447619D01*
X20404762Y28400000D01*
X20452381Y28352381D01*
X20833333Y27733333D02*
X21309524Y27733333D01*
X20738095Y27447619D02*
X21071428Y28447619D01*
X21404762Y27447619D01*
X21738095Y27447619D02*
X21738095Y28447619D01*
X22071429Y27733333D01*
X22404762Y28447619D01*
X22404762Y27447619D01*
X22833333Y27733333D02*
X23309524Y27733333D01*
X22738095Y27447619D02*
X23071428Y28447619D01*
X23404762Y27447619D01*
X24309524Y27447619D02*
X23976190Y27923810D01*
X23738095Y27447619D02*
X23738095Y28447619D01*
X24119048Y28447619D01*
X24214286Y28400000D01*
X24261905Y28352381D01*
X24309524Y28257143D01*
X24309524Y28114286D01*
X24261905Y28019048D01*
X24214286Y27971429D01*
X24119048Y27923810D01*
X23738095Y27923810D01*
X24690476Y27733333D02*
X25166667Y27733333D01*
X24595238Y27447619D02*
X24928571Y28447619D01*
X25261905Y27447619D01*
X12752381Y39833333D02*
X11752381Y39833333D01*
X11752381Y40071428D01*
X11800000Y40214286D01*
X11895238Y40309524D01*
X11990476Y40357143D01*
X12180952Y40404762D01*
X12323810Y40404762D01*
X12514286Y40357143D01*
X12609524Y40309524D01*
X12704762Y40214286D01*
X12752381Y40071428D01*
X12752381Y39833333D01*
X12657143Y41404762D02*
X12704762Y41357143D01*
X12752381Y41214286D01*
X12752381Y41119048D01*
X12704762Y40976190D01*
X12609524Y40880952D01*
X12514286Y40833333D01*
X12323810Y40785714D01*
X12180952Y40785714D01*
X11990476Y40833333D01*
X11895238Y40880952D01*
X11800000Y40976190D01*
X11752381Y41119048D01*
X11752381Y41214286D01*
X11800000Y41357143D01*
X11847619Y41404762D01*
X12371429Y41833333D02*
X12371429Y42595238D01*
X12752381Y43071428D02*
X11752381Y43071428D01*
X11752381Y43309523D01*
X11800000Y43452381D01*
X11895238Y43547619D01*
X11990476Y43595238D01*
X12180952Y43642857D01*
X12323810Y43642857D01*
X12514286Y43595238D01*
X12609524Y43547619D01*
X12704762Y43452381D01*
X12752381Y43309523D01*
X12752381Y43071428D01*
X12657143Y44642857D02*
X12704762Y44595238D01*
X12752381Y44452381D01*
X12752381Y44357143D01*
X12704762Y44214285D01*
X12609524Y44119047D01*
X12514286Y44071428D01*
X12323810Y44023809D01*
X12180952Y44023809D01*
X11990476Y44071428D01*
X11895238Y44119047D01*
X11800000Y44214285D01*
X11752381Y44357143D01*
X11752381Y44452381D01*
X11800000Y44595238D01*
X11847619Y44642857D01*
X12847619Y44833333D02*
X12847619Y45595238D01*
X11752381Y46309524D02*
X11752381Y45833333D01*
X12228571Y45785714D01*
X12180952Y45833333D01*
X12133333Y45928571D01*
X12133333Y46166667D01*
X12180952Y46261905D01*
X12228571Y46309524D01*
X12323810Y46357143D01*
X12561905Y46357143D01*
X12657143Y46309524D01*
X12704762Y46261905D01*
X12752381Y46166667D01*
X12752381Y45928571D01*
X12704762Y45833333D01*
X12657143Y45785714D01*
X11752381Y46642857D02*
X12752381Y46976190D01*
X11752381Y47309524D01*
X22552381Y54423810D02*
X21552381Y54423810D01*
X21552381Y54661905D01*
X21600000Y54804763D01*
X21695238Y54900001D01*
X21790476Y54947620D01*
X21980952Y54995239D01*
X22123810Y54995239D01*
X22314286Y54947620D01*
X22409524Y54900001D01*
X22504762Y54804763D01*
X22552381Y54661905D01*
X22552381Y54423810D01*
X22552381Y55423810D02*
X21552381Y55423810D01*
X22504762Y55852381D02*
X22552381Y55995238D01*
X22552381Y56233334D01*
X22504762Y56328572D01*
X22457143Y56376191D01*
X22361905Y56423810D01*
X22266667Y56423810D01*
X22171429Y56376191D01*
X22123810Y56328572D01*
X22076190Y56233334D01*
X22028571Y56042857D01*
X21980952Y55947619D01*
X21933333Y55900000D01*
X21838095Y55852381D01*
X21742857Y55852381D01*
X21647619Y55900000D01*
X21600000Y55947619D01*
X21552381Y56042857D01*
X21552381Y56280953D01*
X21600000Y56423810D01*
X21552381Y56709524D02*
X21552381Y57280953D01*
X22552381Y56995238D02*
X21552381Y56995238D01*
X22647619Y57376191D02*
X22647619Y58138096D01*
X22552381Y58376191D02*
X21552381Y58376191D01*
X21552381Y58757143D02*
X21552381Y59423810D01*
X22552381Y58757143D01*
X22552381Y59423810D01*
X22647619Y60471429D02*
X22600000Y60376191D01*
X22504762Y60280953D01*
X22361905Y60138096D01*
X22314286Y60042857D01*
X22314286Y59947619D01*
X22552381Y59995238D02*
X22504762Y59900000D01*
X22409524Y59804762D01*
X22219048Y59757143D01*
X21885714Y59757143D01*
X21695238Y59804762D01*
X21600000Y59900000D01*
X21552381Y59995238D01*
X21552381Y60185715D01*
X21600000Y60280953D01*
X21695238Y60376191D01*
X21885714Y60423810D01*
X22219048Y60423810D01*
X22409524Y60376191D01*
X22504762Y60280953D01*
X22552381Y60185715D01*
X22552381Y59995238D01*
X43880952Y83495238D02*
X44023809Y83447619D01*
X44261905Y83447619D01*
X44357143Y83495238D01*
X44404762Y83542857D01*
X44452381Y83638095D01*
X44452381Y83733333D01*
X44404762Y83828571D01*
X44357143Y83876190D01*
X44261905Y83923810D01*
X44071428Y83971429D01*
X43976190Y84019048D01*
X43928571Y84066667D01*
X43880952Y84161905D01*
X43880952Y84257143D01*
X43928571Y84352381D01*
X43976190Y84400000D01*
X44071428Y84447619D01*
X44309524Y84447619D01*
X44452381Y84400000D01*
X44880952Y83971429D02*
X45214286Y83971429D01*
X45357143Y83447619D02*
X44880952Y83447619D01*
X44880952Y84447619D01*
X45357143Y84447619D01*
X45785714Y83447619D02*
X45785714Y84447619D01*
X46357143Y83447619D01*
X46357143Y84447619D01*
X46785714Y83495238D02*
X46928571Y83447619D01*
X47166667Y83447619D01*
X47261905Y83495238D01*
X47309524Y83542857D01*
X47357143Y83638095D01*
X47357143Y83733333D01*
X47309524Y83828571D01*
X47261905Y83876190D01*
X47166667Y83923810D01*
X46976190Y83971429D01*
X46880952Y84019048D01*
X46833333Y84066667D01*
X46785714Y84161905D01*
X46785714Y84257143D01*
X46833333Y84352381D01*
X46880952Y84400000D01*
X46976190Y84447619D01*
X47214286Y84447619D01*
X47357143Y84400000D01*
X47976190Y84447619D02*
X48166667Y84447619D01*
X48261905Y84400000D01*
X48357143Y84304762D01*
X48404762Y84114286D01*
X48404762Y83780952D01*
X48357143Y83590476D01*
X48261905Y83495238D01*
X48166667Y83447619D01*
X47976190Y83447619D01*
X47880952Y83495238D01*
X47785714Y83590476D01*
X47738095Y83780952D01*
X47738095Y84114286D01*
X47785714Y84304762D01*
X47880952Y84400000D01*
X47976190Y84447619D01*
X49404762Y83447619D02*
X49071428Y83923810D01*
X48833333Y83447619D02*
X48833333Y84447619D01*
X49214286Y84447619D01*
X49309524Y84400000D01*
X49357143Y84352381D01*
X49404762Y84257143D01*
X49404762Y84114286D01*
X49357143Y84019048D01*
X49309524Y83971429D01*
X49214286Y83923810D01*
X48833333Y83923810D01*
X49833333Y83971429D02*
X50166667Y83971429D01*
X50309524Y83447619D02*
X49833333Y83447619D01*
X49833333Y84447619D01*
X50309524Y84447619D01*
X50690476Y83495238D02*
X50833333Y83447619D01*
X51071429Y83447619D01*
X51166667Y83495238D01*
X51214286Y83542857D01*
X51261905Y83638095D01*
X51261905Y83733333D01*
X51214286Y83828571D01*
X51166667Y83876190D01*
X51071429Y83923810D01*
X50880952Y83971429D01*
X50785714Y84019048D01*
X50738095Y84066667D01*
X50690476Y84161905D01*
X50690476Y84257143D01*
X50738095Y84352381D01*
X50785714Y84400000D01*
X50880952Y84447619D01*
X51119048Y84447619D01*
X51261905Y84400000D01*
X51452381Y83352381D02*
X52214286Y83352381D01*
X52928572Y83447619D02*
X52452381Y83447619D01*
X52452381Y84447619D01*
X53261905Y83447619D02*
X53261905Y84447619D01*
X53738095Y83447619D02*
X53738095Y84447619D01*
X54309524Y83447619D01*
X54309524Y84447619D01*
X54785714Y83971429D02*
X55119048Y83971429D01*
X55261905Y83447619D02*
X54785714Y83447619D01*
X54785714Y84447619D01*
X55261905Y84447619D01*
X55642857Y83733333D02*
X56119048Y83733333D01*
X55547619Y83447619D02*
X55880952Y84447619D01*
X56214286Y83447619D01*
X45904762Y78347619D02*
X45904762Y79347619D01*
X46142857Y79347619D01*
X46285715Y79300000D01*
X46380953Y79204762D01*
X46428572Y79109524D01*
X46476191Y78919048D01*
X46476191Y78776190D01*
X46428572Y78585714D01*
X46380953Y78490476D01*
X46285715Y78395238D01*
X46142857Y78347619D01*
X45904762Y78347619D01*
X46904762Y78347619D02*
X46904762Y79347619D01*
X47333333Y78395238D02*
X47476190Y78347619D01*
X47714286Y78347619D01*
X47809524Y78395238D01*
X47857143Y78442857D01*
X47904762Y78538095D01*
X47904762Y78633333D01*
X47857143Y78728571D01*
X47809524Y78776190D01*
X47714286Y78823810D01*
X47523809Y78871429D01*
X47428571Y78919048D01*
X47380952Y78966667D01*
X47333333Y79061905D01*
X47333333Y79157143D01*
X47380952Y79252381D01*
X47428571Y79300000D01*
X47523809Y79347619D01*
X47761905Y79347619D01*
X47904762Y79300000D01*
X48190476Y79347619D02*
X48761905Y79347619D01*
X48476190Y78347619D02*
X48476190Y79347619D01*
X48857143Y78252381D02*
X49619048Y78252381D01*
X50190477Y78871429D02*
X49857143Y78871429D01*
X49857143Y78347619D02*
X49857143Y79347619D01*
X50333334Y79347619D01*
X51285715Y78347619D02*
X50952381Y78823810D01*
X50714286Y78347619D02*
X50714286Y79347619D01*
X51095239Y79347619D01*
X51190477Y79300000D01*
X51238096Y79252381D01*
X51285715Y79157143D01*
X51285715Y79014286D01*
X51238096Y78919048D01*
X51190477Y78871429D01*
X51095239Y78823810D01*
X50714286Y78823810D01*
X51904762Y79347619D02*
X52095239Y79347619D01*
X52190477Y79300000D01*
X52285715Y79204762D01*
X52333334Y79014286D01*
X52333334Y78680952D01*
X52285715Y78490476D01*
X52190477Y78395238D01*
X52095239Y78347619D01*
X51904762Y78347619D01*
X51809524Y78395238D01*
X51714286Y78490476D01*
X51666667Y78680952D01*
X51666667Y79014286D01*
X51714286Y79204762D01*
X51809524Y79300000D01*
X51904762Y79347619D01*
X52761905Y78347619D02*
X52761905Y79347619D01*
X53333334Y78347619D01*
X53333334Y79347619D01*
X53666667Y79347619D02*
X54238096Y79347619D01*
X53952381Y78347619D02*
X53952381Y79347619D01*
X78452381Y53809524D02*
X77452381Y53809524D01*
X77452381Y54047619D01*
X77500000Y54190477D01*
X77595238Y54285715D01*
X77690476Y54333334D01*
X77880952Y54380953D01*
X78023810Y54380953D01*
X78214286Y54333334D01*
X78309524Y54285715D01*
X78404762Y54190477D01*
X78452381Y54047619D01*
X78452381Y53809524D01*
X78452381Y54809524D02*
X77452381Y54809524D01*
X78404762Y55238095D02*
X78452381Y55380952D01*
X78452381Y55619048D01*
X78404762Y55714286D01*
X78357143Y55761905D01*
X78261905Y55809524D01*
X78166667Y55809524D01*
X78071429Y55761905D01*
X78023810Y55714286D01*
X77976190Y55619048D01*
X77928571Y55428571D01*
X77880952Y55333333D01*
X77833333Y55285714D01*
X77738095Y55238095D01*
X77642857Y55238095D01*
X77547619Y55285714D01*
X77500000Y55333333D01*
X77452381Y55428571D01*
X77452381Y55666667D01*
X77500000Y55809524D01*
X77452381Y56095238D02*
X77452381Y56666667D01*
X78452381Y56380952D02*
X77452381Y56380952D01*
X78547619Y56761905D02*
X78547619Y57523810D01*
X78452381Y57761905D02*
X77452381Y57761905D01*
X77452381Y58000000D01*
X77500000Y58142858D01*
X77595238Y58238096D01*
X77690476Y58285715D01*
X77880952Y58333334D01*
X78023810Y58333334D01*
X78214286Y58285715D01*
X78309524Y58238096D01*
X78404762Y58142858D01*
X78452381Y58000000D01*
X78452381Y57761905D01*
X78357143Y59333334D02*
X78404762Y59285715D01*
X78452381Y59142858D01*
X78452381Y59047620D01*
X78404762Y58904762D01*
X78309524Y58809524D01*
X78214286Y58761905D01*
X78023810Y58714286D01*
X77880952Y58714286D01*
X77690476Y58761905D01*
X77595238Y58809524D01*
X77500000Y58904762D01*
X77452381Y59047620D01*
X77452381Y59142858D01*
X77500000Y59285715D01*
X77547619Y59333334D01*
X78452381Y59761905D02*
X77452381Y59761905D01*
X77928571Y59761905D02*
X77928571Y60333334D01*
X78452381Y60333334D02*
X77452381Y60333334D01*
X78166667Y60761905D02*
X78166667Y61238096D01*
X78452381Y60666667D02*
X77452381Y61000000D01*
X78452381Y61333334D01*
X73842857Y32447619D02*
X73842857Y33447619D01*
X73842857Y32971429D02*
X74414286Y32971429D01*
X74414286Y32447619D02*
X74414286Y33447619D01*
X75461905Y32542857D02*
X75414286Y32495238D01*
X75271429Y32447619D01*
X75176191Y32447619D01*
X75033333Y32495238D01*
X74938095Y32590476D01*
X74890476Y32685714D01*
X74842857Y32876190D01*
X74842857Y33019048D01*
X74890476Y33209524D01*
X74938095Y33304762D01*
X75033333Y33400000D01*
X75176191Y33447619D01*
X75271429Y33447619D01*
X75414286Y33400000D01*
X75461905Y33352381D01*
X75890476Y32828571D02*
X76652381Y32828571D01*
X77319047Y33447619D02*
X77414286Y33447619D01*
X77509524Y33400000D01*
X77557143Y33352381D01*
X77604762Y33257143D01*
X77652381Y33066667D01*
X77652381Y32828571D01*
X77604762Y32638095D01*
X77557143Y32542857D01*
X77509524Y32495238D01*
X77414286Y32447619D01*
X77319047Y32447619D01*
X77223809Y32495238D01*
X77176190Y32542857D01*
X77128571Y32638095D01*
X77080952Y32828571D01*
X77080952Y33066667D01*
X77128571Y33257143D01*
X77176190Y33352381D01*
X77223809Y33400000D01*
X77319047Y33447619D01*
X78557143Y33447619D02*
X78080952Y33447619D01*
X78033333Y32971429D01*
X78080952Y33019048D01*
X78176190Y33066667D01*
X78414286Y33066667D01*
X78509524Y33019048D01*
X78557143Y32971429D01*
X78604762Y32876190D01*
X78604762Y32638095D01*
X78557143Y32542857D01*
X78509524Y32495238D01*
X78414286Y32447619D01*
X78176190Y32447619D01*
X78080952Y32495238D01*
X78033333Y32542857D01*
X75528571Y12047619D02*
X75528571Y13047619D01*
X75861905Y12333333D01*
X76195238Y13047619D01*
X76195238Y12047619D01*
X76861904Y13047619D02*
X77052381Y13047619D01*
X77147619Y13000000D01*
X77242857Y12904762D01*
X77290476Y12714286D01*
X77290476Y12380952D01*
X77242857Y12190476D01*
X77147619Y12095238D01*
X77052381Y12047619D01*
X76861904Y12047619D01*
X76766666Y12095238D01*
X76671428Y12190476D01*
X76623809Y12380952D01*
X76623809Y12714286D01*
X76671428Y12904762D01*
X76766666Y13000000D01*
X76861904Y13047619D01*
X77576190Y13047619D02*
X78147619Y13047619D01*
X77861904Y12047619D02*
X77861904Y13047619D01*
X78242857Y11952381D02*
X79004762Y11952381D01*
X79242857Y12047619D02*
X79242857Y13047619D01*
X79480952Y13047619D01*
X79623810Y13000000D01*
X79719048Y12904762D01*
X79766667Y12809524D01*
X79814286Y12619048D01*
X79814286Y12476190D01*
X79766667Y12285714D01*
X79719048Y12190476D01*
X79623810Y12095238D01*
X79480952Y12047619D01*
X79242857Y12047619D01*
X80242857Y12571429D02*
X80576191Y12571429D01*
X80719048Y12047619D02*
X80242857Y12047619D01*
X80242857Y13047619D01*
X80719048Y13047619D01*
X81719048Y12047619D02*
X81385714Y12523810D01*
X81147619Y12047619D02*
X81147619Y13047619D01*
X81528572Y13047619D01*
X81623810Y13000000D01*
X81671429Y12952381D01*
X81719048Y12857143D01*
X81719048Y12714286D01*
X81671429Y12619048D01*
X81623810Y12571429D01*
X81528572Y12523810D01*
X81147619Y12523810D01*
X18442857Y12047619D02*
X18442857Y13047619D01*
X18776191Y12333333D01*
X19109524Y13047619D01*
X19109524Y12047619D01*
X19776190Y13047619D02*
X19966667Y13047619D01*
X20061905Y13000000D01*
X20157143Y12904762D01*
X20204762Y12714286D01*
X20204762Y12380952D01*
X20157143Y12190476D01*
X20061905Y12095238D01*
X19966667Y12047619D01*
X19776190Y12047619D01*
X19680952Y12095238D01*
X19585714Y12190476D01*
X19538095Y12380952D01*
X19538095Y12714286D01*
X19585714Y12904762D01*
X19680952Y13000000D01*
X19776190Y13047619D01*
X20490476Y13047619D02*
X21061905Y13047619D01*
X20776190Y12047619D02*
X20776190Y13047619D01*
X21157143Y11952381D02*
X21919048Y11952381D01*
X22157143Y12047619D02*
X22157143Y13047619D01*
X22538095Y13047619D02*
X23204762Y13047619D01*
X22538095Y12047619D01*
X23204762Y12047619D01*
X24252381Y11952381D02*
X24157143Y12000000D01*
X24061905Y12095238D01*
X23919048Y12238095D01*
X23823809Y12285714D01*
X23728571Y12285714D01*
X23776190Y12047619D02*
X23680952Y12095238D01*
X23585714Y12190476D01*
X23538095Y12380952D01*
X23538095Y12714286D01*
X23585714Y12904762D01*
X23680952Y13000000D01*
X23776190Y13047619D01*
X23966667Y13047619D01*
X24061905Y13000000D01*
X24157143Y12904762D01*
X24204762Y12714286D01*
X24204762Y12380952D01*
X24157143Y12190476D01*
X24061905Y12095238D01*
X23966667Y12047619D01*
X23776190Y12047619D01*
D12*
X39657144Y63521429D02*
X39657144Y65021429D01*
X40228572Y65021429D01*
X40371430Y64950000D01*
X40442858Y64878571D01*
X40514287Y64735714D01*
X40514287Y64521429D01*
X40442858Y64378571D01*
X40371430Y64307143D01*
X40228572Y64235714D01*
X39657144Y64235714D01*
X42014287Y63664286D02*
X41942858Y63592857D01*
X41728572Y63521429D01*
X41585715Y63521429D01*
X41371430Y63592857D01*
X41228572Y63735714D01*
X41157144Y63878571D01*
X41085715Y64164286D01*
X41085715Y64378571D01*
X41157144Y64664286D01*
X41228572Y64807143D01*
X41371430Y64950000D01*
X41585715Y65021429D01*
X41728572Y65021429D01*
X41942858Y64950000D01*
X42014287Y64878571D01*
X43157144Y64307143D02*
X42657144Y64307143D01*
X42657144Y63521429D02*
X42657144Y65021429D01*
X43371430Y65021429D01*
X44157144Y64378571D02*
X44014286Y64450000D01*
X43942858Y64521429D01*
X43871429Y64664286D01*
X43871429Y64735714D01*
X43942858Y64878571D01*
X44014286Y64950000D01*
X44157144Y65021429D01*
X44442858Y65021429D01*
X44585715Y64950000D01*
X44657144Y64878571D01*
X44728572Y64735714D01*
X44728572Y64664286D01*
X44657144Y64521429D01*
X44585715Y64450000D01*
X44442858Y64378571D01*
X44157144Y64378571D01*
X44014286Y64307143D01*
X43942858Y64235714D01*
X43871429Y64092857D01*
X43871429Y63807143D01*
X43942858Y63664286D01*
X44014286Y63592857D01*
X44157144Y63521429D01*
X44442858Y63521429D01*
X44585715Y63592857D01*
X44657144Y63664286D01*
X44728572Y63807143D01*
X44728572Y64092857D01*
X44657144Y64235714D01*
X44585715Y64307143D01*
X44442858Y64378571D01*
X46085715Y65021429D02*
X45371429Y65021429D01*
X45300000Y64307143D01*
X45371429Y64378571D01*
X45514286Y64450000D01*
X45871429Y64450000D01*
X46014286Y64378571D01*
X46085715Y64307143D01*
X46157143Y64164286D01*
X46157143Y63807143D01*
X46085715Y63664286D01*
X46014286Y63592857D01*
X45871429Y63521429D01*
X45514286Y63521429D01*
X45371429Y63592857D01*
X45300000Y63664286D01*
X46657143Y65021429D02*
X47657143Y65021429D01*
X47014286Y63521429D01*
X48871428Y64521429D02*
X48871428Y63521429D01*
X48514285Y65092857D02*
X48157142Y64021429D01*
X49085714Y64021429D01*
D11*
X61000000Y100000000D02*
X63000000Y100000000D01*
X37000000Y100000000D02*
X39000000Y100000000D01*
X59000000Y98000000D02*
X61000000Y100000000D01*
X41000000Y98000000D02*
X59000000Y98000000D01*
X39000000Y100000000D02*
X41000000Y98000000D01*
X100000000Y47200000D02*
X68000000Y95000000D01*
X68000000Y95000000D02*
G75*
G03X63000000Y100000000I-5000000J0D01*
G01*
X32000000Y95000000D02*
X0Y47200000D01*
X37000000Y100000000D02*
G75*
G03X32000000Y95000000I0J-5000000D01*
G01*
X83100000Y57000000D02*
G75*
G03X83100000Y57000000I-1100000J0D01*
G01*
X19100000Y57000000D02*
G75*
G03X19100000Y57000000I-1100000J0D01*
G01*
X70100000Y78000000D02*
G75*
G03X70100000Y78000000I-1100000J0D01*
G01*
X32100000Y78000000D02*
G75*
G03X32100000Y78000000I-1100000J0D01*
G01*
X74150000Y60500000D02*
X71750000Y60500000D01*
X74150000Y68100000D02*
X74150000Y60500000D01*
X71750000Y68100000D02*
X74150000Y68100000D01*
D12*
X13069048Y53247619D02*
X13069048Y54247619D01*
X13307143Y54247619D01*
X13450001Y54200000D01*
X13545239Y54104762D01*
X13592858Y54009524D01*
X13640477Y53819048D01*
X13640477Y53676190D01*
X13592858Y53485714D01*
X13545239Y53390476D01*
X13450001Y53295238D01*
X13307143Y53247619D01*
X13069048Y53247619D01*
X14640477Y53247619D02*
X14307143Y53723810D01*
X14069048Y53247619D02*
X14069048Y54247619D01*
X14450001Y54247619D01*
X14545239Y54200000D01*
X14592858Y54152381D01*
X14640477Y54057143D01*
X14640477Y53914286D01*
X14592858Y53819048D01*
X14545239Y53771429D01*
X14450001Y53723810D01*
X14069048Y53723810D01*
X15069048Y53247619D02*
X15069048Y54247619D01*
X15402381Y54247619D02*
X15735714Y53247619D01*
X16069048Y54247619D01*
X16402381Y53771429D02*
X16735715Y53771429D01*
X16878572Y53247619D02*
X16402381Y53247619D01*
X16402381Y54247619D01*
X16878572Y54247619D01*
X17878572Y53247619D02*
X17545238Y53723810D01*
X17307143Y53247619D02*
X17307143Y54247619D01*
X17688096Y54247619D01*
X17783334Y54200000D01*
X17830953Y54152381D01*
X17878572Y54057143D01*
X17878572Y53914286D01*
X17830953Y53819048D01*
X17783334Y53771429D01*
X17688096Y53723810D01*
X17307143Y53723810D01*
X47764286Y76845238D02*
X47907143Y76797619D01*
X48145239Y76797619D01*
X48240477Y76845238D01*
X48288096Y76892857D01*
X48335715Y76988095D01*
X48335715Y77083333D01*
X48288096Y77178571D01*
X48240477Y77226190D01*
X48145239Y77273810D01*
X47954762Y77321429D01*
X47859524Y77369048D01*
X47811905Y77416667D01*
X47764286Y77511905D01*
X47764286Y77607143D01*
X47811905Y77702381D01*
X47859524Y77750000D01*
X47954762Y77797619D01*
X48192858Y77797619D01*
X48335715Y77750000D01*
X50261905Y77750000D02*
X50166667Y77797619D01*
X50023810Y77797619D01*
X49880952Y77750000D01*
X49785714Y77654762D01*
X49738095Y77559524D01*
X49690476Y77369048D01*
X49690476Y77226190D01*
X49738095Y77035714D01*
X49785714Y76940476D01*
X49880952Y76845238D01*
X50023810Y76797619D01*
X50119048Y76797619D01*
X50261905Y76845238D01*
X50309524Y76892857D01*
X50309524Y77226190D01*
X50119048Y77226190D01*
X51716667Y77797619D02*
X52050000Y76797619D01*
X52383334Y77797619D01*
X75916667Y55997619D02*
X76250000Y54997619D01*
X76583334Y55997619D01*
X76511905Y57950000D02*
X76416667Y57997619D01*
X76273810Y57997619D01*
X76130952Y57950000D01*
X76035714Y57854762D01*
X75988095Y57759524D01*
X75940476Y57569048D01*
X75940476Y57426190D01*
X75988095Y57235714D01*
X76035714Y57140476D01*
X76130952Y57045238D01*
X76273810Y56997619D01*
X76369048Y56997619D01*
X76511905Y57045238D01*
X76559524Y57092857D01*
X76559524Y57426190D01*
X76369048Y57426190D01*
X76014286Y59045238D02*
X76157143Y58997619D01*
X76395239Y58997619D01*
X76490477Y59045238D01*
X76538096Y59092857D01*
X76585715Y59188095D01*
X76585715Y59283333D01*
X76538096Y59378571D01*
X76490477Y59426190D01*
X76395239Y59473810D01*
X76204762Y59521429D01*
X76109524Y59569048D01*
X76061905Y59616667D01*
X76014286Y59711905D01*
X76014286Y59807143D01*
X76061905Y59902381D01*
X76109524Y59950000D01*
X76204762Y59997619D01*
X76442858Y59997619D01*
X76585715Y59950000D01*
X23514286Y54945238D02*
X23657143Y54897619D01*
X23895239Y54897619D01*
X23990477Y54945238D01*
X24038096Y54992857D01*
X24085715Y55088095D01*
X24085715Y55183333D01*
X24038096Y55278571D01*
X23990477Y55326190D01*
X23895239Y55373810D01*
X23704762Y55421429D01*
X23609524Y55469048D01*
X23561905Y55516667D01*
X23514286Y55611905D01*
X23514286Y55707143D01*
X23561905Y55802381D01*
X23609524Y55850000D01*
X23704762Y55897619D01*
X23942858Y55897619D01*
X24085715Y55850000D01*
X23516667Y59997619D02*
X23850000Y58997619D01*
X24183334Y59997619D01*
X24061905Y57850000D02*
X23966667Y57897619D01*
X23823810Y57897619D01*
X23680952Y57850000D01*
X23585714Y57754762D01*
X23538095Y57659524D01*
X23490476Y57469048D01*
X23490476Y57326190D01*
X23538095Y57135714D01*
X23585714Y57040476D01*
X23680952Y56945238D01*
X23823810Y56897619D01*
X23919048Y56897619D01*
X24061905Y56945238D01*
X24109524Y56992857D01*
X24109524Y57326190D01*
X23919048Y57326190D01*
X82861905Y28350000D02*
X82766667Y28397619D01*
X82623810Y28397619D01*
X82480952Y28350000D01*
X82385714Y28254762D01*
X82338095Y28159524D01*
X82290476Y27969048D01*
X82290476Y27826190D01*
X82338095Y27635714D01*
X82385714Y27540476D01*
X82480952Y27445238D01*
X82623810Y27397619D01*
X82719048Y27397619D01*
X82861905Y27445238D01*
X82909524Y27492857D01*
X82909524Y27826190D01*
X82719048Y27826190D01*
X17611905Y28350000D02*
X17516667Y28397619D01*
X17373810Y28397619D01*
X17230952Y28350000D01*
X17135714Y28254762D01*
X17088095Y28159524D01*
X17040476Y27969048D01*
X17040476Y27826190D01*
X17088095Y27635714D01*
X17135714Y27540476D01*
X17230952Y27445238D01*
X17373810Y27397619D01*
X17469048Y27397619D01*
X17611905Y27445238D01*
X17659524Y27492857D01*
X17659524Y27826190D01*
X17469048Y27826190D01*
X13726191Y34147619D02*
X14059524Y33147619D01*
X14392858Y34147619D01*
X14726191Y33147619D02*
X14726191Y33814286D01*
X14726191Y34147619D02*
X14678572Y34100000D01*
X14726191Y34052381D01*
X14773810Y34100000D01*
X14726191Y34147619D01*
X14726191Y34052381D01*
X15202381Y33814286D02*
X15202381Y33147619D01*
X15202381Y33719048D02*
X15250000Y33766667D01*
X15345238Y33814286D01*
X15488096Y33814286D01*
X15583334Y33766667D01*
X15630953Y33671429D01*
X15630953Y33147619D01*
X35211905Y36700000D02*
X35116667Y36747619D01*
X34973810Y36747619D01*
X34830952Y36700000D01*
X34735714Y36604762D01*
X34688095Y36509524D01*
X34640476Y36319048D01*
X34640476Y36176190D01*
X34688095Y35985714D01*
X34735714Y35890476D01*
X34830952Y35795238D01*
X34973810Y35747619D01*
X35069048Y35747619D01*
X35211905Y35795238D01*
X35259524Y35842857D01*
X35259524Y36176190D01*
X35069048Y36176190D01*
X35211905Y51300000D02*
X35116667Y51347619D01*
X34973810Y51347619D01*
X34830952Y51300000D01*
X34735714Y51204762D01*
X34688095Y51109524D01*
X34640476Y50919048D01*
X34640476Y50776190D01*
X34688095Y50585714D01*
X34735714Y50490476D01*
X34830952Y50395238D01*
X34973810Y50347619D01*
X35069048Y50347619D01*
X35211905Y50395238D01*
X35259524Y50442857D01*
X35259524Y50776190D01*
X35069048Y50776190D01*
X15011905Y39871429D02*
X15345239Y39871429D01*
X15488096Y39347619D02*
X15011905Y39347619D01*
X15011905Y40347619D01*
X15488096Y40347619D01*
X15916667Y39347619D02*
X15916667Y40347619D01*
X16488096Y39347619D01*
X16488096Y40347619D01*
X14626191Y42847619D02*
X14959524Y41847619D01*
X15292858Y42847619D01*
X15626191Y41847619D02*
X15626191Y42514286D01*
X15626191Y42847619D02*
X15578572Y42800000D01*
X15626191Y42752381D01*
X15673810Y42800000D01*
X15626191Y42847619D01*
X15626191Y42752381D01*
X16102381Y42514286D02*
X16102381Y41847619D01*
X16102381Y42419048D02*
X16150000Y42466667D01*
X16245238Y42514286D01*
X16388096Y42514286D01*
X16483334Y42466667D01*
X16530953Y42371429D01*
X16530953Y41847619D01*
X15559524Y47847619D02*
X15083333Y47847619D01*
X15035714Y47371429D01*
X15083333Y47419048D01*
X15178571Y47466667D01*
X15416667Y47466667D01*
X15511905Y47419048D01*
X15559524Y47371429D01*
X15607143Y47276190D01*
X15607143Y47038095D01*
X15559524Y46942857D01*
X15511905Y46895238D01*
X15416667Y46847619D01*
X15178571Y46847619D01*
X15083333Y46895238D01*
X15035714Y46942857D01*
X15892857Y47847619D02*
X16226190Y46847619D01*
X16559524Y47847619D01*
X14388096Y45200000D02*
X14292858Y45247619D01*
X14150001Y45247619D01*
X14007143Y45200000D01*
X13911905Y45104762D01*
X13864286Y45009524D01*
X13816667Y44819048D01*
X13816667Y44676190D01*
X13864286Y44485714D01*
X13911905Y44390476D01*
X14007143Y44295238D01*
X14150001Y44247619D01*
X14245239Y44247619D01*
X14388096Y44295238D01*
X14435715Y44342857D01*
X14435715Y44676190D01*
X14245239Y44676190D01*
X14864286Y44247619D02*
X14864286Y45247619D01*
X15435715Y44247619D01*
X15435715Y45247619D01*
X15911905Y44247619D02*
X15911905Y45247619D01*
X16150000Y45247619D01*
X16292858Y45200000D01*
X16388096Y45104762D01*
X16435715Y45009524D01*
X16483334Y44819048D01*
X16483334Y44676190D01*
X16435715Y44485714D01*
X16388096Y44390476D01*
X16292858Y44295238D01*
X16150000Y44247619D01*
X15911905Y44247619D01*
X79661905Y7100000D02*
X79566667Y7147619D01*
X79423810Y7147619D01*
X79280952Y7100000D01*
X79185714Y7004762D01*
X79138095Y6909524D01*
X79090476Y6719048D01*
X79090476Y6576190D01*
X79138095Y6385714D01*
X79185714Y6290476D01*
X79280952Y6195238D01*
X79423810Y6147619D01*
X79519048Y6147619D01*
X79661905Y6195238D01*
X79709524Y6242857D01*
X79709524Y6576190D01*
X79519048Y6576190D01*
X81709524Y6242857D02*
X81661905Y6195238D01*
X81519048Y6147619D01*
X81423810Y6147619D01*
X81280952Y6195238D01*
X81185714Y6290476D01*
X81138095Y6385714D01*
X81090476Y6576190D01*
X81090476Y6719048D01*
X81138095Y6909524D01*
X81185714Y7004762D01*
X81280952Y7100000D01*
X81423810Y7147619D01*
X81519048Y7147619D01*
X81661905Y7100000D01*
X81709524Y7052381D01*
X83809524Y6242857D02*
X83761905Y6195238D01*
X83619048Y6147619D01*
X83523810Y6147619D01*
X83380952Y6195238D01*
X83285714Y6290476D01*
X83238095Y6385714D01*
X83190476Y6576190D01*
X83190476Y6719048D01*
X83238095Y6909524D01*
X83285714Y7004762D01*
X83380952Y7100000D01*
X83523810Y7147619D01*
X83619048Y7147619D01*
X83761905Y7100000D01*
X83809524Y7052381D01*
X77066667Y7147619D02*
X77400000Y6147619D01*
X77733334Y7147619D01*
X75166667Y6147619D02*
X75166667Y7147619D01*
X75500001Y6433333D01*
X75833334Y7147619D01*
X75833334Y6147619D01*
X73066667Y6147619D02*
X73066667Y7147619D01*
X73400001Y6433333D01*
X73733334Y7147619D01*
X73733334Y6147619D01*
X18709524Y6242857D02*
X18661905Y6195238D01*
X18519048Y6147619D01*
X18423810Y6147619D01*
X18280952Y6195238D01*
X18185714Y6290476D01*
X18138095Y6385714D01*
X18090476Y6576190D01*
X18090476Y6719048D01*
X18138095Y6909524D01*
X18185714Y7004762D01*
X18280952Y7100000D01*
X18423810Y7147619D01*
X18519048Y7147619D01*
X18661905Y7100000D01*
X18709524Y7052381D01*
X20661905Y7100000D02*
X20566667Y7147619D01*
X20423810Y7147619D01*
X20280952Y7100000D01*
X20185714Y7004762D01*
X20138095Y6909524D01*
X20090476Y6719048D01*
X20090476Y6576190D01*
X20138095Y6385714D01*
X20185714Y6290476D01*
X20280952Y6195238D01*
X20423810Y6147619D01*
X20519048Y6147619D01*
X20661905Y6195238D01*
X20709524Y6242857D01*
X20709524Y6576190D01*
X20519048Y6576190D01*
X16709524Y6242857D02*
X16661905Y6195238D01*
X16519048Y6147619D01*
X16423810Y6147619D01*
X16280952Y6195238D01*
X16185714Y6290476D01*
X16138095Y6385714D01*
X16090476Y6576190D01*
X16090476Y6719048D01*
X16138095Y6909524D01*
X16185714Y7004762D01*
X16280952Y7100000D01*
X16423810Y7147619D01*
X16519048Y7147619D01*
X16661905Y7100000D01*
X16709524Y7052381D01*
X22066667Y7147619D02*
X22400000Y6147619D01*
X22733334Y7147619D01*
X26166667Y6147619D02*
X26166667Y7147619D01*
X26500001Y6433333D01*
X26833334Y7147619D01*
X26833334Y6147619D01*
X24166667Y6147619D02*
X24166667Y7147619D01*
X24500001Y6433333D01*
X24833334Y7147619D01*
X24833334Y6147619D01*
D11*
X64100000Y94950000D02*
G75*
G03X64100000Y94950000I-1100000J0D01*
G01*
X38100000Y95000000D02*
G75*
G03X38100000Y95000000I-1100000J0D01*
G01*
X34100000Y31000000D02*
G75*
G03X34100000Y31000000I-1100000J0D01*
G01*
X68100000Y31000000D02*
G75*
G03X68100000Y31000000I-1100000J0D01*
G01*
X68100000Y7000000D02*
G75*
G03X68100000Y7000000I-1100000J0D01*
G01*
X34100000Y7000000D02*
G75*
G03X34100000Y7000000I-1100000J0D01*
G01*
X91100000Y7000000D02*
G75*
G03X91100000Y7000000I-1100000J0D01*
G01*
X11100000Y7000000D02*
G75*
G03X11100000Y7000000I-1100000J0D01*
G01*
X95000000Y4000000D02*
X100000000Y9000000D01*
X69000000Y4000000D02*
X95000000Y4000000D01*
X65000000Y0D02*
X69000000Y4000000D01*
X35000000Y0D02*
X65000000Y0D01*
X5000000Y4000000D02*
X0Y9000000D01*
X31000000Y4000000D02*
X5000000Y4000000D01*
X35000000Y0D02*
X31000000Y4000000D01*
D12*
X37500000Y52100000D02*
X37500000Y100000D01*
X62500000Y52100000D02*
X37500000Y52100000D01*
X62500000Y100000D02*
X62500000Y52100000D01*
X37500000Y100000D02*
X62500000Y100000D01*
X76000000Y14500000D02*
X88500000Y14500000D01*
X76000000Y26500000D02*
X76000000Y14500000D01*
X88500000Y26500000D02*
X76000000Y26500000D01*
X24000000Y14500000D02*
X11500000Y14500000D01*
X24000000Y26500000D02*
X24000000Y14500000D01*
X11500000Y26500000D02*
X24000000Y26500000D01*
X92000000Y28000000D02*
X92000000Y29500000D01*
X88500000Y28000000D02*
X92000000Y28000000D01*
X88500000Y13000000D02*
X88500000Y28000000D01*
X92000000Y13000000D02*
X88500000Y13000000D01*
X92000000Y11500000D02*
X92000000Y13000000D01*
X92000000Y11500000D02*
G75*
G03X100000000Y11500000I4000000J0D01*
G01*
X100000000Y29500000D02*
G75*
G03X92000000Y29500000I-4000000J0D01*
G01*
X8000000Y28000000D02*
X8000000Y29500000D01*
X11500000Y28000000D02*
X8000000Y28000000D01*
X11500000Y13000000D02*
X11500000Y28000000D01*
X8000000Y13000000D02*
X11500000Y13000000D01*
X8000000Y11500000D02*
X8000000Y13000000D01*
X0Y11500000D02*
G75*
G03X8000000Y11500000I4000000J0D01*
G01*
X8000000Y29500000D02*
G75*
G03X0Y29500000I-4000000J0D01*
G01*
D11*
X97100000Y29500000D02*
G75*
G03X97100000Y29500000I-1100000J0D01*
G01*
X97100000Y11500000D02*
G75*
G03X97100000Y11500000I-1100000J0D01*
G01*
X5100000Y11500000D02*
G75*
G03X5100000Y11500000I-1100000J0D01*
G01*
X5100000Y29500000D02*
G75*
G03X5100000Y29500000I-1100000J0D01*
G01*
X0Y47200000D02*
X0Y9000000D01*
X100000000Y9000000D02*
X100000000Y47200000D01*
D13*
X33490000Y57930000D02*
X30950000Y57930000D01*
X30950000Y57930000D02*
X30950000Y55260000D01*
X33490000Y55260000D02*
X71720000Y55260000D01*
X28280000Y55260000D02*
X30950000Y55260000D01*
X30950000Y70630000D02*
X30950000Y73300000D01*
X30950000Y70630000D02*
X69050000Y70630000D01*
X69050000Y70630000D02*
X69050000Y73300000D01*
X33490000Y57930000D02*
X33490000Y55260000D01*
X33490000Y57930000D02*
X69050000Y57930000D01*
X69050000Y57930000D02*
X69050000Y55260000D01*
X71720000Y55260000D02*
X71720000Y73300000D01*
X71720000Y73300000D02*
X28280000Y73300000D01*
X28280000Y73300000D02*
X28280000Y55260000D01*
X28597665Y84921392D02*
G75*
G03X31830000Y84764484I1672335J1078608D01*
G01*
X28597665Y87078608D02*
G75*
G02X31830000Y87235516I1672335J-1078608D01*
G01*
X29228870Y84920163D02*
G75*
G03X31310961Y84920000I1041130J1079837D01*
G01*
X29228870Y87079837D02*
G75*
G02X31310961Y87080000I1041130J-1079837D01*
G01*
X31830000Y84764000D02*
X31830000Y84920000D01*
X31830000Y87080000D02*
X31830000Y87236000D01*
X71402335Y87078608D02*
G75*
G03X68170000Y87235516I-1672335J-1078608D01*
G01*
X71402335Y84921392D02*
G75*
G02X68170000Y84764484I-1672335J1078608D01*
G01*
X70771130Y87079837D02*
G75*
G03X68689039Y87080000I-1041130J-1079837D01*
G01*
X70771130Y84920163D02*
G75*
G02X68689039Y84920000I-1041130J1079837D01*
G01*
X68170000Y87236000D02*
X68170000Y87080000D01*
X68170000Y84920000D02*
X68170000Y84764000D01*
X71960000Y46060000D02*
X65990000Y46060000D01*
X65990000Y46060000D02*
X65990000Y35940000D01*
X65990000Y35940000D02*
X71960000Y35940000D01*
X71960000Y35940000D02*
X71960000Y46060000D01*
X71950000Y42750000D02*
X71200000Y42750000D01*
X71200000Y42750000D02*
X71200000Y39250000D01*
X71200000Y39250000D02*
X71950000Y39250000D01*
X71950000Y39250000D02*
X71950000Y42750000D01*
X71950000Y46050000D02*
X71200000Y46050000D01*
X71200000Y46050000D02*
X71200000Y44250000D01*
X71200000Y44250000D02*
X71950000Y44250000D01*
X71950000Y44250000D02*
X71950000Y46050000D01*
X71950000Y37750000D02*
X71200000Y37750000D01*
X71200000Y37750000D02*
X71200000Y35950000D01*
X71200000Y35950000D02*
X71950000Y35950000D01*
X71950000Y35950000D02*
X71950000Y37750000D01*
X69700000Y46050000D02*
X69700000Y45300000D01*
X69700000Y45300000D02*
X66750000Y45300000D01*
X66750000Y45300000D02*
X66750000Y41000000D01*
X69700000Y35950000D02*
X69700000Y36700000D01*
X69700000Y36700000D02*
X66750000Y36700000D01*
X66750000Y36700000D02*
X66750000Y41000000D01*
X72250000Y45100000D02*
X72250000Y46350000D01*
X72250000Y46350000D02*
X71000000Y46350000D01*
X15440000Y11060000D02*
X15440000Y8940000D01*
X25500000Y11060000D02*
X15440000Y11060000D01*
X25500000Y8940000D02*
X15440000Y8940000D01*
X25500000Y11060000D02*
X25500000Y8940000D01*
X26500000Y11060000D02*
X27560000Y11060000D01*
X27560000Y11060000D02*
X27560000Y10000000D01*
X15905931Y34100000D02*
X15905931Y36760000D01*
X15905931Y34100000D02*
X33745931Y34100000D01*
X33745931Y34100000D02*
X33745931Y36760000D01*
X15905931Y36760000D02*
X33745931Y36760000D01*
X13305931Y36760000D02*
X14635931Y36760000D01*
X13305931Y35430000D02*
X13305931Y36760000D01*
X15905931Y49550839D02*
X15905931Y52210839D01*
X15905931Y49550839D02*
X33745931Y49550839D01*
X33745931Y49550839D02*
X33745931Y52210839D01*
X15905931Y52210839D02*
X33745931Y52210839D01*
X13305931Y52210839D02*
X14635931Y52210839D01*
X13305931Y50880839D02*
X13305931Y52210839D01*
X28590000Y38550000D02*
X19960000Y38550000D01*
X28590000Y38668095D02*
X19960000Y38668095D01*
X28590000Y38786190D02*
X19960000Y38786190D01*
X28590000Y38904285D02*
X19960000Y38904285D01*
X28590000Y39022380D02*
X19960000Y39022380D01*
X28590000Y39140475D02*
X19960000Y39140475D01*
X28590000Y39258570D02*
X19960000Y39258570D01*
X28590000Y39376665D02*
X19960000Y39376665D01*
X28590000Y39494760D02*
X19960000Y39494760D01*
X28590000Y39612855D02*
X19960000Y39612855D01*
X28590000Y39730950D02*
X19960000Y39730950D01*
X28590000Y39849045D02*
X19960000Y39849045D01*
X28590000Y39967140D02*
X19960000Y39967140D01*
X28590000Y40085235D02*
X19960000Y40085235D01*
X28590000Y40203330D02*
X19960000Y40203330D01*
X28590000Y40321425D02*
X19960000Y40321425D01*
X28590000Y40439520D02*
X19960000Y40439520D01*
X28590000Y40557615D02*
X19960000Y40557615D01*
X28590000Y40675710D02*
X19960000Y40675710D01*
X28590000Y40793805D02*
X19960000Y40793805D01*
X28590000Y40911900D02*
X19960000Y40911900D01*
X19960000Y39400000D02*
X19610000Y39400000D01*
X19960000Y40120000D02*
X19610000Y40120000D01*
X19960000Y41940000D02*
X19550000Y41940000D01*
X19960000Y42660000D02*
X19550000Y42660000D01*
X19960000Y44480000D02*
X19550000Y44480000D01*
X19960000Y45200000D02*
X19550000Y45200000D01*
X19960000Y47020000D02*
X19550000Y47020000D01*
X19960000Y47740000D02*
X19550000Y47740000D01*
X28590000Y41030000D02*
X19960000Y41030000D01*
X28590000Y43570000D02*
X19960000Y43570000D01*
X28590000Y46110000D02*
X19960000Y46110000D01*
X28590000Y38430000D02*
X19960000Y38430000D01*
X19960000Y38430000D02*
X19960000Y48710000D01*
X28590000Y48710000D02*
X19960000Y48710000D01*
X28590000Y38430000D02*
X28590000Y48710000D01*
X17390000Y38430000D02*
X17390000Y39760000D01*
X18500000Y38430000D02*
X17390000Y38430000D01*
X86470000Y31630000D02*
X86470000Y28970000D01*
X86470000Y31630000D02*
X73710000Y31630000D01*
X73710000Y31630000D02*
X73710000Y28970000D01*
X86470000Y28970000D02*
X73710000Y28970000D01*
X89070000Y28970000D02*
X87740000Y28970000D01*
X89070000Y30300000D02*
X89070000Y28970000D01*
X84560000Y8940000D02*
X84560000Y11060000D01*
X74500000Y8940000D02*
X84560000Y8940000D01*
X74500000Y11060000D02*
X84560000Y11060000D01*
X74500000Y8940000D02*
X74500000Y11060000D01*
X73500000Y8940000D02*
X72440000Y8940000D01*
X72440000Y8940000D02*
X72440000Y10000000D01*
X27060000Y60560000D02*
X24940000Y60560000D01*
X27060000Y56500000D02*
X27060000Y60560000D01*
X24940000Y56500000D02*
X24940000Y60560000D01*
X27060000Y56500000D02*
X24940000Y56500000D01*
X27060000Y55500000D02*
X27060000Y54440000D01*
X27060000Y54440000D02*
X26000000Y54440000D01*
X28910000Y29170000D02*
X28910000Y31830000D01*
X18690000Y29170000D02*
X28910000Y29170000D01*
X18690000Y31830000D02*
X28910000Y31830000D01*
X18690000Y29170000D02*
X18690000Y31830000D01*
X17420000Y29170000D02*
X16090000Y29170000D01*
X16090000Y29170000D02*
X16090000Y30500000D01*
X53060000Y73940000D02*
X53060000Y76060000D01*
X49000000Y73940000D02*
X53060000Y73940000D01*
X49000000Y76060000D02*
X53060000Y76060000D01*
X49000000Y73940000D02*
X49000000Y76060000D01*
X48000000Y73940000D02*
X46940000Y73940000D01*
X46940000Y73940000D02*
X46940000Y75000000D01*
X58830000Y96090000D02*
X58830000Y87460000D01*
X58711905Y96090000D02*
X58711905Y87460000D01*
X58593810Y96090000D02*
X58593810Y87460000D01*
X58475715Y96090000D02*
X58475715Y87460000D01*
X58357620Y96090000D02*
X58357620Y87460000D01*
X58239525Y96090000D02*
X58239525Y87460000D01*
X58121430Y96090000D02*
X58121430Y87460000D01*
X58003335Y96090000D02*
X58003335Y87460000D01*
X57885240Y96090000D02*
X57885240Y87460000D01*
X57767145Y96090000D02*
X57767145Y87460000D01*
X57649050Y96090000D02*
X57649050Y87460000D01*
X57530955Y96090000D02*
X57530955Y87460000D01*
X57412860Y96090000D02*
X57412860Y87460000D01*
X57294765Y96090000D02*
X57294765Y87460000D01*
X57176670Y96090000D02*
X57176670Y87460000D01*
X57058575Y96090000D02*
X57058575Y87460000D01*
X56940480Y96090000D02*
X56940480Y87460000D01*
X56822385Y96090000D02*
X56822385Y87460000D01*
X56704290Y96090000D02*
X56704290Y87460000D01*
X56586195Y96090000D02*
X56586195Y87460000D01*
X56468100Y96090000D02*
X56468100Y87460000D01*
X57980000Y87460000D02*
X57980000Y87110000D01*
X57260000Y87460000D02*
X57260000Y87110000D01*
X55440000Y87460000D02*
X55440000Y87050000D01*
X54720000Y87460000D02*
X54720000Y87050000D01*
X52900000Y87460000D02*
X52900000Y87050000D01*
X52180000Y87460000D02*
X52180000Y87050000D01*
X50360000Y87460000D02*
X50360000Y87050000D01*
X49640000Y87460000D02*
X49640000Y87050000D01*
X47820000Y87460000D02*
X47820000Y87050000D01*
X47100000Y87460000D02*
X47100000Y87050000D01*
X45280000Y87460000D02*
X45280000Y87050000D01*
X44560000Y87460000D02*
X44560000Y87050000D01*
X42740000Y87460000D02*
X42740000Y87050000D01*
X42020000Y87460000D02*
X42020000Y87050000D01*
X56350000Y96090000D02*
X56350000Y87460000D01*
X53810000Y96090000D02*
X53810000Y87460000D01*
X51270000Y96090000D02*
X51270000Y87460000D01*
X48730000Y96090000D02*
X48730000Y87460000D01*
X46190000Y96090000D02*
X46190000Y87460000D01*
X43650000Y96090000D02*
X43650000Y87460000D01*
X58950000Y96090000D02*
X58950000Y87460000D01*
X58950000Y87460000D02*
X41050000Y87460000D01*
X41050000Y96090000D02*
X41050000Y87460000D01*
X58950000Y96090000D02*
X41050000Y96090000D01*
X58950000Y84890000D02*
X57620000Y84890000D01*
X58950000Y86000000D02*
X58950000Y84890000D01*
X72940000Y54440000D02*
X75060000Y54440000D01*
X72940000Y58500000D02*
X72940000Y54440000D01*
X75060000Y58500000D02*
X75060000Y54440000D01*
X72940000Y58500000D02*
X75060000Y58500000D01*
X72940000Y59500000D02*
X72940000Y60560000D01*
X72940000Y60560000D02*
X74000000Y60560000D01*
X29000000Y69000000D02*
X31000000Y69000000D01*
X29000000Y66200000D02*
X29000000Y69000000D01*
X31000000Y66200000D02*
X29000000Y66200000D01*
X31000000Y69000000D02*
X31000000Y66200000D01*
X35310000Y76670000D02*
X35310000Y73930000D01*
X35310000Y73930000D02*
X41850000Y73930000D01*
X41850000Y73930000D02*
X41850000Y76670000D01*
X41850000Y76670000D02*
X35310000Y76670000D01*
X34540000Y75300000D02*
X35310000Y75300000D01*
X42620000Y75300000D02*
X41850000Y75300000D01*
X64690000Y73930000D02*
X64690000Y76670000D01*
X64690000Y76670000D02*
X58150000Y76670000D01*
X58150000Y76670000D02*
X58150000Y73930000D01*
X58150000Y73930000D02*
X64690000Y73930000D01*
X65460000Y75300000D02*
X64690000Y75300000D01*
X57380000Y75300000D02*
X58150000Y75300000D01*
X74580000Y37450000D02*
X77320000Y37450000D01*
X77320000Y37450000D02*
X77320000Y43990000D01*
X77320000Y43990000D02*
X74580000Y43990000D01*
X74580000Y43990000D02*
X74580000Y37450000D01*
X75950000Y36680000D02*
X75950000Y37450000D01*
X75950000Y44760000D02*
X75950000Y43990000D01*
X86130000Y39310000D02*
X88870000Y39310000D01*
X88870000Y39310000D02*
X88870000Y45850000D01*
X88870000Y45850000D02*
X86130000Y45850000D01*
X86130000Y45850000D02*
X86130000Y39310000D01*
X87500000Y38540000D02*
X87500000Y39310000D01*
X87500000Y46620000D02*
X87500000Y45850000D01*
X61550000Y66370000D02*
X61550000Y63630000D01*
X61550000Y63630000D02*
X68090000Y63630000D01*
X68090000Y63630000D02*
X68090000Y66370000D01*
X68090000Y66370000D02*
X61550000Y66370000D01*
X60780000Y65000000D02*
X61550000Y65000000D01*
X68860000Y65000000D02*
X68090000Y65000000D01*
X68090000Y60330000D02*
X68090000Y63070000D01*
X68090000Y63070000D02*
X61550000Y63070000D01*
X61550000Y63070000D02*
X61550000Y60330000D01*
X61550000Y60330000D02*
X68090000Y60330000D01*
X68860000Y61700000D02*
X68090000Y61700000D01*
X60780000Y61700000D02*
X61550000Y61700000D01*
X45590000Y52330000D02*
X45590000Y55070000D01*
X45590000Y55070000D02*
X39050000Y55070000D01*
X39050000Y55070000D02*
X39050000Y52330000D01*
X39050000Y52330000D02*
X45590000Y52330000D01*
X46360000Y53700000D02*
X45590000Y53700000D01*
X38280000Y53700000D02*
X39050000Y53700000D01*
X58350000Y52330000D02*
X58350000Y55070000D01*
X58350000Y55070000D02*
X51810000Y55070000D01*
X51810000Y55070000D02*
X51810000Y52330000D01*
X51810000Y52330000D02*
X58350000Y52330000D01*
X59120000Y53700000D02*
X58350000Y53700000D01*
X51040000Y53700000D02*
X51810000Y53700000D01*
X68400000Y52650000D02*
X68400000Y51450000D01*
X69600000Y52650000D02*
X68400000Y52650000D01*
X77900000Y48150000D02*
X76700000Y48150000D01*
X77900000Y52350000D02*
X77900000Y48150000D01*
X76700000Y52350000D02*
X77900000Y52350000D01*
X68700000Y48150000D02*
X69900000Y48150000D01*
X68700000Y52350000D02*
X68700000Y48150000D01*
X69900000Y52350000D02*
X68700000Y52350000D01*
X84950000Y40300000D02*
X84950000Y44800000D01*
X80950000Y39050000D02*
X82450000Y39050000D01*
X78450000Y44800000D02*
X78450000Y40300000D01*
X82450000Y46050000D02*
X80950000Y46050000D01*
X96550000Y40300000D02*
X96550000Y44800000D01*
X92550000Y39050000D02*
X94050000Y39050000D01*
X90050000Y44800000D02*
X90050000Y40300000D01*
X94050000Y46050000D02*
X92550000Y46050000D01*
X54910000Y63310000D02*
G75*
G02X54910000Y65310000I0J1000000D01*
G01*
X54910000Y65310000D02*
X54910000Y66560000D01*
X54910000Y66560000D02*
X34470000Y66560000D01*
X34470000Y66560000D02*
X34470000Y62060000D01*
X34470000Y62060000D02*
X54910000Y62060000D01*
X54910000Y62060000D02*
X54910000Y63310000D01*
X54970000Y69560000D02*
X34410000Y69560000D01*
X34410000Y69560000D02*
X34410000Y59060000D01*
X34410000Y59060000D02*
X54970000Y59060000D01*
X54970000Y59060000D02*
X54970000Y69560000D01*
X67640000Y66930000D02*
X67640000Y69870000D01*
X67640000Y69870000D02*
X62200000Y69870000D01*
X62200000Y69870000D02*
X62200000Y66930000D01*
X62200000Y66930000D02*
X67640000Y66930000D01*
X68860000Y68400000D02*
X67640000Y68400000D01*
X60980000Y68400000D02*
X62200000Y68400000D01*
X66740000Y66930000D02*
X66740000Y69870000D01*
X66620000Y66930000D02*
X66620000Y69870000D01*
X66860000Y66930000D02*
X66860000Y69870000D01*
X88200000Y32530000D02*
X88200000Y35470000D01*
X88200000Y35470000D02*
X82760000Y35470000D01*
X82760000Y35470000D02*
X82760000Y32530000D01*
X82760000Y32530000D02*
X88200000Y32530000D01*
X89420000Y34000000D02*
X88200000Y34000000D01*
X81540000Y34000000D02*
X82760000Y34000000D01*
X87300000Y32530000D02*
X87300000Y35470000D01*
X87180000Y32530000D02*
X87180000Y35470000D01*
X87420000Y32530000D02*
X87420000Y35470000D01*
D11*
X28985714Y71733333D02*
X29461905Y71733333D01*
X28890476Y71447619D02*
X29223809Y72447619D01*
X29557143Y71447619D01*
X30414286Y71447619D02*
X29842857Y71447619D01*
X30128571Y71447619D02*
X30128571Y72447619D01*
X30033333Y72304762D01*
X29938095Y72209524D01*
X29842857Y72161905D01*
X29531905Y82587619D02*
X29531905Y83587619D01*
X29770000Y83587619D01*
X29912858Y83540000D01*
X30008096Y83444762D01*
X30055715Y83349524D01*
X30103334Y83159048D01*
X30103334Y83016190D01*
X30055715Y82825714D01*
X30008096Y82730476D01*
X29912858Y82635238D01*
X29770000Y82587619D01*
X29531905Y82587619D01*
X31055715Y82587619D02*
X30484286Y82587619D01*
X30770000Y82587619D02*
X30770000Y83587619D01*
X30674762Y83444762D01*
X30579524Y83349524D01*
X30484286Y83301905D01*
X69061905Y82447619D02*
X69061905Y83447619D01*
X69300000Y83447619D01*
X69442858Y83400000D01*
X69538096Y83304762D01*
X69585715Y83209524D01*
X69633334Y83019048D01*
X69633334Y82876190D01*
X69585715Y82685714D01*
X69538096Y82590476D01*
X69442858Y82495238D01*
X69300000Y82447619D01*
X69061905Y82447619D01*
X70014286Y83352381D02*
X70061905Y83400000D01*
X70157143Y83447619D01*
X70395239Y83447619D01*
X70490477Y83400000D01*
X70538096Y83352381D01*
X70585715Y83257143D01*
X70585715Y83161905D01*
X70538096Y83019048D01*
X69966667Y82447619D01*
X70585715Y82447619D01*
X71066667Y35247619D02*
X71066667Y34533333D01*
X71019047Y34390476D01*
X70923809Y34295238D01*
X70780952Y34247619D01*
X70685714Y34247619D01*
X72066667Y34247619D02*
X71495238Y34247619D01*
X71780952Y34247619D02*
X71780952Y35247619D01*
X71685714Y35104762D01*
X71590476Y35009524D01*
X71495238Y34961905D01*
X28466667Y10547619D02*
X28466667Y9833333D01*
X28419047Y9690476D01*
X28323809Y9595238D01*
X28180952Y9547619D01*
X28085714Y9547619D01*
X28895238Y10452381D02*
X28942857Y10500000D01*
X29038095Y10547619D01*
X29276191Y10547619D01*
X29371429Y10500000D01*
X29419048Y10452381D01*
X29466667Y10357143D01*
X29466667Y10261905D01*
X29419048Y10119048D01*
X28847619Y9547619D01*
X29466667Y9547619D01*
X11532598Y35977619D02*
X11532598Y35263333D01*
X11484978Y35120476D01*
X11389740Y35025238D01*
X11246883Y34977619D01*
X11151645Y34977619D01*
X11913550Y35977619D02*
X12532598Y35977619D01*
X12199264Y35596667D01*
X12342122Y35596667D01*
X12437360Y35549048D01*
X12484979Y35501429D01*
X12532598Y35406190D01*
X12532598Y35168095D01*
X12484979Y35072857D01*
X12437360Y35025238D01*
X12342122Y34977619D01*
X12056407Y34977619D01*
X11961169Y35025238D01*
X11913550Y35072857D01*
X11532598Y51428458D02*
X11532598Y50714172D01*
X11484978Y50571315D01*
X11389740Y50476077D01*
X11246883Y50428458D01*
X11151645Y50428458D01*
X12437360Y51095125D02*
X12437360Y50428458D01*
X12199264Y51476077D02*
X11961169Y50761791D01*
X12580217Y50761791D01*
X20866667Y45347619D02*
X20866667Y44633333D01*
X20819047Y44490476D01*
X20723809Y44395238D01*
X20580952Y44347619D01*
X20485714Y44347619D01*
X21819048Y45347619D02*
X21342857Y45347619D01*
X21295238Y44871429D01*
X21342857Y44919048D01*
X21438095Y44966667D01*
X21676191Y44966667D01*
X21771429Y44919048D01*
X21819048Y44871429D01*
X21866667Y44776190D01*
X21866667Y44538095D01*
X21819048Y44442857D01*
X21771429Y44395238D01*
X21676191Y44347619D01*
X21438095Y44347619D01*
X21342857Y44395238D01*
X21295238Y44442857D01*
X90176667Y30847619D02*
X90176667Y30133333D01*
X90129047Y29990476D01*
X90033809Y29895238D01*
X89890952Y29847619D01*
X89795714Y29847619D01*
X91081429Y30847619D02*
X90890952Y30847619D01*
X90795714Y30800000D01*
X90748095Y30752381D01*
X90652857Y30609524D01*
X90605238Y30419048D01*
X90605238Y30038095D01*
X90652857Y29942857D01*
X90700476Y29895238D01*
X90795714Y29847619D01*
X90986191Y29847619D01*
X91081429Y29895238D01*
X91129048Y29942857D01*
X91176667Y30038095D01*
X91176667Y30276190D01*
X91129048Y30371429D01*
X91081429Y30419048D01*
X90986191Y30466667D01*
X90795714Y30466667D01*
X90700476Y30419048D01*
X90652857Y30371429D01*
X90605238Y30276190D01*
X70866667Y10547619D02*
X70866667Y9833333D01*
X70819047Y9690476D01*
X70723809Y9595238D01*
X70580952Y9547619D01*
X70485714Y9547619D01*
X71247619Y10547619D02*
X71914286Y10547619D01*
X71485714Y9547619D01*
X25666667Y62047619D02*
X25666667Y61333333D01*
X25619047Y61190476D01*
X25523809Y61095238D01*
X25380952Y61047619D01*
X25285714Y61047619D01*
X26285714Y61619048D02*
X26190476Y61666667D01*
X26142857Y61714286D01*
X26095238Y61809524D01*
X26095238Y61857143D01*
X26142857Y61952381D01*
X26190476Y62000000D01*
X26285714Y62047619D01*
X26476191Y62047619D01*
X26571429Y62000000D01*
X26619048Y61952381D01*
X26666667Y61857143D01*
X26666667Y61809524D01*
X26619048Y61714286D01*
X26571429Y61666667D01*
X26476191Y61619048D01*
X26285714Y61619048D01*
X26190476Y61571429D01*
X26142857Y61523810D01*
X26095238Y61428571D01*
X26095238Y61238095D01*
X26142857Y61142857D01*
X26190476Y61095238D01*
X26285714Y61047619D01*
X26476191Y61047619D01*
X26571429Y61095238D01*
X26619048Y61142857D01*
X26666667Y61238095D01*
X26666667Y61428571D01*
X26619048Y61523810D01*
X26571429Y61571429D01*
X26476191Y61619048D01*
X14466667Y31047619D02*
X14466667Y30333333D01*
X14419047Y30190476D01*
X14323809Y30095238D01*
X14180952Y30047619D01*
X14085714Y30047619D01*
X14990476Y30047619D02*
X15180952Y30047619D01*
X15276191Y30095238D01*
X15323810Y30142857D01*
X15419048Y30285714D01*
X15466667Y30476190D01*
X15466667Y30857143D01*
X15419048Y30952381D01*
X15371429Y31000000D01*
X15276191Y31047619D01*
X15085714Y31047619D01*
X14990476Y31000000D01*
X14942857Y30952381D01*
X14895238Y30857143D01*
X14895238Y30619048D01*
X14942857Y30523810D01*
X14990476Y30476190D01*
X15085714Y30428571D01*
X15276191Y30428571D01*
X15371429Y30476190D01*
X15419048Y30523810D01*
X15466667Y30619048D01*
X45392381Y74190477D02*
X46106667Y74190477D01*
X46249524Y74142857D01*
X46344762Y74047619D01*
X46392381Y73904762D01*
X46392381Y73809524D01*
X46392381Y75190477D02*
X46392381Y74619048D01*
X46392381Y74904762D02*
X45392381Y74904762D01*
X45535238Y74809524D01*
X45630476Y74714286D01*
X45678095Y74619048D01*
X45392381Y75809524D02*
X45392381Y75904763D01*
X45440000Y76000001D01*
X45487619Y76047620D01*
X45582857Y76095239D01*
X45773333Y76142858D01*
X46011429Y76142858D01*
X46201905Y76095239D01*
X46297143Y76047620D01*
X46344762Y76000001D01*
X46392381Y75904763D01*
X46392381Y75809524D01*
X46344762Y75714286D01*
X46297143Y75666667D01*
X46201905Y75619048D01*
X46011429Y75571429D01*
X45773333Y75571429D01*
X45582857Y75619048D01*
X45487619Y75666667D01*
X45440000Y75714286D01*
X45392381Y75809524D01*
X59552381Y87090477D02*
X60266667Y87090477D01*
X60409524Y87042857D01*
X60504762Y86947619D01*
X60552381Y86804762D01*
X60552381Y86709524D01*
X60552381Y88090477D02*
X60552381Y87519048D01*
X60552381Y87804762D02*
X59552381Y87804762D01*
X59695238Y87709524D01*
X59790476Y87614286D01*
X59838095Y87519048D01*
X60552381Y89042858D02*
X60552381Y88471429D01*
X60552381Y88757143D02*
X59552381Y88757143D01*
X59695238Y88661905D01*
X59790476Y88566667D01*
X59838095Y88471429D01*
X74990477Y61947619D02*
X74990477Y61233333D01*
X74942857Y61090476D01*
X74847619Y60995238D01*
X74704762Y60947619D01*
X74609524Y60947619D01*
X75990477Y60947619D02*
X75419048Y60947619D01*
X75704762Y60947619D02*
X75704762Y61947619D01*
X75609524Y61804762D01*
X75514286Y61709524D01*
X75419048Y61661905D01*
X76371429Y61852381D02*
X76419048Y61900000D01*
X76514286Y61947619D01*
X76752382Y61947619D01*
X76847620Y61900000D01*
X76895239Y61852381D01*
X76942858Y61757143D01*
X76942858Y61661905D01*
X76895239Y61519048D01*
X76323810Y60947619D01*
X76942858Y60947619D01*
X31252381Y66766667D02*
X31966667Y66766667D01*
X32109524Y66719047D01*
X32204762Y66623809D01*
X32252381Y66480952D01*
X32252381Y66385714D01*
X32252381Y67242857D02*
X31252381Y67242857D01*
X31252381Y67623810D01*
X31300000Y67719048D01*
X31347619Y67766667D01*
X31442857Y67814286D01*
X31585714Y67814286D01*
X31680952Y67766667D01*
X31728571Y67719048D01*
X31776190Y67623810D01*
X31776190Y67242857D01*
X32252381Y68766667D02*
X32252381Y68195238D01*
X32252381Y68480952D02*
X31252381Y68480952D01*
X31395238Y68385714D01*
X31490476Y68290476D01*
X31538095Y68195238D01*
X38533334Y77047619D02*
X38200000Y77523810D01*
X37961905Y77047619D02*
X37961905Y78047619D01*
X38342858Y78047619D01*
X38438096Y78000000D01*
X38485715Y77952381D01*
X38533334Y77857143D01*
X38533334Y77714286D01*
X38485715Y77619048D01*
X38438096Y77571429D01*
X38342858Y77523810D01*
X37961905Y77523810D01*
X39485715Y77047619D02*
X38914286Y77047619D01*
X39200000Y77047619D02*
X39200000Y78047619D01*
X39104762Y77904762D01*
X39009524Y77809524D01*
X38914286Y77761905D01*
X61333334Y77047619D02*
X61000000Y77523810D01*
X60761905Y77047619D02*
X60761905Y78047619D01*
X61142858Y78047619D01*
X61238096Y78000000D01*
X61285715Y77952381D01*
X61333334Y77857143D01*
X61333334Y77714286D01*
X61285715Y77619048D01*
X61238096Y77571429D01*
X61142858Y77523810D01*
X60761905Y77523810D01*
X61714286Y77952381D02*
X61761905Y78000000D01*
X61857143Y78047619D01*
X62095239Y78047619D01*
X62190477Y78000000D01*
X62238096Y77952381D01*
X62285715Y77857143D01*
X62285715Y77761905D01*
X62238096Y77619048D01*
X61666667Y77047619D01*
X62285715Y77047619D01*
X74032381Y40553334D02*
X73556190Y40220000D01*
X74032381Y39981905D02*
X73032381Y39981905D01*
X73032381Y40362858D01*
X73080000Y40458096D01*
X73127619Y40505715D01*
X73222857Y40553334D01*
X73365714Y40553334D01*
X73460952Y40505715D01*
X73508571Y40458096D01*
X73556190Y40362858D01*
X73556190Y39981905D01*
X73032381Y40886667D02*
X73032381Y41505715D01*
X73413333Y41172381D01*
X73413333Y41315239D01*
X73460952Y41410477D01*
X73508571Y41458096D01*
X73603810Y41505715D01*
X73841905Y41505715D01*
X73937143Y41458096D01*
X73984762Y41410477D01*
X74032381Y41315239D01*
X74032381Y41029524D01*
X73984762Y40934286D01*
X73937143Y40886667D01*
X87333334Y49047619D02*
X87000000Y49523810D01*
X86761905Y49047619D02*
X86761905Y50047619D01*
X87142858Y50047619D01*
X87238096Y50000000D01*
X87285715Y49952381D01*
X87333334Y49857143D01*
X87333334Y49714286D01*
X87285715Y49619048D01*
X87238096Y49571429D01*
X87142858Y49523810D01*
X86761905Y49523810D01*
X88190477Y49714286D02*
X88190477Y49047619D01*
X87952381Y50095238D02*
X87714286Y49380952D01*
X88333334Y49380952D01*
X72633334Y64547619D02*
X72300000Y65023810D01*
X72061905Y64547619D02*
X72061905Y65547619D01*
X72442858Y65547619D01*
X72538096Y65500000D01*
X72585715Y65452381D01*
X72633334Y65357143D01*
X72633334Y65214286D01*
X72585715Y65119048D01*
X72538096Y65071429D01*
X72442858Y65023810D01*
X72061905Y65023810D01*
X73538096Y65547619D02*
X73061905Y65547619D01*
X73014286Y65071429D01*
X73061905Y65119048D01*
X73157143Y65166667D01*
X73395239Y65166667D01*
X73490477Y65119048D01*
X73538096Y65071429D01*
X73585715Y64976190D01*
X73585715Y64738095D01*
X73538096Y64642857D01*
X73490477Y64595238D01*
X73395239Y64547619D01*
X73157143Y64547619D01*
X73061905Y64595238D01*
X73014286Y64642857D01*
X64653334Y58877619D02*
X64320000Y59353810D01*
X64081905Y58877619D02*
X64081905Y59877619D01*
X64462858Y59877619D01*
X64558096Y59830000D01*
X64605715Y59782381D01*
X64653334Y59687143D01*
X64653334Y59544286D01*
X64605715Y59449048D01*
X64558096Y59401429D01*
X64462858Y59353810D01*
X64081905Y59353810D01*
X65510477Y59877619D02*
X65320000Y59877619D01*
X65224762Y59830000D01*
X65177143Y59782381D01*
X65081905Y59639524D01*
X65034286Y59449048D01*
X65034286Y59068095D01*
X65081905Y58972857D01*
X65129524Y58925238D01*
X65224762Y58877619D01*
X65415239Y58877619D01*
X65510477Y58925238D01*
X65558096Y58972857D01*
X65605715Y59068095D01*
X65605715Y59306190D01*
X65558096Y59401429D01*
X65510477Y59449048D01*
X65415239Y59496667D01*
X65224762Y59496667D01*
X65129524Y59449048D01*
X65081905Y59401429D01*
X65034286Y59306190D01*
X42153334Y50877619D02*
X41820000Y51353810D01*
X41581905Y50877619D02*
X41581905Y51877619D01*
X41962858Y51877619D01*
X42058096Y51830000D01*
X42105715Y51782381D01*
X42153334Y51687143D01*
X42153334Y51544286D01*
X42105715Y51449048D01*
X42058096Y51401429D01*
X41962858Y51353810D01*
X41581905Y51353810D01*
X42486667Y51877619D02*
X43153334Y51877619D01*
X42724762Y50877619D01*
X54913334Y50877619D02*
X54580000Y51353810D01*
X54341905Y50877619D02*
X54341905Y51877619D01*
X54722858Y51877619D01*
X54818096Y51830000D01*
X54865715Y51782381D01*
X54913334Y51687143D01*
X54913334Y51544286D01*
X54865715Y51449048D01*
X54818096Y51401429D01*
X54722858Y51353810D01*
X54341905Y51353810D01*
X55484762Y51449048D02*
X55389524Y51496667D01*
X55341905Y51544286D01*
X55294286Y51639524D01*
X55294286Y51687143D01*
X55341905Y51782381D01*
X55389524Y51830000D01*
X55484762Y51877619D01*
X55675239Y51877619D01*
X55770477Y51830000D01*
X55818096Y51782381D01*
X55865715Y51687143D01*
X55865715Y51639524D01*
X55818096Y51544286D01*
X55770477Y51496667D01*
X55675239Y51449048D01*
X55484762Y51449048D01*
X55389524Y51401429D01*
X55341905Y51353810D01*
X55294286Y51258571D01*
X55294286Y51068095D01*
X55341905Y50972857D01*
X55389524Y50925238D01*
X55484762Y50877619D01*
X55675239Y50877619D01*
X55770477Y50925238D01*
X55818096Y50972857D01*
X55865715Y51068095D01*
X55865715Y51258571D01*
X55818096Y51353810D01*
X55770477Y51401429D01*
X55675239Y51449048D01*
X79504762Y49066667D02*
X79552381Y49209524D01*
X79552381Y49447620D01*
X79504762Y49542858D01*
X79457143Y49590477D01*
X79361905Y49638096D01*
X79266667Y49638096D01*
X79171429Y49590477D01*
X79123810Y49542858D01*
X79076190Y49447620D01*
X79028571Y49257143D01*
X78980952Y49161905D01*
X78933333Y49114286D01*
X78838095Y49066667D01*
X78742857Y49066667D01*
X78647619Y49114286D01*
X78600000Y49161905D01*
X78552381Y49257143D01*
X78552381Y49495239D01*
X78600000Y49638096D01*
X78552381Y49971429D02*
X79552381Y50209524D01*
X78838095Y50400001D01*
X79552381Y50590477D01*
X78552381Y50828572D01*
X79552381Y51733334D02*
X79552381Y51161905D01*
X79552381Y51447619D02*
X78552381Y51447619D01*
X78695238Y51352381D01*
X78790476Y51257143D01*
X78838095Y51161905D01*
X80666667Y47595238D02*
X80809524Y47547619D01*
X81047620Y47547619D01*
X81142858Y47595238D01*
X81190477Y47642857D01*
X81238096Y47738095D01*
X81238096Y47833333D01*
X81190477Y47928571D01*
X81142858Y47976190D01*
X81047620Y48023810D01*
X80857143Y48071429D01*
X80761905Y48119048D01*
X80714286Y48166667D01*
X80666667Y48261905D01*
X80666667Y48357143D01*
X80714286Y48452381D01*
X80761905Y48500000D01*
X80857143Y48547619D01*
X81095239Y48547619D01*
X81238096Y48500000D01*
X81571429Y48547619D02*
X81809524Y47547619D01*
X82000001Y48261905D01*
X82190477Y47547619D01*
X82428572Y48547619D01*
X82761905Y48452381D02*
X82809524Y48500000D01*
X82904762Y48547619D01*
X83142858Y48547619D01*
X83238096Y48500000D01*
X83285715Y48452381D01*
X83333334Y48357143D01*
X83333334Y48261905D01*
X83285715Y48119048D01*
X82714286Y47547619D01*
X83333334Y47547619D01*
X91966667Y47595238D02*
X92109524Y47547619D01*
X92347620Y47547619D01*
X92442858Y47595238D01*
X92490477Y47642857D01*
X92538096Y47738095D01*
X92538096Y47833333D01*
X92490477Y47928571D01*
X92442858Y47976190D01*
X92347620Y48023810D01*
X92157143Y48071429D01*
X92061905Y48119048D01*
X92014286Y48166667D01*
X91966667Y48261905D01*
X91966667Y48357143D01*
X92014286Y48452381D01*
X92061905Y48500000D01*
X92157143Y48547619D01*
X92395239Y48547619D01*
X92538096Y48500000D01*
X92871429Y48547619D02*
X93109524Y47547619D01*
X93300001Y48261905D01*
X93490477Y47547619D01*
X93728572Y48547619D01*
X94014286Y48547619D02*
X94633334Y48547619D01*
X94300000Y48166667D01*
X94442858Y48166667D01*
X94538096Y48119048D01*
X94585715Y48071429D01*
X94633334Y47976190D01*
X94633334Y47738095D01*
X94585715Y47642857D01*
X94538096Y47595238D01*
X94442858Y47547619D01*
X94157143Y47547619D01*
X94061905Y47595238D01*
X94014286Y47642857D01*
X55338095Y68747619D02*
X55338095Y67938095D01*
X55385714Y67842857D01*
X55433333Y67795238D01*
X55528571Y67747619D01*
X55719048Y67747619D01*
X55814286Y67795238D01*
X55861905Y67842857D01*
X55909524Y67938095D01*
X55909524Y68747619D01*
X56909524Y67747619D02*
X56338095Y67747619D01*
X56623809Y67747619D02*
X56623809Y68747619D01*
X56528571Y68604762D01*
X56433333Y68509524D01*
X56338095Y68461905D01*
X72161905Y68447619D02*
X72161905Y69447619D01*
X72400000Y69447619D01*
X72542858Y69400000D01*
X72638096Y69304762D01*
X72685715Y69209524D01*
X72733334Y69019048D01*
X72733334Y68876190D01*
X72685715Y68685714D01*
X72638096Y68590476D01*
X72542858Y68495238D01*
X72400000Y68447619D01*
X72161905Y68447619D01*
X73066667Y69447619D02*
X73685715Y69447619D01*
X73352381Y69066667D01*
X73495239Y69066667D01*
X73590477Y69019048D01*
X73638096Y68971429D01*
X73685715Y68876190D01*
X73685715Y68638095D01*
X73638096Y68542857D01*
X73590477Y68495238D01*
X73495239Y68447619D01*
X73209524Y68447619D01*
X73114286Y68495238D01*
X73066667Y68542857D01*
X83061905Y36047619D02*
X83061905Y37047619D01*
X83300000Y37047619D01*
X83442858Y37000000D01*
X83538096Y36904762D01*
X83585715Y36809524D01*
X83633334Y36619048D01*
X83633334Y36476190D01*
X83585715Y36285714D01*
X83538096Y36190476D01*
X83442858Y36095238D01*
X83300000Y36047619D01*
X83061905Y36047619D01*
X84490477Y36714286D02*
X84490477Y36047619D01*
X84252381Y37095238D02*
X84014286Y36380952D01*
X84633334Y36380952D01*
%LPC*%
D14*
X32220000Y56660000D03*
D15*
X65240000Y71900000D03*
X34760000Y56660000D03*
X62700000Y71900000D03*
X37300000Y56660000D03*
X60160000Y71900000D03*
X39840000Y56660000D03*
X57620000Y71900000D03*
X42380000Y56660000D03*
X55080000Y71900000D03*
X44920000Y56660000D03*
X52540000Y71900000D03*
X47460000Y56660000D03*
X50000000Y71900000D03*
X50000000Y56660000D03*
X47460000Y71900000D03*
X52540000Y56660000D03*
X44920000Y71900000D03*
X55080000Y56660000D03*
X42380000Y71900000D03*
X57620000Y56660000D03*
X39840000Y71900000D03*
X60160000Y56660000D03*
X37300000Y71900000D03*
X62700000Y56660000D03*
X34760000Y71900000D03*
X65240000Y56660000D03*
X32220000Y71900000D03*
X67780000Y56660000D03*
X67780000Y71900000D03*
D16*
X31540000Y86000000D03*
D17*
X29000000Y86000000D03*
D16*
X68460000Y86000000D03*
D17*
X71000000Y86000000D03*
D18*
X69500000Y43500000D03*
D19*
X69500000Y41000000D03*
X69500000Y38500000D03*
D20*
X26500000Y10000000D03*
D21*
X24500000Y10000000D03*
X22500000Y10000000D03*
X20500000Y10000000D03*
X18500000Y10000000D03*
X16500000Y10000000D03*
D22*
X14635931Y35430000D03*
D23*
X17175931Y35430000D03*
X19715931Y35430000D03*
X22255931Y35430000D03*
X24795931Y35430000D03*
X27335931Y35430000D03*
X29875931Y35430000D03*
X32415931Y35430000D03*
D22*
X14635931Y50880839D03*
D23*
X17175931Y50880839D03*
X19715931Y50880839D03*
X22255931Y50880839D03*
X24795931Y50880839D03*
X27335931Y50880839D03*
X29875931Y50880839D03*
X32415931Y50880839D03*
D22*
X18500000Y39760000D03*
D23*
X18500000Y42300000D03*
X18500000Y44840000D03*
X18500000Y47380000D03*
D22*
X87740000Y30300000D03*
D23*
X85200000Y30300000D03*
X82660000Y30300000D03*
X80120000Y30300000D03*
X77580000Y30300000D03*
X75040000Y30300000D03*
D20*
X73500000Y10000000D03*
D21*
X75500000Y10000000D03*
X77500000Y10000000D03*
X79500000Y10000000D03*
X81500000Y10000000D03*
X83500000Y10000000D03*
D20*
X26000000Y55500000D03*
D21*
X26000000Y57500000D03*
X26000000Y59500000D03*
D22*
X17420000Y30500000D03*
D23*
X19960000Y30500000D03*
X22500000Y30500000D03*
X25040000Y30500000D03*
X27580000Y30500000D03*
D20*
X48000000Y75000000D03*
D21*
X50000000Y75000000D03*
X52000000Y75000000D03*
D22*
X57620000Y86000000D03*
D23*
X55080000Y86000000D03*
X52540000Y86000000D03*
X50000000Y86000000D03*
X47460000Y86000000D03*
X44920000Y86000000D03*
X42380000Y86000000D03*
D20*
X74000000Y59500000D03*
D21*
X74000000Y57500000D03*
X74000000Y55500000D03*
D24*
X30000000Y66950000D03*
X30000000Y68250000D03*
D25*
X33500000Y75300000D03*
D15*
X43660000Y75300000D03*
D25*
X66500000Y75300000D03*
D15*
X56340000Y75300000D03*
D25*
X75950000Y35640000D03*
D15*
X75950000Y45800000D03*
D25*
X87500000Y37500000D03*
D15*
X87500000Y47660000D03*
D25*
X59740000Y65000000D03*
D15*
X69900000Y65000000D03*
D25*
X69900000Y61700000D03*
D15*
X59740000Y61700000D03*
D25*
X47400000Y53700000D03*
D15*
X37240000Y53700000D03*
D25*
X60160000Y53700000D03*
D15*
X50000000Y53700000D03*
D26*
X70800000Y51900000D03*
D27*
X73300000Y51900000D03*
X75800000Y51900000D03*
X70800000Y48600000D03*
X73300000Y48600000D03*
X75800000Y48600000D03*
D28*
X83950000Y39300000D03*
X79450000Y39300000D03*
X83950000Y45800000D03*
X79450000Y45800000D03*
X95550000Y39300000D03*
X91050000Y39300000D03*
X95550000Y45800000D03*
X91050000Y45800000D03*
D29*
X53580000Y68120000D03*
D30*
X35800000Y60500000D03*
X51040000Y68120000D03*
X38340000Y60500000D03*
X48500000Y68120000D03*
X40880000Y60500000D03*
X45960000Y68120000D03*
X43420000Y60500000D03*
X43420000Y68120000D03*
X45960000Y60500000D03*
X40880000Y68120000D03*
X48500000Y60500000D03*
X38340000Y68120000D03*
X51040000Y60500000D03*
X35800000Y68120000D03*
X53580000Y60500000D03*
D16*
X70000000Y68400000D03*
D31*
X59840000Y68400000D03*
D16*
X90560000Y34000000D03*
D31*
X80400000Y34000000D03*
M02*
