G04 #@! TF.FileFunction,Legend,Top*
%FSLAX46Y46*%
G04 Gerber Fmt 4.6, Leading zero omitted, Abs format (unit mm)*
G04 Created by KiCad (PCBNEW 4.0.6) date 07/01/17 21:38:31*
%MOMM*%
%LPD*%
G01*
G04 APERTURE LIST*
%ADD10C,0.100000*%
%ADD11C,0.700000*%
%ADD12C,0.150000*%
%ADD13C,0.120000*%
%ADD14C,0.200000*%
%ADD15C,2.000000*%
%ADD16O,2.000000X2.000000*%
%ADD17R,2.000000X2.800000*%
%ADD18O,2.000000X2.800000*%
%ADD19C,1.800000*%
%ADD20R,2.100000X2.100000*%
%ADD21O,2.100000X2.100000*%
G04 APERTURE END LIST*
D10*
D11*
X26607143Y70761903D02*
X23940476Y69999999D01*
X25845238Y69238094D01*
X23940476Y68476189D01*
X26607143Y67714284D01*
X26607143Y66571427D02*
X23940476Y65809523D01*
X25845238Y65047618D01*
X23940476Y64285713D01*
X26607143Y63523808D01*
X26607143Y62380951D02*
X23940476Y61619047D01*
X25845238Y60857142D01*
X23940476Y60095237D01*
X26607143Y59333332D01*
X24321429Y57809523D02*
X24130952Y57619047D01*
X23940476Y57809523D01*
X24130952Y57999999D01*
X24321429Y57809523D01*
X23940476Y57809523D01*
X23940476Y55333332D02*
X24130952Y55714285D01*
X24511905Y55904761D01*
X27940476Y55904761D01*
X26607143Y53809523D02*
X23940476Y53809523D01*
X26226190Y53809523D02*
X26416667Y53619047D01*
X26607143Y53238094D01*
X26607143Y52666666D01*
X26416667Y52285714D01*
X26035714Y52095237D01*
X23940476Y52095237D01*
X23940476Y50190475D02*
X26607143Y50190475D01*
X25845238Y50190475D02*
X26226190Y49999999D01*
X26416667Y49809523D01*
X26607143Y49428570D01*
X26607143Y49047618D01*
X24130952Y45999999D02*
X23940476Y46380952D01*
X23940476Y47142856D01*
X24130952Y47523809D01*
X24321429Y47714285D01*
X24702381Y47904761D01*
X25845238Y47904761D01*
X26226190Y47714285D01*
X26416667Y47523809D01*
X26607143Y47142856D01*
X26607143Y46380952D01*
X26416667Y45999999D01*
X24321429Y44285714D02*
X24130952Y44095238D01*
X23940476Y44285714D01*
X24130952Y44476190D01*
X24321429Y44285714D01*
X23940476Y44285714D01*
X24130952Y40857143D02*
X23940476Y41238095D01*
X23940476Y42000000D01*
X24130952Y42380952D01*
X24511905Y42571428D01*
X26035714Y42571428D01*
X26416667Y42380952D01*
X26607143Y42000000D01*
X26607143Y41238095D01*
X26416667Y40857143D01*
X26035714Y40666666D01*
X25654762Y40666666D01*
X25273810Y42571428D01*
X24130952Y39142857D02*
X23940476Y38761905D01*
X23940476Y38000000D01*
X24130952Y37619048D01*
X24511905Y37428572D01*
X24702381Y37428572D01*
X25083333Y37619048D01*
X25273810Y38000000D01*
X25273810Y38571429D01*
X25464286Y38952381D01*
X25845238Y39142857D01*
X26035714Y39142857D01*
X26416667Y38952381D01*
X26607143Y38571429D01*
X26607143Y38000000D01*
X26416667Y37619048D01*
D12*
X48000000Y80000000D02*
X48000000Y10000000D01*
X22000000Y80000000D02*
X22000000Y10000000D01*
X60000000Y80000000D02*
X48000000Y80000000D01*
X10000000Y80000000D02*
X22000000Y80000000D01*
X29250000Y80000000D02*
X40750000Y80000000D01*
X29250000Y35000000D02*
G75*
G03X40750000Y35000000I5750000J0D01*
G01*
X40750000Y80000000D02*
X40750000Y35000000D01*
X29250000Y80000000D02*
X29250000Y35000000D01*
X22000000Y10000000D02*
G75*
G03X22000000Y0I0J-5000000D01*
G01*
X48000000Y10000000D02*
G75*
G02X48000000Y0I0J-5000000D01*
G01*
X22000000Y0D02*
X48000000Y0D01*
X49000000Y5000000D02*
G75*
G03X49000000Y5000000I-1000000J0D01*
G01*
X23000000Y5000000D02*
G75*
G03X23000000Y5000000I-1000000J0D01*
G01*
X10000000Y80000000D02*
G75*
G02X10000000Y100000000I0J10000000D01*
G01*
X60000000Y80000000D02*
G75*
G03X60000000Y100000000I0J10000000D01*
G01*
X10000000Y100000000D02*
X60000000Y100000000D01*
X46000000Y97250000D02*
G75*
G03X46000000Y97250000I-1000000J0D01*
G01*
X26000000Y97250000D02*
G75*
G03X26000000Y97250000I-1000000J0D01*
G01*
D13*
X45280000Y21690000D02*
X45280000Y23060000D01*
X45280000Y23060000D02*
X24720000Y23060000D01*
X24720000Y23060000D02*
X24720000Y18320000D01*
X24720000Y18320000D02*
X45280000Y18320000D01*
X45280000Y18320000D02*
X45280000Y19690000D01*
X45280000Y19690000D02*
G75*
G02X45280000Y21690000I0J1000000D01*
G01*
X43950000Y8910000D02*
X41350000Y8910000D01*
X41350000Y8910000D02*
X41350000Y6290000D01*
X41350000Y6290000D02*
X43950000Y6290000D01*
X43950000Y6290000D02*
X43950000Y8910000D01*
X43000000Y6290000D02*
X42240000Y6290000D01*
X42240000Y6290000D02*
X42240000Y290000D01*
X42240000Y290000D02*
X43000000Y290000D01*
X43000000Y290000D02*
X43000000Y6290000D01*
X43000000Y9340000D02*
X43000000Y8910000D01*
X42240000Y9340000D02*
X42240000Y8910000D01*
X42880000Y6290000D02*
X42880000Y290000D01*
X42760000Y6290000D02*
X42760000Y290000D01*
X42640000Y6290000D02*
X42640000Y290000D01*
X42520000Y6290000D02*
X42520000Y290000D01*
X42400000Y6290000D02*
X42400000Y290000D01*
X42280000Y6290000D02*
X42280000Y290000D01*
X41350000Y8910000D02*
X38810000Y8910000D01*
X38810000Y8910000D02*
X38810000Y6290000D01*
X38810000Y6290000D02*
X41350000Y6290000D01*
X41350000Y6290000D02*
X41350000Y8910000D01*
X40460000Y6290000D02*
X39700000Y6290000D01*
X39700000Y6290000D02*
X39700000Y290000D01*
X39700000Y290000D02*
X40460000Y290000D01*
X40460000Y290000D02*
X40460000Y6290000D01*
X40460000Y9340000D02*
X40460000Y8910000D01*
X39700000Y9340000D02*
X39700000Y8910000D01*
X38810000Y8910000D02*
X36270000Y8910000D01*
X36270000Y8910000D02*
X36270000Y6290000D01*
X36270000Y6290000D02*
X38810000Y6290000D01*
X38810000Y6290000D02*
X38810000Y8910000D01*
X37920000Y6290000D02*
X37160000Y6290000D01*
X37160000Y6290000D02*
X37160000Y290000D01*
X37160000Y290000D02*
X37920000Y290000D01*
X37920000Y290000D02*
X37920000Y6290000D01*
X37920000Y9340000D02*
X37920000Y8910000D01*
X37160000Y9340000D02*
X37160000Y8910000D01*
X36270000Y8910000D02*
X33730000Y8910000D01*
X33730000Y8910000D02*
X33730000Y6290000D01*
X33730000Y6290000D02*
X36270000Y6290000D01*
X36270000Y6290000D02*
X36270000Y8910000D01*
X35380000Y6290000D02*
X34620000Y6290000D01*
X34620000Y6290000D02*
X34620000Y290000D01*
X34620000Y290000D02*
X35380000Y290000D01*
X35380000Y290000D02*
X35380000Y6290000D01*
X35380000Y9340000D02*
X35380000Y8910000D01*
X34620000Y9340000D02*
X34620000Y8910000D01*
X33730000Y8910000D02*
X31190000Y8910000D01*
X31190000Y8910000D02*
X31190000Y6290000D01*
X31190000Y6290000D02*
X33730000Y6290000D01*
X33730000Y6290000D02*
X33730000Y8910000D01*
X32840000Y6290000D02*
X32080000Y6290000D01*
X32080000Y6290000D02*
X32080000Y290000D01*
X32080000Y290000D02*
X32840000Y290000D01*
X32840000Y290000D02*
X32840000Y6290000D01*
X32840000Y9340000D02*
X32840000Y8910000D01*
X32080000Y9340000D02*
X32080000Y8910000D01*
X31190000Y8910000D02*
X28650000Y8910000D01*
X28650000Y8910000D02*
X28650000Y6290000D01*
X28650000Y6290000D02*
X31190000Y6290000D01*
X31190000Y6290000D02*
X31190000Y8910000D01*
X30300000Y6290000D02*
X29540000Y6290000D01*
X29540000Y6290000D02*
X29540000Y290000D01*
X29540000Y290000D02*
X30300000Y290000D01*
X30300000Y290000D02*
X30300000Y6290000D01*
X30300000Y9340000D02*
X30300000Y8910000D01*
X29540000Y9340000D02*
X29540000Y8910000D01*
X28650000Y8910000D02*
X26050000Y8910000D01*
X26050000Y8910000D02*
X26050000Y6290000D01*
X26050000Y6290000D02*
X28650000Y6290000D01*
X28650000Y6290000D02*
X28650000Y8910000D01*
X27760000Y6290000D02*
X27000000Y6290000D01*
X27000000Y6290000D02*
X27000000Y290000D01*
X27000000Y290000D02*
X27760000Y290000D01*
X27760000Y290000D02*
X27760000Y6290000D01*
X27760000Y9340000D02*
X27760000Y8910000D01*
X27000000Y9340000D02*
X27000000Y8910000D01*
X42620000Y11520000D02*
X43890000Y11520000D01*
X43890000Y11520000D02*
X43890000Y10250000D01*
D14*
X45842857Y19775714D02*
X46814286Y19775714D01*
X46928571Y19832857D01*
X46985714Y19890000D01*
X47042857Y20004286D01*
X47042857Y20232857D01*
X46985714Y20347143D01*
X46928571Y20404286D01*
X46814286Y20461429D01*
X45842857Y20461429D01*
X45842857Y20918572D02*
X45842857Y21718572D01*
X47042857Y21204286D01*
D12*
X44342381Y5601667D02*
X45056667Y5601667D01*
X45199524Y5554047D01*
X45294762Y5458809D01*
X45342381Y5315952D01*
X45342381Y5220714D01*
X45342381Y6601667D02*
X45342381Y6030238D01*
X45342381Y6315952D02*
X44342381Y6315952D01*
X44485238Y6220714D01*
X44580476Y6125476D01*
X44628095Y6030238D01*
%LPC*%
D15*
X10000000Y96000000D03*
D16*
X20160000Y96000000D03*
D15*
X19500000Y83750000D03*
D16*
X9340000Y83750000D03*
D15*
X24250000Y74750000D03*
D16*
X24250000Y84910000D03*
D15*
X30000000Y96000000D03*
D16*
X40160000Y96000000D03*
D15*
X27500000Y83750000D03*
D16*
X37660000Y83750000D03*
D15*
X42500000Y74750000D03*
D16*
X42500000Y84910000D03*
D15*
X49750000Y96000000D03*
D16*
X59910000Y96000000D03*
D15*
X46250000Y74750000D03*
D16*
X46250000Y84910000D03*
D15*
X51250000Y83750000D03*
D16*
X61410000Y83750000D03*
D17*
X43890000Y24500000D03*
D18*
X26110000Y16880000D03*
X41350000Y24500000D03*
X28650000Y16880000D03*
X38810000Y24500000D03*
X31190000Y16880000D03*
X36270000Y24500000D03*
X33730000Y16880000D03*
X33730000Y24500000D03*
X36270000Y16880000D03*
X31190000Y24500000D03*
X38810000Y16880000D03*
X28650000Y24500000D03*
X41350000Y16880000D03*
X26110000Y24500000D03*
X43890000Y16880000D03*
D19*
X58600000Y91400000D03*
X61400000Y91400000D03*
X58600000Y88600000D03*
X61400000Y88600000D03*
X48600000Y91400000D03*
X51400000Y91400000D03*
X48600000Y88600000D03*
X51400000Y88600000D03*
X38600000Y91400000D03*
X41400000Y91400000D03*
X38600000Y88600000D03*
X41400000Y88600000D03*
X28600000Y91400000D03*
X31400000Y91400000D03*
X28600000Y88600000D03*
X31400000Y88600000D03*
X18600000Y91400000D03*
X21400000Y91400000D03*
X18600000Y88600000D03*
X21400000Y88600000D03*
X8600000Y91400000D03*
X11400000Y91400000D03*
X8600000Y88600000D03*
X11400000Y88600000D03*
D20*
X42620000Y10250000D03*
D21*
X40080000Y10250000D03*
X37540000Y10250000D03*
X35000000Y10250000D03*
X32460000Y10250000D03*
X29920000Y10250000D03*
X27380000Y10250000D03*
M02*
