G04 #@! TF.FileFunction,Legend,Bot*
%FSLAX46Y46*%
G04 Gerber Fmt 4.6, Leading zero omitted, Abs format (unit mm)*
G04 Created by KiCad (PCBNEW 4.0.6) date 07/01/17 21:38:31*
%MOMM*%
%LPD*%
G01*
G04 APERTURE LIST*
%ADD10C,0.100000*%
%ADD11C,0.300000*%
%ADD12C,0.150000*%
%ADD13C,0.120000*%
%ADD14C,0.200000*%
%ADD15C,2.000000*%
%ADD16O,2.000000X2.000000*%
%ADD17R,2.000000X2.800000*%
%ADD18O,2.000000X2.800000*%
%ADD19C,1.800000*%
%ADD20R,2.100000X2.100000*%
%ADD21O,2.100000X2.100000*%
G04 APERTURE END LIST*
D10*
D11*
X38571428Y12369048D02*
X39404762Y13559524D01*
X40000000Y12369048D02*
X40000000Y14869048D01*
X39047619Y14869048D01*
X38809524Y14750000D01*
X38690476Y14630952D01*
X38571428Y14392857D01*
X38571428Y14035714D01*
X38690476Y13797619D01*
X38809524Y13678571D01*
X39047619Y13559524D01*
X40000000Y13559524D01*
X37500000Y13678571D02*
X36666667Y13678571D01*
X36309524Y12369048D02*
X37500000Y12369048D01*
X37500000Y14869048D01*
X36309524Y14869048D01*
X35357143Y12488095D02*
X35000000Y12369048D01*
X34404762Y12369048D01*
X34166666Y12488095D01*
X34047619Y12607143D01*
X33928571Y12845238D01*
X33928571Y13083333D01*
X34047619Y13321429D01*
X34166666Y13440476D01*
X34404762Y13559524D01*
X34880952Y13678571D01*
X35119047Y13797619D01*
X35238095Y13916667D01*
X35357143Y14154762D01*
X35357143Y14392857D01*
X35238095Y14630952D01*
X35119047Y14750000D01*
X34880952Y14869048D01*
X34285714Y14869048D01*
X33928571Y14750000D01*
X32976191Y13083333D02*
X31785714Y13083333D01*
X33214286Y12369048D02*
X32380952Y14869048D01*
X31547619Y12369048D01*
X30000000Y14869048D02*
X30000000Y13083333D01*
X30119048Y12726190D01*
X30357143Y12488095D01*
X30714286Y12369048D01*
X30952381Y12369048D01*
D12*
X48000000Y80000000D02*
X48000000Y10000000D01*
X22000000Y80000000D02*
X22000000Y10000000D01*
X60000000Y80000000D02*
X48000000Y80000000D01*
X10000000Y80000000D02*
X22000000Y80000000D01*
X29250000Y80000000D02*
X40750000Y80000000D01*
X29250000Y35000000D02*
G75*
G03X40750000Y35000000I5750000J0D01*
G01*
X40750000Y80000000D02*
X40750000Y35000000D01*
X29250000Y80000000D02*
X29250000Y35000000D01*
X22000000Y10000000D02*
G75*
G03X22000000Y0I0J-5000000D01*
G01*
X48000000Y10000000D02*
G75*
G02X48000000Y0I0J-5000000D01*
G01*
X22000000Y0D02*
X48000000Y0D01*
X49000000Y5000000D02*
G75*
G03X49000000Y5000000I-1000000J0D01*
G01*
X23000000Y5000000D02*
G75*
G03X23000000Y5000000I-1000000J0D01*
G01*
X10000000Y80000000D02*
G75*
G02X10000000Y100000000I0J10000000D01*
G01*
X60000000Y80000000D02*
G75*
G03X60000000Y100000000I0J10000000D01*
G01*
X10000000Y100000000D02*
X60000000Y100000000D01*
X46000000Y97250000D02*
G75*
G03X46000000Y97250000I-1000000J0D01*
G01*
X26000000Y97250000D02*
G75*
G03X26000000Y97250000I-1000000J0D01*
G01*
D13*
X11870000Y94690000D02*
X11870000Y97310000D01*
X11870000Y97310000D02*
X18290000Y97310000D01*
X18290000Y97310000D02*
X18290000Y94690000D01*
X18290000Y94690000D02*
X11870000Y94690000D01*
X10980000Y96000000D02*
X11870000Y96000000D01*
X19180000Y96000000D02*
X18290000Y96000000D01*
X17630000Y85060000D02*
X17630000Y82440000D01*
X17630000Y82440000D02*
X11210000Y82440000D01*
X11210000Y82440000D02*
X11210000Y85060000D01*
X11210000Y85060000D02*
X17630000Y85060000D01*
X18520000Y83750000D02*
X17630000Y83750000D01*
X10320000Y83750000D02*
X11210000Y83750000D01*
X25560000Y76620000D02*
X22940000Y76620000D01*
X22940000Y76620000D02*
X22940000Y83040000D01*
X22940000Y83040000D02*
X25560000Y83040000D01*
X25560000Y83040000D02*
X25560000Y76620000D01*
X24250000Y75730000D02*
X24250000Y76620000D01*
X24250000Y83930000D02*
X24250000Y83040000D01*
X31870000Y94690000D02*
X31870000Y97310000D01*
X31870000Y97310000D02*
X38290000Y97310000D01*
X38290000Y97310000D02*
X38290000Y94690000D01*
X38290000Y94690000D02*
X31870000Y94690000D01*
X30980000Y96000000D02*
X31870000Y96000000D01*
X39180000Y96000000D02*
X38290000Y96000000D01*
X29370000Y82440000D02*
X29370000Y85060000D01*
X29370000Y85060000D02*
X35790000Y85060000D01*
X35790000Y85060000D02*
X35790000Y82440000D01*
X35790000Y82440000D02*
X29370000Y82440000D01*
X28480000Y83750000D02*
X29370000Y83750000D01*
X36680000Y83750000D02*
X35790000Y83750000D01*
X43810000Y76620000D02*
X41190000Y76620000D01*
X41190000Y76620000D02*
X41190000Y83040000D01*
X41190000Y83040000D02*
X43810000Y83040000D01*
X43810000Y83040000D02*
X43810000Y76620000D01*
X42500000Y75730000D02*
X42500000Y76620000D01*
X42500000Y83930000D02*
X42500000Y83040000D01*
X51620000Y94690000D02*
X51620000Y97310000D01*
X51620000Y97310000D02*
X58040000Y97310000D01*
X58040000Y97310000D02*
X58040000Y94690000D01*
X58040000Y94690000D02*
X51620000Y94690000D01*
X50730000Y96000000D02*
X51620000Y96000000D01*
X58930000Y96000000D02*
X58040000Y96000000D01*
X47560000Y76620000D02*
X44940000Y76620000D01*
X44940000Y76620000D02*
X44940000Y83040000D01*
X44940000Y83040000D02*
X47560000Y83040000D01*
X47560000Y83040000D02*
X47560000Y76620000D01*
X46250000Y75730000D02*
X46250000Y76620000D01*
X46250000Y83930000D02*
X46250000Y83040000D01*
X53120000Y82440000D02*
X53120000Y85060000D01*
X53120000Y85060000D02*
X59540000Y85060000D01*
X59540000Y85060000D02*
X59540000Y82440000D01*
X59540000Y82440000D02*
X53120000Y82440000D01*
X52230000Y83750000D02*
X53120000Y83750000D01*
X60430000Y83750000D02*
X59540000Y83750000D01*
D14*
X61800000Y87200000D02*
X62100000Y87200000D01*
X58000000Y87200000D02*
X61800000Y87200000D01*
X63500000Y90300000D02*
X62900000Y90300000D01*
X62900000Y90300000D02*
X62900000Y89700000D01*
X62900000Y89700000D02*
X63500000Y89700000D01*
X56500000Y90300000D02*
X57100000Y90300000D01*
X57100000Y90300000D02*
X57100000Y89700000D01*
X57100000Y89700000D02*
X56500000Y89700000D01*
X56500000Y93500000D02*
X56500000Y86500000D01*
X56500000Y86500000D02*
X63500000Y86500000D01*
X63500000Y86500000D02*
X63500000Y93500000D01*
X63500000Y93500000D02*
X56500000Y93500000D01*
X51800000Y87200000D02*
X52100000Y87200000D01*
X48000000Y87200000D02*
X51800000Y87200000D01*
X53500000Y90300000D02*
X52900000Y90300000D01*
X52900000Y90300000D02*
X52900000Y89700000D01*
X52900000Y89700000D02*
X53500000Y89700000D01*
X46500000Y90300000D02*
X47100000Y90300000D01*
X47100000Y90300000D02*
X47100000Y89700000D01*
X47100000Y89700000D02*
X46500000Y89700000D01*
X46500000Y93500000D02*
X46500000Y86500000D01*
X46500000Y86500000D02*
X53500000Y86500000D01*
X53500000Y86500000D02*
X53500000Y93500000D01*
X53500000Y93500000D02*
X46500000Y93500000D01*
X41800000Y87200000D02*
X42100000Y87200000D01*
X38000000Y87200000D02*
X41800000Y87200000D01*
X43500000Y90300000D02*
X42900000Y90300000D01*
X42900000Y90300000D02*
X42900000Y89700000D01*
X42900000Y89700000D02*
X43500000Y89700000D01*
X36500000Y90300000D02*
X37100000Y90300000D01*
X37100000Y90300000D02*
X37100000Y89700000D01*
X37100000Y89700000D02*
X36500000Y89700000D01*
X36500000Y93500000D02*
X36500000Y86500000D01*
X36500000Y86500000D02*
X43500000Y86500000D01*
X43500000Y86500000D02*
X43500000Y93500000D01*
X43500000Y93500000D02*
X36500000Y93500000D01*
X31800000Y87200000D02*
X32100000Y87200000D01*
X28000000Y87200000D02*
X31800000Y87200000D01*
X33500000Y90300000D02*
X32900000Y90300000D01*
X32900000Y90300000D02*
X32900000Y89700000D01*
X32900000Y89700000D02*
X33500000Y89700000D01*
X26500000Y90300000D02*
X27100000Y90300000D01*
X27100000Y90300000D02*
X27100000Y89700000D01*
X27100000Y89700000D02*
X26500000Y89700000D01*
X26500000Y93500000D02*
X26500000Y86500000D01*
X26500000Y86500000D02*
X33500000Y86500000D01*
X33500000Y86500000D02*
X33500000Y93500000D01*
X33500000Y93500000D02*
X26500000Y93500000D01*
X21800000Y87200000D02*
X22100000Y87200000D01*
X18000000Y87200000D02*
X21800000Y87200000D01*
X23500000Y90300000D02*
X22900000Y90300000D01*
X22900000Y90300000D02*
X22900000Y89700000D01*
X22900000Y89700000D02*
X23500000Y89700000D01*
X16500000Y90300000D02*
X17100000Y90300000D01*
X17100000Y90300000D02*
X17100000Y89700000D01*
X17100000Y89700000D02*
X16500000Y89700000D01*
X16500000Y93500000D02*
X16500000Y86500000D01*
X16500000Y86500000D02*
X23500000Y86500000D01*
X23500000Y86500000D02*
X23500000Y93500000D01*
X23500000Y93500000D02*
X16500000Y93500000D01*
X11800000Y87200000D02*
X12100000Y87200000D01*
X8000000Y87200000D02*
X11800000Y87200000D01*
X13500000Y90300000D02*
X12900000Y90300000D01*
X12900000Y90300000D02*
X12900000Y89700000D01*
X12900000Y89700000D02*
X13500000Y89700000D01*
X6500000Y90300000D02*
X7100000Y90300000D01*
X7100000Y90300000D02*
X7100000Y89700000D01*
X7100000Y89700000D02*
X6500000Y89700000D01*
X6500000Y93500000D02*
X6500000Y86500000D01*
X6500000Y86500000D02*
X13500000Y86500000D01*
X13500000Y86500000D02*
X13500000Y93500000D01*
X13500000Y93500000D02*
X6500000Y93500000D01*
X15449999Y97957143D02*
X15849999Y98528571D01*
X16135714Y97957143D02*
X16135714Y99157143D01*
X15678571Y99157143D01*
X15564285Y99100000D01*
X15507142Y99042857D01*
X15449999Y98928571D01*
X15449999Y98757143D01*
X15507142Y98642857D01*
X15564285Y98585714D01*
X15678571Y98528571D01*
X16135714Y98528571D01*
X14307142Y97957143D02*
X14992857Y97957143D01*
X14649999Y97957143D02*
X14649999Y99157143D01*
X14764285Y98985714D01*
X14878571Y98871429D01*
X14992857Y98814286D01*
X14699999Y80707143D02*
X15099999Y81278571D01*
X15385714Y80707143D02*
X15385714Y81907143D01*
X14928571Y81907143D01*
X14814285Y81850000D01*
X14757142Y81792857D01*
X14699999Y81678571D01*
X14699999Y81507143D01*
X14757142Y81392857D01*
X14814285Y81335714D01*
X14928571Y81278571D01*
X15385714Y81278571D01*
X14242857Y81792857D02*
X14185714Y81850000D01*
X14071428Y81907143D01*
X13785714Y81907143D01*
X13671428Y81850000D01*
X13614285Y81792857D01*
X13557142Y81678571D01*
X13557142Y81564286D01*
X13614285Y81392857D01*
X14299999Y80707143D01*
X13557142Y80707143D01*
X27292857Y79949999D02*
X26721429Y80349999D01*
X27292857Y80635714D02*
X26092857Y80635714D01*
X26092857Y80178571D01*
X26150000Y80064285D01*
X26207143Y80007142D01*
X26321429Y79949999D01*
X26492857Y79949999D01*
X26607143Y80007142D01*
X26664286Y80064285D01*
X26721429Y80178571D01*
X26721429Y80635714D01*
X26092857Y79549999D02*
X26092857Y78807142D01*
X26550000Y79207142D01*
X26550000Y79035714D01*
X26607143Y78921428D01*
X26664286Y78864285D01*
X26778571Y78807142D01*
X27064286Y78807142D01*
X27178571Y78864285D01*
X27235714Y78921428D01*
X27292857Y79035714D01*
X27292857Y79378571D01*
X27235714Y79492857D01*
X27178571Y79549999D01*
X35279999Y97957143D02*
X35679999Y98528571D01*
X35965714Y97957143D02*
X35965714Y99157143D01*
X35508571Y99157143D01*
X35394285Y99100000D01*
X35337142Y99042857D01*
X35279999Y98928571D01*
X35279999Y98757143D01*
X35337142Y98642857D01*
X35394285Y98585714D01*
X35508571Y98528571D01*
X35965714Y98528571D01*
X34251428Y98757143D02*
X34251428Y97957143D01*
X34537142Y99214286D02*
X34822857Y98357143D01*
X34079999Y98357143D01*
X32779999Y80707143D02*
X33179999Y81278571D01*
X33465714Y80707143D02*
X33465714Y81907143D01*
X33008571Y81907143D01*
X32894285Y81850000D01*
X32837142Y81792857D01*
X32779999Y81678571D01*
X32779999Y81507143D01*
X32837142Y81392857D01*
X32894285Y81335714D01*
X33008571Y81278571D01*
X33465714Y81278571D01*
X31694285Y81907143D02*
X32265714Y81907143D01*
X32322857Y81335714D01*
X32265714Y81392857D01*
X32151428Y81450000D01*
X31865714Y81450000D01*
X31751428Y81392857D01*
X31694285Y81335714D01*
X31637142Y81221429D01*
X31637142Y80935714D01*
X31694285Y80821429D01*
X31751428Y80764286D01*
X31865714Y80707143D01*
X32151428Y80707143D01*
X32265714Y80764286D01*
X32322857Y80821429D01*
X43042857Y72699999D02*
X42471429Y73099999D01*
X43042857Y73385714D02*
X41842857Y73385714D01*
X41842857Y72928571D01*
X41900000Y72814285D01*
X41957143Y72757142D01*
X42071429Y72699999D01*
X42242857Y72699999D01*
X42357143Y72757142D01*
X42414286Y72814285D01*
X42471429Y72928571D01*
X42471429Y73385714D01*
X41842857Y71671428D02*
X41842857Y71899999D01*
X41900000Y72014285D01*
X41957143Y72071428D01*
X42128571Y72185714D01*
X42357143Y72242857D01*
X42814286Y72242857D01*
X42928571Y72185714D01*
X42985714Y72128571D01*
X43042857Y72014285D01*
X43042857Y71785714D01*
X42985714Y71671428D01*
X42928571Y71614285D01*
X42814286Y71557142D01*
X42528571Y71557142D01*
X42414286Y71614285D01*
X42357143Y71671428D01*
X42300000Y71785714D01*
X42300000Y72014285D01*
X42357143Y72128571D01*
X42414286Y72185714D01*
X42528571Y72242857D01*
X54949999Y97957143D02*
X55349999Y98528571D01*
X55635714Y97957143D02*
X55635714Y99157143D01*
X55178571Y99157143D01*
X55064285Y99100000D01*
X55007142Y99042857D01*
X54949999Y98928571D01*
X54949999Y98757143D01*
X55007142Y98642857D01*
X55064285Y98585714D01*
X55178571Y98528571D01*
X55635714Y98528571D01*
X54549999Y99157143D02*
X53749999Y99157143D01*
X54264285Y97957143D01*
X46792857Y72699999D02*
X46221429Y73099999D01*
X46792857Y73385714D02*
X45592857Y73385714D01*
X45592857Y72928571D01*
X45650000Y72814285D01*
X45707143Y72757142D01*
X45821429Y72699999D01*
X45992857Y72699999D01*
X46107143Y72757142D01*
X46164286Y72814285D01*
X46221429Y72928571D01*
X46221429Y73385714D01*
X46107143Y72014285D02*
X46050000Y72128571D01*
X45992857Y72185714D01*
X45878571Y72242857D01*
X45821429Y72242857D01*
X45707143Y72185714D01*
X45650000Y72128571D01*
X45592857Y72014285D01*
X45592857Y71785714D01*
X45650000Y71671428D01*
X45707143Y71614285D01*
X45821429Y71557142D01*
X45878571Y71557142D01*
X45992857Y71614285D01*
X46050000Y71671428D01*
X46107143Y71785714D01*
X46107143Y72014285D01*
X46164286Y72128571D01*
X46221429Y72185714D01*
X46335714Y72242857D01*
X46564286Y72242857D01*
X46678571Y72185714D01*
X46735714Y72128571D01*
X46792857Y72014285D01*
X46792857Y71785714D01*
X46735714Y71671428D01*
X46678571Y71614285D01*
X46564286Y71557142D01*
X46335714Y71557142D01*
X46221429Y71614285D01*
X46164286Y71671428D01*
X46107143Y71785714D01*
X56529999Y80707143D02*
X56929999Y81278571D01*
X57215714Y80707143D02*
X57215714Y81907143D01*
X56758571Y81907143D01*
X56644285Y81850000D01*
X56587142Y81792857D01*
X56529999Y81678571D01*
X56529999Y81507143D01*
X56587142Y81392857D01*
X56644285Y81335714D01*
X56758571Y81278571D01*
X57215714Y81278571D01*
X55958571Y80707143D02*
X55729999Y80707143D01*
X55615714Y80764286D01*
X55558571Y80821429D01*
X55444285Y80992857D01*
X55387142Y81221429D01*
X55387142Y81678571D01*
X55444285Y81792857D01*
X55501428Y81850000D01*
X55615714Y81907143D01*
X55844285Y81907143D01*
X55958571Y81850000D01*
X56015714Y81792857D01*
X56072857Y81678571D01*
X56072857Y81392857D01*
X56015714Y81278571D01*
X55958571Y81221429D01*
X55844285Y81164286D01*
X55615714Y81164286D01*
X55501428Y81221429D01*
X55444285Y81278571D01*
X55387142Y81392857D01*
X54842857Y90914286D02*
X55814286Y90914286D01*
X55928571Y90857143D01*
X55985714Y90800000D01*
X56042857Y90685714D01*
X56042857Y90457143D01*
X55985714Y90342857D01*
X55928571Y90285714D01*
X55814286Y90228571D01*
X54842857Y90228571D01*
X54842857Y89142857D02*
X54842857Y89371428D01*
X54900000Y89485714D01*
X54957143Y89542857D01*
X55128571Y89657143D01*
X55357143Y89714286D01*
X55814286Y89714286D01*
X55928571Y89657143D01*
X55985714Y89600000D01*
X56042857Y89485714D01*
X56042857Y89257143D01*
X55985714Y89142857D01*
X55928571Y89085714D01*
X55814286Y89028571D01*
X55528571Y89028571D01*
X55414286Y89085714D01*
X55357143Y89142857D01*
X55300000Y89257143D01*
X55300000Y89485714D01*
X55357143Y89600000D01*
X55414286Y89657143D01*
X55528571Y89714286D01*
X44842857Y90914286D02*
X45814286Y90914286D01*
X45928571Y90857143D01*
X45985714Y90800000D01*
X46042857Y90685714D01*
X46042857Y90457143D01*
X45985714Y90342857D01*
X45928571Y90285714D01*
X45814286Y90228571D01*
X44842857Y90228571D01*
X44842857Y89085714D02*
X44842857Y89657143D01*
X45414286Y89714286D01*
X45357143Y89657143D01*
X45300000Y89542857D01*
X45300000Y89257143D01*
X45357143Y89142857D01*
X45414286Y89085714D01*
X45528571Y89028571D01*
X45814286Y89028571D01*
X45928571Y89085714D01*
X45985714Y89142857D01*
X46042857Y89257143D01*
X46042857Y89542857D01*
X45985714Y89657143D01*
X45928571Y89714286D01*
X34842857Y90914286D02*
X35814286Y90914286D01*
X35928571Y90857143D01*
X35985714Y90800000D01*
X36042857Y90685714D01*
X36042857Y90457143D01*
X35985714Y90342857D01*
X35928571Y90285714D01*
X35814286Y90228571D01*
X34842857Y90228571D01*
X35242857Y89142857D02*
X36042857Y89142857D01*
X34785714Y89428571D02*
X35642857Y89714286D01*
X35642857Y88971428D01*
X24842857Y90914286D02*
X25814286Y90914286D01*
X25928571Y90857143D01*
X25985714Y90800000D01*
X26042857Y90685714D01*
X26042857Y90457143D01*
X25985714Y90342857D01*
X25928571Y90285714D01*
X25814286Y90228571D01*
X24842857Y90228571D01*
X24842857Y89771428D02*
X24842857Y89028571D01*
X25300000Y89428571D01*
X25300000Y89257143D01*
X25357143Y89142857D01*
X25414286Y89085714D01*
X25528571Y89028571D01*
X25814286Y89028571D01*
X25928571Y89085714D01*
X25985714Y89142857D01*
X26042857Y89257143D01*
X26042857Y89600000D01*
X25985714Y89714286D01*
X25928571Y89771428D01*
X14842857Y90914286D02*
X15814286Y90914286D01*
X15928571Y90857143D01*
X15985714Y90800000D01*
X16042857Y90685714D01*
X16042857Y90457143D01*
X15985714Y90342857D01*
X15928571Y90285714D01*
X15814286Y90228571D01*
X14842857Y90228571D01*
X14957143Y89714286D02*
X14900000Y89657143D01*
X14842857Y89542857D01*
X14842857Y89257143D01*
X14900000Y89142857D01*
X14957143Y89085714D01*
X15071429Y89028571D01*
X15185714Y89028571D01*
X15357143Y89085714D01*
X16042857Y89771428D01*
X16042857Y89028571D01*
X4842857Y90914286D02*
X5814286Y90914286D01*
X5928571Y90857143D01*
X5985714Y90800000D01*
X6042857Y90685714D01*
X6042857Y90457143D01*
X5985714Y90342857D01*
X5928571Y90285714D01*
X5814286Y90228571D01*
X4842857Y90228571D01*
X6042857Y89028571D02*
X6042857Y89714286D01*
X6042857Y89371428D02*
X4842857Y89371428D01*
X5014286Y89485714D01*
X5128571Y89600000D01*
X5185714Y89714286D01*
%LPC*%
D15*
X10000000Y96000000D03*
D16*
X20160000Y96000000D03*
D15*
X19500000Y83750000D03*
D16*
X9340000Y83750000D03*
D15*
X24250000Y74750000D03*
D16*
X24250000Y84910000D03*
D15*
X30000000Y96000000D03*
D16*
X40160000Y96000000D03*
D15*
X27500000Y83750000D03*
D16*
X37660000Y83750000D03*
D15*
X42500000Y74750000D03*
D16*
X42500000Y84910000D03*
D15*
X49750000Y96000000D03*
D16*
X59910000Y96000000D03*
D15*
X46250000Y74750000D03*
D16*
X46250000Y84910000D03*
D15*
X51250000Y83750000D03*
D16*
X61410000Y83750000D03*
D17*
X43890000Y24500000D03*
D18*
X26110000Y16880000D03*
X41350000Y24500000D03*
X28650000Y16880000D03*
X38810000Y24500000D03*
X31190000Y16880000D03*
X36270000Y24500000D03*
X33730000Y16880000D03*
X33730000Y24500000D03*
X36270000Y16880000D03*
X31190000Y24500000D03*
X38810000Y16880000D03*
X28650000Y24500000D03*
X41350000Y16880000D03*
X26110000Y24500000D03*
X43890000Y16880000D03*
D19*
X58600000Y91400000D03*
X61400000Y91400000D03*
X58600000Y88600000D03*
X61400000Y88600000D03*
X48600000Y91400000D03*
X51400000Y91400000D03*
X48600000Y88600000D03*
X51400000Y88600000D03*
X38600000Y91400000D03*
X41400000Y91400000D03*
X38600000Y88600000D03*
X41400000Y88600000D03*
X28600000Y91400000D03*
X31400000Y91400000D03*
X28600000Y88600000D03*
X31400000Y88600000D03*
X18600000Y91400000D03*
X21400000Y91400000D03*
X18600000Y88600000D03*
X21400000Y88600000D03*
X8600000Y91400000D03*
X11400000Y91400000D03*
X8600000Y88600000D03*
X11400000Y88600000D03*
D20*
X42620000Y10250000D03*
D21*
X40080000Y10250000D03*
X37540000Y10250000D03*
X35000000Y10250000D03*
X32460000Y10250000D03*
X29920000Y10250000D03*
X27380000Y10250000D03*
M02*
