G04 #@! TF.FileFunction,Copper,L1,Top,Signal*
%FSLAX46Y46*%
G04 Gerber Fmt 4.6, Leading zero omitted, Abs format (unit mm)*
G04 Created by KiCad (PCBNEW 4.0.6) date 07/19/17 12:58:32*
%MOMM*%
%LPD*%
G01*
G04 APERTURE LIST*
%ADD10C,0.100000*%
%ADD11C,0.150000*%
%ADD12R,1.700000X1.700000*%
%ADD13O,1.700000X1.700000*%
%ADD14R,1.600000X1.600000*%
%ADD15O,1.600000X1.600000*%
%ADD16R,1.800000X1.800000*%
%ADD17C,1.800000*%
%ADD18O,1.800000X1.800000*%
%ADD19R,1.750000X1.750000*%
%ADD20C,1.750000*%
%ADD21R,1.270000X0.970000*%
%ADD22C,1.600000*%
%ADD23C,1.400000*%
%ADD24R,1.600000X2.400000*%
%ADD25O,1.600000X2.400000*%
%ADD26C,2.000000*%
%ADD27R,1.350000X1.350000*%
%ADD28O,1.350000X1.350000*%
%ADD29C,0.500000*%
%ADD30C,0.600000*%
%ADD31C,0.304800*%
%ADD32C,0.800000*%
%ADD33C,0.500000*%
G04 APERTURE END LIST*
D10*
D11*
X37000000Y100000000D02*
X63000000Y100000000D01*
X100000000Y47200000D02*
X68000000Y95000000D01*
X68000000Y95000000D02*
G75*
G03X63000000Y100000000I-5000000J0D01*
G01*
X32000000Y95000000D02*
X0Y47200000D01*
X37000000Y100000000D02*
G75*
G03X32000000Y95000000I0J-5000000D01*
G01*
X83100000Y57000000D02*
G75*
G03X83100000Y57000000I-1100000J0D01*
G01*
X19100000Y57000000D02*
G75*
G03X19100000Y57000000I-1100000J0D01*
G01*
X70100000Y78000000D02*
G75*
G03X70100000Y78000000I-1100000J0D01*
G01*
X32100000Y78000000D02*
G75*
G03X32100000Y78000000I-1100000J0D01*
G01*
X64100000Y94950000D02*
G75*
G03X64100000Y94950000I-1100000J0D01*
G01*
X38100000Y95000000D02*
G75*
G03X38100000Y95000000I-1100000J0D01*
G01*
X34100000Y31000000D02*
G75*
G03X34100000Y31000000I-1100000J0D01*
G01*
X68100000Y31000000D02*
G75*
G03X68100000Y31000000I-1100000J0D01*
G01*
X68100000Y7000000D02*
G75*
G03X68100000Y7000000I-1100000J0D01*
G01*
X34100000Y7000000D02*
G75*
G03X34100000Y7000000I-1100000J0D01*
G01*
X91100000Y7000000D02*
G75*
G03X91100000Y7000000I-1100000J0D01*
G01*
X11100000Y7000000D02*
G75*
G03X11100000Y7000000I-1100000J0D01*
G01*
X95000000Y4000000D02*
X100000000Y9000000D01*
X69000000Y4000000D02*
X95000000Y4000000D01*
X65000000Y0D02*
X69000000Y4000000D01*
X35000000Y0D02*
X65000000Y0D01*
X5000000Y4000000D02*
X0Y9000000D01*
X31000000Y4000000D02*
X5000000Y4000000D01*
X35000000Y0D02*
X31000000Y4000000D01*
X97100000Y29500000D02*
G75*
G03X97100000Y29500000I-1100000J0D01*
G01*
X97100000Y11500000D02*
G75*
G03X97100000Y11500000I-1100000J0D01*
G01*
X5100000Y11500000D02*
G75*
G03X5100000Y11500000I-1100000J0D01*
G01*
X5100000Y29500000D02*
G75*
G03X5100000Y29500000I-1100000J0D01*
G01*
X0Y47200000D02*
X0Y9000000D01*
X100000000Y9000000D02*
X100000000Y47200000D01*
D12*
X14635931Y35430000D03*
D13*
X17175931Y35430000D03*
X19715931Y35430000D03*
X22255931Y35430000D03*
X24795931Y35430000D03*
X27335931Y35430000D03*
X29875931Y35430000D03*
X32415931Y35430000D03*
D14*
X32220000Y56660000D03*
D15*
X65240000Y71900000D03*
X34760000Y56660000D03*
X62700000Y71900000D03*
X37300000Y56660000D03*
X60160000Y71900000D03*
X39840000Y56660000D03*
X57620000Y71900000D03*
X42380000Y56660000D03*
X55080000Y71900000D03*
X44920000Y56660000D03*
X52540000Y71900000D03*
X47460000Y56660000D03*
X50000000Y71900000D03*
X50000000Y56660000D03*
X47460000Y71900000D03*
X52540000Y56660000D03*
X44920000Y71900000D03*
X55080000Y56660000D03*
X42380000Y71900000D03*
X57620000Y56660000D03*
X39840000Y71900000D03*
X60160000Y56660000D03*
X37300000Y71900000D03*
X62700000Y56660000D03*
X34760000Y71900000D03*
X65240000Y56660000D03*
X32220000Y71900000D03*
X67780000Y56660000D03*
X67780000Y71900000D03*
D16*
X29000000Y86000000D03*
D17*
X31540000Y86000000D03*
D16*
X71000000Y86000000D03*
D17*
X68460000Y86000000D03*
D16*
X70000000Y68400000D03*
D18*
X59840000Y68400000D03*
D19*
X69500000Y43500000D03*
D20*
X69500000Y41000000D03*
X69500000Y38500000D03*
D21*
X30000000Y68240000D03*
X30000000Y66960000D03*
D22*
X33500000Y75300000D03*
D15*
X43660000Y75300000D03*
D22*
X66500000Y75300000D03*
D15*
X56340000Y75300000D03*
D22*
X75950000Y35640000D03*
D15*
X75950000Y45800000D03*
D22*
X87500000Y35640000D03*
D15*
X87500000Y45800000D03*
D22*
X59740000Y65000000D03*
D15*
X69900000Y65000000D03*
D22*
X69900000Y61700000D03*
D15*
X59740000Y61700000D03*
D23*
X75800000Y48600000D03*
X75800000Y52200000D03*
X73300000Y48600000D03*
X70800000Y48600000D03*
X70800000Y52200000D03*
X73300000Y52200000D03*
D24*
X53580000Y68120000D03*
D25*
X35800000Y60500000D03*
X51040000Y68120000D03*
X38340000Y60500000D03*
X48500000Y68120000D03*
X40880000Y60500000D03*
X45960000Y68120000D03*
X43420000Y60500000D03*
X43420000Y68120000D03*
X45960000Y60500000D03*
X40880000Y68120000D03*
X48500000Y60500000D03*
X38340000Y68120000D03*
X51040000Y60500000D03*
X35800000Y68120000D03*
X53580000Y60500000D03*
D26*
X83950000Y39300000D03*
X79450000Y39300000D03*
X83950000Y45800000D03*
X79450000Y45800000D03*
X95550000Y39300000D03*
X91050000Y39300000D03*
X95550000Y45800000D03*
X91050000Y45800000D03*
D12*
X14635931Y50880839D03*
D13*
X17175931Y50880839D03*
X19715931Y50880839D03*
X22255931Y50880839D03*
X24795931Y50880839D03*
X27335931Y50880839D03*
X29875931Y50880839D03*
X32415931Y50880839D03*
D12*
X18500000Y39760000D03*
D13*
X18500000Y42300000D03*
X18500000Y44840000D03*
X18500000Y47380000D03*
D12*
X87740000Y30300000D03*
D13*
X85200000Y30300000D03*
X82660000Y30300000D03*
X80120000Y30300000D03*
X77580000Y30300000D03*
X75040000Y30300000D03*
D12*
X17420000Y30500000D03*
D13*
X19960000Y30500000D03*
X22500000Y30500000D03*
X25040000Y30500000D03*
X27580000Y30500000D03*
D27*
X26500000Y10000000D03*
D28*
X24500000Y10000000D03*
X22500000Y10000000D03*
X20500000Y10000000D03*
X18500000Y10000000D03*
X16500000Y10000000D03*
D27*
X73500000Y10000000D03*
D28*
X75500000Y10000000D03*
X77500000Y10000000D03*
X79500000Y10000000D03*
X81500000Y10000000D03*
X83500000Y10000000D03*
D27*
X26000000Y55500000D03*
D28*
X26000000Y57500000D03*
X26000000Y59500000D03*
D27*
X48000000Y75000000D03*
D28*
X50000000Y75000000D03*
X52000000Y75000000D03*
D27*
X74000000Y59500000D03*
D28*
X74000000Y57500000D03*
X74000000Y55500000D03*
D12*
X57620000Y86000000D03*
D13*
X55080000Y86000000D03*
X52540000Y86000000D03*
X50000000Y86000000D03*
X47460000Y86000000D03*
X44920000Y86000000D03*
X42380000Y86000000D03*
D29*
X43924764Y43472826D03*
X44448643Y43996706D03*
D30*
X76300000Y39700000D03*
X60900000Y74800000D03*
X39800000Y51000000D03*
X24000000Y44400000D03*
X32400000Y44400000D03*
X74100000Y11800000D03*
X87700000Y11200000D03*
X93400000Y50500000D03*
X88800000Y56800000D03*
X82100000Y62600000D03*
X77900000Y69200000D03*
X74700000Y78100000D03*
X67300000Y82900000D03*
X63600000Y87700000D03*
X48500000Y80200000D03*
X41400000Y80200000D03*
X38000000Y85700000D03*
X39900000Y90900000D03*
X46500000Y91500000D03*
X55100000Y91500000D03*
X27500000Y73700000D03*
X22300000Y68400000D03*
X15700000Y62300000D03*
X8100000Y50000000D03*
X7200000Y41300000D03*
X10800000Y11600000D03*
X16400000Y6800000D03*
X9100000Y32600000D03*
X14200000Y32600000D03*
X41600000Y9100000D03*
X57700000Y9100000D03*
X48800000Y18000000D03*
X41700000Y25100000D03*
X51800000Y35100000D03*
X60000000Y26900000D03*
X65400000Y21500000D03*
X77000000Y21400000D03*
D29*
X14100000Y28300000D03*
X63800000Y75800000D03*
D30*
X16600000Y39800000D03*
D29*
X64600000Y75600000D03*
X45500000Y45900000D03*
X45000000Y42400000D03*
X25200000Y46600000D03*
X46300000Y45900000D03*
X45700000Y45100000D03*
X51600000Y42400000D03*
X50600000Y42400000D03*
D31*
X43674765Y43722825D02*
X43924764Y43472826D01*
X34802409Y52595181D02*
X43674765Y43722825D01*
X32220000Y55431936D02*
X34802409Y52849527D01*
X32220000Y56660000D02*
X32220000Y55431936D01*
X34802409Y52849527D02*
X34802409Y52595181D01*
X44198644Y44246705D02*
X44448643Y43996706D01*
X34760000Y53685349D02*
X44198644Y44246705D01*
X34760000Y56660000D02*
X34760000Y53685349D01*
D32*
X56340000Y75300000D02*
X60400000Y75300000D01*
X60400000Y75300000D02*
X60900000Y74800000D01*
X39840000Y56660000D02*
X39840000Y51040000D01*
X39840000Y51040000D02*
X39800000Y51000000D01*
X32415931Y50880839D02*
X32415931Y44415931D01*
X32415931Y44415931D02*
X32400000Y44400000D01*
X77000000Y21400000D02*
X77500000Y21400000D01*
X77500000Y21400000D02*
X87700000Y11200000D01*
X82100000Y62600000D02*
X87900000Y56800000D01*
X87900000Y56800000D02*
X88800000Y56800000D01*
X74700000Y78100000D02*
X77900000Y74900000D01*
X77900000Y74900000D02*
X77900000Y69200000D01*
X63600000Y87700000D02*
X63600000Y86600000D01*
X63600000Y86600000D02*
X67300000Y82900000D01*
X41400000Y80200000D02*
X48500000Y80200000D01*
X39900000Y90900000D02*
X39900000Y87600000D01*
X39900000Y87600000D02*
X38000000Y85700000D01*
X55100000Y91500000D02*
X46500000Y91500000D01*
X15700000Y62300000D02*
X21800000Y68400000D01*
X21800000Y68400000D02*
X22300000Y68400000D01*
X7200000Y41300000D02*
X8100000Y42200000D01*
X8100000Y42200000D02*
X8100000Y50000000D01*
X16400000Y6800000D02*
X15600000Y6800000D01*
X15600000Y6800000D02*
X10800000Y11600000D01*
X14200000Y32600000D02*
X9100000Y32600000D01*
X17420000Y30500000D02*
X16300000Y30500000D01*
X16300000Y30500000D02*
X14200000Y32600000D01*
X57700000Y9100000D02*
X41600000Y9100000D01*
X41700000Y25100000D02*
X48800000Y18000000D01*
X65400000Y21500000D02*
X60000000Y26900000D01*
X82660000Y30300000D02*
X82660000Y27060000D01*
X82660000Y27060000D02*
X77000000Y21400000D01*
D31*
X14100000Y28300000D02*
X20300000Y28300000D01*
X20300000Y28300000D02*
X22500000Y30500000D01*
X47460000Y56660000D02*
X51040000Y60240000D01*
X51040000Y60240000D02*
X51040000Y60500000D01*
X70700000Y66700000D02*
X74000000Y63400000D01*
X74000000Y63400000D02*
X74000000Y59500000D01*
X68600000Y66700000D02*
X70700000Y66700000D01*
X65000000Y70300000D02*
X68600000Y66700000D01*
X49060000Y70300000D02*
X65000000Y70300000D01*
X47460000Y71900000D02*
X49060000Y70300000D01*
X58900000Y87600000D02*
X63800000Y82700000D01*
X63800000Y82700000D02*
X63800000Y75800000D01*
X46520000Y87600000D02*
X58900000Y87600000D01*
X44920000Y86000000D02*
X46520000Y87600000D01*
D33*
X19960000Y30500000D02*
X19960000Y32645931D01*
X19960000Y32645931D02*
X17175931Y35430000D01*
X75600000Y57100000D02*
X75600000Y55500000D01*
X77500000Y53600000D02*
X75600000Y55500000D01*
X75600000Y55500000D02*
X74000000Y55500000D01*
X77500000Y51600000D02*
X77500000Y53600000D01*
X76300000Y50400000D02*
X77500000Y51600000D01*
X75100000Y50400000D02*
X76300000Y50400000D01*
X73300000Y48600000D02*
X75100000Y50400000D01*
X42900000Y77000000D02*
X39840000Y73940000D01*
X39840000Y73940000D02*
X39840000Y71900000D01*
X50000000Y77000000D02*
X42900000Y77000000D01*
X52000000Y75000000D02*
X50000000Y77000000D01*
X12600000Y52400000D02*
X12600000Y49480000D01*
X12600000Y49480000D02*
X16600000Y45480000D01*
X13800000Y53600000D02*
X12600000Y52400000D01*
X20100000Y53600000D02*
X13800000Y53600000D01*
X26000000Y59500000D02*
X20100000Y53600000D01*
X67830002Y73700000D02*
X64540000Y73700000D01*
X64540000Y73700000D02*
X57620000Y80620000D01*
X70000000Y68400000D02*
X70000000Y71530002D01*
X70000000Y71530002D02*
X67830002Y73700000D01*
X57620000Y86000000D02*
X57620000Y80620000D01*
X57620000Y80620000D02*
X52000000Y75000000D01*
X75950000Y35640000D02*
X73300000Y38290000D01*
X73300000Y38290000D02*
X73300000Y48600000D01*
X75600000Y64200000D02*
X75600000Y57100000D01*
X70000000Y68400000D02*
X71400000Y68400000D01*
X71400000Y68400000D02*
X75600000Y64200000D01*
X77081370Y35640000D02*
X85200000Y35640000D01*
X85200000Y35640000D02*
X87500000Y35640000D01*
X85200000Y30300000D02*
X85200000Y35640000D01*
X75950000Y35640000D02*
X77081370Y35640000D01*
X16600000Y39800000D02*
X16600000Y45480000D01*
X18500000Y39760000D02*
X16640000Y39760000D01*
X16640000Y39760000D02*
X16600000Y39800000D01*
X16600000Y45480000D02*
X18500000Y47380000D01*
D31*
X64600000Y75953553D02*
X64600000Y75600000D01*
X64600000Y82613910D02*
X64600000Y75953553D01*
X58909100Y88304810D02*
X64600000Y82613910D01*
X44684810Y88304810D02*
X58909100Y88304810D01*
X42380000Y86000000D02*
X44684810Y88304810D01*
D33*
X32220000Y71900000D02*
X32220000Y70460000D01*
X32220000Y70460000D02*
X30000000Y68240000D01*
D31*
X42380000Y56660000D02*
X42380000Y49020000D01*
X42380000Y49020000D02*
X45500000Y45900000D01*
X55080000Y52480000D02*
X55080000Y56660000D01*
X45000000Y42400000D02*
X55080000Y52480000D01*
X33500000Y75300000D02*
X34299999Y76099999D01*
X34299999Y76099999D02*
X34299999Y79495201D01*
X34299999Y79495201D02*
X29000000Y84795200D01*
X29000000Y84795200D02*
X29000000Y86000000D01*
X37394446Y70100000D02*
X41840000Y70100000D01*
X41840000Y70100000D02*
X43420000Y68520000D01*
X43420000Y68520000D02*
X43420000Y68120000D01*
X36147599Y82665193D02*
X36147599Y71346847D01*
X36147599Y71346847D02*
X37394446Y70100000D01*
X31540000Y86000000D02*
X32812792Y86000000D01*
X32812792Y86000000D02*
X36147599Y82665193D01*
X65700001Y79495201D02*
X71000000Y84795200D01*
X66500000Y75300000D02*
X65700001Y76099999D01*
X65700001Y76099999D02*
X65700001Y79495201D01*
X71000000Y86000000D02*
X71000000Y84795200D01*
X45960000Y68120000D02*
X45960000Y67720000D01*
D32*
X14635931Y35430000D02*
X14635931Y37080000D01*
X14635931Y37080000D02*
X15555931Y38000000D01*
X15555931Y38000000D02*
X26100000Y38000000D01*
X26100000Y38000000D02*
X27700000Y39600000D01*
X27700000Y39600000D02*
X63925000Y39600000D01*
X63925000Y39600000D02*
X67825000Y43500000D01*
X67825000Y43500000D02*
X68600000Y43500000D01*
X68600000Y43500000D02*
X69500000Y43500000D01*
X68600000Y44400000D02*
X68600000Y43500000D01*
X68600000Y49000000D02*
X70000000Y50400000D01*
X68600000Y44400000D02*
X68600000Y49000000D01*
X70000000Y50400000D02*
X71500000Y50400000D01*
X71500000Y50400000D02*
X73300000Y52200000D01*
X24795931Y35430000D02*
X24795931Y34227919D01*
X24795931Y34227919D02*
X26323850Y32700000D01*
X26323850Y32700000D02*
X28276770Y32700000D01*
X28276770Y32700000D02*
X29700000Y31276770D01*
X29700000Y31276770D02*
X29700000Y14675000D01*
X29700000Y14675000D02*
X26500000Y11475000D01*
X26500000Y11475000D02*
X26500000Y10000000D01*
X27335931Y35430000D02*
X27335931Y36632081D01*
X27335931Y36632081D02*
X28703850Y38000000D01*
X63100000Y13100000D02*
X81500000Y13100000D01*
X28703850Y38000000D02*
X38200000Y38000000D01*
X38200000Y38000000D02*
X63100000Y13100000D01*
X81500000Y13100000D02*
X83500000Y11100000D01*
X83500000Y11100000D02*
X83500000Y10000000D01*
X31705931Y33600000D02*
X40300000Y33600000D01*
X40300000Y33600000D02*
X63900000Y10000000D01*
X29875931Y35430000D02*
X31705931Y33600000D01*
X63900000Y10000000D02*
X73500000Y10000000D01*
D31*
X25200000Y46600000D02*
X22255931Y49544069D01*
X22255931Y49544069D02*
X22255931Y50880839D01*
D33*
X35100000Y41400000D02*
X34200000Y42300000D01*
X52700000Y41400000D02*
X35100000Y41400000D01*
X70800000Y52200000D02*
X63500000Y52200000D01*
X63500000Y52200000D02*
X52700000Y41400000D01*
X30000000Y66960000D02*
X30000000Y56000000D01*
X30000000Y56000000D02*
X32200000Y53800000D01*
X34200000Y51800000D02*
X34200000Y42300000D01*
X32200000Y53800000D02*
X33000000Y53800000D01*
X33000000Y53800000D02*
X34200000Y52600000D01*
X34200000Y52600000D02*
X34200000Y51800000D01*
X34200000Y42300000D02*
X19702081Y42300000D01*
X70800000Y52200000D02*
X71499999Y52899999D01*
X71499999Y52899999D02*
X71499999Y63400001D01*
X71499999Y63400001D02*
X69900000Y65000000D01*
X19702081Y42300000D02*
X18500000Y42300000D01*
D31*
X79450000Y45800000D02*
X79450000Y44385787D01*
X79450000Y44385787D02*
X79450000Y39300000D01*
X46300000Y46253553D02*
X46300000Y45900000D01*
X43767599Y48785954D02*
X46300000Y46253553D01*
X43767599Y58647601D02*
X43767599Y48785954D01*
X43420000Y58995200D02*
X43767599Y58647601D01*
X43420000Y60500000D02*
X43420000Y58995200D01*
X75950000Y45800000D02*
X79450000Y45800000D01*
X91050000Y45800000D02*
X91050000Y39300000D01*
X40880000Y60500000D02*
X40880000Y58995200D01*
X45346447Y45100000D02*
X45700000Y45100000D01*
X41227599Y49218848D02*
X45346447Y45100000D01*
X41227599Y58647601D02*
X41227599Y49218848D01*
X40880000Y58995200D02*
X41227599Y58647601D01*
X87500000Y45800000D02*
X91050000Y45800000D01*
X60160000Y50960000D02*
X51600000Y42400000D01*
X60160000Y56660000D02*
X60160000Y50960000D01*
X57620000Y56660000D02*
X57620000Y49420000D01*
X57620000Y49420000D02*
X50600000Y42400000D01*
G36*
X99264600Y46976564D02*
X99264600Y9304612D01*
X94695388Y4735400D01*
X69000000Y4735400D01*
X68765266Y4688708D01*
X68718574Y4679421D01*
X68479993Y4520006D01*
X64695388Y735400D01*
X35304613Y735400D01*
X31520006Y4520006D01*
X31281426Y4679421D01*
X31000000Y4735400D01*
X5304612Y4735400D01*
X3040012Y7000000D01*
X8164600Y7000000D01*
X8304312Y6297623D01*
X8702176Y5702176D01*
X9297623Y5304312D01*
X10000000Y5164600D01*
X10702377Y5304312D01*
X11297824Y5702176D01*
X11695688Y6297623D01*
X11835400Y7000000D01*
X31164600Y7000000D01*
X31304312Y6297623D01*
X31702176Y5702176D01*
X32297623Y5304312D01*
X33000000Y5164600D01*
X33702377Y5304312D01*
X34297824Y5702176D01*
X34695688Y6297623D01*
X34835400Y7000000D01*
X65164600Y7000000D01*
X65304312Y6297623D01*
X65702176Y5702176D01*
X66297623Y5304312D01*
X67000000Y5164600D01*
X67702377Y5304312D01*
X68297824Y5702176D01*
X68695688Y6297623D01*
X68835400Y7000000D01*
X88164600Y7000000D01*
X88304312Y6297623D01*
X88702176Y5702176D01*
X89297623Y5304312D01*
X90000000Y5164600D01*
X90702377Y5304312D01*
X91297824Y5702176D01*
X91695688Y6297623D01*
X91835400Y7000000D01*
X91695688Y7702377D01*
X91297824Y8297824D01*
X90702377Y8695688D01*
X90000000Y8835400D01*
X89297623Y8695688D01*
X88702176Y8297824D01*
X88304312Y7702377D01*
X88164600Y7000000D01*
X68835400Y7000000D01*
X68695688Y7702377D01*
X68297824Y8297824D01*
X67702377Y8695688D01*
X67000000Y8835400D01*
X66297623Y8695688D01*
X65702176Y8297824D01*
X65304312Y7702377D01*
X65164600Y7000000D01*
X34835400Y7000000D01*
X34695688Y7702377D01*
X34297824Y8297824D01*
X33702377Y8695688D01*
X33000000Y8835400D01*
X32297623Y8695688D01*
X31702176Y8297824D01*
X31304312Y7702377D01*
X31164600Y7000000D01*
X11835400Y7000000D01*
X11695688Y7702377D01*
X11297824Y8297824D01*
X10702377Y8695688D01*
X10000000Y8835400D01*
X9297623Y8695688D01*
X8702176Y8297824D01*
X8304312Y7702377D01*
X8164600Y7000000D01*
X3040012Y7000000D01*
X735400Y9304612D01*
X735400Y11500000D01*
X2164600Y11500000D01*
X2304312Y10797623D01*
X2702176Y10202176D01*
X3297623Y9804312D01*
X4000000Y9664600D01*
X4702377Y9804312D01*
X5034399Y10026162D01*
X15164600Y10026162D01*
X15164600Y9973838D01*
X15266251Y9462803D01*
X15555730Y9029568D01*
X15988965Y8740089D01*
X16500000Y8638438D01*
X17011035Y8740089D01*
X17444270Y9029568D01*
X17502446Y9116634D01*
X17510480Y9103229D01*
X17928982Y8792819D01*
X18050168Y8742644D01*
X18252400Y8856192D01*
X18252400Y9752400D01*
X18232400Y9752400D01*
X18232400Y10247600D01*
X18252400Y10247600D01*
X18252400Y11143808D01*
X18050168Y11257356D01*
X17928982Y11207181D01*
X17510480Y10896771D01*
X17502446Y10883366D01*
X17444270Y10970432D01*
X17011035Y11259911D01*
X16500000Y11361562D01*
X15988965Y11259911D01*
X15555730Y10970432D01*
X15266251Y10537197D01*
X15164600Y10026162D01*
X5034399Y10026162D01*
X5297824Y10202176D01*
X5695688Y10797623D01*
X5835400Y11500000D01*
X5695688Y12202377D01*
X5297824Y12797824D01*
X4702377Y13195688D01*
X4000000Y13335400D01*
X3297623Y13195688D01*
X2702176Y12797824D01*
X2304312Y12202377D01*
X2164600Y11500000D01*
X735400Y11500000D01*
X735400Y29500000D01*
X2164600Y29500000D01*
X2304312Y28797623D01*
X2702176Y28202176D01*
X3297623Y27804312D01*
X4000000Y27664600D01*
X4702377Y27804312D01*
X5297824Y28202176D01*
X5695688Y28797623D01*
X5835400Y29500000D01*
X5695688Y30202377D01*
X5297824Y30797824D01*
X4702377Y31195688D01*
X4000000Y31335400D01*
X3297623Y31195688D01*
X2702176Y30797824D01*
X2304312Y30202377D01*
X2164600Y29500000D01*
X735400Y29500000D01*
X735400Y31481362D01*
X15909600Y31481362D01*
X15909600Y30912700D01*
X16074700Y30747600D01*
X17172400Y30747600D01*
X17172400Y31845300D01*
X17007300Y32010400D01*
X16438639Y32010400D01*
X16195914Y31909860D01*
X16010140Y31724087D01*
X15909600Y31481362D01*
X735400Y31481362D01*
X735400Y46976564D01*
X7445649Y57000000D01*
X16164600Y57000000D01*
X16304312Y56297623D01*
X16702176Y55702176D01*
X17297623Y55304312D01*
X18000000Y55164600D01*
X18702377Y55304312D01*
X19297824Y55702176D01*
X19695688Y56297623D01*
X19835400Y57000000D01*
X19695688Y57702377D01*
X19297824Y58297824D01*
X18702377Y58695688D01*
X18000000Y58835400D01*
X17297623Y58695688D01*
X16702176Y58297824D01*
X16304312Y57702377D01*
X16164600Y57000000D01*
X7445649Y57000000D01*
X21504226Y78000000D01*
X29164600Y78000000D01*
X29304312Y77297623D01*
X29702176Y76702176D01*
X30297623Y76304312D01*
X31000000Y76164600D01*
X31702377Y76304312D01*
X32297824Y76702176D01*
X32695688Y77297623D01*
X32835400Y78000000D01*
X32695688Y78702377D01*
X32297824Y79297824D01*
X31702377Y79695688D01*
X31000000Y79835400D01*
X30297623Y79695688D01*
X29702176Y79297824D01*
X29304312Y78702377D01*
X29164600Y78000000D01*
X21504226Y78000000D01*
X27426662Y86846637D01*
X27426662Y85100000D01*
X27472711Y84855270D01*
X27617346Y84630501D01*
X27838034Y84479712D01*
X28100000Y84426662D01*
X28287487Y84426662D01*
X28425264Y84220464D01*
X33487199Y79158528D01*
X33487199Y76760412D01*
X33210783Y76760653D01*
X32673831Y76538789D01*
X32262655Y76128330D01*
X32039854Y75591766D01*
X32039347Y75010783D01*
X32261211Y74473831D01*
X32671670Y74062655D01*
X33208234Y73839854D01*
X33789217Y73839347D01*
X34326169Y74061211D01*
X34737345Y74471670D01*
X34960146Y75008234D01*
X34960653Y75589217D01*
X34944152Y75629152D01*
X35050928Y75788954D01*
X35076941Y75919730D01*
X35112799Y76099999D01*
X35112799Y79495201D01*
X35050928Y79806246D01*
X34937335Y79976250D01*
X34874735Y80069938D01*
X30343838Y84600834D01*
X30369499Y84617346D01*
X30510063Y84823069D01*
X30654950Y84677929D01*
X31228256Y84439871D01*
X31849021Y84439330D01*
X32422741Y84676386D01*
X32705084Y84958236D01*
X35334799Y82328520D01*
X35334799Y73239284D01*
X35229701Y73282805D01*
X35007600Y73171415D01*
X35007600Y72147600D01*
X35027600Y72147600D01*
X35027600Y71652400D01*
X35007600Y71652400D01*
X35007600Y70628585D01*
X35229701Y70517195D01*
X35405673Y70590065D01*
X35603314Y70741660D01*
X36644542Y69700432D01*
X36269701Y69902805D01*
X36047600Y69791415D01*
X36047600Y68367600D01*
X36067600Y68367600D01*
X36067600Y67872400D01*
X36047600Y67872400D01*
X36047600Y66448585D01*
X36269701Y66337195D01*
X36789249Y66617694D01*
X37074846Y66998848D01*
X37307341Y66650894D01*
X37781129Y66334319D01*
X38340000Y66223153D01*
X38898871Y66334319D01*
X39372659Y66650894D01*
X39610000Y67006100D01*
X39847341Y66650894D01*
X40321129Y66334319D01*
X40880000Y66223153D01*
X41438871Y66334319D01*
X41912659Y66650894D01*
X42150000Y67006100D01*
X42387341Y66650894D01*
X42861129Y66334319D01*
X43420000Y66223153D01*
X43978871Y66334319D01*
X44452659Y66650894D01*
X44690000Y67006100D01*
X44927341Y66650894D01*
X45401129Y66334319D01*
X45960000Y66223153D01*
X46518871Y66334319D01*
X46992659Y66650894D01*
X47225154Y66998848D01*
X47510751Y66617694D01*
X48030299Y66337195D01*
X48252400Y66448585D01*
X48252400Y67872400D01*
X48747600Y67872400D01*
X48747600Y66448585D01*
X48969701Y66337195D01*
X49489249Y66617694D01*
X49770000Y66992381D01*
X50050751Y66617694D01*
X50570299Y66337195D01*
X50792400Y66448585D01*
X50792400Y67872400D01*
X51287600Y67872400D01*
X51287600Y66448585D01*
X51509701Y66337195D01*
X52029249Y66617694D01*
X52133034Y66756205D01*
X52220140Y66545913D01*
X52405914Y66360140D01*
X52648639Y66259600D01*
X53167300Y66259600D01*
X53332400Y66424700D01*
X53332400Y67872400D01*
X53827600Y67872400D01*
X53827600Y66424700D01*
X53992700Y66259600D01*
X54511361Y66259600D01*
X54754086Y66360140D01*
X54939860Y66545913D01*
X55040400Y66788638D01*
X55040400Y67707300D01*
X54875300Y67872400D01*
X53827600Y67872400D01*
X53332400Y67872400D01*
X51287600Y67872400D01*
X50792400Y67872400D01*
X48747600Y67872400D01*
X48252400Y67872400D01*
X48232400Y67872400D01*
X48232400Y68367600D01*
X48252400Y68367600D01*
X48252400Y68387600D01*
X48747600Y68387600D01*
X48747600Y68367600D01*
X50792400Y68367600D01*
X50792400Y68387600D01*
X51287600Y68387600D01*
X51287600Y68367600D01*
X53332400Y68367600D01*
X53332400Y68387600D01*
X53827600Y68387600D01*
X53827600Y68367600D01*
X54875300Y68367600D01*
X55040400Y68532700D01*
X55040400Y69451362D01*
X55025555Y69487200D01*
X58695257Y69487200D01*
X58367808Y68997139D01*
X58249030Y68400000D01*
X58367808Y67802861D01*
X58706061Y67296631D01*
X59212291Y66958378D01*
X59809430Y66839600D01*
X59870570Y66839600D01*
X60467709Y66958378D01*
X60973939Y67296631D01*
X61312192Y67802861D01*
X61430970Y68400000D01*
X61312192Y68997139D01*
X60984743Y69487200D01*
X64663328Y69487200D01*
X68025264Y66125263D01*
X68224189Y65992346D01*
X68288955Y65949071D01*
X68600000Y65887200D01*
X68741537Y65887200D01*
X68522155Y65558871D01*
X68410989Y65000000D01*
X68522155Y64441129D01*
X68838730Y63967341D01*
X69312518Y63650766D01*
X69871389Y63539600D01*
X69928611Y63539600D01*
X70048961Y63563539D01*
X70589599Y63022901D01*
X70589599Y62954999D01*
X70562722Y63033400D01*
X70002005Y63185513D01*
X69425759Y63111471D01*
X69237278Y63033400D01*
X69155451Y62794709D01*
X69900000Y62050159D01*
X69914142Y62064302D01*
X70264302Y61714142D01*
X70250159Y61700000D01*
X70264302Y61685857D01*
X69914142Y61335698D01*
X69900000Y61349841D01*
X69155451Y60605291D01*
X69237278Y60366600D01*
X69797995Y60214487D01*
X70374241Y60288529D01*
X70562722Y60366600D01*
X70589599Y60445001D01*
X70589599Y53560585D01*
X70530587Y53560636D01*
X70030402Y53353964D01*
X69786412Y53110400D01*
X63500000Y53110400D01*
X63151605Y53041100D01*
X62856250Y52843750D01*
X60972800Y50960300D01*
X60972800Y55451825D01*
X61192659Y55598730D01*
X61430000Y55953936D01*
X61667341Y55598730D01*
X62141129Y55282155D01*
X62700000Y55170989D01*
X63258871Y55282155D01*
X63732659Y55598730D01*
X63970000Y55953936D01*
X64207341Y55598730D01*
X64681129Y55282155D01*
X65240000Y55170989D01*
X65798871Y55282155D01*
X66272659Y55598730D01*
X66510000Y55953936D01*
X66747341Y55598730D01*
X67221129Y55282155D01*
X67780000Y55170989D01*
X68338871Y55282155D01*
X68812659Y55598730D01*
X69129234Y56072518D01*
X69240400Y56631389D01*
X69240400Y56688611D01*
X69129234Y57247482D01*
X68812659Y57721270D01*
X68338871Y58037845D01*
X67780000Y58149011D01*
X67221129Y58037845D01*
X66747341Y57721270D01*
X66510000Y57366064D01*
X66272659Y57721270D01*
X65798871Y58037845D01*
X65240000Y58149011D01*
X64681129Y58037845D01*
X64207341Y57721270D01*
X63970000Y57366064D01*
X63732659Y57721270D01*
X63258871Y58037845D01*
X62700000Y58149011D01*
X62141129Y58037845D01*
X61667341Y57721270D01*
X61430000Y57366064D01*
X61192659Y57721270D01*
X60718871Y58037845D01*
X60160000Y58149011D01*
X59601129Y58037845D01*
X59127341Y57721270D01*
X58890000Y57366064D01*
X58652659Y57721270D01*
X58178871Y58037845D01*
X57620000Y58149011D01*
X57061129Y58037845D01*
X56587341Y57721270D01*
X56350000Y57366064D01*
X56112659Y57721270D01*
X55638871Y58037845D01*
X55080000Y58149011D01*
X54521129Y58037845D01*
X54047341Y57721270D01*
X53810000Y57366064D01*
X53572659Y57721270D01*
X53098871Y58037845D01*
X52540000Y58149011D01*
X51981129Y58037845D01*
X51507341Y57721270D01*
X51270000Y57366064D01*
X51032659Y57721270D01*
X50558871Y58037845D01*
X50082144Y58132672D01*
X50633486Y58684013D01*
X51040000Y58603153D01*
X51598871Y58714319D01*
X52072659Y59030894D01*
X52310000Y59386100D01*
X52547341Y59030894D01*
X53021129Y58714319D01*
X53580000Y58603153D01*
X54138871Y58714319D01*
X54612659Y59030894D01*
X54929234Y59504682D01*
X55040400Y60063553D01*
X55040400Y60936447D01*
X54929234Y61495318D01*
X54792470Y61700000D01*
X58250989Y61700000D01*
X58362155Y61141129D01*
X58678730Y60667341D01*
X59152518Y60350766D01*
X59711389Y60239600D01*
X59768611Y60239600D01*
X60327482Y60350766D01*
X60801270Y60667341D01*
X61117845Y61141129D01*
X61229011Y61700000D01*
X61208722Y61802005D01*
X68414487Y61802005D01*
X68488529Y61225759D01*
X68566600Y61037278D01*
X68805291Y60955451D01*
X69549841Y61700000D01*
X68805291Y62444549D01*
X68566600Y62362722D01*
X68414487Y61802005D01*
X61208722Y61802005D01*
X61117845Y62258871D01*
X60801270Y62732659D01*
X60327482Y63049234D01*
X59768611Y63160400D01*
X59711389Y63160400D01*
X59152518Y63049234D01*
X58678730Y62732659D01*
X58362155Y62258871D01*
X58250989Y61700000D01*
X54792470Y61700000D01*
X54612659Y61969106D01*
X54138871Y62285681D01*
X53580000Y62396847D01*
X53021129Y62285681D01*
X52547341Y61969106D01*
X52310000Y61613900D01*
X52072659Y61969106D01*
X51598871Y62285681D01*
X51040000Y62396847D01*
X50481129Y62285681D01*
X50007341Y61969106D01*
X49770000Y61613900D01*
X49532659Y61969106D01*
X49058871Y62285681D01*
X48500000Y62396847D01*
X47941129Y62285681D01*
X47467341Y61969106D01*
X47230000Y61613900D01*
X46992659Y61969106D01*
X46518871Y62285681D01*
X45960000Y62396847D01*
X45401129Y62285681D01*
X44927341Y61969106D01*
X44690000Y61613900D01*
X44452659Y61969106D01*
X43978871Y62285681D01*
X43420000Y62396847D01*
X42861129Y62285681D01*
X42387341Y61969106D01*
X42150000Y61613900D01*
X41912659Y61969106D01*
X41438871Y62285681D01*
X40880000Y62396847D01*
X40321129Y62285681D01*
X39847341Y61969106D01*
X39610000Y61613900D01*
X39372659Y61969106D01*
X38898871Y62285681D01*
X38340000Y62396847D01*
X37781129Y62285681D01*
X37307341Y61969106D01*
X37070000Y61613900D01*
X36832659Y61969106D01*
X36358871Y62285681D01*
X35800000Y62396847D01*
X35241129Y62285681D01*
X34767341Y61969106D01*
X34450766Y61495318D01*
X34339600Y60936447D01*
X34339600Y60063553D01*
X34450766Y59504682D01*
X34767341Y59030894D01*
X35241129Y58714319D01*
X35800000Y58603153D01*
X36358871Y58714319D01*
X36832659Y59030894D01*
X37070000Y59386100D01*
X37307341Y59030894D01*
X37781129Y58714319D01*
X38340000Y58603153D01*
X38898871Y58714319D01*
X39372659Y59030894D01*
X39610000Y59386100D01*
X39847341Y59030894D01*
X40092712Y58866942D01*
X40123071Y58714319D01*
X40129071Y58684155D01*
X40305264Y58420464D01*
X40414799Y58310929D01*
X40414799Y57999284D01*
X40309701Y58042805D01*
X40087600Y57931415D01*
X40087600Y56907600D01*
X40107600Y56907600D01*
X40107600Y56412400D01*
X40087600Y56412400D01*
X40087600Y55388585D01*
X40309701Y55277195D01*
X40414799Y55320716D01*
X40414799Y49218848D01*
X40424440Y49170382D01*
X35572800Y54022021D01*
X35572800Y55451825D01*
X35792659Y55598730D01*
X36030000Y55953936D01*
X36267341Y55598730D01*
X36741129Y55282155D01*
X37300000Y55170989D01*
X37858871Y55282155D01*
X38332659Y55598730D01*
X38582711Y55972960D01*
X38742185Y55696866D01*
X39194327Y55350065D01*
X39370299Y55277195D01*
X39592400Y55388585D01*
X39592400Y56412400D01*
X39572400Y56412400D01*
X39572400Y56907600D01*
X39592400Y56907600D01*
X39592400Y57931415D01*
X39370299Y58042805D01*
X39194327Y57969935D01*
X38742185Y57623134D01*
X38582711Y57347040D01*
X38332659Y57721270D01*
X37858871Y58037845D01*
X37300000Y58149011D01*
X36741129Y58037845D01*
X36267341Y57721270D01*
X36030000Y57366064D01*
X35792659Y57721270D01*
X35318871Y58037845D01*
X34760000Y58149011D01*
X34201129Y58037845D01*
X33727341Y57721270D01*
X33662450Y57624154D01*
X33647289Y57704730D01*
X33502654Y57929499D01*
X33281966Y58080288D01*
X33020000Y58133338D01*
X31420000Y58133338D01*
X31175270Y58087289D01*
X30950501Y57942654D01*
X30910400Y57883964D01*
X30910400Y64710783D01*
X58279347Y64710783D01*
X58501211Y64173831D01*
X58911670Y63762655D01*
X59448234Y63539854D01*
X60029217Y63539347D01*
X60566169Y63761211D01*
X60977345Y64171670D01*
X61200146Y64708234D01*
X61200653Y65289217D01*
X60978789Y65826169D01*
X60568330Y66237345D01*
X60031766Y66460146D01*
X59450783Y66460653D01*
X58913831Y66238789D01*
X58502655Y65828330D01*
X58279854Y65291766D01*
X58279347Y64710783D01*
X30910400Y64710783D01*
X30910400Y65867447D01*
X31104499Y65992346D01*
X31255288Y66213034D01*
X31308338Y66475000D01*
X31308338Y67445000D01*
X31278102Y67605691D01*
X31285061Y67640056D01*
X34321047Y67640056D01*
X34464219Y67080171D01*
X34810751Y66617694D01*
X35330299Y66337195D01*
X35552400Y66448585D01*
X35552400Y67872400D01*
X34491849Y67872400D01*
X34321047Y67640056D01*
X31285061Y67640056D01*
X31308338Y67755000D01*
X31308338Y68260838D01*
X31647444Y68599944D01*
X34321047Y68599944D01*
X34491849Y68367600D01*
X35552400Y68367600D01*
X35552400Y69791415D01*
X35330299Y69902805D01*
X34810751Y69622306D01*
X34464219Y69159829D01*
X34321047Y68599944D01*
X31647444Y68599944D01*
X32863750Y69816250D01*
X33061100Y70111605D01*
X33130400Y70460000D01*
X33130400Y70757039D01*
X33252659Y70838730D01*
X33502711Y71212960D01*
X33662185Y70936866D01*
X34114327Y70590065D01*
X34290299Y70517195D01*
X34512400Y70628585D01*
X34512400Y71652400D01*
X34492400Y71652400D01*
X34492400Y72147600D01*
X34512400Y72147600D01*
X34512400Y73171415D01*
X34290299Y73282805D01*
X34114327Y73209935D01*
X33662185Y72863134D01*
X33502711Y72587040D01*
X33252659Y72961270D01*
X32778871Y73277845D01*
X32220000Y73389011D01*
X31661129Y73277845D01*
X31187341Y72961270D01*
X30870766Y72487482D01*
X30759600Y71928611D01*
X30759600Y71871389D01*
X30870766Y71312518D01*
X31187341Y70838730D01*
X31261607Y70789107D01*
X29870838Y69398338D01*
X29365000Y69398338D01*
X29120270Y69352289D01*
X28895501Y69207654D01*
X28744712Y68986966D01*
X28691662Y68725000D01*
X28691662Y67755000D01*
X28721898Y67594309D01*
X28691662Y67445000D01*
X28691662Y66475000D01*
X28737711Y66230270D01*
X28882346Y66005501D01*
X29089600Y65863891D01*
X29089600Y56000000D01*
X29158900Y55651605D01*
X29356250Y55356250D01*
X31556250Y53156250D01*
X31851605Y52958900D01*
X32200000Y52889600D01*
X32622900Y52889600D01*
X33289600Y52222900D01*
X33289600Y52077985D01*
X33091411Y52231800D01*
X32893565Y52313729D01*
X32663531Y52203158D01*
X32663531Y51128439D01*
X32683531Y51128439D01*
X32683531Y50633239D01*
X32663531Y50633239D01*
X32663531Y49558520D01*
X32893565Y49447949D01*
X33091411Y49529878D01*
X33289600Y49683693D01*
X33289600Y43210400D01*
X19702918Y43210400D01*
X19597604Y43368014D01*
X19280630Y43579809D01*
X19489630Y43698948D01*
X19850961Y44164520D01*
X19932890Y44362366D01*
X19822319Y44592400D01*
X18747600Y44592400D01*
X18747600Y44572400D01*
X18252400Y44572400D01*
X18252400Y44592400D01*
X18232400Y44592400D01*
X18232400Y45087600D01*
X18252400Y45087600D01*
X18252400Y45107600D01*
X18747600Y45107600D01*
X18747600Y45087600D01*
X19822319Y45087600D01*
X19932890Y45317634D01*
X19850961Y45515480D01*
X19489630Y45981052D01*
X19280630Y46100191D01*
X19597604Y46311986D01*
X19925018Y46801995D01*
X20039990Y47380000D01*
X19925018Y47958005D01*
X19597604Y48448014D01*
X19107595Y48775428D01*
X18529590Y48890400D01*
X18470410Y48890400D01*
X17892405Y48775428D01*
X17402396Y48448014D01*
X17074982Y47958005D01*
X16960010Y47380000D01*
X17001901Y47169401D01*
X16600000Y46767500D01*
X14009999Y49357501D01*
X15485931Y49357501D01*
X15730661Y49403550D01*
X15955430Y49548185D01*
X16106219Y49768873D01*
X16108983Y49782523D01*
X16597926Y49455821D01*
X17175931Y49340849D01*
X17753936Y49455821D01*
X18243945Y49783235D01*
X18445931Y50085528D01*
X18647917Y49783235D01*
X19137926Y49455821D01*
X19715931Y49340849D01*
X20293936Y49455821D01*
X20783945Y49783235D01*
X20985931Y50085528D01*
X21187917Y49783235D01*
X21443131Y49612706D01*
X21443131Y49544069D01*
X21502868Y49243750D01*
X21505002Y49233024D01*
X21681195Y48969333D01*
X24330718Y46319809D01*
X24427750Y46084973D01*
X24683626Y45828650D01*
X25018116Y45689758D01*
X25380295Y45689442D01*
X25715027Y45827750D01*
X25971350Y46083626D01*
X26110242Y46418116D01*
X26110558Y46780295D01*
X25972250Y47115027D01*
X25716374Y47371350D01*
X25479952Y47469521D01*
X23229406Y49720066D01*
X23323945Y49783235D01*
X23525931Y50085528D01*
X23727917Y49783235D01*
X24217926Y49455821D01*
X24795931Y49340849D01*
X25373936Y49455821D01*
X25863945Y49783235D01*
X26065931Y50085528D01*
X26267917Y49783235D01*
X26757926Y49455821D01*
X27335931Y49340849D01*
X27913936Y49455821D01*
X28403945Y49783235D01*
X28605931Y50085528D01*
X28807917Y49783235D01*
X29297926Y49455821D01*
X29875931Y49340849D01*
X30453936Y49455821D01*
X30943945Y49783235D01*
X31155740Y50100209D01*
X31274879Y49891209D01*
X31740451Y49529878D01*
X31938297Y49447949D01*
X32168331Y49558520D01*
X32168331Y50633239D01*
X32148331Y50633239D01*
X32148331Y51128439D01*
X32168331Y51128439D01*
X32168331Y52203158D01*
X31938297Y52313729D01*
X31740451Y52231800D01*
X31274879Y51870469D01*
X31155740Y51661469D01*
X30943945Y51978443D01*
X30453936Y52305857D01*
X29875931Y52420829D01*
X29297926Y52305857D01*
X28807917Y51978443D01*
X28605931Y51676150D01*
X28403945Y51978443D01*
X27913936Y52305857D01*
X27335931Y52420829D01*
X26757926Y52305857D01*
X26267917Y51978443D01*
X26065931Y51676150D01*
X25863945Y51978443D01*
X25373936Y52305857D01*
X24795931Y52420829D01*
X24217926Y52305857D01*
X23727917Y51978443D01*
X23525931Y51676150D01*
X23323945Y51978443D01*
X22833936Y52305857D01*
X22255931Y52420829D01*
X21677926Y52305857D01*
X21187917Y51978443D01*
X20985931Y51676150D01*
X20783945Y51978443D01*
X20293936Y52305857D01*
X19715931Y52420829D01*
X19137926Y52305857D01*
X18647917Y51978443D01*
X18445931Y51676150D01*
X18243945Y51978443D01*
X17753936Y52305857D01*
X17175931Y52420829D01*
X16597926Y52305857D01*
X16110332Y51980057D01*
X15968585Y52200338D01*
X15747897Y52351127D01*
X15485931Y52404177D01*
X13891677Y52404177D01*
X14177100Y52689600D01*
X20100000Y52689600D01*
X20448395Y52758900D01*
X20743750Y52956250D01*
X24770467Y56982967D01*
X24792819Y56928982D01*
X24949299Y56718012D01*
X24855501Y56657654D01*
X24704712Y56436966D01*
X24651662Y56175000D01*
X24651662Y54825000D01*
X24697711Y54580270D01*
X24842346Y54355501D01*
X25063034Y54204712D01*
X25325000Y54151662D01*
X26675000Y54151662D01*
X26919730Y54197711D01*
X27144499Y54342346D01*
X27295288Y54563034D01*
X27348338Y54825000D01*
X27348338Y56175000D01*
X27302289Y56419730D01*
X27157654Y56644499D01*
X27050487Y56717723D01*
X27207181Y56928982D01*
X27257356Y57050168D01*
X27143808Y57252400D01*
X26247600Y57252400D01*
X26247600Y57232400D01*
X25752400Y57232400D01*
X25752400Y57252400D01*
X25732400Y57252400D01*
X25732400Y57747600D01*
X25752400Y57747600D01*
X25752400Y57767600D01*
X26247600Y57767600D01*
X26247600Y57747600D01*
X27143808Y57747600D01*
X27257356Y57949832D01*
X27207181Y58071018D01*
X26896771Y58489520D01*
X26883366Y58497554D01*
X26970432Y58555730D01*
X27259911Y58988965D01*
X27361562Y59500000D01*
X27259911Y60011035D01*
X26970432Y60444270D01*
X26537197Y60733749D01*
X26026162Y60835400D01*
X25973838Y60835400D01*
X25462803Y60733749D01*
X25029568Y60444270D01*
X24740089Y60011035D01*
X24638438Y59500000D01*
X24650726Y59438226D01*
X19722900Y54510400D01*
X13800000Y54510400D01*
X13451605Y54441100D01*
X13156250Y54243750D01*
X11956250Y53043750D01*
X11758900Y52748395D01*
X11689600Y52400000D01*
X11689600Y49480000D01*
X11758900Y49131605D01*
X11956250Y48836250D01*
X15689600Y45102900D01*
X15689600Y40111884D01*
X15639767Y39991873D01*
X15639434Y39609803D01*
X15785338Y39256688D01*
X15981284Y39060400D01*
X15555931Y39060400D01*
X15150133Y38979682D01*
X14806115Y38749816D01*
X13886115Y37829816D01*
X13656249Y37485798D01*
X13575531Y37080000D01*
X13575531Y36913749D01*
X13541201Y36907289D01*
X13316432Y36762654D01*
X13165643Y36541966D01*
X13112593Y36280000D01*
X13112593Y34580000D01*
X13158642Y34335270D01*
X13303277Y34110501D01*
X13523965Y33959712D01*
X13785931Y33906662D01*
X15485931Y33906662D01*
X15730661Y33952711D01*
X15955430Y34097346D01*
X16106219Y34318034D01*
X16108983Y34331684D01*
X16597926Y34004982D01*
X17175931Y33890010D01*
X17386530Y33931901D01*
X19049600Y32268831D01*
X19049600Y31702918D01*
X18891986Y31597604D01*
X18885976Y31588610D01*
X18829860Y31724087D01*
X18644086Y31909860D01*
X18401361Y32010400D01*
X17832700Y32010400D01*
X17667600Y31845300D01*
X17667600Y30747600D01*
X17687600Y30747600D01*
X17687600Y30252400D01*
X17667600Y30252400D01*
X17667600Y30232400D01*
X17172400Y30232400D01*
X17172400Y30252400D01*
X16074700Y30252400D01*
X15909600Y30087300D01*
X15909600Y29518638D01*
X16010140Y29275913D01*
X16173254Y29112800D01*
X14516551Y29112800D01*
X14281884Y29210242D01*
X13919705Y29210558D01*
X13584973Y29072250D01*
X13328650Y28816374D01*
X13189758Y28481884D01*
X13189442Y28119705D01*
X13327750Y27784973D01*
X13583626Y27528650D01*
X13918116Y27389758D01*
X14280295Y27389442D01*
X14516888Y27487200D01*
X20300000Y27487200D01*
X20611045Y27549071D01*
X20874736Y27725264D01*
X22174273Y29024801D01*
X22500000Y28960010D01*
X23078005Y29074982D01*
X23568014Y29402396D01*
X23770000Y29704689D01*
X23971986Y29402396D01*
X24461995Y29074982D01*
X25040000Y28960010D01*
X25618005Y29074982D01*
X26108014Y29402396D01*
X26310000Y29704689D01*
X26511986Y29402396D01*
X27001995Y29074982D01*
X27580000Y28960010D01*
X28158005Y29074982D01*
X28639600Y29396774D01*
X28639600Y15114232D01*
X25750184Y12224816D01*
X25520318Y11880798D01*
X25439600Y11475000D01*
X25439600Y11211770D01*
X25355501Y11157654D01*
X25295499Y11069838D01*
X25011035Y11259911D01*
X24500000Y11361562D01*
X23988965Y11259911D01*
X23555730Y10970432D01*
X23500000Y10887026D01*
X23444270Y10970432D01*
X23011035Y11259911D01*
X22500000Y11361562D01*
X21988965Y11259911D01*
X21555730Y10970432D01*
X21500000Y10887026D01*
X21444270Y10970432D01*
X21011035Y11259911D01*
X20500000Y11361562D01*
X19988965Y11259911D01*
X19555730Y10970432D01*
X19497554Y10883366D01*
X19489520Y10896771D01*
X19071018Y11207181D01*
X18949832Y11257356D01*
X18747600Y11143808D01*
X18747600Y10247600D01*
X18767600Y10247600D01*
X18767600Y9752400D01*
X18747600Y9752400D01*
X18747600Y8856192D01*
X18949832Y8742644D01*
X19071018Y8792819D01*
X19489520Y9103229D01*
X19497554Y9116634D01*
X19555730Y9029568D01*
X19988965Y8740089D01*
X20500000Y8638438D01*
X21011035Y8740089D01*
X21444270Y9029568D01*
X21500000Y9112974D01*
X21555730Y9029568D01*
X21988965Y8740089D01*
X22500000Y8638438D01*
X23011035Y8740089D01*
X23444270Y9029568D01*
X23500000Y9112974D01*
X23555730Y9029568D01*
X23988965Y8740089D01*
X24500000Y8638438D01*
X25011035Y8740089D01*
X25294662Y8929603D01*
X25342346Y8855501D01*
X25563034Y8704712D01*
X25825000Y8651662D01*
X27175000Y8651662D01*
X27419730Y8697711D01*
X27644499Y8842346D01*
X27795288Y9063034D01*
X27848338Y9325000D01*
X27848338Y10675000D01*
X27802289Y10919730D01*
X27662148Y11137516D01*
X30449816Y13925184D01*
X30679682Y14269202D01*
X30760400Y14675000D01*
X30760400Y31276770D01*
X30679682Y31682568D01*
X30449816Y32026586D01*
X29026586Y33449816D01*
X28682568Y33679682D01*
X28276770Y33760400D01*
X26763082Y33760400D01*
X25994979Y34528503D01*
X26065931Y34634689D01*
X26267917Y34332396D01*
X26757926Y34004982D01*
X27335931Y33890010D01*
X27913936Y34004982D01*
X28403945Y34332396D01*
X28605931Y34634689D01*
X28807917Y34332396D01*
X29297926Y34004982D01*
X29875931Y33890010D01*
X29909593Y33896706D01*
X30956115Y32850184D01*
X31300133Y32620318D01*
X31705931Y32539600D01*
X32064020Y32539600D01*
X31702176Y32297824D01*
X31304312Y31702377D01*
X31164600Y31000000D01*
X31304312Y30297623D01*
X31702176Y29702176D01*
X32297623Y29304312D01*
X33000000Y29164600D01*
X33702377Y29304312D01*
X34297824Y29702176D01*
X34695688Y30297623D01*
X34835400Y31000000D01*
X34695688Y31702377D01*
X34297824Y32297824D01*
X33935980Y32539600D01*
X39860768Y32539600D01*
X63150184Y9250184D01*
X63494202Y9020318D01*
X63900000Y8939600D01*
X72288230Y8939600D01*
X72342346Y8855501D01*
X72563034Y8704712D01*
X72825000Y8651662D01*
X74175000Y8651662D01*
X74419730Y8697711D01*
X74644499Y8842346D01*
X74704501Y8930162D01*
X74988965Y8740089D01*
X75500000Y8638438D01*
X76011035Y8740089D01*
X76444270Y9029568D01*
X76500000Y9112974D01*
X76555730Y9029568D01*
X76988965Y8740089D01*
X77500000Y8638438D01*
X78011035Y8740089D01*
X78444270Y9029568D01*
X78500000Y9112974D01*
X78555730Y9029568D01*
X78988965Y8740089D01*
X79500000Y8638438D01*
X80011035Y8740089D01*
X80444270Y9029568D01*
X80502446Y9116634D01*
X80510480Y9103229D01*
X80928982Y8792819D01*
X81050168Y8742644D01*
X81252400Y8856192D01*
X81252400Y9752400D01*
X81232400Y9752400D01*
X81232400Y10247600D01*
X81252400Y10247600D01*
X81252400Y11143808D01*
X81050168Y11257356D01*
X80928982Y11207181D01*
X80510480Y10896771D01*
X80502446Y10883366D01*
X80444270Y10970432D01*
X80011035Y11259911D01*
X79500000Y11361562D01*
X78988965Y11259911D01*
X78555730Y10970432D01*
X78500000Y10887026D01*
X78444270Y10970432D01*
X78011035Y11259911D01*
X77500000Y11361562D01*
X76988965Y11259911D01*
X76555730Y10970432D01*
X76500000Y10887026D01*
X76444270Y10970432D01*
X76011035Y11259911D01*
X75500000Y11361562D01*
X74988965Y11259911D01*
X74705338Y11070397D01*
X74657654Y11144499D01*
X74436966Y11295288D01*
X74175000Y11348338D01*
X72825000Y11348338D01*
X72580270Y11302289D01*
X72355501Y11157654D01*
X72289050Y11060400D01*
X64339232Y11060400D01*
X63360032Y12039600D01*
X81060768Y12039600D01*
X81881422Y11218946D01*
X81747600Y11143808D01*
X81747600Y10247600D01*
X81767600Y10247600D01*
X81767600Y9752400D01*
X81747600Y9752400D01*
X81747600Y8856192D01*
X81949832Y8742644D01*
X82071018Y8792819D01*
X82489520Y9103229D01*
X82497554Y9116634D01*
X82555730Y9029568D01*
X82988965Y8740089D01*
X83500000Y8638438D01*
X84011035Y8740089D01*
X84444270Y9029568D01*
X84733749Y9462803D01*
X84835400Y9973838D01*
X84835400Y10026162D01*
X84733749Y10537197D01*
X84560400Y10796632D01*
X84560400Y11100000D01*
X84480836Y11500000D01*
X94164600Y11500000D01*
X94304312Y10797623D01*
X94702176Y10202176D01*
X95297623Y9804312D01*
X96000000Y9664600D01*
X96702377Y9804312D01*
X97297824Y10202176D01*
X97695688Y10797623D01*
X97835400Y11500000D01*
X97695688Y12202377D01*
X97297824Y12797824D01*
X96702377Y13195688D01*
X96000000Y13335400D01*
X95297623Y13195688D01*
X94702176Y12797824D01*
X94304312Y12202377D01*
X94164600Y11500000D01*
X84480836Y11500000D01*
X84479682Y11505798D01*
X84249816Y11849816D01*
X82249816Y13849816D01*
X82137020Y13925184D01*
X81905798Y14079682D01*
X81500000Y14160400D01*
X63539232Y14160400D01*
X46699632Y31000000D01*
X65164600Y31000000D01*
X65304312Y30297623D01*
X65702176Y29702176D01*
X66297623Y29304312D01*
X67000000Y29164600D01*
X67702377Y29304312D01*
X68297824Y29702176D01*
X68695688Y30297623D01*
X68702046Y30329590D01*
X73529600Y30329590D01*
X73529600Y30270410D01*
X73644572Y29692405D01*
X73971986Y29202396D01*
X74461995Y28874982D01*
X75040000Y28760010D01*
X75618005Y28874982D01*
X76108014Y29202396D01*
X76310000Y29504689D01*
X76511986Y29202396D01*
X77001995Y28874982D01*
X77580000Y28760010D01*
X78158005Y28874982D01*
X78648014Y29202396D01*
X78850000Y29504689D01*
X79051986Y29202396D01*
X79541995Y28874982D01*
X80120000Y28760010D01*
X80698005Y28874982D01*
X81188014Y29202396D01*
X81399809Y29519370D01*
X81518948Y29310370D01*
X81984520Y28949039D01*
X82182366Y28867110D01*
X82412400Y28977681D01*
X82412400Y30052400D01*
X82392400Y30052400D01*
X82392400Y30547600D01*
X82412400Y30547600D01*
X82412400Y31622319D01*
X82182366Y31732890D01*
X81984520Y31650961D01*
X81518948Y31289630D01*
X81399809Y31080630D01*
X81188014Y31397604D01*
X80698005Y31725018D01*
X80120000Y31839990D01*
X79541995Y31725018D01*
X79051986Y31397604D01*
X78850000Y31095311D01*
X78648014Y31397604D01*
X78158005Y31725018D01*
X77580000Y31839990D01*
X77001995Y31725018D01*
X76511986Y31397604D01*
X76310000Y31095311D01*
X76108014Y31397604D01*
X75618005Y31725018D01*
X75040000Y31839990D01*
X74461995Y31725018D01*
X73971986Y31397604D01*
X73644572Y30907595D01*
X73529600Y30329590D01*
X68702046Y30329590D01*
X68835400Y31000000D01*
X68695688Y31702377D01*
X68297824Y32297824D01*
X67702377Y32695688D01*
X67000000Y32835400D01*
X66297623Y32695688D01*
X65702176Y32297824D01*
X65304312Y31702377D01*
X65164600Y31000000D01*
X46699632Y31000000D01*
X40349329Y37350303D01*
X68700462Y37350303D01*
X68791729Y37103906D01*
X69379905Y36939134D01*
X69986364Y37011989D01*
X70208271Y37103906D01*
X70299538Y37350303D01*
X69500000Y38149841D01*
X68700462Y37350303D01*
X40349329Y37350303D01*
X39160032Y38539600D01*
X63925000Y38539600D01*
X64329676Y38620095D01*
X67939134Y38620095D01*
X68011989Y38013636D01*
X68103906Y37791729D01*
X68350303Y37700462D01*
X69149841Y38500000D01*
X69850159Y38500000D01*
X70649697Y37700462D01*
X70896094Y37791729D01*
X71060866Y38379905D01*
X70988011Y38986364D01*
X70896094Y39208271D01*
X70649697Y39299538D01*
X69850159Y38500000D01*
X69149841Y38500000D01*
X68350303Y39299538D01*
X68103906Y39208271D01*
X67939134Y38620095D01*
X64329676Y38620095D01*
X64330798Y38620318D01*
X64674816Y38850184D01*
X68078834Y42254202D01*
X68142346Y42155501D01*
X68345314Y42016819D01*
X68199110Y41870870D01*
X67964867Y41306750D01*
X67964334Y40695930D01*
X68197592Y40131402D01*
X68629130Y39699110D01*
X68706816Y39666852D01*
X68700462Y39649697D01*
X69500000Y38850159D01*
X70299538Y39649697D01*
X70293319Y39666487D01*
X70368598Y39697592D01*
X70800890Y40129130D01*
X71035133Y40693250D01*
X71035666Y41304070D01*
X70802408Y41868598D01*
X70652482Y42018786D01*
X70844499Y42142346D01*
X70995288Y42363034D01*
X71048338Y42625000D01*
X71048338Y44375000D01*
X71002289Y44619730D01*
X70857654Y44844499D01*
X70636966Y44995288D01*
X70375000Y45048338D01*
X69660400Y45048338D01*
X69660400Y47816013D01*
X70028389Y47447381D01*
X70528213Y47239836D01*
X71069413Y47239364D01*
X71569598Y47446036D01*
X71952619Y47828389D01*
X72049983Y48062868D01*
X72146036Y47830402D01*
X72389600Y47586412D01*
X72389600Y38290000D01*
X72458900Y37941605D01*
X72656250Y37646250D01*
X74489750Y35812750D01*
X74489347Y35350783D01*
X74711211Y34813831D01*
X75121670Y34402655D01*
X75658234Y34179854D01*
X76239217Y34179347D01*
X76776169Y34401211D01*
X77105132Y34729600D01*
X84289600Y34729600D01*
X84289600Y31502918D01*
X84131986Y31397604D01*
X83920191Y31080630D01*
X83801052Y31289630D01*
X83335480Y31650961D01*
X83137634Y31732890D01*
X82907600Y31622319D01*
X82907600Y30547600D01*
X82927600Y30547600D01*
X82927600Y30052400D01*
X82907600Y30052400D01*
X82907600Y28977681D01*
X83137634Y28867110D01*
X83335480Y28949039D01*
X83801052Y29310370D01*
X83920191Y29519370D01*
X84131986Y29202396D01*
X84621995Y28874982D01*
X85200000Y28760010D01*
X85778005Y28874982D01*
X86265599Y29200782D01*
X86407346Y28980501D01*
X86628034Y28829712D01*
X86890000Y28776662D01*
X88590000Y28776662D01*
X88834730Y28822711D01*
X89059499Y28967346D01*
X89210288Y29188034D01*
X89263338Y29450000D01*
X89263338Y29500000D01*
X94164600Y29500000D01*
X94304312Y28797623D01*
X94702176Y28202176D01*
X95297623Y27804312D01*
X96000000Y27664600D01*
X96702377Y27804312D01*
X97297824Y28202176D01*
X97695688Y28797623D01*
X97835400Y29500000D01*
X97695688Y30202377D01*
X97297824Y30797824D01*
X96702377Y31195688D01*
X96000000Y31335400D01*
X95297623Y31195688D01*
X94702176Y30797824D01*
X94304312Y30202377D01*
X94164600Y29500000D01*
X89263338Y29500000D01*
X89263338Y31150000D01*
X89217289Y31394730D01*
X89072654Y31619499D01*
X88851966Y31770288D01*
X88590000Y31823338D01*
X86890000Y31823338D01*
X86645270Y31777289D01*
X86420501Y31632654D01*
X86269712Y31411966D01*
X86266948Y31398316D01*
X86110400Y31502918D01*
X86110400Y34729600D01*
X86345295Y34729600D01*
X86671670Y34402655D01*
X87208234Y34179854D01*
X87789217Y34179347D01*
X88326169Y34401211D01*
X88737345Y34811670D01*
X88960146Y35348234D01*
X88960653Y35929217D01*
X88738789Y36466169D01*
X88328330Y36877345D01*
X87791766Y37100146D01*
X87210783Y37100653D01*
X86673831Y36878789D01*
X86344868Y36550400D01*
X77104705Y36550400D01*
X76778330Y36877345D01*
X76241766Y37100146D01*
X75776948Y37100552D01*
X74210400Y38667100D01*
X74210400Y47586592D01*
X74452619Y47828389D01*
X74549983Y48062868D01*
X74646036Y47830402D01*
X75028389Y47447381D01*
X75528213Y47239836D01*
X75702018Y47239684D01*
X75391129Y47177845D01*
X74917341Y46861270D01*
X74600766Y46387482D01*
X74489600Y45828611D01*
X74489600Y45771389D01*
X74600766Y45212518D01*
X74917341Y44738730D01*
X75391129Y44422155D01*
X75950000Y44310989D01*
X76508871Y44422155D01*
X76982659Y44738730D01*
X77148681Y44987200D01*
X77989287Y44987200D01*
X78041561Y44860688D01*
X78508231Y44393202D01*
X78637200Y44339649D01*
X78637200Y40760713D01*
X78510688Y40708439D01*
X78043202Y40241769D01*
X77789889Y39631723D01*
X77789313Y38971175D01*
X78041561Y38360688D01*
X78508231Y37893202D01*
X79118277Y37639889D01*
X79778825Y37639313D01*
X80389312Y37891561D01*
X80556907Y38058864D01*
X83059023Y38058864D01*
X83165934Y37799584D01*
X83799802Y37613747D01*
X84456536Y37684627D01*
X84734066Y37799584D01*
X84840977Y38058864D01*
X83950000Y38949841D01*
X83059023Y38058864D01*
X80556907Y38058864D01*
X80856798Y38358231D01*
X81110111Y38968277D01*
X81110531Y39450198D01*
X82263747Y39450198D01*
X82334627Y38793464D01*
X82449584Y38515934D01*
X82708864Y38409023D01*
X83599841Y39300000D01*
X84300159Y39300000D01*
X85191136Y38409023D01*
X85450416Y38515934D01*
X85636253Y39149802D01*
X85565373Y39806536D01*
X85450416Y40084066D01*
X85191136Y40190977D01*
X84300159Y39300000D01*
X83599841Y39300000D01*
X82708864Y40190977D01*
X82449584Y40084066D01*
X82263747Y39450198D01*
X81110531Y39450198D01*
X81110687Y39628825D01*
X80858439Y40239312D01*
X80557142Y40541136D01*
X83059023Y40541136D01*
X83950000Y39650159D01*
X84840977Y40541136D01*
X84734066Y40800416D01*
X84100198Y40986253D01*
X83443464Y40915373D01*
X83165934Y40800416D01*
X83059023Y40541136D01*
X80557142Y40541136D01*
X80391769Y40706798D01*
X80262800Y40760351D01*
X80262800Y44339287D01*
X80389312Y44391561D01*
X80556907Y44558864D01*
X83059023Y44558864D01*
X83165934Y44299584D01*
X83799802Y44113747D01*
X84456536Y44184627D01*
X84734066Y44299584D01*
X84840977Y44558864D01*
X83950000Y45449841D01*
X83059023Y44558864D01*
X80556907Y44558864D01*
X80856798Y44858231D01*
X81110111Y45468277D01*
X81110531Y45950198D01*
X82263747Y45950198D01*
X82334627Y45293464D01*
X82449584Y45015934D01*
X82708864Y44909023D01*
X83599841Y45800000D01*
X84300159Y45800000D01*
X85191136Y44909023D01*
X85450416Y45015934D01*
X85636253Y45649802D01*
X85616955Y45828611D01*
X86039600Y45828611D01*
X86039600Y45771389D01*
X86150766Y45212518D01*
X86467341Y44738730D01*
X86941129Y44422155D01*
X87500000Y44310989D01*
X88058871Y44422155D01*
X88532659Y44738730D01*
X88698681Y44987200D01*
X89589287Y44987200D01*
X89641561Y44860688D01*
X90108231Y44393202D01*
X90237200Y44339649D01*
X90237200Y40760713D01*
X90110688Y40708439D01*
X89643202Y40241769D01*
X89389889Y39631723D01*
X89389313Y38971175D01*
X89641561Y38360688D01*
X90108231Y37893202D01*
X90718277Y37639889D01*
X91378825Y37639313D01*
X91989312Y37891561D01*
X92156907Y38058864D01*
X94659023Y38058864D01*
X94765934Y37799584D01*
X95399802Y37613747D01*
X96056536Y37684627D01*
X96334066Y37799584D01*
X96440977Y38058864D01*
X95550000Y38949841D01*
X94659023Y38058864D01*
X92156907Y38058864D01*
X92456798Y38358231D01*
X92710111Y38968277D01*
X92710531Y39450198D01*
X93863747Y39450198D01*
X93934627Y38793464D01*
X94049584Y38515934D01*
X94308864Y38409023D01*
X95199841Y39300000D01*
X95900159Y39300000D01*
X96791136Y38409023D01*
X97050416Y38515934D01*
X97236253Y39149802D01*
X97165373Y39806536D01*
X97050416Y40084066D01*
X96791136Y40190977D01*
X95900159Y39300000D01*
X95199841Y39300000D01*
X94308864Y40190977D01*
X94049584Y40084066D01*
X93863747Y39450198D01*
X92710531Y39450198D01*
X92710687Y39628825D01*
X92458439Y40239312D01*
X92157142Y40541136D01*
X94659023Y40541136D01*
X95550000Y39650159D01*
X96440977Y40541136D01*
X96334066Y40800416D01*
X95700198Y40986253D01*
X95043464Y40915373D01*
X94765934Y40800416D01*
X94659023Y40541136D01*
X92157142Y40541136D01*
X91991769Y40706798D01*
X91862800Y40760351D01*
X91862800Y44339287D01*
X91989312Y44391561D01*
X92156907Y44558864D01*
X94659023Y44558864D01*
X94765934Y44299584D01*
X95399802Y44113747D01*
X96056536Y44184627D01*
X96334066Y44299584D01*
X96440977Y44558864D01*
X95550000Y45449841D01*
X94659023Y44558864D01*
X92156907Y44558864D01*
X92456798Y44858231D01*
X92710111Y45468277D01*
X92710531Y45950198D01*
X93863747Y45950198D01*
X93934627Y45293464D01*
X94049584Y45015934D01*
X94308864Y44909023D01*
X95199841Y45800000D01*
X95900159Y45800000D01*
X96791136Y44909023D01*
X97050416Y45015934D01*
X97236253Y45649802D01*
X97165373Y46306536D01*
X97050416Y46584066D01*
X96791136Y46690977D01*
X95900159Y45800000D01*
X95199841Y45800000D01*
X94308864Y46690977D01*
X94049584Y46584066D01*
X93863747Y45950198D01*
X92710531Y45950198D01*
X92710687Y46128825D01*
X92458439Y46739312D01*
X92157142Y47041136D01*
X94659023Y47041136D01*
X95550000Y46150159D01*
X96440977Y47041136D01*
X96334066Y47300416D01*
X95700198Y47486253D01*
X95043464Y47415373D01*
X94765934Y47300416D01*
X94659023Y47041136D01*
X92157142Y47041136D01*
X91991769Y47206798D01*
X91381723Y47460111D01*
X90721175Y47460687D01*
X90110688Y47208439D01*
X89643202Y46741769D01*
X89589649Y46612800D01*
X88698681Y46612800D01*
X88532659Y46861270D01*
X88058871Y47177845D01*
X87500000Y47289011D01*
X86941129Y47177845D01*
X86467341Y46861270D01*
X86150766Y46387482D01*
X86039600Y45828611D01*
X85616955Y45828611D01*
X85565373Y46306536D01*
X85450416Y46584066D01*
X85191136Y46690977D01*
X84300159Y45800000D01*
X83599841Y45800000D01*
X82708864Y46690977D01*
X82449584Y46584066D01*
X82263747Y45950198D01*
X81110531Y45950198D01*
X81110687Y46128825D01*
X80858439Y46739312D01*
X80557142Y47041136D01*
X83059023Y47041136D01*
X83950000Y46150159D01*
X84840977Y47041136D01*
X84734066Y47300416D01*
X84100198Y47486253D01*
X83443464Y47415373D01*
X83165934Y47300416D01*
X83059023Y47041136D01*
X80557142Y47041136D01*
X80391769Y47206798D01*
X79781723Y47460111D01*
X79121175Y47460687D01*
X78510688Y47208439D01*
X78043202Y46741769D01*
X77989649Y46612800D01*
X77148681Y46612800D01*
X76982659Y46861270D01*
X76508871Y47177845D01*
X76111717Y47256844D01*
X76569598Y47446036D01*
X76952619Y47828389D01*
X77160164Y48328213D01*
X77160636Y48869413D01*
X76953964Y49369598D01*
X76718339Y49605635D01*
X76943750Y49756250D01*
X78143750Y50956250D01*
X78341100Y51251605D01*
X78410400Y51600000D01*
X78410400Y53600000D01*
X78341100Y53948395D01*
X78143750Y54243750D01*
X76510400Y55877100D01*
X76510400Y57000000D01*
X80164600Y57000000D01*
X80304312Y56297623D01*
X80702176Y55702176D01*
X81297623Y55304312D01*
X82000000Y55164600D01*
X82702377Y55304312D01*
X83297824Y55702176D01*
X83695688Y56297623D01*
X83835400Y57000000D01*
X83695688Y57702377D01*
X83297824Y58297824D01*
X82702377Y58695688D01*
X82000000Y58835400D01*
X81297623Y58695688D01*
X80702176Y58297824D01*
X80304312Y57702377D01*
X80164600Y57000000D01*
X76510400Y57000000D01*
X76510400Y64200000D01*
X76441100Y64548395D01*
X76243750Y64843750D01*
X72043750Y69043750D01*
X71748395Y69241100D01*
X71573338Y69275921D01*
X71573338Y69300000D01*
X71527289Y69544730D01*
X71382654Y69769499D01*
X71161966Y69920288D01*
X70910400Y69971232D01*
X70910400Y71530002D01*
X70841100Y71878397D01*
X70643750Y72173752D01*
X68473752Y74343750D01*
X68178397Y74541100D01*
X67830002Y74610400D01*
X67794951Y74610400D01*
X67960146Y75008234D01*
X67960653Y75589217D01*
X67738789Y76126169D01*
X67328330Y76537345D01*
X66791766Y76760146D01*
X66512801Y76760389D01*
X66512801Y78000000D01*
X67164600Y78000000D01*
X67304312Y77297623D01*
X67702176Y76702176D01*
X68297623Y76304312D01*
X69000000Y76164600D01*
X69702377Y76304312D01*
X70297824Y76702176D01*
X70695688Y77297623D01*
X70835400Y78000000D01*
X70695688Y78702377D01*
X70297824Y79297824D01*
X69702377Y79695688D01*
X69000000Y79835400D01*
X68297623Y79695688D01*
X67702176Y79297824D01*
X67304312Y78702377D01*
X67164600Y78000000D01*
X66512801Y78000000D01*
X66512801Y79158529D01*
X71574736Y84220463D01*
X71712513Y84426662D01*
X71900000Y84426662D01*
X72144730Y84472711D01*
X72369499Y84617346D01*
X72520288Y84838034D01*
X72573338Y85100000D01*
X72573338Y86846637D01*
X99264600Y46976564D01*
X99264600Y46976564D01*
G37*
X99264600Y46976564D02*
X99264600Y9304612D01*
X94695388Y4735400D01*
X69000000Y4735400D01*
X68765266Y4688708D01*
X68718574Y4679421D01*
X68479993Y4520006D01*
X64695388Y735400D01*
X35304613Y735400D01*
X31520006Y4520006D01*
X31281426Y4679421D01*
X31000000Y4735400D01*
X5304612Y4735400D01*
X3040012Y7000000D01*
X8164600Y7000000D01*
X8304312Y6297623D01*
X8702176Y5702176D01*
X9297623Y5304312D01*
X10000000Y5164600D01*
X10702377Y5304312D01*
X11297824Y5702176D01*
X11695688Y6297623D01*
X11835400Y7000000D01*
X31164600Y7000000D01*
X31304312Y6297623D01*
X31702176Y5702176D01*
X32297623Y5304312D01*
X33000000Y5164600D01*
X33702377Y5304312D01*
X34297824Y5702176D01*
X34695688Y6297623D01*
X34835400Y7000000D01*
X65164600Y7000000D01*
X65304312Y6297623D01*
X65702176Y5702176D01*
X66297623Y5304312D01*
X67000000Y5164600D01*
X67702377Y5304312D01*
X68297824Y5702176D01*
X68695688Y6297623D01*
X68835400Y7000000D01*
X88164600Y7000000D01*
X88304312Y6297623D01*
X88702176Y5702176D01*
X89297623Y5304312D01*
X90000000Y5164600D01*
X90702377Y5304312D01*
X91297824Y5702176D01*
X91695688Y6297623D01*
X91835400Y7000000D01*
X91695688Y7702377D01*
X91297824Y8297824D01*
X90702377Y8695688D01*
X90000000Y8835400D01*
X89297623Y8695688D01*
X88702176Y8297824D01*
X88304312Y7702377D01*
X88164600Y7000000D01*
X68835400Y7000000D01*
X68695688Y7702377D01*
X68297824Y8297824D01*
X67702377Y8695688D01*
X67000000Y8835400D01*
X66297623Y8695688D01*
X65702176Y8297824D01*
X65304312Y7702377D01*
X65164600Y7000000D01*
X34835400Y7000000D01*
X34695688Y7702377D01*
X34297824Y8297824D01*
X33702377Y8695688D01*
X33000000Y8835400D01*
X32297623Y8695688D01*
X31702176Y8297824D01*
X31304312Y7702377D01*
X31164600Y7000000D01*
X11835400Y7000000D01*
X11695688Y7702377D01*
X11297824Y8297824D01*
X10702377Y8695688D01*
X10000000Y8835400D01*
X9297623Y8695688D01*
X8702176Y8297824D01*
X8304312Y7702377D01*
X8164600Y7000000D01*
X3040012Y7000000D01*
X735400Y9304612D01*
X735400Y11500000D01*
X2164600Y11500000D01*
X2304312Y10797623D01*
X2702176Y10202176D01*
X3297623Y9804312D01*
X4000000Y9664600D01*
X4702377Y9804312D01*
X5034399Y10026162D01*
X15164600Y10026162D01*
X15164600Y9973838D01*
X15266251Y9462803D01*
X15555730Y9029568D01*
X15988965Y8740089D01*
X16500000Y8638438D01*
X17011035Y8740089D01*
X17444270Y9029568D01*
X17502446Y9116634D01*
X17510480Y9103229D01*
X17928982Y8792819D01*
X18050168Y8742644D01*
X18252400Y8856192D01*
X18252400Y9752400D01*
X18232400Y9752400D01*
X18232400Y10247600D01*
X18252400Y10247600D01*
X18252400Y11143808D01*
X18050168Y11257356D01*
X17928982Y11207181D01*
X17510480Y10896771D01*
X17502446Y10883366D01*
X17444270Y10970432D01*
X17011035Y11259911D01*
X16500000Y11361562D01*
X15988965Y11259911D01*
X15555730Y10970432D01*
X15266251Y10537197D01*
X15164600Y10026162D01*
X5034399Y10026162D01*
X5297824Y10202176D01*
X5695688Y10797623D01*
X5835400Y11500000D01*
X5695688Y12202377D01*
X5297824Y12797824D01*
X4702377Y13195688D01*
X4000000Y13335400D01*
X3297623Y13195688D01*
X2702176Y12797824D01*
X2304312Y12202377D01*
X2164600Y11500000D01*
X735400Y11500000D01*
X735400Y29500000D01*
X2164600Y29500000D01*
X2304312Y28797623D01*
X2702176Y28202176D01*
X3297623Y27804312D01*
X4000000Y27664600D01*
X4702377Y27804312D01*
X5297824Y28202176D01*
X5695688Y28797623D01*
X5835400Y29500000D01*
X5695688Y30202377D01*
X5297824Y30797824D01*
X4702377Y31195688D01*
X4000000Y31335400D01*
X3297623Y31195688D01*
X2702176Y30797824D01*
X2304312Y30202377D01*
X2164600Y29500000D01*
X735400Y29500000D01*
X735400Y31481362D01*
X15909600Y31481362D01*
X15909600Y30912700D01*
X16074700Y30747600D01*
X17172400Y30747600D01*
X17172400Y31845300D01*
X17007300Y32010400D01*
X16438639Y32010400D01*
X16195914Y31909860D01*
X16010140Y31724087D01*
X15909600Y31481362D01*
X735400Y31481362D01*
X735400Y46976564D01*
X7445649Y57000000D01*
X16164600Y57000000D01*
X16304312Y56297623D01*
X16702176Y55702176D01*
X17297623Y55304312D01*
X18000000Y55164600D01*
X18702377Y55304312D01*
X19297824Y55702176D01*
X19695688Y56297623D01*
X19835400Y57000000D01*
X19695688Y57702377D01*
X19297824Y58297824D01*
X18702377Y58695688D01*
X18000000Y58835400D01*
X17297623Y58695688D01*
X16702176Y58297824D01*
X16304312Y57702377D01*
X16164600Y57000000D01*
X7445649Y57000000D01*
X21504226Y78000000D01*
X29164600Y78000000D01*
X29304312Y77297623D01*
X29702176Y76702176D01*
X30297623Y76304312D01*
X31000000Y76164600D01*
X31702377Y76304312D01*
X32297824Y76702176D01*
X32695688Y77297623D01*
X32835400Y78000000D01*
X32695688Y78702377D01*
X32297824Y79297824D01*
X31702377Y79695688D01*
X31000000Y79835400D01*
X30297623Y79695688D01*
X29702176Y79297824D01*
X29304312Y78702377D01*
X29164600Y78000000D01*
X21504226Y78000000D01*
X27426662Y86846637D01*
X27426662Y85100000D01*
X27472711Y84855270D01*
X27617346Y84630501D01*
X27838034Y84479712D01*
X28100000Y84426662D01*
X28287487Y84426662D01*
X28425264Y84220464D01*
X33487199Y79158528D01*
X33487199Y76760412D01*
X33210783Y76760653D01*
X32673831Y76538789D01*
X32262655Y76128330D01*
X32039854Y75591766D01*
X32039347Y75010783D01*
X32261211Y74473831D01*
X32671670Y74062655D01*
X33208234Y73839854D01*
X33789217Y73839347D01*
X34326169Y74061211D01*
X34737345Y74471670D01*
X34960146Y75008234D01*
X34960653Y75589217D01*
X34944152Y75629152D01*
X35050928Y75788954D01*
X35076941Y75919730D01*
X35112799Y76099999D01*
X35112799Y79495201D01*
X35050928Y79806246D01*
X34937335Y79976250D01*
X34874735Y80069938D01*
X30343838Y84600834D01*
X30369499Y84617346D01*
X30510063Y84823069D01*
X30654950Y84677929D01*
X31228256Y84439871D01*
X31849021Y84439330D01*
X32422741Y84676386D01*
X32705084Y84958236D01*
X35334799Y82328520D01*
X35334799Y73239284D01*
X35229701Y73282805D01*
X35007600Y73171415D01*
X35007600Y72147600D01*
X35027600Y72147600D01*
X35027600Y71652400D01*
X35007600Y71652400D01*
X35007600Y70628585D01*
X35229701Y70517195D01*
X35405673Y70590065D01*
X35603314Y70741660D01*
X36644542Y69700432D01*
X36269701Y69902805D01*
X36047600Y69791415D01*
X36047600Y68367600D01*
X36067600Y68367600D01*
X36067600Y67872400D01*
X36047600Y67872400D01*
X36047600Y66448585D01*
X36269701Y66337195D01*
X36789249Y66617694D01*
X37074846Y66998848D01*
X37307341Y66650894D01*
X37781129Y66334319D01*
X38340000Y66223153D01*
X38898871Y66334319D01*
X39372659Y66650894D01*
X39610000Y67006100D01*
X39847341Y66650894D01*
X40321129Y66334319D01*
X40880000Y66223153D01*
X41438871Y66334319D01*
X41912659Y66650894D01*
X42150000Y67006100D01*
X42387341Y66650894D01*
X42861129Y66334319D01*
X43420000Y66223153D01*
X43978871Y66334319D01*
X44452659Y66650894D01*
X44690000Y67006100D01*
X44927341Y66650894D01*
X45401129Y66334319D01*
X45960000Y66223153D01*
X46518871Y66334319D01*
X46992659Y66650894D01*
X47225154Y66998848D01*
X47510751Y66617694D01*
X48030299Y66337195D01*
X48252400Y66448585D01*
X48252400Y67872400D01*
X48747600Y67872400D01*
X48747600Y66448585D01*
X48969701Y66337195D01*
X49489249Y66617694D01*
X49770000Y66992381D01*
X50050751Y66617694D01*
X50570299Y66337195D01*
X50792400Y66448585D01*
X50792400Y67872400D01*
X51287600Y67872400D01*
X51287600Y66448585D01*
X51509701Y66337195D01*
X52029249Y66617694D01*
X52133034Y66756205D01*
X52220140Y66545913D01*
X52405914Y66360140D01*
X52648639Y66259600D01*
X53167300Y66259600D01*
X53332400Y66424700D01*
X53332400Y67872400D01*
X53827600Y67872400D01*
X53827600Y66424700D01*
X53992700Y66259600D01*
X54511361Y66259600D01*
X54754086Y66360140D01*
X54939860Y66545913D01*
X55040400Y66788638D01*
X55040400Y67707300D01*
X54875300Y67872400D01*
X53827600Y67872400D01*
X53332400Y67872400D01*
X51287600Y67872400D01*
X50792400Y67872400D01*
X48747600Y67872400D01*
X48252400Y67872400D01*
X48232400Y67872400D01*
X48232400Y68367600D01*
X48252400Y68367600D01*
X48252400Y68387600D01*
X48747600Y68387600D01*
X48747600Y68367600D01*
X50792400Y68367600D01*
X50792400Y68387600D01*
X51287600Y68387600D01*
X51287600Y68367600D01*
X53332400Y68367600D01*
X53332400Y68387600D01*
X53827600Y68387600D01*
X53827600Y68367600D01*
X54875300Y68367600D01*
X55040400Y68532700D01*
X55040400Y69451362D01*
X55025555Y69487200D01*
X58695257Y69487200D01*
X58367808Y68997139D01*
X58249030Y68400000D01*
X58367808Y67802861D01*
X58706061Y67296631D01*
X59212291Y66958378D01*
X59809430Y66839600D01*
X59870570Y66839600D01*
X60467709Y66958378D01*
X60973939Y67296631D01*
X61312192Y67802861D01*
X61430970Y68400000D01*
X61312192Y68997139D01*
X60984743Y69487200D01*
X64663328Y69487200D01*
X68025264Y66125263D01*
X68224189Y65992346D01*
X68288955Y65949071D01*
X68600000Y65887200D01*
X68741537Y65887200D01*
X68522155Y65558871D01*
X68410989Y65000000D01*
X68522155Y64441129D01*
X68838730Y63967341D01*
X69312518Y63650766D01*
X69871389Y63539600D01*
X69928611Y63539600D01*
X70048961Y63563539D01*
X70589599Y63022901D01*
X70589599Y62954999D01*
X70562722Y63033400D01*
X70002005Y63185513D01*
X69425759Y63111471D01*
X69237278Y63033400D01*
X69155451Y62794709D01*
X69900000Y62050159D01*
X69914142Y62064302D01*
X70264302Y61714142D01*
X70250159Y61700000D01*
X70264302Y61685857D01*
X69914142Y61335698D01*
X69900000Y61349841D01*
X69155451Y60605291D01*
X69237278Y60366600D01*
X69797995Y60214487D01*
X70374241Y60288529D01*
X70562722Y60366600D01*
X70589599Y60445001D01*
X70589599Y53560585D01*
X70530587Y53560636D01*
X70030402Y53353964D01*
X69786412Y53110400D01*
X63500000Y53110400D01*
X63151605Y53041100D01*
X62856250Y52843750D01*
X60972800Y50960300D01*
X60972800Y55451825D01*
X61192659Y55598730D01*
X61430000Y55953936D01*
X61667341Y55598730D01*
X62141129Y55282155D01*
X62700000Y55170989D01*
X63258871Y55282155D01*
X63732659Y55598730D01*
X63970000Y55953936D01*
X64207341Y55598730D01*
X64681129Y55282155D01*
X65240000Y55170989D01*
X65798871Y55282155D01*
X66272659Y55598730D01*
X66510000Y55953936D01*
X66747341Y55598730D01*
X67221129Y55282155D01*
X67780000Y55170989D01*
X68338871Y55282155D01*
X68812659Y55598730D01*
X69129234Y56072518D01*
X69240400Y56631389D01*
X69240400Y56688611D01*
X69129234Y57247482D01*
X68812659Y57721270D01*
X68338871Y58037845D01*
X67780000Y58149011D01*
X67221129Y58037845D01*
X66747341Y57721270D01*
X66510000Y57366064D01*
X66272659Y57721270D01*
X65798871Y58037845D01*
X65240000Y58149011D01*
X64681129Y58037845D01*
X64207341Y57721270D01*
X63970000Y57366064D01*
X63732659Y57721270D01*
X63258871Y58037845D01*
X62700000Y58149011D01*
X62141129Y58037845D01*
X61667341Y57721270D01*
X61430000Y57366064D01*
X61192659Y57721270D01*
X60718871Y58037845D01*
X60160000Y58149011D01*
X59601129Y58037845D01*
X59127341Y57721270D01*
X58890000Y57366064D01*
X58652659Y57721270D01*
X58178871Y58037845D01*
X57620000Y58149011D01*
X57061129Y58037845D01*
X56587341Y57721270D01*
X56350000Y57366064D01*
X56112659Y57721270D01*
X55638871Y58037845D01*
X55080000Y58149011D01*
X54521129Y58037845D01*
X54047341Y57721270D01*
X53810000Y57366064D01*
X53572659Y57721270D01*
X53098871Y58037845D01*
X52540000Y58149011D01*
X51981129Y58037845D01*
X51507341Y57721270D01*
X51270000Y57366064D01*
X51032659Y57721270D01*
X50558871Y58037845D01*
X50082144Y58132672D01*
X50633486Y58684013D01*
X51040000Y58603153D01*
X51598871Y58714319D01*
X52072659Y59030894D01*
X52310000Y59386100D01*
X52547341Y59030894D01*
X53021129Y58714319D01*
X53580000Y58603153D01*
X54138871Y58714319D01*
X54612659Y59030894D01*
X54929234Y59504682D01*
X55040400Y60063553D01*
X55040400Y60936447D01*
X54929234Y61495318D01*
X54792470Y61700000D01*
X58250989Y61700000D01*
X58362155Y61141129D01*
X58678730Y60667341D01*
X59152518Y60350766D01*
X59711389Y60239600D01*
X59768611Y60239600D01*
X60327482Y60350766D01*
X60801270Y60667341D01*
X61117845Y61141129D01*
X61229011Y61700000D01*
X61208722Y61802005D01*
X68414487Y61802005D01*
X68488529Y61225759D01*
X68566600Y61037278D01*
X68805291Y60955451D01*
X69549841Y61700000D01*
X68805291Y62444549D01*
X68566600Y62362722D01*
X68414487Y61802005D01*
X61208722Y61802005D01*
X61117845Y62258871D01*
X60801270Y62732659D01*
X60327482Y63049234D01*
X59768611Y63160400D01*
X59711389Y63160400D01*
X59152518Y63049234D01*
X58678730Y62732659D01*
X58362155Y62258871D01*
X58250989Y61700000D01*
X54792470Y61700000D01*
X54612659Y61969106D01*
X54138871Y62285681D01*
X53580000Y62396847D01*
X53021129Y62285681D01*
X52547341Y61969106D01*
X52310000Y61613900D01*
X52072659Y61969106D01*
X51598871Y62285681D01*
X51040000Y62396847D01*
X50481129Y62285681D01*
X50007341Y61969106D01*
X49770000Y61613900D01*
X49532659Y61969106D01*
X49058871Y62285681D01*
X48500000Y62396847D01*
X47941129Y62285681D01*
X47467341Y61969106D01*
X47230000Y61613900D01*
X46992659Y61969106D01*
X46518871Y62285681D01*
X45960000Y62396847D01*
X45401129Y62285681D01*
X44927341Y61969106D01*
X44690000Y61613900D01*
X44452659Y61969106D01*
X43978871Y62285681D01*
X43420000Y62396847D01*
X42861129Y62285681D01*
X42387341Y61969106D01*
X42150000Y61613900D01*
X41912659Y61969106D01*
X41438871Y62285681D01*
X40880000Y62396847D01*
X40321129Y62285681D01*
X39847341Y61969106D01*
X39610000Y61613900D01*
X39372659Y61969106D01*
X38898871Y62285681D01*
X38340000Y62396847D01*
X37781129Y62285681D01*
X37307341Y61969106D01*
X37070000Y61613900D01*
X36832659Y61969106D01*
X36358871Y62285681D01*
X35800000Y62396847D01*
X35241129Y62285681D01*
X34767341Y61969106D01*
X34450766Y61495318D01*
X34339600Y60936447D01*
X34339600Y60063553D01*
X34450766Y59504682D01*
X34767341Y59030894D01*
X35241129Y58714319D01*
X35800000Y58603153D01*
X36358871Y58714319D01*
X36832659Y59030894D01*
X37070000Y59386100D01*
X37307341Y59030894D01*
X37781129Y58714319D01*
X38340000Y58603153D01*
X38898871Y58714319D01*
X39372659Y59030894D01*
X39610000Y59386100D01*
X39847341Y59030894D01*
X40092712Y58866942D01*
X40123071Y58714319D01*
X40129071Y58684155D01*
X40305264Y58420464D01*
X40414799Y58310929D01*
X40414799Y57999284D01*
X40309701Y58042805D01*
X40087600Y57931415D01*
X40087600Y56907600D01*
X40107600Y56907600D01*
X40107600Y56412400D01*
X40087600Y56412400D01*
X40087600Y55388585D01*
X40309701Y55277195D01*
X40414799Y55320716D01*
X40414799Y49218848D01*
X40424440Y49170382D01*
X35572800Y54022021D01*
X35572800Y55451825D01*
X35792659Y55598730D01*
X36030000Y55953936D01*
X36267341Y55598730D01*
X36741129Y55282155D01*
X37300000Y55170989D01*
X37858871Y55282155D01*
X38332659Y55598730D01*
X38582711Y55972960D01*
X38742185Y55696866D01*
X39194327Y55350065D01*
X39370299Y55277195D01*
X39592400Y55388585D01*
X39592400Y56412400D01*
X39572400Y56412400D01*
X39572400Y56907600D01*
X39592400Y56907600D01*
X39592400Y57931415D01*
X39370299Y58042805D01*
X39194327Y57969935D01*
X38742185Y57623134D01*
X38582711Y57347040D01*
X38332659Y57721270D01*
X37858871Y58037845D01*
X37300000Y58149011D01*
X36741129Y58037845D01*
X36267341Y57721270D01*
X36030000Y57366064D01*
X35792659Y57721270D01*
X35318871Y58037845D01*
X34760000Y58149011D01*
X34201129Y58037845D01*
X33727341Y57721270D01*
X33662450Y57624154D01*
X33647289Y57704730D01*
X33502654Y57929499D01*
X33281966Y58080288D01*
X33020000Y58133338D01*
X31420000Y58133338D01*
X31175270Y58087289D01*
X30950501Y57942654D01*
X30910400Y57883964D01*
X30910400Y64710783D01*
X58279347Y64710783D01*
X58501211Y64173831D01*
X58911670Y63762655D01*
X59448234Y63539854D01*
X60029217Y63539347D01*
X60566169Y63761211D01*
X60977345Y64171670D01*
X61200146Y64708234D01*
X61200653Y65289217D01*
X60978789Y65826169D01*
X60568330Y66237345D01*
X60031766Y66460146D01*
X59450783Y66460653D01*
X58913831Y66238789D01*
X58502655Y65828330D01*
X58279854Y65291766D01*
X58279347Y64710783D01*
X30910400Y64710783D01*
X30910400Y65867447D01*
X31104499Y65992346D01*
X31255288Y66213034D01*
X31308338Y66475000D01*
X31308338Y67445000D01*
X31278102Y67605691D01*
X31285061Y67640056D01*
X34321047Y67640056D01*
X34464219Y67080171D01*
X34810751Y66617694D01*
X35330299Y66337195D01*
X35552400Y66448585D01*
X35552400Y67872400D01*
X34491849Y67872400D01*
X34321047Y67640056D01*
X31285061Y67640056D01*
X31308338Y67755000D01*
X31308338Y68260838D01*
X31647444Y68599944D01*
X34321047Y68599944D01*
X34491849Y68367600D01*
X35552400Y68367600D01*
X35552400Y69791415D01*
X35330299Y69902805D01*
X34810751Y69622306D01*
X34464219Y69159829D01*
X34321047Y68599944D01*
X31647444Y68599944D01*
X32863750Y69816250D01*
X33061100Y70111605D01*
X33130400Y70460000D01*
X33130400Y70757039D01*
X33252659Y70838730D01*
X33502711Y71212960D01*
X33662185Y70936866D01*
X34114327Y70590065D01*
X34290299Y70517195D01*
X34512400Y70628585D01*
X34512400Y71652400D01*
X34492400Y71652400D01*
X34492400Y72147600D01*
X34512400Y72147600D01*
X34512400Y73171415D01*
X34290299Y73282805D01*
X34114327Y73209935D01*
X33662185Y72863134D01*
X33502711Y72587040D01*
X33252659Y72961270D01*
X32778871Y73277845D01*
X32220000Y73389011D01*
X31661129Y73277845D01*
X31187341Y72961270D01*
X30870766Y72487482D01*
X30759600Y71928611D01*
X30759600Y71871389D01*
X30870766Y71312518D01*
X31187341Y70838730D01*
X31261607Y70789107D01*
X29870838Y69398338D01*
X29365000Y69398338D01*
X29120270Y69352289D01*
X28895501Y69207654D01*
X28744712Y68986966D01*
X28691662Y68725000D01*
X28691662Y67755000D01*
X28721898Y67594309D01*
X28691662Y67445000D01*
X28691662Y66475000D01*
X28737711Y66230270D01*
X28882346Y66005501D01*
X29089600Y65863891D01*
X29089600Y56000000D01*
X29158900Y55651605D01*
X29356250Y55356250D01*
X31556250Y53156250D01*
X31851605Y52958900D01*
X32200000Y52889600D01*
X32622900Y52889600D01*
X33289600Y52222900D01*
X33289600Y52077985D01*
X33091411Y52231800D01*
X32893565Y52313729D01*
X32663531Y52203158D01*
X32663531Y51128439D01*
X32683531Y51128439D01*
X32683531Y50633239D01*
X32663531Y50633239D01*
X32663531Y49558520D01*
X32893565Y49447949D01*
X33091411Y49529878D01*
X33289600Y49683693D01*
X33289600Y43210400D01*
X19702918Y43210400D01*
X19597604Y43368014D01*
X19280630Y43579809D01*
X19489630Y43698948D01*
X19850961Y44164520D01*
X19932890Y44362366D01*
X19822319Y44592400D01*
X18747600Y44592400D01*
X18747600Y44572400D01*
X18252400Y44572400D01*
X18252400Y44592400D01*
X18232400Y44592400D01*
X18232400Y45087600D01*
X18252400Y45087600D01*
X18252400Y45107600D01*
X18747600Y45107600D01*
X18747600Y45087600D01*
X19822319Y45087600D01*
X19932890Y45317634D01*
X19850961Y45515480D01*
X19489630Y45981052D01*
X19280630Y46100191D01*
X19597604Y46311986D01*
X19925018Y46801995D01*
X20039990Y47380000D01*
X19925018Y47958005D01*
X19597604Y48448014D01*
X19107595Y48775428D01*
X18529590Y48890400D01*
X18470410Y48890400D01*
X17892405Y48775428D01*
X17402396Y48448014D01*
X17074982Y47958005D01*
X16960010Y47380000D01*
X17001901Y47169401D01*
X16600000Y46767500D01*
X14009999Y49357501D01*
X15485931Y49357501D01*
X15730661Y49403550D01*
X15955430Y49548185D01*
X16106219Y49768873D01*
X16108983Y49782523D01*
X16597926Y49455821D01*
X17175931Y49340849D01*
X17753936Y49455821D01*
X18243945Y49783235D01*
X18445931Y50085528D01*
X18647917Y49783235D01*
X19137926Y49455821D01*
X19715931Y49340849D01*
X20293936Y49455821D01*
X20783945Y49783235D01*
X20985931Y50085528D01*
X21187917Y49783235D01*
X21443131Y49612706D01*
X21443131Y49544069D01*
X21502868Y49243750D01*
X21505002Y49233024D01*
X21681195Y48969333D01*
X24330718Y46319809D01*
X24427750Y46084973D01*
X24683626Y45828650D01*
X25018116Y45689758D01*
X25380295Y45689442D01*
X25715027Y45827750D01*
X25971350Y46083626D01*
X26110242Y46418116D01*
X26110558Y46780295D01*
X25972250Y47115027D01*
X25716374Y47371350D01*
X25479952Y47469521D01*
X23229406Y49720066D01*
X23323945Y49783235D01*
X23525931Y50085528D01*
X23727917Y49783235D01*
X24217926Y49455821D01*
X24795931Y49340849D01*
X25373936Y49455821D01*
X25863945Y49783235D01*
X26065931Y50085528D01*
X26267917Y49783235D01*
X26757926Y49455821D01*
X27335931Y49340849D01*
X27913936Y49455821D01*
X28403945Y49783235D01*
X28605931Y50085528D01*
X28807917Y49783235D01*
X29297926Y49455821D01*
X29875931Y49340849D01*
X30453936Y49455821D01*
X30943945Y49783235D01*
X31155740Y50100209D01*
X31274879Y49891209D01*
X31740451Y49529878D01*
X31938297Y49447949D01*
X32168331Y49558520D01*
X32168331Y50633239D01*
X32148331Y50633239D01*
X32148331Y51128439D01*
X32168331Y51128439D01*
X32168331Y52203158D01*
X31938297Y52313729D01*
X31740451Y52231800D01*
X31274879Y51870469D01*
X31155740Y51661469D01*
X30943945Y51978443D01*
X30453936Y52305857D01*
X29875931Y52420829D01*
X29297926Y52305857D01*
X28807917Y51978443D01*
X28605931Y51676150D01*
X28403945Y51978443D01*
X27913936Y52305857D01*
X27335931Y52420829D01*
X26757926Y52305857D01*
X26267917Y51978443D01*
X26065931Y51676150D01*
X25863945Y51978443D01*
X25373936Y52305857D01*
X24795931Y52420829D01*
X24217926Y52305857D01*
X23727917Y51978443D01*
X23525931Y51676150D01*
X23323945Y51978443D01*
X22833936Y52305857D01*
X22255931Y52420829D01*
X21677926Y52305857D01*
X21187917Y51978443D01*
X20985931Y51676150D01*
X20783945Y51978443D01*
X20293936Y52305857D01*
X19715931Y52420829D01*
X19137926Y52305857D01*
X18647917Y51978443D01*
X18445931Y51676150D01*
X18243945Y51978443D01*
X17753936Y52305857D01*
X17175931Y52420829D01*
X16597926Y52305857D01*
X16110332Y51980057D01*
X15968585Y52200338D01*
X15747897Y52351127D01*
X15485931Y52404177D01*
X13891677Y52404177D01*
X14177100Y52689600D01*
X20100000Y52689600D01*
X20448395Y52758900D01*
X20743750Y52956250D01*
X24770467Y56982967D01*
X24792819Y56928982D01*
X24949299Y56718012D01*
X24855501Y56657654D01*
X24704712Y56436966D01*
X24651662Y56175000D01*
X24651662Y54825000D01*
X24697711Y54580270D01*
X24842346Y54355501D01*
X25063034Y54204712D01*
X25325000Y54151662D01*
X26675000Y54151662D01*
X26919730Y54197711D01*
X27144499Y54342346D01*
X27295288Y54563034D01*
X27348338Y54825000D01*
X27348338Y56175000D01*
X27302289Y56419730D01*
X27157654Y56644499D01*
X27050487Y56717723D01*
X27207181Y56928982D01*
X27257356Y57050168D01*
X27143808Y57252400D01*
X26247600Y57252400D01*
X26247600Y57232400D01*
X25752400Y57232400D01*
X25752400Y57252400D01*
X25732400Y57252400D01*
X25732400Y57747600D01*
X25752400Y57747600D01*
X25752400Y57767600D01*
X26247600Y57767600D01*
X26247600Y57747600D01*
X27143808Y57747600D01*
X27257356Y57949832D01*
X27207181Y58071018D01*
X26896771Y58489520D01*
X26883366Y58497554D01*
X26970432Y58555730D01*
X27259911Y58988965D01*
X27361562Y59500000D01*
X27259911Y60011035D01*
X26970432Y60444270D01*
X26537197Y60733749D01*
X26026162Y60835400D01*
X25973838Y60835400D01*
X25462803Y60733749D01*
X25029568Y60444270D01*
X24740089Y60011035D01*
X24638438Y59500000D01*
X24650726Y59438226D01*
X19722900Y54510400D01*
X13800000Y54510400D01*
X13451605Y54441100D01*
X13156250Y54243750D01*
X11956250Y53043750D01*
X11758900Y52748395D01*
X11689600Y52400000D01*
X11689600Y49480000D01*
X11758900Y49131605D01*
X11956250Y48836250D01*
X15689600Y45102900D01*
X15689600Y40111884D01*
X15639767Y39991873D01*
X15639434Y39609803D01*
X15785338Y39256688D01*
X15981284Y39060400D01*
X15555931Y39060400D01*
X15150133Y38979682D01*
X14806115Y38749816D01*
X13886115Y37829816D01*
X13656249Y37485798D01*
X13575531Y37080000D01*
X13575531Y36913749D01*
X13541201Y36907289D01*
X13316432Y36762654D01*
X13165643Y36541966D01*
X13112593Y36280000D01*
X13112593Y34580000D01*
X13158642Y34335270D01*
X13303277Y34110501D01*
X13523965Y33959712D01*
X13785931Y33906662D01*
X15485931Y33906662D01*
X15730661Y33952711D01*
X15955430Y34097346D01*
X16106219Y34318034D01*
X16108983Y34331684D01*
X16597926Y34004982D01*
X17175931Y33890010D01*
X17386530Y33931901D01*
X19049600Y32268831D01*
X19049600Y31702918D01*
X18891986Y31597604D01*
X18885976Y31588610D01*
X18829860Y31724087D01*
X18644086Y31909860D01*
X18401361Y32010400D01*
X17832700Y32010400D01*
X17667600Y31845300D01*
X17667600Y30747600D01*
X17687600Y30747600D01*
X17687600Y30252400D01*
X17667600Y30252400D01*
X17667600Y30232400D01*
X17172400Y30232400D01*
X17172400Y30252400D01*
X16074700Y30252400D01*
X15909600Y30087300D01*
X15909600Y29518638D01*
X16010140Y29275913D01*
X16173254Y29112800D01*
X14516551Y29112800D01*
X14281884Y29210242D01*
X13919705Y29210558D01*
X13584973Y29072250D01*
X13328650Y28816374D01*
X13189758Y28481884D01*
X13189442Y28119705D01*
X13327750Y27784973D01*
X13583626Y27528650D01*
X13918116Y27389758D01*
X14280295Y27389442D01*
X14516888Y27487200D01*
X20300000Y27487200D01*
X20611045Y27549071D01*
X20874736Y27725264D01*
X22174273Y29024801D01*
X22500000Y28960010D01*
X23078005Y29074982D01*
X23568014Y29402396D01*
X23770000Y29704689D01*
X23971986Y29402396D01*
X24461995Y29074982D01*
X25040000Y28960010D01*
X25618005Y29074982D01*
X26108014Y29402396D01*
X26310000Y29704689D01*
X26511986Y29402396D01*
X27001995Y29074982D01*
X27580000Y28960010D01*
X28158005Y29074982D01*
X28639600Y29396774D01*
X28639600Y15114232D01*
X25750184Y12224816D01*
X25520318Y11880798D01*
X25439600Y11475000D01*
X25439600Y11211770D01*
X25355501Y11157654D01*
X25295499Y11069838D01*
X25011035Y11259911D01*
X24500000Y11361562D01*
X23988965Y11259911D01*
X23555730Y10970432D01*
X23500000Y10887026D01*
X23444270Y10970432D01*
X23011035Y11259911D01*
X22500000Y11361562D01*
X21988965Y11259911D01*
X21555730Y10970432D01*
X21500000Y10887026D01*
X21444270Y10970432D01*
X21011035Y11259911D01*
X20500000Y11361562D01*
X19988965Y11259911D01*
X19555730Y10970432D01*
X19497554Y10883366D01*
X19489520Y10896771D01*
X19071018Y11207181D01*
X18949832Y11257356D01*
X18747600Y11143808D01*
X18747600Y10247600D01*
X18767600Y10247600D01*
X18767600Y9752400D01*
X18747600Y9752400D01*
X18747600Y8856192D01*
X18949832Y8742644D01*
X19071018Y8792819D01*
X19489520Y9103229D01*
X19497554Y9116634D01*
X19555730Y9029568D01*
X19988965Y8740089D01*
X20500000Y8638438D01*
X21011035Y8740089D01*
X21444270Y9029568D01*
X21500000Y9112974D01*
X21555730Y9029568D01*
X21988965Y8740089D01*
X22500000Y8638438D01*
X23011035Y8740089D01*
X23444270Y9029568D01*
X23500000Y9112974D01*
X23555730Y9029568D01*
X23988965Y8740089D01*
X24500000Y8638438D01*
X25011035Y8740089D01*
X25294662Y8929603D01*
X25342346Y8855501D01*
X25563034Y8704712D01*
X25825000Y8651662D01*
X27175000Y8651662D01*
X27419730Y8697711D01*
X27644499Y8842346D01*
X27795288Y9063034D01*
X27848338Y9325000D01*
X27848338Y10675000D01*
X27802289Y10919730D01*
X27662148Y11137516D01*
X30449816Y13925184D01*
X30679682Y14269202D01*
X30760400Y14675000D01*
X30760400Y31276770D01*
X30679682Y31682568D01*
X30449816Y32026586D01*
X29026586Y33449816D01*
X28682568Y33679682D01*
X28276770Y33760400D01*
X26763082Y33760400D01*
X25994979Y34528503D01*
X26065931Y34634689D01*
X26267917Y34332396D01*
X26757926Y34004982D01*
X27335931Y33890010D01*
X27913936Y34004982D01*
X28403945Y34332396D01*
X28605931Y34634689D01*
X28807917Y34332396D01*
X29297926Y34004982D01*
X29875931Y33890010D01*
X29909593Y33896706D01*
X30956115Y32850184D01*
X31300133Y32620318D01*
X31705931Y32539600D01*
X32064020Y32539600D01*
X31702176Y32297824D01*
X31304312Y31702377D01*
X31164600Y31000000D01*
X31304312Y30297623D01*
X31702176Y29702176D01*
X32297623Y29304312D01*
X33000000Y29164600D01*
X33702377Y29304312D01*
X34297824Y29702176D01*
X34695688Y30297623D01*
X34835400Y31000000D01*
X34695688Y31702377D01*
X34297824Y32297824D01*
X33935980Y32539600D01*
X39860768Y32539600D01*
X63150184Y9250184D01*
X63494202Y9020318D01*
X63900000Y8939600D01*
X72288230Y8939600D01*
X72342346Y8855501D01*
X72563034Y8704712D01*
X72825000Y8651662D01*
X74175000Y8651662D01*
X74419730Y8697711D01*
X74644499Y8842346D01*
X74704501Y8930162D01*
X74988965Y8740089D01*
X75500000Y8638438D01*
X76011035Y8740089D01*
X76444270Y9029568D01*
X76500000Y9112974D01*
X76555730Y9029568D01*
X76988965Y8740089D01*
X77500000Y8638438D01*
X78011035Y8740089D01*
X78444270Y9029568D01*
X78500000Y9112974D01*
X78555730Y9029568D01*
X78988965Y8740089D01*
X79500000Y8638438D01*
X80011035Y8740089D01*
X80444270Y9029568D01*
X80502446Y9116634D01*
X80510480Y9103229D01*
X80928982Y8792819D01*
X81050168Y8742644D01*
X81252400Y8856192D01*
X81252400Y9752400D01*
X81232400Y9752400D01*
X81232400Y10247600D01*
X81252400Y10247600D01*
X81252400Y11143808D01*
X81050168Y11257356D01*
X80928982Y11207181D01*
X80510480Y10896771D01*
X80502446Y10883366D01*
X80444270Y10970432D01*
X80011035Y11259911D01*
X79500000Y11361562D01*
X78988965Y11259911D01*
X78555730Y10970432D01*
X78500000Y10887026D01*
X78444270Y10970432D01*
X78011035Y11259911D01*
X77500000Y11361562D01*
X76988965Y11259911D01*
X76555730Y10970432D01*
X76500000Y10887026D01*
X76444270Y10970432D01*
X76011035Y11259911D01*
X75500000Y11361562D01*
X74988965Y11259911D01*
X74705338Y11070397D01*
X74657654Y11144499D01*
X74436966Y11295288D01*
X74175000Y11348338D01*
X72825000Y11348338D01*
X72580270Y11302289D01*
X72355501Y11157654D01*
X72289050Y11060400D01*
X64339232Y11060400D01*
X63360032Y12039600D01*
X81060768Y12039600D01*
X81881422Y11218946D01*
X81747600Y11143808D01*
X81747600Y10247600D01*
X81767600Y10247600D01*
X81767600Y9752400D01*
X81747600Y9752400D01*
X81747600Y8856192D01*
X81949832Y8742644D01*
X82071018Y8792819D01*
X82489520Y9103229D01*
X82497554Y9116634D01*
X82555730Y9029568D01*
X82988965Y8740089D01*
X83500000Y8638438D01*
X84011035Y8740089D01*
X84444270Y9029568D01*
X84733749Y9462803D01*
X84835400Y9973838D01*
X84835400Y10026162D01*
X84733749Y10537197D01*
X84560400Y10796632D01*
X84560400Y11100000D01*
X84480836Y11500000D01*
X94164600Y11500000D01*
X94304312Y10797623D01*
X94702176Y10202176D01*
X95297623Y9804312D01*
X96000000Y9664600D01*
X96702377Y9804312D01*
X97297824Y10202176D01*
X97695688Y10797623D01*
X97835400Y11500000D01*
X97695688Y12202377D01*
X97297824Y12797824D01*
X96702377Y13195688D01*
X96000000Y13335400D01*
X95297623Y13195688D01*
X94702176Y12797824D01*
X94304312Y12202377D01*
X94164600Y11500000D01*
X84480836Y11500000D01*
X84479682Y11505798D01*
X84249816Y11849816D01*
X82249816Y13849816D01*
X82137020Y13925184D01*
X81905798Y14079682D01*
X81500000Y14160400D01*
X63539232Y14160400D01*
X46699632Y31000000D01*
X65164600Y31000000D01*
X65304312Y30297623D01*
X65702176Y29702176D01*
X66297623Y29304312D01*
X67000000Y29164600D01*
X67702377Y29304312D01*
X68297824Y29702176D01*
X68695688Y30297623D01*
X68702046Y30329590D01*
X73529600Y30329590D01*
X73529600Y30270410D01*
X73644572Y29692405D01*
X73971986Y29202396D01*
X74461995Y28874982D01*
X75040000Y28760010D01*
X75618005Y28874982D01*
X76108014Y29202396D01*
X76310000Y29504689D01*
X76511986Y29202396D01*
X77001995Y28874982D01*
X77580000Y28760010D01*
X78158005Y28874982D01*
X78648014Y29202396D01*
X78850000Y29504689D01*
X79051986Y29202396D01*
X79541995Y28874982D01*
X80120000Y28760010D01*
X80698005Y28874982D01*
X81188014Y29202396D01*
X81399809Y29519370D01*
X81518948Y29310370D01*
X81984520Y28949039D01*
X82182366Y28867110D01*
X82412400Y28977681D01*
X82412400Y30052400D01*
X82392400Y30052400D01*
X82392400Y30547600D01*
X82412400Y30547600D01*
X82412400Y31622319D01*
X82182366Y31732890D01*
X81984520Y31650961D01*
X81518948Y31289630D01*
X81399809Y31080630D01*
X81188014Y31397604D01*
X80698005Y31725018D01*
X80120000Y31839990D01*
X79541995Y31725018D01*
X79051986Y31397604D01*
X78850000Y31095311D01*
X78648014Y31397604D01*
X78158005Y31725018D01*
X77580000Y31839990D01*
X77001995Y31725018D01*
X76511986Y31397604D01*
X76310000Y31095311D01*
X76108014Y31397604D01*
X75618005Y31725018D01*
X75040000Y31839990D01*
X74461995Y31725018D01*
X73971986Y31397604D01*
X73644572Y30907595D01*
X73529600Y30329590D01*
X68702046Y30329590D01*
X68835400Y31000000D01*
X68695688Y31702377D01*
X68297824Y32297824D01*
X67702377Y32695688D01*
X67000000Y32835400D01*
X66297623Y32695688D01*
X65702176Y32297824D01*
X65304312Y31702377D01*
X65164600Y31000000D01*
X46699632Y31000000D01*
X40349329Y37350303D01*
X68700462Y37350303D01*
X68791729Y37103906D01*
X69379905Y36939134D01*
X69986364Y37011989D01*
X70208271Y37103906D01*
X70299538Y37350303D01*
X69500000Y38149841D01*
X68700462Y37350303D01*
X40349329Y37350303D01*
X39160032Y38539600D01*
X63925000Y38539600D01*
X64329676Y38620095D01*
X67939134Y38620095D01*
X68011989Y38013636D01*
X68103906Y37791729D01*
X68350303Y37700462D01*
X69149841Y38500000D01*
X69850159Y38500000D01*
X70649697Y37700462D01*
X70896094Y37791729D01*
X71060866Y38379905D01*
X70988011Y38986364D01*
X70896094Y39208271D01*
X70649697Y39299538D01*
X69850159Y38500000D01*
X69149841Y38500000D01*
X68350303Y39299538D01*
X68103906Y39208271D01*
X67939134Y38620095D01*
X64329676Y38620095D01*
X64330798Y38620318D01*
X64674816Y38850184D01*
X68078834Y42254202D01*
X68142346Y42155501D01*
X68345314Y42016819D01*
X68199110Y41870870D01*
X67964867Y41306750D01*
X67964334Y40695930D01*
X68197592Y40131402D01*
X68629130Y39699110D01*
X68706816Y39666852D01*
X68700462Y39649697D01*
X69500000Y38850159D01*
X70299538Y39649697D01*
X70293319Y39666487D01*
X70368598Y39697592D01*
X70800890Y40129130D01*
X71035133Y40693250D01*
X71035666Y41304070D01*
X70802408Y41868598D01*
X70652482Y42018786D01*
X70844499Y42142346D01*
X70995288Y42363034D01*
X71048338Y42625000D01*
X71048338Y44375000D01*
X71002289Y44619730D01*
X70857654Y44844499D01*
X70636966Y44995288D01*
X70375000Y45048338D01*
X69660400Y45048338D01*
X69660400Y47816013D01*
X70028389Y47447381D01*
X70528213Y47239836D01*
X71069413Y47239364D01*
X71569598Y47446036D01*
X71952619Y47828389D01*
X72049983Y48062868D01*
X72146036Y47830402D01*
X72389600Y47586412D01*
X72389600Y38290000D01*
X72458900Y37941605D01*
X72656250Y37646250D01*
X74489750Y35812750D01*
X74489347Y35350783D01*
X74711211Y34813831D01*
X75121670Y34402655D01*
X75658234Y34179854D01*
X76239217Y34179347D01*
X76776169Y34401211D01*
X77105132Y34729600D01*
X84289600Y34729600D01*
X84289600Y31502918D01*
X84131986Y31397604D01*
X83920191Y31080630D01*
X83801052Y31289630D01*
X83335480Y31650961D01*
X83137634Y31732890D01*
X82907600Y31622319D01*
X82907600Y30547600D01*
X82927600Y30547600D01*
X82927600Y30052400D01*
X82907600Y30052400D01*
X82907600Y28977681D01*
X83137634Y28867110D01*
X83335480Y28949039D01*
X83801052Y29310370D01*
X83920191Y29519370D01*
X84131986Y29202396D01*
X84621995Y28874982D01*
X85200000Y28760010D01*
X85778005Y28874982D01*
X86265599Y29200782D01*
X86407346Y28980501D01*
X86628034Y28829712D01*
X86890000Y28776662D01*
X88590000Y28776662D01*
X88834730Y28822711D01*
X89059499Y28967346D01*
X89210288Y29188034D01*
X89263338Y29450000D01*
X89263338Y29500000D01*
X94164600Y29500000D01*
X94304312Y28797623D01*
X94702176Y28202176D01*
X95297623Y27804312D01*
X96000000Y27664600D01*
X96702377Y27804312D01*
X97297824Y28202176D01*
X97695688Y28797623D01*
X97835400Y29500000D01*
X97695688Y30202377D01*
X97297824Y30797824D01*
X96702377Y31195688D01*
X96000000Y31335400D01*
X95297623Y31195688D01*
X94702176Y30797824D01*
X94304312Y30202377D01*
X94164600Y29500000D01*
X89263338Y29500000D01*
X89263338Y31150000D01*
X89217289Y31394730D01*
X89072654Y31619499D01*
X88851966Y31770288D01*
X88590000Y31823338D01*
X86890000Y31823338D01*
X86645270Y31777289D01*
X86420501Y31632654D01*
X86269712Y31411966D01*
X86266948Y31398316D01*
X86110400Y31502918D01*
X86110400Y34729600D01*
X86345295Y34729600D01*
X86671670Y34402655D01*
X87208234Y34179854D01*
X87789217Y34179347D01*
X88326169Y34401211D01*
X88737345Y34811670D01*
X88960146Y35348234D01*
X88960653Y35929217D01*
X88738789Y36466169D01*
X88328330Y36877345D01*
X87791766Y37100146D01*
X87210783Y37100653D01*
X86673831Y36878789D01*
X86344868Y36550400D01*
X77104705Y36550400D01*
X76778330Y36877345D01*
X76241766Y37100146D01*
X75776948Y37100552D01*
X74210400Y38667100D01*
X74210400Y47586592D01*
X74452619Y47828389D01*
X74549983Y48062868D01*
X74646036Y47830402D01*
X75028389Y47447381D01*
X75528213Y47239836D01*
X75702018Y47239684D01*
X75391129Y47177845D01*
X74917341Y46861270D01*
X74600766Y46387482D01*
X74489600Y45828611D01*
X74489600Y45771389D01*
X74600766Y45212518D01*
X74917341Y44738730D01*
X75391129Y44422155D01*
X75950000Y44310989D01*
X76508871Y44422155D01*
X76982659Y44738730D01*
X77148681Y44987200D01*
X77989287Y44987200D01*
X78041561Y44860688D01*
X78508231Y44393202D01*
X78637200Y44339649D01*
X78637200Y40760713D01*
X78510688Y40708439D01*
X78043202Y40241769D01*
X77789889Y39631723D01*
X77789313Y38971175D01*
X78041561Y38360688D01*
X78508231Y37893202D01*
X79118277Y37639889D01*
X79778825Y37639313D01*
X80389312Y37891561D01*
X80556907Y38058864D01*
X83059023Y38058864D01*
X83165934Y37799584D01*
X83799802Y37613747D01*
X84456536Y37684627D01*
X84734066Y37799584D01*
X84840977Y38058864D01*
X83950000Y38949841D01*
X83059023Y38058864D01*
X80556907Y38058864D01*
X80856798Y38358231D01*
X81110111Y38968277D01*
X81110531Y39450198D01*
X82263747Y39450198D01*
X82334627Y38793464D01*
X82449584Y38515934D01*
X82708864Y38409023D01*
X83599841Y39300000D01*
X84300159Y39300000D01*
X85191136Y38409023D01*
X85450416Y38515934D01*
X85636253Y39149802D01*
X85565373Y39806536D01*
X85450416Y40084066D01*
X85191136Y40190977D01*
X84300159Y39300000D01*
X83599841Y39300000D01*
X82708864Y40190977D01*
X82449584Y40084066D01*
X82263747Y39450198D01*
X81110531Y39450198D01*
X81110687Y39628825D01*
X80858439Y40239312D01*
X80557142Y40541136D01*
X83059023Y40541136D01*
X83950000Y39650159D01*
X84840977Y40541136D01*
X84734066Y40800416D01*
X84100198Y40986253D01*
X83443464Y40915373D01*
X83165934Y40800416D01*
X83059023Y40541136D01*
X80557142Y40541136D01*
X80391769Y40706798D01*
X80262800Y40760351D01*
X80262800Y44339287D01*
X80389312Y44391561D01*
X80556907Y44558864D01*
X83059023Y44558864D01*
X83165934Y44299584D01*
X83799802Y44113747D01*
X84456536Y44184627D01*
X84734066Y44299584D01*
X84840977Y44558864D01*
X83950000Y45449841D01*
X83059023Y44558864D01*
X80556907Y44558864D01*
X80856798Y44858231D01*
X81110111Y45468277D01*
X81110531Y45950198D01*
X82263747Y45950198D01*
X82334627Y45293464D01*
X82449584Y45015934D01*
X82708864Y44909023D01*
X83599841Y45800000D01*
X84300159Y45800000D01*
X85191136Y44909023D01*
X85450416Y45015934D01*
X85636253Y45649802D01*
X85616955Y45828611D01*
X86039600Y45828611D01*
X86039600Y45771389D01*
X86150766Y45212518D01*
X86467341Y44738730D01*
X86941129Y44422155D01*
X87500000Y44310989D01*
X88058871Y44422155D01*
X88532659Y44738730D01*
X88698681Y44987200D01*
X89589287Y44987200D01*
X89641561Y44860688D01*
X90108231Y44393202D01*
X90237200Y44339649D01*
X90237200Y40760713D01*
X90110688Y40708439D01*
X89643202Y40241769D01*
X89389889Y39631723D01*
X89389313Y38971175D01*
X89641561Y38360688D01*
X90108231Y37893202D01*
X90718277Y37639889D01*
X91378825Y37639313D01*
X91989312Y37891561D01*
X92156907Y38058864D01*
X94659023Y38058864D01*
X94765934Y37799584D01*
X95399802Y37613747D01*
X96056536Y37684627D01*
X96334066Y37799584D01*
X96440977Y38058864D01*
X95550000Y38949841D01*
X94659023Y38058864D01*
X92156907Y38058864D01*
X92456798Y38358231D01*
X92710111Y38968277D01*
X92710531Y39450198D01*
X93863747Y39450198D01*
X93934627Y38793464D01*
X94049584Y38515934D01*
X94308864Y38409023D01*
X95199841Y39300000D01*
X95900159Y39300000D01*
X96791136Y38409023D01*
X97050416Y38515934D01*
X97236253Y39149802D01*
X97165373Y39806536D01*
X97050416Y40084066D01*
X96791136Y40190977D01*
X95900159Y39300000D01*
X95199841Y39300000D01*
X94308864Y40190977D01*
X94049584Y40084066D01*
X93863747Y39450198D01*
X92710531Y39450198D01*
X92710687Y39628825D01*
X92458439Y40239312D01*
X92157142Y40541136D01*
X94659023Y40541136D01*
X95550000Y39650159D01*
X96440977Y40541136D01*
X96334066Y40800416D01*
X95700198Y40986253D01*
X95043464Y40915373D01*
X94765934Y40800416D01*
X94659023Y40541136D01*
X92157142Y40541136D01*
X91991769Y40706798D01*
X91862800Y40760351D01*
X91862800Y44339287D01*
X91989312Y44391561D01*
X92156907Y44558864D01*
X94659023Y44558864D01*
X94765934Y44299584D01*
X95399802Y44113747D01*
X96056536Y44184627D01*
X96334066Y44299584D01*
X96440977Y44558864D01*
X95550000Y45449841D01*
X94659023Y44558864D01*
X92156907Y44558864D01*
X92456798Y44858231D01*
X92710111Y45468277D01*
X92710531Y45950198D01*
X93863747Y45950198D01*
X93934627Y45293464D01*
X94049584Y45015934D01*
X94308864Y44909023D01*
X95199841Y45800000D01*
X95900159Y45800000D01*
X96791136Y44909023D01*
X97050416Y45015934D01*
X97236253Y45649802D01*
X97165373Y46306536D01*
X97050416Y46584066D01*
X96791136Y46690977D01*
X95900159Y45800000D01*
X95199841Y45800000D01*
X94308864Y46690977D01*
X94049584Y46584066D01*
X93863747Y45950198D01*
X92710531Y45950198D01*
X92710687Y46128825D01*
X92458439Y46739312D01*
X92157142Y47041136D01*
X94659023Y47041136D01*
X95550000Y46150159D01*
X96440977Y47041136D01*
X96334066Y47300416D01*
X95700198Y47486253D01*
X95043464Y47415373D01*
X94765934Y47300416D01*
X94659023Y47041136D01*
X92157142Y47041136D01*
X91991769Y47206798D01*
X91381723Y47460111D01*
X90721175Y47460687D01*
X90110688Y47208439D01*
X89643202Y46741769D01*
X89589649Y46612800D01*
X88698681Y46612800D01*
X88532659Y46861270D01*
X88058871Y47177845D01*
X87500000Y47289011D01*
X86941129Y47177845D01*
X86467341Y46861270D01*
X86150766Y46387482D01*
X86039600Y45828611D01*
X85616955Y45828611D01*
X85565373Y46306536D01*
X85450416Y46584066D01*
X85191136Y46690977D01*
X84300159Y45800000D01*
X83599841Y45800000D01*
X82708864Y46690977D01*
X82449584Y46584066D01*
X82263747Y45950198D01*
X81110531Y45950198D01*
X81110687Y46128825D01*
X80858439Y46739312D01*
X80557142Y47041136D01*
X83059023Y47041136D01*
X83950000Y46150159D01*
X84840977Y47041136D01*
X84734066Y47300416D01*
X84100198Y47486253D01*
X83443464Y47415373D01*
X83165934Y47300416D01*
X83059023Y47041136D01*
X80557142Y47041136D01*
X80391769Y47206798D01*
X79781723Y47460111D01*
X79121175Y47460687D01*
X78510688Y47208439D01*
X78043202Y46741769D01*
X77989649Y46612800D01*
X77148681Y46612800D01*
X76982659Y46861270D01*
X76508871Y47177845D01*
X76111717Y47256844D01*
X76569598Y47446036D01*
X76952619Y47828389D01*
X77160164Y48328213D01*
X77160636Y48869413D01*
X76953964Y49369598D01*
X76718339Y49605635D01*
X76943750Y49756250D01*
X78143750Y50956250D01*
X78341100Y51251605D01*
X78410400Y51600000D01*
X78410400Y53600000D01*
X78341100Y53948395D01*
X78143750Y54243750D01*
X76510400Y55877100D01*
X76510400Y57000000D01*
X80164600Y57000000D01*
X80304312Y56297623D01*
X80702176Y55702176D01*
X81297623Y55304312D01*
X82000000Y55164600D01*
X82702377Y55304312D01*
X83297824Y55702176D01*
X83695688Y56297623D01*
X83835400Y57000000D01*
X83695688Y57702377D01*
X83297824Y58297824D01*
X82702377Y58695688D01*
X82000000Y58835400D01*
X81297623Y58695688D01*
X80702176Y58297824D01*
X80304312Y57702377D01*
X80164600Y57000000D01*
X76510400Y57000000D01*
X76510400Y64200000D01*
X76441100Y64548395D01*
X76243750Y64843750D01*
X72043750Y69043750D01*
X71748395Y69241100D01*
X71573338Y69275921D01*
X71573338Y69300000D01*
X71527289Y69544730D01*
X71382654Y69769499D01*
X71161966Y69920288D01*
X70910400Y69971232D01*
X70910400Y71530002D01*
X70841100Y71878397D01*
X70643750Y72173752D01*
X68473752Y74343750D01*
X68178397Y74541100D01*
X67830002Y74610400D01*
X67794951Y74610400D01*
X67960146Y75008234D01*
X67960653Y75589217D01*
X67738789Y76126169D01*
X67328330Y76537345D01*
X66791766Y76760146D01*
X66512801Y76760389D01*
X66512801Y78000000D01*
X67164600Y78000000D01*
X67304312Y77297623D01*
X67702176Y76702176D01*
X68297623Y76304312D01*
X69000000Y76164600D01*
X69702377Y76304312D01*
X70297824Y76702176D01*
X70695688Y77297623D01*
X70835400Y78000000D01*
X70695688Y78702377D01*
X70297824Y79297824D01*
X69702377Y79695688D01*
X69000000Y79835400D01*
X68297623Y79695688D01*
X67702176Y79297824D01*
X67304312Y78702377D01*
X67164600Y78000000D01*
X66512801Y78000000D01*
X66512801Y79158529D01*
X71574736Y84220463D01*
X71712513Y84426662D01*
X71900000Y84426662D01*
X72144730Y84472711D01*
X72369499Y84617346D01*
X72520288Y84838034D01*
X72573338Y85100000D01*
X72573338Y86846637D01*
X99264600Y46976564D01*
G36*
X40039968Y34660400D02*
X33682409Y34660400D01*
X33848840Y34952363D01*
X33740817Y35182400D01*
X32663531Y35182400D01*
X32663531Y35162400D01*
X32168331Y35162400D01*
X32168331Y35182400D01*
X32148331Y35182400D01*
X32148331Y35677600D01*
X32168331Y35677600D01*
X32168331Y35697600D01*
X32663531Y35697600D01*
X32663531Y35677600D01*
X33740817Y35677600D01*
X33848840Y35907637D01*
X33556983Y36419630D01*
X33091411Y36780961D01*
X32893565Y36862890D01*
X32663533Y36752320D01*
X32663533Y36939600D01*
X37760768Y36939600D01*
X40039968Y34660400D01*
X40039968Y34660400D01*
G37*
X40039968Y34660400D02*
X33682409Y34660400D01*
X33848840Y34952363D01*
X33740817Y35182400D01*
X32663531Y35182400D01*
X32663531Y35162400D01*
X32168331Y35162400D01*
X32168331Y35182400D01*
X32148331Y35182400D01*
X32148331Y35677600D01*
X32168331Y35677600D01*
X32168331Y35697600D01*
X32663531Y35697600D01*
X32663531Y35677600D01*
X33740817Y35677600D01*
X33848840Y35907637D01*
X33556983Y36419630D01*
X33091411Y36780961D01*
X32893565Y36862890D01*
X32663533Y36752320D01*
X32663533Y36939600D01*
X37760768Y36939600D01*
X40039968Y34660400D01*
G36*
X19963531Y35677600D02*
X19983531Y35677600D01*
X19983531Y35182400D01*
X19963531Y35182400D01*
X19963531Y35162400D01*
X19468331Y35162400D01*
X19468331Y35182400D01*
X19448331Y35182400D01*
X19448331Y35677600D01*
X19468331Y35677600D01*
X19468331Y35697600D01*
X19963531Y35697600D01*
X19963531Y35677600D01*
X19963531Y35677600D01*
G37*
X19963531Y35677600D02*
X19983531Y35677600D01*
X19983531Y35182400D01*
X19963531Y35182400D01*
X19963531Y35162400D01*
X19468331Y35162400D01*
X19468331Y35182400D01*
X19448331Y35182400D01*
X19448331Y35677600D01*
X19468331Y35677600D01*
X19468331Y35697600D01*
X19963531Y35697600D01*
X19963531Y35677600D01*
G36*
X73187200Y63063327D02*
X73187200Y60822409D01*
X73080270Y60802289D01*
X72855501Y60657654D01*
X72704712Y60436966D01*
X72651662Y60175000D01*
X72651662Y58825000D01*
X72697711Y58580270D01*
X72842346Y58355501D01*
X72949513Y58282277D01*
X72792819Y58071018D01*
X72742644Y57949832D01*
X72856192Y57747600D01*
X73752400Y57747600D01*
X73752400Y57767600D01*
X74247600Y57767600D01*
X74247600Y57747600D01*
X74267600Y57747600D01*
X74267600Y57252400D01*
X74247600Y57252400D01*
X74247600Y57232400D01*
X73752400Y57232400D01*
X73752400Y57252400D01*
X72856192Y57252400D01*
X72742644Y57050168D01*
X72792819Y56928982D01*
X73103229Y56510480D01*
X73116634Y56502446D01*
X73029568Y56444270D01*
X72740089Y56011035D01*
X72638438Y55500000D01*
X72740089Y54988965D01*
X73029568Y54555730D01*
X73462803Y54266251D01*
X73973838Y54164600D01*
X74026162Y54164600D01*
X74537197Y54266251D01*
X74970432Y54555730D01*
X74993063Y54589600D01*
X75222900Y54589600D01*
X76380542Y53431958D01*
X76071787Y53560164D01*
X75530587Y53560636D01*
X75030402Y53353964D01*
X74647381Y52971611D01*
X74550017Y52737132D01*
X74453964Y52969598D01*
X74071611Y53352619D01*
X73571787Y53560164D01*
X73030587Y53560636D01*
X72530402Y53353964D01*
X72410399Y53234170D01*
X72410399Y63400001D01*
X72341099Y63748396D01*
X72143749Y64043751D01*
X71355578Y64831922D01*
X71366035Y64884492D01*
X73187200Y63063327D01*
X73187200Y63063327D01*
G37*
X73187200Y63063327D02*
X73187200Y60822409D01*
X73080270Y60802289D01*
X72855501Y60657654D01*
X72704712Y60436966D01*
X72651662Y60175000D01*
X72651662Y58825000D01*
X72697711Y58580270D01*
X72842346Y58355501D01*
X72949513Y58282277D01*
X72792819Y58071018D01*
X72742644Y57949832D01*
X72856192Y57747600D01*
X73752400Y57747600D01*
X73752400Y57767600D01*
X74247600Y57767600D01*
X74247600Y57747600D01*
X74267600Y57747600D01*
X74267600Y57252400D01*
X74247600Y57252400D01*
X74247600Y57232400D01*
X73752400Y57232400D01*
X73752400Y57252400D01*
X72856192Y57252400D01*
X72742644Y57050168D01*
X72792819Y56928982D01*
X73103229Y56510480D01*
X73116634Y56502446D01*
X73029568Y56444270D01*
X72740089Y56011035D01*
X72638438Y55500000D01*
X72740089Y54988965D01*
X73029568Y54555730D01*
X73462803Y54266251D01*
X73973838Y54164600D01*
X74026162Y54164600D01*
X74537197Y54266251D01*
X74970432Y54555730D01*
X74993063Y54589600D01*
X75222900Y54589600D01*
X76380542Y53431958D01*
X76071787Y53560164D01*
X75530587Y53560636D01*
X75030402Y53353964D01*
X74647381Y52971611D01*
X74550017Y52737132D01*
X74453964Y52969598D01*
X74071611Y53352619D01*
X73571787Y53560164D01*
X73030587Y53560636D01*
X72530402Y53353964D01*
X72410399Y53234170D01*
X72410399Y63400001D01*
X72341099Y63748396D01*
X72143749Y64043751D01*
X71355578Y64831922D01*
X71366035Y64884492D01*
X73187200Y63063327D01*
G36*
X63896250Y73056250D02*
X64155195Y72883228D01*
X63970000Y72606064D01*
X63732659Y72961270D01*
X63258871Y73277845D01*
X62700000Y73389011D01*
X62141129Y73277845D01*
X61667341Y72961270D01*
X61430000Y72606064D01*
X61192659Y72961270D01*
X60718871Y73277845D01*
X60160000Y73389011D01*
X59601129Y73277845D01*
X59127341Y72961270D01*
X58890000Y72606064D01*
X58652659Y72961270D01*
X58178871Y73277845D01*
X57620000Y73389011D01*
X57061129Y73277845D01*
X56587341Y72961270D01*
X56350000Y72606064D01*
X56112659Y72961270D01*
X55638871Y73277845D01*
X55080000Y73389011D01*
X54521129Y73277845D01*
X54047341Y72961270D01*
X53810000Y72606064D01*
X53572659Y72961270D01*
X53098871Y73277845D01*
X52540000Y73389011D01*
X51981129Y73277845D01*
X51507341Y72961270D01*
X51270000Y72606064D01*
X51032659Y72961270D01*
X50558871Y73277845D01*
X50000000Y73389011D01*
X49441129Y73277845D01*
X48967341Y72961270D01*
X48730000Y72606064D01*
X48492659Y72961270D01*
X48018871Y73277845D01*
X47460000Y73389011D01*
X46901129Y73277845D01*
X46427341Y72961270D01*
X46190000Y72606064D01*
X45952659Y72961270D01*
X45478871Y73277845D01*
X44920000Y73389011D01*
X44361129Y73277845D01*
X43887341Y72961270D01*
X43650000Y72606064D01*
X43412659Y72961270D01*
X42938871Y73277845D01*
X42380000Y73389011D01*
X41821129Y73277845D01*
X41347341Y72961270D01*
X41110000Y72606064D01*
X40872659Y72961270D01*
X40750400Y73042961D01*
X40750400Y73562900D01*
X42239898Y75052398D01*
X42388584Y75052398D01*
X42277195Y74830299D01*
X42350065Y74654327D01*
X42696866Y74202185D01*
X43190296Y73917176D01*
X43412400Y74025823D01*
X43412400Y75052400D01*
X43907600Y75052400D01*
X43907600Y74025823D01*
X44129704Y73917176D01*
X44623134Y74202185D01*
X44969935Y74654327D01*
X45042805Y74830299D01*
X44931415Y75052400D01*
X43907600Y75052400D01*
X43412400Y75052400D01*
X43392400Y75052400D01*
X43392400Y75547600D01*
X43412400Y75547600D01*
X43412400Y75567600D01*
X43907600Y75567600D01*
X43907600Y75547600D01*
X44931415Y75547600D01*
X45042805Y75769701D01*
X44969935Y75945673D01*
X44859540Y76089600D01*
X46809002Y76089600D01*
X46704712Y75936966D01*
X46651662Y75675000D01*
X46651662Y74325000D01*
X46697711Y74080270D01*
X46842346Y73855501D01*
X47063034Y73704712D01*
X47325000Y73651662D01*
X48675000Y73651662D01*
X48919730Y73697711D01*
X49144499Y73842346D01*
X49217723Y73949513D01*
X49428982Y73792819D01*
X49550168Y73742644D01*
X49752400Y73856192D01*
X49752400Y74752400D01*
X49732400Y74752400D01*
X49732400Y75247600D01*
X49752400Y75247600D01*
X49752400Y75267600D01*
X50247600Y75267600D01*
X50247600Y75247600D01*
X50267600Y75247600D01*
X50267600Y74752400D01*
X50247600Y74752400D01*
X50247600Y73856192D01*
X50449832Y73742644D01*
X50571018Y73792819D01*
X50989520Y74103229D01*
X50997554Y74116634D01*
X51055730Y74029568D01*
X51488965Y73740089D01*
X52000000Y73638438D01*
X52511035Y73740089D01*
X52944270Y74029568D01*
X53233749Y74462803D01*
X53306848Y74830299D01*
X54957195Y74830299D01*
X55030065Y74654327D01*
X55376866Y74202185D01*
X55870296Y73917176D01*
X56092400Y74025823D01*
X56092400Y75052400D01*
X56587600Y75052400D01*
X56587600Y74025823D01*
X56809704Y73917176D01*
X57303134Y74202185D01*
X57649935Y74654327D01*
X57722805Y74830299D01*
X57611415Y75052400D01*
X56587600Y75052400D01*
X56092400Y75052400D01*
X55068585Y75052400D01*
X54957195Y74830299D01*
X53306848Y74830299D01*
X53335400Y74973838D01*
X53335400Y75026162D01*
X53331793Y75044293D01*
X54057201Y75769701D01*
X54957195Y75769701D01*
X55068585Y75547600D01*
X56092400Y75547600D01*
X56092400Y76574177D01*
X56587600Y76574177D01*
X56587600Y75547600D01*
X57611415Y75547600D01*
X57722805Y75769701D01*
X57649935Y75945673D01*
X57303134Y76397815D01*
X56809704Y76682824D01*
X56587600Y76574177D01*
X56092400Y76574177D01*
X55870296Y76682824D01*
X55376866Y76397815D01*
X55030065Y75945673D01*
X54957195Y75769701D01*
X54057201Y75769701D01*
X57620000Y79332500D01*
X63896250Y73056250D01*
X63896250Y73056250D01*
G37*
X63896250Y73056250D02*
X64155195Y72883228D01*
X63970000Y72606064D01*
X63732659Y72961270D01*
X63258871Y73277845D01*
X62700000Y73389011D01*
X62141129Y73277845D01*
X61667341Y72961270D01*
X61430000Y72606064D01*
X61192659Y72961270D01*
X60718871Y73277845D01*
X60160000Y73389011D01*
X59601129Y73277845D01*
X59127341Y72961270D01*
X58890000Y72606064D01*
X58652659Y72961270D01*
X58178871Y73277845D01*
X57620000Y73389011D01*
X57061129Y73277845D01*
X56587341Y72961270D01*
X56350000Y72606064D01*
X56112659Y72961270D01*
X55638871Y73277845D01*
X55080000Y73389011D01*
X54521129Y73277845D01*
X54047341Y72961270D01*
X53810000Y72606064D01*
X53572659Y72961270D01*
X53098871Y73277845D01*
X52540000Y73389011D01*
X51981129Y73277845D01*
X51507341Y72961270D01*
X51270000Y72606064D01*
X51032659Y72961270D01*
X50558871Y73277845D01*
X50000000Y73389011D01*
X49441129Y73277845D01*
X48967341Y72961270D01*
X48730000Y72606064D01*
X48492659Y72961270D01*
X48018871Y73277845D01*
X47460000Y73389011D01*
X46901129Y73277845D01*
X46427341Y72961270D01*
X46190000Y72606064D01*
X45952659Y72961270D01*
X45478871Y73277845D01*
X44920000Y73389011D01*
X44361129Y73277845D01*
X43887341Y72961270D01*
X43650000Y72606064D01*
X43412659Y72961270D01*
X42938871Y73277845D01*
X42380000Y73389011D01*
X41821129Y73277845D01*
X41347341Y72961270D01*
X41110000Y72606064D01*
X40872659Y72961270D01*
X40750400Y73042961D01*
X40750400Y73562900D01*
X42239898Y75052398D01*
X42388584Y75052398D01*
X42277195Y74830299D01*
X42350065Y74654327D01*
X42696866Y74202185D01*
X43190296Y73917176D01*
X43412400Y74025823D01*
X43412400Y75052400D01*
X43907600Y75052400D01*
X43907600Y74025823D01*
X44129704Y73917176D01*
X44623134Y74202185D01*
X44969935Y74654327D01*
X45042805Y74830299D01*
X44931415Y75052400D01*
X43907600Y75052400D01*
X43412400Y75052400D01*
X43392400Y75052400D01*
X43392400Y75547600D01*
X43412400Y75547600D01*
X43412400Y75567600D01*
X43907600Y75567600D01*
X43907600Y75547600D01*
X44931415Y75547600D01*
X45042805Y75769701D01*
X44969935Y75945673D01*
X44859540Y76089600D01*
X46809002Y76089600D01*
X46704712Y75936966D01*
X46651662Y75675000D01*
X46651662Y74325000D01*
X46697711Y74080270D01*
X46842346Y73855501D01*
X47063034Y73704712D01*
X47325000Y73651662D01*
X48675000Y73651662D01*
X48919730Y73697711D01*
X49144499Y73842346D01*
X49217723Y73949513D01*
X49428982Y73792819D01*
X49550168Y73742644D01*
X49752400Y73856192D01*
X49752400Y74752400D01*
X49732400Y74752400D01*
X49732400Y75247600D01*
X49752400Y75247600D01*
X49752400Y75267600D01*
X50247600Y75267600D01*
X50247600Y75247600D01*
X50267600Y75247600D01*
X50267600Y74752400D01*
X50247600Y74752400D01*
X50247600Y73856192D01*
X50449832Y73742644D01*
X50571018Y73792819D01*
X50989520Y74103229D01*
X50997554Y74116634D01*
X51055730Y74029568D01*
X51488965Y73740089D01*
X52000000Y73638438D01*
X52511035Y73740089D01*
X52944270Y74029568D01*
X53233749Y74462803D01*
X53306848Y74830299D01*
X54957195Y74830299D01*
X55030065Y74654327D01*
X55376866Y74202185D01*
X55870296Y73917176D01*
X56092400Y74025823D01*
X56092400Y75052400D01*
X56587600Y75052400D01*
X56587600Y74025823D01*
X56809704Y73917176D01*
X57303134Y74202185D01*
X57649935Y74654327D01*
X57722805Y74830299D01*
X57611415Y75052400D01*
X56587600Y75052400D01*
X56092400Y75052400D01*
X55068585Y75052400D01*
X54957195Y74830299D01*
X53306848Y74830299D01*
X53335400Y74973838D01*
X53335400Y75026162D01*
X53331793Y75044293D01*
X54057201Y75769701D01*
X54957195Y75769701D01*
X55068585Y75547600D01*
X56092400Y75547600D01*
X56092400Y76574177D01*
X56587600Y76574177D01*
X56587600Y75547600D01*
X57611415Y75547600D01*
X57722805Y75769701D01*
X57649935Y75945673D01*
X57303134Y76397815D01*
X56809704Y76682824D01*
X56587600Y76574177D01*
X56092400Y76574177D01*
X55870296Y76682824D01*
X55376866Y76397815D01*
X55030065Y75945673D01*
X54957195Y75769701D01*
X54057201Y75769701D01*
X57620000Y79332500D01*
X63896250Y73056250D01*
G36*
X64626479Y98926666D02*
X66005340Y98005340D01*
X66926666Y96626478D01*
X67278730Y94856531D01*
X67278858Y94856223D01*
X67278858Y94855894D01*
X67333582Y94724107D01*
X67388537Y94591434D01*
X67388771Y94591200D01*
X67388898Y94590894D01*
X72116146Y87529567D01*
X71900000Y87573338D01*
X70100000Y87573338D01*
X69855270Y87527289D01*
X69630501Y87382654D01*
X69489937Y87176931D01*
X69345050Y87322071D01*
X68771744Y87560129D01*
X68150979Y87560670D01*
X67577259Y87323614D01*
X67137929Y86885050D01*
X66899871Y86311744D01*
X66899330Y85690979D01*
X67136386Y85117259D01*
X67574950Y84677929D01*
X68148256Y84439871D01*
X68769021Y84439330D01*
X69342741Y84676386D01*
X69491964Y84825349D01*
X69617346Y84630501D01*
X69658030Y84602703D01*
X65412800Y80357472D01*
X65412800Y82613910D01*
X65350929Y82924955D01*
X65174736Y83188646D01*
X59483836Y88879546D01*
X59220145Y89055739D01*
X58909100Y89117610D01*
X44684810Y89117610D01*
X44373765Y89055739D01*
X44110074Y88879547D01*
X42705727Y87475199D01*
X42380000Y87539990D01*
X41801995Y87425018D01*
X41311986Y87097604D01*
X40984572Y86607595D01*
X40869600Y86029590D01*
X40869600Y85970410D01*
X40984572Y85392405D01*
X41311986Y84902396D01*
X41801995Y84574982D01*
X42380000Y84460010D01*
X42958005Y84574982D01*
X43448014Y84902396D01*
X43650000Y85204689D01*
X43851986Y84902396D01*
X44341995Y84574982D01*
X44920000Y84460010D01*
X45498005Y84574982D01*
X45988014Y84902396D01*
X46190000Y85204689D01*
X46391986Y84902396D01*
X46881995Y84574982D01*
X47460000Y84460010D01*
X48038005Y84574982D01*
X48528014Y84902396D01*
X48730000Y85204689D01*
X48931986Y84902396D01*
X49421995Y84574982D01*
X50000000Y84460010D01*
X50578005Y84574982D01*
X51068014Y84902396D01*
X51270000Y85204689D01*
X51471986Y84902396D01*
X51961995Y84574982D01*
X52540000Y84460010D01*
X53118005Y84574982D01*
X53608014Y84902396D01*
X53819809Y85219370D01*
X53938948Y85010370D01*
X54404520Y84649039D01*
X54602366Y84567110D01*
X54832400Y84677681D01*
X54832400Y85752400D01*
X54812400Y85752400D01*
X54812400Y86247600D01*
X54832400Y86247600D01*
X54832400Y86267600D01*
X55327600Y86267600D01*
X55327600Y86247600D01*
X55347600Y86247600D01*
X55347600Y85752400D01*
X55327600Y85752400D01*
X55327600Y84677681D01*
X55557634Y84567110D01*
X55755480Y84649039D01*
X56135438Y84943925D01*
X56142711Y84905270D01*
X56287346Y84680501D01*
X56508034Y84529712D01*
X56709600Y84488893D01*
X56709600Y80997100D01*
X52061774Y76349274D01*
X52000000Y76361562D01*
X51938226Y76349274D01*
X50643750Y77643750D01*
X50348395Y77841100D01*
X50000000Y77910400D01*
X42900000Y77910400D01*
X42551605Y77841100D01*
X42256250Y77643750D01*
X39196250Y74583750D01*
X38998900Y74288395D01*
X38929600Y73940000D01*
X38929600Y73042961D01*
X38807341Y72961270D01*
X38570000Y72606064D01*
X38332659Y72961270D01*
X37858871Y73277845D01*
X37300000Y73389011D01*
X36960399Y73321460D01*
X36960399Y82665193D01*
X36898528Y82976238D01*
X36875271Y83011045D01*
X36722335Y83239930D01*
X33387528Y86574736D01*
X33123837Y86750929D01*
X32899652Y86795522D01*
X32863614Y86882741D01*
X32425050Y87322071D01*
X31851744Y87560129D01*
X31230979Y87560670D01*
X30657259Y87323614D01*
X30508036Y87174651D01*
X30382654Y87369499D01*
X30161966Y87520288D01*
X29900000Y87573338D01*
X28100000Y87573338D01*
X27886229Y87533114D01*
X32611102Y94590894D01*
X32611229Y94591200D01*
X32611463Y94591434D01*
X32666334Y94723905D01*
X32721142Y94855893D01*
X32721142Y94856223D01*
X32721270Y94856531D01*
X32749807Y95000000D01*
X35164600Y95000000D01*
X35304312Y94297623D01*
X35702176Y93702176D01*
X36297623Y93304312D01*
X37000000Y93164600D01*
X37702377Y93304312D01*
X38297824Y93702176D01*
X38695688Y94297623D01*
X38825454Y94950000D01*
X61164600Y94950000D01*
X61304312Y94247623D01*
X61702176Y93652176D01*
X62297623Y93254312D01*
X63000000Y93114600D01*
X63702377Y93254312D01*
X64297824Y93652176D01*
X64695688Y94247623D01*
X64835400Y94950000D01*
X64695688Y95652377D01*
X64297824Y96247824D01*
X63702377Y96645688D01*
X63000000Y96785400D01*
X62297623Y96645688D01*
X61702176Y96247824D01*
X61304312Y95652377D01*
X61164600Y94950000D01*
X38825454Y94950000D01*
X38835400Y95000000D01*
X38695688Y95702377D01*
X38297824Y96297824D01*
X37702377Y96695688D01*
X37000000Y96835400D01*
X36297623Y96695688D01*
X35702176Y96297824D01*
X35304312Y95702377D01*
X35164600Y95000000D01*
X32749807Y95000000D01*
X33073334Y96626479D01*
X33994660Y98005340D01*
X35373522Y98926666D01*
X37072433Y99264600D01*
X62927567Y99264600D01*
X64626479Y98926666D01*
X64626479Y98926666D01*
G37*
X64626479Y98926666D02*
X66005340Y98005340D01*
X66926666Y96626478D01*
X67278730Y94856531D01*
X67278858Y94856223D01*
X67278858Y94855894D01*
X67333582Y94724107D01*
X67388537Y94591434D01*
X67388771Y94591200D01*
X67388898Y94590894D01*
X72116146Y87529567D01*
X71900000Y87573338D01*
X70100000Y87573338D01*
X69855270Y87527289D01*
X69630501Y87382654D01*
X69489937Y87176931D01*
X69345050Y87322071D01*
X68771744Y87560129D01*
X68150979Y87560670D01*
X67577259Y87323614D01*
X67137929Y86885050D01*
X66899871Y86311744D01*
X66899330Y85690979D01*
X67136386Y85117259D01*
X67574950Y84677929D01*
X68148256Y84439871D01*
X68769021Y84439330D01*
X69342741Y84676386D01*
X69491964Y84825349D01*
X69617346Y84630501D01*
X69658030Y84602703D01*
X65412800Y80357472D01*
X65412800Y82613910D01*
X65350929Y82924955D01*
X65174736Y83188646D01*
X59483836Y88879546D01*
X59220145Y89055739D01*
X58909100Y89117610D01*
X44684810Y89117610D01*
X44373765Y89055739D01*
X44110074Y88879547D01*
X42705727Y87475199D01*
X42380000Y87539990D01*
X41801995Y87425018D01*
X41311986Y87097604D01*
X40984572Y86607595D01*
X40869600Y86029590D01*
X40869600Y85970410D01*
X40984572Y85392405D01*
X41311986Y84902396D01*
X41801995Y84574982D01*
X42380000Y84460010D01*
X42958005Y84574982D01*
X43448014Y84902396D01*
X43650000Y85204689D01*
X43851986Y84902396D01*
X44341995Y84574982D01*
X44920000Y84460010D01*
X45498005Y84574982D01*
X45988014Y84902396D01*
X46190000Y85204689D01*
X46391986Y84902396D01*
X46881995Y84574982D01*
X47460000Y84460010D01*
X48038005Y84574982D01*
X48528014Y84902396D01*
X48730000Y85204689D01*
X48931986Y84902396D01*
X49421995Y84574982D01*
X50000000Y84460010D01*
X50578005Y84574982D01*
X51068014Y84902396D01*
X51270000Y85204689D01*
X51471986Y84902396D01*
X51961995Y84574982D01*
X52540000Y84460010D01*
X53118005Y84574982D01*
X53608014Y84902396D01*
X53819809Y85219370D01*
X53938948Y85010370D01*
X54404520Y84649039D01*
X54602366Y84567110D01*
X54832400Y84677681D01*
X54832400Y85752400D01*
X54812400Y85752400D01*
X54812400Y86247600D01*
X54832400Y86247600D01*
X54832400Y86267600D01*
X55327600Y86267600D01*
X55327600Y86247600D01*
X55347600Y86247600D01*
X55347600Y85752400D01*
X55327600Y85752400D01*
X55327600Y84677681D01*
X55557634Y84567110D01*
X55755480Y84649039D01*
X56135438Y84943925D01*
X56142711Y84905270D01*
X56287346Y84680501D01*
X56508034Y84529712D01*
X56709600Y84488893D01*
X56709600Y80997100D01*
X52061774Y76349274D01*
X52000000Y76361562D01*
X51938226Y76349274D01*
X50643750Y77643750D01*
X50348395Y77841100D01*
X50000000Y77910400D01*
X42900000Y77910400D01*
X42551605Y77841100D01*
X42256250Y77643750D01*
X39196250Y74583750D01*
X38998900Y74288395D01*
X38929600Y73940000D01*
X38929600Y73042961D01*
X38807341Y72961270D01*
X38570000Y72606064D01*
X38332659Y72961270D01*
X37858871Y73277845D01*
X37300000Y73389011D01*
X36960399Y73321460D01*
X36960399Y82665193D01*
X36898528Y82976238D01*
X36875271Y83011045D01*
X36722335Y83239930D01*
X33387528Y86574736D01*
X33123837Y86750929D01*
X32899652Y86795522D01*
X32863614Y86882741D01*
X32425050Y87322071D01*
X31851744Y87560129D01*
X31230979Y87560670D01*
X30657259Y87323614D01*
X30508036Y87174651D01*
X30382654Y87369499D01*
X30161966Y87520288D01*
X29900000Y87573338D01*
X28100000Y87573338D01*
X27886229Y87533114D01*
X32611102Y94590894D01*
X32611229Y94591200D01*
X32611463Y94591434D01*
X32666334Y94723905D01*
X32721142Y94855893D01*
X32721142Y94856223D01*
X32721270Y94856531D01*
X32749807Y95000000D01*
X35164600Y95000000D01*
X35304312Y94297623D01*
X35702176Y93702176D01*
X36297623Y93304312D01*
X37000000Y93164600D01*
X37702377Y93304312D01*
X38297824Y93702176D01*
X38695688Y94297623D01*
X38825454Y94950000D01*
X61164600Y94950000D01*
X61304312Y94247623D01*
X61702176Y93652176D01*
X62297623Y93254312D01*
X63000000Y93114600D01*
X63702377Y93254312D01*
X64297824Y93652176D01*
X64695688Y94247623D01*
X64835400Y94950000D01*
X64695688Y95652377D01*
X64297824Y96247824D01*
X63702377Y96645688D01*
X63000000Y96785400D01*
X62297623Y96645688D01*
X61702176Y96247824D01*
X61304312Y95652377D01*
X61164600Y94950000D01*
X38825454Y94950000D01*
X38835400Y95000000D01*
X38695688Y95702377D01*
X38297824Y96297824D01*
X37702377Y96695688D01*
X37000000Y96835400D01*
X36297623Y96695688D01*
X35702176Y96297824D01*
X35304312Y95702377D01*
X35164600Y95000000D01*
X32749807Y95000000D01*
X33073334Y96626479D01*
X33994660Y98005340D01*
X35373522Y98926666D01*
X37072433Y99264600D01*
X62927567Y99264600D01*
X64626479Y98926666D01*
M02*
