G04 #@! TF.FileFunction,Legend,Top*
%FSLAX46Y46*%
G04 Gerber Fmt 4.6, Leading zero omitted, Abs format (unit mm)*
G04 Created by KiCad (PCBNEW 4.0.6) date 11/28/17 13:24:25*
%MOMM*%
%LPD*%
G01*
G04 APERTURE LIST*
%ADD10C,0.100000*%
%ADD11C,0.200000*%
%ADD12C,0.700000*%
%ADD13C,0.150000*%
%ADD14C,0.120000*%
%ADD15C,2.000000*%
%ADD16O,2.000000X2.000000*%
%ADD17R,2.000000X2.800000*%
%ADD18O,2.000000X2.800000*%
%ADD19C,1.800000*%
%ADD20R,2.100000X2.100000*%
%ADD21O,2.100000X2.100000*%
G04 APERTURE END LIST*
D10*
D11*
X31857144Y19964286D02*
X31785715Y19892857D01*
X31571429Y19821429D01*
X31428572Y19821429D01*
X31214287Y19892857D01*
X31071429Y20035714D01*
X31000001Y20178571D01*
X30928572Y20464286D01*
X30928572Y20678571D01*
X31000001Y20964286D01*
X31071429Y21107143D01*
X31214287Y21250000D01*
X31428572Y21321429D01*
X31571429Y21321429D01*
X31785715Y21250000D01*
X31857144Y21178571D01*
X32500001Y19821429D02*
X32500001Y21321429D01*
X32857144Y21321429D01*
X33071429Y21250000D01*
X33214287Y21107143D01*
X33285715Y20964286D01*
X33357144Y20678571D01*
X33357144Y20464286D01*
X33285715Y20178571D01*
X33214287Y20035714D01*
X33071429Y19892857D01*
X32857144Y19821429D01*
X32500001Y19821429D01*
X34642858Y20821429D02*
X34642858Y19821429D01*
X34285715Y21392857D02*
X33928572Y20321429D01*
X34857144Y20321429D01*
X35714286Y21321429D02*
X35857143Y21321429D01*
X36000000Y21250000D01*
X36071429Y21178571D01*
X36142858Y21035714D01*
X36214286Y20750000D01*
X36214286Y20392857D01*
X36142858Y20107143D01*
X36071429Y19964286D01*
X36000000Y19892857D01*
X35857143Y19821429D01*
X35714286Y19821429D01*
X35571429Y19892857D01*
X35500000Y19964286D01*
X35428572Y20107143D01*
X35357143Y20392857D01*
X35357143Y20750000D01*
X35428572Y21035714D01*
X35500000Y21178571D01*
X35571429Y21250000D01*
X35714286Y21321429D01*
X37571429Y21321429D02*
X36857143Y21321429D01*
X36785714Y20607143D01*
X36857143Y20678571D01*
X37000000Y20750000D01*
X37357143Y20750000D01*
X37500000Y20678571D01*
X37571429Y20607143D01*
X37642857Y20464286D01*
X37642857Y20107143D01*
X37571429Y19964286D01*
X37500000Y19892857D01*
X37357143Y19821429D01*
X37000000Y19821429D01*
X36857143Y19892857D01*
X36785714Y19964286D01*
X38142857Y21321429D02*
X39071428Y21321429D01*
X38571428Y20750000D01*
X38785714Y20750000D01*
X38928571Y20678571D01*
X39000000Y20607143D01*
X39071428Y20464286D01*
X39071428Y20107143D01*
X39000000Y19964286D01*
X38928571Y19892857D01*
X38785714Y19821429D01*
X38357142Y19821429D01*
X38214285Y19892857D01*
X38142857Y19964286D01*
D12*
X45450000Y32399999D02*
X45616667Y32233333D01*
X45783333Y31733333D01*
X45783333Y31399999D01*
X45616667Y30899999D01*
X45283333Y30566666D01*
X44950000Y30399999D01*
X44283333Y30233333D01*
X43783333Y30233333D01*
X43116667Y30399999D01*
X42783333Y30566666D01*
X42450000Y30899999D01*
X42283333Y31399999D01*
X42283333Y31733333D01*
X42450000Y32233333D01*
X42616667Y32399999D01*
X43450000Y33566666D02*
X45783333Y34399999D01*
X43450000Y35233333D02*
X45783333Y34399999D01*
X46616667Y34066666D01*
X46783333Y33899999D01*
X46950000Y33566666D01*
X45616667Y38066666D02*
X45783333Y37733333D01*
X45783333Y37066666D01*
X45616667Y36733333D01*
X45450000Y36566666D01*
X45116667Y36400000D01*
X44116667Y36400000D01*
X43783333Y36566666D01*
X43616667Y36733333D01*
X43450000Y37066666D01*
X43450000Y37733333D01*
X43616667Y38066666D01*
X45783333Y40066666D02*
X45616667Y39733333D01*
X45283333Y39566666D01*
X42283333Y39566666D01*
X45783333Y41899999D02*
X45616667Y41566666D01*
X45450000Y41399999D01*
X45116667Y41233333D01*
X44116667Y41233333D01*
X43783333Y41399999D01*
X43616667Y41566666D01*
X43450000Y41899999D01*
X43450000Y42399999D01*
X43616667Y42733333D01*
X43783333Y42899999D01*
X44116667Y43066666D01*
X45116667Y43066666D01*
X45450000Y42899999D01*
X45616667Y42733333D01*
X45783333Y42399999D01*
X45783333Y41899999D01*
X43450000Y44566666D02*
X46950000Y44566666D01*
X43616667Y44566666D02*
X43450000Y44900000D01*
X43450000Y45566666D01*
X43616667Y45900000D01*
X43783333Y46066666D01*
X44116667Y46233333D01*
X45116667Y46233333D01*
X45450000Y46066666D01*
X45616667Y45900000D01*
X45783333Y45566666D01*
X45783333Y44900000D01*
X45616667Y44566666D01*
X45616667Y47566667D02*
X45783333Y47900000D01*
X45783333Y48566667D01*
X45616667Y48900000D01*
X45283333Y49066667D01*
X45116667Y49066667D01*
X44783333Y48900000D01*
X44616667Y48566667D01*
X44616667Y48066667D01*
X44450000Y47733333D01*
X44116667Y47566667D01*
X43950000Y47566667D01*
X43616667Y47733333D01*
X43450000Y48066667D01*
X43450000Y48566667D01*
X43616667Y48900000D01*
X44450000Y50566666D02*
X44450000Y53233333D01*
X43450000Y54899999D02*
X46950000Y54899999D01*
X43616667Y54899999D02*
X43450000Y55233333D01*
X43450000Y55899999D01*
X43616667Y56233333D01*
X43783333Y56399999D01*
X44116667Y56566666D01*
X45116667Y56566666D01*
X45450000Y56399999D01*
X45616667Y56233333D01*
X45783333Y55899999D01*
X45783333Y55233333D01*
X45616667Y54899999D01*
X45783333Y58066666D02*
X43450000Y58066666D01*
X44116667Y58066666D02*
X43783333Y58233333D01*
X43616667Y58400000D01*
X43450000Y58733333D01*
X43450000Y59066666D01*
X45783333Y60733333D02*
X45616667Y60400000D01*
X45450000Y60233333D01*
X45116667Y60066667D01*
X44116667Y60066667D01*
X43783333Y60233333D01*
X43616667Y60400000D01*
X43450000Y60733333D01*
X43450000Y61233333D01*
X43616667Y61566667D01*
X43783333Y61733333D01*
X44116667Y61900000D01*
X45116667Y61900000D01*
X45450000Y61733333D01*
X45616667Y61566667D01*
X45783333Y61233333D01*
X45783333Y60733333D01*
X43450000Y63400000D02*
X46450000Y63400000D01*
X46783333Y63233334D01*
X46950000Y62900000D01*
X46950000Y62733334D01*
X42283333Y63400000D02*
X42450000Y63233334D01*
X42616667Y63400000D01*
X42450000Y63566667D01*
X42283333Y63400000D01*
X42616667Y63400000D01*
X45616667Y66400001D02*
X45783333Y66066667D01*
X45783333Y65400001D01*
X45616667Y65066667D01*
X45283333Y64900001D01*
X43950000Y64900001D01*
X43616667Y65066667D01*
X43450000Y65400001D01*
X43450000Y66066667D01*
X43616667Y66400001D01*
X43950000Y66566667D01*
X44283333Y66566667D01*
X44616667Y64900001D01*
X45616667Y69566667D02*
X45783333Y69233334D01*
X45783333Y68566667D01*
X45616667Y68233334D01*
X45450000Y68066667D01*
X45116667Y67900001D01*
X44116667Y67900001D01*
X43783333Y68066667D01*
X43616667Y68233334D01*
X43450000Y68566667D01*
X43450000Y69233334D01*
X43616667Y69566667D01*
X43450000Y70566667D02*
X43450000Y71900001D01*
X42283333Y71066667D02*
X45283333Y71066667D01*
X45616667Y71233334D01*
X45783333Y71566667D01*
X45783333Y71900001D01*
X27157143Y68361903D02*
X24490476Y67599999D01*
X26395238Y66838094D01*
X24490476Y66076189D01*
X27157143Y65314284D01*
X27157143Y64171427D02*
X24490476Y63409523D01*
X26395238Y62647618D01*
X24490476Y61885713D01*
X27157143Y61123808D01*
X27157143Y59980951D02*
X24490476Y59219047D01*
X26395238Y58457142D01*
X24490476Y57695237D01*
X27157143Y56933332D01*
X24871429Y55409523D02*
X24680952Y55219047D01*
X24490476Y55409523D01*
X24680952Y55599999D01*
X24871429Y55409523D01*
X24490476Y55409523D01*
X24490476Y52933332D02*
X24680952Y53314285D01*
X25061905Y53504761D01*
X28490476Y53504761D01*
X27157143Y51409523D02*
X24490476Y51409523D01*
X26776190Y51409523D02*
X26966667Y51219047D01*
X27157143Y50838094D01*
X27157143Y50266666D01*
X26966667Y49885714D01*
X26585714Y49695237D01*
X24490476Y49695237D01*
X24490476Y47790475D02*
X27157143Y47790475D01*
X26395238Y47790475D02*
X26776190Y47599999D01*
X26966667Y47409523D01*
X27157143Y47028570D01*
X27157143Y46647618D01*
X24680952Y43599999D02*
X24490476Y43980952D01*
X24490476Y44742856D01*
X24680952Y45123809D01*
X24871429Y45314285D01*
X25252381Y45504761D01*
X26395238Y45504761D01*
X26776190Y45314285D01*
X26966667Y45123809D01*
X27157143Y44742856D01*
X27157143Y43980952D01*
X26966667Y43599999D01*
X24871429Y41885714D02*
X24680952Y41695238D01*
X24490476Y41885714D01*
X24680952Y42076190D01*
X24871429Y41885714D01*
X24490476Y41885714D01*
X24680952Y38457143D02*
X24490476Y38838095D01*
X24490476Y39600000D01*
X24680952Y39980952D01*
X25061905Y40171428D01*
X26585714Y40171428D01*
X26966667Y39980952D01*
X27157143Y39600000D01*
X27157143Y38838095D01*
X26966667Y38457143D01*
X26585714Y38266666D01*
X26204762Y38266666D01*
X25823810Y40171428D01*
X24680952Y36742857D02*
X24490476Y36361905D01*
X24490476Y35600000D01*
X24680952Y35219048D01*
X25061905Y35028572D01*
X25252381Y35028572D01*
X25633333Y35219048D01*
X25823810Y35600000D01*
X25823810Y36171429D01*
X26014286Y36552381D01*
X26395238Y36742857D01*
X26585714Y36742857D01*
X26966667Y36552381D01*
X27157143Y36171429D01*
X27157143Y35600000D01*
X26966667Y35219048D01*
D13*
X48000000Y80000000D02*
X48000000Y10000000D01*
X22000000Y80000000D02*
X22000000Y10000000D01*
X60000000Y80000000D02*
X48000000Y80000000D01*
X10000000Y80000000D02*
X22000000Y80000000D01*
X29250000Y80000000D02*
X40750000Y80000000D01*
X29250000Y35000000D02*
G75*
G03X40750000Y35000000I5750000J0D01*
G01*
X40750000Y80000000D02*
X40750000Y35000000D01*
X29250000Y80000000D02*
X29250000Y35000000D01*
X22000000Y10000000D02*
G75*
G03X22000000Y0I0J-5000000D01*
G01*
X48000000Y10000000D02*
G75*
G02X48000000Y0I0J-5000000D01*
G01*
X22000000Y0D02*
X48000000Y0D01*
X49000000Y5000000D02*
G75*
G03X49000000Y5000000I-1000000J0D01*
G01*
X23000000Y5000000D02*
G75*
G03X23000000Y5000000I-1000000J0D01*
G01*
X10000000Y80000000D02*
G75*
G02X10000000Y100000000I0J10000000D01*
G01*
X60000000Y80000000D02*
G75*
G03X60000000Y100000000I0J10000000D01*
G01*
X10000000Y100000000D02*
X60000000Y100000000D01*
X46000000Y97250000D02*
G75*
G03X46000000Y97250000I-1000000J0D01*
G01*
X26000000Y97250000D02*
G75*
G03X26000000Y97250000I-1000000J0D01*
G01*
D14*
X45280000Y21690000D02*
X45280000Y23060000D01*
X45280000Y23060000D02*
X24720000Y23060000D01*
X24720000Y23060000D02*
X24720000Y18320000D01*
X24720000Y18320000D02*
X45280000Y18320000D01*
X45280000Y18320000D02*
X45280000Y19690000D01*
X45280000Y19690000D02*
G75*
G02X45280000Y21690000I0J1000000D01*
G01*
X43950000Y8910000D02*
X41350000Y8910000D01*
X41350000Y8910000D02*
X41350000Y6290000D01*
X41350000Y6290000D02*
X43950000Y6290000D01*
X43950000Y6290000D02*
X43950000Y8910000D01*
X43000000Y6290000D02*
X42240000Y6290000D01*
X42240000Y6290000D02*
X42240000Y290000D01*
X42240000Y290000D02*
X43000000Y290000D01*
X43000000Y290000D02*
X43000000Y6290000D01*
X43000000Y9340000D02*
X43000000Y8910000D01*
X42240000Y9340000D02*
X42240000Y8910000D01*
X42880000Y6290000D02*
X42880000Y290000D01*
X42760000Y6290000D02*
X42760000Y290000D01*
X42640000Y6290000D02*
X42640000Y290000D01*
X42520000Y6290000D02*
X42520000Y290000D01*
X42400000Y6290000D02*
X42400000Y290000D01*
X42280000Y6290000D02*
X42280000Y290000D01*
X41350000Y8910000D02*
X38810000Y8910000D01*
X38810000Y8910000D02*
X38810000Y6290000D01*
X38810000Y6290000D02*
X41350000Y6290000D01*
X41350000Y6290000D02*
X41350000Y8910000D01*
X40460000Y6290000D02*
X39700000Y6290000D01*
X39700000Y6290000D02*
X39700000Y290000D01*
X39700000Y290000D02*
X40460000Y290000D01*
X40460000Y290000D02*
X40460000Y6290000D01*
X40460000Y9340000D02*
X40460000Y8910000D01*
X39700000Y9340000D02*
X39700000Y8910000D01*
X38810000Y8910000D02*
X36270000Y8910000D01*
X36270000Y8910000D02*
X36270000Y6290000D01*
X36270000Y6290000D02*
X38810000Y6290000D01*
X38810000Y6290000D02*
X38810000Y8910000D01*
X37920000Y6290000D02*
X37160000Y6290000D01*
X37160000Y6290000D02*
X37160000Y290000D01*
X37160000Y290000D02*
X37920000Y290000D01*
X37920000Y290000D02*
X37920000Y6290000D01*
X37920000Y9340000D02*
X37920000Y8910000D01*
X37160000Y9340000D02*
X37160000Y8910000D01*
X36270000Y8910000D02*
X33730000Y8910000D01*
X33730000Y8910000D02*
X33730000Y6290000D01*
X33730000Y6290000D02*
X36270000Y6290000D01*
X36270000Y6290000D02*
X36270000Y8910000D01*
X35380000Y6290000D02*
X34620000Y6290000D01*
X34620000Y6290000D02*
X34620000Y290000D01*
X34620000Y290000D02*
X35380000Y290000D01*
X35380000Y290000D02*
X35380000Y6290000D01*
X35380000Y9340000D02*
X35380000Y8910000D01*
X34620000Y9340000D02*
X34620000Y8910000D01*
X33730000Y8910000D02*
X31190000Y8910000D01*
X31190000Y8910000D02*
X31190000Y6290000D01*
X31190000Y6290000D02*
X33730000Y6290000D01*
X33730000Y6290000D02*
X33730000Y8910000D01*
X32840000Y6290000D02*
X32080000Y6290000D01*
X32080000Y6290000D02*
X32080000Y290000D01*
X32080000Y290000D02*
X32840000Y290000D01*
X32840000Y290000D02*
X32840000Y6290000D01*
X32840000Y9340000D02*
X32840000Y8910000D01*
X32080000Y9340000D02*
X32080000Y8910000D01*
X31190000Y8910000D02*
X28650000Y8910000D01*
X28650000Y8910000D02*
X28650000Y6290000D01*
X28650000Y6290000D02*
X31190000Y6290000D01*
X31190000Y6290000D02*
X31190000Y8910000D01*
X30300000Y6290000D02*
X29540000Y6290000D01*
X29540000Y6290000D02*
X29540000Y290000D01*
X29540000Y290000D02*
X30300000Y290000D01*
X30300000Y290000D02*
X30300000Y6290000D01*
X30300000Y9340000D02*
X30300000Y8910000D01*
X29540000Y9340000D02*
X29540000Y8910000D01*
X28650000Y8910000D02*
X26050000Y8910000D01*
X26050000Y8910000D02*
X26050000Y6290000D01*
X26050000Y6290000D02*
X28650000Y6290000D01*
X28650000Y6290000D02*
X28650000Y8910000D01*
X27760000Y6290000D02*
X27000000Y6290000D01*
X27000000Y6290000D02*
X27000000Y290000D01*
X27000000Y290000D02*
X27760000Y290000D01*
X27760000Y290000D02*
X27760000Y6290000D01*
X27760000Y9340000D02*
X27760000Y8910000D01*
X27000000Y9340000D02*
X27000000Y8910000D01*
X42620000Y11520000D02*
X43890000Y11520000D01*
X43890000Y11520000D02*
X43890000Y10250000D01*
D11*
X45842857Y19775714D02*
X46814286Y19775714D01*
X46928571Y19832857D01*
X46985714Y19890000D01*
X47042857Y20004286D01*
X47042857Y20232857D01*
X46985714Y20347143D01*
X46928571Y20404286D01*
X46814286Y20461429D01*
X45842857Y20461429D01*
X45842857Y20918572D02*
X45842857Y21718572D01*
X47042857Y21204286D01*
D13*
X44342381Y5601667D02*
X45056667Y5601667D01*
X45199524Y5554047D01*
X45294762Y5458809D01*
X45342381Y5315952D01*
X45342381Y5220714D01*
X45342381Y6601667D02*
X45342381Y6030238D01*
X45342381Y6315952D02*
X44342381Y6315952D01*
X44485238Y6220714D01*
X44580476Y6125476D01*
X44628095Y6030238D01*
%LPC*%
D15*
X10000000Y96000000D03*
D16*
X20160000Y96000000D03*
D15*
X19500000Y83750000D03*
D16*
X9340000Y83750000D03*
D15*
X24250000Y74750000D03*
D16*
X24250000Y84910000D03*
D15*
X30000000Y96000000D03*
D16*
X40160000Y96000000D03*
D15*
X27500000Y83750000D03*
D16*
X37660000Y83750000D03*
D15*
X42500000Y74750000D03*
D16*
X42500000Y84910000D03*
D15*
X49750000Y96000000D03*
D16*
X59910000Y96000000D03*
D15*
X46250000Y74750000D03*
D16*
X46250000Y84910000D03*
D15*
X51250000Y83750000D03*
D16*
X61410000Y83750000D03*
D17*
X43890000Y24500000D03*
D18*
X26110000Y16880000D03*
X41350000Y24500000D03*
X28650000Y16880000D03*
X38810000Y24500000D03*
X31190000Y16880000D03*
X36270000Y24500000D03*
X33730000Y16880000D03*
X33730000Y24500000D03*
X36270000Y16880000D03*
X31190000Y24500000D03*
X38810000Y16880000D03*
X28650000Y24500000D03*
X41350000Y16880000D03*
X26110000Y24500000D03*
X43890000Y16880000D03*
D19*
X58600000Y91400000D03*
X61400000Y91400000D03*
X58600000Y88600000D03*
X61400000Y88600000D03*
X48600000Y91400000D03*
X51400000Y91400000D03*
X48600000Y88600000D03*
X51400000Y88600000D03*
X38600000Y91400000D03*
X41400000Y91400000D03*
X38600000Y88600000D03*
X41400000Y88600000D03*
X28600000Y91400000D03*
X31400000Y91400000D03*
X28600000Y88600000D03*
X31400000Y88600000D03*
X18600000Y91400000D03*
X21400000Y91400000D03*
X18600000Y88600000D03*
X21400000Y88600000D03*
X8600000Y91400000D03*
X11400000Y91400000D03*
X8600000Y88600000D03*
X11400000Y88600000D03*
D20*
X42620000Y10250000D03*
D21*
X40080000Y10250000D03*
X37540000Y10250000D03*
X35000000Y10250000D03*
X32460000Y10250000D03*
X29920000Y10250000D03*
X27380000Y10250000D03*
M02*
