M48
;DRILL file {KiCad 4.0.7} date 07/12/18 18:51:41
;FORMAT={-:-/ absolute / metric / decimal}
FMAT,2
METRIC,TZ
T1C0.400
T2C0.800
T3C1.000
%
G90
G05
M71
T1
X4.75Y92.8
X11.85Y81.
X14.95Y85.5
X15.05Y95.5
X22.75Y80.9
X23.65Y71.3
X23.75Y54.
X23.75Y33.
X24.35Y20.8
X24.55Y12.9
X25.05Y93.
X26.65Y5.2
X30.95Y22.
X32.75Y84.5
X33.05Y81.8
X33.75Y21.9
X35.05Y95.3
X35.15Y5.1
X40.95Y81.8
X42.75Y5.
X44.85Y93.1
X45.Y31.25
X45.85Y14.3
X45.95Y18.5
X46.55Y82.5
X55.05Y94.5
X55.65Y84.9
T2
X8.6Y91.4
X8.6Y88.6
X9.34Y83.75
X10.Y96.
X11.4Y91.4
X11.4Y88.6
X18.6Y91.4
X18.6Y88.6
X19.5Y83.75
X20.16Y96.
X21.4Y91.4
X21.4Y88.6
X24.25Y84.91
X24.25Y74.75
X26.11Y24.5
X26.11Y16.88
X27.5Y83.75
X28.6Y91.4
X28.6Y88.6
X28.65Y24.5
X28.65Y16.88
X30.Y96.
X31.19Y24.5
X31.19Y16.88
X31.4Y91.4
X31.4Y88.6
X33.73Y24.5
X33.73Y16.88
X36.27Y24.5
X36.27Y16.88
X37.66Y83.75
X38.6Y91.4
X38.6Y88.6
X38.81Y24.5
X38.81Y16.88
X40.16Y96.
X41.35Y24.5
X41.35Y16.88
X41.4Y91.4
X41.4Y88.6
X42.5Y84.91
X42.5Y74.75
X43.89Y24.5
X43.89Y16.88
X46.25Y84.91
X46.25Y74.75
X48.6Y91.4
X48.6Y88.6
X49.75Y96.
X51.25Y83.75
X51.4Y91.4
X51.4Y88.6
X58.6Y91.4
X58.6Y88.6
X59.91Y96.
X61.4Y91.4
X61.4Y88.6
X61.41Y83.75
T3
X27.38Y10.25
X29.92Y10.25
X32.46Y10.25
X35.Y10.25
X37.54Y10.25
X40.08Y10.25
X42.62Y10.25
T0
M30
