M48
;DRILL file {KiCad 4.0.6} date 08/31/17 12:51:20
;FORMAT={-:-/ absolute / inch / decimal}
FMAT,2
INCH,TZ
T1C0.016
T2C0.031
T3C0.039
%
G90
G05
M72
T1
X0.187Y3.6535
X0.4665Y3.189
X0.5886Y3.3661
X0.5925Y3.7598
X0.8957Y3.185
X0.9311Y2.8071
X0.935Y2.126
X0.935Y1.2992
X0.9587Y0.8189
X0.9665Y0.5079
X0.9862Y3.6614
X1.0492Y0.2047
X1.2185Y0.8661
X1.2894Y3.3268
X1.3012Y3.2205
X1.3287Y0.8622
X1.3799Y3.752
X1.3839Y0.2008
X1.6122Y3.2205
X1.6831Y0.1969
X1.7657Y3.6654
X1.7717Y1.2303
X1.8051Y0.563
X1.8091Y0.7283
X1.8327Y3.248
X2.1673Y3.7205
X2.1909Y3.3425
T2
X0.3386Y3.5984
X0.3386Y3.4882
X0.3677Y3.2972
X0.3937Y3.7795
X0.4488Y3.5984
X0.4488Y3.4882
X0.7323Y3.5984
X0.7323Y3.4882
X0.7677Y3.2972
X0.7937Y3.7795
X0.8425Y3.5984
X0.8425Y3.4882
X0.9547Y3.3429
X0.9547Y2.9429
X1.028Y0.9646
X1.028Y0.6646
X1.0827Y3.2972
X1.126Y3.5984
X1.126Y3.4882
X1.128Y0.9646
X1.128Y0.6646
X1.1811Y3.7795
X1.228Y0.9646
X1.228Y0.6646
X1.2362Y3.5984
X1.2362Y3.4882
X1.328Y0.9646
X1.328Y0.6646
X1.428Y0.9646
X1.428Y0.6646
X1.4827Y3.2972
X1.5197Y3.5984
X1.5197Y3.4882
X1.528Y0.9646
X1.528Y0.6646
X1.5811Y3.7795
X1.628Y0.9646
X1.628Y0.6646
X1.6299Y3.5984
X1.6299Y3.4882
X1.6732Y3.3429
X1.6732Y2.9429
X1.728Y0.9646
X1.728Y0.6646
X1.8209Y3.3429
X1.8209Y2.9429
X1.9134Y3.5984
X1.9134Y3.4882
X1.9587Y3.7795
X2.0177Y3.2972
X2.0236Y3.5984
X2.0236Y3.4882
X2.3071Y3.5984
X2.3071Y3.4882
X2.3587Y3.7795
X2.4173Y3.5984
X2.4173Y3.4882
X2.4177Y3.2972
T3
X1.078Y0.4035
X1.178Y0.4035
X1.278Y0.4035
X1.378Y0.4035
X1.478Y0.4035
X1.578Y0.4035
X1.678Y0.4035
T0
M30
