G04 #@! TF.FileFunction,Copper,L1,Top,Signal*
%FSLAX46Y46*%
G04 Gerber Fmt 4.6, Leading zero omitted, Abs format (unit mm)*
G04 Created by KiCad (PCBNEW 4.0.6) date 07/01/17 21:38:31*
%MOMM*%
%LPD*%
G01*
G04 APERTURE LIST*
%ADD10C,0.100000*%
%ADD11C,0.150000*%
%ADD12C,1.600000*%
%ADD13O,1.600000X1.600000*%
%ADD14R,1.600000X2.400000*%
%ADD15O,1.600000X2.400000*%
%ADD16C,1.400000*%
%ADD17R,1.700000X1.700000*%
%ADD18O,1.700000X1.700000*%
%ADD19C,0.600000*%
%ADD20C,0.500000*%
%ADD21C,0.304800*%
G04 APERTURE END LIST*
D10*
D11*
X48000000Y80000000D02*
X48000000Y10000000D01*
X22000000Y80000000D02*
X22000000Y10000000D01*
X60000000Y80000000D02*
X48000000Y80000000D01*
X10000000Y80000000D02*
X22000000Y80000000D01*
X29250000Y80000000D02*
X40750000Y80000000D01*
X29250000Y35000000D02*
G75*
G03X40750000Y35000000I5750000J0D01*
G01*
X40750000Y80000000D02*
X40750000Y35000000D01*
X29250000Y80000000D02*
X29250000Y35000000D01*
X22000000Y10000000D02*
G75*
G03X22000000Y0I0J-5000000D01*
G01*
X48000000Y10000000D02*
G75*
G02X48000000Y0I0J-5000000D01*
G01*
X22000000Y0D02*
X48000000Y0D01*
X49000000Y5000000D02*
G75*
G03X49000000Y5000000I-1000000J0D01*
G01*
X23000000Y5000000D02*
G75*
G03X23000000Y5000000I-1000000J0D01*
G01*
X10000000Y80000000D02*
G75*
G02X10000000Y100000000I0J10000000D01*
G01*
X60000000Y80000000D02*
G75*
G03X60000000Y100000000I0J10000000D01*
G01*
X10000000Y100000000D02*
X60000000Y100000000D01*
X46000000Y97250000D02*
G75*
G03X46000000Y97250000I-1000000J0D01*
G01*
X26000000Y97250000D02*
G75*
G03X26000000Y97250000I-1000000J0D01*
G01*
D12*
X10000000Y96000000D03*
D13*
X20160000Y96000000D03*
D12*
X19500000Y83750000D03*
D13*
X9340000Y83750000D03*
D12*
X24250000Y74750000D03*
D13*
X24250000Y84910000D03*
D12*
X30000000Y96000000D03*
D13*
X40160000Y96000000D03*
D12*
X27500000Y83750000D03*
D13*
X37660000Y83750000D03*
D12*
X42500000Y74750000D03*
D13*
X42500000Y84910000D03*
D12*
X49750000Y96000000D03*
D13*
X59910000Y96000000D03*
D12*
X46250000Y74750000D03*
D13*
X46250000Y84910000D03*
D12*
X51250000Y83750000D03*
D13*
X61410000Y83750000D03*
D14*
X43890000Y24500000D03*
D15*
X26110000Y16880000D03*
X41350000Y24500000D03*
X28650000Y16880000D03*
X38810000Y24500000D03*
X31190000Y16880000D03*
X36270000Y24500000D03*
X33730000Y16880000D03*
X33730000Y24500000D03*
X36270000Y16880000D03*
X31190000Y24500000D03*
X38810000Y16880000D03*
X28650000Y24500000D03*
X41350000Y16880000D03*
X26110000Y24500000D03*
X43890000Y16880000D03*
D16*
X58600000Y91400000D03*
X61400000Y91400000D03*
X58600000Y88600000D03*
X61400000Y88600000D03*
X48600000Y91400000D03*
X51400000Y91400000D03*
X48600000Y88600000D03*
X51400000Y88600000D03*
X38600000Y91400000D03*
X41400000Y91400000D03*
X38600000Y88600000D03*
X41400000Y88600000D03*
X28600000Y91400000D03*
X31400000Y91400000D03*
X28600000Y88600000D03*
X31400000Y88600000D03*
X18600000Y91400000D03*
X21400000Y91400000D03*
X18600000Y88600000D03*
X21400000Y88600000D03*
X8600000Y91400000D03*
X11400000Y91400000D03*
X8600000Y88600000D03*
X11400000Y88600000D03*
D17*
X42620000Y10250000D03*
D18*
X40080000Y10250000D03*
X37540000Y10250000D03*
X35000000Y10250000D03*
X32460000Y10250000D03*
X29920000Y10250000D03*
X27380000Y10250000D03*
D19*
X55650000Y84900000D03*
X55050000Y94500000D03*
X46550000Y82500000D03*
X40950000Y81800000D03*
X33050000Y81800000D03*
X44850000Y93100000D03*
X35050000Y95300000D03*
X25050000Y93000000D03*
X15050000Y95500000D03*
X4750000Y92800000D03*
X14950000Y85500000D03*
X22750000Y80900000D03*
X11850000Y81000000D03*
X23650000Y71300000D03*
X23750000Y54000000D03*
X23750000Y33000000D03*
X24350000Y20800000D03*
X24550000Y12900000D03*
X26650000Y5200000D03*
X35150000Y5100000D03*
X42750000Y5000000D03*
X30950000Y22000000D03*
X33750000Y21900000D03*
X45950000Y18500000D03*
X45850000Y14300000D03*
X32750000Y84500000D03*
X45000000Y31250000D03*
D20*
X43890000Y16880000D02*
X43890000Y11520000D01*
X43890000Y11520000D02*
X42620000Y10250000D01*
X43890000Y16880000D02*
X43890000Y18480000D01*
X43890000Y18480000D02*
X46250000Y20840000D01*
X46250000Y20840000D02*
X46250000Y74750000D01*
X50000000Y89500000D02*
X50000000Y83750000D01*
X50000000Y83750000D02*
X50000000Y83500000D01*
X51250000Y83750000D02*
X50000000Y83750000D01*
X48500000Y90000000D02*
X49500000Y90000000D01*
X49500000Y90000000D02*
X50000000Y89500000D01*
X50000000Y83500000D02*
X46250000Y79750000D01*
X46250000Y79750000D02*
X46250000Y74750000D01*
X42500000Y74750000D02*
X46250000Y74750000D01*
X10000000Y90000000D02*
X26500000Y90000000D01*
X26500000Y90000000D02*
X28750000Y90000000D01*
X27500000Y83750000D02*
X27500000Y84881370D01*
X27500000Y84881370D02*
X26500000Y85881370D01*
X26500000Y85881370D02*
X26500000Y90000000D01*
X20299999Y82950001D02*
X24250000Y82950001D01*
X24250000Y82950001D02*
X26700001Y82950001D01*
X24250000Y74750000D02*
X24250000Y82950001D01*
X19500000Y83750000D02*
X20299999Y82950001D01*
X26700001Y82950001D02*
X27500000Y83750000D01*
X28750000Y90000000D02*
X48500000Y90000000D01*
X28600000Y91400000D02*
X28600000Y90150000D01*
X28600000Y90150000D02*
X28750000Y90000000D01*
X48600000Y90100000D02*
X48500000Y90000000D01*
X48600000Y91400000D02*
X48600000Y90100000D01*
X8600000Y91400000D02*
X10000000Y90000000D01*
X58600000Y88600000D02*
X58600000Y87850000D01*
X58600000Y87850000D02*
X55650000Y84900000D01*
X40950000Y81800000D02*
X45850000Y81800000D01*
X45850000Y81800000D02*
X46550000Y82500000D01*
X28600000Y88600000D02*
X28600000Y86250000D01*
X28600000Y86250000D02*
X33050000Y81800000D01*
X18600000Y88600000D02*
X18050000Y88600000D01*
X18050000Y88600000D02*
X14950000Y85500000D01*
X8600000Y88600000D02*
X11850000Y85350000D01*
X11850000Y85350000D02*
X11850000Y81000000D01*
X23750000Y54000000D02*
X23750000Y71200000D01*
X23750000Y71200000D02*
X23650000Y71300000D01*
X24350000Y20800000D02*
X23750000Y21400000D01*
X23750000Y21400000D02*
X23750000Y33000000D01*
X26650000Y5200000D02*
X24550000Y7300000D01*
X24550000Y7300000D02*
X24550000Y12900000D01*
X42750000Y5000000D02*
X35250000Y5000000D01*
X35250000Y5000000D02*
X35150000Y5100000D01*
X33750000Y21900000D02*
X31050000Y21900000D01*
X31050000Y21900000D02*
X30950000Y22000000D01*
X45850000Y14300000D02*
X45850000Y18400000D01*
X45850000Y18400000D02*
X45950000Y18500000D01*
D21*
X41350000Y16880000D02*
X41350000Y16480000D01*
X41350000Y16480000D02*
X35120000Y10250000D01*
X35120000Y10250000D02*
X35000000Y10250000D01*
X41350000Y16600000D02*
X41350000Y16880000D01*
X35000000Y21725200D02*
X35000000Y12790000D01*
X35000000Y12790000D02*
X32460000Y10250000D01*
X36270000Y24500000D02*
X36270000Y22995200D01*
X36270000Y22995200D02*
X35000000Y21725200D01*
X34750000Y86500000D02*
X44660000Y86500000D01*
X44660000Y86500000D02*
X46250000Y84910000D01*
X32750000Y84500000D02*
X34750000Y86500000D01*
X38810000Y24500000D02*
X38810000Y24900000D01*
X38810000Y24900000D02*
X45000000Y31090000D01*
X45000000Y31090000D02*
X45000000Y31250000D01*
G36*
X63539894Y98546064D02*
X66540874Y96540874D01*
X68546064Y93539893D01*
X69250192Y90000000D01*
X68546064Y86460107D01*
X66540874Y83459126D01*
X63539894Y81453936D01*
X59927572Y80735400D01*
X48522900Y80735400D01*
X50360966Y82573466D01*
X50421670Y82512655D01*
X50958234Y82289854D01*
X51539217Y82289347D01*
X52076169Y82511211D01*
X52487345Y82921670D01*
X52710146Y83458234D01*
X52710400Y83750000D01*
X59920989Y83750000D01*
X60032155Y83191129D01*
X60348730Y82717341D01*
X60822518Y82400766D01*
X61381389Y82289600D01*
X61438611Y82289600D01*
X61997482Y82400766D01*
X62471270Y82717341D01*
X62787845Y83191129D01*
X62899011Y83750000D01*
X62787845Y84308871D01*
X62471270Y84782659D01*
X61997482Y85099234D01*
X61438611Y85210400D01*
X61381389Y85210400D01*
X60822518Y85099234D01*
X60348730Y84782659D01*
X60032155Y84308871D01*
X59920989Y83750000D01*
X52710400Y83750000D01*
X52710653Y84039217D01*
X52488789Y84576169D01*
X52078330Y84987345D01*
X51541766Y85210146D01*
X50960783Y85210653D01*
X50910400Y85189835D01*
X50910400Y87330280D01*
X51128213Y87239836D01*
X51669413Y87239364D01*
X52169598Y87446036D01*
X52391047Y87667099D01*
X57810783Y87667099D01*
X57869098Y87421147D01*
X58375862Y87231178D01*
X58916749Y87249599D01*
X59330902Y87421147D01*
X59389217Y87667099D01*
X58600000Y88456316D01*
X57810783Y87667099D01*
X52391047Y87667099D01*
X52552619Y87828389D01*
X52760164Y88328213D01*
X52760596Y88824138D01*
X57231178Y88824138D01*
X57249599Y88283251D01*
X57421147Y87869098D01*
X57667099Y87810783D01*
X58456316Y88600000D01*
X58743684Y88600000D01*
X59532901Y87810783D01*
X59778853Y87869098D01*
X59951849Y88330587D01*
X60039364Y88330587D01*
X60246036Y87830402D01*
X60628389Y87447381D01*
X61128213Y87239836D01*
X61669413Y87239364D01*
X62169598Y87446036D01*
X62552619Y87828389D01*
X62760164Y88328213D01*
X62760636Y88869413D01*
X62553964Y89369598D01*
X62171611Y89752619D01*
X61671787Y89960164D01*
X61130587Y89960636D01*
X60630402Y89753964D01*
X60247381Y89371611D01*
X60039836Y88871787D01*
X60039364Y88330587D01*
X59951849Y88330587D01*
X59968822Y88375862D01*
X59950401Y88916749D01*
X59778853Y89330902D01*
X59532901Y89389217D01*
X58743684Y88600000D01*
X58456316Y88600000D01*
X57667099Y89389217D01*
X57421147Y89330902D01*
X57231178Y88824138D01*
X52760596Y88824138D01*
X52760636Y88869413D01*
X52553964Y89369598D01*
X52390946Y89532901D01*
X57810783Y89532901D01*
X58600000Y88743684D01*
X59389217Y89532901D01*
X59330902Y89778853D01*
X58824138Y89968822D01*
X58283251Y89950401D01*
X57869098Y89778853D01*
X57810783Y89532901D01*
X52390946Y89532901D01*
X52171611Y89752619D01*
X51671787Y89960164D01*
X51130587Y89960636D01*
X50842455Y89841582D01*
X50841100Y89848395D01*
X50643750Y90143750D01*
X50143750Y90643750D01*
X49848395Y90841100D01*
X49841513Y90842469D01*
X49960164Y91128213D01*
X49960166Y91130587D01*
X50039364Y91130587D01*
X50246036Y90630402D01*
X50628389Y90247381D01*
X51128213Y90039836D01*
X51669413Y90039364D01*
X52169598Y90246036D01*
X52552619Y90628389D01*
X52760164Y91128213D01*
X52760166Y91130587D01*
X57239364Y91130587D01*
X57446036Y90630402D01*
X57828389Y90247381D01*
X58328213Y90039836D01*
X58869413Y90039364D01*
X59369598Y90246036D01*
X59591047Y90467099D01*
X60610783Y90467099D01*
X60669098Y90221147D01*
X61175862Y90031178D01*
X61716749Y90049599D01*
X62130902Y90221147D01*
X62189217Y90467099D01*
X61400000Y91256316D01*
X60610783Y90467099D01*
X59591047Y90467099D01*
X59752619Y90628389D01*
X59960164Y91128213D01*
X59960596Y91624138D01*
X60031178Y91624138D01*
X60049599Y91083251D01*
X60221147Y90669098D01*
X60467099Y90610783D01*
X61256316Y91400000D01*
X61543684Y91400000D01*
X62332901Y90610783D01*
X62578853Y90669098D01*
X62768822Y91175862D01*
X62750401Y91716749D01*
X62578853Y92130902D01*
X62332901Y92189217D01*
X61543684Y91400000D01*
X61256316Y91400000D01*
X60467099Y92189217D01*
X60221147Y92130902D01*
X60031178Y91624138D01*
X59960596Y91624138D01*
X59960636Y91669413D01*
X59753964Y92169598D01*
X59590946Y92332901D01*
X60610783Y92332901D01*
X61400000Y91543684D01*
X62189217Y92332901D01*
X62130902Y92578853D01*
X61624138Y92768822D01*
X61083251Y92750401D01*
X60669098Y92578853D01*
X60610783Y92332901D01*
X59590946Y92332901D01*
X59371611Y92552619D01*
X58871787Y92760164D01*
X58330587Y92760636D01*
X57830402Y92553964D01*
X57447381Y92171611D01*
X57239836Y91671787D01*
X57239364Y91130587D01*
X52760166Y91130587D01*
X52760636Y91669413D01*
X52553964Y92169598D01*
X52171611Y92552619D01*
X51671787Y92760164D01*
X51130587Y92760636D01*
X50630402Y92553964D01*
X50247381Y92171611D01*
X50039836Y91671787D01*
X50039364Y91130587D01*
X49960166Y91130587D01*
X49960636Y91669413D01*
X49753964Y92169598D01*
X49371611Y92552619D01*
X48871787Y92760164D01*
X48330587Y92760636D01*
X47830402Y92553964D01*
X47447381Y92171611D01*
X47239836Y91671787D01*
X47239364Y91130587D01*
X47330343Y90910400D01*
X42669309Y90910400D01*
X42768822Y91175862D01*
X42750401Y91716749D01*
X42578853Y92130902D01*
X42332901Y92189217D01*
X41543684Y91400000D01*
X41557827Y91385857D01*
X41414143Y91242173D01*
X41400000Y91256316D01*
X41385858Y91242173D01*
X41242174Y91385857D01*
X41256316Y91400000D01*
X40467099Y92189217D01*
X40221147Y92130902D01*
X40031178Y91624138D01*
X40049599Y91083251D01*
X40121196Y90910400D01*
X39869720Y90910400D01*
X39960164Y91128213D01*
X39960636Y91669413D01*
X39753964Y92169598D01*
X39590946Y92332901D01*
X40610783Y92332901D01*
X41400000Y91543684D01*
X42189217Y92332901D01*
X42130902Y92578853D01*
X41624138Y92768822D01*
X41083251Y92750401D01*
X40669098Y92578853D01*
X40610783Y92332901D01*
X39590946Y92332901D01*
X39371611Y92552619D01*
X38871787Y92760164D01*
X38330587Y92760636D01*
X37830402Y92553964D01*
X37447381Y92171611D01*
X37239836Y91671787D01*
X37239364Y91130587D01*
X37330343Y90910400D01*
X32669720Y90910400D01*
X32760164Y91128213D01*
X32760636Y91669413D01*
X32553964Y92169598D01*
X32171611Y92552619D01*
X31671787Y92760164D01*
X31130587Y92760636D01*
X30630402Y92553964D01*
X30247381Y92171611D01*
X30039836Y91671787D01*
X30039364Y91130587D01*
X30130343Y90910400D01*
X29869720Y90910400D01*
X29960164Y91128213D01*
X29960636Y91669413D01*
X29753964Y92169598D01*
X29371611Y92552619D01*
X28871787Y92760164D01*
X28330587Y92760636D01*
X27830402Y92553964D01*
X27447381Y92171611D01*
X27239836Y91671787D01*
X27239364Y91130587D01*
X27330343Y90910400D01*
X22669309Y90910400D01*
X22768822Y91175862D01*
X22750401Y91716749D01*
X22578853Y92130902D01*
X22332901Y92189217D01*
X21543684Y91400000D01*
X21557827Y91385857D01*
X21414143Y91242173D01*
X21400000Y91256316D01*
X21385858Y91242173D01*
X21242174Y91385857D01*
X21256316Y91400000D01*
X20467099Y92189217D01*
X20221147Y92130902D01*
X20031178Y91624138D01*
X20049599Y91083251D01*
X20121196Y90910400D01*
X19869720Y90910400D01*
X19960164Y91128213D01*
X19960636Y91669413D01*
X19753964Y92169598D01*
X19590946Y92332901D01*
X20610783Y92332901D01*
X21400000Y91543684D01*
X22189217Y92332901D01*
X22130902Y92578853D01*
X21624138Y92768822D01*
X21083251Y92750401D01*
X20669098Y92578853D01*
X20610783Y92332901D01*
X19590946Y92332901D01*
X19371611Y92552619D01*
X18871787Y92760164D01*
X18330587Y92760636D01*
X17830402Y92553964D01*
X17447381Y92171611D01*
X17239836Y91671787D01*
X17239364Y91130587D01*
X17330343Y90910400D01*
X12669720Y90910400D01*
X12760164Y91128213D01*
X12760636Y91669413D01*
X12553964Y92169598D01*
X12171611Y92552619D01*
X11671787Y92760164D01*
X11130587Y92760636D01*
X10630402Y92553964D01*
X10247381Y92171611D01*
X10039836Y91671787D01*
X10039466Y91248034D01*
X9960338Y91327162D01*
X9960636Y91669413D01*
X9753964Y92169598D01*
X9371611Y92552619D01*
X8871787Y92760164D01*
X8330587Y92760636D01*
X7830402Y92553964D01*
X7447381Y92171611D01*
X7239836Y91671787D01*
X7239364Y91130587D01*
X7446036Y90630402D01*
X7828389Y90247381D01*
X8328213Y90039836D01*
X8672965Y90039535D01*
X8746328Y89966172D01*
X8283251Y89950401D01*
X7869098Y89778853D01*
X7810783Y89532901D01*
X8600000Y88743684D01*
X8614143Y88757826D01*
X8757827Y88614142D01*
X8743684Y88600000D01*
X9532901Y87810783D01*
X9778853Y87869098D01*
X9968822Y88375862D01*
X9950401Y88916749D01*
X9867921Y89115872D01*
X10000000Y89089600D01*
X10130280Y89089600D01*
X10039836Y88871787D01*
X10039364Y88330587D01*
X10246036Y87830402D01*
X10628389Y87447381D01*
X11128213Y87239836D01*
X11669413Y87239364D01*
X12169598Y87446036D01*
X12391047Y87667099D01*
X17810783Y87667099D01*
X17869098Y87421147D01*
X18375862Y87231178D01*
X18916749Y87249599D01*
X19330902Y87421147D01*
X19389217Y87667099D01*
X18600000Y88456316D01*
X17810783Y87667099D01*
X12391047Y87667099D01*
X12552619Y87828389D01*
X12760164Y88328213D01*
X12760636Y88869413D01*
X12669657Y89089600D01*
X17330691Y89089600D01*
X17231178Y88824138D01*
X17249599Y88283251D01*
X17421147Y87869098D01*
X17667099Y87810783D01*
X18456316Y88600000D01*
X18442174Y88614142D01*
X18585858Y88757826D01*
X18600000Y88743684D01*
X18614143Y88757826D01*
X18757827Y88614142D01*
X18743684Y88600000D01*
X19532901Y87810783D01*
X19778853Y87869098D01*
X19968822Y88375862D01*
X19950401Y88916749D01*
X19878804Y89089600D01*
X20130280Y89089600D01*
X20039836Y88871787D01*
X20039364Y88330587D01*
X20246036Y87830402D01*
X20628389Y87447381D01*
X21128213Y87239836D01*
X21669413Y87239364D01*
X22169598Y87446036D01*
X22552619Y87828389D01*
X22760164Y88328213D01*
X22760636Y88869413D01*
X22669657Y89089600D01*
X25589600Y89089600D01*
X25589600Y85881370D01*
X25658900Y85532975D01*
X25856250Y85237620D01*
X26389208Y84704662D01*
X26262655Y84578330D01*
X26039854Y84041766D01*
X26039696Y83860401D01*
X25290457Y83860401D01*
X25599234Y84322518D01*
X25710400Y84881389D01*
X25710400Y84938611D01*
X25599234Y85497482D01*
X25282659Y85971270D01*
X24808871Y86287845D01*
X24250000Y86399011D01*
X23691129Y86287845D01*
X23217341Y85971270D01*
X22900766Y85497482D01*
X22789600Y84938611D01*
X22789600Y84881389D01*
X22900766Y84322518D01*
X23209543Y83860401D01*
X20960497Y83860401D01*
X20960653Y84039217D01*
X20738789Y84576169D01*
X20328330Y84987345D01*
X19791766Y85210146D01*
X19210783Y85210653D01*
X18673831Y84988789D01*
X18262655Y84578330D01*
X18039854Y84041766D01*
X18039347Y83460783D01*
X18261211Y82923831D01*
X18671670Y82512655D01*
X19208234Y82289854D01*
X19681407Y82289441D01*
X19951604Y82108901D01*
X20299999Y82039601D01*
X23339600Y82039601D01*
X23339600Y75904705D01*
X23012655Y75578330D01*
X22789854Y75041766D01*
X22789347Y74460783D01*
X23011211Y73923831D01*
X23421670Y73512655D01*
X23958234Y73289854D01*
X24539217Y73289347D01*
X25076169Y73511211D01*
X25487345Y73921670D01*
X25710146Y74458234D01*
X25710653Y75039217D01*
X25488789Y75576169D01*
X25160400Y75905132D01*
X25160400Y82039601D01*
X26700001Y82039601D01*
X27048396Y82108901D01*
X27319066Y82289757D01*
X27789217Y82289347D01*
X28326169Y82511211D01*
X28737345Y82921670D01*
X28960146Y83458234D01*
X28960653Y84039217D01*
X28738789Y84576169D01*
X28404497Y84911045D01*
X28341100Y85229765D01*
X28143750Y85525120D01*
X27410400Y86258470D01*
X27410400Y87667099D01*
X27810783Y87667099D01*
X27869098Y87421147D01*
X28375862Y87231178D01*
X28916749Y87249599D01*
X29330902Y87421147D01*
X29389217Y87667099D01*
X28600000Y88456316D01*
X27810783Y87667099D01*
X27410400Y87667099D01*
X27410400Y87895044D01*
X27421147Y87869098D01*
X27667099Y87810783D01*
X28456316Y88600000D01*
X28442174Y88614142D01*
X28585858Y88757826D01*
X28600000Y88743684D01*
X28614143Y88757826D01*
X28757827Y88614142D01*
X28743684Y88600000D01*
X29532901Y87810783D01*
X29778853Y87869098D01*
X29968822Y88375862D01*
X29950401Y88916749D01*
X29878804Y89089600D01*
X30130280Y89089600D01*
X30039836Y88871787D01*
X30039364Y88330587D01*
X30246036Y87830402D01*
X30628389Y87447381D01*
X31128213Y87239836D01*
X31669413Y87239364D01*
X32169598Y87446036D01*
X32552619Y87828389D01*
X32760164Y88328213D01*
X32760636Y88869413D01*
X32669657Y89089600D01*
X37330691Y89089600D01*
X37231178Y88824138D01*
X37249599Y88283251D01*
X37421147Y87869098D01*
X37667099Y87810783D01*
X38456316Y88600000D01*
X38442174Y88614142D01*
X38585858Y88757826D01*
X38600000Y88743684D01*
X38614143Y88757826D01*
X38757827Y88614142D01*
X38743684Y88600000D01*
X39532901Y87810783D01*
X39778853Y87869098D01*
X39968822Y88375862D01*
X39950401Y88916749D01*
X39878804Y89089600D01*
X40130280Y89089600D01*
X40039836Y88871787D01*
X40039364Y88330587D01*
X40246036Y87830402D01*
X40628389Y87447381D01*
X40952496Y87312800D01*
X39069330Y87312800D01*
X39330902Y87421147D01*
X39389217Y87667099D01*
X38600000Y88456316D01*
X37810783Y87667099D01*
X37869098Y87421147D01*
X38158126Y87312800D01*
X34750000Y87312800D01*
X34438955Y87250929D01*
X34175264Y87074736D01*
X32561093Y85460565D01*
X32559803Y85460566D01*
X32206688Y85314662D01*
X31936288Y85044733D01*
X31789767Y84691873D01*
X31789434Y84309803D01*
X31935338Y83956688D01*
X32205267Y83686288D01*
X32558127Y83539767D01*
X32940197Y83539434D01*
X33293312Y83685338D01*
X33358086Y83750000D01*
X36170989Y83750000D01*
X36282155Y83191129D01*
X36598730Y82717341D01*
X37072518Y82400766D01*
X37631389Y82289600D01*
X37688611Y82289600D01*
X38247482Y82400766D01*
X38721270Y82717341D01*
X39037845Y83191129D01*
X39149011Y83750000D01*
X39037845Y84308871D01*
X38721270Y84782659D01*
X38247482Y85099234D01*
X37688611Y85210400D01*
X37631389Y85210400D01*
X37072518Y85099234D01*
X36598730Y84782659D01*
X36282155Y84308871D01*
X36170989Y83750000D01*
X33358086Y83750000D01*
X33563712Y83955267D01*
X33710233Y84308127D01*
X33710235Y84310763D01*
X35086672Y85687200D01*
X41277532Y85687200D01*
X41150766Y85497482D01*
X41039600Y84938611D01*
X41039600Y84881389D01*
X41150766Y84322518D01*
X41467341Y83848730D01*
X41941129Y83532155D01*
X42500000Y83420989D01*
X43058871Y83532155D01*
X43532659Y83848730D01*
X43849234Y84322518D01*
X43960400Y84881389D01*
X43960400Y84938611D01*
X43849234Y85497482D01*
X43722468Y85687200D01*
X44323328Y85687200D01*
X44836439Y85174088D01*
X44789600Y84938611D01*
X44789600Y84881389D01*
X44900766Y84322518D01*
X45217341Y83848730D01*
X45691129Y83532155D01*
X46250000Y83420989D01*
X46808871Y83532155D01*
X47282659Y83848730D01*
X47599234Y84322518D01*
X47710400Y84881389D01*
X47710400Y84938611D01*
X47599234Y85497482D01*
X47282659Y85971270D01*
X46808871Y86287845D01*
X46250000Y86399011D01*
X45966794Y86342678D01*
X45234736Y87074736D01*
X44971045Y87250929D01*
X44660000Y87312800D01*
X41847142Y87312800D01*
X42169598Y87446036D01*
X42552619Y87828389D01*
X42760164Y88328213D01*
X42760636Y88869413D01*
X42669657Y89089600D01*
X47330691Y89089600D01*
X47231178Y88824138D01*
X47249599Y88283251D01*
X47421147Y87869098D01*
X47667099Y87810783D01*
X48456316Y88600000D01*
X48442174Y88614142D01*
X48585858Y88757826D01*
X48600000Y88743684D01*
X48614143Y88757826D01*
X48757827Y88614142D01*
X48743684Y88600000D01*
X48757827Y88585857D01*
X48614143Y88442173D01*
X48600000Y88456316D01*
X47810783Y87667099D01*
X47869098Y87421147D01*
X48375862Y87231178D01*
X48916749Y87249599D01*
X49089600Y87321196D01*
X49089600Y83877100D01*
X45606250Y80393750D01*
X45408900Y80098395D01*
X45339600Y79750000D01*
X45339600Y75904705D01*
X45094868Y75660400D01*
X43654705Y75660400D01*
X43328330Y75987345D01*
X42791766Y76210146D01*
X42210783Y76210653D01*
X41673831Y75988789D01*
X41485400Y75800687D01*
X41485400Y80000000D01*
X41429421Y80281425D01*
X41270006Y80520006D01*
X41031425Y80679421D01*
X40750000Y80735400D01*
X29250000Y80735400D01*
X28968575Y80679421D01*
X28729994Y80520006D01*
X28570579Y80281425D01*
X28514600Y80000000D01*
X28514600Y35000000D01*
X28528731Y34928959D01*
X28528731Y34856530D01*
X28966424Y32656101D01*
X28966424Y32656100D01*
X29076230Y32391004D01*
X30322673Y30525570D01*
X30525570Y30322673D01*
X32391003Y29076230D01*
X32656100Y28966424D01*
X34856530Y28528731D01*
X35143470Y28528731D01*
X37343899Y28966424D01*
X37343900Y28966424D01*
X37608996Y29076230D01*
X39474430Y30322673D01*
X39677327Y30525570D01*
X40923770Y32391003D01*
X41033576Y32656100D01*
X41033576Y32656101D01*
X41471269Y34856530D01*
X41471269Y34928959D01*
X41485400Y35000000D01*
X41485400Y73699250D01*
X41671670Y73512655D01*
X42208234Y73289854D01*
X42789217Y73289347D01*
X43326169Y73511211D01*
X43655132Y73839600D01*
X45095295Y73839600D01*
X45339600Y73594868D01*
X45339600Y32148891D01*
X45191873Y32210233D01*
X44809803Y32210566D01*
X44456688Y32064662D01*
X44186288Y31794733D01*
X44039767Y31441873D01*
X44039625Y31279097D01*
X39099742Y26339214D01*
X38810000Y26396847D01*
X38251129Y26285681D01*
X37777341Y25969106D01*
X37540000Y25613900D01*
X37302659Y25969106D01*
X36828871Y26285681D01*
X36270000Y26396847D01*
X35711129Y26285681D01*
X35237341Y25969106D01*
X35000000Y25613900D01*
X34762659Y25969106D01*
X34288871Y26285681D01*
X33730000Y26396847D01*
X33171129Y26285681D01*
X32697341Y25969106D01*
X32456770Y25609066D01*
X32150817Y26004501D01*
X31655005Y26288115D01*
X31518253Y26323032D01*
X31291600Y26191309D01*
X31291600Y24601600D01*
X31311600Y24601600D01*
X31311600Y24398400D01*
X31291600Y24398400D01*
X31291600Y22808691D01*
X31518253Y22676968D01*
X31655005Y22711885D01*
X32150817Y22995499D01*
X32456770Y23390934D01*
X32697341Y23030894D01*
X33171129Y22714319D01*
X33730000Y22603153D01*
X34288871Y22714319D01*
X34762659Y23030894D01*
X35000000Y23386100D01*
X35204849Y23079522D01*
X34425264Y22299936D01*
X34249071Y22036245D01*
X34187200Y21725200D01*
X34187200Y18685905D01*
X33730000Y18776847D01*
X33171129Y18665681D01*
X32697341Y18349106D01*
X32460000Y17993900D01*
X32222659Y18349106D01*
X31748871Y18665681D01*
X31190000Y18776847D01*
X30631129Y18665681D01*
X30157341Y18349106D01*
X29920000Y17993900D01*
X29682659Y18349106D01*
X29208871Y18665681D01*
X28650000Y18776847D01*
X28091129Y18665681D01*
X27617341Y18349106D01*
X27380000Y17993900D01*
X27142659Y18349106D01*
X26668871Y18665681D01*
X26110000Y18776847D01*
X25551129Y18665681D01*
X25077341Y18349106D01*
X24760766Y17875318D01*
X24649600Y17316447D01*
X24649600Y16443553D01*
X24760766Y15884682D01*
X25077341Y15410894D01*
X25551129Y15094319D01*
X26110000Y14983153D01*
X26668871Y15094319D01*
X27142659Y15410894D01*
X27380000Y15766100D01*
X27617341Y15410894D01*
X28091129Y15094319D01*
X28650000Y14983153D01*
X29208871Y15094319D01*
X29682659Y15410894D01*
X29920000Y15766100D01*
X30157341Y15410894D01*
X30631129Y15094319D01*
X31190000Y14983153D01*
X31748871Y15094319D01*
X32222659Y15410894D01*
X32460000Y15766100D01*
X32697341Y15410894D01*
X33171129Y15094319D01*
X33730000Y14983153D01*
X34187200Y15074095D01*
X34187200Y13126673D01*
X32785727Y11725199D01*
X32460000Y11789990D01*
X31881995Y11675018D01*
X31391986Y11347604D01*
X31190000Y11045311D01*
X30988014Y11347604D01*
X30498005Y11675018D01*
X29920000Y11789990D01*
X29341995Y11675018D01*
X28851986Y11347604D01*
X28650000Y11045311D01*
X28448014Y11347604D01*
X27958005Y11675018D01*
X27380000Y11789990D01*
X26801995Y11675018D01*
X26311986Y11347604D01*
X25984572Y10857595D01*
X25869600Y10279590D01*
X25869600Y10220410D01*
X25984572Y9642405D01*
X26311986Y9152396D01*
X26801995Y8824982D01*
X27380000Y8710010D01*
X27958005Y8824982D01*
X28448014Y9152396D01*
X28650000Y9454689D01*
X28851986Y9152396D01*
X29341995Y8824982D01*
X29920000Y8710010D01*
X30498005Y8824982D01*
X30988014Y9152396D01*
X31190000Y9454689D01*
X31391986Y9152396D01*
X31881995Y8824982D01*
X32460000Y8710010D01*
X33038005Y8824982D01*
X33528014Y9152396D01*
X33730000Y9454689D01*
X33931986Y9152396D01*
X34421995Y8824982D01*
X35000000Y8710010D01*
X35578005Y8824982D01*
X36068014Y9152396D01*
X36270000Y9454689D01*
X36471986Y9152396D01*
X36961995Y8824982D01*
X37540000Y8710010D01*
X38118005Y8824982D01*
X38608014Y9152396D01*
X38811764Y9457329D01*
X38848168Y9375973D01*
X39276411Y8971103D01*
X39743907Y8777468D01*
X39978400Y8908542D01*
X39978400Y10148400D01*
X39958400Y10148400D01*
X39958400Y10351600D01*
X39978400Y10351600D01*
X39978400Y11591458D01*
X39743907Y11722532D01*
X39276411Y11528897D01*
X38848168Y11124027D01*
X38811764Y11042671D01*
X38608014Y11347604D01*
X38118005Y11675018D01*
X37764756Y11745283D01*
X41060259Y15040786D01*
X41350000Y14983153D01*
X41908871Y15094319D01*
X42382659Y15410894D01*
X42620000Y15766100D01*
X42857341Y15410894D01*
X42979600Y15329203D01*
X42979600Y11897100D01*
X42855838Y11773338D01*
X41770000Y11773338D01*
X41525270Y11727289D01*
X41300501Y11582654D01*
X41149712Y11361966D01*
X41135321Y11290904D01*
X40883589Y11528897D01*
X40416093Y11722532D01*
X40181600Y11591458D01*
X40181600Y10351600D01*
X40201600Y10351600D01*
X40201600Y10148400D01*
X40181600Y10148400D01*
X40181600Y8908542D01*
X40416093Y8777468D01*
X40883589Y8971103D01*
X41132997Y9206898D01*
X41142711Y9155270D01*
X41287346Y8930501D01*
X41508034Y8779712D01*
X41770000Y8726662D01*
X43470000Y8726662D01*
X43714730Y8772711D01*
X43939499Y8917346D01*
X44090288Y9138034D01*
X44143338Y9400000D01*
X44143338Y10485838D01*
X44533750Y10876250D01*
X44731100Y11171605D01*
X44800400Y11520000D01*
X44800400Y15329203D01*
X44922659Y15410894D01*
X45239234Y15884682D01*
X45350400Y16443553D01*
X45350400Y17316447D01*
X45239234Y17875318D01*
X44972305Y18274805D01*
X46893750Y20196250D01*
X47091100Y20491605D01*
X47160400Y20840000D01*
X47160400Y73595295D01*
X47264600Y73699313D01*
X47264600Y10000000D01*
X47278731Y9928960D01*
X47278731Y9856531D01*
X47306448Y9789617D01*
X47320579Y9718575D01*
X47360821Y9658349D01*
X47388538Y9591434D01*
X47439753Y9540219D01*
X47479994Y9479994D01*
X47540217Y9439754D01*
X47591434Y9388537D01*
X47658353Y9360818D01*
X47718575Y9320579D01*
X47789612Y9306449D01*
X47856531Y9278730D01*
X49626479Y8926666D01*
X51005340Y8005340D01*
X51926666Y6626478D01*
X52250192Y5000000D01*
X51926666Y3373522D01*
X51005340Y1994660D01*
X49626479Y1073334D01*
X47927567Y735400D01*
X22072433Y735400D01*
X20373522Y1073334D01*
X18994660Y1994660D01*
X18073334Y3373521D01*
X17749808Y5000000D01*
X20264600Y5000000D01*
X20396699Y4335891D01*
X20772887Y3772887D01*
X21335891Y3396699D01*
X22000000Y3264600D01*
X22664109Y3396699D01*
X23227113Y3772887D01*
X23603301Y4335891D01*
X23735400Y5000000D01*
X46264600Y5000000D01*
X46396699Y4335891D01*
X46772887Y3772887D01*
X47335891Y3396699D01*
X48000000Y3264600D01*
X48664109Y3396699D01*
X49227113Y3772887D01*
X49603301Y4335891D01*
X49735400Y5000000D01*
X49603301Y5664109D01*
X49227113Y6227113D01*
X48664109Y6603301D01*
X48000000Y6735400D01*
X47335891Y6603301D01*
X46772887Y6227113D01*
X46396699Y5664109D01*
X46264600Y5000000D01*
X23735400Y5000000D01*
X23603301Y5664109D01*
X23227113Y6227113D01*
X22664109Y6603301D01*
X22000000Y6735400D01*
X21335891Y6603301D01*
X20772887Y6227113D01*
X20396699Y5664109D01*
X20264600Y5000000D01*
X17749808Y5000000D01*
X18073334Y6626479D01*
X18994660Y8005340D01*
X20373522Y8926666D01*
X22143469Y9278730D01*
X22210388Y9306449D01*
X22281425Y9320579D01*
X22341647Y9360818D01*
X22408566Y9388537D01*
X22459783Y9439754D01*
X22520006Y9479994D01*
X22560247Y9540219D01*
X22611462Y9591434D01*
X22639179Y9658349D01*
X22679421Y9718575D01*
X22693552Y9789617D01*
X22721269Y9856531D01*
X22721269Y9928960D01*
X22735400Y10000000D01*
X22735400Y24398400D01*
X24649600Y24398400D01*
X24649600Y23998400D01*
X24799647Y23447263D01*
X25149183Y22995499D01*
X25644995Y22711885D01*
X25781747Y22676968D01*
X26008400Y22808691D01*
X26008400Y24398400D01*
X26211600Y24398400D01*
X26211600Y22808691D01*
X26438253Y22676968D01*
X26575005Y22711885D01*
X27070817Y22995499D01*
X27380000Y23395108D01*
X27689183Y22995499D01*
X28184995Y22711885D01*
X28321747Y22676968D01*
X28548400Y22808691D01*
X28548400Y24398400D01*
X28751600Y24398400D01*
X28751600Y22808691D01*
X28978253Y22676968D01*
X29115005Y22711885D01*
X29610817Y22995499D01*
X29920000Y23395108D01*
X30229183Y22995499D01*
X30724995Y22711885D01*
X30861747Y22676968D01*
X31088400Y22808691D01*
X31088400Y24398400D01*
X28751600Y24398400D01*
X28548400Y24398400D01*
X26211600Y24398400D01*
X26008400Y24398400D01*
X24649600Y24398400D01*
X22735400Y24398400D01*
X22735400Y25001600D01*
X24649600Y25001600D01*
X24649600Y24601600D01*
X26008400Y24601600D01*
X26008400Y26191309D01*
X26211600Y26191309D01*
X26211600Y24601600D01*
X28548400Y24601600D01*
X28548400Y26191309D01*
X28751600Y26191309D01*
X28751600Y24601600D01*
X31088400Y24601600D01*
X31088400Y26191309D01*
X30861747Y26323032D01*
X30724995Y26288115D01*
X30229183Y26004501D01*
X29920000Y25604892D01*
X29610817Y26004501D01*
X29115005Y26288115D01*
X28978253Y26323032D01*
X28751600Y26191309D01*
X28548400Y26191309D01*
X28321747Y26323032D01*
X28184995Y26288115D01*
X27689183Y26004501D01*
X27380000Y25604892D01*
X27070817Y26004501D01*
X26575005Y26288115D01*
X26438253Y26323032D01*
X26211600Y26191309D01*
X26008400Y26191309D01*
X25781747Y26323032D01*
X25644995Y26288115D01*
X25149183Y26004501D01*
X24799647Y25552737D01*
X24649600Y25001600D01*
X22735400Y25001600D01*
X22735400Y80000000D01*
X22679421Y80281425D01*
X22520006Y80520006D01*
X22281425Y80679421D01*
X22000000Y80735400D01*
X10072433Y80735400D01*
X6460107Y81453936D01*
X3459126Y83459126D01*
X3264771Y83750000D01*
X7850989Y83750000D01*
X7962155Y83191129D01*
X8278730Y82717341D01*
X8752518Y82400766D01*
X9311389Y82289600D01*
X9368611Y82289600D01*
X9927482Y82400766D01*
X10401270Y82717341D01*
X10717845Y83191129D01*
X10829011Y83750000D01*
X10717845Y84308871D01*
X10401270Y84782659D01*
X9927482Y85099234D01*
X9368611Y85210400D01*
X9311389Y85210400D01*
X8752518Y85099234D01*
X8278730Y84782659D01*
X7962155Y84308871D01*
X7850989Y83750000D01*
X3264771Y83750000D01*
X1453936Y86460106D01*
X1213851Y87667099D01*
X7810783Y87667099D01*
X7869098Y87421147D01*
X8375862Y87231178D01*
X8916749Y87249599D01*
X9330902Y87421147D01*
X9389217Y87667099D01*
X8600000Y88456316D01*
X7810783Y87667099D01*
X1213851Y87667099D01*
X983701Y88824138D01*
X7231178Y88824138D01*
X7249599Y88283251D01*
X7421147Y87869098D01*
X7667099Y87810783D01*
X8456316Y88600000D01*
X7667099Y89389217D01*
X7421147Y89330902D01*
X7231178Y88824138D01*
X983701Y88824138D01*
X749807Y90000000D01*
X1453936Y93539894D01*
X2904477Y95710783D01*
X8539347Y95710783D01*
X8761211Y95173831D01*
X9171670Y94762655D01*
X9708234Y94539854D01*
X10289217Y94539347D01*
X10826169Y94761211D01*
X11237345Y95171670D01*
X11460146Y95708234D01*
X11460400Y96000000D01*
X18670989Y96000000D01*
X18782155Y95441129D01*
X19098730Y94967341D01*
X19572518Y94650766D01*
X20131389Y94539600D01*
X20188611Y94539600D01*
X20747482Y94650766D01*
X21221270Y94967341D01*
X21537845Y95441129D01*
X21649011Y96000000D01*
X21537845Y96558871D01*
X21221270Y97032659D01*
X20895997Y97250000D01*
X23264600Y97250000D01*
X23396699Y96585891D01*
X23772887Y96022887D01*
X24335891Y95646699D01*
X25000000Y95514600D01*
X25664109Y95646699D01*
X25760017Y95710783D01*
X28539347Y95710783D01*
X28761211Y95173831D01*
X29171670Y94762655D01*
X29708234Y94539854D01*
X30289217Y94539347D01*
X30826169Y94761211D01*
X31237345Y95171670D01*
X31460146Y95708234D01*
X31460400Y96000000D01*
X38670989Y96000000D01*
X38782155Y95441129D01*
X39098730Y94967341D01*
X39572518Y94650766D01*
X40131389Y94539600D01*
X40188611Y94539600D01*
X40747482Y94650766D01*
X41221270Y94967341D01*
X41537845Y95441129D01*
X41649011Y96000000D01*
X41537845Y96558871D01*
X41221270Y97032659D01*
X40895997Y97250000D01*
X43264600Y97250000D01*
X43396699Y96585891D01*
X43772887Y96022887D01*
X44335891Y95646699D01*
X45000000Y95514600D01*
X45664109Y95646699D01*
X45760017Y95710783D01*
X48289347Y95710783D01*
X48511211Y95173831D01*
X48921670Y94762655D01*
X49458234Y94539854D01*
X50039217Y94539347D01*
X50576169Y94761211D01*
X50987345Y95171670D01*
X51210146Y95708234D01*
X51210400Y96000000D01*
X58420989Y96000000D01*
X58532155Y95441129D01*
X58848730Y94967341D01*
X59322518Y94650766D01*
X59881389Y94539600D01*
X59938611Y94539600D01*
X60497482Y94650766D01*
X60971270Y94967341D01*
X61287845Y95441129D01*
X61399011Y96000000D01*
X61287845Y96558871D01*
X60971270Y97032659D01*
X60497482Y97349234D01*
X59938611Y97460400D01*
X59881389Y97460400D01*
X59322518Y97349234D01*
X58848730Y97032659D01*
X58532155Y96558871D01*
X58420989Y96000000D01*
X51210400Y96000000D01*
X51210653Y96289217D01*
X50988789Y96826169D01*
X50578330Y97237345D01*
X50041766Y97460146D01*
X49460783Y97460653D01*
X48923831Y97238789D01*
X48512655Y96828330D01*
X48289854Y96291766D01*
X48289347Y95710783D01*
X45760017Y95710783D01*
X46227113Y96022887D01*
X46603301Y96585891D01*
X46735400Y97250000D01*
X46603301Y97914109D01*
X46227113Y98477113D01*
X45664109Y98853301D01*
X45000000Y98985400D01*
X44335891Y98853301D01*
X43772887Y98477113D01*
X43396699Y97914109D01*
X43264600Y97250000D01*
X40895997Y97250000D01*
X40747482Y97349234D01*
X40188611Y97460400D01*
X40131389Y97460400D01*
X39572518Y97349234D01*
X39098730Y97032659D01*
X38782155Y96558871D01*
X38670989Y96000000D01*
X31460400Y96000000D01*
X31460653Y96289217D01*
X31238789Y96826169D01*
X30828330Y97237345D01*
X30291766Y97460146D01*
X29710783Y97460653D01*
X29173831Y97238789D01*
X28762655Y96828330D01*
X28539854Y96291766D01*
X28539347Y95710783D01*
X25760017Y95710783D01*
X26227113Y96022887D01*
X26603301Y96585891D01*
X26735400Y97250000D01*
X26603301Y97914109D01*
X26227113Y98477113D01*
X25664109Y98853301D01*
X25000000Y98985400D01*
X24335891Y98853301D01*
X23772887Y98477113D01*
X23396699Y97914109D01*
X23264600Y97250000D01*
X20895997Y97250000D01*
X20747482Y97349234D01*
X20188611Y97460400D01*
X20131389Y97460400D01*
X19572518Y97349234D01*
X19098730Y97032659D01*
X18782155Y96558871D01*
X18670989Y96000000D01*
X11460400Y96000000D01*
X11460653Y96289217D01*
X11238789Y96826169D01*
X10828330Y97237345D01*
X10291766Y97460146D01*
X9710783Y97460653D01*
X9173831Y97238789D01*
X8762655Y96828330D01*
X8539854Y96291766D01*
X8539347Y95710783D01*
X2904477Y95710783D01*
X3459126Y96540874D01*
X6460107Y98546064D01*
X10072433Y99264600D01*
X59927572Y99264600D01*
X63539894Y98546064D01*
X63539894Y98546064D01*
G37*
X63539894Y98546064D02*
X66540874Y96540874D01*
X68546064Y93539893D01*
X69250192Y90000000D01*
X68546064Y86460107D01*
X66540874Y83459126D01*
X63539894Y81453936D01*
X59927572Y80735400D01*
X48522900Y80735400D01*
X50360966Y82573466D01*
X50421670Y82512655D01*
X50958234Y82289854D01*
X51539217Y82289347D01*
X52076169Y82511211D01*
X52487345Y82921670D01*
X52710146Y83458234D01*
X52710400Y83750000D01*
X59920989Y83750000D01*
X60032155Y83191129D01*
X60348730Y82717341D01*
X60822518Y82400766D01*
X61381389Y82289600D01*
X61438611Y82289600D01*
X61997482Y82400766D01*
X62471270Y82717341D01*
X62787845Y83191129D01*
X62899011Y83750000D01*
X62787845Y84308871D01*
X62471270Y84782659D01*
X61997482Y85099234D01*
X61438611Y85210400D01*
X61381389Y85210400D01*
X60822518Y85099234D01*
X60348730Y84782659D01*
X60032155Y84308871D01*
X59920989Y83750000D01*
X52710400Y83750000D01*
X52710653Y84039217D01*
X52488789Y84576169D01*
X52078330Y84987345D01*
X51541766Y85210146D01*
X50960783Y85210653D01*
X50910400Y85189835D01*
X50910400Y87330280D01*
X51128213Y87239836D01*
X51669413Y87239364D01*
X52169598Y87446036D01*
X52391047Y87667099D01*
X57810783Y87667099D01*
X57869098Y87421147D01*
X58375862Y87231178D01*
X58916749Y87249599D01*
X59330902Y87421147D01*
X59389217Y87667099D01*
X58600000Y88456316D01*
X57810783Y87667099D01*
X52391047Y87667099D01*
X52552619Y87828389D01*
X52760164Y88328213D01*
X52760596Y88824138D01*
X57231178Y88824138D01*
X57249599Y88283251D01*
X57421147Y87869098D01*
X57667099Y87810783D01*
X58456316Y88600000D01*
X58743684Y88600000D01*
X59532901Y87810783D01*
X59778853Y87869098D01*
X59951849Y88330587D01*
X60039364Y88330587D01*
X60246036Y87830402D01*
X60628389Y87447381D01*
X61128213Y87239836D01*
X61669413Y87239364D01*
X62169598Y87446036D01*
X62552619Y87828389D01*
X62760164Y88328213D01*
X62760636Y88869413D01*
X62553964Y89369598D01*
X62171611Y89752619D01*
X61671787Y89960164D01*
X61130587Y89960636D01*
X60630402Y89753964D01*
X60247381Y89371611D01*
X60039836Y88871787D01*
X60039364Y88330587D01*
X59951849Y88330587D01*
X59968822Y88375862D01*
X59950401Y88916749D01*
X59778853Y89330902D01*
X59532901Y89389217D01*
X58743684Y88600000D01*
X58456316Y88600000D01*
X57667099Y89389217D01*
X57421147Y89330902D01*
X57231178Y88824138D01*
X52760596Y88824138D01*
X52760636Y88869413D01*
X52553964Y89369598D01*
X52390946Y89532901D01*
X57810783Y89532901D01*
X58600000Y88743684D01*
X59389217Y89532901D01*
X59330902Y89778853D01*
X58824138Y89968822D01*
X58283251Y89950401D01*
X57869098Y89778853D01*
X57810783Y89532901D01*
X52390946Y89532901D01*
X52171611Y89752619D01*
X51671787Y89960164D01*
X51130587Y89960636D01*
X50842455Y89841582D01*
X50841100Y89848395D01*
X50643750Y90143750D01*
X50143750Y90643750D01*
X49848395Y90841100D01*
X49841513Y90842469D01*
X49960164Y91128213D01*
X49960166Y91130587D01*
X50039364Y91130587D01*
X50246036Y90630402D01*
X50628389Y90247381D01*
X51128213Y90039836D01*
X51669413Y90039364D01*
X52169598Y90246036D01*
X52552619Y90628389D01*
X52760164Y91128213D01*
X52760166Y91130587D01*
X57239364Y91130587D01*
X57446036Y90630402D01*
X57828389Y90247381D01*
X58328213Y90039836D01*
X58869413Y90039364D01*
X59369598Y90246036D01*
X59591047Y90467099D01*
X60610783Y90467099D01*
X60669098Y90221147D01*
X61175862Y90031178D01*
X61716749Y90049599D01*
X62130902Y90221147D01*
X62189217Y90467099D01*
X61400000Y91256316D01*
X60610783Y90467099D01*
X59591047Y90467099D01*
X59752619Y90628389D01*
X59960164Y91128213D01*
X59960596Y91624138D01*
X60031178Y91624138D01*
X60049599Y91083251D01*
X60221147Y90669098D01*
X60467099Y90610783D01*
X61256316Y91400000D01*
X61543684Y91400000D01*
X62332901Y90610783D01*
X62578853Y90669098D01*
X62768822Y91175862D01*
X62750401Y91716749D01*
X62578853Y92130902D01*
X62332901Y92189217D01*
X61543684Y91400000D01*
X61256316Y91400000D01*
X60467099Y92189217D01*
X60221147Y92130902D01*
X60031178Y91624138D01*
X59960596Y91624138D01*
X59960636Y91669413D01*
X59753964Y92169598D01*
X59590946Y92332901D01*
X60610783Y92332901D01*
X61400000Y91543684D01*
X62189217Y92332901D01*
X62130902Y92578853D01*
X61624138Y92768822D01*
X61083251Y92750401D01*
X60669098Y92578853D01*
X60610783Y92332901D01*
X59590946Y92332901D01*
X59371611Y92552619D01*
X58871787Y92760164D01*
X58330587Y92760636D01*
X57830402Y92553964D01*
X57447381Y92171611D01*
X57239836Y91671787D01*
X57239364Y91130587D01*
X52760166Y91130587D01*
X52760636Y91669413D01*
X52553964Y92169598D01*
X52171611Y92552619D01*
X51671787Y92760164D01*
X51130587Y92760636D01*
X50630402Y92553964D01*
X50247381Y92171611D01*
X50039836Y91671787D01*
X50039364Y91130587D01*
X49960166Y91130587D01*
X49960636Y91669413D01*
X49753964Y92169598D01*
X49371611Y92552619D01*
X48871787Y92760164D01*
X48330587Y92760636D01*
X47830402Y92553964D01*
X47447381Y92171611D01*
X47239836Y91671787D01*
X47239364Y91130587D01*
X47330343Y90910400D01*
X42669309Y90910400D01*
X42768822Y91175862D01*
X42750401Y91716749D01*
X42578853Y92130902D01*
X42332901Y92189217D01*
X41543684Y91400000D01*
X41557827Y91385857D01*
X41414143Y91242173D01*
X41400000Y91256316D01*
X41385858Y91242173D01*
X41242174Y91385857D01*
X41256316Y91400000D01*
X40467099Y92189217D01*
X40221147Y92130902D01*
X40031178Y91624138D01*
X40049599Y91083251D01*
X40121196Y90910400D01*
X39869720Y90910400D01*
X39960164Y91128213D01*
X39960636Y91669413D01*
X39753964Y92169598D01*
X39590946Y92332901D01*
X40610783Y92332901D01*
X41400000Y91543684D01*
X42189217Y92332901D01*
X42130902Y92578853D01*
X41624138Y92768822D01*
X41083251Y92750401D01*
X40669098Y92578853D01*
X40610783Y92332901D01*
X39590946Y92332901D01*
X39371611Y92552619D01*
X38871787Y92760164D01*
X38330587Y92760636D01*
X37830402Y92553964D01*
X37447381Y92171611D01*
X37239836Y91671787D01*
X37239364Y91130587D01*
X37330343Y90910400D01*
X32669720Y90910400D01*
X32760164Y91128213D01*
X32760636Y91669413D01*
X32553964Y92169598D01*
X32171611Y92552619D01*
X31671787Y92760164D01*
X31130587Y92760636D01*
X30630402Y92553964D01*
X30247381Y92171611D01*
X30039836Y91671787D01*
X30039364Y91130587D01*
X30130343Y90910400D01*
X29869720Y90910400D01*
X29960164Y91128213D01*
X29960636Y91669413D01*
X29753964Y92169598D01*
X29371611Y92552619D01*
X28871787Y92760164D01*
X28330587Y92760636D01*
X27830402Y92553964D01*
X27447381Y92171611D01*
X27239836Y91671787D01*
X27239364Y91130587D01*
X27330343Y90910400D01*
X22669309Y90910400D01*
X22768822Y91175862D01*
X22750401Y91716749D01*
X22578853Y92130902D01*
X22332901Y92189217D01*
X21543684Y91400000D01*
X21557827Y91385857D01*
X21414143Y91242173D01*
X21400000Y91256316D01*
X21385858Y91242173D01*
X21242174Y91385857D01*
X21256316Y91400000D01*
X20467099Y92189217D01*
X20221147Y92130902D01*
X20031178Y91624138D01*
X20049599Y91083251D01*
X20121196Y90910400D01*
X19869720Y90910400D01*
X19960164Y91128213D01*
X19960636Y91669413D01*
X19753964Y92169598D01*
X19590946Y92332901D01*
X20610783Y92332901D01*
X21400000Y91543684D01*
X22189217Y92332901D01*
X22130902Y92578853D01*
X21624138Y92768822D01*
X21083251Y92750401D01*
X20669098Y92578853D01*
X20610783Y92332901D01*
X19590946Y92332901D01*
X19371611Y92552619D01*
X18871787Y92760164D01*
X18330587Y92760636D01*
X17830402Y92553964D01*
X17447381Y92171611D01*
X17239836Y91671787D01*
X17239364Y91130587D01*
X17330343Y90910400D01*
X12669720Y90910400D01*
X12760164Y91128213D01*
X12760636Y91669413D01*
X12553964Y92169598D01*
X12171611Y92552619D01*
X11671787Y92760164D01*
X11130587Y92760636D01*
X10630402Y92553964D01*
X10247381Y92171611D01*
X10039836Y91671787D01*
X10039466Y91248034D01*
X9960338Y91327162D01*
X9960636Y91669413D01*
X9753964Y92169598D01*
X9371611Y92552619D01*
X8871787Y92760164D01*
X8330587Y92760636D01*
X7830402Y92553964D01*
X7447381Y92171611D01*
X7239836Y91671787D01*
X7239364Y91130587D01*
X7446036Y90630402D01*
X7828389Y90247381D01*
X8328213Y90039836D01*
X8672965Y90039535D01*
X8746328Y89966172D01*
X8283251Y89950401D01*
X7869098Y89778853D01*
X7810783Y89532901D01*
X8600000Y88743684D01*
X8614143Y88757826D01*
X8757827Y88614142D01*
X8743684Y88600000D01*
X9532901Y87810783D01*
X9778853Y87869098D01*
X9968822Y88375862D01*
X9950401Y88916749D01*
X9867921Y89115872D01*
X10000000Y89089600D01*
X10130280Y89089600D01*
X10039836Y88871787D01*
X10039364Y88330587D01*
X10246036Y87830402D01*
X10628389Y87447381D01*
X11128213Y87239836D01*
X11669413Y87239364D01*
X12169598Y87446036D01*
X12391047Y87667099D01*
X17810783Y87667099D01*
X17869098Y87421147D01*
X18375862Y87231178D01*
X18916749Y87249599D01*
X19330902Y87421147D01*
X19389217Y87667099D01*
X18600000Y88456316D01*
X17810783Y87667099D01*
X12391047Y87667099D01*
X12552619Y87828389D01*
X12760164Y88328213D01*
X12760636Y88869413D01*
X12669657Y89089600D01*
X17330691Y89089600D01*
X17231178Y88824138D01*
X17249599Y88283251D01*
X17421147Y87869098D01*
X17667099Y87810783D01*
X18456316Y88600000D01*
X18442174Y88614142D01*
X18585858Y88757826D01*
X18600000Y88743684D01*
X18614143Y88757826D01*
X18757827Y88614142D01*
X18743684Y88600000D01*
X19532901Y87810783D01*
X19778853Y87869098D01*
X19968822Y88375862D01*
X19950401Y88916749D01*
X19878804Y89089600D01*
X20130280Y89089600D01*
X20039836Y88871787D01*
X20039364Y88330587D01*
X20246036Y87830402D01*
X20628389Y87447381D01*
X21128213Y87239836D01*
X21669413Y87239364D01*
X22169598Y87446036D01*
X22552619Y87828389D01*
X22760164Y88328213D01*
X22760636Y88869413D01*
X22669657Y89089600D01*
X25589600Y89089600D01*
X25589600Y85881370D01*
X25658900Y85532975D01*
X25856250Y85237620D01*
X26389208Y84704662D01*
X26262655Y84578330D01*
X26039854Y84041766D01*
X26039696Y83860401D01*
X25290457Y83860401D01*
X25599234Y84322518D01*
X25710400Y84881389D01*
X25710400Y84938611D01*
X25599234Y85497482D01*
X25282659Y85971270D01*
X24808871Y86287845D01*
X24250000Y86399011D01*
X23691129Y86287845D01*
X23217341Y85971270D01*
X22900766Y85497482D01*
X22789600Y84938611D01*
X22789600Y84881389D01*
X22900766Y84322518D01*
X23209543Y83860401D01*
X20960497Y83860401D01*
X20960653Y84039217D01*
X20738789Y84576169D01*
X20328330Y84987345D01*
X19791766Y85210146D01*
X19210783Y85210653D01*
X18673831Y84988789D01*
X18262655Y84578330D01*
X18039854Y84041766D01*
X18039347Y83460783D01*
X18261211Y82923831D01*
X18671670Y82512655D01*
X19208234Y82289854D01*
X19681407Y82289441D01*
X19951604Y82108901D01*
X20299999Y82039601D01*
X23339600Y82039601D01*
X23339600Y75904705D01*
X23012655Y75578330D01*
X22789854Y75041766D01*
X22789347Y74460783D01*
X23011211Y73923831D01*
X23421670Y73512655D01*
X23958234Y73289854D01*
X24539217Y73289347D01*
X25076169Y73511211D01*
X25487345Y73921670D01*
X25710146Y74458234D01*
X25710653Y75039217D01*
X25488789Y75576169D01*
X25160400Y75905132D01*
X25160400Y82039601D01*
X26700001Y82039601D01*
X27048396Y82108901D01*
X27319066Y82289757D01*
X27789217Y82289347D01*
X28326169Y82511211D01*
X28737345Y82921670D01*
X28960146Y83458234D01*
X28960653Y84039217D01*
X28738789Y84576169D01*
X28404497Y84911045D01*
X28341100Y85229765D01*
X28143750Y85525120D01*
X27410400Y86258470D01*
X27410400Y87667099D01*
X27810783Y87667099D01*
X27869098Y87421147D01*
X28375862Y87231178D01*
X28916749Y87249599D01*
X29330902Y87421147D01*
X29389217Y87667099D01*
X28600000Y88456316D01*
X27810783Y87667099D01*
X27410400Y87667099D01*
X27410400Y87895044D01*
X27421147Y87869098D01*
X27667099Y87810783D01*
X28456316Y88600000D01*
X28442174Y88614142D01*
X28585858Y88757826D01*
X28600000Y88743684D01*
X28614143Y88757826D01*
X28757827Y88614142D01*
X28743684Y88600000D01*
X29532901Y87810783D01*
X29778853Y87869098D01*
X29968822Y88375862D01*
X29950401Y88916749D01*
X29878804Y89089600D01*
X30130280Y89089600D01*
X30039836Y88871787D01*
X30039364Y88330587D01*
X30246036Y87830402D01*
X30628389Y87447381D01*
X31128213Y87239836D01*
X31669413Y87239364D01*
X32169598Y87446036D01*
X32552619Y87828389D01*
X32760164Y88328213D01*
X32760636Y88869413D01*
X32669657Y89089600D01*
X37330691Y89089600D01*
X37231178Y88824138D01*
X37249599Y88283251D01*
X37421147Y87869098D01*
X37667099Y87810783D01*
X38456316Y88600000D01*
X38442174Y88614142D01*
X38585858Y88757826D01*
X38600000Y88743684D01*
X38614143Y88757826D01*
X38757827Y88614142D01*
X38743684Y88600000D01*
X39532901Y87810783D01*
X39778853Y87869098D01*
X39968822Y88375862D01*
X39950401Y88916749D01*
X39878804Y89089600D01*
X40130280Y89089600D01*
X40039836Y88871787D01*
X40039364Y88330587D01*
X40246036Y87830402D01*
X40628389Y87447381D01*
X40952496Y87312800D01*
X39069330Y87312800D01*
X39330902Y87421147D01*
X39389217Y87667099D01*
X38600000Y88456316D01*
X37810783Y87667099D01*
X37869098Y87421147D01*
X38158126Y87312800D01*
X34750000Y87312800D01*
X34438955Y87250929D01*
X34175264Y87074736D01*
X32561093Y85460565D01*
X32559803Y85460566D01*
X32206688Y85314662D01*
X31936288Y85044733D01*
X31789767Y84691873D01*
X31789434Y84309803D01*
X31935338Y83956688D01*
X32205267Y83686288D01*
X32558127Y83539767D01*
X32940197Y83539434D01*
X33293312Y83685338D01*
X33358086Y83750000D01*
X36170989Y83750000D01*
X36282155Y83191129D01*
X36598730Y82717341D01*
X37072518Y82400766D01*
X37631389Y82289600D01*
X37688611Y82289600D01*
X38247482Y82400766D01*
X38721270Y82717341D01*
X39037845Y83191129D01*
X39149011Y83750000D01*
X39037845Y84308871D01*
X38721270Y84782659D01*
X38247482Y85099234D01*
X37688611Y85210400D01*
X37631389Y85210400D01*
X37072518Y85099234D01*
X36598730Y84782659D01*
X36282155Y84308871D01*
X36170989Y83750000D01*
X33358086Y83750000D01*
X33563712Y83955267D01*
X33710233Y84308127D01*
X33710235Y84310763D01*
X35086672Y85687200D01*
X41277532Y85687200D01*
X41150766Y85497482D01*
X41039600Y84938611D01*
X41039600Y84881389D01*
X41150766Y84322518D01*
X41467341Y83848730D01*
X41941129Y83532155D01*
X42500000Y83420989D01*
X43058871Y83532155D01*
X43532659Y83848730D01*
X43849234Y84322518D01*
X43960400Y84881389D01*
X43960400Y84938611D01*
X43849234Y85497482D01*
X43722468Y85687200D01*
X44323328Y85687200D01*
X44836439Y85174088D01*
X44789600Y84938611D01*
X44789600Y84881389D01*
X44900766Y84322518D01*
X45217341Y83848730D01*
X45691129Y83532155D01*
X46250000Y83420989D01*
X46808871Y83532155D01*
X47282659Y83848730D01*
X47599234Y84322518D01*
X47710400Y84881389D01*
X47710400Y84938611D01*
X47599234Y85497482D01*
X47282659Y85971270D01*
X46808871Y86287845D01*
X46250000Y86399011D01*
X45966794Y86342678D01*
X45234736Y87074736D01*
X44971045Y87250929D01*
X44660000Y87312800D01*
X41847142Y87312800D01*
X42169598Y87446036D01*
X42552619Y87828389D01*
X42760164Y88328213D01*
X42760636Y88869413D01*
X42669657Y89089600D01*
X47330691Y89089600D01*
X47231178Y88824138D01*
X47249599Y88283251D01*
X47421147Y87869098D01*
X47667099Y87810783D01*
X48456316Y88600000D01*
X48442174Y88614142D01*
X48585858Y88757826D01*
X48600000Y88743684D01*
X48614143Y88757826D01*
X48757827Y88614142D01*
X48743684Y88600000D01*
X48757827Y88585857D01*
X48614143Y88442173D01*
X48600000Y88456316D01*
X47810783Y87667099D01*
X47869098Y87421147D01*
X48375862Y87231178D01*
X48916749Y87249599D01*
X49089600Y87321196D01*
X49089600Y83877100D01*
X45606250Y80393750D01*
X45408900Y80098395D01*
X45339600Y79750000D01*
X45339600Y75904705D01*
X45094868Y75660400D01*
X43654705Y75660400D01*
X43328330Y75987345D01*
X42791766Y76210146D01*
X42210783Y76210653D01*
X41673831Y75988789D01*
X41485400Y75800687D01*
X41485400Y80000000D01*
X41429421Y80281425D01*
X41270006Y80520006D01*
X41031425Y80679421D01*
X40750000Y80735400D01*
X29250000Y80735400D01*
X28968575Y80679421D01*
X28729994Y80520006D01*
X28570579Y80281425D01*
X28514600Y80000000D01*
X28514600Y35000000D01*
X28528731Y34928959D01*
X28528731Y34856530D01*
X28966424Y32656101D01*
X28966424Y32656100D01*
X29076230Y32391004D01*
X30322673Y30525570D01*
X30525570Y30322673D01*
X32391003Y29076230D01*
X32656100Y28966424D01*
X34856530Y28528731D01*
X35143470Y28528731D01*
X37343899Y28966424D01*
X37343900Y28966424D01*
X37608996Y29076230D01*
X39474430Y30322673D01*
X39677327Y30525570D01*
X40923770Y32391003D01*
X41033576Y32656100D01*
X41033576Y32656101D01*
X41471269Y34856530D01*
X41471269Y34928959D01*
X41485400Y35000000D01*
X41485400Y73699250D01*
X41671670Y73512655D01*
X42208234Y73289854D01*
X42789217Y73289347D01*
X43326169Y73511211D01*
X43655132Y73839600D01*
X45095295Y73839600D01*
X45339600Y73594868D01*
X45339600Y32148891D01*
X45191873Y32210233D01*
X44809803Y32210566D01*
X44456688Y32064662D01*
X44186288Y31794733D01*
X44039767Y31441873D01*
X44039625Y31279097D01*
X39099742Y26339214D01*
X38810000Y26396847D01*
X38251129Y26285681D01*
X37777341Y25969106D01*
X37540000Y25613900D01*
X37302659Y25969106D01*
X36828871Y26285681D01*
X36270000Y26396847D01*
X35711129Y26285681D01*
X35237341Y25969106D01*
X35000000Y25613900D01*
X34762659Y25969106D01*
X34288871Y26285681D01*
X33730000Y26396847D01*
X33171129Y26285681D01*
X32697341Y25969106D01*
X32456770Y25609066D01*
X32150817Y26004501D01*
X31655005Y26288115D01*
X31518253Y26323032D01*
X31291600Y26191309D01*
X31291600Y24601600D01*
X31311600Y24601600D01*
X31311600Y24398400D01*
X31291600Y24398400D01*
X31291600Y22808691D01*
X31518253Y22676968D01*
X31655005Y22711885D01*
X32150817Y22995499D01*
X32456770Y23390934D01*
X32697341Y23030894D01*
X33171129Y22714319D01*
X33730000Y22603153D01*
X34288871Y22714319D01*
X34762659Y23030894D01*
X35000000Y23386100D01*
X35204849Y23079522D01*
X34425264Y22299936D01*
X34249071Y22036245D01*
X34187200Y21725200D01*
X34187200Y18685905D01*
X33730000Y18776847D01*
X33171129Y18665681D01*
X32697341Y18349106D01*
X32460000Y17993900D01*
X32222659Y18349106D01*
X31748871Y18665681D01*
X31190000Y18776847D01*
X30631129Y18665681D01*
X30157341Y18349106D01*
X29920000Y17993900D01*
X29682659Y18349106D01*
X29208871Y18665681D01*
X28650000Y18776847D01*
X28091129Y18665681D01*
X27617341Y18349106D01*
X27380000Y17993900D01*
X27142659Y18349106D01*
X26668871Y18665681D01*
X26110000Y18776847D01*
X25551129Y18665681D01*
X25077341Y18349106D01*
X24760766Y17875318D01*
X24649600Y17316447D01*
X24649600Y16443553D01*
X24760766Y15884682D01*
X25077341Y15410894D01*
X25551129Y15094319D01*
X26110000Y14983153D01*
X26668871Y15094319D01*
X27142659Y15410894D01*
X27380000Y15766100D01*
X27617341Y15410894D01*
X28091129Y15094319D01*
X28650000Y14983153D01*
X29208871Y15094319D01*
X29682659Y15410894D01*
X29920000Y15766100D01*
X30157341Y15410894D01*
X30631129Y15094319D01*
X31190000Y14983153D01*
X31748871Y15094319D01*
X32222659Y15410894D01*
X32460000Y15766100D01*
X32697341Y15410894D01*
X33171129Y15094319D01*
X33730000Y14983153D01*
X34187200Y15074095D01*
X34187200Y13126673D01*
X32785727Y11725199D01*
X32460000Y11789990D01*
X31881995Y11675018D01*
X31391986Y11347604D01*
X31190000Y11045311D01*
X30988014Y11347604D01*
X30498005Y11675018D01*
X29920000Y11789990D01*
X29341995Y11675018D01*
X28851986Y11347604D01*
X28650000Y11045311D01*
X28448014Y11347604D01*
X27958005Y11675018D01*
X27380000Y11789990D01*
X26801995Y11675018D01*
X26311986Y11347604D01*
X25984572Y10857595D01*
X25869600Y10279590D01*
X25869600Y10220410D01*
X25984572Y9642405D01*
X26311986Y9152396D01*
X26801995Y8824982D01*
X27380000Y8710010D01*
X27958005Y8824982D01*
X28448014Y9152396D01*
X28650000Y9454689D01*
X28851986Y9152396D01*
X29341995Y8824982D01*
X29920000Y8710010D01*
X30498005Y8824982D01*
X30988014Y9152396D01*
X31190000Y9454689D01*
X31391986Y9152396D01*
X31881995Y8824982D01*
X32460000Y8710010D01*
X33038005Y8824982D01*
X33528014Y9152396D01*
X33730000Y9454689D01*
X33931986Y9152396D01*
X34421995Y8824982D01*
X35000000Y8710010D01*
X35578005Y8824982D01*
X36068014Y9152396D01*
X36270000Y9454689D01*
X36471986Y9152396D01*
X36961995Y8824982D01*
X37540000Y8710010D01*
X38118005Y8824982D01*
X38608014Y9152396D01*
X38811764Y9457329D01*
X38848168Y9375973D01*
X39276411Y8971103D01*
X39743907Y8777468D01*
X39978400Y8908542D01*
X39978400Y10148400D01*
X39958400Y10148400D01*
X39958400Y10351600D01*
X39978400Y10351600D01*
X39978400Y11591458D01*
X39743907Y11722532D01*
X39276411Y11528897D01*
X38848168Y11124027D01*
X38811764Y11042671D01*
X38608014Y11347604D01*
X38118005Y11675018D01*
X37764756Y11745283D01*
X41060259Y15040786D01*
X41350000Y14983153D01*
X41908871Y15094319D01*
X42382659Y15410894D01*
X42620000Y15766100D01*
X42857341Y15410894D01*
X42979600Y15329203D01*
X42979600Y11897100D01*
X42855838Y11773338D01*
X41770000Y11773338D01*
X41525270Y11727289D01*
X41300501Y11582654D01*
X41149712Y11361966D01*
X41135321Y11290904D01*
X40883589Y11528897D01*
X40416093Y11722532D01*
X40181600Y11591458D01*
X40181600Y10351600D01*
X40201600Y10351600D01*
X40201600Y10148400D01*
X40181600Y10148400D01*
X40181600Y8908542D01*
X40416093Y8777468D01*
X40883589Y8971103D01*
X41132997Y9206898D01*
X41142711Y9155270D01*
X41287346Y8930501D01*
X41508034Y8779712D01*
X41770000Y8726662D01*
X43470000Y8726662D01*
X43714730Y8772711D01*
X43939499Y8917346D01*
X44090288Y9138034D01*
X44143338Y9400000D01*
X44143338Y10485838D01*
X44533750Y10876250D01*
X44731100Y11171605D01*
X44800400Y11520000D01*
X44800400Y15329203D01*
X44922659Y15410894D01*
X45239234Y15884682D01*
X45350400Y16443553D01*
X45350400Y17316447D01*
X45239234Y17875318D01*
X44972305Y18274805D01*
X46893750Y20196250D01*
X47091100Y20491605D01*
X47160400Y20840000D01*
X47160400Y73595295D01*
X47264600Y73699313D01*
X47264600Y10000000D01*
X47278731Y9928960D01*
X47278731Y9856531D01*
X47306448Y9789617D01*
X47320579Y9718575D01*
X47360821Y9658349D01*
X47388538Y9591434D01*
X47439753Y9540219D01*
X47479994Y9479994D01*
X47540217Y9439754D01*
X47591434Y9388537D01*
X47658353Y9360818D01*
X47718575Y9320579D01*
X47789612Y9306449D01*
X47856531Y9278730D01*
X49626479Y8926666D01*
X51005340Y8005340D01*
X51926666Y6626478D01*
X52250192Y5000000D01*
X51926666Y3373522D01*
X51005340Y1994660D01*
X49626479Y1073334D01*
X47927567Y735400D01*
X22072433Y735400D01*
X20373522Y1073334D01*
X18994660Y1994660D01*
X18073334Y3373521D01*
X17749808Y5000000D01*
X20264600Y5000000D01*
X20396699Y4335891D01*
X20772887Y3772887D01*
X21335891Y3396699D01*
X22000000Y3264600D01*
X22664109Y3396699D01*
X23227113Y3772887D01*
X23603301Y4335891D01*
X23735400Y5000000D01*
X46264600Y5000000D01*
X46396699Y4335891D01*
X46772887Y3772887D01*
X47335891Y3396699D01*
X48000000Y3264600D01*
X48664109Y3396699D01*
X49227113Y3772887D01*
X49603301Y4335891D01*
X49735400Y5000000D01*
X49603301Y5664109D01*
X49227113Y6227113D01*
X48664109Y6603301D01*
X48000000Y6735400D01*
X47335891Y6603301D01*
X46772887Y6227113D01*
X46396699Y5664109D01*
X46264600Y5000000D01*
X23735400Y5000000D01*
X23603301Y5664109D01*
X23227113Y6227113D01*
X22664109Y6603301D01*
X22000000Y6735400D01*
X21335891Y6603301D01*
X20772887Y6227113D01*
X20396699Y5664109D01*
X20264600Y5000000D01*
X17749808Y5000000D01*
X18073334Y6626479D01*
X18994660Y8005340D01*
X20373522Y8926666D01*
X22143469Y9278730D01*
X22210388Y9306449D01*
X22281425Y9320579D01*
X22341647Y9360818D01*
X22408566Y9388537D01*
X22459783Y9439754D01*
X22520006Y9479994D01*
X22560247Y9540219D01*
X22611462Y9591434D01*
X22639179Y9658349D01*
X22679421Y9718575D01*
X22693552Y9789617D01*
X22721269Y9856531D01*
X22721269Y9928960D01*
X22735400Y10000000D01*
X22735400Y24398400D01*
X24649600Y24398400D01*
X24649600Y23998400D01*
X24799647Y23447263D01*
X25149183Y22995499D01*
X25644995Y22711885D01*
X25781747Y22676968D01*
X26008400Y22808691D01*
X26008400Y24398400D01*
X26211600Y24398400D01*
X26211600Y22808691D01*
X26438253Y22676968D01*
X26575005Y22711885D01*
X27070817Y22995499D01*
X27380000Y23395108D01*
X27689183Y22995499D01*
X28184995Y22711885D01*
X28321747Y22676968D01*
X28548400Y22808691D01*
X28548400Y24398400D01*
X28751600Y24398400D01*
X28751600Y22808691D01*
X28978253Y22676968D01*
X29115005Y22711885D01*
X29610817Y22995499D01*
X29920000Y23395108D01*
X30229183Y22995499D01*
X30724995Y22711885D01*
X30861747Y22676968D01*
X31088400Y22808691D01*
X31088400Y24398400D01*
X28751600Y24398400D01*
X28548400Y24398400D01*
X26211600Y24398400D01*
X26008400Y24398400D01*
X24649600Y24398400D01*
X22735400Y24398400D01*
X22735400Y25001600D01*
X24649600Y25001600D01*
X24649600Y24601600D01*
X26008400Y24601600D01*
X26008400Y26191309D01*
X26211600Y26191309D01*
X26211600Y24601600D01*
X28548400Y24601600D01*
X28548400Y26191309D01*
X28751600Y26191309D01*
X28751600Y24601600D01*
X31088400Y24601600D01*
X31088400Y26191309D01*
X30861747Y26323032D01*
X30724995Y26288115D01*
X30229183Y26004501D01*
X29920000Y25604892D01*
X29610817Y26004501D01*
X29115005Y26288115D01*
X28978253Y26323032D01*
X28751600Y26191309D01*
X28548400Y26191309D01*
X28321747Y26323032D01*
X28184995Y26288115D01*
X27689183Y26004501D01*
X27380000Y25604892D01*
X27070817Y26004501D01*
X26575005Y26288115D01*
X26438253Y26323032D01*
X26211600Y26191309D01*
X26008400Y26191309D01*
X25781747Y26323032D01*
X25644995Y26288115D01*
X25149183Y26004501D01*
X24799647Y25552737D01*
X24649600Y25001600D01*
X22735400Y25001600D01*
X22735400Y80000000D01*
X22679421Y80281425D01*
X22520006Y80520006D01*
X22281425Y80679421D01*
X22000000Y80735400D01*
X10072433Y80735400D01*
X6460107Y81453936D01*
X3459126Y83459126D01*
X3264771Y83750000D01*
X7850989Y83750000D01*
X7962155Y83191129D01*
X8278730Y82717341D01*
X8752518Y82400766D01*
X9311389Y82289600D01*
X9368611Y82289600D01*
X9927482Y82400766D01*
X10401270Y82717341D01*
X10717845Y83191129D01*
X10829011Y83750000D01*
X10717845Y84308871D01*
X10401270Y84782659D01*
X9927482Y85099234D01*
X9368611Y85210400D01*
X9311389Y85210400D01*
X8752518Y85099234D01*
X8278730Y84782659D01*
X7962155Y84308871D01*
X7850989Y83750000D01*
X3264771Y83750000D01*
X1453936Y86460106D01*
X1213851Y87667099D01*
X7810783Y87667099D01*
X7869098Y87421147D01*
X8375862Y87231178D01*
X8916749Y87249599D01*
X9330902Y87421147D01*
X9389217Y87667099D01*
X8600000Y88456316D01*
X7810783Y87667099D01*
X1213851Y87667099D01*
X983701Y88824138D01*
X7231178Y88824138D01*
X7249599Y88283251D01*
X7421147Y87869098D01*
X7667099Y87810783D01*
X8456316Y88600000D01*
X7667099Y89389217D01*
X7421147Y89330902D01*
X7231178Y88824138D01*
X983701Y88824138D01*
X749807Y90000000D01*
X1453936Y93539894D01*
X2904477Y95710783D01*
X8539347Y95710783D01*
X8761211Y95173831D01*
X9171670Y94762655D01*
X9708234Y94539854D01*
X10289217Y94539347D01*
X10826169Y94761211D01*
X11237345Y95171670D01*
X11460146Y95708234D01*
X11460400Y96000000D01*
X18670989Y96000000D01*
X18782155Y95441129D01*
X19098730Y94967341D01*
X19572518Y94650766D01*
X20131389Y94539600D01*
X20188611Y94539600D01*
X20747482Y94650766D01*
X21221270Y94967341D01*
X21537845Y95441129D01*
X21649011Y96000000D01*
X21537845Y96558871D01*
X21221270Y97032659D01*
X20895997Y97250000D01*
X23264600Y97250000D01*
X23396699Y96585891D01*
X23772887Y96022887D01*
X24335891Y95646699D01*
X25000000Y95514600D01*
X25664109Y95646699D01*
X25760017Y95710783D01*
X28539347Y95710783D01*
X28761211Y95173831D01*
X29171670Y94762655D01*
X29708234Y94539854D01*
X30289217Y94539347D01*
X30826169Y94761211D01*
X31237345Y95171670D01*
X31460146Y95708234D01*
X31460400Y96000000D01*
X38670989Y96000000D01*
X38782155Y95441129D01*
X39098730Y94967341D01*
X39572518Y94650766D01*
X40131389Y94539600D01*
X40188611Y94539600D01*
X40747482Y94650766D01*
X41221270Y94967341D01*
X41537845Y95441129D01*
X41649011Y96000000D01*
X41537845Y96558871D01*
X41221270Y97032659D01*
X40895997Y97250000D01*
X43264600Y97250000D01*
X43396699Y96585891D01*
X43772887Y96022887D01*
X44335891Y95646699D01*
X45000000Y95514600D01*
X45664109Y95646699D01*
X45760017Y95710783D01*
X48289347Y95710783D01*
X48511211Y95173831D01*
X48921670Y94762655D01*
X49458234Y94539854D01*
X50039217Y94539347D01*
X50576169Y94761211D01*
X50987345Y95171670D01*
X51210146Y95708234D01*
X51210400Y96000000D01*
X58420989Y96000000D01*
X58532155Y95441129D01*
X58848730Y94967341D01*
X59322518Y94650766D01*
X59881389Y94539600D01*
X59938611Y94539600D01*
X60497482Y94650766D01*
X60971270Y94967341D01*
X61287845Y95441129D01*
X61399011Y96000000D01*
X61287845Y96558871D01*
X60971270Y97032659D01*
X60497482Y97349234D01*
X59938611Y97460400D01*
X59881389Y97460400D01*
X59322518Y97349234D01*
X58848730Y97032659D01*
X58532155Y96558871D01*
X58420989Y96000000D01*
X51210400Y96000000D01*
X51210653Y96289217D01*
X50988789Y96826169D01*
X50578330Y97237345D01*
X50041766Y97460146D01*
X49460783Y97460653D01*
X48923831Y97238789D01*
X48512655Y96828330D01*
X48289854Y96291766D01*
X48289347Y95710783D01*
X45760017Y95710783D01*
X46227113Y96022887D01*
X46603301Y96585891D01*
X46735400Y97250000D01*
X46603301Y97914109D01*
X46227113Y98477113D01*
X45664109Y98853301D01*
X45000000Y98985400D01*
X44335891Y98853301D01*
X43772887Y98477113D01*
X43396699Y97914109D01*
X43264600Y97250000D01*
X40895997Y97250000D01*
X40747482Y97349234D01*
X40188611Y97460400D01*
X40131389Y97460400D01*
X39572518Y97349234D01*
X39098730Y97032659D01*
X38782155Y96558871D01*
X38670989Y96000000D01*
X31460400Y96000000D01*
X31460653Y96289217D01*
X31238789Y96826169D01*
X30828330Y97237345D01*
X30291766Y97460146D01*
X29710783Y97460653D01*
X29173831Y97238789D01*
X28762655Y96828330D01*
X28539854Y96291766D01*
X28539347Y95710783D01*
X25760017Y95710783D01*
X26227113Y96022887D01*
X26603301Y96585891D01*
X26735400Y97250000D01*
X26603301Y97914109D01*
X26227113Y98477113D01*
X25664109Y98853301D01*
X25000000Y98985400D01*
X24335891Y98853301D01*
X23772887Y98477113D01*
X23396699Y97914109D01*
X23264600Y97250000D01*
X20895997Y97250000D01*
X20747482Y97349234D01*
X20188611Y97460400D01*
X20131389Y97460400D01*
X19572518Y97349234D01*
X19098730Y97032659D01*
X18782155Y96558871D01*
X18670989Y96000000D01*
X11460400Y96000000D01*
X11460653Y96289217D01*
X11238789Y96826169D01*
X10828330Y97237345D01*
X10291766Y97460146D01*
X9710783Y97460653D01*
X9173831Y97238789D01*
X8762655Y96828330D01*
X8539854Y96291766D01*
X8539347Y95710783D01*
X2904477Y95710783D01*
X3459126Y96540874D01*
X6460107Y98546064D01*
X10072433Y99264600D01*
X59927572Y99264600D01*
X63539894Y98546064D01*
M02*
