G04 #@! TF.FileFunction,Legend,Top*
%FSLAX46Y46*%
G04 Gerber Fmt 4.6, Leading zero omitted, Abs format (unit mm)*
G04 Created by KiCad (PCBNEW 4.0.6) date 08/27/17 17:10:46*
%MOMM*%
%LPD*%
G01*
G04 APERTURE LIST*
%ADD10C,0.100000*%
%ADD11C,0.700000*%
%ADD12C,0.150000*%
%ADD13C,0.120000*%
%ADD14C,0.200000*%
%ADD15C,2.000000*%
%ADD16O,2.000000X2.000000*%
%ADD17R,2.000000X2.800000*%
%ADD18O,2.000000X2.800000*%
%ADD19C,1.800000*%
%ADD20R,2.100000X2.100000*%
%ADD21O,2.100000X2.100000*%
G04 APERTURE END LIST*
D10*
D11*
X136950000Y-120100001D02*
X137116667Y-120266667D01*
X137283333Y-120766667D01*
X137283333Y-121100001D01*
X137116667Y-121600001D01*
X136783333Y-121933334D01*
X136450000Y-122100001D01*
X135783333Y-122266667D01*
X135283333Y-122266667D01*
X134616667Y-122100001D01*
X134283333Y-121933334D01*
X133950000Y-121600001D01*
X133783333Y-121100001D01*
X133783333Y-120766667D01*
X133950000Y-120266667D01*
X134116667Y-120100001D01*
X134950000Y-118933334D02*
X137283333Y-118100001D01*
X134950000Y-117266667D02*
X137283333Y-118100001D01*
X138116667Y-118433334D01*
X138283333Y-118600001D01*
X138450000Y-118933334D01*
X137116667Y-114433334D02*
X137283333Y-114766667D01*
X137283333Y-115433334D01*
X137116667Y-115766667D01*
X136950000Y-115933334D01*
X136616667Y-116100000D01*
X135616667Y-116100000D01*
X135283333Y-115933334D01*
X135116667Y-115766667D01*
X134950000Y-115433334D01*
X134950000Y-114766667D01*
X135116667Y-114433334D01*
X137283333Y-112433334D02*
X137116667Y-112766667D01*
X136783333Y-112933334D01*
X133783333Y-112933334D01*
X137283333Y-110600001D02*
X137116667Y-110933334D01*
X136950000Y-111100001D01*
X136616667Y-111266667D01*
X135616667Y-111266667D01*
X135283333Y-111100001D01*
X135116667Y-110933334D01*
X134950000Y-110600001D01*
X134950000Y-110100001D01*
X135116667Y-109766667D01*
X135283333Y-109600001D01*
X135616667Y-109433334D01*
X136616667Y-109433334D01*
X136950000Y-109600001D01*
X137116667Y-109766667D01*
X137283333Y-110100001D01*
X137283333Y-110600001D01*
X134950000Y-107933334D02*
X138450000Y-107933334D01*
X135116667Y-107933334D02*
X134950000Y-107600000D01*
X134950000Y-106933334D01*
X135116667Y-106600000D01*
X135283333Y-106433334D01*
X135616667Y-106266667D01*
X136616667Y-106266667D01*
X136950000Y-106433334D01*
X137116667Y-106600000D01*
X137283333Y-106933334D01*
X137283333Y-107600000D01*
X137116667Y-107933334D01*
X137116667Y-104933333D02*
X137283333Y-104600000D01*
X137283333Y-103933333D01*
X137116667Y-103600000D01*
X136783333Y-103433333D01*
X136616667Y-103433333D01*
X136283333Y-103600000D01*
X136116667Y-103933333D01*
X136116667Y-104433333D01*
X135950000Y-104766667D01*
X135616667Y-104933333D01*
X135450000Y-104933333D01*
X135116667Y-104766667D01*
X134950000Y-104433333D01*
X134950000Y-103933333D01*
X135116667Y-103600000D01*
X135950000Y-101933334D02*
X135950000Y-99266667D01*
X134950000Y-97600001D02*
X138450000Y-97600001D01*
X135116667Y-97600001D02*
X134950000Y-97266667D01*
X134950000Y-96600001D01*
X135116667Y-96266667D01*
X135283333Y-96100001D01*
X135616667Y-95933334D01*
X136616667Y-95933334D01*
X136950000Y-96100001D01*
X137116667Y-96266667D01*
X137283333Y-96600001D01*
X137283333Y-97266667D01*
X137116667Y-97600001D01*
X137283333Y-94433334D02*
X134950000Y-94433334D01*
X135616667Y-94433334D02*
X135283333Y-94266667D01*
X135116667Y-94100000D01*
X134950000Y-93766667D01*
X134950000Y-93433334D01*
X137283333Y-91766667D02*
X137116667Y-92100000D01*
X136950000Y-92266667D01*
X136616667Y-92433333D01*
X135616667Y-92433333D01*
X135283333Y-92266667D01*
X135116667Y-92100000D01*
X134950000Y-91766667D01*
X134950000Y-91266667D01*
X135116667Y-90933333D01*
X135283333Y-90766667D01*
X135616667Y-90600000D01*
X136616667Y-90600000D01*
X136950000Y-90766667D01*
X137116667Y-90933333D01*
X137283333Y-91266667D01*
X137283333Y-91766667D01*
X134950000Y-89100000D02*
X137950000Y-89100000D01*
X138283333Y-89266666D01*
X138450000Y-89600000D01*
X138450000Y-89766666D01*
X133783333Y-89100000D02*
X133950000Y-89266666D01*
X134116667Y-89100000D01*
X133950000Y-88933333D01*
X133783333Y-89100000D01*
X134116667Y-89100000D01*
X137116667Y-86099999D02*
X137283333Y-86433333D01*
X137283333Y-87099999D01*
X137116667Y-87433333D01*
X136783333Y-87599999D01*
X135450000Y-87599999D01*
X135116667Y-87433333D01*
X134950000Y-87099999D01*
X134950000Y-86433333D01*
X135116667Y-86099999D01*
X135450000Y-85933333D01*
X135783333Y-85933333D01*
X136116667Y-87599999D01*
X137116667Y-82933333D02*
X137283333Y-83266666D01*
X137283333Y-83933333D01*
X137116667Y-84266666D01*
X136950000Y-84433333D01*
X136616667Y-84599999D01*
X135616667Y-84599999D01*
X135283333Y-84433333D01*
X135116667Y-84266666D01*
X134950000Y-83933333D01*
X134950000Y-83266666D01*
X135116667Y-82933333D01*
X134950000Y-81933333D02*
X134950000Y-80599999D01*
X133783333Y-81433333D02*
X136783333Y-81433333D01*
X137116667Y-81266666D01*
X137283333Y-80933333D01*
X137283333Y-80599999D01*
X118657143Y-84138097D02*
X115990476Y-84900001D01*
X117895238Y-85661906D01*
X115990476Y-86423811D01*
X118657143Y-87185716D01*
X118657143Y-88328573D02*
X115990476Y-89090477D01*
X117895238Y-89852382D01*
X115990476Y-90614287D01*
X118657143Y-91376192D01*
X118657143Y-92519049D02*
X115990476Y-93280953D01*
X117895238Y-94042858D01*
X115990476Y-94804763D01*
X118657143Y-95566668D01*
X116371429Y-97090477D02*
X116180952Y-97280953D01*
X115990476Y-97090477D01*
X116180952Y-96900001D01*
X116371429Y-97090477D01*
X115990476Y-97090477D01*
X115990476Y-99566668D02*
X116180952Y-99185715D01*
X116561905Y-98995239D01*
X119990476Y-98995239D01*
X118657143Y-101090477D02*
X115990476Y-101090477D01*
X118276190Y-101090477D02*
X118466667Y-101280953D01*
X118657143Y-101661906D01*
X118657143Y-102233334D01*
X118466667Y-102614286D01*
X118085714Y-102804763D01*
X115990476Y-102804763D01*
X115990476Y-104709525D02*
X118657143Y-104709525D01*
X117895238Y-104709525D02*
X118276190Y-104900001D01*
X118466667Y-105090477D01*
X118657143Y-105471430D01*
X118657143Y-105852382D01*
X116180952Y-108900001D02*
X115990476Y-108519048D01*
X115990476Y-107757144D01*
X116180952Y-107376191D01*
X116371429Y-107185715D01*
X116752381Y-106995239D01*
X117895238Y-106995239D01*
X118276190Y-107185715D01*
X118466667Y-107376191D01*
X118657143Y-107757144D01*
X118657143Y-108519048D01*
X118466667Y-108900001D01*
X116371429Y-110614286D02*
X116180952Y-110804762D01*
X115990476Y-110614286D01*
X116180952Y-110423810D01*
X116371429Y-110614286D01*
X115990476Y-110614286D01*
X116180952Y-114042857D02*
X115990476Y-113661905D01*
X115990476Y-112900000D01*
X116180952Y-112519048D01*
X116561905Y-112328572D01*
X118085714Y-112328572D01*
X118466667Y-112519048D01*
X118657143Y-112900000D01*
X118657143Y-113661905D01*
X118466667Y-114042857D01*
X118085714Y-114233334D01*
X117704762Y-114233334D01*
X117323810Y-112328572D01*
X116180952Y-115757143D02*
X115990476Y-116138095D01*
X115990476Y-116900000D01*
X116180952Y-117280952D01*
X116561905Y-117471428D01*
X116752381Y-117471428D01*
X117133333Y-117280952D01*
X117323810Y-116900000D01*
X117323810Y-116328571D01*
X117514286Y-115947619D01*
X117895238Y-115757143D01*
X118085714Y-115757143D01*
X118466667Y-115947619D01*
X118657143Y-116328571D01*
X118657143Y-116900000D01*
X118466667Y-117280952D01*
D12*
X139500000Y-72500000D02*
X139500000Y-142500000D01*
X113500000Y-72500000D02*
X113500000Y-142500000D01*
X151500000Y-72500000D02*
X139500000Y-72500000D01*
X101500000Y-72500000D02*
X113500000Y-72500000D01*
X120750000Y-72500000D02*
X132250000Y-72500000D01*
X120750000Y-117500000D02*
G75*
G03X132250000Y-117500000I5750000J0D01*
G01*
X132250000Y-72500000D02*
X132250000Y-117500000D01*
X120750000Y-72500000D02*
X120750000Y-117500000D01*
X113500000Y-142500000D02*
G75*
G03X113500000Y-152500000I0J-5000000D01*
G01*
X139500000Y-142500000D02*
G75*
G02X139500000Y-152500000I0J-5000000D01*
G01*
X113500000Y-152500000D02*
X139500000Y-152500000D01*
X140500000Y-147500000D02*
G75*
G03X140500000Y-147500000I-1000000J0D01*
G01*
X114500000Y-147500000D02*
G75*
G03X114500000Y-147500000I-1000000J0D01*
G01*
X101500000Y-72500000D02*
G75*
G02X101500000Y-52500000I0J10000000D01*
G01*
X151500000Y-72500000D02*
G75*
G03X151500000Y-52500000I0J10000000D01*
G01*
X101500000Y-52500000D02*
X151500000Y-52500000D01*
X137500000Y-55250000D02*
G75*
G03X137500000Y-55250000I-1000000J0D01*
G01*
X117500000Y-55250000D02*
G75*
G03X117500000Y-55250000I-1000000J0D01*
G01*
D13*
X136780000Y-130810000D02*
X136780000Y-129440000D01*
X136780000Y-129440000D02*
X116220000Y-129440000D01*
X116220000Y-129440000D02*
X116220000Y-134180000D01*
X116220000Y-134180000D02*
X136780000Y-134180000D01*
X136780000Y-134180000D02*
X136780000Y-132810000D01*
X136780000Y-132810000D02*
G75*
G02X136780000Y-130810000I0J1000000D01*
G01*
X135450000Y-143590000D02*
X132850000Y-143590000D01*
X132850000Y-143590000D02*
X132850000Y-146210000D01*
X132850000Y-146210000D02*
X135450000Y-146210000D01*
X135450000Y-146210000D02*
X135450000Y-143590000D01*
X134500000Y-146210000D02*
X133740000Y-146210000D01*
X133740000Y-146210000D02*
X133740000Y-152210000D01*
X133740000Y-152210000D02*
X134500000Y-152210000D01*
X134500000Y-152210000D02*
X134500000Y-146210000D01*
X134500000Y-143160000D02*
X134500000Y-143590000D01*
X133740000Y-143160000D02*
X133740000Y-143590000D01*
X134380000Y-146210000D02*
X134380000Y-152210000D01*
X134260000Y-146210000D02*
X134260000Y-152210000D01*
X134140000Y-146210000D02*
X134140000Y-152210000D01*
X134020000Y-146210000D02*
X134020000Y-152210000D01*
X133900000Y-146210000D02*
X133900000Y-152210000D01*
X133780000Y-146210000D02*
X133780000Y-152210000D01*
X132850000Y-143590000D02*
X130310000Y-143590000D01*
X130310000Y-143590000D02*
X130310000Y-146210000D01*
X130310000Y-146210000D02*
X132850000Y-146210000D01*
X132850000Y-146210000D02*
X132850000Y-143590000D01*
X131960000Y-146210000D02*
X131200000Y-146210000D01*
X131200000Y-146210000D02*
X131200000Y-152210000D01*
X131200000Y-152210000D02*
X131960000Y-152210000D01*
X131960000Y-152210000D02*
X131960000Y-146210000D01*
X131960000Y-143160000D02*
X131960000Y-143590000D01*
X131200000Y-143160000D02*
X131200000Y-143590000D01*
X130310000Y-143590000D02*
X127770000Y-143590000D01*
X127770000Y-143590000D02*
X127770000Y-146210000D01*
X127770000Y-146210000D02*
X130310000Y-146210000D01*
X130310000Y-146210000D02*
X130310000Y-143590000D01*
X129420000Y-146210000D02*
X128660000Y-146210000D01*
X128660000Y-146210000D02*
X128660000Y-152210000D01*
X128660000Y-152210000D02*
X129420000Y-152210000D01*
X129420000Y-152210000D02*
X129420000Y-146210000D01*
X129420000Y-143160000D02*
X129420000Y-143590000D01*
X128660000Y-143160000D02*
X128660000Y-143590000D01*
X127770000Y-143590000D02*
X125230000Y-143590000D01*
X125230000Y-143590000D02*
X125230000Y-146210000D01*
X125230000Y-146210000D02*
X127770000Y-146210000D01*
X127770000Y-146210000D02*
X127770000Y-143590000D01*
X126880000Y-146210000D02*
X126120000Y-146210000D01*
X126120000Y-146210000D02*
X126120000Y-152210000D01*
X126120000Y-152210000D02*
X126880000Y-152210000D01*
X126880000Y-152210000D02*
X126880000Y-146210000D01*
X126880000Y-143160000D02*
X126880000Y-143590000D01*
X126120000Y-143160000D02*
X126120000Y-143590000D01*
X125230000Y-143590000D02*
X122690000Y-143590000D01*
X122690000Y-143590000D02*
X122690000Y-146210000D01*
X122690000Y-146210000D02*
X125230000Y-146210000D01*
X125230000Y-146210000D02*
X125230000Y-143590000D01*
X124340000Y-146210000D02*
X123580000Y-146210000D01*
X123580000Y-146210000D02*
X123580000Y-152210000D01*
X123580000Y-152210000D02*
X124340000Y-152210000D01*
X124340000Y-152210000D02*
X124340000Y-146210000D01*
X124340000Y-143160000D02*
X124340000Y-143590000D01*
X123580000Y-143160000D02*
X123580000Y-143590000D01*
X122690000Y-143590000D02*
X120150000Y-143590000D01*
X120150000Y-143590000D02*
X120150000Y-146210000D01*
X120150000Y-146210000D02*
X122690000Y-146210000D01*
X122690000Y-146210000D02*
X122690000Y-143590000D01*
X121800000Y-146210000D02*
X121040000Y-146210000D01*
X121040000Y-146210000D02*
X121040000Y-152210000D01*
X121040000Y-152210000D02*
X121800000Y-152210000D01*
X121800000Y-152210000D02*
X121800000Y-146210000D01*
X121800000Y-143160000D02*
X121800000Y-143590000D01*
X121040000Y-143160000D02*
X121040000Y-143590000D01*
X120150000Y-143590000D02*
X117550000Y-143590000D01*
X117550000Y-143590000D02*
X117550000Y-146210000D01*
X117550000Y-146210000D02*
X120150000Y-146210000D01*
X120150000Y-146210000D02*
X120150000Y-143590000D01*
X119260000Y-146210000D02*
X118500000Y-146210000D01*
X118500000Y-146210000D02*
X118500000Y-152210000D01*
X118500000Y-152210000D02*
X119260000Y-152210000D01*
X119260000Y-152210000D02*
X119260000Y-146210000D01*
X119260000Y-143160000D02*
X119260000Y-143590000D01*
X118500000Y-143160000D02*
X118500000Y-143590000D01*
X134120000Y-140980000D02*
X135390000Y-140980000D01*
X135390000Y-140980000D02*
X135390000Y-142250000D01*
D14*
X137342857Y-132724286D02*
X138314286Y-132724286D01*
X138428571Y-132667143D01*
X138485714Y-132610000D01*
X138542857Y-132495714D01*
X138542857Y-132267143D01*
X138485714Y-132152857D01*
X138428571Y-132095714D01*
X138314286Y-132038571D01*
X137342857Y-132038571D01*
X137342857Y-131581428D02*
X137342857Y-130781428D01*
X138542857Y-131295714D01*
D12*
X135842381Y-146898333D02*
X136556667Y-146898333D01*
X136699524Y-146945953D01*
X136794762Y-147041191D01*
X136842381Y-147184048D01*
X136842381Y-147279286D01*
X136842381Y-145898333D02*
X136842381Y-146469762D01*
X136842381Y-146184048D02*
X135842381Y-146184048D01*
X135985238Y-146279286D01*
X136080476Y-146374524D01*
X136128095Y-146469762D01*
%LPC*%
D15*
X101500000Y-56500000D03*
D16*
X111660000Y-56500000D03*
D15*
X111000000Y-68750000D03*
D16*
X100840000Y-68750000D03*
D15*
X115750000Y-77750000D03*
D16*
X115750000Y-67590000D03*
D15*
X121500000Y-56500000D03*
D16*
X131660000Y-56500000D03*
D15*
X119000000Y-68750000D03*
D16*
X129160000Y-68750000D03*
D15*
X134000000Y-77750000D03*
D16*
X134000000Y-67590000D03*
D15*
X141250000Y-56500000D03*
D16*
X151410000Y-56500000D03*
D15*
X137750000Y-77750000D03*
D16*
X137750000Y-67590000D03*
D15*
X142750000Y-68750000D03*
D16*
X152910000Y-68750000D03*
D17*
X135390000Y-128000000D03*
D18*
X117610000Y-135620000D03*
X132850000Y-128000000D03*
X120150000Y-135620000D03*
X130310000Y-128000000D03*
X122690000Y-135620000D03*
X127770000Y-128000000D03*
X125230000Y-135620000D03*
X125230000Y-128000000D03*
X127770000Y-135620000D03*
X122690000Y-128000000D03*
X130310000Y-135620000D03*
X120150000Y-128000000D03*
X132850000Y-135620000D03*
X117610000Y-128000000D03*
X135390000Y-135620000D03*
D19*
X150100000Y-61100000D03*
X152900000Y-61100000D03*
X150100000Y-63900000D03*
X152900000Y-63900000D03*
X140100000Y-61100000D03*
X142900000Y-61100000D03*
X140100000Y-63900000D03*
X142900000Y-63900000D03*
X130100000Y-61100000D03*
X132900000Y-61100000D03*
X130100000Y-63900000D03*
X132900000Y-63900000D03*
X120100000Y-61100000D03*
X122900000Y-61100000D03*
X120100000Y-63900000D03*
X122900000Y-63900000D03*
X110100000Y-61100000D03*
X112900000Y-61100000D03*
X110100000Y-63900000D03*
X112900000Y-63900000D03*
X100100000Y-61100000D03*
X102900000Y-61100000D03*
X100100000Y-63900000D03*
X102900000Y-63900000D03*
D20*
X134120000Y-142250000D03*
D21*
X131580000Y-142250000D03*
X129040000Y-142250000D03*
X126500000Y-142250000D03*
X123960000Y-142250000D03*
X121420000Y-142250000D03*
X118880000Y-142250000D03*
M02*
