G04 #@! TF.FileFunction,Legend,Top*
%FSLAX46Y46*%
G04 Gerber Fmt 4.6, Leading zero omitted, Abs format (unit mm)*
G04 Created by KiCad (PCBNEW 4.0.7) date 07/12/18 19:43:31*
%MOMM*%
%LPD*%
G01*
G04 APERTURE LIST*
%ADD10C,0.100000*%
%ADD11C,0.200000*%
%ADD12C,0.700000*%
%ADD13C,0.600000*%
%ADD14C,0.150000*%
%ADD15C,0.120000*%
%ADD16C,2.000000*%
%ADD17O,2.000000X2.000000*%
%ADD18R,2.000000X2.800000*%
%ADD19O,2.000000X2.800000*%
%ADD20C,1.800000*%
%ADD21R,2.100000X2.100000*%
%ADD22O,2.100000X2.100000*%
G04 APERTURE END LIST*
D10*
D11*
X31857144Y19964286D02*
X31785715Y19892857D01*
X31571429Y19821429D01*
X31428572Y19821429D01*
X31214287Y19892857D01*
X31071429Y20035714D01*
X31000001Y20178571D01*
X30928572Y20464286D01*
X30928572Y20678571D01*
X31000001Y20964286D01*
X31071429Y21107143D01*
X31214287Y21250000D01*
X31428572Y21321429D01*
X31571429Y21321429D01*
X31785715Y21250000D01*
X31857144Y21178571D01*
X32500001Y19821429D02*
X32500001Y21321429D01*
X32857144Y21321429D01*
X33071429Y21250000D01*
X33214287Y21107143D01*
X33285715Y20964286D01*
X33357144Y20678571D01*
X33357144Y20464286D01*
X33285715Y20178571D01*
X33214287Y20035714D01*
X33071429Y19892857D01*
X32857144Y19821429D01*
X32500001Y19821429D01*
X34642858Y20821429D02*
X34642858Y19821429D01*
X34285715Y21392857D02*
X33928572Y20321429D01*
X34857144Y20321429D01*
X35714286Y21321429D02*
X35857143Y21321429D01*
X36000000Y21250000D01*
X36071429Y21178571D01*
X36142858Y21035714D01*
X36214286Y20750000D01*
X36214286Y20392857D01*
X36142858Y20107143D01*
X36071429Y19964286D01*
X36000000Y19892857D01*
X35857143Y19821429D01*
X35714286Y19821429D01*
X35571429Y19892857D01*
X35500000Y19964286D01*
X35428572Y20107143D01*
X35357143Y20392857D01*
X35357143Y20750000D01*
X35428572Y21035714D01*
X35500000Y21178571D01*
X35571429Y21250000D01*
X35714286Y21321429D01*
X37571429Y21321429D02*
X36857143Y21321429D01*
X36785714Y20607143D01*
X36857143Y20678571D01*
X37000000Y20750000D01*
X37357143Y20750000D01*
X37500000Y20678571D01*
X37571429Y20607143D01*
X37642857Y20464286D01*
X37642857Y20107143D01*
X37571429Y19964286D01*
X37500000Y19892857D01*
X37357143Y19821429D01*
X37000000Y19821429D01*
X36857143Y19892857D01*
X36785714Y19964286D01*
X38142857Y21321429D02*
X39071428Y21321429D01*
X38571428Y20750000D01*
X38785714Y20750000D01*
X38928571Y20678571D01*
X39000000Y20607143D01*
X39071428Y20464286D01*
X39071428Y20107143D01*
X39000000Y19964286D01*
X38928571Y19892857D01*
X38785714Y19821429D01*
X38357142Y19821429D01*
X38214285Y19892857D01*
X38142857Y19964286D01*
D12*
X45450000Y32399999D02*
X45616667Y32233333D01*
X45783333Y31733333D01*
X45783333Y31399999D01*
X45616667Y30899999D01*
X45283333Y30566666D01*
X44950000Y30399999D01*
X44283333Y30233333D01*
X43783333Y30233333D01*
X43116667Y30399999D01*
X42783333Y30566666D01*
X42450000Y30899999D01*
X42283333Y31399999D01*
X42283333Y31733333D01*
X42450000Y32233333D01*
X42616667Y32399999D01*
X43450000Y33566666D02*
X45783333Y34399999D01*
X43450000Y35233333D02*
X45783333Y34399999D01*
X46616667Y34066666D01*
X46783333Y33899999D01*
X46950000Y33566666D01*
X45616667Y38066666D02*
X45783333Y37733333D01*
X45783333Y37066666D01*
X45616667Y36733333D01*
X45450000Y36566666D01*
X45116667Y36400000D01*
X44116667Y36400000D01*
X43783333Y36566666D01*
X43616667Y36733333D01*
X43450000Y37066666D01*
X43450000Y37733333D01*
X43616667Y38066666D01*
X45783333Y40066666D02*
X45616667Y39733333D01*
X45283333Y39566666D01*
X42283333Y39566666D01*
X45783333Y41899999D02*
X45616667Y41566666D01*
X45450000Y41399999D01*
X45116667Y41233333D01*
X44116667Y41233333D01*
X43783333Y41399999D01*
X43616667Y41566666D01*
X43450000Y41899999D01*
X43450000Y42399999D01*
X43616667Y42733333D01*
X43783333Y42899999D01*
X44116667Y43066666D01*
X45116667Y43066666D01*
X45450000Y42899999D01*
X45616667Y42733333D01*
X45783333Y42399999D01*
X45783333Y41899999D01*
X43450000Y44566666D02*
X46950000Y44566666D01*
X43616667Y44566666D02*
X43450000Y44900000D01*
X43450000Y45566666D01*
X43616667Y45900000D01*
X43783333Y46066666D01*
X44116667Y46233333D01*
X45116667Y46233333D01*
X45450000Y46066666D01*
X45616667Y45900000D01*
X45783333Y45566666D01*
X45783333Y44900000D01*
X45616667Y44566666D01*
X45616667Y47566667D02*
X45783333Y47900000D01*
X45783333Y48566667D01*
X45616667Y48900000D01*
X45283333Y49066667D01*
X45116667Y49066667D01*
X44783333Y48900000D01*
X44616667Y48566667D01*
X44616667Y48066667D01*
X44450000Y47733333D01*
X44116667Y47566667D01*
X43950000Y47566667D01*
X43616667Y47733333D01*
X43450000Y48066667D01*
X43450000Y48566667D01*
X43616667Y48900000D01*
X44450000Y50566666D02*
X44450000Y53233333D01*
X43450000Y54899999D02*
X46950000Y54899999D01*
X43616667Y54899999D02*
X43450000Y55233333D01*
X43450000Y55899999D01*
X43616667Y56233333D01*
X43783333Y56399999D01*
X44116667Y56566666D01*
X45116667Y56566666D01*
X45450000Y56399999D01*
X45616667Y56233333D01*
X45783333Y55899999D01*
X45783333Y55233333D01*
X45616667Y54899999D01*
X45783333Y58066666D02*
X43450000Y58066666D01*
X44116667Y58066666D02*
X43783333Y58233333D01*
X43616667Y58400000D01*
X43450000Y58733333D01*
X43450000Y59066666D01*
X45783333Y60733333D02*
X45616667Y60400000D01*
X45450000Y60233333D01*
X45116667Y60066667D01*
X44116667Y60066667D01*
X43783333Y60233333D01*
X43616667Y60400000D01*
X43450000Y60733333D01*
X43450000Y61233333D01*
X43616667Y61566667D01*
X43783333Y61733333D01*
X44116667Y61900000D01*
X45116667Y61900000D01*
X45450000Y61733333D01*
X45616667Y61566667D01*
X45783333Y61233333D01*
X45783333Y60733333D01*
X43450000Y63400000D02*
X46450000Y63400000D01*
X46783333Y63233334D01*
X46950000Y62900000D01*
X46950000Y62733334D01*
X42283333Y63400000D02*
X42450000Y63233334D01*
X42616667Y63400000D01*
X42450000Y63566667D01*
X42283333Y63400000D01*
X42616667Y63400000D01*
X45616667Y66400001D02*
X45783333Y66066667D01*
X45783333Y65400001D01*
X45616667Y65066667D01*
X45283333Y64900001D01*
X43950000Y64900001D01*
X43616667Y65066667D01*
X43450000Y65400001D01*
X43450000Y66066667D01*
X43616667Y66400001D01*
X43950000Y66566667D01*
X44283333Y66566667D01*
X44616667Y64900001D01*
X45616667Y69566667D02*
X45783333Y69233334D01*
X45783333Y68566667D01*
X45616667Y68233334D01*
X45450000Y68066667D01*
X45116667Y67900001D01*
X44116667Y67900001D01*
X43783333Y68066667D01*
X43616667Y68233334D01*
X43450000Y68566667D01*
X43450000Y69233334D01*
X43616667Y69566667D01*
X43450000Y70566667D02*
X43450000Y71900001D01*
X42283333Y71066667D02*
X45283333Y71066667D01*
X45616667Y71233334D01*
X45783333Y71566667D01*
X45783333Y71900001D01*
D13*
X24842857Y71814285D02*
X27842857Y71814285D01*
X27842857Y71100000D01*
X27700000Y70671428D01*
X27414286Y70385714D01*
X27128571Y70242857D01*
X26557143Y70100000D01*
X26128571Y70100000D01*
X25557143Y70242857D01*
X25271429Y70385714D01*
X24985714Y70671428D01*
X24842857Y71100000D01*
X24842857Y71814285D01*
X24985714Y67671428D02*
X24842857Y67957142D01*
X24842857Y68528571D01*
X24985714Y68814285D01*
X25271429Y68957142D01*
X26414286Y68957142D01*
X26700000Y68814285D01*
X26842857Y68528571D01*
X26842857Y67957142D01*
X26700000Y67671428D01*
X26414286Y67528571D01*
X26128571Y67528571D01*
X25842857Y68957142D01*
X24985714Y66385713D02*
X24842857Y66099999D01*
X24842857Y65528571D01*
X24985714Y65242856D01*
X25271429Y65099999D01*
X25414286Y65099999D01*
X25700000Y65242856D01*
X25842857Y65528571D01*
X25842857Y65957142D01*
X25985714Y66242856D01*
X26271429Y66385713D01*
X26414286Y66385713D01*
X26700000Y66242856D01*
X26842857Y65957142D01*
X26842857Y65528571D01*
X26700000Y65242856D01*
X24842857Y63814285D02*
X26842857Y63814285D01*
X27842857Y63814285D02*
X27700000Y63957142D01*
X27557143Y63814285D01*
X27700000Y63671428D01*
X27842857Y63814285D01*
X27557143Y63814285D01*
X26842857Y61100000D02*
X24414286Y61100000D01*
X24128571Y61242857D01*
X23985714Y61385714D01*
X23842857Y61671429D01*
X23842857Y62100000D01*
X23985714Y62385714D01*
X24985714Y61100000D02*
X24842857Y61385714D01*
X24842857Y61957143D01*
X24985714Y62242857D01*
X25128571Y62385714D01*
X25414286Y62528571D01*
X26271429Y62528571D01*
X26557143Y62385714D01*
X26700000Y62242857D01*
X26842857Y61957143D01*
X26842857Y61385714D01*
X26700000Y61100000D01*
X26842857Y59671428D02*
X24842857Y59671428D01*
X26557143Y59671428D02*
X26700000Y59528571D01*
X26842857Y59242857D01*
X26842857Y58814285D01*
X26700000Y58528571D01*
X26414286Y58385714D01*
X24842857Y58385714D01*
X24985714Y55814285D02*
X24842857Y56099999D01*
X24842857Y56671428D01*
X24985714Y56957142D01*
X25271429Y57099999D01*
X26414286Y57099999D01*
X26700000Y56957142D01*
X26842857Y56671428D01*
X26842857Y56099999D01*
X26700000Y55814285D01*
X26414286Y55671428D01*
X26128571Y55671428D01*
X25842857Y57099999D01*
X24842857Y53099999D02*
X27842857Y53099999D01*
X24985714Y53099999D02*
X24842857Y53385713D01*
X24842857Y53957142D01*
X24985714Y54242856D01*
X25128571Y54385713D01*
X25414286Y54528570D01*
X26271429Y54528570D01*
X26557143Y54385713D01*
X26700000Y54242856D01*
X26842857Y53957142D01*
X26842857Y53385713D01*
X26700000Y53099999D01*
X24842857Y49385713D02*
X27842857Y49385713D01*
X26700000Y49385713D02*
X26842857Y49099999D01*
X26842857Y48528570D01*
X26700000Y48242856D01*
X26557143Y48099999D01*
X26271429Y47957142D01*
X25414286Y47957142D01*
X25128571Y48099999D01*
X24985714Y48242856D01*
X24842857Y48528570D01*
X24842857Y49099999D01*
X24985714Y49385713D01*
X26842857Y46957142D02*
X24842857Y46242856D01*
X26842857Y45528570D02*
X24842857Y46242856D01*
X24128571Y46528570D01*
X23985714Y46671427D01*
X23842857Y46957142D01*
X24842857Y40385714D02*
X26271429Y41385714D01*
X24842857Y42099999D02*
X27842857Y42099999D01*
X27842857Y40957142D01*
X27700000Y40671428D01*
X27557143Y40528571D01*
X27271429Y40385714D01*
X26842857Y40385714D01*
X26557143Y40528571D01*
X26414286Y40671428D01*
X26271429Y40957142D01*
X26271429Y42099999D01*
X24985714Y37957142D02*
X24842857Y38242856D01*
X24842857Y38814285D01*
X24985714Y39099999D01*
X25271429Y39242856D01*
X26414286Y39242856D01*
X26700000Y39099999D01*
X26842857Y38814285D01*
X26842857Y38242856D01*
X26700000Y37957142D01*
X26414286Y37814285D01*
X26128571Y37814285D01*
X25842857Y39242856D01*
X24985714Y36671427D02*
X24842857Y36385713D01*
X24842857Y35814285D01*
X24985714Y35528570D01*
X25271429Y35385713D01*
X25414286Y35385713D01*
X25700000Y35528570D01*
X25842857Y35814285D01*
X25842857Y36242856D01*
X25985714Y36528570D01*
X26271429Y36671427D01*
X26414286Y36671427D01*
X26700000Y36528570D01*
X26842857Y36242856D01*
X26842857Y35814285D01*
X26700000Y35528570D01*
X24842857Y32814285D02*
X26414286Y32814285D01*
X26700000Y32957142D01*
X26842857Y33242856D01*
X26842857Y33814285D01*
X26700000Y34099999D01*
X24985714Y32814285D02*
X24842857Y33099999D01*
X24842857Y33814285D01*
X24985714Y34099999D01*
X25271429Y34242856D01*
X25557143Y34242856D01*
X25842857Y34099999D01*
X25985714Y33814285D01*
X25985714Y33099999D01*
X26128571Y32814285D01*
X26842857Y31385713D02*
X24271429Y31385713D01*
X23985714Y31528570D01*
X23842857Y31814285D01*
X23842857Y31957142D01*
X27842857Y31385713D02*
X27700000Y31528570D01*
X27557143Y31385713D01*
X27700000Y31242856D01*
X27842857Y31385713D01*
X27557143Y31385713D01*
D14*
X48000000Y80000000D02*
X48000000Y10000000D01*
X22000000Y80000000D02*
X22000000Y10000000D01*
X60000000Y80000000D02*
X48000000Y80000000D01*
X10000000Y80000000D02*
X22000000Y80000000D01*
X29250000Y80000000D02*
X40750000Y80000000D01*
X29250000Y35000000D02*
G75*
G03X40750000Y35000000I5750000J0D01*
G01*
X40750000Y80000000D02*
X40750000Y35000000D01*
X29250000Y80000000D02*
X29250000Y35000000D01*
X22000000Y10000000D02*
G75*
G03X22000000Y0I0J-5000000D01*
G01*
X48000000Y10000000D02*
G75*
G02X48000000Y0I0J-5000000D01*
G01*
X22000000Y0D02*
X48000000Y0D01*
X49000000Y5000000D02*
G75*
G03X49000000Y5000000I-1000000J0D01*
G01*
X23000000Y5000000D02*
G75*
G03X23000000Y5000000I-1000000J0D01*
G01*
X10000000Y80000000D02*
G75*
G02X10000000Y100000000I0J10000000D01*
G01*
X60000000Y80000000D02*
G75*
G03X60000000Y100000000I0J10000000D01*
G01*
X10000000Y100000000D02*
X60000000Y100000000D01*
X46000000Y97250000D02*
G75*
G03X46000000Y97250000I-1000000J0D01*
G01*
X26000000Y97250000D02*
G75*
G03X26000000Y97250000I-1000000J0D01*
G01*
D15*
X45280000Y21690000D02*
X45280000Y23060000D01*
X45280000Y23060000D02*
X24720000Y23060000D01*
X24720000Y23060000D02*
X24720000Y18320000D01*
X24720000Y18320000D02*
X45280000Y18320000D01*
X45280000Y18320000D02*
X45280000Y19690000D01*
X45280000Y19690000D02*
G75*
G02X45280000Y21690000I0J1000000D01*
G01*
X43950000Y8910000D02*
X41350000Y8910000D01*
X41350000Y8910000D02*
X41350000Y6290000D01*
X41350000Y6290000D02*
X43950000Y6290000D01*
X43950000Y6290000D02*
X43950000Y8910000D01*
X43000000Y6290000D02*
X42240000Y6290000D01*
X42240000Y6290000D02*
X42240000Y290000D01*
X42240000Y290000D02*
X43000000Y290000D01*
X43000000Y290000D02*
X43000000Y6290000D01*
X43000000Y9340000D02*
X43000000Y8910000D01*
X42240000Y9340000D02*
X42240000Y8910000D01*
X42880000Y6290000D02*
X42880000Y290000D01*
X42760000Y6290000D02*
X42760000Y290000D01*
X42640000Y6290000D02*
X42640000Y290000D01*
X42520000Y6290000D02*
X42520000Y290000D01*
X42400000Y6290000D02*
X42400000Y290000D01*
X42280000Y6290000D02*
X42280000Y290000D01*
X41350000Y8910000D02*
X38810000Y8910000D01*
X38810000Y8910000D02*
X38810000Y6290000D01*
X38810000Y6290000D02*
X41350000Y6290000D01*
X41350000Y6290000D02*
X41350000Y8910000D01*
X40460000Y6290000D02*
X39700000Y6290000D01*
X39700000Y6290000D02*
X39700000Y290000D01*
X39700000Y290000D02*
X40460000Y290000D01*
X40460000Y290000D02*
X40460000Y6290000D01*
X40460000Y9340000D02*
X40460000Y8910000D01*
X39700000Y9340000D02*
X39700000Y8910000D01*
X38810000Y8910000D02*
X36270000Y8910000D01*
X36270000Y8910000D02*
X36270000Y6290000D01*
X36270000Y6290000D02*
X38810000Y6290000D01*
X38810000Y6290000D02*
X38810000Y8910000D01*
X37920000Y6290000D02*
X37160000Y6290000D01*
X37160000Y6290000D02*
X37160000Y290000D01*
X37160000Y290000D02*
X37920000Y290000D01*
X37920000Y290000D02*
X37920000Y6290000D01*
X37920000Y9340000D02*
X37920000Y8910000D01*
X37160000Y9340000D02*
X37160000Y8910000D01*
X36270000Y8910000D02*
X33730000Y8910000D01*
X33730000Y8910000D02*
X33730000Y6290000D01*
X33730000Y6290000D02*
X36270000Y6290000D01*
X36270000Y6290000D02*
X36270000Y8910000D01*
X35380000Y6290000D02*
X34620000Y6290000D01*
X34620000Y6290000D02*
X34620000Y290000D01*
X34620000Y290000D02*
X35380000Y290000D01*
X35380000Y290000D02*
X35380000Y6290000D01*
X35380000Y9340000D02*
X35380000Y8910000D01*
X34620000Y9340000D02*
X34620000Y8910000D01*
X33730000Y8910000D02*
X31190000Y8910000D01*
X31190000Y8910000D02*
X31190000Y6290000D01*
X31190000Y6290000D02*
X33730000Y6290000D01*
X33730000Y6290000D02*
X33730000Y8910000D01*
X32840000Y6290000D02*
X32080000Y6290000D01*
X32080000Y6290000D02*
X32080000Y290000D01*
X32080000Y290000D02*
X32840000Y290000D01*
X32840000Y290000D02*
X32840000Y6290000D01*
X32840000Y9340000D02*
X32840000Y8910000D01*
X32080000Y9340000D02*
X32080000Y8910000D01*
X31190000Y8910000D02*
X28650000Y8910000D01*
X28650000Y8910000D02*
X28650000Y6290000D01*
X28650000Y6290000D02*
X31190000Y6290000D01*
X31190000Y6290000D02*
X31190000Y8910000D01*
X30300000Y6290000D02*
X29540000Y6290000D01*
X29540000Y6290000D02*
X29540000Y290000D01*
X29540000Y290000D02*
X30300000Y290000D01*
X30300000Y290000D02*
X30300000Y6290000D01*
X30300000Y9340000D02*
X30300000Y8910000D01*
X29540000Y9340000D02*
X29540000Y8910000D01*
X28650000Y8910000D02*
X26050000Y8910000D01*
X26050000Y8910000D02*
X26050000Y6290000D01*
X26050000Y6290000D02*
X28650000Y6290000D01*
X28650000Y6290000D02*
X28650000Y8910000D01*
X27760000Y6290000D02*
X27000000Y6290000D01*
X27000000Y6290000D02*
X27000000Y290000D01*
X27000000Y290000D02*
X27760000Y290000D01*
X27760000Y290000D02*
X27760000Y6290000D01*
X27760000Y9340000D02*
X27760000Y8910000D01*
X27000000Y9340000D02*
X27000000Y8910000D01*
X42620000Y11520000D02*
X43890000Y11520000D01*
X43890000Y11520000D02*
X43890000Y10250000D01*
D11*
X45842857Y19775714D02*
X46814286Y19775714D01*
X46928571Y19832857D01*
X46985714Y19890000D01*
X47042857Y20004286D01*
X47042857Y20232857D01*
X46985714Y20347143D01*
X46928571Y20404286D01*
X46814286Y20461429D01*
X45842857Y20461429D01*
X45842857Y20918572D02*
X45842857Y21718572D01*
X47042857Y21204286D01*
D14*
X44342381Y5601667D02*
X45056667Y5601667D01*
X45199524Y5554047D01*
X45294762Y5458809D01*
X45342381Y5315952D01*
X45342381Y5220714D01*
X45342381Y6601667D02*
X45342381Y6030238D01*
X45342381Y6315952D02*
X44342381Y6315952D01*
X44485238Y6220714D01*
X44580476Y6125476D01*
X44628095Y6030238D01*
%LPC*%
D16*
X10000000Y96000000D03*
D17*
X20160000Y96000000D03*
D16*
X19500000Y83750000D03*
D17*
X9340000Y83750000D03*
D16*
X24250000Y74750000D03*
D17*
X24250000Y84910000D03*
D16*
X30000000Y96000000D03*
D17*
X40160000Y96000000D03*
D16*
X27500000Y83750000D03*
D17*
X37660000Y83750000D03*
D16*
X42500000Y74750000D03*
D17*
X42500000Y84910000D03*
D16*
X49750000Y96000000D03*
D17*
X59910000Y96000000D03*
D16*
X46250000Y74750000D03*
D17*
X46250000Y84910000D03*
D16*
X51250000Y83750000D03*
D17*
X61410000Y83750000D03*
D18*
X43890000Y24500000D03*
D19*
X26110000Y16880000D03*
X41350000Y24500000D03*
X28650000Y16880000D03*
X38810000Y24500000D03*
X31190000Y16880000D03*
X36270000Y24500000D03*
X33730000Y16880000D03*
X33730000Y24500000D03*
X36270000Y16880000D03*
X31190000Y24500000D03*
X38810000Y16880000D03*
X28650000Y24500000D03*
X41350000Y16880000D03*
X26110000Y24500000D03*
X43890000Y16880000D03*
D20*
X58600000Y91400000D03*
X61400000Y91400000D03*
X58600000Y88600000D03*
X61400000Y88600000D03*
X48600000Y91400000D03*
X51400000Y91400000D03*
X48600000Y88600000D03*
X51400000Y88600000D03*
X38600000Y91400000D03*
X41400000Y91400000D03*
X38600000Y88600000D03*
X41400000Y88600000D03*
X28600000Y91400000D03*
X31400000Y91400000D03*
X28600000Y88600000D03*
X31400000Y88600000D03*
X18600000Y91400000D03*
X21400000Y91400000D03*
X18600000Y88600000D03*
X21400000Y88600000D03*
X8600000Y91400000D03*
X11400000Y91400000D03*
X8600000Y88600000D03*
X11400000Y88600000D03*
D21*
X42620000Y10250000D03*
D22*
X40080000Y10250000D03*
X37540000Y10250000D03*
X35000000Y10250000D03*
X32460000Y10250000D03*
X29920000Y10250000D03*
X27380000Y10250000D03*
M02*
