G04 #@! TF.FileFunction,Copper,L2,Bot,Signal*
%FSLAX46Y46*%
G04 Gerber Fmt 4.6, Leading zero omitted, Abs format (unit mm)*
G04 Created by KiCad (PCBNEW 4.0.6) date 07/01/17 21:38:31*
%MOMM*%
%LPD*%
G01*
G04 APERTURE LIST*
%ADD10C,0.100000*%
%ADD11C,0.150000*%
%ADD12C,1.600000*%
%ADD13O,1.600000X1.600000*%
%ADD14R,1.600000X2.400000*%
%ADD15O,1.600000X2.400000*%
%ADD16C,1.400000*%
%ADD17R,1.700000X1.700000*%
%ADD18O,1.700000X1.700000*%
%ADD19C,0.600000*%
%ADD20C,0.500000*%
%ADD21C,0.304800*%
G04 APERTURE END LIST*
D10*
D11*
X48000000Y80000000D02*
X48000000Y10000000D01*
X22000000Y80000000D02*
X22000000Y10000000D01*
X60000000Y80000000D02*
X48000000Y80000000D01*
X10000000Y80000000D02*
X22000000Y80000000D01*
X29250000Y80000000D02*
X40750000Y80000000D01*
X29250000Y35000000D02*
G75*
G03X40750000Y35000000I5750000J0D01*
G01*
X40750000Y80000000D02*
X40750000Y35000000D01*
X29250000Y80000000D02*
X29250000Y35000000D01*
X22000000Y10000000D02*
G75*
G03X22000000Y0I0J-5000000D01*
G01*
X48000000Y10000000D02*
G75*
G02X48000000Y0I0J-5000000D01*
G01*
X22000000Y0D02*
X48000000Y0D01*
X49000000Y5000000D02*
G75*
G03X49000000Y5000000I-1000000J0D01*
G01*
X23000000Y5000000D02*
G75*
G03X23000000Y5000000I-1000000J0D01*
G01*
X10000000Y80000000D02*
G75*
G02X10000000Y100000000I0J10000000D01*
G01*
X60000000Y80000000D02*
G75*
G03X60000000Y100000000I0J10000000D01*
G01*
X10000000Y100000000D02*
X60000000Y100000000D01*
X46000000Y97250000D02*
G75*
G03X46000000Y97250000I-1000000J0D01*
G01*
X26000000Y97250000D02*
G75*
G03X26000000Y97250000I-1000000J0D01*
G01*
D12*
X10000000Y96000000D03*
D13*
X20160000Y96000000D03*
D12*
X19500000Y83750000D03*
D13*
X9340000Y83750000D03*
D12*
X24250000Y74750000D03*
D13*
X24250000Y84910000D03*
D12*
X30000000Y96000000D03*
D13*
X40160000Y96000000D03*
D12*
X27500000Y83750000D03*
D13*
X37660000Y83750000D03*
D12*
X42500000Y74750000D03*
D13*
X42500000Y84910000D03*
D12*
X49750000Y96000000D03*
D13*
X59910000Y96000000D03*
D12*
X46250000Y74750000D03*
D13*
X46250000Y84910000D03*
D12*
X51250000Y83750000D03*
D13*
X61410000Y83750000D03*
D14*
X43890000Y24500000D03*
D15*
X26110000Y16880000D03*
X41350000Y24500000D03*
X28650000Y16880000D03*
X38810000Y24500000D03*
X31190000Y16880000D03*
X36270000Y24500000D03*
X33730000Y16880000D03*
X33730000Y24500000D03*
X36270000Y16880000D03*
X31190000Y24500000D03*
X38810000Y16880000D03*
X28650000Y24500000D03*
X41350000Y16880000D03*
X26110000Y24500000D03*
X43890000Y16880000D03*
D16*
X58600000Y91400000D03*
X61400000Y91400000D03*
X58600000Y88600000D03*
X61400000Y88600000D03*
X48600000Y91400000D03*
X51400000Y91400000D03*
X48600000Y88600000D03*
X51400000Y88600000D03*
X38600000Y91400000D03*
X41400000Y91400000D03*
X38600000Y88600000D03*
X41400000Y88600000D03*
X28600000Y91400000D03*
X31400000Y91400000D03*
X28600000Y88600000D03*
X31400000Y88600000D03*
X18600000Y91400000D03*
X21400000Y91400000D03*
X18600000Y88600000D03*
X21400000Y88600000D03*
X8600000Y91400000D03*
X11400000Y91400000D03*
X8600000Y88600000D03*
X11400000Y88600000D03*
D17*
X42620000Y10250000D03*
D18*
X40080000Y10250000D03*
X37540000Y10250000D03*
X35000000Y10250000D03*
X32460000Y10250000D03*
X29920000Y10250000D03*
X27380000Y10250000D03*
D19*
X55650000Y84900000D03*
X55050000Y94500000D03*
X46550000Y82500000D03*
X40950000Y81800000D03*
X33050000Y81800000D03*
X44850000Y93100000D03*
X35050000Y95300000D03*
X25050000Y93000000D03*
X15050000Y95500000D03*
X4750000Y92800000D03*
X14950000Y85500000D03*
X22750000Y80900000D03*
X11850000Y81000000D03*
X23650000Y71300000D03*
X23750000Y54000000D03*
X23750000Y33000000D03*
X24350000Y20800000D03*
X24550000Y12900000D03*
X26650000Y5200000D03*
X35150000Y5100000D03*
X42750000Y5000000D03*
X30950000Y22000000D03*
X33750000Y21900000D03*
X45950000Y18500000D03*
X45850000Y14300000D03*
X32750000Y84500000D03*
X45000000Y31250000D03*
D20*
X58600000Y88600000D02*
X55050000Y92150000D01*
X55050000Y92150000D02*
X55050000Y94500000D01*
X33050000Y81800000D02*
X40950000Y81800000D01*
X48600000Y88600000D02*
X44850000Y92350000D01*
X44850000Y92350000D02*
X44850000Y93100000D01*
X38600000Y88600000D02*
X35050000Y92150000D01*
X35050000Y92150000D02*
X35050000Y95300000D01*
X28600000Y88600000D02*
X25050000Y92150000D01*
X25050000Y92150000D02*
X25050000Y93000000D01*
X18600000Y88600000D02*
X15050000Y92150000D01*
X15050000Y92150000D02*
X15050000Y95500000D01*
X8600000Y88600000D02*
X4750000Y92450000D01*
X4750000Y92450000D02*
X4750000Y92800000D01*
X11850000Y81000000D02*
X22650000Y81000000D01*
X22650000Y81000000D02*
X22750000Y80900000D01*
X23750000Y33000000D02*
X23750000Y54000000D01*
X24550000Y12900000D02*
X24550000Y20600000D01*
X24550000Y20600000D02*
X24350000Y20800000D01*
X35150000Y5100000D02*
X26750000Y5100000D01*
X26750000Y5100000D02*
X26650000Y5200000D01*
X40080000Y10250000D02*
X40080000Y7670000D01*
X40080000Y7670000D02*
X42750000Y5000000D01*
X45950000Y18500000D02*
X42550000Y21900000D01*
X42550000Y21900000D02*
X33750000Y21900000D01*
X41727919Y13100000D02*
X44650000Y13100000D01*
X44650000Y13100000D02*
X45850000Y14300000D01*
X40080000Y10250000D02*
X40080000Y11452081D01*
X40080000Y11452081D02*
X41727919Y13100000D01*
D21*
X38810000Y16880000D02*
X38810000Y11520000D01*
X38810000Y11520000D02*
X37540000Y10250000D01*
X28650000Y16880000D02*
X28650000Y13600000D01*
X28650000Y13600000D02*
X29920000Y12330000D01*
X29920000Y12330000D02*
X29920000Y10250000D01*
X28650000Y16880000D02*
X29700000Y16880000D01*
X29700000Y16880000D02*
X31190000Y16880000D01*
X26110000Y16880000D02*
X27160000Y16880000D01*
X27160000Y16880000D02*
X28650000Y16880000D01*
X11400000Y91400000D02*
X11400000Y94600000D01*
X11400000Y94600000D02*
X10000000Y96000000D01*
X20160000Y96000000D02*
X18600000Y94440000D01*
X18600000Y94440000D02*
X18600000Y91400000D01*
X11500000Y83750000D02*
X13250000Y82000000D01*
X13250000Y82000000D02*
X23250000Y82000000D01*
X23250000Y82000000D02*
X26000000Y79250000D01*
X26000000Y79250000D02*
X26000000Y29750000D01*
X27262410Y23747590D02*
X33730000Y17280000D01*
X33730000Y17280000D02*
X33730000Y16880000D01*
X26000000Y29750000D02*
X27262410Y28487590D01*
X27262410Y28487590D02*
X27262410Y23747590D01*
X11500000Y83750000D02*
X11400000Y83850000D01*
X11400000Y83850000D02*
X11400000Y88600000D01*
X11500000Y83750000D02*
X9340000Y83750000D01*
X36270000Y17280000D02*
X36270000Y16880000D01*
X32500000Y25363589D02*
X32500000Y21050000D01*
X24250000Y84910000D02*
X26995189Y82164811D01*
X26995189Y30868400D02*
X32500000Y25363589D01*
X32500000Y21050000D02*
X36270000Y17280000D01*
X26995189Y82164811D02*
X26995189Y30868400D01*
X21400000Y88600000D02*
X24250000Y85750000D01*
X24250000Y85750000D02*
X24250000Y84910000D01*
X31400000Y91400000D02*
X31400000Y94600000D01*
X31400000Y94600000D02*
X30000000Y96000000D01*
X38600000Y91400000D02*
X38600000Y94440000D01*
X38600000Y94440000D02*
X40160000Y96000000D01*
X41350000Y24500000D02*
X41350000Y24900000D01*
X41350000Y24900000D02*
X39000000Y27250000D01*
X39000000Y27250000D02*
X32750000Y27250000D01*
X32750000Y27250000D02*
X28250000Y31750000D01*
X28250000Y31750000D02*
X28250000Y80500000D01*
X28250000Y80500000D02*
X31500000Y83750000D01*
X31500000Y83750000D02*
X37660000Y83750000D01*
X31400000Y88600000D02*
X32810000Y88600000D01*
X32810000Y88600000D02*
X37660000Y83750000D01*
X44000000Y25010000D02*
X44000000Y83410000D01*
X44000000Y83410000D02*
X42500000Y84910000D01*
X43890000Y24500000D02*
X43890000Y24900000D01*
X43890000Y24900000D02*
X44000000Y25010000D01*
X41400000Y88600000D02*
X41400000Y86010000D01*
X41400000Y86010000D02*
X42500000Y84910000D01*
X51400000Y91400000D02*
X51400000Y94350000D01*
X51400000Y94350000D02*
X49750000Y96000000D01*
X59910000Y96000000D02*
X58600000Y94690000D01*
X58600000Y94690000D02*
X58600000Y91400000D01*
X33730000Y24500000D02*
X33730000Y24900000D01*
X33730000Y24900000D02*
X27745190Y30884810D01*
X27745190Y30884810D02*
X27745190Y80709100D01*
X32325736Y84500000D02*
X32750000Y84500000D01*
X31536090Y84500000D02*
X32325736Y84500000D01*
X27745190Y80709100D02*
X31536090Y84500000D01*
X51400000Y88600000D02*
X47710000Y84910000D01*
X47710000Y84910000D02*
X46250000Y84910000D01*
X48000000Y81750000D02*
X59410000Y81750000D01*
X59410000Y81750000D02*
X61410000Y83750000D01*
X45000000Y78750000D02*
X48000000Y81750000D01*
X45000000Y31250000D02*
X45000000Y78750000D01*
X61400000Y88600000D02*
X61400000Y83760000D01*
X61400000Y83760000D02*
X61410000Y83750000D01*
G36*
X63539894Y98546064D02*
X66540874Y96540874D01*
X68546064Y93539893D01*
X69250192Y90000000D01*
X68546064Y86460107D01*
X66540874Y83459126D01*
X63539894Y81453936D01*
X59927572Y80735400D01*
X48134873Y80735400D01*
X48336673Y80937200D01*
X59410000Y80937200D01*
X59721045Y80999071D01*
X59984736Y81175264D01*
X61145911Y82336439D01*
X61381389Y82289600D01*
X61438611Y82289600D01*
X61997482Y82400766D01*
X62471270Y82717341D01*
X62787845Y83191129D01*
X62899011Y83750000D01*
X62787845Y84308871D01*
X62471270Y84782659D01*
X62212800Y84955363D01*
X62212800Y87489163D01*
X62552619Y87828389D01*
X62760164Y88328213D01*
X62760636Y88869413D01*
X62553964Y89369598D01*
X62171611Y89752619D01*
X61671787Y89960164D01*
X61130587Y89960636D01*
X60630402Y89753964D01*
X60247381Y89371611D01*
X60039836Y88871787D01*
X60039364Y88330587D01*
X60246036Y87830402D01*
X60587200Y87488642D01*
X60587200Y84942000D01*
X60348730Y84782659D01*
X60032155Y84308871D01*
X59920989Y83750000D01*
X59977322Y83466794D01*
X59073328Y82562800D01*
X52127848Y82562800D01*
X52487345Y82921670D01*
X52710146Y83458234D01*
X52710653Y84039217D01*
X52488789Y84576169D01*
X52078330Y84987345D01*
X51541766Y85210146D01*
X50960783Y85210653D01*
X50423831Y84988789D01*
X50012655Y84578330D01*
X49789854Y84041766D01*
X49789347Y83460783D01*
X50011211Y82923831D01*
X50371612Y82562800D01*
X48000000Y82562800D01*
X47688955Y82500929D01*
X47425264Y82324737D01*
X44812800Y79712272D01*
X44812800Y83410000D01*
X44750929Y83721045D01*
X44724900Y83760000D01*
X44574736Y83984737D01*
X43913561Y84645912D01*
X43960400Y84881389D01*
X43960400Y84938611D01*
X44789600Y84938611D01*
X44789600Y84881389D01*
X44900766Y84322518D01*
X45217341Y83848730D01*
X45691129Y83532155D01*
X46250000Y83420989D01*
X46808871Y83532155D01*
X47282659Y83848730D01*
X47448681Y84097200D01*
X47710000Y84097200D01*
X48021045Y84159071D01*
X48284736Y84335264D01*
X51189255Y87239783D01*
X51669413Y87239364D01*
X52169598Y87446036D01*
X52391047Y87667099D01*
X57810783Y87667099D01*
X57869098Y87421147D01*
X58375862Y87231178D01*
X58916749Y87249599D01*
X59330902Y87421147D01*
X59389217Y87667099D01*
X58600000Y88456316D01*
X57810783Y87667099D01*
X52391047Y87667099D01*
X52552619Y87828389D01*
X52760164Y88328213D01*
X52760596Y88824138D01*
X57231178Y88824138D01*
X57249599Y88283251D01*
X57421147Y87869098D01*
X57667099Y87810783D01*
X58456316Y88600000D01*
X58743684Y88600000D01*
X59532901Y87810783D01*
X59778853Y87869098D01*
X59968822Y88375862D01*
X59950401Y88916749D01*
X59778853Y89330902D01*
X59532901Y89389217D01*
X58743684Y88600000D01*
X58456316Y88600000D01*
X57667099Y89389217D01*
X57421147Y89330902D01*
X57231178Y88824138D01*
X52760596Y88824138D01*
X52760636Y88869413D01*
X52553964Y89369598D01*
X52390946Y89532901D01*
X57810783Y89532901D01*
X58600000Y88743684D01*
X59389217Y89532901D01*
X59330902Y89778853D01*
X58824138Y89968822D01*
X58283251Y89950401D01*
X57869098Y89778853D01*
X57810783Y89532901D01*
X52390946Y89532901D01*
X52171611Y89752619D01*
X51671787Y89960164D01*
X51130587Y89960636D01*
X50630402Y89753964D01*
X50247381Y89371611D01*
X50039836Y88871787D01*
X50039415Y88388887D01*
X49934301Y88283773D01*
X49968822Y88375862D01*
X49950401Y88916749D01*
X49778853Y89330902D01*
X49532901Y89389217D01*
X48743684Y88600000D01*
X48757827Y88585857D01*
X48614143Y88442173D01*
X48600000Y88456316D01*
X47810783Y87667099D01*
X47869098Y87421147D01*
X48375862Y87231178D01*
X48899541Y87249013D01*
X47418499Y85767971D01*
X47282659Y85971270D01*
X46808871Y86287845D01*
X46250000Y86399011D01*
X45691129Y86287845D01*
X45217341Y85971270D01*
X44900766Y85497482D01*
X44789600Y84938611D01*
X43960400Y84938611D01*
X43849234Y85497482D01*
X43532659Y85971270D01*
X43058871Y86287845D01*
X42500000Y86399011D01*
X42216794Y86342678D01*
X42212800Y86346672D01*
X42212800Y87489163D01*
X42552619Y87828389D01*
X42760164Y88328213D01*
X42760596Y88824138D01*
X47231178Y88824138D01*
X47249599Y88283251D01*
X47421147Y87869098D01*
X47667099Y87810783D01*
X48456316Y88600000D01*
X47667099Y89389217D01*
X47421147Y89330902D01*
X47231178Y88824138D01*
X42760596Y88824138D01*
X42760636Y88869413D01*
X42553964Y89369598D01*
X42390946Y89532901D01*
X47810783Y89532901D01*
X48600000Y88743684D01*
X49389217Y89532901D01*
X49330902Y89778853D01*
X48824138Y89968822D01*
X48283251Y89950401D01*
X47869098Y89778853D01*
X47810783Y89532901D01*
X42390946Y89532901D01*
X42171611Y89752619D01*
X41671787Y89960164D01*
X41130587Y89960636D01*
X40630402Y89753964D01*
X40247381Y89371611D01*
X40039836Y88871787D01*
X40039364Y88330587D01*
X40246036Y87830402D01*
X40587200Y87488642D01*
X40587200Y86010000D01*
X40644328Y85722800D01*
X40649071Y85698955D01*
X40825264Y85435264D01*
X41086439Y85174089D01*
X41039600Y84938611D01*
X41039600Y84881389D01*
X41150766Y84322518D01*
X41467341Y83848730D01*
X41941129Y83532155D01*
X42500000Y83420989D01*
X42783206Y83477322D01*
X43187200Y83073327D01*
X43187200Y76045947D01*
X42791766Y76210146D01*
X42210783Y76210653D01*
X41673831Y75988789D01*
X41485400Y75800687D01*
X41485400Y80000000D01*
X41429421Y80281425D01*
X41270006Y80520006D01*
X41031425Y80679421D01*
X40750000Y80735400D01*
X29634872Y80735400D01*
X31836672Y82937200D01*
X36451825Y82937200D01*
X36598730Y82717341D01*
X37072518Y82400766D01*
X37631389Y82289600D01*
X37688611Y82289600D01*
X38247482Y82400766D01*
X38721270Y82717341D01*
X39037845Y83191129D01*
X39149011Y83750000D01*
X39037845Y84308871D01*
X38721270Y84782659D01*
X38247482Y85099234D01*
X37688611Y85210400D01*
X37631389Y85210400D01*
X37395912Y85163561D01*
X34892374Y87667099D01*
X37810783Y87667099D01*
X37869098Y87421147D01*
X38375862Y87231178D01*
X38916749Y87249599D01*
X39330902Y87421147D01*
X39389217Y87667099D01*
X38600000Y88456316D01*
X37810783Y87667099D01*
X34892374Y87667099D01*
X33735335Y88824138D01*
X37231178Y88824138D01*
X37249599Y88283251D01*
X37421147Y87869098D01*
X37667099Y87810783D01*
X38456316Y88600000D01*
X38743684Y88600000D01*
X39532901Y87810783D01*
X39778853Y87869098D01*
X39968822Y88375862D01*
X39950401Y88916749D01*
X39778853Y89330902D01*
X39532901Y89389217D01*
X38743684Y88600000D01*
X38456316Y88600000D01*
X37667099Y89389217D01*
X37421147Y89330902D01*
X37231178Y88824138D01*
X33735335Y88824138D01*
X33384736Y89174736D01*
X33121045Y89350929D01*
X32810000Y89412800D01*
X32510837Y89412800D01*
X32390946Y89532901D01*
X37810783Y89532901D01*
X38600000Y88743684D01*
X39389217Y89532901D01*
X39330902Y89778853D01*
X38824138Y89968822D01*
X38283251Y89950401D01*
X37869098Y89778853D01*
X37810783Y89532901D01*
X32390946Y89532901D01*
X32171611Y89752619D01*
X31671787Y89960164D01*
X31130587Y89960636D01*
X30630402Y89753964D01*
X30247381Y89371611D01*
X30039836Y88871787D01*
X30039364Y88330587D01*
X30246036Y87830402D01*
X30628389Y87447381D01*
X31128213Y87239836D01*
X31669413Y87239364D01*
X32169598Y87446036D01*
X32492326Y87768202D01*
X35697727Y84562800D01*
X33710455Y84562800D01*
X33710566Y84690197D01*
X33564662Y85043312D01*
X33294733Y85313712D01*
X32941873Y85460233D01*
X32559803Y85460566D01*
X32206688Y85314662D01*
X32204823Y85312800D01*
X31536090Y85312800D01*
X31225045Y85250929D01*
X30961353Y85074736D01*
X27807989Y81921371D01*
X27807989Y82164811D01*
X27783216Y82289352D01*
X27789217Y82289347D01*
X28326169Y82511211D01*
X28737345Y82921670D01*
X28960146Y83458234D01*
X28960653Y84039217D01*
X28738789Y84576169D01*
X28328330Y84987345D01*
X27791766Y85210146D01*
X27210783Y85210653D01*
X26673831Y84988789D01*
X26262655Y84578330D01*
X26106707Y84202766D01*
X25663561Y84645912D01*
X25710400Y84881389D01*
X25710400Y84938611D01*
X25599234Y85497482D01*
X25282659Y85971270D01*
X24882065Y86238938D01*
X24824737Y86324736D01*
X23482374Y87667099D01*
X27810783Y87667099D01*
X27869098Y87421147D01*
X28375862Y87231178D01*
X28916749Y87249599D01*
X29330902Y87421147D01*
X29389217Y87667099D01*
X28600000Y88456316D01*
X27810783Y87667099D01*
X23482374Y87667099D01*
X22760217Y88389255D01*
X22760596Y88824138D01*
X27231178Y88824138D01*
X27249599Y88283251D01*
X27421147Y87869098D01*
X27667099Y87810783D01*
X28456316Y88600000D01*
X28743684Y88600000D01*
X29532901Y87810783D01*
X29778853Y87869098D01*
X29968822Y88375862D01*
X29950401Y88916749D01*
X29778853Y89330902D01*
X29532901Y89389217D01*
X28743684Y88600000D01*
X28456316Y88600000D01*
X27667099Y89389217D01*
X27421147Y89330902D01*
X27231178Y88824138D01*
X22760596Y88824138D01*
X22760636Y88869413D01*
X22553964Y89369598D01*
X22390946Y89532901D01*
X27810783Y89532901D01*
X28600000Y88743684D01*
X29389217Y89532901D01*
X29330902Y89778853D01*
X28824138Y89968822D01*
X28283251Y89950401D01*
X27869098Y89778853D01*
X27810783Y89532901D01*
X22390946Y89532901D01*
X22171611Y89752619D01*
X21671787Y89960164D01*
X21130587Y89960636D01*
X20630402Y89753964D01*
X20247381Y89371611D01*
X20039836Y88871787D01*
X20039364Y88330587D01*
X20246036Y87830402D01*
X20628389Y87447381D01*
X21128213Y87239836D01*
X21611113Y87239415D01*
X23081924Y85768604D01*
X22900766Y85497482D01*
X22789600Y84938611D01*
X22789600Y84881389D01*
X22900766Y84322518D01*
X23217341Y83848730D01*
X23691129Y83532155D01*
X24250000Y83420989D01*
X24533206Y83477322D01*
X26182389Y81828138D01*
X26182389Y80217084D01*
X23824736Y82574736D01*
X23561045Y82750929D01*
X23250000Y82812800D01*
X20628285Y82812800D01*
X20737345Y82921670D01*
X20960146Y83458234D01*
X20960653Y84039217D01*
X20738789Y84576169D01*
X20328330Y84987345D01*
X19791766Y85210146D01*
X19210783Y85210653D01*
X18673831Y84988789D01*
X18262655Y84578330D01*
X18039854Y84041766D01*
X18039347Y83460783D01*
X18261211Y82923831D01*
X18372048Y82812800D01*
X13586673Y82812800D01*
X12212800Y84186672D01*
X12212800Y87489163D01*
X12391047Y87667099D01*
X17810783Y87667099D01*
X17869098Y87421147D01*
X18375862Y87231178D01*
X18916749Y87249599D01*
X19330902Y87421147D01*
X19389217Y87667099D01*
X18600000Y88456316D01*
X17810783Y87667099D01*
X12391047Y87667099D01*
X12552619Y87828389D01*
X12760164Y88328213D01*
X12760596Y88824138D01*
X17231178Y88824138D01*
X17249599Y88283251D01*
X17421147Y87869098D01*
X17667099Y87810783D01*
X18456316Y88600000D01*
X18743684Y88600000D01*
X19532901Y87810783D01*
X19778853Y87869098D01*
X19968822Y88375862D01*
X19950401Y88916749D01*
X19778853Y89330902D01*
X19532901Y89389217D01*
X18743684Y88600000D01*
X18456316Y88600000D01*
X17667099Y89389217D01*
X17421147Y89330902D01*
X17231178Y88824138D01*
X12760596Y88824138D01*
X12760636Y88869413D01*
X12553964Y89369598D01*
X12390946Y89532901D01*
X17810783Y89532901D01*
X18600000Y88743684D01*
X19389217Y89532901D01*
X19330902Y89778853D01*
X18824138Y89968822D01*
X18283251Y89950401D01*
X17869098Y89778853D01*
X17810783Y89532901D01*
X12390946Y89532901D01*
X12171611Y89752619D01*
X11671787Y89960164D01*
X11130587Y89960636D01*
X10630402Y89753964D01*
X10247381Y89371611D01*
X10039836Y88871787D01*
X10039364Y88330587D01*
X10246036Y87830402D01*
X10587200Y87488642D01*
X10587200Y84562800D01*
X10548175Y84562800D01*
X10401270Y84782659D01*
X9927482Y85099234D01*
X9368611Y85210400D01*
X9311389Y85210400D01*
X8752518Y85099234D01*
X8278730Y84782659D01*
X7962155Y84308871D01*
X7850989Y83750000D01*
X7962155Y83191129D01*
X8278730Y82717341D01*
X8752518Y82400766D01*
X9311389Y82289600D01*
X9368611Y82289600D01*
X9927482Y82400766D01*
X10401270Y82717341D01*
X10548175Y82937200D01*
X11163328Y82937200D01*
X12675264Y81425263D01*
X12936174Y81250929D01*
X12938955Y81249071D01*
X13250000Y81187200D01*
X22913328Y81187200D01*
X25187200Y78913327D01*
X25187200Y75878285D01*
X25078330Y75987345D01*
X24541766Y76210146D01*
X23960783Y76210653D01*
X23423831Y75988789D01*
X23012655Y75578330D01*
X22789854Y75041766D01*
X22789347Y74460783D01*
X23011211Y73923831D01*
X23421670Y73512655D01*
X23958234Y73289854D01*
X24539217Y73289347D01*
X25076169Y73511211D01*
X25187200Y73622048D01*
X25187200Y29750000D01*
X25228132Y29544224D01*
X25249071Y29438955D01*
X25425264Y29175264D01*
X26449610Y28150917D01*
X26449610Y26320132D01*
X26438253Y26323032D01*
X26211600Y26191309D01*
X26211600Y24601600D01*
X26231600Y24601600D01*
X26231600Y24398400D01*
X26211600Y24398400D01*
X26211600Y22808691D01*
X26438253Y22676968D01*
X26575005Y22711885D01*
X26939910Y22920618D01*
X31101320Y18759207D01*
X30631129Y18665681D01*
X30157341Y18349106D01*
X29920000Y17993900D01*
X29682659Y18349106D01*
X29208871Y18665681D01*
X28650000Y18776847D01*
X28091129Y18665681D01*
X27617341Y18349106D01*
X27380000Y17993900D01*
X27142659Y18349106D01*
X26668871Y18665681D01*
X26110000Y18776847D01*
X25551129Y18665681D01*
X25077341Y18349106D01*
X24760766Y17875318D01*
X24649600Y17316447D01*
X24649600Y16443553D01*
X24760766Y15884682D01*
X25077341Y15410894D01*
X25551129Y15094319D01*
X26110000Y14983153D01*
X26668871Y15094319D01*
X27142659Y15410894D01*
X27380000Y15766100D01*
X27617341Y15410894D01*
X27837200Y15263989D01*
X27837200Y13600000D01*
X27899071Y13288955D01*
X28075264Y13025264D01*
X29107200Y11993327D01*
X29107200Y11518133D01*
X28851986Y11347604D01*
X28650000Y11045311D01*
X28448014Y11347604D01*
X27958005Y11675018D01*
X27380000Y11789990D01*
X26801995Y11675018D01*
X26311986Y11347604D01*
X25984572Y10857595D01*
X25869600Y10279590D01*
X25869600Y10220410D01*
X25984572Y9642405D01*
X26311986Y9152396D01*
X26801995Y8824982D01*
X27380000Y8710010D01*
X27958005Y8824982D01*
X28448014Y9152396D01*
X28650000Y9454689D01*
X28851986Y9152396D01*
X29341995Y8824982D01*
X29920000Y8710010D01*
X30498005Y8824982D01*
X30988014Y9152396D01*
X31190000Y9454689D01*
X31391986Y9152396D01*
X31881995Y8824982D01*
X32460000Y8710010D01*
X33038005Y8824982D01*
X33528014Y9152396D01*
X33730000Y9454689D01*
X33931986Y9152396D01*
X34421995Y8824982D01*
X35000000Y8710010D01*
X35578005Y8824982D01*
X36068014Y9152396D01*
X36270000Y9454689D01*
X36471986Y9152396D01*
X36961995Y8824982D01*
X37540000Y8710010D01*
X38118005Y8824982D01*
X38608014Y9152396D01*
X38811764Y9457329D01*
X38848168Y9375973D01*
X39276411Y8971103D01*
X39743907Y8777468D01*
X39978400Y8908542D01*
X39978400Y10148400D01*
X39958400Y10148400D01*
X39958400Y10351600D01*
X39978400Y10351600D01*
X39978400Y11591458D01*
X40181600Y11591458D01*
X40181600Y10351600D01*
X40201600Y10351600D01*
X40201600Y10148400D01*
X40181600Y10148400D01*
X40181600Y8908542D01*
X40416093Y8777468D01*
X40883589Y8971103D01*
X41132997Y9206898D01*
X41142711Y9155270D01*
X41287346Y8930501D01*
X41508034Y8779712D01*
X41770000Y8726662D01*
X43470000Y8726662D01*
X43714730Y8772711D01*
X43939499Y8917346D01*
X44090288Y9138034D01*
X44143338Y9400000D01*
X44143338Y11100000D01*
X44097289Y11344730D01*
X43952654Y11569499D01*
X43731966Y11720288D01*
X43470000Y11773338D01*
X41770000Y11773338D01*
X41525270Y11727289D01*
X41300501Y11582654D01*
X41149712Y11361966D01*
X41135321Y11290904D01*
X40883589Y11528897D01*
X40416093Y11722532D01*
X40181600Y11591458D01*
X39978400Y11591458D01*
X39743907Y11722532D01*
X39622800Y11672370D01*
X39622800Y15263989D01*
X39842659Y15410894D01*
X40080000Y15766100D01*
X40317341Y15410894D01*
X40791129Y15094319D01*
X41350000Y14983153D01*
X41908871Y15094319D01*
X42382659Y15410894D01*
X42620000Y15766100D01*
X42857341Y15410894D01*
X43331129Y15094319D01*
X43890000Y14983153D01*
X44448871Y15094319D01*
X44922659Y15410894D01*
X45239234Y15884682D01*
X45350400Y16443553D01*
X45350400Y17316447D01*
X45239234Y17875318D01*
X44922659Y18349106D01*
X44448871Y18665681D01*
X43890000Y18776847D01*
X43331129Y18665681D01*
X42857341Y18349106D01*
X42620000Y17993900D01*
X42382659Y18349106D01*
X41908871Y18665681D01*
X41350000Y18776847D01*
X40791129Y18665681D01*
X40317341Y18349106D01*
X40080000Y17993900D01*
X39842659Y18349106D01*
X39368871Y18665681D01*
X38810000Y18776847D01*
X38251129Y18665681D01*
X37777341Y18349106D01*
X37540000Y17993900D01*
X37302659Y18349106D01*
X36828871Y18665681D01*
X36270000Y18776847D01*
X35980258Y18719214D01*
X33312800Y21386672D01*
X33312800Y22686139D01*
X33730000Y22603153D01*
X34288871Y22714319D01*
X34762659Y23030894D01*
X35000000Y23386100D01*
X35237341Y23030894D01*
X35711129Y22714319D01*
X36270000Y22603153D01*
X36828871Y22714319D01*
X37302659Y23030894D01*
X37540000Y23386100D01*
X37777341Y23030894D01*
X38251129Y22714319D01*
X38810000Y22603153D01*
X39368871Y22714319D01*
X39842659Y23030894D01*
X40080000Y23386100D01*
X40317341Y23030894D01*
X40791129Y22714319D01*
X41350000Y22603153D01*
X41908871Y22714319D01*
X42382659Y23030894D01*
X42448700Y23129732D01*
X42462711Y23055270D01*
X42607346Y22830501D01*
X42828034Y22679712D01*
X43090000Y22626662D01*
X44690000Y22626662D01*
X44934730Y22672711D01*
X45159499Y22817346D01*
X45310288Y23038034D01*
X45363338Y23300000D01*
X45363338Y25700000D01*
X45317289Y25944730D01*
X45172654Y26169499D01*
X44951966Y26320288D01*
X44812800Y26348470D01*
X44812800Y30289763D01*
X45190197Y30289434D01*
X45543312Y30435338D01*
X45813712Y30705267D01*
X45960233Y31058127D01*
X45960566Y31440197D01*
X45814662Y31793312D01*
X45812800Y31795177D01*
X45812800Y73350244D01*
X45958234Y73289854D01*
X46539217Y73289347D01*
X47076169Y73511211D01*
X47264600Y73699313D01*
X47264600Y10000000D01*
X47278731Y9928960D01*
X47278731Y9856531D01*
X47306448Y9789617D01*
X47320579Y9718575D01*
X47360821Y9658349D01*
X47388538Y9591434D01*
X47439753Y9540219D01*
X47479994Y9479994D01*
X47540217Y9439754D01*
X47591434Y9388537D01*
X47658353Y9360818D01*
X47718575Y9320579D01*
X47789612Y9306449D01*
X47856531Y9278730D01*
X49626479Y8926666D01*
X51005340Y8005340D01*
X51926666Y6626478D01*
X52250192Y5000000D01*
X51926666Y3373522D01*
X51005340Y1994660D01*
X49626479Y1073334D01*
X47927567Y735400D01*
X22072433Y735400D01*
X20373522Y1073334D01*
X18994660Y1994660D01*
X18073334Y3373521D01*
X17749808Y5000000D01*
X20264600Y5000000D01*
X20396699Y4335891D01*
X20772887Y3772887D01*
X21335891Y3396699D01*
X22000000Y3264600D01*
X22664109Y3396699D01*
X23227113Y3772887D01*
X23603301Y4335891D01*
X23735400Y5000000D01*
X46264600Y5000000D01*
X46396699Y4335891D01*
X46772887Y3772887D01*
X47335891Y3396699D01*
X48000000Y3264600D01*
X48664109Y3396699D01*
X49227113Y3772887D01*
X49603301Y4335891D01*
X49735400Y5000000D01*
X49603301Y5664109D01*
X49227113Y6227113D01*
X48664109Y6603301D01*
X48000000Y6735400D01*
X47335891Y6603301D01*
X46772887Y6227113D01*
X46396699Y5664109D01*
X46264600Y5000000D01*
X23735400Y5000000D01*
X23603301Y5664109D01*
X23227113Y6227113D01*
X22664109Y6603301D01*
X22000000Y6735400D01*
X21335891Y6603301D01*
X20772887Y6227113D01*
X20396699Y5664109D01*
X20264600Y5000000D01*
X17749808Y5000000D01*
X18073334Y6626479D01*
X18994660Y8005340D01*
X20373522Y8926666D01*
X22143469Y9278730D01*
X22210388Y9306449D01*
X22281425Y9320579D01*
X22341647Y9360818D01*
X22408566Y9388537D01*
X22459783Y9439754D01*
X22520006Y9479994D01*
X22560247Y9540219D01*
X22611462Y9591434D01*
X22639179Y9658349D01*
X22679421Y9718575D01*
X22693552Y9789617D01*
X22721269Y9856531D01*
X22721269Y9928960D01*
X22735400Y10000000D01*
X22735400Y24398400D01*
X24649600Y24398400D01*
X24649600Y23998400D01*
X24799647Y23447263D01*
X25149183Y22995499D01*
X25644995Y22711885D01*
X25781747Y22676968D01*
X26008400Y22808691D01*
X26008400Y24398400D01*
X24649600Y24398400D01*
X22735400Y24398400D01*
X22735400Y25001600D01*
X24649600Y25001600D01*
X24649600Y24601600D01*
X26008400Y24601600D01*
X26008400Y26191309D01*
X25781747Y26323032D01*
X25644995Y26288115D01*
X25149183Y26004501D01*
X24799647Y25552737D01*
X24649600Y25001600D01*
X22735400Y25001600D01*
X22735400Y80000000D01*
X22679421Y80281425D01*
X22520006Y80520006D01*
X22281425Y80679421D01*
X22000000Y80735400D01*
X10072433Y80735400D01*
X6460107Y81453936D01*
X3459126Y83459126D01*
X1453936Y86460106D01*
X1213851Y87667099D01*
X7810783Y87667099D01*
X7869098Y87421147D01*
X8375862Y87231178D01*
X8916749Y87249599D01*
X9330902Y87421147D01*
X9389217Y87667099D01*
X8600000Y88456316D01*
X7810783Y87667099D01*
X1213851Y87667099D01*
X983701Y88824138D01*
X7231178Y88824138D01*
X7249599Y88283251D01*
X7421147Y87869098D01*
X7667099Y87810783D01*
X8456316Y88600000D01*
X8743684Y88600000D01*
X9532901Y87810783D01*
X9778853Y87869098D01*
X9968822Y88375862D01*
X9950401Y88916749D01*
X9778853Y89330902D01*
X9532901Y89389217D01*
X8743684Y88600000D01*
X8456316Y88600000D01*
X7667099Y89389217D01*
X7421147Y89330902D01*
X7231178Y88824138D01*
X983701Y88824138D01*
X842719Y89532901D01*
X7810783Y89532901D01*
X8600000Y88743684D01*
X9389217Y89532901D01*
X9330902Y89778853D01*
X8824138Y89968822D01*
X8283251Y89950401D01*
X7869098Y89778853D01*
X7810783Y89532901D01*
X842719Y89532901D01*
X749807Y90000000D01*
X974694Y91130587D01*
X7239364Y91130587D01*
X7446036Y90630402D01*
X7828389Y90247381D01*
X8328213Y90039836D01*
X8869413Y90039364D01*
X9369598Y90246036D01*
X9752619Y90628389D01*
X9960164Y91128213D01*
X9960636Y91669413D01*
X9753964Y92169598D01*
X9371611Y92552619D01*
X8871787Y92760164D01*
X8330587Y92760636D01*
X7830402Y92553964D01*
X7447381Y92171611D01*
X7239836Y91671787D01*
X7239364Y91130587D01*
X974694Y91130587D01*
X1453936Y93539894D01*
X2904477Y95710783D01*
X8539347Y95710783D01*
X8761211Y95173831D01*
X9171670Y94762655D01*
X9708234Y94539854D01*
X10289217Y94539347D01*
X10304759Y94545769D01*
X10587200Y94263328D01*
X10587200Y92510837D01*
X10247381Y92171611D01*
X10039836Y91671787D01*
X10039364Y91130587D01*
X10246036Y90630402D01*
X10628389Y90247381D01*
X11128213Y90039836D01*
X11669413Y90039364D01*
X12169598Y90246036D01*
X12552619Y90628389D01*
X12760164Y91128213D01*
X12760166Y91130587D01*
X17239364Y91130587D01*
X17446036Y90630402D01*
X17828389Y90247381D01*
X18328213Y90039836D01*
X18869413Y90039364D01*
X19369598Y90246036D01*
X19591047Y90467099D01*
X20610783Y90467099D01*
X20669098Y90221147D01*
X21175862Y90031178D01*
X21716749Y90049599D01*
X22130902Y90221147D01*
X22189217Y90467099D01*
X21400000Y91256316D01*
X20610783Y90467099D01*
X19591047Y90467099D01*
X19752619Y90628389D01*
X19960164Y91128213D01*
X19960596Y91624138D01*
X20031178Y91624138D01*
X20049599Y91083251D01*
X20221147Y90669098D01*
X20467099Y90610783D01*
X21256316Y91400000D01*
X21543684Y91400000D01*
X22332901Y90610783D01*
X22578853Y90669098D01*
X22751849Y91130587D01*
X27239364Y91130587D01*
X27446036Y90630402D01*
X27828389Y90247381D01*
X28328213Y90039836D01*
X28869413Y90039364D01*
X29369598Y90246036D01*
X29752619Y90628389D01*
X29960164Y91128213D01*
X29960636Y91669413D01*
X29753964Y92169598D01*
X29371611Y92552619D01*
X28871787Y92760164D01*
X28330587Y92760636D01*
X27830402Y92553964D01*
X27447381Y92171611D01*
X27239836Y91671787D01*
X27239364Y91130587D01*
X22751849Y91130587D01*
X22768822Y91175862D01*
X22750401Y91716749D01*
X22578853Y92130902D01*
X22332901Y92189217D01*
X21543684Y91400000D01*
X21256316Y91400000D01*
X20467099Y92189217D01*
X20221147Y92130902D01*
X20031178Y91624138D01*
X19960596Y91624138D01*
X19960636Y91669413D01*
X19753964Y92169598D01*
X19590946Y92332901D01*
X20610783Y92332901D01*
X21400000Y91543684D01*
X22189217Y92332901D01*
X22130902Y92578853D01*
X21624138Y92768822D01*
X21083251Y92750401D01*
X20669098Y92578853D01*
X20610783Y92332901D01*
X19590946Y92332901D01*
X19412800Y92511358D01*
X19412800Y94103328D01*
X19895912Y94586439D01*
X20131389Y94539600D01*
X20188611Y94539600D01*
X20747482Y94650766D01*
X21221270Y94967341D01*
X21537845Y95441129D01*
X21649011Y96000000D01*
X21537845Y96558871D01*
X21221270Y97032659D01*
X20895997Y97250000D01*
X23264600Y97250000D01*
X23396699Y96585891D01*
X23772887Y96022887D01*
X24335891Y95646699D01*
X25000000Y95514600D01*
X25664109Y95646699D01*
X25760017Y95710783D01*
X28539347Y95710783D01*
X28761211Y95173831D01*
X29171670Y94762655D01*
X29708234Y94539854D01*
X30289217Y94539347D01*
X30304759Y94545769D01*
X30587200Y94263328D01*
X30587200Y92510837D01*
X30247381Y92171611D01*
X30039836Y91671787D01*
X30039364Y91130587D01*
X30246036Y90630402D01*
X30628389Y90247381D01*
X31128213Y90039836D01*
X31669413Y90039364D01*
X32169598Y90246036D01*
X32552619Y90628389D01*
X32760164Y91128213D01*
X32760166Y91130587D01*
X37239364Y91130587D01*
X37446036Y90630402D01*
X37828389Y90247381D01*
X38328213Y90039836D01*
X38869413Y90039364D01*
X39369598Y90246036D01*
X39591047Y90467099D01*
X40610783Y90467099D01*
X40669098Y90221147D01*
X41175862Y90031178D01*
X41716749Y90049599D01*
X42130902Y90221147D01*
X42189217Y90467099D01*
X41400000Y91256316D01*
X40610783Y90467099D01*
X39591047Y90467099D01*
X39752619Y90628389D01*
X39960164Y91128213D01*
X39960596Y91624138D01*
X40031178Y91624138D01*
X40049599Y91083251D01*
X40221147Y90669098D01*
X40467099Y90610783D01*
X41256316Y91400000D01*
X41543684Y91400000D01*
X42332901Y90610783D01*
X42578853Y90669098D01*
X42751849Y91130587D01*
X47239364Y91130587D01*
X47446036Y90630402D01*
X47828389Y90247381D01*
X48328213Y90039836D01*
X48869413Y90039364D01*
X49369598Y90246036D01*
X49752619Y90628389D01*
X49960164Y91128213D01*
X49960636Y91669413D01*
X49753964Y92169598D01*
X49371611Y92552619D01*
X48871787Y92760164D01*
X48330587Y92760636D01*
X47830402Y92553964D01*
X47447381Y92171611D01*
X47239836Y91671787D01*
X47239364Y91130587D01*
X42751849Y91130587D01*
X42768822Y91175862D01*
X42750401Y91716749D01*
X42578853Y92130902D01*
X42332901Y92189217D01*
X41543684Y91400000D01*
X41256316Y91400000D01*
X40467099Y92189217D01*
X40221147Y92130902D01*
X40031178Y91624138D01*
X39960596Y91624138D01*
X39960636Y91669413D01*
X39753964Y92169598D01*
X39590946Y92332901D01*
X40610783Y92332901D01*
X41400000Y91543684D01*
X42189217Y92332901D01*
X42130902Y92578853D01*
X41624138Y92768822D01*
X41083251Y92750401D01*
X40669098Y92578853D01*
X40610783Y92332901D01*
X39590946Y92332901D01*
X39412800Y92511358D01*
X39412800Y94103328D01*
X39895912Y94586439D01*
X40131389Y94539600D01*
X40188611Y94539600D01*
X40747482Y94650766D01*
X41221270Y94967341D01*
X41537845Y95441129D01*
X41649011Y96000000D01*
X41537845Y96558871D01*
X41221270Y97032659D01*
X40895997Y97250000D01*
X43264600Y97250000D01*
X43396699Y96585891D01*
X43772887Y96022887D01*
X44335891Y95646699D01*
X45000000Y95514600D01*
X45664109Y95646699D01*
X45760017Y95710783D01*
X48289347Y95710783D01*
X48511211Y95173831D01*
X48921670Y94762655D01*
X49458234Y94539854D01*
X50039217Y94539347D01*
X50054759Y94545769D01*
X50587200Y94013327D01*
X50587200Y92510837D01*
X50247381Y92171611D01*
X50039836Y91671787D01*
X50039364Y91130587D01*
X50246036Y90630402D01*
X50628389Y90247381D01*
X51128213Y90039836D01*
X51669413Y90039364D01*
X52169598Y90246036D01*
X52552619Y90628389D01*
X52760164Y91128213D01*
X52760166Y91130587D01*
X57239364Y91130587D01*
X57446036Y90630402D01*
X57828389Y90247381D01*
X58328213Y90039836D01*
X58869413Y90039364D01*
X59369598Y90246036D01*
X59591047Y90467099D01*
X60610783Y90467099D01*
X60669098Y90221147D01*
X61175862Y90031178D01*
X61716749Y90049599D01*
X62130902Y90221147D01*
X62189217Y90467099D01*
X61400000Y91256316D01*
X60610783Y90467099D01*
X59591047Y90467099D01*
X59752619Y90628389D01*
X59960164Y91128213D01*
X59960596Y91624138D01*
X60031178Y91624138D01*
X60049599Y91083251D01*
X60221147Y90669098D01*
X60467099Y90610783D01*
X61256316Y91400000D01*
X61543684Y91400000D01*
X62332901Y90610783D01*
X62578853Y90669098D01*
X62768822Y91175862D01*
X62750401Y91716749D01*
X62578853Y92130902D01*
X62332901Y92189217D01*
X61543684Y91400000D01*
X61256316Y91400000D01*
X60467099Y92189217D01*
X60221147Y92130902D01*
X60031178Y91624138D01*
X59960596Y91624138D01*
X59960636Y91669413D01*
X59753964Y92169598D01*
X59590946Y92332901D01*
X60610783Y92332901D01*
X61400000Y91543684D01*
X62189217Y92332901D01*
X62130902Y92578853D01*
X61624138Y92768822D01*
X61083251Y92750401D01*
X60669098Y92578853D01*
X60610783Y92332901D01*
X59590946Y92332901D01*
X59412800Y92511358D01*
X59412800Y94353328D01*
X59645912Y94586439D01*
X59881389Y94539600D01*
X59938611Y94539600D01*
X60497482Y94650766D01*
X60971270Y94967341D01*
X61287845Y95441129D01*
X61399011Y96000000D01*
X61287845Y96558871D01*
X60971270Y97032659D01*
X60497482Y97349234D01*
X59938611Y97460400D01*
X59881389Y97460400D01*
X59322518Y97349234D01*
X58848730Y97032659D01*
X58532155Y96558871D01*
X58420989Y96000000D01*
X58477322Y95716794D01*
X58025264Y95264736D01*
X57849071Y95001045D01*
X57787200Y94690000D01*
X57787200Y92510837D01*
X57447381Y92171611D01*
X57239836Y91671787D01*
X57239364Y91130587D01*
X52760166Y91130587D01*
X52760636Y91669413D01*
X52553964Y92169598D01*
X52212800Y92511358D01*
X52212800Y94350000D01*
X52150929Y94661045D01*
X52084000Y94761211D01*
X51974736Y94924737D01*
X51204598Y95694874D01*
X51210146Y95708234D01*
X51210653Y96289217D01*
X50988789Y96826169D01*
X50578330Y97237345D01*
X50041766Y97460146D01*
X49460783Y97460653D01*
X48923831Y97238789D01*
X48512655Y96828330D01*
X48289854Y96291766D01*
X48289347Y95710783D01*
X45760017Y95710783D01*
X46227113Y96022887D01*
X46603301Y96585891D01*
X46735400Y97250000D01*
X46603301Y97914109D01*
X46227113Y98477113D01*
X45664109Y98853301D01*
X45000000Y98985400D01*
X44335891Y98853301D01*
X43772887Y98477113D01*
X43396699Y97914109D01*
X43264600Y97250000D01*
X40895997Y97250000D01*
X40747482Y97349234D01*
X40188611Y97460400D01*
X40131389Y97460400D01*
X39572518Y97349234D01*
X39098730Y97032659D01*
X38782155Y96558871D01*
X38670989Y96000000D01*
X38727322Y95716794D01*
X38025264Y95014736D01*
X37849071Y94751045D01*
X37787200Y94440000D01*
X37787200Y92510837D01*
X37447381Y92171611D01*
X37239836Y91671787D01*
X37239364Y91130587D01*
X32760166Y91130587D01*
X32760636Y91669413D01*
X32553964Y92169598D01*
X32212800Y92511358D01*
X32212800Y94600000D01*
X32150929Y94911045D01*
X31974736Y95174736D01*
X31454598Y95694874D01*
X31460146Y95708234D01*
X31460653Y96289217D01*
X31238789Y96826169D01*
X30828330Y97237345D01*
X30291766Y97460146D01*
X29710783Y97460653D01*
X29173831Y97238789D01*
X28762655Y96828330D01*
X28539854Y96291766D01*
X28539347Y95710783D01*
X25760017Y95710783D01*
X26227113Y96022887D01*
X26603301Y96585891D01*
X26735400Y97250000D01*
X26603301Y97914109D01*
X26227113Y98477113D01*
X25664109Y98853301D01*
X25000000Y98985400D01*
X24335891Y98853301D01*
X23772887Y98477113D01*
X23396699Y97914109D01*
X23264600Y97250000D01*
X20895997Y97250000D01*
X20747482Y97349234D01*
X20188611Y97460400D01*
X20131389Y97460400D01*
X19572518Y97349234D01*
X19098730Y97032659D01*
X18782155Y96558871D01*
X18670989Y96000000D01*
X18727322Y95716794D01*
X18025264Y95014736D01*
X17849071Y94751045D01*
X17787200Y94440000D01*
X17787200Y92510837D01*
X17447381Y92171611D01*
X17239836Y91671787D01*
X17239364Y91130587D01*
X12760166Y91130587D01*
X12760636Y91669413D01*
X12553964Y92169598D01*
X12212800Y92511358D01*
X12212800Y94600000D01*
X12150929Y94911045D01*
X11974736Y95174736D01*
X11454598Y95694874D01*
X11460146Y95708234D01*
X11460653Y96289217D01*
X11238789Y96826169D01*
X10828330Y97237345D01*
X10291766Y97460146D01*
X9710783Y97460653D01*
X9173831Y97238789D01*
X8762655Y96828330D01*
X8539854Y96291766D01*
X8539347Y95710783D01*
X2904477Y95710783D01*
X3459126Y96540874D01*
X6460107Y98546064D01*
X10072433Y99264600D01*
X59927572Y99264600D01*
X63539894Y98546064D01*
X63539894Y98546064D01*
G37*
X63539894Y98546064D02*
X66540874Y96540874D01*
X68546064Y93539893D01*
X69250192Y90000000D01*
X68546064Y86460107D01*
X66540874Y83459126D01*
X63539894Y81453936D01*
X59927572Y80735400D01*
X48134873Y80735400D01*
X48336673Y80937200D01*
X59410000Y80937200D01*
X59721045Y80999071D01*
X59984736Y81175264D01*
X61145911Y82336439D01*
X61381389Y82289600D01*
X61438611Y82289600D01*
X61997482Y82400766D01*
X62471270Y82717341D01*
X62787845Y83191129D01*
X62899011Y83750000D01*
X62787845Y84308871D01*
X62471270Y84782659D01*
X62212800Y84955363D01*
X62212800Y87489163D01*
X62552619Y87828389D01*
X62760164Y88328213D01*
X62760636Y88869413D01*
X62553964Y89369598D01*
X62171611Y89752619D01*
X61671787Y89960164D01*
X61130587Y89960636D01*
X60630402Y89753964D01*
X60247381Y89371611D01*
X60039836Y88871787D01*
X60039364Y88330587D01*
X60246036Y87830402D01*
X60587200Y87488642D01*
X60587200Y84942000D01*
X60348730Y84782659D01*
X60032155Y84308871D01*
X59920989Y83750000D01*
X59977322Y83466794D01*
X59073328Y82562800D01*
X52127848Y82562800D01*
X52487345Y82921670D01*
X52710146Y83458234D01*
X52710653Y84039217D01*
X52488789Y84576169D01*
X52078330Y84987345D01*
X51541766Y85210146D01*
X50960783Y85210653D01*
X50423831Y84988789D01*
X50012655Y84578330D01*
X49789854Y84041766D01*
X49789347Y83460783D01*
X50011211Y82923831D01*
X50371612Y82562800D01*
X48000000Y82562800D01*
X47688955Y82500929D01*
X47425264Y82324737D01*
X44812800Y79712272D01*
X44812800Y83410000D01*
X44750929Y83721045D01*
X44724900Y83760000D01*
X44574736Y83984737D01*
X43913561Y84645912D01*
X43960400Y84881389D01*
X43960400Y84938611D01*
X44789600Y84938611D01*
X44789600Y84881389D01*
X44900766Y84322518D01*
X45217341Y83848730D01*
X45691129Y83532155D01*
X46250000Y83420989D01*
X46808871Y83532155D01*
X47282659Y83848730D01*
X47448681Y84097200D01*
X47710000Y84097200D01*
X48021045Y84159071D01*
X48284736Y84335264D01*
X51189255Y87239783D01*
X51669413Y87239364D01*
X52169598Y87446036D01*
X52391047Y87667099D01*
X57810783Y87667099D01*
X57869098Y87421147D01*
X58375862Y87231178D01*
X58916749Y87249599D01*
X59330902Y87421147D01*
X59389217Y87667099D01*
X58600000Y88456316D01*
X57810783Y87667099D01*
X52391047Y87667099D01*
X52552619Y87828389D01*
X52760164Y88328213D01*
X52760596Y88824138D01*
X57231178Y88824138D01*
X57249599Y88283251D01*
X57421147Y87869098D01*
X57667099Y87810783D01*
X58456316Y88600000D01*
X58743684Y88600000D01*
X59532901Y87810783D01*
X59778853Y87869098D01*
X59968822Y88375862D01*
X59950401Y88916749D01*
X59778853Y89330902D01*
X59532901Y89389217D01*
X58743684Y88600000D01*
X58456316Y88600000D01*
X57667099Y89389217D01*
X57421147Y89330902D01*
X57231178Y88824138D01*
X52760596Y88824138D01*
X52760636Y88869413D01*
X52553964Y89369598D01*
X52390946Y89532901D01*
X57810783Y89532901D01*
X58600000Y88743684D01*
X59389217Y89532901D01*
X59330902Y89778853D01*
X58824138Y89968822D01*
X58283251Y89950401D01*
X57869098Y89778853D01*
X57810783Y89532901D01*
X52390946Y89532901D01*
X52171611Y89752619D01*
X51671787Y89960164D01*
X51130587Y89960636D01*
X50630402Y89753964D01*
X50247381Y89371611D01*
X50039836Y88871787D01*
X50039415Y88388887D01*
X49934301Y88283773D01*
X49968822Y88375862D01*
X49950401Y88916749D01*
X49778853Y89330902D01*
X49532901Y89389217D01*
X48743684Y88600000D01*
X48757827Y88585857D01*
X48614143Y88442173D01*
X48600000Y88456316D01*
X47810783Y87667099D01*
X47869098Y87421147D01*
X48375862Y87231178D01*
X48899541Y87249013D01*
X47418499Y85767971D01*
X47282659Y85971270D01*
X46808871Y86287845D01*
X46250000Y86399011D01*
X45691129Y86287845D01*
X45217341Y85971270D01*
X44900766Y85497482D01*
X44789600Y84938611D01*
X43960400Y84938611D01*
X43849234Y85497482D01*
X43532659Y85971270D01*
X43058871Y86287845D01*
X42500000Y86399011D01*
X42216794Y86342678D01*
X42212800Y86346672D01*
X42212800Y87489163D01*
X42552619Y87828389D01*
X42760164Y88328213D01*
X42760596Y88824138D01*
X47231178Y88824138D01*
X47249599Y88283251D01*
X47421147Y87869098D01*
X47667099Y87810783D01*
X48456316Y88600000D01*
X47667099Y89389217D01*
X47421147Y89330902D01*
X47231178Y88824138D01*
X42760596Y88824138D01*
X42760636Y88869413D01*
X42553964Y89369598D01*
X42390946Y89532901D01*
X47810783Y89532901D01*
X48600000Y88743684D01*
X49389217Y89532901D01*
X49330902Y89778853D01*
X48824138Y89968822D01*
X48283251Y89950401D01*
X47869098Y89778853D01*
X47810783Y89532901D01*
X42390946Y89532901D01*
X42171611Y89752619D01*
X41671787Y89960164D01*
X41130587Y89960636D01*
X40630402Y89753964D01*
X40247381Y89371611D01*
X40039836Y88871787D01*
X40039364Y88330587D01*
X40246036Y87830402D01*
X40587200Y87488642D01*
X40587200Y86010000D01*
X40644328Y85722800D01*
X40649071Y85698955D01*
X40825264Y85435264D01*
X41086439Y85174089D01*
X41039600Y84938611D01*
X41039600Y84881389D01*
X41150766Y84322518D01*
X41467341Y83848730D01*
X41941129Y83532155D01*
X42500000Y83420989D01*
X42783206Y83477322D01*
X43187200Y83073327D01*
X43187200Y76045947D01*
X42791766Y76210146D01*
X42210783Y76210653D01*
X41673831Y75988789D01*
X41485400Y75800687D01*
X41485400Y80000000D01*
X41429421Y80281425D01*
X41270006Y80520006D01*
X41031425Y80679421D01*
X40750000Y80735400D01*
X29634872Y80735400D01*
X31836672Y82937200D01*
X36451825Y82937200D01*
X36598730Y82717341D01*
X37072518Y82400766D01*
X37631389Y82289600D01*
X37688611Y82289600D01*
X38247482Y82400766D01*
X38721270Y82717341D01*
X39037845Y83191129D01*
X39149011Y83750000D01*
X39037845Y84308871D01*
X38721270Y84782659D01*
X38247482Y85099234D01*
X37688611Y85210400D01*
X37631389Y85210400D01*
X37395912Y85163561D01*
X34892374Y87667099D01*
X37810783Y87667099D01*
X37869098Y87421147D01*
X38375862Y87231178D01*
X38916749Y87249599D01*
X39330902Y87421147D01*
X39389217Y87667099D01*
X38600000Y88456316D01*
X37810783Y87667099D01*
X34892374Y87667099D01*
X33735335Y88824138D01*
X37231178Y88824138D01*
X37249599Y88283251D01*
X37421147Y87869098D01*
X37667099Y87810783D01*
X38456316Y88600000D01*
X38743684Y88600000D01*
X39532901Y87810783D01*
X39778853Y87869098D01*
X39968822Y88375862D01*
X39950401Y88916749D01*
X39778853Y89330902D01*
X39532901Y89389217D01*
X38743684Y88600000D01*
X38456316Y88600000D01*
X37667099Y89389217D01*
X37421147Y89330902D01*
X37231178Y88824138D01*
X33735335Y88824138D01*
X33384736Y89174736D01*
X33121045Y89350929D01*
X32810000Y89412800D01*
X32510837Y89412800D01*
X32390946Y89532901D01*
X37810783Y89532901D01*
X38600000Y88743684D01*
X39389217Y89532901D01*
X39330902Y89778853D01*
X38824138Y89968822D01*
X38283251Y89950401D01*
X37869098Y89778853D01*
X37810783Y89532901D01*
X32390946Y89532901D01*
X32171611Y89752619D01*
X31671787Y89960164D01*
X31130587Y89960636D01*
X30630402Y89753964D01*
X30247381Y89371611D01*
X30039836Y88871787D01*
X30039364Y88330587D01*
X30246036Y87830402D01*
X30628389Y87447381D01*
X31128213Y87239836D01*
X31669413Y87239364D01*
X32169598Y87446036D01*
X32492326Y87768202D01*
X35697727Y84562800D01*
X33710455Y84562800D01*
X33710566Y84690197D01*
X33564662Y85043312D01*
X33294733Y85313712D01*
X32941873Y85460233D01*
X32559803Y85460566D01*
X32206688Y85314662D01*
X32204823Y85312800D01*
X31536090Y85312800D01*
X31225045Y85250929D01*
X30961353Y85074736D01*
X27807989Y81921371D01*
X27807989Y82164811D01*
X27783216Y82289352D01*
X27789217Y82289347D01*
X28326169Y82511211D01*
X28737345Y82921670D01*
X28960146Y83458234D01*
X28960653Y84039217D01*
X28738789Y84576169D01*
X28328330Y84987345D01*
X27791766Y85210146D01*
X27210783Y85210653D01*
X26673831Y84988789D01*
X26262655Y84578330D01*
X26106707Y84202766D01*
X25663561Y84645912D01*
X25710400Y84881389D01*
X25710400Y84938611D01*
X25599234Y85497482D01*
X25282659Y85971270D01*
X24882065Y86238938D01*
X24824737Y86324736D01*
X23482374Y87667099D01*
X27810783Y87667099D01*
X27869098Y87421147D01*
X28375862Y87231178D01*
X28916749Y87249599D01*
X29330902Y87421147D01*
X29389217Y87667099D01*
X28600000Y88456316D01*
X27810783Y87667099D01*
X23482374Y87667099D01*
X22760217Y88389255D01*
X22760596Y88824138D01*
X27231178Y88824138D01*
X27249599Y88283251D01*
X27421147Y87869098D01*
X27667099Y87810783D01*
X28456316Y88600000D01*
X28743684Y88600000D01*
X29532901Y87810783D01*
X29778853Y87869098D01*
X29968822Y88375862D01*
X29950401Y88916749D01*
X29778853Y89330902D01*
X29532901Y89389217D01*
X28743684Y88600000D01*
X28456316Y88600000D01*
X27667099Y89389217D01*
X27421147Y89330902D01*
X27231178Y88824138D01*
X22760596Y88824138D01*
X22760636Y88869413D01*
X22553964Y89369598D01*
X22390946Y89532901D01*
X27810783Y89532901D01*
X28600000Y88743684D01*
X29389217Y89532901D01*
X29330902Y89778853D01*
X28824138Y89968822D01*
X28283251Y89950401D01*
X27869098Y89778853D01*
X27810783Y89532901D01*
X22390946Y89532901D01*
X22171611Y89752619D01*
X21671787Y89960164D01*
X21130587Y89960636D01*
X20630402Y89753964D01*
X20247381Y89371611D01*
X20039836Y88871787D01*
X20039364Y88330587D01*
X20246036Y87830402D01*
X20628389Y87447381D01*
X21128213Y87239836D01*
X21611113Y87239415D01*
X23081924Y85768604D01*
X22900766Y85497482D01*
X22789600Y84938611D01*
X22789600Y84881389D01*
X22900766Y84322518D01*
X23217341Y83848730D01*
X23691129Y83532155D01*
X24250000Y83420989D01*
X24533206Y83477322D01*
X26182389Y81828138D01*
X26182389Y80217084D01*
X23824736Y82574736D01*
X23561045Y82750929D01*
X23250000Y82812800D01*
X20628285Y82812800D01*
X20737345Y82921670D01*
X20960146Y83458234D01*
X20960653Y84039217D01*
X20738789Y84576169D01*
X20328330Y84987345D01*
X19791766Y85210146D01*
X19210783Y85210653D01*
X18673831Y84988789D01*
X18262655Y84578330D01*
X18039854Y84041766D01*
X18039347Y83460783D01*
X18261211Y82923831D01*
X18372048Y82812800D01*
X13586673Y82812800D01*
X12212800Y84186672D01*
X12212800Y87489163D01*
X12391047Y87667099D01*
X17810783Y87667099D01*
X17869098Y87421147D01*
X18375862Y87231178D01*
X18916749Y87249599D01*
X19330902Y87421147D01*
X19389217Y87667099D01*
X18600000Y88456316D01*
X17810783Y87667099D01*
X12391047Y87667099D01*
X12552619Y87828389D01*
X12760164Y88328213D01*
X12760596Y88824138D01*
X17231178Y88824138D01*
X17249599Y88283251D01*
X17421147Y87869098D01*
X17667099Y87810783D01*
X18456316Y88600000D01*
X18743684Y88600000D01*
X19532901Y87810783D01*
X19778853Y87869098D01*
X19968822Y88375862D01*
X19950401Y88916749D01*
X19778853Y89330902D01*
X19532901Y89389217D01*
X18743684Y88600000D01*
X18456316Y88600000D01*
X17667099Y89389217D01*
X17421147Y89330902D01*
X17231178Y88824138D01*
X12760596Y88824138D01*
X12760636Y88869413D01*
X12553964Y89369598D01*
X12390946Y89532901D01*
X17810783Y89532901D01*
X18600000Y88743684D01*
X19389217Y89532901D01*
X19330902Y89778853D01*
X18824138Y89968822D01*
X18283251Y89950401D01*
X17869098Y89778853D01*
X17810783Y89532901D01*
X12390946Y89532901D01*
X12171611Y89752619D01*
X11671787Y89960164D01*
X11130587Y89960636D01*
X10630402Y89753964D01*
X10247381Y89371611D01*
X10039836Y88871787D01*
X10039364Y88330587D01*
X10246036Y87830402D01*
X10587200Y87488642D01*
X10587200Y84562800D01*
X10548175Y84562800D01*
X10401270Y84782659D01*
X9927482Y85099234D01*
X9368611Y85210400D01*
X9311389Y85210400D01*
X8752518Y85099234D01*
X8278730Y84782659D01*
X7962155Y84308871D01*
X7850989Y83750000D01*
X7962155Y83191129D01*
X8278730Y82717341D01*
X8752518Y82400766D01*
X9311389Y82289600D01*
X9368611Y82289600D01*
X9927482Y82400766D01*
X10401270Y82717341D01*
X10548175Y82937200D01*
X11163328Y82937200D01*
X12675264Y81425263D01*
X12936174Y81250929D01*
X12938955Y81249071D01*
X13250000Y81187200D01*
X22913328Y81187200D01*
X25187200Y78913327D01*
X25187200Y75878285D01*
X25078330Y75987345D01*
X24541766Y76210146D01*
X23960783Y76210653D01*
X23423831Y75988789D01*
X23012655Y75578330D01*
X22789854Y75041766D01*
X22789347Y74460783D01*
X23011211Y73923831D01*
X23421670Y73512655D01*
X23958234Y73289854D01*
X24539217Y73289347D01*
X25076169Y73511211D01*
X25187200Y73622048D01*
X25187200Y29750000D01*
X25228132Y29544224D01*
X25249071Y29438955D01*
X25425264Y29175264D01*
X26449610Y28150917D01*
X26449610Y26320132D01*
X26438253Y26323032D01*
X26211600Y26191309D01*
X26211600Y24601600D01*
X26231600Y24601600D01*
X26231600Y24398400D01*
X26211600Y24398400D01*
X26211600Y22808691D01*
X26438253Y22676968D01*
X26575005Y22711885D01*
X26939910Y22920618D01*
X31101320Y18759207D01*
X30631129Y18665681D01*
X30157341Y18349106D01*
X29920000Y17993900D01*
X29682659Y18349106D01*
X29208871Y18665681D01*
X28650000Y18776847D01*
X28091129Y18665681D01*
X27617341Y18349106D01*
X27380000Y17993900D01*
X27142659Y18349106D01*
X26668871Y18665681D01*
X26110000Y18776847D01*
X25551129Y18665681D01*
X25077341Y18349106D01*
X24760766Y17875318D01*
X24649600Y17316447D01*
X24649600Y16443553D01*
X24760766Y15884682D01*
X25077341Y15410894D01*
X25551129Y15094319D01*
X26110000Y14983153D01*
X26668871Y15094319D01*
X27142659Y15410894D01*
X27380000Y15766100D01*
X27617341Y15410894D01*
X27837200Y15263989D01*
X27837200Y13600000D01*
X27899071Y13288955D01*
X28075264Y13025264D01*
X29107200Y11993327D01*
X29107200Y11518133D01*
X28851986Y11347604D01*
X28650000Y11045311D01*
X28448014Y11347604D01*
X27958005Y11675018D01*
X27380000Y11789990D01*
X26801995Y11675018D01*
X26311986Y11347604D01*
X25984572Y10857595D01*
X25869600Y10279590D01*
X25869600Y10220410D01*
X25984572Y9642405D01*
X26311986Y9152396D01*
X26801995Y8824982D01*
X27380000Y8710010D01*
X27958005Y8824982D01*
X28448014Y9152396D01*
X28650000Y9454689D01*
X28851986Y9152396D01*
X29341995Y8824982D01*
X29920000Y8710010D01*
X30498005Y8824982D01*
X30988014Y9152396D01*
X31190000Y9454689D01*
X31391986Y9152396D01*
X31881995Y8824982D01*
X32460000Y8710010D01*
X33038005Y8824982D01*
X33528014Y9152396D01*
X33730000Y9454689D01*
X33931986Y9152396D01*
X34421995Y8824982D01*
X35000000Y8710010D01*
X35578005Y8824982D01*
X36068014Y9152396D01*
X36270000Y9454689D01*
X36471986Y9152396D01*
X36961995Y8824982D01*
X37540000Y8710010D01*
X38118005Y8824982D01*
X38608014Y9152396D01*
X38811764Y9457329D01*
X38848168Y9375973D01*
X39276411Y8971103D01*
X39743907Y8777468D01*
X39978400Y8908542D01*
X39978400Y10148400D01*
X39958400Y10148400D01*
X39958400Y10351600D01*
X39978400Y10351600D01*
X39978400Y11591458D01*
X40181600Y11591458D01*
X40181600Y10351600D01*
X40201600Y10351600D01*
X40201600Y10148400D01*
X40181600Y10148400D01*
X40181600Y8908542D01*
X40416093Y8777468D01*
X40883589Y8971103D01*
X41132997Y9206898D01*
X41142711Y9155270D01*
X41287346Y8930501D01*
X41508034Y8779712D01*
X41770000Y8726662D01*
X43470000Y8726662D01*
X43714730Y8772711D01*
X43939499Y8917346D01*
X44090288Y9138034D01*
X44143338Y9400000D01*
X44143338Y11100000D01*
X44097289Y11344730D01*
X43952654Y11569499D01*
X43731966Y11720288D01*
X43470000Y11773338D01*
X41770000Y11773338D01*
X41525270Y11727289D01*
X41300501Y11582654D01*
X41149712Y11361966D01*
X41135321Y11290904D01*
X40883589Y11528897D01*
X40416093Y11722532D01*
X40181600Y11591458D01*
X39978400Y11591458D01*
X39743907Y11722532D01*
X39622800Y11672370D01*
X39622800Y15263989D01*
X39842659Y15410894D01*
X40080000Y15766100D01*
X40317341Y15410894D01*
X40791129Y15094319D01*
X41350000Y14983153D01*
X41908871Y15094319D01*
X42382659Y15410894D01*
X42620000Y15766100D01*
X42857341Y15410894D01*
X43331129Y15094319D01*
X43890000Y14983153D01*
X44448871Y15094319D01*
X44922659Y15410894D01*
X45239234Y15884682D01*
X45350400Y16443553D01*
X45350400Y17316447D01*
X45239234Y17875318D01*
X44922659Y18349106D01*
X44448871Y18665681D01*
X43890000Y18776847D01*
X43331129Y18665681D01*
X42857341Y18349106D01*
X42620000Y17993900D01*
X42382659Y18349106D01*
X41908871Y18665681D01*
X41350000Y18776847D01*
X40791129Y18665681D01*
X40317341Y18349106D01*
X40080000Y17993900D01*
X39842659Y18349106D01*
X39368871Y18665681D01*
X38810000Y18776847D01*
X38251129Y18665681D01*
X37777341Y18349106D01*
X37540000Y17993900D01*
X37302659Y18349106D01*
X36828871Y18665681D01*
X36270000Y18776847D01*
X35980258Y18719214D01*
X33312800Y21386672D01*
X33312800Y22686139D01*
X33730000Y22603153D01*
X34288871Y22714319D01*
X34762659Y23030894D01*
X35000000Y23386100D01*
X35237341Y23030894D01*
X35711129Y22714319D01*
X36270000Y22603153D01*
X36828871Y22714319D01*
X37302659Y23030894D01*
X37540000Y23386100D01*
X37777341Y23030894D01*
X38251129Y22714319D01*
X38810000Y22603153D01*
X39368871Y22714319D01*
X39842659Y23030894D01*
X40080000Y23386100D01*
X40317341Y23030894D01*
X40791129Y22714319D01*
X41350000Y22603153D01*
X41908871Y22714319D01*
X42382659Y23030894D01*
X42448700Y23129732D01*
X42462711Y23055270D01*
X42607346Y22830501D01*
X42828034Y22679712D01*
X43090000Y22626662D01*
X44690000Y22626662D01*
X44934730Y22672711D01*
X45159499Y22817346D01*
X45310288Y23038034D01*
X45363338Y23300000D01*
X45363338Y25700000D01*
X45317289Y25944730D01*
X45172654Y26169499D01*
X44951966Y26320288D01*
X44812800Y26348470D01*
X44812800Y30289763D01*
X45190197Y30289434D01*
X45543312Y30435338D01*
X45813712Y30705267D01*
X45960233Y31058127D01*
X45960566Y31440197D01*
X45814662Y31793312D01*
X45812800Y31795177D01*
X45812800Y73350244D01*
X45958234Y73289854D01*
X46539217Y73289347D01*
X47076169Y73511211D01*
X47264600Y73699313D01*
X47264600Y10000000D01*
X47278731Y9928960D01*
X47278731Y9856531D01*
X47306448Y9789617D01*
X47320579Y9718575D01*
X47360821Y9658349D01*
X47388538Y9591434D01*
X47439753Y9540219D01*
X47479994Y9479994D01*
X47540217Y9439754D01*
X47591434Y9388537D01*
X47658353Y9360818D01*
X47718575Y9320579D01*
X47789612Y9306449D01*
X47856531Y9278730D01*
X49626479Y8926666D01*
X51005340Y8005340D01*
X51926666Y6626478D01*
X52250192Y5000000D01*
X51926666Y3373522D01*
X51005340Y1994660D01*
X49626479Y1073334D01*
X47927567Y735400D01*
X22072433Y735400D01*
X20373522Y1073334D01*
X18994660Y1994660D01*
X18073334Y3373521D01*
X17749808Y5000000D01*
X20264600Y5000000D01*
X20396699Y4335891D01*
X20772887Y3772887D01*
X21335891Y3396699D01*
X22000000Y3264600D01*
X22664109Y3396699D01*
X23227113Y3772887D01*
X23603301Y4335891D01*
X23735400Y5000000D01*
X46264600Y5000000D01*
X46396699Y4335891D01*
X46772887Y3772887D01*
X47335891Y3396699D01*
X48000000Y3264600D01*
X48664109Y3396699D01*
X49227113Y3772887D01*
X49603301Y4335891D01*
X49735400Y5000000D01*
X49603301Y5664109D01*
X49227113Y6227113D01*
X48664109Y6603301D01*
X48000000Y6735400D01*
X47335891Y6603301D01*
X46772887Y6227113D01*
X46396699Y5664109D01*
X46264600Y5000000D01*
X23735400Y5000000D01*
X23603301Y5664109D01*
X23227113Y6227113D01*
X22664109Y6603301D01*
X22000000Y6735400D01*
X21335891Y6603301D01*
X20772887Y6227113D01*
X20396699Y5664109D01*
X20264600Y5000000D01*
X17749808Y5000000D01*
X18073334Y6626479D01*
X18994660Y8005340D01*
X20373522Y8926666D01*
X22143469Y9278730D01*
X22210388Y9306449D01*
X22281425Y9320579D01*
X22341647Y9360818D01*
X22408566Y9388537D01*
X22459783Y9439754D01*
X22520006Y9479994D01*
X22560247Y9540219D01*
X22611462Y9591434D01*
X22639179Y9658349D01*
X22679421Y9718575D01*
X22693552Y9789617D01*
X22721269Y9856531D01*
X22721269Y9928960D01*
X22735400Y10000000D01*
X22735400Y24398400D01*
X24649600Y24398400D01*
X24649600Y23998400D01*
X24799647Y23447263D01*
X25149183Y22995499D01*
X25644995Y22711885D01*
X25781747Y22676968D01*
X26008400Y22808691D01*
X26008400Y24398400D01*
X24649600Y24398400D01*
X22735400Y24398400D01*
X22735400Y25001600D01*
X24649600Y25001600D01*
X24649600Y24601600D01*
X26008400Y24601600D01*
X26008400Y26191309D01*
X25781747Y26323032D01*
X25644995Y26288115D01*
X25149183Y26004501D01*
X24799647Y25552737D01*
X24649600Y25001600D01*
X22735400Y25001600D01*
X22735400Y80000000D01*
X22679421Y80281425D01*
X22520006Y80520006D01*
X22281425Y80679421D01*
X22000000Y80735400D01*
X10072433Y80735400D01*
X6460107Y81453936D01*
X3459126Y83459126D01*
X1453936Y86460106D01*
X1213851Y87667099D01*
X7810783Y87667099D01*
X7869098Y87421147D01*
X8375862Y87231178D01*
X8916749Y87249599D01*
X9330902Y87421147D01*
X9389217Y87667099D01*
X8600000Y88456316D01*
X7810783Y87667099D01*
X1213851Y87667099D01*
X983701Y88824138D01*
X7231178Y88824138D01*
X7249599Y88283251D01*
X7421147Y87869098D01*
X7667099Y87810783D01*
X8456316Y88600000D01*
X8743684Y88600000D01*
X9532901Y87810783D01*
X9778853Y87869098D01*
X9968822Y88375862D01*
X9950401Y88916749D01*
X9778853Y89330902D01*
X9532901Y89389217D01*
X8743684Y88600000D01*
X8456316Y88600000D01*
X7667099Y89389217D01*
X7421147Y89330902D01*
X7231178Y88824138D01*
X983701Y88824138D01*
X842719Y89532901D01*
X7810783Y89532901D01*
X8600000Y88743684D01*
X9389217Y89532901D01*
X9330902Y89778853D01*
X8824138Y89968822D01*
X8283251Y89950401D01*
X7869098Y89778853D01*
X7810783Y89532901D01*
X842719Y89532901D01*
X749807Y90000000D01*
X974694Y91130587D01*
X7239364Y91130587D01*
X7446036Y90630402D01*
X7828389Y90247381D01*
X8328213Y90039836D01*
X8869413Y90039364D01*
X9369598Y90246036D01*
X9752619Y90628389D01*
X9960164Y91128213D01*
X9960636Y91669413D01*
X9753964Y92169598D01*
X9371611Y92552619D01*
X8871787Y92760164D01*
X8330587Y92760636D01*
X7830402Y92553964D01*
X7447381Y92171611D01*
X7239836Y91671787D01*
X7239364Y91130587D01*
X974694Y91130587D01*
X1453936Y93539894D01*
X2904477Y95710783D01*
X8539347Y95710783D01*
X8761211Y95173831D01*
X9171670Y94762655D01*
X9708234Y94539854D01*
X10289217Y94539347D01*
X10304759Y94545769D01*
X10587200Y94263328D01*
X10587200Y92510837D01*
X10247381Y92171611D01*
X10039836Y91671787D01*
X10039364Y91130587D01*
X10246036Y90630402D01*
X10628389Y90247381D01*
X11128213Y90039836D01*
X11669413Y90039364D01*
X12169598Y90246036D01*
X12552619Y90628389D01*
X12760164Y91128213D01*
X12760166Y91130587D01*
X17239364Y91130587D01*
X17446036Y90630402D01*
X17828389Y90247381D01*
X18328213Y90039836D01*
X18869413Y90039364D01*
X19369598Y90246036D01*
X19591047Y90467099D01*
X20610783Y90467099D01*
X20669098Y90221147D01*
X21175862Y90031178D01*
X21716749Y90049599D01*
X22130902Y90221147D01*
X22189217Y90467099D01*
X21400000Y91256316D01*
X20610783Y90467099D01*
X19591047Y90467099D01*
X19752619Y90628389D01*
X19960164Y91128213D01*
X19960596Y91624138D01*
X20031178Y91624138D01*
X20049599Y91083251D01*
X20221147Y90669098D01*
X20467099Y90610783D01*
X21256316Y91400000D01*
X21543684Y91400000D01*
X22332901Y90610783D01*
X22578853Y90669098D01*
X22751849Y91130587D01*
X27239364Y91130587D01*
X27446036Y90630402D01*
X27828389Y90247381D01*
X28328213Y90039836D01*
X28869413Y90039364D01*
X29369598Y90246036D01*
X29752619Y90628389D01*
X29960164Y91128213D01*
X29960636Y91669413D01*
X29753964Y92169598D01*
X29371611Y92552619D01*
X28871787Y92760164D01*
X28330587Y92760636D01*
X27830402Y92553964D01*
X27447381Y92171611D01*
X27239836Y91671787D01*
X27239364Y91130587D01*
X22751849Y91130587D01*
X22768822Y91175862D01*
X22750401Y91716749D01*
X22578853Y92130902D01*
X22332901Y92189217D01*
X21543684Y91400000D01*
X21256316Y91400000D01*
X20467099Y92189217D01*
X20221147Y92130902D01*
X20031178Y91624138D01*
X19960596Y91624138D01*
X19960636Y91669413D01*
X19753964Y92169598D01*
X19590946Y92332901D01*
X20610783Y92332901D01*
X21400000Y91543684D01*
X22189217Y92332901D01*
X22130902Y92578853D01*
X21624138Y92768822D01*
X21083251Y92750401D01*
X20669098Y92578853D01*
X20610783Y92332901D01*
X19590946Y92332901D01*
X19412800Y92511358D01*
X19412800Y94103328D01*
X19895912Y94586439D01*
X20131389Y94539600D01*
X20188611Y94539600D01*
X20747482Y94650766D01*
X21221270Y94967341D01*
X21537845Y95441129D01*
X21649011Y96000000D01*
X21537845Y96558871D01*
X21221270Y97032659D01*
X20895997Y97250000D01*
X23264600Y97250000D01*
X23396699Y96585891D01*
X23772887Y96022887D01*
X24335891Y95646699D01*
X25000000Y95514600D01*
X25664109Y95646699D01*
X25760017Y95710783D01*
X28539347Y95710783D01*
X28761211Y95173831D01*
X29171670Y94762655D01*
X29708234Y94539854D01*
X30289217Y94539347D01*
X30304759Y94545769D01*
X30587200Y94263328D01*
X30587200Y92510837D01*
X30247381Y92171611D01*
X30039836Y91671787D01*
X30039364Y91130587D01*
X30246036Y90630402D01*
X30628389Y90247381D01*
X31128213Y90039836D01*
X31669413Y90039364D01*
X32169598Y90246036D01*
X32552619Y90628389D01*
X32760164Y91128213D01*
X32760166Y91130587D01*
X37239364Y91130587D01*
X37446036Y90630402D01*
X37828389Y90247381D01*
X38328213Y90039836D01*
X38869413Y90039364D01*
X39369598Y90246036D01*
X39591047Y90467099D01*
X40610783Y90467099D01*
X40669098Y90221147D01*
X41175862Y90031178D01*
X41716749Y90049599D01*
X42130902Y90221147D01*
X42189217Y90467099D01*
X41400000Y91256316D01*
X40610783Y90467099D01*
X39591047Y90467099D01*
X39752619Y90628389D01*
X39960164Y91128213D01*
X39960596Y91624138D01*
X40031178Y91624138D01*
X40049599Y91083251D01*
X40221147Y90669098D01*
X40467099Y90610783D01*
X41256316Y91400000D01*
X41543684Y91400000D01*
X42332901Y90610783D01*
X42578853Y90669098D01*
X42751849Y91130587D01*
X47239364Y91130587D01*
X47446036Y90630402D01*
X47828389Y90247381D01*
X48328213Y90039836D01*
X48869413Y90039364D01*
X49369598Y90246036D01*
X49752619Y90628389D01*
X49960164Y91128213D01*
X49960636Y91669413D01*
X49753964Y92169598D01*
X49371611Y92552619D01*
X48871787Y92760164D01*
X48330587Y92760636D01*
X47830402Y92553964D01*
X47447381Y92171611D01*
X47239836Y91671787D01*
X47239364Y91130587D01*
X42751849Y91130587D01*
X42768822Y91175862D01*
X42750401Y91716749D01*
X42578853Y92130902D01*
X42332901Y92189217D01*
X41543684Y91400000D01*
X41256316Y91400000D01*
X40467099Y92189217D01*
X40221147Y92130902D01*
X40031178Y91624138D01*
X39960596Y91624138D01*
X39960636Y91669413D01*
X39753964Y92169598D01*
X39590946Y92332901D01*
X40610783Y92332901D01*
X41400000Y91543684D01*
X42189217Y92332901D01*
X42130902Y92578853D01*
X41624138Y92768822D01*
X41083251Y92750401D01*
X40669098Y92578853D01*
X40610783Y92332901D01*
X39590946Y92332901D01*
X39412800Y92511358D01*
X39412800Y94103328D01*
X39895912Y94586439D01*
X40131389Y94539600D01*
X40188611Y94539600D01*
X40747482Y94650766D01*
X41221270Y94967341D01*
X41537845Y95441129D01*
X41649011Y96000000D01*
X41537845Y96558871D01*
X41221270Y97032659D01*
X40895997Y97250000D01*
X43264600Y97250000D01*
X43396699Y96585891D01*
X43772887Y96022887D01*
X44335891Y95646699D01*
X45000000Y95514600D01*
X45664109Y95646699D01*
X45760017Y95710783D01*
X48289347Y95710783D01*
X48511211Y95173831D01*
X48921670Y94762655D01*
X49458234Y94539854D01*
X50039217Y94539347D01*
X50054759Y94545769D01*
X50587200Y94013327D01*
X50587200Y92510837D01*
X50247381Y92171611D01*
X50039836Y91671787D01*
X50039364Y91130587D01*
X50246036Y90630402D01*
X50628389Y90247381D01*
X51128213Y90039836D01*
X51669413Y90039364D01*
X52169598Y90246036D01*
X52552619Y90628389D01*
X52760164Y91128213D01*
X52760166Y91130587D01*
X57239364Y91130587D01*
X57446036Y90630402D01*
X57828389Y90247381D01*
X58328213Y90039836D01*
X58869413Y90039364D01*
X59369598Y90246036D01*
X59591047Y90467099D01*
X60610783Y90467099D01*
X60669098Y90221147D01*
X61175862Y90031178D01*
X61716749Y90049599D01*
X62130902Y90221147D01*
X62189217Y90467099D01*
X61400000Y91256316D01*
X60610783Y90467099D01*
X59591047Y90467099D01*
X59752619Y90628389D01*
X59960164Y91128213D01*
X59960596Y91624138D01*
X60031178Y91624138D01*
X60049599Y91083251D01*
X60221147Y90669098D01*
X60467099Y90610783D01*
X61256316Y91400000D01*
X61543684Y91400000D01*
X62332901Y90610783D01*
X62578853Y90669098D01*
X62768822Y91175862D01*
X62750401Y91716749D01*
X62578853Y92130902D01*
X62332901Y92189217D01*
X61543684Y91400000D01*
X61256316Y91400000D01*
X60467099Y92189217D01*
X60221147Y92130902D01*
X60031178Y91624138D01*
X59960596Y91624138D01*
X59960636Y91669413D01*
X59753964Y92169598D01*
X59590946Y92332901D01*
X60610783Y92332901D01*
X61400000Y91543684D01*
X62189217Y92332901D01*
X62130902Y92578853D01*
X61624138Y92768822D01*
X61083251Y92750401D01*
X60669098Y92578853D01*
X60610783Y92332901D01*
X59590946Y92332901D01*
X59412800Y92511358D01*
X59412800Y94353328D01*
X59645912Y94586439D01*
X59881389Y94539600D01*
X59938611Y94539600D01*
X60497482Y94650766D01*
X60971270Y94967341D01*
X61287845Y95441129D01*
X61399011Y96000000D01*
X61287845Y96558871D01*
X60971270Y97032659D01*
X60497482Y97349234D01*
X59938611Y97460400D01*
X59881389Y97460400D01*
X59322518Y97349234D01*
X58848730Y97032659D01*
X58532155Y96558871D01*
X58420989Y96000000D01*
X58477322Y95716794D01*
X58025264Y95264736D01*
X57849071Y95001045D01*
X57787200Y94690000D01*
X57787200Y92510837D01*
X57447381Y92171611D01*
X57239836Y91671787D01*
X57239364Y91130587D01*
X52760166Y91130587D01*
X52760636Y91669413D01*
X52553964Y92169598D01*
X52212800Y92511358D01*
X52212800Y94350000D01*
X52150929Y94661045D01*
X52084000Y94761211D01*
X51974736Y94924737D01*
X51204598Y95694874D01*
X51210146Y95708234D01*
X51210653Y96289217D01*
X50988789Y96826169D01*
X50578330Y97237345D01*
X50041766Y97460146D01*
X49460783Y97460653D01*
X48923831Y97238789D01*
X48512655Y96828330D01*
X48289854Y96291766D01*
X48289347Y95710783D01*
X45760017Y95710783D01*
X46227113Y96022887D01*
X46603301Y96585891D01*
X46735400Y97250000D01*
X46603301Y97914109D01*
X46227113Y98477113D01*
X45664109Y98853301D01*
X45000000Y98985400D01*
X44335891Y98853301D01*
X43772887Y98477113D01*
X43396699Y97914109D01*
X43264600Y97250000D01*
X40895997Y97250000D01*
X40747482Y97349234D01*
X40188611Y97460400D01*
X40131389Y97460400D01*
X39572518Y97349234D01*
X39098730Y97032659D01*
X38782155Y96558871D01*
X38670989Y96000000D01*
X38727322Y95716794D01*
X38025264Y95014736D01*
X37849071Y94751045D01*
X37787200Y94440000D01*
X37787200Y92510837D01*
X37447381Y92171611D01*
X37239836Y91671787D01*
X37239364Y91130587D01*
X32760166Y91130587D01*
X32760636Y91669413D01*
X32553964Y92169598D01*
X32212800Y92511358D01*
X32212800Y94600000D01*
X32150929Y94911045D01*
X31974736Y95174736D01*
X31454598Y95694874D01*
X31460146Y95708234D01*
X31460653Y96289217D01*
X31238789Y96826169D01*
X30828330Y97237345D01*
X30291766Y97460146D01*
X29710783Y97460653D01*
X29173831Y97238789D01*
X28762655Y96828330D01*
X28539854Y96291766D01*
X28539347Y95710783D01*
X25760017Y95710783D01*
X26227113Y96022887D01*
X26603301Y96585891D01*
X26735400Y97250000D01*
X26603301Y97914109D01*
X26227113Y98477113D01*
X25664109Y98853301D01*
X25000000Y98985400D01*
X24335891Y98853301D01*
X23772887Y98477113D01*
X23396699Y97914109D01*
X23264600Y97250000D01*
X20895997Y97250000D01*
X20747482Y97349234D01*
X20188611Y97460400D01*
X20131389Y97460400D01*
X19572518Y97349234D01*
X19098730Y97032659D01*
X18782155Y96558871D01*
X18670989Y96000000D01*
X18727322Y95716794D01*
X18025264Y95014736D01*
X17849071Y94751045D01*
X17787200Y94440000D01*
X17787200Y92510837D01*
X17447381Y92171611D01*
X17239836Y91671787D01*
X17239364Y91130587D01*
X12760166Y91130587D01*
X12760636Y91669413D01*
X12553964Y92169598D01*
X12212800Y92511358D01*
X12212800Y94600000D01*
X12150929Y94911045D01*
X11974736Y95174736D01*
X11454598Y95694874D01*
X11460146Y95708234D01*
X11460653Y96289217D01*
X11238789Y96826169D01*
X10828330Y97237345D01*
X10291766Y97460146D01*
X9710783Y97460653D01*
X9173831Y97238789D01*
X8762655Y96828330D01*
X8539854Y96291766D01*
X8539347Y95710783D01*
X2904477Y95710783D01*
X3459126Y96540874D01*
X6460107Y98546064D01*
X10072433Y99264600D01*
X59927572Y99264600D01*
X63539894Y98546064D01*
G36*
X30534798Y26179319D02*
X30229183Y26004501D01*
X29920000Y25604892D01*
X29610817Y26004501D01*
X29115005Y26288115D01*
X28978253Y26323032D01*
X28751600Y26191309D01*
X28751600Y24601600D01*
X31088400Y24601600D01*
X31088400Y24621600D01*
X31291600Y24621600D01*
X31291600Y24601600D01*
X31311600Y24601600D01*
X31311600Y24398400D01*
X31291600Y24398400D01*
X31291600Y22808691D01*
X31518253Y22676968D01*
X31655005Y22711885D01*
X31687200Y22730301D01*
X31687200Y21050000D01*
X31749071Y20738955D01*
X31925264Y20475264D01*
X33641320Y18759208D01*
X33440259Y18719214D01*
X29326569Y22832904D01*
X29610817Y22995499D01*
X29920000Y23395108D01*
X30229183Y22995499D01*
X30724995Y22711885D01*
X30861747Y22676968D01*
X31088400Y22808691D01*
X31088400Y24398400D01*
X28751600Y24398400D01*
X28751600Y24378400D01*
X28548400Y24378400D01*
X28548400Y24398400D01*
X28528400Y24398400D01*
X28528400Y24601600D01*
X28548400Y24601600D01*
X28548400Y26191309D01*
X28321747Y26323032D01*
X28184995Y26288115D01*
X28075210Y26225316D01*
X28075210Y28487590D01*
X28037637Y28676479D01*
X30534798Y26179319D01*
X30534798Y26179319D01*
G37*
X30534798Y26179319D02*
X30229183Y26004501D01*
X29920000Y25604892D01*
X29610817Y26004501D01*
X29115005Y26288115D01*
X28978253Y26323032D01*
X28751600Y26191309D01*
X28751600Y24601600D01*
X31088400Y24601600D01*
X31088400Y24621600D01*
X31291600Y24621600D01*
X31291600Y24601600D01*
X31311600Y24601600D01*
X31311600Y24398400D01*
X31291600Y24398400D01*
X31291600Y22808691D01*
X31518253Y22676968D01*
X31655005Y22711885D01*
X31687200Y22730301D01*
X31687200Y21050000D01*
X31749071Y20738955D01*
X31925264Y20475264D01*
X33641320Y18759208D01*
X33440259Y18719214D01*
X29326569Y22832904D01*
X29610817Y22995499D01*
X29920000Y23395108D01*
X30229183Y22995499D01*
X30724995Y22711885D01*
X30861747Y22676968D01*
X31088400Y22808691D01*
X31088400Y24398400D01*
X28751600Y24398400D01*
X28751600Y24378400D01*
X28548400Y24378400D01*
X28548400Y24398400D01*
X28528400Y24398400D01*
X28528400Y24601600D01*
X28548400Y24601600D01*
X28548400Y26191309D01*
X28321747Y26323032D01*
X28184995Y26288115D01*
X28075210Y26225316D01*
X28075210Y28487590D01*
X28037637Y28676479D01*
X30534798Y26179319D01*
M02*
