G04 #@! TF.FileFunction,Soldermask,Top*
%FSLAX46Y46*%
G04 Gerber Fmt 4.6, Leading zero omitted, Abs format (unit mm)*
G04 Created by KiCad (PCBNEW 4.0.6) date 08/01/17 14:17:50*
%MOMM*%
%LPD*%
G01*
G04 APERTURE LIST*
%ADD10C,0.100000*%
%ADD11C,0.150000*%
%ADD12R,2.100000X2.100000*%
%ADD13O,2.100000X2.100000*%
%ADD14R,2.000000X2.000000*%
%ADD15O,2.000000X2.000000*%
%ADD16R,2.200000X2.200000*%
%ADD17C,2.200000*%
%ADD18O,2.200000X2.200000*%
%ADD19R,2.150000X2.150000*%
%ADD20C,2.150000*%
%ADD21R,1.670000X1.370000*%
%ADD22C,2.000000*%
%ADD23C,1.800000*%
%ADD24R,2.000000X2.800000*%
%ADD25O,2.000000X2.800000*%
%ADD26C,2.400000*%
%ADD27R,1.750000X1.750000*%
%ADD28O,1.750000X1.750000*%
G04 APERTURE END LIST*
D10*
D11*
X61000000Y100000000D02*
X63000000Y100000000D01*
X37000000Y100000000D02*
X39000000Y100000000D01*
X59000000Y98000000D02*
X61000000Y100000000D01*
X41000000Y98000000D02*
X59000000Y98000000D01*
X39000000Y100000000D02*
X41000000Y98000000D01*
X100000000Y47200000D02*
X68000000Y95000000D01*
X68000000Y95000000D02*
G75*
G03X63000000Y100000000I-5000000J0D01*
G01*
X32000000Y95000000D02*
X0Y47200000D01*
X37000000Y100000000D02*
G75*
G03X32000000Y95000000I0J-5000000D01*
G01*
X83100000Y57000000D02*
G75*
G03X83100000Y57000000I-1100000J0D01*
G01*
X19100000Y57000000D02*
G75*
G03X19100000Y57000000I-1100000J0D01*
G01*
X70100000Y78000000D02*
G75*
G03X70100000Y78000000I-1100000J0D01*
G01*
X32100000Y78000000D02*
G75*
G03X32100000Y78000000I-1100000J0D01*
G01*
X64100000Y94950000D02*
G75*
G03X64100000Y94950000I-1100000J0D01*
G01*
X38100000Y95000000D02*
G75*
G03X38100000Y95000000I-1100000J0D01*
G01*
X34100000Y31000000D02*
G75*
G03X34100000Y31000000I-1100000J0D01*
G01*
X68100000Y31000000D02*
G75*
G03X68100000Y31000000I-1100000J0D01*
G01*
X68100000Y7000000D02*
G75*
G03X68100000Y7000000I-1100000J0D01*
G01*
X34100000Y7000000D02*
G75*
G03X34100000Y7000000I-1100000J0D01*
G01*
X91100000Y7000000D02*
G75*
G03X91100000Y7000000I-1100000J0D01*
G01*
X11100000Y7000000D02*
G75*
G03X11100000Y7000000I-1100000J0D01*
G01*
X95000000Y4000000D02*
X100000000Y9000000D01*
X69000000Y4000000D02*
X95000000Y4000000D01*
X65000000Y0D02*
X69000000Y4000000D01*
X35000000Y0D02*
X65000000Y0D01*
X5000000Y4000000D02*
X0Y9000000D01*
X31000000Y4000000D02*
X5000000Y4000000D01*
X35000000Y0D02*
X31000000Y4000000D01*
X97100000Y29500000D02*
G75*
G03X97100000Y29500000I-1100000J0D01*
G01*
X97100000Y11500000D02*
G75*
G03X97100000Y11500000I-1100000J0D01*
G01*
X5100000Y11500000D02*
G75*
G03X5100000Y11500000I-1100000J0D01*
G01*
X5100000Y29500000D02*
G75*
G03X5100000Y29500000I-1100000J0D01*
G01*
X0Y47200000D02*
X0Y9000000D01*
X100000000Y9000000D02*
X100000000Y47200000D01*
D12*
X14635931Y35430000D03*
D13*
X17175931Y35430000D03*
X19715931Y35430000D03*
X22255931Y35430000D03*
X24795931Y35430000D03*
X27335931Y35430000D03*
X29875931Y35430000D03*
X32415931Y35430000D03*
D14*
X32220000Y56660000D03*
D15*
X65240000Y71900000D03*
X34760000Y56660000D03*
X62700000Y71900000D03*
X37300000Y56660000D03*
X60160000Y71900000D03*
X39840000Y56660000D03*
X57620000Y71900000D03*
X42380000Y56660000D03*
X55080000Y71900000D03*
X44920000Y56660000D03*
X52540000Y71900000D03*
X47460000Y56660000D03*
X50000000Y71900000D03*
X50000000Y56660000D03*
X47460000Y71900000D03*
X52540000Y56660000D03*
X44920000Y71900000D03*
X55080000Y56660000D03*
X42380000Y71900000D03*
X57620000Y56660000D03*
X39840000Y71900000D03*
X60160000Y56660000D03*
X37300000Y71900000D03*
X62700000Y56660000D03*
X34760000Y71900000D03*
X65240000Y56660000D03*
X32220000Y71900000D03*
X67780000Y56660000D03*
X67780000Y71900000D03*
D16*
X29000000Y86000000D03*
D17*
X31540000Y86000000D03*
D16*
X71000000Y86000000D03*
D17*
X68460000Y86000000D03*
D16*
X70000000Y68400000D03*
D18*
X59840000Y68400000D03*
D19*
X69500000Y43500000D03*
D20*
X69500000Y41000000D03*
X69500000Y38500000D03*
D21*
X30000000Y68240000D03*
X30000000Y66960000D03*
D22*
X33500000Y75300000D03*
D15*
X43660000Y75300000D03*
D22*
X66500000Y75300000D03*
D15*
X56340000Y75300000D03*
D22*
X75950000Y35640000D03*
D15*
X75950000Y45800000D03*
D22*
X87500000Y35640000D03*
D15*
X87500000Y45800000D03*
D22*
X59740000Y65000000D03*
D15*
X69900000Y65000000D03*
D22*
X69900000Y61700000D03*
D15*
X59740000Y61700000D03*
D23*
X75800000Y48600000D03*
X75800000Y52200000D03*
X73300000Y48600000D03*
X70800000Y48600000D03*
X70800000Y52200000D03*
X73300000Y52200000D03*
D24*
X53580000Y68120000D03*
D25*
X35800000Y60500000D03*
X51040000Y68120000D03*
X38340000Y60500000D03*
X48500000Y68120000D03*
X40880000Y60500000D03*
X45960000Y68120000D03*
X43420000Y60500000D03*
X43420000Y68120000D03*
X45960000Y60500000D03*
X40880000Y68120000D03*
X48500000Y60500000D03*
X38340000Y68120000D03*
X51040000Y60500000D03*
X35800000Y68120000D03*
X53580000Y60500000D03*
D26*
X83950000Y39300000D03*
X79450000Y39300000D03*
X83950000Y45800000D03*
X79450000Y45800000D03*
X95550000Y39300000D03*
X91050000Y39300000D03*
X95550000Y45800000D03*
X91050000Y45800000D03*
D12*
X14635931Y50880839D03*
D13*
X17175931Y50880839D03*
X19715931Y50880839D03*
X22255931Y50880839D03*
X24795931Y50880839D03*
X27335931Y50880839D03*
X29875931Y50880839D03*
X32415931Y50880839D03*
D12*
X18500000Y39760000D03*
D13*
X18500000Y42300000D03*
X18500000Y44840000D03*
X18500000Y47380000D03*
D12*
X87740000Y30300000D03*
D13*
X85200000Y30300000D03*
X82660000Y30300000D03*
X80120000Y30300000D03*
X77580000Y30300000D03*
X75040000Y30300000D03*
D12*
X17420000Y30500000D03*
D13*
X19960000Y30500000D03*
X22500000Y30500000D03*
X25040000Y30500000D03*
X27580000Y30500000D03*
D27*
X26500000Y10000000D03*
D28*
X24500000Y10000000D03*
X22500000Y10000000D03*
X20500000Y10000000D03*
X18500000Y10000000D03*
X16500000Y10000000D03*
D27*
X73500000Y10000000D03*
D28*
X75500000Y10000000D03*
X77500000Y10000000D03*
X79500000Y10000000D03*
X81500000Y10000000D03*
X83500000Y10000000D03*
D27*
X26000000Y55500000D03*
D28*
X26000000Y57500000D03*
X26000000Y59500000D03*
D27*
X48000000Y75000000D03*
D28*
X50000000Y75000000D03*
X52000000Y75000000D03*
D27*
X74000000Y59500000D03*
D28*
X74000000Y57500000D03*
X74000000Y55500000D03*
D12*
X57620000Y86000000D03*
D13*
X55080000Y86000000D03*
X52540000Y86000000D03*
X50000000Y86000000D03*
X47460000Y86000000D03*
X44920000Y86000000D03*
X42380000Y86000000D03*
M02*
