G04 #@! TF.FileFunction,Legend,Bot*
%FSLAX46Y46*%
G04 Gerber Fmt 4.6, Leading zero omitted, Abs format (unit mm)*
G04 Created by KiCad (PCBNEW 4.0.6) date 08/01/17 14:17:50*
%MOMM*%
%LPD*%
G01*
G04 APERTURE LIST*
%ADD10C,0.100000*%
%ADD11C,0.150000*%
%ADD12C,0.500000*%
%ADD13C,0.300000*%
%ADD14C,0.010000*%
%ADD15R,2.100000X2.100000*%
%ADD16O,2.100000X2.100000*%
%ADD17R,2.000000X2.000000*%
%ADD18O,2.000000X2.000000*%
%ADD19R,2.200000X2.200000*%
%ADD20C,2.200000*%
%ADD21O,2.200000X2.200000*%
%ADD22R,2.150000X2.150000*%
%ADD23C,2.150000*%
%ADD24C,2.000000*%
%ADD25C,1.800000*%
%ADD26R,2.000000X2.800000*%
%ADD27O,2.000000X2.800000*%
%ADD28C,2.400000*%
%ADD29R,1.750000X1.750000*%
%ADD30O,1.750000X1.750000*%
G04 APERTURE END LIST*
D10*
D11*
X61000000Y100000000D02*
X63000000Y100000000D01*
X37000000Y100000000D02*
X39000000Y100000000D01*
X59000000Y98000000D02*
X61000000Y100000000D01*
X41000000Y98000000D02*
X59000000Y98000000D01*
X39000000Y100000000D02*
X41000000Y98000000D01*
D12*
X62571429Y82342857D02*
X62000000Y80342857D01*
X61428571Y81771429D01*
X60857143Y80342857D01*
X60285714Y82342857D01*
X59428572Y82342857D02*
X58857143Y80342857D01*
X58285714Y81771429D01*
X57714286Y80342857D01*
X57142857Y82342857D01*
X56285715Y82342857D02*
X55714286Y80342857D01*
X55142857Y81771429D01*
X54571429Y80342857D01*
X54000000Y82342857D01*
X52857143Y80628571D02*
X52714286Y80485714D01*
X52857143Y80342857D01*
X53000000Y80485714D01*
X52857143Y80628571D01*
X52857143Y80342857D01*
X51000001Y80342857D02*
X51285715Y80485714D01*
X51428572Y80771429D01*
X51428572Y83342857D01*
X49857143Y82342857D02*
X49857143Y80342857D01*
X49857143Y82057143D02*
X49714286Y82200000D01*
X49428572Y82342857D01*
X49000000Y82342857D01*
X48714286Y82200000D01*
X48571429Y81914286D01*
X48571429Y80342857D01*
X47142857Y80342857D02*
X47142857Y82342857D01*
X47142857Y81771429D02*
X47000000Y82057143D01*
X46857143Y82200000D01*
X46571429Y82342857D01*
X46285714Y82342857D01*
X44000000Y80485714D02*
X44285714Y80342857D01*
X44857143Y80342857D01*
X45142857Y80485714D01*
X45285714Y80628571D01*
X45428571Y80914286D01*
X45428571Y81771429D01*
X45285714Y82057143D01*
X45142857Y82200000D01*
X44857143Y82342857D01*
X44285714Y82342857D01*
X44000000Y82200000D01*
X42714285Y80628571D02*
X42571428Y80485714D01*
X42714285Y80342857D01*
X42857142Y80485714D01*
X42714285Y80628571D01*
X42714285Y80342857D01*
X40142857Y80485714D02*
X40428571Y80342857D01*
X41000000Y80342857D01*
X41285714Y80485714D01*
X41428571Y80771429D01*
X41428571Y81914286D01*
X41285714Y82200000D01*
X41000000Y82342857D01*
X40428571Y82342857D01*
X40142857Y82200000D01*
X40000000Y81914286D01*
X40000000Y81628571D01*
X41428571Y81342857D01*
X38857142Y80485714D02*
X38571428Y80342857D01*
X38000000Y80342857D01*
X37714285Y80485714D01*
X37571428Y80771429D01*
X37571428Y80914286D01*
X37714285Y81200000D01*
X38000000Y81342857D01*
X38428571Y81342857D01*
X38714285Y81485714D01*
X38857142Y81771429D01*
X38857142Y81914286D01*
X38714285Y82200000D01*
X38428571Y82342857D01*
X38000000Y82342857D01*
X37714285Y82200000D01*
D11*
X100000000Y47200000D02*
X68000000Y95000000D01*
X68000000Y95000000D02*
G75*
G03X63000000Y100000000I-5000000J0D01*
G01*
X32000000Y95000000D02*
X0Y47200000D01*
X37000000Y100000000D02*
G75*
G03X32000000Y95000000I0J-5000000D01*
G01*
X83100000Y57000000D02*
G75*
G03X83100000Y57000000I-1100000J0D01*
G01*
X19100000Y57000000D02*
G75*
G03X19100000Y57000000I-1100000J0D01*
G01*
X70100000Y78000000D02*
G75*
G03X70100000Y78000000I-1100000J0D01*
G01*
X32100000Y78000000D02*
G75*
G03X32100000Y78000000I-1100000J0D01*
G01*
D13*
X53571428Y1869048D02*
X54404762Y3059524D01*
X55000000Y1869048D02*
X55000000Y4369048D01*
X54047619Y4369048D01*
X53809524Y4250000D01*
X53690476Y4130952D01*
X53571428Y3892857D01*
X53571428Y3535714D01*
X53690476Y3297619D01*
X53809524Y3178571D01*
X54047619Y3059524D01*
X55000000Y3059524D01*
X52500000Y3178571D02*
X51666667Y3178571D01*
X51309524Y1869048D02*
X52500000Y1869048D01*
X52500000Y4369048D01*
X51309524Y4369048D01*
X50357143Y1988095D02*
X50000000Y1869048D01*
X49404762Y1869048D01*
X49166666Y1988095D01*
X49047619Y2107143D01*
X48928571Y2345238D01*
X48928571Y2583333D01*
X49047619Y2821429D01*
X49166666Y2940476D01*
X49404762Y3059524D01*
X49880952Y3178571D01*
X50119047Y3297619D01*
X50238095Y3416667D01*
X50357143Y3654762D01*
X50357143Y3892857D01*
X50238095Y4130952D01*
X50119047Y4250000D01*
X49880952Y4369048D01*
X49285714Y4369048D01*
X48928571Y4250000D01*
X47976191Y2583333D02*
X46785714Y2583333D01*
X48214286Y1869048D02*
X47380952Y4369048D01*
X46547619Y1869048D01*
X45000000Y4369048D02*
X45000000Y2583333D01*
X45119048Y2226190D01*
X45357143Y1988095D01*
X45714286Y1869048D01*
X45952381Y1869048D01*
D11*
X64100000Y94950000D02*
G75*
G03X64100000Y94950000I-1100000J0D01*
G01*
X38100000Y95000000D02*
G75*
G03X38100000Y95000000I-1100000J0D01*
G01*
X34100000Y31000000D02*
G75*
G03X34100000Y31000000I-1100000J0D01*
G01*
X68100000Y31000000D02*
G75*
G03X68100000Y31000000I-1100000J0D01*
G01*
X68100000Y7000000D02*
G75*
G03X68100000Y7000000I-1100000J0D01*
G01*
X34100000Y7000000D02*
G75*
G03X34100000Y7000000I-1100000J0D01*
G01*
X91100000Y7000000D02*
G75*
G03X91100000Y7000000I-1100000J0D01*
G01*
X11100000Y7000000D02*
G75*
G03X11100000Y7000000I-1100000J0D01*
G01*
X95000000Y4000000D02*
X100000000Y9000000D01*
X69000000Y4000000D02*
X95000000Y4000000D01*
X65000000Y0D02*
X69000000Y4000000D01*
X35000000Y0D02*
X65000000Y0D01*
X5000000Y4000000D02*
X0Y9000000D01*
X31000000Y4000000D02*
X5000000Y4000000D01*
X35000000Y0D02*
X31000000Y4000000D01*
X97100000Y29500000D02*
G75*
G03X97100000Y29500000I-1100000J0D01*
G01*
X97100000Y11500000D02*
G75*
G03X97100000Y11500000I-1100000J0D01*
G01*
X5100000Y11500000D02*
G75*
G03X5100000Y11500000I-1100000J0D01*
G01*
X5100000Y29500000D02*
G75*
G03X5100000Y29500000I-1100000J0D01*
G01*
X0Y47200000D02*
X0Y9000000D01*
X100000000Y9000000D02*
X100000000Y47200000D01*
D14*
G36*
X45036612Y40273000D02*
X44679385Y39980354D01*
X44472038Y39467509D01*
X44376755Y38567995D01*
X44355555Y37275088D01*
X44355555Y34641667D01*
X41858974Y34641667D01*
X40507469Y34615470D01*
X39633951Y34492660D01*
X39011499Y34206907D01*
X38413195Y33691879D01*
X38331196Y33610470D01*
X37739824Y32932043D01*
X37429343Y32240906D01*
X37312883Y31270952D01*
X37300000Y30451589D01*
X37300000Y28323904D01*
X34955578Y28219591D01*
X33520815Y28098360D01*
X32654667Y27868970D01*
X32242007Y27527488D01*
X32042214Y26775939D01*
X32500271Y26233663D01*
X33596653Y25912517D01*
X35050140Y25822223D01*
X36271013Y25803103D01*
X36946456Y25708159D01*
X37236324Y25481007D01*
X37300475Y25065267D01*
X37300643Y25028473D01*
X37249251Y24587329D01*
X36983231Y24364771D01*
X36336195Y24306198D01*
X35237795Y24351538D01*
X33894684Y24364263D01*
X33050369Y24192584D01*
X32591319Y23885367D01*
X32076481Y23080820D01*
X32212780Y22408900D01*
X32951552Y21912309D01*
X34244134Y21633746D01*
X35208532Y21588889D01*
X36372925Y21569683D01*
X36998549Y21465221D01*
X37252030Y21205240D01*
X37299992Y20719476D01*
X37300000Y20706945D01*
X37258736Y20229387D01*
X37027693Y19965308D01*
X36445994Y19851644D01*
X35352762Y19825331D01*
X35050140Y19825000D01*
X33440574Y19724065D01*
X32477817Y19407843D01*
X32130649Y18856207D01*
X32349042Y18083662D01*
X32668568Y17679429D01*
X33202672Y17457599D01*
X34137206Y17367496D01*
X35019356Y17355556D01*
X37300000Y17355556D01*
X37300000Y15434950D01*
X37381850Y14109260D01*
X37683997Y13184100D01*
X38143848Y12533313D01*
X38652160Y12022078D01*
X39223424Y11710841D01*
X40059326Y11535768D01*
X41361552Y11433023D01*
X41671626Y11416749D01*
X44355555Y11281216D01*
X44355555Y8874103D01*
X44378386Y7581762D01*
X44479840Y6823479D01*
X44709363Y6428361D01*
X45116399Y6225514D01*
X45122425Y6223595D01*
X45940465Y6248929D01*
X46493691Y6926473D01*
X46780849Y8253954D01*
X46822178Y9241667D01*
X45653751Y9241667D01*
X45635688Y8272478D01*
X45588039Y7840941D01*
X45520619Y8026132D01*
X45511469Y8095139D01*
X45453086Y9332160D01*
X45511469Y10388195D01*
X45580638Y10654452D01*
X45631239Y10294284D01*
X45653458Y9386768D01*
X45653751Y9241667D01*
X46822178Y9241667D01*
X46825000Y9309093D01*
X46852454Y10468274D01*
X46972355Y11086372D01*
X47241013Y11326935D01*
X47530555Y11358334D01*
X47936404Y11275119D01*
X48148922Y10914529D01*
X48227912Y10110148D01*
X48236111Y9394864D01*
X48360778Y7721073D01*
X48714447Y6607786D01*
X49266623Y6092301D01*
X49986809Y6211918D01*
X50503968Y6621032D01*
X50885598Y7387196D01*
X51049475Y8740953D01*
X51058333Y9266865D01*
X51059539Y9329861D01*
X49958261Y9329861D01*
X49928852Y8140516D01*
X49805449Y7354186D01*
X49647222Y7125000D01*
X49418599Y7432549D01*
X49333996Y8181963D01*
X49336183Y8271528D01*
X49456982Y9476969D01*
X49647222Y10476389D01*
X49793608Y10919868D01*
X49885572Y10806857D01*
X49938670Y10080010D01*
X49958261Y9329861D01*
X51059539Y9329861D01*
X51080689Y10434201D01*
X51189575Y11061721D01*
X51447721Y11314764D01*
X51852083Y11358976D01*
X52293227Y11307585D01*
X52515785Y11041565D01*
X52574357Y10394528D01*
X52529018Y9296129D01*
X52516292Y7953018D01*
X52687972Y7108703D01*
X52995189Y6649653D01*
X53681232Y6136411D01*
X54276836Y6233490D01*
X54760630Y6644361D01*
X55123380Y7270876D01*
X55259630Y8294384D01*
X55245318Y9202000D01*
X55243455Y9241667D01*
X54120418Y9241667D01*
X54102354Y8272478D01*
X54054706Y7840941D01*
X53987285Y8026132D01*
X53978135Y8095139D01*
X53919753Y9332160D01*
X53978135Y10388195D01*
X54047305Y10654452D01*
X54097906Y10294284D01*
X54120125Y9386768D01*
X54120418Y9241667D01*
X55243455Y9241667D01*
X55152311Y11181945D01*
X58260483Y11369190D01*
X59783961Y11478873D01*
X60781276Y11620721D01*
X61431515Y11847604D01*
X61913768Y12212395D01*
X62210716Y12535390D01*
X62753439Y13356931D01*
X63004423Y14349738D01*
X63052778Y15420111D01*
X63052778Y17325877D01*
X65749728Y17428911D01*
X67457005Y17576966D01*
X68527544Y17886532D01*
X69018256Y18390049D01*
X69008650Y18607777D01*
X67155421Y18607777D01*
X66833805Y18559759D01*
X65953909Y18534521D01*
X65522222Y18532495D01*
X64462243Y18547817D01*
X63934468Y18588647D01*
X64012516Y18647286D01*
X64199305Y18670877D01*
X65523962Y18727959D01*
X66845139Y18670877D01*
X67155421Y18607777D01*
X69008650Y18607777D01*
X68986052Y19119959D01*
X68940826Y19247883D01*
X68695100Y19545607D01*
X68145124Y19723123D01*
X67149522Y19807139D01*
X65886072Y19825000D01*
X64483034Y19834309D01*
X63641866Y19892051D01*
X63218894Y20042950D01*
X63070441Y20331728D01*
X63052778Y20706945D01*
X63087029Y21160281D01*
X63290188Y21423577D01*
X63812866Y21548411D01*
X64805671Y21586362D01*
X65628055Y21588889D01*
X65663002Y21590342D01*
X62352041Y21590342D01*
X62340395Y19427553D01*
X62311516Y17447747D01*
X62264884Y15761974D01*
X62199983Y14481289D01*
X62116296Y13716741D01*
X62082639Y13592048D01*
X61925505Y13547731D01*
X61779751Y14163673D01*
X61655365Y15394576D01*
X61641666Y15591667D01*
X61465278Y18237500D01*
X59348611Y18237500D01*
X59348611Y12593056D01*
X60406944Y12696995D01*
X61069262Y12719855D01*
X61106765Y12570763D01*
X60936111Y12437814D01*
X60412163Y12324429D01*
X59225237Y12229995D01*
X57417693Y12155957D01*
X55031891Y12103760D01*
X52110191Y12074849D01*
X50135769Y12069291D01*
X47168424Y12069724D01*
X44824046Y12078068D01*
X43020048Y12099674D01*
X41673847Y12139893D01*
X40702857Y12204076D01*
X40024494Y12297576D01*
X39556172Y12425741D01*
X39215308Y12593925D01*
X38935075Y12795049D01*
X38005555Y13526210D01*
X38005555Y18599918D01*
X36596118Y18599918D01*
X36235950Y18549317D01*
X35328434Y18527097D01*
X35183333Y18526804D01*
X34214144Y18544868D01*
X33782607Y18592517D01*
X33967799Y18659937D01*
X34036805Y18669087D01*
X35273826Y18727469D01*
X36329861Y18669087D01*
X36596118Y18599918D01*
X38005555Y18599918D01*
X38005555Y22833251D01*
X36596118Y22833251D01*
X36235950Y22782650D01*
X35328434Y22760431D01*
X35183333Y22760138D01*
X34214144Y22778201D01*
X33782607Y22825850D01*
X33967799Y22893270D01*
X34036805Y22902420D01*
X35273826Y22960803D01*
X36329861Y22902420D01*
X36596118Y22833251D01*
X38005555Y22833251D01*
X38005555Y23004785D01*
X38018070Y25880481D01*
X38035547Y27066584D01*
X36596118Y27066584D01*
X36235950Y27015983D01*
X35328434Y26993764D01*
X35183333Y26993471D01*
X34214144Y27011535D01*
X33782607Y27059183D01*
X33967799Y27126604D01*
X34036805Y27135754D01*
X35273826Y27194136D01*
X36329861Y27135754D01*
X36596118Y27066584D01*
X38035547Y27066584D01*
X38054181Y28331150D01*
X38111744Y30295952D01*
X38188613Y31714047D01*
X38282641Y32524593D01*
X38347362Y32694609D01*
X38503972Y32455734D01*
X38635683Y31575861D01*
X38735617Y30119316D01*
X38788335Y28570290D01*
X38833691Y26761352D01*
X38889306Y25538932D01*
X38981465Y24784177D01*
X39136454Y24378229D01*
X39380557Y24202236D01*
X39740060Y24137341D01*
X39769444Y24133977D01*
X40270172Y24194004D01*
X40897117Y24530438D01*
X41748281Y25216639D01*
X42921665Y26325970D01*
X43598001Y26999953D01*
X44852193Y28280303D01*
X45668342Y29176353D01*
X46117677Y29792115D01*
X46271427Y30231604D01*
X46200821Y30598832D01*
X46143228Y30716671D01*
X45490032Y31369757D01*
X44609959Y31386306D01*
X43556995Y30777026D01*
X42810024Y30055556D01*
X42074372Y29271553D01*
X41541143Y28759193D01*
X41373981Y28644445D01*
X41278823Y28966702D01*
X41183699Y29811981D01*
X41109053Y30998044D01*
X41108479Y31011001D01*
X41030822Y32282815D01*
X40894714Y33023002D01*
X40634463Y33405456D01*
X40184377Y33604067D01*
X40122222Y33621670D01*
X40239384Y33681179D01*
X40986156Y33735086D01*
X42286604Y33781589D01*
X44064792Y33818888D01*
X46244786Y33845184D01*
X48750651Y33858676D01*
X50176389Y33860024D01*
X52833255Y33853568D01*
X55212993Y33837983D01*
X57237924Y33814567D01*
X58830372Y33784618D01*
X59912657Y33749434D01*
X60407101Y33710313D01*
X60406944Y33689040D01*
X59556014Y33257778D01*
X59046656Y32385589D01*
X58832931Y30976311D01*
X58819444Y30366106D01*
X58958154Y28818547D01*
X59342073Y27778391D01*
X59922884Y27300571D01*
X60652274Y27440018D01*
X61087301Y27787699D01*
X61468931Y28553863D01*
X61632808Y29907620D01*
X61641666Y30433532D01*
X61695797Y31550676D01*
X61836893Y32306958D01*
X61994444Y32525000D01*
X62088956Y32190792D01*
X62169855Y31262202D01*
X62236623Y29850281D01*
X62288742Y28066083D01*
X62325697Y26020660D01*
X62346969Y23825062D01*
X62352041Y21590342D01*
X65663002Y21590342D01*
X67271212Y21657206D01*
X68321320Y21891314D01*
X68880247Y22334953D01*
X69003436Y22841111D01*
X67155421Y22841111D01*
X66833805Y22793092D01*
X65953909Y22767855D01*
X65522222Y22765829D01*
X64462243Y22781150D01*
X63934468Y22821980D01*
X64012516Y22880619D01*
X64199305Y22904210D01*
X65523962Y22961292D01*
X66845139Y22904210D01*
X67155421Y22841111D01*
X69003436Y22841111D01*
X69049861Y23031861D01*
X69050000Y23058144D01*
X68779966Y23726860D01*
X67941362Y24161879D01*
X66491434Y24378914D01*
X65369025Y24411111D01*
X64118962Y24433392D01*
X63419304Y24530956D01*
X63115506Y24749891D01*
X63052778Y25101828D01*
X63124936Y25456212D01*
X63437092Y25675824D01*
X64132768Y25802905D01*
X65355487Y25879693D01*
X65749728Y25895578D01*
X67255039Y25993616D01*
X68195018Y26168424D01*
X68708419Y26451261D01*
X68816076Y26586402D01*
X68956564Y27074444D01*
X67155421Y27074444D01*
X66833805Y27026425D01*
X65953909Y27001188D01*
X65522222Y26999162D01*
X64462243Y27014483D01*
X63934468Y27055314D01*
X64012516Y27113952D01*
X64199305Y27137543D01*
X65523962Y27194626D01*
X66845139Y27137543D01*
X67155421Y27074444D01*
X68956564Y27074444D01*
X69031009Y27333056D01*
X68594297Y27863295D01*
X67498063Y28181368D01*
X65734431Y28291525D01*
X65655415Y28291667D01*
X63052778Y28291667D01*
X63052778Y30435470D01*
X63011543Y31701457D01*
X62830676Y32527959D01*
X62424429Y33178985D01*
X62021581Y33610470D01*
X61456807Y34126057D01*
X60903404Y34433410D01*
X60160179Y34585994D01*
X59025937Y34637273D01*
X58141025Y34641667D01*
X55291667Y34641667D01*
X55291667Y36905870D01*
X55290941Y36934722D01*
X54117573Y36934722D01*
X54102031Y35904896D01*
X54058276Y35395443D01*
X53994979Y35489458D01*
X53978722Y35603937D01*
X53919496Y36770531D01*
X53971115Y38026237D01*
X53975877Y38073382D01*
X54041290Y38407198D01*
X54090913Y38104957D01*
X54116102Y37236121D01*
X54117573Y36934722D01*
X55290941Y36934722D01*
X55251528Y38500769D01*
X55101257Y39513284D01*
X54796069Y40063553D01*
X54291180Y40271714D01*
X54031613Y40286111D01*
X53191026Y40009102D01*
X52692873Y39162218D01*
X52527408Y37721677D01*
X52570370Y36720526D01*
X52649405Y35563469D01*
X52606708Y34942667D01*
X52377787Y34691145D01*
X51898148Y34641928D01*
X51767423Y34641667D01*
X50798258Y34641667D01*
X50970988Y36934722D01*
X50000000Y36934722D01*
X49948489Y35520252D01*
X49820261Y34801590D01*
X49654771Y34778622D01*
X49491478Y35451232D01*
X49369837Y36819303D01*
X49364111Y36936592D01*
X49356070Y38274063D01*
X49473540Y39055569D01*
X49628695Y39227778D01*
X49834773Y38897647D01*
X49964806Y37993537D01*
X50000000Y36934722D01*
X50970988Y36934722D01*
X50971030Y36935278D01*
X51001438Y38554792D01*
X50773483Y39593067D01*
X50246820Y40139893D01*
X49465381Y40286111D01*
X48884415Y40174686D01*
X48515540Y39760943D01*
X48315408Y38925683D01*
X48240669Y37549706D01*
X48236111Y36905870D01*
X48213569Y35674378D01*
X48113374Y34991087D01*
X47886678Y34699231D01*
X47530555Y34641667D01*
X47158251Y34708935D01*
X46945744Y35011777D01*
X46849284Y35701752D01*
X46825124Y36930417D01*
X46825121Y36934722D01*
X45650906Y36934722D01*
X45635364Y35904896D01*
X45591610Y35395443D01*
X45528312Y35489458D01*
X45512055Y35603937D01*
X45452829Y36770531D01*
X45504449Y38026237D01*
X45509210Y38073382D01*
X45574624Y38407198D01*
X45624247Y38104957D01*
X45649435Y37236121D01*
X45650906Y36934722D01*
X46825121Y36934722D01*
X46825000Y37085913D01*
X46712304Y38866503D01*
X46372105Y39983795D01*
X45801237Y40443432D01*
X45036612Y40273000D01*
X45036612Y40273000D01*
G37*
X45036612Y40273000D02*
X44679385Y39980354D01*
X44472038Y39467509D01*
X44376755Y38567995D01*
X44355555Y37275088D01*
X44355555Y34641667D01*
X41858974Y34641667D01*
X40507469Y34615470D01*
X39633951Y34492660D01*
X39011499Y34206907D01*
X38413195Y33691879D01*
X38331196Y33610470D01*
X37739824Y32932043D01*
X37429343Y32240906D01*
X37312883Y31270952D01*
X37300000Y30451589D01*
X37300000Y28323904D01*
X34955578Y28219591D01*
X33520815Y28098360D01*
X32654667Y27868970D01*
X32242007Y27527488D01*
X32042214Y26775939D01*
X32500271Y26233663D01*
X33596653Y25912517D01*
X35050140Y25822223D01*
X36271013Y25803103D01*
X36946456Y25708159D01*
X37236324Y25481007D01*
X37300475Y25065267D01*
X37300643Y25028473D01*
X37249251Y24587329D01*
X36983231Y24364771D01*
X36336195Y24306198D01*
X35237795Y24351538D01*
X33894684Y24364263D01*
X33050369Y24192584D01*
X32591319Y23885367D01*
X32076481Y23080820D01*
X32212780Y22408900D01*
X32951552Y21912309D01*
X34244134Y21633746D01*
X35208532Y21588889D01*
X36372925Y21569683D01*
X36998549Y21465221D01*
X37252030Y21205240D01*
X37299992Y20719476D01*
X37300000Y20706945D01*
X37258736Y20229387D01*
X37027693Y19965308D01*
X36445994Y19851644D01*
X35352762Y19825331D01*
X35050140Y19825000D01*
X33440574Y19724065D01*
X32477817Y19407843D01*
X32130649Y18856207D01*
X32349042Y18083662D01*
X32668568Y17679429D01*
X33202672Y17457599D01*
X34137206Y17367496D01*
X35019356Y17355556D01*
X37300000Y17355556D01*
X37300000Y15434950D01*
X37381850Y14109260D01*
X37683997Y13184100D01*
X38143848Y12533313D01*
X38652160Y12022078D01*
X39223424Y11710841D01*
X40059326Y11535768D01*
X41361552Y11433023D01*
X41671626Y11416749D01*
X44355555Y11281216D01*
X44355555Y8874103D01*
X44378386Y7581762D01*
X44479840Y6823479D01*
X44709363Y6428361D01*
X45116399Y6225514D01*
X45122425Y6223595D01*
X45940465Y6248929D01*
X46493691Y6926473D01*
X46780849Y8253954D01*
X46822178Y9241667D01*
X45653751Y9241667D01*
X45635688Y8272478D01*
X45588039Y7840941D01*
X45520619Y8026132D01*
X45511469Y8095139D01*
X45453086Y9332160D01*
X45511469Y10388195D01*
X45580638Y10654452D01*
X45631239Y10294284D01*
X45653458Y9386768D01*
X45653751Y9241667D01*
X46822178Y9241667D01*
X46825000Y9309093D01*
X46852454Y10468274D01*
X46972355Y11086372D01*
X47241013Y11326935D01*
X47530555Y11358334D01*
X47936404Y11275119D01*
X48148922Y10914529D01*
X48227912Y10110148D01*
X48236111Y9394864D01*
X48360778Y7721073D01*
X48714447Y6607786D01*
X49266623Y6092301D01*
X49986809Y6211918D01*
X50503968Y6621032D01*
X50885598Y7387196D01*
X51049475Y8740953D01*
X51058333Y9266865D01*
X51059539Y9329861D01*
X49958261Y9329861D01*
X49928852Y8140516D01*
X49805449Y7354186D01*
X49647222Y7125000D01*
X49418599Y7432549D01*
X49333996Y8181963D01*
X49336183Y8271528D01*
X49456982Y9476969D01*
X49647222Y10476389D01*
X49793608Y10919868D01*
X49885572Y10806857D01*
X49938670Y10080010D01*
X49958261Y9329861D01*
X51059539Y9329861D01*
X51080689Y10434201D01*
X51189575Y11061721D01*
X51447721Y11314764D01*
X51852083Y11358976D01*
X52293227Y11307585D01*
X52515785Y11041565D01*
X52574357Y10394528D01*
X52529018Y9296129D01*
X52516292Y7953018D01*
X52687972Y7108703D01*
X52995189Y6649653D01*
X53681232Y6136411D01*
X54276836Y6233490D01*
X54760630Y6644361D01*
X55123380Y7270876D01*
X55259630Y8294384D01*
X55245318Y9202000D01*
X55243455Y9241667D01*
X54120418Y9241667D01*
X54102354Y8272478D01*
X54054706Y7840941D01*
X53987285Y8026132D01*
X53978135Y8095139D01*
X53919753Y9332160D01*
X53978135Y10388195D01*
X54047305Y10654452D01*
X54097906Y10294284D01*
X54120125Y9386768D01*
X54120418Y9241667D01*
X55243455Y9241667D01*
X55152311Y11181945D01*
X58260483Y11369190D01*
X59783961Y11478873D01*
X60781276Y11620721D01*
X61431515Y11847604D01*
X61913768Y12212395D01*
X62210716Y12535390D01*
X62753439Y13356931D01*
X63004423Y14349738D01*
X63052778Y15420111D01*
X63052778Y17325877D01*
X65749728Y17428911D01*
X67457005Y17576966D01*
X68527544Y17886532D01*
X69018256Y18390049D01*
X69008650Y18607777D01*
X67155421Y18607777D01*
X66833805Y18559759D01*
X65953909Y18534521D01*
X65522222Y18532495D01*
X64462243Y18547817D01*
X63934468Y18588647D01*
X64012516Y18647286D01*
X64199305Y18670877D01*
X65523962Y18727959D01*
X66845139Y18670877D01*
X67155421Y18607777D01*
X69008650Y18607777D01*
X68986052Y19119959D01*
X68940826Y19247883D01*
X68695100Y19545607D01*
X68145124Y19723123D01*
X67149522Y19807139D01*
X65886072Y19825000D01*
X64483034Y19834309D01*
X63641866Y19892051D01*
X63218894Y20042950D01*
X63070441Y20331728D01*
X63052778Y20706945D01*
X63087029Y21160281D01*
X63290188Y21423577D01*
X63812866Y21548411D01*
X64805671Y21586362D01*
X65628055Y21588889D01*
X65663002Y21590342D01*
X62352041Y21590342D01*
X62340395Y19427553D01*
X62311516Y17447747D01*
X62264884Y15761974D01*
X62199983Y14481289D01*
X62116296Y13716741D01*
X62082639Y13592048D01*
X61925505Y13547731D01*
X61779751Y14163673D01*
X61655365Y15394576D01*
X61641666Y15591667D01*
X61465278Y18237500D01*
X59348611Y18237500D01*
X59348611Y12593056D01*
X60406944Y12696995D01*
X61069262Y12719855D01*
X61106765Y12570763D01*
X60936111Y12437814D01*
X60412163Y12324429D01*
X59225237Y12229995D01*
X57417693Y12155957D01*
X55031891Y12103760D01*
X52110191Y12074849D01*
X50135769Y12069291D01*
X47168424Y12069724D01*
X44824046Y12078068D01*
X43020048Y12099674D01*
X41673847Y12139893D01*
X40702857Y12204076D01*
X40024494Y12297576D01*
X39556172Y12425741D01*
X39215308Y12593925D01*
X38935075Y12795049D01*
X38005555Y13526210D01*
X38005555Y18599918D01*
X36596118Y18599918D01*
X36235950Y18549317D01*
X35328434Y18527097D01*
X35183333Y18526804D01*
X34214144Y18544868D01*
X33782607Y18592517D01*
X33967799Y18659937D01*
X34036805Y18669087D01*
X35273826Y18727469D01*
X36329861Y18669087D01*
X36596118Y18599918D01*
X38005555Y18599918D01*
X38005555Y22833251D01*
X36596118Y22833251D01*
X36235950Y22782650D01*
X35328434Y22760431D01*
X35183333Y22760138D01*
X34214144Y22778201D01*
X33782607Y22825850D01*
X33967799Y22893270D01*
X34036805Y22902420D01*
X35273826Y22960803D01*
X36329861Y22902420D01*
X36596118Y22833251D01*
X38005555Y22833251D01*
X38005555Y23004785D01*
X38018070Y25880481D01*
X38035547Y27066584D01*
X36596118Y27066584D01*
X36235950Y27015983D01*
X35328434Y26993764D01*
X35183333Y26993471D01*
X34214144Y27011535D01*
X33782607Y27059183D01*
X33967799Y27126604D01*
X34036805Y27135754D01*
X35273826Y27194136D01*
X36329861Y27135754D01*
X36596118Y27066584D01*
X38035547Y27066584D01*
X38054181Y28331150D01*
X38111744Y30295952D01*
X38188613Y31714047D01*
X38282641Y32524593D01*
X38347362Y32694609D01*
X38503972Y32455734D01*
X38635683Y31575861D01*
X38735617Y30119316D01*
X38788335Y28570290D01*
X38833691Y26761352D01*
X38889306Y25538932D01*
X38981465Y24784177D01*
X39136454Y24378229D01*
X39380557Y24202236D01*
X39740060Y24137341D01*
X39769444Y24133977D01*
X40270172Y24194004D01*
X40897117Y24530438D01*
X41748281Y25216639D01*
X42921665Y26325970D01*
X43598001Y26999953D01*
X44852193Y28280303D01*
X45668342Y29176353D01*
X46117677Y29792115D01*
X46271427Y30231604D01*
X46200821Y30598832D01*
X46143228Y30716671D01*
X45490032Y31369757D01*
X44609959Y31386306D01*
X43556995Y30777026D01*
X42810024Y30055556D01*
X42074372Y29271553D01*
X41541143Y28759193D01*
X41373981Y28644445D01*
X41278823Y28966702D01*
X41183699Y29811981D01*
X41109053Y30998044D01*
X41108479Y31011001D01*
X41030822Y32282815D01*
X40894714Y33023002D01*
X40634463Y33405456D01*
X40184377Y33604067D01*
X40122222Y33621670D01*
X40239384Y33681179D01*
X40986156Y33735086D01*
X42286604Y33781589D01*
X44064792Y33818888D01*
X46244786Y33845184D01*
X48750651Y33858676D01*
X50176389Y33860024D01*
X52833255Y33853568D01*
X55212993Y33837983D01*
X57237924Y33814567D01*
X58830372Y33784618D01*
X59912657Y33749434D01*
X60407101Y33710313D01*
X60406944Y33689040D01*
X59556014Y33257778D01*
X59046656Y32385589D01*
X58832931Y30976311D01*
X58819444Y30366106D01*
X58958154Y28818547D01*
X59342073Y27778391D01*
X59922884Y27300571D01*
X60652274Y27440018D01*
X61087301Y27787699D01*
X61468931Y28553863D01*
X61632808Y29907620D01*
X61641666Y30433532D01*
X61695797Y31550676D01*
X61836893Y32306958D01*
X61994444Y32525000D01*
X62088956Y32190792D01*
X62169855Y31262202D01*
X62236623Y29850281D01*
X62288742Y28066083D01*
X62325697Y26020660D01*
X62346969Y23825062D01*
X62352041Y21590342D01*
X65663002Y21590342D01*
X67271212Y21657206D01*
X68321320Y21891314D01*
X68880247Y22334953D01*
X69003436Y22841111D01*
X67155421Y22841111D01*
X66833805Y22793092D01*
X65953909Y22767855D01*
X65522222Y22765829D01*
X64462243Y22781150D01*
X63934468Y22821980D01*
X64012516Y22880619D01*
X64199305Y22904210D01*
X65523962Y22961292D01*
X66845139Y22904210D01*
X67155421Y22841111D01*
X69003436Y22841111D01*
X69049861Y23031861D01*
X69050000Y23058144D01*
X68779966Y23726860D01*
X67941362Y24161879D01*
X66491434Y24378914D01*
X65369025Y24411111D01*
X64118962Y24433392D01*
X63419304Y24530956D01*
X63115506Y24749891D01*
X63052778Y25101828D01*
X63124936Y25456212D01*
X63437092Y25675824D01*
X64132768Y25802905D01*
X65355487Y25879693D01*
X65749728Y25895578D01*
X67255039Y25993616D01*
X68195018Y26168424D01*
X68708419Y26451261D01*
X68816076Y26586402D01*
X68956564Y27074444D01*
X67155421Y27074444D01*
X66833805Y27026425D01*
X65953909Y27001188D01*
X65522222Y26999162D01*
X64462243Y27014483D01*
X63934468Y27055314D01*
X64012516Y27113952D01*
X64199305Y27137543D01*
X65523962Y27194626D01*
X66845139Y27137543D01*
X67155421Y27074444D01*
X68956564Y27074444D01*
X69031009Y27333056D01*
X68594297Y27863295D01*
X67498063Y28181368D01*
X65734431Y28291525D01*
X65655415Y28291667D01*
X63052778Y28291667D01*
X63052778Y30435470D01*
X63011543Y31701457D01*
X62830676Y32527959D01*
X62424429Y33178985D01*
X62021581Y33610470D01*
X61456807Y34126057D01*
X60903404Y34433410D01*
X60160179Y34585994D01*
X59025937Y34637273D01*
X58141025Y34641667D01*
X55291667Y34641667D01*
X55291667Y36905870D01*
X55290941Y36934722D01*
X54117573Y36934722D01*
X54102031Y35904896D01*
X54058276Y35395443D01*
X53994979Y35489458D01*
X53978722Y35603937D01*
X53919496Y36770531D01*
X53971115Y38026237D01*
X53975877Y38073382D01*
X54041290Y38407198D01*
X54090913Y38104957D01*
X54116102Y37236121D01*
X54117573Y36934722D01*
X55290941Y36934722D01*
X55251528Y38500769D01*
X55101257Y39513284D01*
X54796069Y40063553D01*
X54291180Y40271714D01*
X54031613Y40286111D01*
X53191026Y40009102D01*
X52692873Y39162218D01*
X52527408Y37721677D01*
X52570370Y36720526D01*
X52649405Y35563469D01*
X52606708Y34942667D01*
X52377787Y34691145D01*
X51898148Y34641928D01*
X51767423Y34641667D01*
X50798258Y34641667D01*
X50970988Y36934722D01*
X50000000Y36934722D01*
X49948489Y35520252D01*
X49820261Y34801590D01*
X49654771Y34778622D01*
X49491478Y35451232D01*
X49369837Y36819303D01*
X49364111Y36936592D01*
X49356070Y38274063D01*
X49473540Y39055569D01*
X49628695Y39227778D01*
X49834773Y38897647D01*
X49964806Y37993537D01*
X50000000Y36934722D01*
X50970988Y36934722D01*
X50971030Y36935278D01*
X51001438Y38554792D01*
X50773483Y39593067D01*
X50246820Y40139893D01*
X49465381Y40286111D01*
X48884415Y40174686D01*
X48515540Y39760943D01*
X48315408Y38925683D01*
X48240669Y37549706D01*
X48236111Y36905870D01*
X48213569Y35674378D01*
X48113374Y34991087D01*
X47886678Y34699231D01*
X47530555Y34641667D01*
X47158251Y34708935D01*
X46945744Y35011777D01*
X46849284Y35701752D01*
X46825124Y36930417D01*
X46825121Y36934722D01*
X45650906Y36934722D01*
X45635364Y35904896D01*
X45591610Y35395443D01*
X45528312Y35489458D01*
X45512055Y35603937D01*
X45452829Y36770531D01*
X45504449Y38026237D01*
X45509210Y38073382D01*
X45574624Y38407198D01*
X45624247Y38104957D01*
X45649435Y37236121D01*
X45650906Y36934722D01*
X46825121Y36934722D01*
X46825000Y37085913D01*
X46712304Y38866503D01*
X46372105Y39983795D01*
X45801237Y40443432D01*
X45036612Y40273000D01*
G36*
X50881944Y18943056D02*
X50890442Y17542554D01*
X50948942Y16697874D01*
X51106958Y16259280D01*
X51414002Y16077039D01*
X51852083Y16009207D01*
X52556994Y15776315D01*
X52822222Y15415278D01*
X52516915Y15029704D01*
X51852083Y14821349D01*
X51154210Y14623647D01*
X50902991Y14096122D01*
X50881944Y13651389D01*
X50933815Y12997338D01*
X51216583Y12670199D01*
X51920979Y12530727D01*
X52474210Y12488940D01*
X53282083Y12465489D01*
X53901044Y12586292D01*
X54508454Y12949478D01*
X55281670Y13653179D01*
X56116457Y14504142D01*
X57234210Y15736003D01*
X57860447Y16633124D01*
X58060416Y17294155D01*
X58051969Y17430481D01*
X57928046Y17863639D01*
X57601282Y18119255D01*
X56908646Y18256861D01*
X55687104Y18335989D01*
X55556250Y18341813D01*
X54203110Y18443344D01*
X53446652Y18618331D01*
X53179510Y18894106D01*
X53175000Y18947979D01*
X53312718Y19172864D01*
X53793473Y19332842D01*
X54718664Y19442621D01*
X56189691Y19516908D01*
X57320139Y19549221D01*
X61465278Y19648611D01*
X61465278Y21765278D01*
X50881944Y21765278D01*
X50881944Y18943056D01*
X50881944Y18943056D01*
G37*
X50881944Y18943056D02*
X50890442Y17542554D01*
X50948942Y16697874D01*
X51106958Y16259280D01*
X51414002Y16077039D01*
X51852083Y16009207D01*
X52556994Y15776315D01*
X52822222Y15415278D01*
X52516915Y15029704D01*
X51852083Y14821349D01*
X51154210Y14623647D01*
X50902991Y14096122D01*
X50881944Y13651389D01*
X50933815Y12997338D01*
X51216583Y12670199D01*
X51920979Y12530727D01*
X52474210Y12488940D01*
X53282083Y12465489D01*
X53901044Y12586292D01*
X54508454Y12949478D01*
X55281670Y13653179D01*
X56116457Y14504142D01*
X57234210Y15736003D01*
X57860447Y16633124D01*
X58060416Y17294155D01*
X58051969Y17430481D01*
X57928046Y17863639D01*
X57601282Y18119255D01*
X56908646Y18256861D01*
X55687104Y18335989D01*
X55556250Y18341813D01*
X54203110Y18443344D01*
X53446652Y18618331D01*
X53179510Y18894106D01*
X53175000Y18947979D01*
X53312718Y19172864D01*
X53793473Y19332842D01*
X54718664Y19442621D01*
X56189691Y19516908D01*
X57320139Y19549221D01*
X61465278Y19648611D01*
X61465278Y21765278D01*
X50881944Y21765278D01*
X50881944Y18943056D01*
G36*
X45004679Y21883242D02*
X43999590Y21864304D01*
X39240278Y21765278D01*
X39240278Y19648611D01*
X47177778Y19449115D01*
X47177778Y15261997D01*
X43209028Y15162249D01*
X39240278Y15062500D01*
X39240278Y12945834D01*
X44010982Y12848205D01*
X46193181Y12827439D01*
X47740274Y12871295D01*
X48720133Y12984142D01*
X49200631Y13170353D01*
X49214454Y13183344D01*
X49427851Y13750821D01*
X49571992Y14830241D01*
X49647144Y16231424D01*
X49653571Y17764192D01*
X49591538Y19238366D01*
X49461310Y20463765D01*
X49263153Y21250210D01*
X49203063Y21355905D01*
X48944160Y21602428D01*
X48514201Y21766764D01*
X47793856Y21860572D01*
X46663792Y21895512D01*
X45004679Y21883242D01*
X45004679Y21883242D01*
G37*
X45004679Y21883242D02*
X43999590Y21864304D01*
X39240278Y21765278D01*
X39240278Y19648611D01*
X47177778Y19449115D01*
X47177778Y15261997D01*
X43209028Y15162249D01*
X39240278Y15062500D01*
X39240278Y12945834D01*
X44010982Y12848205D01*
X46193181Y12827439D01*
X47740274Y12871295D01*
X48720133Y12984142D01*
X49200631Y13170353D01*
X49214454Y13183344D01*
X49427851Y13750821D01*
X49571992Y14830241D01*
X49647144Y16231424D01*
X49653571Y17764192D01*
X49591538Y19238366D01*
X49461310Y20463765D01*
X49263153Y21250210D01*
X49203063Y21355905D01*
X48944160Y21602428D01*
X48514201Y21766764D01*
X47793856Y21860572D01*
X46663792Y21895512D01*
X45004679Y21883242D01*
G36*
X53972180Y26341006D02*
X52540546Y26301745D01*
X51590368Y26221442D01*
X51009696Y26087932D01*
X50686580Y25889049D01*
X50588072Y25763599D01*
X50426094Y25070327D01*
X50681014Y24617071D01*
X51245024Y24361454D01*
X52347246Y24173463D01*
X53823586Y24053097D01*
X55509949Y24000356D01*
X57242240Y24015242D01*
X58856364Y24097752D01*
X60188227Y24247889D01*
X61073733Y24465651D01*
X61313430Y24617071D01*
X61586578Y25295193D01*
X61406372Y25763599D01*
X61168830Y25999081D01*
X60728769Y26163210D01*
X59974239Y26268151D01*
X58793291Y26326069D01*
X57073973Y26349129D01*
X55997222Y26351389D01*
X53972180Y26341006D01*
X53972180Y26341006D01*
G37*
X53972180Y26341006D02*
X52540546Y26301745D01*
X51590368Y26221442D01*
X51009696Y26087932D01*
X50686580Y25889049D01*
X50588072Y25763599D01*
X50426094Y25070327D01*
X50681014Y24617071D01*
X51245024Y24361454D01*
X52347246Y24173463D01*
X53823586Y24053097D01*
X55509949Y24000356D01*
X57242240Y24015242D01*
X58856364Y24097752D01*
X60188227Y24247889D01*
X61073733Y24465651D01*
X61313430Y24617071D01*
X61586578Y25295193D01*
X61406372Y25763599D01*
X61168830Y25999081D01*
X60728769Y26163210D01*
X59974239Y26268151D01*
X58793291Y26326069D01*
X57073973Y26349129D01*
X55997222Y26351389D01*
X53972180Y26341006D01*
G36*
X47354166Y24234722D02*
X48326311Y24122902D01*
X49151074Y24199418D01*
X49484620Y24496217D01*
X49549474Y25024305D01*
X49587144Y26099215D01*
X49594725Y27562631D01*
X49570808Y29194149D01*
X49470833Y33406945D01*
X47354166Y33406945D01*
X47354166Y24234722D01*
X47354166Y24234722D01*
G37*
X47354166Y24234722D02*
X48326311Y24122902D01*
X49151074Y24199418D01*
X49484620Y24496217D01*
X49549474Y25024305D01*
X49587144Y26099215D01*
X49594725Y27562631D01*
X49570808Y29194149D01*
X49470833Y33406945D01*
X47354166Y33406945D01*
X47354166Y24234722D01*
%LPC*%
D15*
X14635931Y35430000D03*
D16*
X17175931Y35430000D03*
X19715931Y35430000D03*
X22255931Y35430000D03*
X24795931Y35430000D03*
X27335931Y35430000D03*
X29875931Y35430000D03*
X32415931Y35430000D03*
D17*
X32220000Y56660000D03*
D18*
X65240000Y71900000D03*
X34760000Y56660000D03*
X62700000Y71900000D03*
X37300000Y56660000D03*
X60160000Y71900000D03*
X39840000Y56660000D03*
X57620000Y71900000D03*
X42380000Y56660000D03*
X55080000Y71900000D03*
X44920000Y56660000D03*
X52540000Y71900000D03*
X47460000Y56660000D03*
X50000000Y71900000D03*
X50000000Y56660000D03*
X47460000Y71900000D03*
X52540000Y56660000D03*
X44920000Y71900000D03*
X55080000Y56660000D03*
X42380000Y71900000D03*
X57620000Y56660000D03*
X39840000Y71900000D03*
X60160000Y56660000D03*
X37300000Y71900000D03*
X62700000Y56660000D03*
X34760000Y71900000D03*
X65240000Y56660000D03*
X32220000Y71900000D03*
X67780000Y56660000D03*
X67780000Y71900000D03*
D19*
X29000000Y86000000D03*
D20*
X31540000Y86000000D03*
D19*
X71000000Y86000000D03*
D20*
X68460000Y86000000D03*
D19*
X70000000Y68400000D03*
D21*
X59840000Y68400000D03*
D22*
X69500000Y43500000D03*
D23*
X69500000Y41000000D03*
X69500000Y38500000D03*
D24*
X33500000Y75300000D03*
D18*
X43660000Y75300000D03*
D24*
X66500000Y75300000D03*
D18*
X56340000Y75300000D03*
D24*
X75950000Y35640000D03*
D18*
X75950000Y45800000D03*
D24*
X87500000Y35640000D03*
D18*
X87500000Y45800000D03*
D24*
X59740000Y65000000D03*
D18*
X69900000Y65000000D03*
D24*
X69900000Y61700000D03*
D18*
X59740000Y61700000D03*
D25*
X75800000Y48600000D03*
X75800000Y52200000D03*
X73300000Y48600000D03*
X70800000Y48600000D03*
X70800000Y52200000D03*
X73300000Y52200000D03*
D26*
X53580000Y68120000D03*
D27*
X35800000Y60500000D03*
X51040000Y68120000D03*
X38340000Y60500000D03*
X48500000Y68120000D03*
X40880000Y60500000D03*
X45960000Y68120000D03*
X43420000Y60500000D03*
X43420000Y68120000D03*
X45960000Y60500000D03*
X40880000Y68120000D03*
X48500000Y60500000D03*
X38340000Y68120000D03*
X51040000Y60500000D03*
X35800000Y68120000D03*
X53580000Y60500000D03*
D28*
X83950000Y39300000D03*
X79450000Y39300000D03*
X83950000Y45800000D03*
X79450000Y45800000D03*
X95550000Y39300000D03*
X91050000Y39300000D03*
X95550000Y45800000D03*
X91050000Y45800000D03*
D15*
X14635931Y50880839D03*
D16*
X17175931Y50880839D03*
X19715931Y50880839D03*
X22255931Y50880839D03*
X24795931Y50880839D03*
X27335931Y50880839D03*
X29875931Y50880839D03*
X32415931Y50880839D03*
D15*
X18500000Y39760000D03*
D16*
X18500000Y42300000D03*
X18500000Y44840000D03*
X18500000Y47380000D03*
D15*
X87740000Y30300000D03*
D16*
X85200000Y30300000D03*
X82660000Y30300000D03*
X80120000Y30300000D03*
X77580000Y30300000D03*
X75040000Y30300000D03*
D15*
X17420000Y30500000D03*
D16*
X19960000Y30500000D03*
X22500000Y30500000D03*
X25040000Y30500000D03*
X27580000Y30500000D03*
D29*
X26500000Y10000000D03*
D30*
X24500000Y10000000D03*
X22500000Y10000000D03*
X20500000Y10000000D03*
X18500000Y10000000D03*
X16500000Y10000000D03*
D29*
X73500000Y10000000D03*
D30*
X75500000Y10000000D03*
X77500000Y10000000D03*
X79500000Y10000000D03*
X81500000Y10000000D03*
X83500000Y10000000D03*
D29*
X26000000Y55500000D03*
D30*
X26000000Y57500000D03*
X26000000Y59500000D03*
D29*
X48000000Y75000000D03*
D30*
X50000000Y75000000D03*
X52000000Y75000000D03*
D29*
X74000000Y59500000D03*
D30*
X74000000Y57500000D03*
X74000000Y55500000D03*
D15*
X57620000Y86000000D03*
D16*
X55080000Y86000000D03*
X52540000Y86000000D03*
X50000000Y86000000D03*
X47460000Y86000000D03*
X44920000Y86000000D03*
X42380000Y86000000D03*
M02*
