G04 #@! TF.FileFunction,Legend,Top*
%FSLAX46Y46*%
G04 Gerber Fmt 4.6, Leading zero omitted, Abs format (unit mm)*
G04 Created by KiCad (PCBNEW 4.0.6) date 08/14/17 00:57:17*
%MOMM*%
%LPD*%
G01*
G04 APERTURE LIST*
%ADD10C,0.100000*%
%ADD11C,0.150000*%
%ADD12C,0.200000*%
%ADD13C,0.120000*%
%ADD14R,2.000000X2.000000*%
%ADD15O,2.000000X2.000000*%
%ADD16R,2.100000X2.100000*%
%ADD17O,2.100000X2.100000*%
%ADD18R,2.200000X2.200000*%
%ADD19C,2.200000*%
%ADD20O,2.200000X2.200000*%
%ADD21R,2.150000X2.150000*%
%ADD22C,2.150000*%
%ADD23R,1.670000X1.370000*%
%ADD24C,2.000000*%
%ADD25C,1.800000*%
%ADD26R,2.000000X2.800000*%
%ADD27O,2.000000X2.800000*%
%ADD28C,2.400000*%
%ADD29R,1.750000X1.750000*%
%ADD30O,1.750000X1.750000*%
G04 APERTURE END LIST*
D10*
D11*
X61000000Y100000000D02*
X63000000Y100000000D01*
X37000000Y100000000D02*
X39000000Y100000000D01*
X59000000Y98000000D02*
X61000000Y100000000D01*
X41000000Y98000000D02*
X59000000Y98000000D01*
X39000000Y100000000D02*
X41000000Y98000000D01*
X100000000Y47200000D02*
X68000000Y95000000D01*
X68000000Y95000000D02*
G75*
G03X63000000Y100000000I-5000000J0D01*
G01*
X32000000Y95000000D02*
X0Y47200000D01*
X37000000Y100000000D02*
G75*
G03X32000000Y95000000I0J-5000000D01*
G01*
X83100000Y57000000D02*
G75*
G03X83100000Y57000000I-1100000J0D01*
G01*
X19100000Y57000000D02*
G75*
G03X19100000Y57000000I-1100000J0D01*
G01*
X70100000Y78000000D02*
G75*
G03X70100000Y78000000I-1100000J0D01*
G01*
X32100000Y78000000D02*
G75*
G03X32100000Y78000000I-1100000J0D01*
G01*
X74150000Y60500000D02*
X71750000Y60500000D01*
X74150000Y68100000D02*
X74150000Y60500000D01*
X71750000Y68100000D02*
X74150000Y68100000D01*
D12*
X13069048Y53247619D02*
X13069048Y54247619D01*
X13307143Y54247619D01*
X13450001Y54200000D01*
X13545239Y54104762D01*
X13592858Y54009524D01*
X13640477Y53819048D01*
X13640477Y53676190D01*
X13592858Y53485714D01*
X13545239Y53390476D01*
X13450001Y53295238D01*
X13307143Y53247619D01*
X13069048Y53247619D01*
X14640477Y53247619D02*
X14307143Y53723810D01*
X14069048Y53247619D02*
X14069048Y54247619D01*
X14450001Y54247619D01*
X14545239Y54200000D01*
X14592858Y54152381D01*
X14640477Y54057143D01*
X14640477Y53914286D01*
X14592858Y53819048D01*
X14545239Y53771429D01*
X14450001Y53723810D01*
X14069048Y53723810D01*
X15069048Y53247619D02*
X15069048Y54247619D01*
X15402381Y54247619D02*
X15735714Y53247619D01*
X16069048Y54247619D01*
X16402381Y53771429D02*
X16735715Y53771429D01*
X16878572Y53247619D02*
X16402381Y53247619D01*
X16402381Y54247619D01*
X16878572Y54247619D01*
X17878572Y53247619D02*
X17545238Y53723810D01*
X17307143Y53247619D02*
X17307143Y54247619D01*
X17688096Y54247619D01*
X17783334Y54200000D01*
X17830953Y54152381D01*
X17878572Y54057143D01*
X17878572Y53914286D01*
X17830953Y53819048D01*
X17783334Y53771429D01*
X17688096Y53723810D01*
X17307143Y53723810D01*
X47764286Y76845238D02*
X47907143Y76797619D01*
X48145239Y76797619D01*
X48240477Y76845238D01*
X48288096Y76892857D01*
X48335715Y76988095D01*
X48335715Y77083333D01*
X48288096Y77178571D01*
X48240477Y77226190D01*
X48145239Y77273810D01*
X47954762Y77321429D01*
X47859524Y77369048D01*
X47811905Y77416667D01*
X47764286Y77511905D01*
X47764286Y77607143D01*
X47811905Y77702381D01*
X47859524Y77750000D01*
X47954762Y77797619D01*
X48192858Y77797619D01*
X48335715Y77750000D01*
X50261905Y77750000D02*
X50166667Y77797619D01*
X50023810Y77797619D01*
X49880952Y77750000D01*
X49785714Y77654762D01*
X49738095Y77559524D01*
X49690476Y77369048D01*
X49690476Y77226190D01*
X49738095Y77035714D01*
X49785714Y76940476D01*
X49880952Y76845238D01*
X50023810Y76797619D01*
X50119048Y76797619D01*
X50261905Y76845238D01*
X50309524Y76892857D01*
X50309524Y77226190D01*
X50119048Y77226190D01*
X51716667Y77797619D02*
X52050000Y76797619D01*
X52383334Y77797619D01*
X75916667Y55997619D02*
X76250000Y54997619D01*
X76583334Y55997619D01*
X76511905Y57950000D02*
X76416667Y57997619D01*
X76273810Y57997619D01*
X76130952Y57950000D01*
X76035714Y57854762D01*
X75988095Y57759524D01*
X75940476Y57569048D01*
X75940476Y57426190D01*
X75988095Y57235714D01*
X76035714Y57140476D01*
X76130952Y57045238D01*
X76273810Y56997619D01*
X76369048Y56997619D01*
X76511905Y57045238D01*
X76559524Y57092857D01*
X76559524Y57426190D01*
X76369048Y57426190D01*
X76014286Y59045238D02*
X76157143Y58997619D01*
X76395239Y58997619D01*
X76490477Y59045238D01*
X76538096Y59092857D01*
X76585715Y59188095D01*
X76585715Y59283333D01*
X76538096Y59378571D01*
X76490477Y59426190D01*
X76395239Y59473810D01*
X76204762Y59521429D01*
X76109524Y59569048D01*
X76061905Y59616667D01*
X76014286Y59711905D01*
X76014286Y59807143D01*
X76061905Y59902381D01*
X76109524Y59950000D01*
X76204762Y59997619D01*
X76442858Y59997619D01*
X76585715Y59950000D01*
X23514286Y54945238D02*
X23657143Y54897619D01*
X23895239Y54897619D01*
X23990477Y54945238D01*
X24038096Y54992857D01*
X24085715Y55088095D01*
X24085715Y55183333D01*
X24038096Y55278571D01*
X23990477Y55326190D01*
X23895239Y55373810D01*
X23704762Y55421429D01*
X23609524Y55469048D01*
X23561905Y55516667D01*
X23514286Y55611905D01*
X23514286Y55707143D01*
X23561905Y55802381D01*
X23609524Y55850000D01*
X23704762Y55897619D01*
X23942858Y55897619D01*
X24085715Y55850000D01*
X23516667Y59997619D02*
X23850000Y58997619D01*
X24183334Y59997619D01*
X24061905Y57850000D02*
X23966667Y57897619D01*
X23823810Y57897619D01*
X23680952Y57850000D01*
X23585714Y57754762D01*
X23538095Y57659524D01*
X23490476Y57469048D01*
X23490476Y57326190D01*
X23538095Y57135714D01*
X23585714Y57040476D01*
X23680952Y56945238D01*
X23823810Y56897619D01*
X23919048Y56897619D01*
X24061905Y56945238D01*
X24109524Y56992857D01*
X24109524Y57326190D01*
X23919048Y57326190D01*
X82861905Y28350000D02*
X82766667Y28397619D01*
X82623810Y28397619D01*
X82480952Y28350000D01*
X82385714Y28254762D01*
X82338095Y28159524D01*
X82290476Y27969048D01*
X82290476Y27826190D01*
X82338095Y27635714D01*
X82385714Y27540476D01*
X82480952Y27445238D01*
X82623810Y27397619D01*
X82719048Y27397619D01*
X82861905Y27445238D01*
X82909524Y27492857D01*
X82909524Y27826190D01*
X82719048Y27826190D01*
X17611905Y28350000D02*
X17516667Y28397619D01*
X17373810Y28397619D01*
X17230952Y28350000D01*
X17135714Y28254762D01*
X17088095Y28159524D01*
X17040476Y27969048D01*
X17040476Y27826190D01*
X17088095Y27635714D01*
X17135714Y27540476D01*
X17230952Y27445238D01*
X17373810Y27397619D01*
X17469048Y27397619D01*
X17611905Y27445238D01*
X17659524Y27492857D01*
X17659524Y27826190D01*
X17469048Y27826190D01*
X13726191Y34147619D02*
X14059524Y33147619D01*
X14392858Y34147619D01*
X14726191Y33147619D02*
X14726191Y33814286D01*
X14726191Y34147619D02*
X14678572Y34100000D01*
X14726191Y34052381D01*
X14773810Y34100000D01*
X14726191Y34147619D01*
X14726191Y34052381D01*
X15202381Y33814286D02*
X15202381Y33147619D01*
X15202381Y33719048D02*
X15250000Y33766667D01*
X15345238Y33814286D01*
X15488096Y33814286D01*
X15583334Y33766667D01*
X15630953Y33671429D01*
X15630953Y33147619D01*
X35211905Y36700000D02*
X35116667Y36747619D01*
X34973810Y36747619D01*
X34830952Y36700000D01*
X34735714Y36604762D01*
X34688095Y36509524D01*
X34640476Y36319048D01*
X34640476Y36176190D01*
X34688095Y35985714D01*
X34735714Y35890476D01*
X34830952Y35795238D01*
X34973810Y35747619D01*
X35069048Y35747619D01*
X35211905Y35795238D01*
X35259524Y35842857D01*
X35259524Y36176190D01*
X35069048Y36176190D01*
X35211905Y51300000D02*
X35116667Y51347619D01*
X34973810Y51347619D01*
X34830952Y51300000D01*
X34735714Y51204762D01*
X34688095Y51109524D01*
X34640476Y50919048D01*
X34640476Y50776190D01*
X34688095Y50585714D01*
X34735714Y50490476D01*
X34830952Y50395238D01*
X34973810Y50347619D01*
X35069048Y50347619D01*
X35211905Y50395238D01*
X35259524Y50442857D01*
X35259524Y50776190D01*
X35069048Y50776190D01*
X15011905Y39871429D02*
X15345239Y39871429D01*
X15488096Y39347619D02*
X15011905Y39347619D01*
X15011905Y40347619D01*
X15488096Y40347619D01*
X15916667Y39347619D02*
X15916667Y40347619D01*
X16488096Y39347619D01*
X16488096Y40347619D01*
X14626191Y42847619D02*
X14959524Y41847619D01*
X15292858Y42847619D01*
X15626191Y41847619D02*
X15626191Y42514286D01*
X15626191Y42847619D02*
X15578572Y42800000D01*
X15626191Y42752381D01*
X15673810Y42800000D01*
X15626191Y42847619D01*
X15626191Y42752381D01*
X16102381Y42514286D02*
X16102381Y41847619D01*
X16102381Y42419048D02*
X16150000Y42466667D01*
X16245238Y42514286D01*
X16388096Y42514286D01*
X16483334Y42466667D01*
X16530953Y42371429D01*
X16530953Y41847619D01*
X15559524Y47847619D02*
X15083333Y47847619D01*
X15035714Y47371429D01*
X15083333Y47419048D01*
X15178571Y47466667D01*
X15416667Y47466667D01*
X15511905Y47419048D01*
X15559524Y47371429D01*
X15607143Y47276190D01*
X15607143Y47038095D01*
X15559524Y46942857D01*
X15511905Y46895238D01*
X15416667Y46847619D01*
X15178571Y46847619D01*
X15083333Y46895238D01*
X15035714Y46942857D01*
X15892857Y47847619D02*
X16226190Y46847619D01*
X16559524Y47847619D01*
X14388096Y45200000D02*
X14292858Y45247619D01*
X14150001Y45247619D01*
X14007143Y45200000D01*
X13911905Y45104762D01*
X13864286Y45009524D01*
X13816667Y44819048D01*
X13816667Y44676190D01*
X13864286Y44485714D01*
X13911905Y44390476D01*
X14007143Y44295238D01*
X14150001Y44247619D01*
X14245239Y44247619D01*
X14388096Y44295238D01*
X14435715Y44342857D01*
X14435715Y44676190D01*
X14245239Y44676190D01*
X14864286Y44247619D02*
X14864286Y45247619D01*
X15435715Y44247619D01*
X15435715Y45247619D01*
X15911905Y44247619D02*
X15911905Y45247619D01*
X16150000Y45247619D01*
X16292858Y45200000D01*
X16388096Y45104762D01*
X16435715Y45009524D01*
X16483334Y44819048D01*
X16483334Y44676190D01*
X16435715Y44485714D01*
X16388096Y44390476D01*
X16292858Y44295238D01*
X16150000Y44247619D01*
X15911905Y44247619D01*
X81661905Y7900000D02*
X81566667Y7947619D01*
X81423810Y7947619D01*
X81280952Y7900000D01*
X81185714Y7804762D01*
X81138095Y7709524D01*
X81090476Y7519048D01*
X81090476Y7376190D01*
X81138095Y7185714D01*
X81185714Y7090476D01*
X81280952Y6995238D01*
X81423810Y6947619D01*
X81519048Y6947619D01*
X81661905Y6995238D01*
X81709524Y7042857D01*
X81709524Y7376190D01*
X81519048Y7376190D01*
X79709524Y7042857D02*
X79661905Y6995238D01*
X79519048Y6947619D01*
X79423810Y6947619D01*
X79280952Y6995238D01*
X79185714Y7090476D01*
X79138095Y7185714D01*
X79090476Y7376190D01*
X79090476Y7519048D01*
X79138095Y7709524D01*
X79185714Y7804762D01*
X79280952Y7900000D01*
X79423810Y7947619D01*
X79519048Y7947619D01*
X79661905Y7900000D01*
X79709524Y7852381D01*
X77609524Y7042857D02*
X77561905Y6995238D01*
X77419048Y6947619D01*
X77323810Y6947619D01*
X77180952Y6995238D01*
X77085714Y7090476D01*
X77038095Y7185714D01*
X76990476Y7376190D01*
X76990476Y7519048D01*
X77038095Y7709524D01*
X77085714Y7804762D01*
X77180952Y7900000D01*
X77323810Y7947619D01*
X77419048Y7947619D01*
X77561905Y7900000D01*
X77609524Y7852381D01*
X75066667Y7947619D02*
X75400000Y6947619D01*
X75733334Y7947619D01*
X83166667Y6947619D02*
X83166667Y7947619D01*
X83500001Y7233333D01*
X83833334Y7947619D01*
X83833334Y6947619D01*
X73066667Y6947619D02*
X73066667Y7947619D01*
X73400001Y7233333D01*
X73733334Y7947619D01*
X73733334Y6947619D01*
X20709524Y7042857D02*
X20661905Y6995238D01*
X20519048Y6947619D01*
X20423810Y6947619D01*
X20280952Y6995238D01*
X20185714Y7090476D01*
X20138095Y7185714D01*
X20090476Y7376190D01*
X20090476Y7519048D01*
X20138095Y7709524D01*
X20185714Y7804762D01*
X20280952Y7900000D01*
X20423810Y7947619D01*
X20519048Y7947619D01*
X20661905Y7900000D01*
X20709524Y7852381D01*
X18661905Y7900000D02*
X18566667Y7947619D01*
X18423810Y7947619D01*
X18280952Y7900000D01*
X18185714Y7804762D01*
X18138095Y7709524D01*
X18090476Y7519048D01*
X18090476Y7376190D01*
X18138095Y7185714D01*
X18185714Y7090476D01*
X18280952Y6995238D01*
X18423810Y6947619D01*
X18519048Y6947619D01*
X18661905Y6995238D01*
X18709524Y7042857D01*
X18709524Y7376190D01*
X18519048Y7376190D01*
X22709524Y7042857D02*
X22661905Y6995238D01*
X22519048Y6947619D01*
X22423810Y6947619D01*
X22280952Y6995238D01*
X22185714Y7090476D01*
X22138095Y7185714D01*
X22090476Y7376190D01*
X22090476Y7519048D01*
X22138095Y7709524D01*
X22185714Y7804762D01*
X22280952Y7900000D01*
X22423810Y7947619D01*
X22519048Y7947619D01*
X22661905Y7900000D01*
X22709524Y7852381D01*
X24166667Y7947619D02*
X24500000Y6947619D01*
X24833334Y7947619D01*
X26166667Y6947619D02*
X26166667Y7947619D01*
X26500001Y7233333D01*
X26833334Y7947619D01*
X26833334Y6947619D01*
X16066667Y6947619D02*
X16066667Y7947619D01*
X16400001Y7233333D01*
X16733334Y7947619D01*
X16733334Y6947619D01*
D11*
X64100000Y94950000D02*
G75*
G03X64100000Y94950000I-1100000J0D01*
G01*
X38100000Y95000000D02*
G75*
G03X38100000Y95000000I-1100000J0D01*
G01*
X34100000Y31000000D02*
G75*
G03X34100000Y31000000I-1100000J0D01*
G01*
X68100000Y31000000D02*
G75*
G03X68100000Y31000000I-1100000J0D01*
G01*
X68100000Y7000000D02*
G75*
G03X68100000Y7000000I-1100000J0D01*
G01*
X34100000Y7000000D02*
G75*
G03X34100000Y7000000I-1100000J0D01*
G01*
X91100000Y7000000D02*
G75*
G03X91100000Y7000000I-1100000J0D01*
G01*
X11100000Y7000000D02*
G75*
G03X11100000Y7000000I-1100000J0D01*
G01*
X95000000Y4000000D02*
X100000000Y9000000D01*
X69000000Y4000000D02*
X95000000Y4000000D01*
X65000000Y0D02*
X69000000Y4000000D01*
X35000000Y0D02*
X65000000Y0D01*
X5000000Y4000000D02*
X0Y9000000D01*
X31000000Y4000000D02*
X5000000Y4000000D01*
X35000000Y0D02*
X31000000Y4000000D01*
D12*
X37500000Y52100000D02*
X37500000Y100000D01*
X62500000Y52100000D02*
X37500000Y52100000D01*
X62500000Y100000D02*
X62500000Y52100000D01*
X37500000Y100000D02*
X62500000Y100000D01*
X76000000Y14500000D02*
X88500000Y14500000D01*
X76000000Y26500000D02*
X76000000Y14500000D01*
X88500000Y26500000D02*
X76000000Y26500000D01*
X24000000Y14500000D02*
X11500000Y14500000D01*
X24000000Y26500000D02*
X24000000Y14500000D01*
X11500000Y26500000D02*
X24000000Y26500000D01*
X92000000Y28000000D02*
X92000000Y29500000D01*
X88500000Y28000000D02*
X92000000Y28000000D01*
X88500000Y13000000D02*
X88500000Y28000000D01*
X92000000Y13000000D02*
X88500000Y13000000D01*
X92000000Y11500000D02*
X92000000Y13000000D01*
X92000000Y11500000D02*
G75*
G03X100000000Y11500000I4000000J0D01*
G01*
X100000000Y29500000D02*
G75*
G03X92000000Y29500000I-4000000J0D01*
G01*
X8000000Y28000000D02*
X8000000Y29500000D01*
X11500000Y28000000D02*
X8000000Y28000000D01*
X11500000Y13000000D02*
X11500000Y28000000D01*
X8000000Y13000000D02*
X11500000Y13000000D01*
X8000000Y11500000D02*
X8000000Y13000000D01*
X0Y11500000D02*
G75*
G03X8000000Y11500000I4000000J0D01*
G01*
X8000000Y29500000D02*
G75*
G03X0Y29500000I-4000000J0D01*
G01*
D11*
X97100000Y29500000D02*
G75*
G03X97100000Y29500000I-1100000J0D01*
G01*
X97100000Y11500000D02*
G75*
G03X97100000Y11500000I-1100000J0D01*
G01*
X5100000Y11500000D02*
G75*
G03X5100000Y11500000I-1100000J0D01*
G01*
X5100000Y29500000D02*
G75*
G03X5100000Y29500000I-1100000J0D01*
G01*
X0Y47200000D02*
X0Y9000000D01*
X100000000Y9000000D02*
X100000000Y47200000D01*
D13*
X33490000Y57930000D02*
X30950000Y57930000D01*
X30950000Y57930000D02*
X30950000Y55260000D01*
X33490000Y55260000D02*
X71720000Y55260000D01*
X28280000Y55260000D02*
X30950000Y55260000D01*
X30950000Y70630000D02*
X30950000Y73300000D01*
X30950000Y70630000D02*
X69050000Y70630000D01*
X69050000Y70630000D02*
X69050000Y73300000D01*
X33490000Y57930000D02*
X33490000Y55260000D01*
X33490000Y57930000D02*
X69050000Y57930000D01*
X69050000Y57930000D02*
X69050000Y55260000D01*
X71720000Y55260000D02*
X71720000Y73300000D01*
X71720000Y73300000D02*
X28280000Y73300000D01*
X28280000Y73300000D02*
X28280000Y55260000D01*
X15905931Y34100000D02*
X33745931Y34100000D01*
X33745931Y34100000D02*
X33745931Y36760000D01*
X33745931Y36760000D02*
X15905931Y36760000D01*
X15905931Y36760000D02*
X15905931Y34100000D01*
X14635931Y34100000D02*
X13305931Y34100000D01*
X13305931Y34100000D02*
X13305931Y35430000D01*
X28597665Y84921392D02*
G75*
G03X31830000Y84764484I1672335J1078608D01*
G01*
X28597665Y87078608D02*
G75*
G02X31830000Y87235516I1672335J-1078608D01*
G01*
X29228870Y84920163D02*
G75*
G03X31310961Y84920000I1041130J1079837D01*
G01*
X29228870Y87079837D02*
G75*
G02X31310961Y87080000I1041130J-1079837D01*
G01*
X31830000Y84764000D02*
X31830000Y84920000D01*
X31830000Y87080000D02*
X31830000Y87236000D01*
X71402335Y87078608D02*
G75*
G03X68170000Y87235516I-1672335J-1078608D01*
G01*
X71402335Y84921392D02*
G75*
G02X68170000Y84764484I-1672335J1078608D01*
G01*
X70771130Y87079837D02*
G75*
G03X68689039Y87080000I-1041130J-1079837D01*
G01*
X70771130Y84920163D02*
G75*
G02X68689039Y84920000I-1041130J1079837D01*
G01*
X68170000Y87236000D02*
X68170000Y87080000D01*
X68170000Y84920000D02*
X68170000Y84764000D01*
X67580000Y66990000D02*
X67580000Y69810000D01*
X67580000Y69810000D02*
X62260000Y69810000D01*
X62260000Y69810000D02*
X62260000Y66990000D01*
X62260000Y66990000D02*
X67580000Y66990000D01*
X68920000Y68400000D02*
X67580000Y68400000D01*
X60920000Y68400000D02*
X62260000Y68400000D01*
X66740000Y66990000D02*
X66740000Y69810000D01*
X71950000Y46050000D02*
X66000000Y46050000D01*
X66000000Y46050000D02*
X66000000Y35950000D01*
X66000000Y35950000D02*
X71950000Y35950000D01*
X71950000Y35950000D02*
X71950000Y46050000D01*
X71950000Y42750000D02*
X71200000Y42750000D01*
X71200000Y42750000D02*
X71200000Y39250000D01*
X71200000Y39250000D02*
X71950000Y39250000D01*
X71950000Y39250000D02*
X71950000Y42750000D01*
X71950000Y46050000D02*
X71200000Y46050000D01*
X71200000Y46050000D02*
X71200000Y44250000D01*
X71200000Y44250000D02*
X71950000Y44250000D01*
X71950000Y44250000D02*
X71950000Y46050000D01*
X71950000Y37750000D02*
X71200000Y37750000D01*
X71200000Y37750000D02*
X71200000Y35950000D01*
X71200000Y35950000D02*
X71950000Y35950000D01*
X71950000Y35950000D02*
X71950000Y37750000D01*
X69700000Y46050000D02*
X69700000Y45300000D01*
X69700000Y45300000D02*
X66750000Y45300000D01*
X66750000Y45300000D02*
X66750000Y41000000D01*
X69700000Y35950000D02*
X69700000Y36700000D01*
X69700000Y36700000D02*
X66750000Y36700000D01*
X66750000Y36700000D02*
X66750000Y41000000D01*
X72250000Y43850000D02*
X72250000Y46350000D01*
X72250000Y46350000D02*
X69750000Y46350000D01*
X29110000Y68870000D02*
X29110000Y66330000D01*
X30890000Y66330000D02*
X30890000Y68870000D01*
X30890000Y66330000D02*
X29110000Y66330000D01*
X29110000Y68870000D02*
X30890000Y68870000D01*
X35370000Y76610000D02*
X35370000Y73990000D01*
X35370000Y73990000D02*
X41790000Y73990000D01*
X41790000Y73990000D02*
X41790000Y76610000D01*
X41790000Y76610000D02*
X35370000Y76610000D01*
X34480000Y75300000D02*
X35370000Y75300000D01*
X42680000Y75300000D02*
X41790000Y75300000D01*
X64630000Y73990000D02*
X64630000Y76610000D01*
X64630000Y76610000D02*
X58210000Y76610000D01*
X58210000Y76610000D02*
X58210000Y73990000D01*
X58210000Y73990000D02*
X64630000Y73990000D01*
X65520000Y75300000D02*
X64630000Y75300000D01*
X57320000Y75300000D02*
X58210000Y75300000D01*
X74640000Y37510000D02*
X77260000Y37510000D01*
X77260000Y37510000D02*
X77260000Y43930000D01*
X77260000Y43930000D02*
X74640000Y43930000D01*
X74640000Y43930000D02*
X74640000Y37510000D01*
X75950000Y36620000D02*
X75950000Y37510000D01*
X75950000Y44820000D02*
X75950000Y43930000D01*
X86190000Y37510000D02*
X88810000Y37510000D01*
X88810000Y37510000D02*
X88810000Y43930000D01*
X88810000Y43930000D02*
X86190000Y43930000D01*
X86190000Y43930000D02*
X86190000Y37510000D01*
X87500000Y36620000D02*
X87500000Y37510000D01*
X87500000Y44820000D02*
X87500000Y43930000D01*
X61610000Y66310000D02*
X61610000Y63690000D01*
X61610000Y63690000D02*
X68030000Y63690000D01*
X68030000Y63690000D02*
X68030000Y66310000D01*
X68030000Y66310000D02*
X61610000Y66310000D01*
X60720000Y65000000D02*
X61610000Y65000000D01*
X68920000Y65000000D02*
X68030000Y65000000D01*
X68030000Y60390000D02*
X68030000Y63010000D01*
X68030000Y63010000D02*
X61610000Y63010000D01*
X61610000Y63010000D02*
X61610000Y60390000D01*
X61610000Y60390000D02*
X68030000Y60390000D01*
X68920000Y61700000D02*
X68030000Y61700000D01*
X60720000Y61700000D02*
X61610000Y61700000D01*
D12*
X77800000Y48650000D02*
X68800000Y48650000D01*
X68800000Y48650000D02*
X68800000Y52150000D01*
X68800000Y52150000D02*
X77800000Y52150000D01*
X77800000Y52150000D02*
X77800000Y48650000D01*
D13*
X54970000Y65310000D02*
X54970000Y66680000D01*
X54970000Y66680000D02*
X34410000Y66680000D01*
X34410000Y66680000D02*
X34410000Y61940000D01*
X34410000Y61940000D02*
X54970000Y61940000D01*
X54970000Y61940000D02*
X54970000Y63310000D01*
X54970000Y63310000D02*
G75*
G02X54970000Y65310000I0J1000000D01*
G01*
X84950000Y40300000D02*
X84950000Y44800000D01*
X80950000Y39050000D02*
X82450000Y39050000D01*
X78450000Y44800000D02*
X78450000Y40300000D01*
X82450000Y46050000D02*
X80950000Y46050000D01*
X96550000Y40300000D02*
X96550000Y44800000D01*
X92550000Y39050000D02*
X94050000Y39050000D01*
X90050000Y44800000D02*
X90050000Y40300000D01*
X94050000Y46050000D02*
X92550000Y46050000D01*
X15905931Y49550839D02*
X33745931Y49550839D01*
X33745931Y49550839D02*
X33745931Y52210839D01*
X33745931Y52210839D02*
X15905931Y52210839D01*
X15905931Y52210839D02*
X15905931Y49550839D01*
X14635931Y49550839D02*
X13305931Y49550839D01*
X13305931Y49550839D02*
X13305931Y50880839D01*
X19960000Y38430000D02*
X19960000Y41030000D01*
X19960000Y41030000D02*
X28590000Y41030000D01*
X28590000Y41030000D02*
X28590000Y38430000D01*
X28590000Y38430000D02*
X19960000Y38430000D01*
X19530000Y39380000D02*
X19960000Y39380000D01*
X19530000Y40140000D02*
X19960000Y40140000D01*
X19960000Y38610000D02*
X28590000Y38610000D01*
X19960000Y38730000D02*
X28590000Y38730000D01*
X19960000Y38850000D02*
X28590000Y38850000D01*
X19960000Y38970000D02*
X28590000Y38970000D01*
X19960000Y39090000D02*
X28590000Y39090000D01*
X19960000Y39210000D02*
X28590000Y39210000D01*
X19960000Y39330000D02*
X28590000Y39330000D01*
X19960000Y39450000D02*
X28590000Y39450000D01*
X19960000Y39570000D02*
X28590000Y39570000D01*
X19960000Y39690000D02*
X28590000Y39690000D01*
X19960000Y39810000D02*
X28590000Y39810000D01*
X19960000Y39930000D02*
X28590000Y39930000D01*
X19960000Y40050000D02*
X28590000Y40050000D01*
X19960000Y40170000D02*
X28590000Y40170000D01*
X19960000Y40290000D02*
X28590000Y40290000D01*
X19960000Y40410000D02*
X28590000Y40410000D01*
X19960000Y40530000D02*
X28590000Y40530000D01*
X19960000Y40650000D02*
X28590000Y40650000D01*
X19960000Y40770000D02*
X28590000Y40770000D01*
X19960000Y40890000D02*
X28590000Y40890000D01*
X19960000Y41010000D02*
X28590000Y41010000D01*
X19960000Y41130000D02*
X28590000Y41130000D01*
X19960000Y41030000D02*
X19960000Y43570000D01*
X19960000Y43570000D02*
X28590000Y43570000D01*
X28590000Y43570000D02*
X28590000Y41030000D01*
X28590000Y41030000D02*
X19960000Y41030000D01*
X19530000Y41920000D02*
X19960000Y41920000D01*
X19530000Y42680000D02*
X19960000Y42680000D01*
X19960000Y43570000D02*
X19960000Y46110000D01*
X19960000Y46110000D02*
X28590000Y46110000D01*
X28590000Y46110000D02*
X28590000Y43570000D01*
X28590000Y43570000D02*
X19960000Y43570000D01*
X19530000Y44460000D02*
X19960000Y44460000D01*
X19530000Y45220000D02*
X19960000Y45220000D01*
X19960000Y46110000D02*
X19960000Y48710000D01*
X19960000Y48710000D02*
X28590000Y48710000D01*
X28590000Y48710000D02*
X28590000Y46110000D01*
X28590000Y46110000D02*
X19960000Y46110000D01*
X19530000Y47000000D02*
X19960000Y47000000D01*
X19530000Y47760000D02*
X19960000Y47760000D01*
X18500000Y38490000D02*
X17230000Y38490000D01*
X17230000Y38490000D02*
X17230000Y39760000D01*
X86470000Y31630000D02*
X73710000Y31630000D01*
X73710000Y31630000D02*
X73710000Y28970000D01*
X73710000Y28970000D02*
X86470000Y28970000D01*
X86470000Y28970000D02*
X86470000Y31630000D01*
X87740000Y31630000D02*
X89070000Y31630000D01*
X89070000Y31630000D02*
X89070000Y30300000D01*
X18690000Y29170000D02*
X28910000Y29170000D01*
X28910000Y29170000D02*
X28910000Y31830000D01*
X28910000Y31830000D02*
X18690000Y31830000D01*
X18690000Y31830000D02*
X18690000Y29170000D01*
X17420000Y29170000D02*
X16090000Y29170000D01*
X16090000Y29170000D02*
X16090000Y30500000D01*
X25500000Y11060000D02*
X15440000Y11060000D01*
X15440000Y11060000D02*
X15440000Y8940000D01*
X15440000Y8940000D02*
X25500000Y8940000D01*
X25500000Y8940000D02*
X25500000Y11060000D01*
X26500000Y11060000D02*
X27560000Y11060000D01*
X27560000Y11060000D02*
X27560000Y10000000D01*
X74500000Y8940000D02*
X84560000Y8940000D01*
X84560000Y8940000D02*
X84560000Y11060000D01*
X84560000Y11060000D02*
X74500000Y11060000D01*
X74500000Y11060000D02*
X74500000Y8940000D01*
X73500000Y8940000D02*
X72440000Y8940000D01*
X72440000Y8940000D02*
X72440000Y10000000D01*
X27060000Y56500000D02*
X27060000Y60560000D01*
X27060000Y60560000D02*
X24940000Y60560000D01*
X24940000Y60560000D02*
X24940000Y56500000D01*
X24940000Y56500000D02*
X27060000Y56500000D01*
X27060000Y55500000D02*
X27060000Y54440000D01*
X27060000Y54440000D02*
X26000000Y54440000D01*
X49000000Y73940000D02*
X53060000Y73940000D01*
X53060000Y73940000D02*
X53060000Y76060000D01*
X53060000Y76060000D02*
X49000000Y76060000D01*
X49000000Y76060000D02*
X49000000Y73940000D01*
X48000000Y73940000D02*
X46940000Y73940000D01*
X46940000Y73940000D02*
X46940000Y75000000D01*
X72940000Y58500000D02*
X72940000Y54440000D01*
X72940000Y54440000D02*
X75060000Y54440000D01*
X75060000Y54440000D02*
X75060000Y58500000D01*
X75060000Y58500000D02*
X72940000Y58500000D01*
X72940000Y59500000D02*
X72940000Y60560000D01*
X72940000Y60560000D02*
X74000000Y60560000D01*
X58950000Y87460000D02*
X56350000Y87460000D01*
X56350000Y87460000D02*
X56350000Y96090000D01*
X56350000Y96090000D02*
X58950000Y96090000D01*
X58950000Y96090000D02*
X58950000Y87460000D01*
X58000000Y87030000D02*
X58000000Y87460000D01*
X57240000Y87030000D02*
X57240000Y87460000D01*
X58770000Y87460000D02*
X58770000Y96090000D01*
X58650000Y87460000D02*
X58650000Y96090000D01*
X58530000Y87460000D02*
X58530000Y96090000D01*
X58410000Y87460000D02*
X58410000Y96090000D01*
X58290000Y87460000D02*
X58290000Y96090000D01*
X58170000Y87460000D02*
X58170000Y96090000D01*
X58050000Y87460000D02*
X58050000Y96090000D01*
X57930000Y87460000D02*
X57930000Y96090000D01*
X57810000Y87460000D02*
X57810000Y96090000D01*
X57690000Y87460000D02*
X57690000Y96090000D01*
X57570000Y87460000D02*
X57570000Y96090000D01*
X57450000Y87460000D02*
X57450000Y96090000D01*
X57330000Y87460000D02*
X57330000Y96090000D01*
X57210000Y87460000D02*
X57210000Y96090000D01*
X57090000Y87460000D02*
X57090000Y96090000D01*
X56970000Y87460000D02*
X56970000Y96090000D01*
X56850000Y87460000D02*
X56850000Y96090000D01*
X56730000Y87460000D02*
X56730000Y96090000D01*
X56610000Y87460000D02*
X56610000Y96090000D01*
X56490000Y87460000D02*
X56490000Y96090000D01*
X56370000Y87460000D02*
X56370000Y96090000D01*
X56250000Y87460000D02*
X56250000Y96090000D01*
X56350000Y87460000D02*
X53810000Y87460000D01*
X53810000Y87460000D02*
X53810000Y96090000D01*
X53810000Y96090000D02*
X56350000Y96090000D01*
X56350000Y96090000D02*
X56350000Y87460000D01*
X55460000Y87030000D02*
X55460000Y87460000D01*
X54700000Y87030000D02*
X54700000Y87460000D01*
X53810000Y87460000D02*
X51270000Y87460000D01*
X51270000Y87460000D02*
X51270000Y96090000D01*
X51270000Y96090000D02*
X53810000Y96090000D01*
X53810000Y96090000D02*
X53810000Y87460000D01*
X52920000Y87030000D02*
X52920000Y87460000D01*
X52160000Y87030000D02*
X52160000Y87460000D01*
X51270000Y87460000D02*
X48730000Y87460000D01*
X48730000Y87460000D02*
X48730000Y96090000D01*
X48730000Y96090000D02*
X51270000Y96090000D01*
X51270000Y96090000D02*
X51270000Y87460000D01*
X50380000Y87030000D02*
X50380000Y87460000D01*
X49620000Y87030000D02*
X49620000Y87460000D01*
X48730000Y87460000D02*
X46190000Y87460000D01*
X46190000Y87460000D02*
X46190000Y96090000D01*
X46190000Y96090000D02*
X48730000Y96090000D01*
X48730000Y96090000D02*
X48730000Y87460000D01*
X47840000Y87030000D02*
X47840000Y87460000D01*
X47080000Y87030000D02*
X47080000Y87460000D01*
X46190000Y87460000D02*
X43650000Y87460000D01*
X43650000Y87460000D02*
X43650000Y96090000D01*
X43650000Y96090000D02*
X46190000Y96090000D01*
X46190000Y96090000D02*
X46190000Y87460000D01*
X45300000Y87030000D02*
X45300000Y87460000D01*
X44540000Y87030000D02*
X44540000Y87460000D01*
X43650000Y87460000D02*
X41050000Y87460000D01*
X41050000Y87460000D02*
X41050000Y96090000D01*
X41050000Y96090000D02*
X43650000Y96090000D01*
X43650000Y96090000D02*
X43650000Y87460000D01*
X42760000Y87030000D02*
X42760000Y87460000D01*
X42000000Y87030000D02*
X42000000Y87460000D01*
X58890000Y86000000D02*
X58890000Y84730000D01*
X58890000Y84730000D02*
X57620000Y84730000D01*
X45530000Y52390000D02*
X45530000Y55010000D01*
X45530000Y55010000D02*
X39110000Y55010000D01*
X39110000Y55010000D02*
X39110000Y52390000D01*
X39110000Y52390000D02*
X45530000Y52390000D01*
X46420000Y53700000D02*
X45530000Y53700000D01*
X38220000Y53700000D02*
X39110000Y53700000D01*
X58290000Y52390000D02*
X58290000Y55010000D01*
X58290000Y55010000D02*
X51870000Y55010000D01*
X51870000Y55010000D02*
X51870000Y52390000D01*
X51870000Y52390000D02*
X58290000Y52390000D01*
X59180000Y53700000D02*
X58290000Y53700000D01*
X50980000Y53700000D02*
X51870000Y53700000D01*
D11*
X28785714Y72033333D02*
X29261905Y72033333D01*
X28690476Y71747619D02*
X29023809Y72747619D01*
X29357143Y71747619D01*
X30214286Y71747619D02*
X29642857Y71747619D01*
X29928571Y71747619D02*
X29928571Y72747619D01*
X29833333Y72604762D01*
X29738095Y72509524D01*
X29642857Y72461905D01*
X11516667Y35996780D02*
X11516667Y35282494D01*
X11469047Y35139637D01*
X11373809Y35044399D01*
X11230952Y34996780D01*
X11135714Y34996780D01*
X11897619Y35996780D02*
X12516667Y35996780D01*
X12183333Y35615828D01*
X12326191Y35615828D01*
X12421429Y35568209D01*
X12469048Y35520590D01*
X12516667Y35425351D01*
X12516667Y35187256D01*
X12469048Y35092018D01*
X12421429Y35044399D01*
X12326191Y34996780D01*
X12040476Y34996780D01*
X11945238Y35044399D01*
X11897619Y35092018D01*
X29501905Y82247619D02*
X29501905Y83247619D01*
X29740000Y83247619D01*
X29882858Y83200000D01*
X29978096Y83104762D01*
X30025715Y83009524D01*
X30073334Y82819048D01*
X30073334Y82676190D01*
X30025715Y82485714D01*
X29978096Y82390476D01*
X29882858Y82295238D01*
X29740000Y82247619D01*
X29501905Y82247619D01*
X31025715Y82247619D02*
X30454286Y82247619D01*
X30740000Y82247619D02*
X30740000Y83247619D01*
X30644762Y83104762D01*
X30549524Y83009524D01*
X30454286Y82961905D01*
X69021905Y82547619D02*
X69021905Y83547619D01*
X69260000Y83547619D01*
X69402858Y83500000D01*
X69498096Y83404762D01*
X69545715Y83309524D01*
X69593334Y83119048D01*
X69593334Y82976190D01*
X69545715Y82785714D01*
X69498096Y82690476D01*
X69402858Y82595238D01*
X69260000Y82547619D01*
X69021905Y82547619D01*
X69974286Y83452381D02*
X70021905Y83500000D01*
X70117143Y83547619D01*
X70355239Y83547619D01*
X70450477Y83500000D01*
X70498096Y83452381D01*
X70545715Y83357143D01*
X70545715Y83261905D01*
X70498096Y83119048D01*
X69926667Y82547619D01*
X70545715Y82547619D01*
X72011905Y68397619D02*
X72011905Y69397619D01*
X72250000Y69397619D01*
X72392858Y69350000D01*
X72488096Y69254762D01*
X72535715Y69159524D01*
X72583334Y68969048D01*
X72583334Y68826190D01*
X72535715Y68635714D01*
X72488096Y68540476D01*
X72392858Y68445238D01*
X72250000Y68397619D01*
X72011905Y68397619D01*
X72916667Y69397619D02*
X73535715Y69397619D01*
X73202381Y69016667D01*
X73345239Y69016667D01*
X73440477Y68969048D01*
X73488096Y68921429D01*
X73535715Y68826190D01*
X73535715Y68588095D01*
X73488096Y68492857D01*
X73440477Y68445238D01*
X73345239Y68397619D01*
X73059524Y68397619D01*
X72964286Y68445238D01*
X72916667Y68492857D01*
X70616667Y34997619D02*
X70616667Y34283333D01*
X70569047Y34140476D01*
X70473809Y34045238D01*
X70330952Y33997619D01*
X70235714Y33997619D01*
X71616667Y33997619D02*
X71045238Y33997619D01*
X71330952Y33997619D02*
X71330952Y34997619D01*
X71235714Y34854762D01*
X71140476Y34759524D01*
X71045238Y34711905D01*
X31232381Y66766667D02*
X31946667Y66766667D01*
X32089524Y66719047D01*
X32184762Y66623809D01*
X32232381Y66480952D01*
X32232381Y66385714D01*
X32232381Y67242857D02*
X31232381Y67242857D01*
X31232381Y67623810D01*
X31280000Y67719048D01*
X31327619Y67766667D01*
X31422857Y67814286D01*
X31565714Y67814286D01*
X31660952Y67766667D01*
X31708571Y67719048D01*
X31756190Y67623810D01*
X31756190Y67242857D01*
X32232381Y68766667D02*
X32232381Y68195238D01*
X32232381Y68480952D02*
X31232381Y68480952D01*
X31375238Y68385714D01*
X31470476Y68290476D01*
X31518095Y68195238D01*
X38413334Y77157619D02*
X38080000Y77633810D01*
X37841905Y77157619D02*
X37841905Y78157619D01*
X38222858Y78157619D01*
X38318096Y78110000D01*
X38365715Y78062381D01*
X38413334Y77967143D01*
X38413334Y77824286D01*
X38365715Y77729048D01*
X38318096Y77681429D01*
X38222858Y77633810D01*
X37841905Y77633810D01*
X39365715Y77157619D02*
X38794286Y77157619D01*
X39080000Y77157619D02*
X39080000Y78157619D01*
X38984762Y78014762D01*
X38889524Y77919524D01*
X38794286Y77871905D01*
X61323334Y77147619D02*
X60990000Y77623810D01*
X60751905Y77147619D02*
X60751905Y78147619D01*
X61132858Y78147619D01*
X61228096Y78100000D01*
X61275715Y78052381D01*
X61323334Y77957143D01*
X61323334Y77814286D01*
X61275715Y77719048D01*
X61228096Y77671429D01*
X61132858Y77623810D01*
X60751905Y77623810D01*
X61704286Y78052381D02*
X61751905Y78100000D01*
X61847143Y78147619D01*
X62085239Y78147619D01*
X62180477Y78100000D01*
X62228096Y78052381D01*
X62275715Y77957143D01*
X62275715Y77861905D01*
X62228096Y77719048D01*
X61656667Y77147619D01*
X62275715Y77147619D01*
X74092381Y40553334D02*
X73616190Y40220000D01*
X74092381Y39981905D02*
X73092381Y39981905D01*
X73092381Y40362858D01*
X73140000Y40458096D01*
X73187619Y40505715D01*
X73282857Y40553334D01*
X73425714Y40553334D01*
X73520952Y40505715D01*
X73568571Y40458096D01*
X73616190Y40362858D01*
X73616190Y39981905D01*
X73092381Y40886667D02*
X73092381Y41505715D01*
X73473333Y41172381D01*
X73473333Y41315239D01*
X73520952Y41410477D01*
X73568571Y41458096D01*
X73663810Y41505715D01*
X73901905Y41505715D01*
X73997143Y41458096D01*
X74044762Y41410477D01*
X74092381Y41315239D01*
X74092381Y41029524D01*
X74044762Y40934286D01*
X73997143Y40886667D01*
X87383334Y47247619D02*
X87050000Y47723810D01*
X86811905Y47247619D02*
X86811905Y48247619D01*
X87192858Y48247619D01*
X87288096Y48200000D01*
X87335715Y48152381D01*
X87383334Y48057143D01*
X87383334Y47914286D01*
X87335715Y47819048D01*
X87288096Y47771429D01*
X87192858Y47723810D01*
X86811905Y47723810D01*
X88240477Y47914286D02*
X88240477Y47247619D01*
X88002381Y48295238D02*
X87764286Y47580952D01*
X88383334Y47580952D01*
X72533334Y64647619D02*
X72200000Y65123810D01*
X71961905Y64647619D02*
X71961905Y65647619D01*
X72342858Y65647619D01*
X72438096Y65600000D01*
X72485715Y65552381D01*
X72533334Y65457143D01*
X72533334Y65314286D01*
X72485715Y65219048D01*
X72438096Y65171429D01*
X72342858Y65123810D01*
X71961905Y65123810D01*
X73438096Y65647619D02*
X72961905Y65647619D01*
X72914286Y65171429D01*
X72961905Y65219048D01*
X73057143Y65266667D01*
X73295239Y65266667D01*
X73390477Y65219048D01*
X73438096Y65171429D01*
X73485715Y65076190D01*
X73485715Y64838095D01*
X73438096Y64742857D01*
X73390477Y64695238D01*
X73295239Y64647619D01*
X73057143Y64647619D01*
X72961905Y64695238D01*
X72914286Y64742857D01*
X64653334Y58937619D02*
X64320000Y59413810D01*
X64081905Y58937619D02*
X64081905Y59937619D01*
X64462858Y59937619D01*
X64558096Y59890000D01*
X64605715Y59842381D01*
X64653334Y59747143D01*
X64653334Y59604286D01*
X64605715Y59509048D01*
X64558096Y59461429D01*
X64462858Y59413810D01*
X64081905Y59413810D01*
X65510477Y59937619D02*
X65320000Y59937619D01*
X65224762Y59890000D01*
X65177143Y59842381D01*
X65081905Y59699524D01*
X65034286Y59509048D01*
X65034286Y59128095D01*
X65081905Y59032857D01*
X65129524Y58985238D01*
X65224762Y58937619D01*
X65415239Y58937619D01*
X65510477Y58985238D01*
X65558096Y59032857D01*
X65605715Y59128095D01*
X65605715Y59366190D01*
X65558096Y59461429D01*
X65510477Y59509048D01*
X65415239Y59556667D01*
X65224762Y59556667D01*
X65129524Y59509048D01*
X65081905Y59461429D01*
X65034286Y59366190D01*
X79304762Y49066667D02*
X79352381Y49209524D01*
X79352381Y49447620D01*
X79304762Y49542858D01*
X79257143Y49590477D01*
X79161905Y49638096D01*
X79066667Y49638096D01*
X78971429Y49590477D01*
X78923810Y49542858D01*
X78876190Y49447620D01*
X78828571Y49257143D01*
X78780952Y49161905D01*
X78733333Y49114286D01*
X78638095Y49066667D01*
X78542857Y49066667D01*
X78447619Y49114286D01*
X78400000Y49161905D01*
X78352381Y49257143D01*
X78352381Y49495239D01*
X78400000Y49638096D01*
X78352381Y49971429D02*
X79352381Y50209524D01*
X78638095Y50400001D01*
X79352381Y50590477D01*
X78352381Y50828572D01*
X79352381Y51733334D02*
X79352381Y51161905D01*
X79352381Y51447619D02*
X78352381Y51447619D01*
X78495238Y51352381D01*
X78590476Y51257143D01*
X78638095Y51161905D01*
X55538095Y68447619D02*
X55538095Y67638095D01*
X55585714Y67542857D01*
X55633333Y67495238D01*
X55728571Y67447619D01*
X55919048Y67447619D01*
X56014286Y67495238D01*
X56061905Y67542857D01*
X56109524Y67638095D01*
X56109524Y68447619D01*
X57109524Y67447619D02*
X56538095Y67447619D01*
X56823809Y67447619D02*
X56823809Y68447619D01*
X56728571Y68304762D01*
X56633333Y68209524D01*
X56538095Y68161905D01*
X80316667Y36345238D02*
X80459524Y36297619D01*
X80697620Y36297619D01*
X80792858Y36345238D01*
X80840477Y36392857D01*
X80888096Y36488095D01*
X80888096Y36583333D01*
X80840477Y36678571D01*
X80792858Y36726190D01*
X80697620Y36773810D01*
X80507143Y36821429D01*
X80411905Y36869048D01*
X80364286Y36916667D01*
X80316667Y37011905D01*
X80316667Y37107143D01*
X80364286Y37202381D01*
X80411905Y37250000D01*
X80507143Y37297619D01*
X80745239Y37297619D01*
X80888096Y37250000D01*
X81221429Y37297619D02*
X81459524Y36297619D01*
X81650001Y37011905D01*
X81840477Y36297619D01*
X82078572Y37297619D01*
X82411905Y37202381D02*
X82459524Y37250000D01*
X82554762Y37297619D01*
X82792858Y37297619D01*
X82888096Y37250000D01*
X82935715Y37202381D01*
X82983334Y37107143D01*
X82983334Y37011905D01*
X82935715Y36869048D01*
X82364286Y36297619D01*
X82983334Y36297619D01*
X92016667Y36345238D02*
X92159524Y36297619D01*
X92397620Y36297619D01*
X92492858Y36345238D01*
X92540477Y36392857D01*
X92588096Y36488095D01*
X92588096Y36583333D01*
X92540477Y36678571D01*
X92492858Y36726190D01*
X92397620Y36773810D01*
X92207143Y36821429D01*
X92111905Y36869048D01*
X92064286Y36916667D01*
X92016667Y37011905D01*
X92016667Y37107143D01*
X92064286Y37202381D01*
X92111905Y37250000D01*
X92207143Y37297619D01*
X92445239Y37297619D01*
X92588096Y37250000D01*
X92921429Y37297619D02*
X93159524Y36297619D01*
X93350001Y37011905D01*
X93540477Y36297619D01*
X93778572Y37297619D01*
X94064286Y37297619D02*
X94683334Y37297619D01*
X94350000Y36916667D01*
X94492858Y36916667D01*
X94588096Y36869048D01*
X94635715Y36821429D01*
X94683334Y36726190D01*
X94683334Y36488095D01*
X94635715Y36392857D01*
X94588096Y36345238D01*
X94492858Y36297619D01*
X94207143Y36297619D01*
X94111905Y36345238D01*
X94064286Y36392857D01*
X11516667Y51447619D02*
X11516667Y50733333D01*
X11469047Y50590476D01*
X11373809Y50495238D01*
X11230952Y50447619D01*
X11135714Y50447619D01*
X12421429Y51114286D02*
X12421429Y50447619D01*
X12183333Y51495238D02*
X11945238Y50780952D01*
X12564286Y50780952D01*
X20966667Y45347619D02*
X20966667Y44633333D01*
X20919047Y44490476D01*
X20823809Y44395238D01*
X20680952Y44347619D01*
X20585714Y44347619D01*
X21919048Y45347619D02*
X21442857Y45347619D01*
X21395238Y44871429D01*
X21442857Y44919048D01*
X21538095Y44966667D01*
X21776191Y44966667D01*
X21871429Y44919048D01*
X21919048Y44871429D01*
X21966667Y44776190D01*
X21966667Y44538095D01*
X21919048Y44442857D01*
X21871429Y44395238D01*
X21776191Y44347619D01*
X21538095Y44347619D01*
X21442857Y44395238D01*
X21395238Y44442857D01*
X13102381Y39933333D02*
X12102381Y39933333D01*
X12102381Y40171428D01*
X12150000Y40314286D01*
X12245238Y40409524D01*
X12340476Y40457143D01*
X12530952Y40504762D01*
X12673810Y40504762D01*
X12864286Y40457143D01*
X12959524Y40409524D01*
X13054762Y40314286D01*
X13102381Y40171428D01*
X13102381Y39933333D01*
X13007143Y41504762D02*
X13054762Y41457143D01*
X13102381Y41314286D01*
X13102381Y41219048D01*
X13054762Y41076190D01*
X12959524Y40980952D01*
X12864286Y40933333D01*
X12673810Y40885714D01*
X12530952Y40885714D01*
X12340476Y40933333D01*
X12245238Y40980952D01*
X12150000Y41076190D01*
X12102381Y41219048D01*
X12102381Y41314286D01*
X12150000Y41457143D01*
X12197619Y41504762D01*
X12721429Y41933333D02*
X12721429Y42695238D01*
X13102381Y43171428D02*
X12102381Y43171428D01*
X12102381Y43409523D01*
X12150000Y43552381D01*
X12245238Y43647619D01*
X12340476Y43695238D01*
X12530952Y43742857D01*
X12673810Y43742857D01*
X12864286Y43695238D01*
X12959524Y43647619D01*
X13054762Y43552381D01*
X13102381Y43409523D01*
X13102381Y43171428D01*
X13007143Y44742857D02*
X13054762Y44695238D01*
X13102381Y44552381D01*
X13102381Y44457143D01*
X13054762Y44314285D01*
X12959524Y44219047D01*
X12864286Y44171428D01*
X12673810Y44123809D01*
X12530952Y44123809D01*
X12340476Y44171428D01*
X12245238Y44219047D01*
X12150000Y44314285D01*
X12102381Y44457143D01*
X12102381Y44552381D01*
X12150000Y44695238D01*
X12197619Y44742857D01*
X13197619Y44933333D02*
X13197619Y45695238D01*
X12102381Y46409524D02*
X12102381Y45933333D01*
X12578571Y45885714D01*
X12530952Y45933333D01*
X12483333Y46028571D01*
X12483333Y46266667D01*
X12530952Y46361905D01*
X12578571Y46409524D01*
X12673810Y46457143D01*
X12911905Y46457143D01*
X13007143Y46409524D01*
X13054762Y46361905D01*
X13102381Y46266667D01*
X13102381Y46028571D01*
X13054762Y45933333D01*
X13007143Y45885714D01*
X12102381Y46742857D02*
X13102381Y47076190D01*
X12102381Y47409524D01*
X90116667Y30847619D02*
X90116667Y30133333D01*
X90069047Y29990476D01*
X89973809Y29895238D01*
X89830952Y29847619D01*
X89735714Y29847619D01*
X91021429Y30847619D02*
X90830952Y30847619D01*
X90735714Y30800000D01*
X90688095Y30752381D01*
X90592857Y30609524D01*
X90545238Y30419048D01*
X90545238Y30038095D01*
X90592857Y29942857D01*
X90640476Y29895238D01*
X90735714Y29847619D01*
X90926191Y29847619D01*
X91021429Y29895238D01*
X91069048Y29942857D01*
X91116667Y30038095D01*
X91116667Y30276190D01*
X91069048Y30371429D01*
X91021429Y30419048D01*
X90926191Y30466667D01*
X90735714Y30466667D01*
X90640476Y30419048D01*
X90592857Y30371429D01*
X90545238Y30276190D01*
X79042857Y32347619D02*
X79042857Y33347619D01*
X79042857Y32871429D02*
X79614286Y32871429D01*
X79614286Y32347619D02*
X79614286Y33347619D01*
X80661905Y32442857D02*
X80614286Y32395238D01*
X80471429Y32347619D01*
X80376191Y32347619D01*
X80233333Y32395238D01*
X80138095Y32490476D01*
X80090476Y32585714D01*
X80042857Y32776190D01*
X80042857Y32919048D01*
X80090476Y33109524D01*
X80138095Y33204762D01*
X80233333Y33300000D01*
X80376191Y33347619D01*
X80471429Y33347619D01*
X80614286Y33300000D01*
X80661905Y33252381D01*
X81090476Y32728571D02*
X81852381Y32728571D01*
X82519047Y33347619D02*
X82614286Y33347619D01*
X82709524Y33300000D01*
X82757143Y33252381D01*
X82804762Y33157143D01*
X82852381Y32966667D01*
X82852381Y32728571D01*
X82804762Y32538095D01*
X82757143Y32442857D01*
X82709524Y32395238D01*
X82614286Y32347619D01*
X82519047Y32347619D01*
X82423809Y32395238D01*
X82376190Y32442857D01*
X82328571Y32538095D01*
X82280952Y32728571D01*
X82280952Y32966667D01*
X82328571Y33157143D01*
X82376190Y33252381D01*
X82423809Y33300000D01*
X82519047Y33347619D01*
X83757143Y33347619D02*
X83280952Y33347619D01*
X83233333Y32871429D01*
X83280952Y32919048D01*
X83376190Y32966667D01*
X83614286Y32966667D01*
X83709524Y32919048D01*
X83757143Y32871429D01*
X83804762Y32776190D01*
X83804762Y32538095D01*
X83757143Y32442857D01*
X83709524Y32395238D01*
X83614286Y32347619D01*
X83376190Y32347619D01*
X83280952Y32395238D01*
X83233333Y32442857D01*
X14316667Y31047619D02*
X14316667Y30333333D01*
X14269047Y30190476D01*
X14173809Y30095238D01*
X14030952Y30047619D01*
X13935714Y30047619D01*
X14840476Y30047619D02*
X15030952Y30047619D01*
X15126191Y30095238D01*
X15173810Y30142857D01*
X15269048Y30285714D01*
X15316667Y30476190D01*
X15316667Y30857143D01*
X15269048Y30952381D01*
X15221429Y31000000D01*
X15126191Y31047619D01*
X14935714Y31047619D01*
X14840476Y31000000D01*
X14792857Y30952381D01*
X14745238Y30857143D01*
X14745238Y30619048D01*
X14792857Y30523810D01*
X14840476Y30476190D01*
X14935714Y30428571D01*
X15126191Y30428571D01*
X15221429Y30476190D01*
X15269048Y30523810D01*
X15316667Y30619048D01*
X20552381Y27592857D02*
X20504762Y27545238D01*
X20361905Y27497619D01*
X20266667Y27497619D01*
X20123809Y27545238D01*
X20028571Y27640476D01*
X19980952Y27735714D01*
X19933333Y27926190D01*
X19933333Y28069048D01*
X19980952Y28259524D01*
X20028571Y28354762D01*
X20123809Y28450000D01*
X20266667Y28497619D01*
X20361905Y28497619D01*
X20504762Y28450000D01*
X20552381Y28402381D01*
X20933333Y27783333D02*
X21409524Y27783333D01*
X20838095Y27497619D02*
X21171428Y28497619D01*
X21504762Y27497619D01*
X21838095Y27497619D02*
X21838095Y28497619D01*
X22171429Y27783333D01*
X22504762Y28497619D01*
X22504762Y27497619D01*
X22933333Y27783333D02*
X23409524Y27783333D01*
X22838095Y27497619D02*
X23171428Y28497619D01*
X23504762Y27497619D01*
X24409524Y27497619D02*
X24076190Y27973810D01*
X23838095Y27497619D02*
X23838095Y28497619D01*
X24219048Y28497619D01*
X24314286Y28450000D01*
X24361905Y28402381D01*
X24409524Y28307143D01*
X24409524Y28164286D01*
X24361905Y28069048D01*
X24314286Y28021429D01*
X24219048Y27973810D01*
X23838095Y27973810D01*
X24790476Y27783333D02*
X25266667Y27783333D01*
X24695238Y27497619D02*
X25028571Y28497619D01*
X25361905Y27497619D01*
X28866667Y10447619D02*
X28866667Y9733333D01*
X28819047Y9590476D01*
X28723809Y9495238D01*
X28580952Y9447619D01*
X28485714Y9447619D01*
X29295238Y10352381D02*
X29342857Y10400000D01*
X29438095Y10447619D01*
X29676191Y10447619D01*
X29771429Y10400000D01*
X29819048Y10352381D01*
X29866667Y10257143D01*
X29866667Y10161905D01*
X29819048Y10019048D01*
X29247619Y9447619D01*
X29866667Y9447619D01*
X18742857Y11847619D02*
X18742857Y12847619D01*
X19076191Y12133333D01*
X19409524Y12847619D01*
X19409524Y11847619D01*
X20076190Y12847619D02*
X20266667Y12847619D01*
X20361905Y12800000D01*
X20457143Y12704762D01*
X20504762Y12514286D01*
X20504762Y12180952D01*
X20457143Y11990476D01*
X20361905Y11895238D01*
X20266667Y11847619D01*
X20076190Y11847619D01*
X19980952Y11895238D01*
X19885714Y11990476D01*
X19838095Y12180952D01*
X19838095Y12514286D01*
X19885714Y12704762D01*
X19980952Y12800000D01*
X20076190Y12847619D01*
X20790476Y12847619D02*
X21361905Y12847619D01*
X21076190Y11847619D02*
X21076190Y12847619D01*
X21457143Y11752381D02*
X22219048Y11752381D01*
X22457143Y11847619D02*
X22457143Y12847619D01*
X22838095Y12847619D02*
X23504762Y12847619D01*
X22838095Y11847619D01*
X23504762Y11847619D01*
X24552381Y11752381D02*
X24457143Y11800000D01*
X24361905Y11895238D01*
X24219048Y12038095D01*
X24123809Y12085714D01*
X24028571Y12085714D01*
X24076190Y11847619D02*
X23980952Y11895238D01*
X23885714Y11990476D01*
X23838095Y12180952D01*
X23838095Y12514286D01*
X23885714Y12704762D01*
X23980952Y12800000D01*
X24076190Y12847619D01*
X24266667Y12847619D01*
X24361905Y12800000D01*
X24457143Y12704762D01*
X24504762Y12514286D01*
X24504762Y12180952D01*
X24457143Y11990476D01*
X24361905Y11895238D01*
X24266667Y11847619D01*
X24076190Y11847619D01*
X70716667Y10447619D02*
X70716667Y9733333D01*
X70669047Y9590476D01*
X70573809Y9495238D01*
X70430952Y9447619D01*
X70335714Y9447619D01*
X71097619Y10447619D02*
X71764286Y10447619D01*
X71335714Y9447619D01*
X75728571Y11947619D02*
X75728571Y12947619D01*
X76061905Y12233333D01*
X76395238Y12947619D01*
X76395238Y11947619D01*
X77061904Y12947619D02*
X77252381Y12947619D01*
X77347619Y12900000D01*
X77442857Y12804762D01*
X77490476Y12614286D01*
X77490476Y12280952D01*
X77442857Y12090476D01*
X77347619Y11995238D01*
X77252381Y11947619D01*
X77061904Y11947619D01*
X76966666Y11995238D01*
X76871428Y12090476D01*
X76823809Y12280952D01*
X76823809Y12614286D01*
X76871428Y12804762D01*
X76966666Y12900000D01*
X77061904Y12947619D01*
X77776190Y12947619D02*
X78347619Y12947619D01*
X78061904Y11947619D02*
X78061904Y12947619D01*
X78442857Y11852381D02*
X79204762Y11852381D01*
X79442857Y11947619D02*
X79442857Y12947619D01*
X79680952Y12947619D01*
X79823810Y12900000D01*
X79919048Y12804762D01*
X79966667Y12709524D01*
X80014286Y12519048D01*
X80014286Y12376190D01*
X79966667Y12185714D01*
X79919048Y12090476D01*
X79823810Y11995238D01*
X79680952Y11947619D01*
X79442857Y11947619D01*
X80442857Y12471429D02*
X80776191Y12471429D01*
X80919048Y11947619D02*
X80442857Y11947619D01*
X80442857Y12947619D01*
X80919048Y12947619D01*
X81919048Y11947619D02*
X81585714Y12423810D01*
X81347619Y11947619D02*
X81347619Y12947619D01*
X81728572Y12947619D01*
X81823810Y12900000D01*
X81871429Y12852381D01*
X81919048Y12757143D01*
X81919048Y12614286D01*
X81871429Y12519048D01*
X81823810Y12471429D01*
X81728572Y12423810D01*
X81347619Y12423810D01*
X25766667Y62347619D02*
X25766667Y61633333D01*
X25719047Y61490476D01*
X25623809Y61395238D01*
X25480952Y61347619D01*
X25385714Y61347619D01*
X26385714Y61919048D02*
X26290476Y61966667D01*
X26242857Y62014286D01*
X26195238Y62109524D01*
X26195238Y62157143D01*
X26242857Y62252381D01*
X26290476Y62300000D01*
X26385714Y62347619D01*
X26576191Y62347619D01*
X26671429Y62300000D01*
X26719048Y62252381D01*
X26766667Y62157143D01*
X26766667Y62109524D01*
X26719048Y62014286D01*
X26671429Y61966667D01*
X26576191Y61919048D01*
X26385714Y61919048D01*
X26290476Y61871429D01*
X26242857Y61823810D01*
X26195238Y61728571D01*
X26195238Y61538095D01*
X26242857Y61442857D01*
X26290476Y61395238D01*
X26385714Y61347619D01*
X26576191Y61347619D01*
X26671429Y61395238D01*
X26719048Y61442857D01*
X26766667Y61538095D01*
X26766667Y61728571D01*
X26719048Y61823810D01*
X26671429Y61871429D01*
X26576191Y61919048D01*
X22852381Y54423810D02*
X21852381Y54423810D01*
X21852381Y54661905D01*
X21900000Y54804763D01*
X21995238Y54900001D01*
X22090476Y54947620D01*
X22280952Y54995239D01*
X22423810Y54995239D01*
X22614286Y54947620D01*
X22709524Y54900001D01*
X22804762Y54804763D01*
X22852381Y54661905D01*
X22852381Y54423810D01*
X22852381Y55423810D02*
X21852381Y55423810D01*
X22804762Y55852381D02*
X22852381Y55995238D01*
X22852381Y56233334D01*
X22804762Y56328572D01*
X22757143Y56376191D01*
X22661905Y56423810D01*
X22566667Y56423810D01*
X22471429Y56376191D01*
X22423810Y56328572D01*
X22376190Y56233334D01*
X22328571Y56042857D01*
X22280952Y55947619D01*
X22233333Y55900000D01*
X22138095Y55852381D01*
X22042857Y55852381D01*
X21947619Y55900000D01*
X21900000Y55947619D01*
X21852381Y56042857D01*
X21852381Y56280953D01*
X21900000Y56423810D01*
X21852381Y56709524D02*
X21852381Y57280953D01*
X22852381Y56995238D02*
X21852381Y56995238D01*
X22947619Y57376191D02*
X22947619Y58138096D01*
X22852381Y58376191D02*
X21852381Y58376191D01*
X21852381Y58757143D02*
X21852381Y59423810D01*
X22852381Y58757143D01*
X22852381Y59423810D01*
X22947619Y60471429D02*
X22900000Y60376191D01*
X22804762Y60280953D01*
X22661905Y60138096D01*
X22614286Y60042857D01*
X22614286Y59947619D01*
X22852381Y59995238D02*
X22804762Y59900000D01*
X22709524Y59804762D01*
X22519048Y59757143D01*
X22185714Y59757143D01*
X21995238Y59804762D01*
X21900000Y59900000D01*
X21852381Y59995238D01*
X21852381Y60185715D01*
X21900000Y60280953D01*
X21995238Y60376191D01*
X22185714Y60423810D01*
X22519048Y60423810D01*
X22709524Y60376191D01*
X22804762Y60280953D01*
X22852381Y60185715D01*
X22852381Y59995238D01*
X45402381Y74190477D02*
X46116667Y74190477D01*
X46259524Y74142857D01*
X46354762Y74047619D01*
X46402381Y73904762D01*
X46402381Y73809524D01*
X46402381Y75190477D02*
X46402381Y74619048D01*
X46402381Y74904762D02*
X45402381Y74904762D01*
X45545238Y74809524D01*
X45640476Y74714286D01*
X45688095Y74619048D01*
X45402381Y75809524D02*
X45402381Y75904763D01*
X45450000Y76000001D01*
X45497619Y76047620D01*
X45592857Y76095239D01*
X45783333Y76142858D01*
X46021429Y76142858D01*
X46211905Y76095239D01*
X46307143Y76047620D01*
X46354762Y76000001D01*
X46402381Y75904763D01*
X46402381Y75809524D01*
X46354762Y75714286D01*
X46307143Y75666667D01*
X46211905Y75619048D01*
X46021429Y75571429D01*
X45783333Y75571429D01*
X45592857Y75619048D01*
X45497619Y75666667D01*
X45450000Y75714286D01*
X45402381Y75809524D01*
X45954762Y78197619D02*
X45954762Y79197619D01*
X46192857Y79197619D01*
X46335715Y79150000D01*
X46430953Y79054762D01*
X46478572Y78959524D01*
X46526191Y78769048D01*
X46526191Y78626190D01*
X46478572Y78435714D01*
X46430953Y78340476D01*
X46335715Y78245238D01*
X46192857Y78197619D01*
X45954762Y78197619D01*
X46954762Y78197619D02*
X46954762Y79197619D01*
X47383333Y78245238D02*
X47526190Y78197619D01*
X47764286Y78197619D01*
X47859524Y78245238D01*
X47907143Y78292857D01*
X47954762Y78388095D01*
X47954762Y78483333D01*
X47907143Y78578571D01*
X47859524Y78626190D01*
X47764286Y78673810D01*
X47573809Y78721429D01*
X47478571Y78769048D01*
X47430952Y78816667D01*
X47383333Y78911905D01*
X47383333Y79007143D01*
X47430952Y79102381D01*
X47478571Y79150000D01*
X47573809Y79197619D01*
X47811905Y79197619D01*
X47954762Y79150000D01*
X48240476Y79197619D02*
X48811905Y79197619D01*
X48526190Y78197619D02*
X48526190Y79197619D01*
X48907143Y78102381D02*
X49669048Y78102381D01*
X50240477Y78721429D02*
X49907143Y78721429D01*
X49907143Y78197619D02*
X49907143Y79197619D01*
X50383334Y79197619D01*
X51335715Y78197619D02*
X51002381Y78673810D01*
X50764286Y78197619D02*
X50764286Y79197619D01*
X51145239Y79197619D01*
X51240477Y79150000D01*
X51288096Y79102381D01*
X51335715Y79007143D01*
X51335715Y78864286D01*
X51288096Y78769048D01*
X51240477Y78721429D01*
X51145239Y78673810D01*
X50764286Y78673810D01*
X51954762Y79197619D02*
X52145239Y79197619D01*
X52240477Y79150000D01*
X52335715Y79054762D01*
X52383334Y78864286D01*
X52383334Y78530952D01*
X52335715Y78340476D01*
X52240477Y78245238D01*
X52145239Y78197619D01*
X51954762Y78197619D01*
X51859524Y78245238D01*
X51764286Y78340476D01*
X51716667Y78530952D01*
X51716667Y78864286D01*
X51764286Y79054762D01*
X51859524Y79150000D01*
X51954762Y79197619D01*
X52811905Y78197619D02*
X52811905Y79197619D01*
X53383334Y78197619D01*
X53383334Y79197619D01*
X53716667Y79197619D02*
X54288096Y79197619D01*
X54002381Y78197619D02*
X54002381Y79197619D01*
X74790477Y61747619D02*
X74790477Y61033333D01*
X74742857Y60890476D01*
X74647619Y60795238D01*
X74504762Y60747619D01*
X74409524Y60747619D01*
X75790477Y60747619D02*
X75219048Y60747619D01*
X75504762Y60747619D02*
X75504762Y61747619D01*
X75409524Y61604762D01*
X75314286Y61509524D01*
X75219048Y61461905D01*
X76171429Y61652381D02*
X76219048Y61700000D01*
X76314286Y61747619D01*
X76552382Y61747619D01*
X76647620Y61700000D01*
X76695239Y61652381D01*
X76742858Y61557143D01*
X76742858Y61461905D01*
X76695239Y61319048D01*
X76123810Y60747619D01*
X76742858Y60747619D01*
X78202381Y54159524D02*
X77202381Y54159524D01*
X77202381Y54397619D01*
X77250000Y54540477D01*
X77345238Y54635715D01*
X77440476Y54683334D01*
X77630952Y54730953D01*
X77773810Y54730953D01*
X77964286Y54683334D01*
X78059524Y54635715D01*
X78154762Y54540477D01*
X78202381Y54397619D01*
X78202381Y54159524D01*
X78202381Y55159524D02*
X77202381Y55159524D01*
X78154762Y55588095D02*
X78202381Y55730952D01*
X78202381Y55969048D01*
X78154762Y56064286D01*
X78107143Y56111905D01*
X78011905Y56159524D01*
X77916667Y56159524D01*
X77821429Y56111905D01*
X77773810Y56064286D01*
X77726190Y55969048D01*
X77678571Y55778571D01*
X77630952Y55683333D01*
X77583333Y55635714D01*
X77488095Y55588095D01*
X77392857Y55588095D01*
X77297619Y55635714D01*
X77250000Y55683333D01*
X77202381Y55778571D01*
X77202381Y56016667D01*
X77250000Y56159524D01*
X77202381Y56445238D02*
X77202381Y57016667D01*
X78202381Y56730952D02*
X77202381Y56730952D01*
X78297619Y57111905D02*
X78297619Y57873810D01*
X78202381Y58111905D02*
X77202381Y58111905D01*
X77202381Y58350000D01*
X77250000Y58492858D01*
X77345238Y58588096D01*
X77440476Y58635715D01*
X77630952Y58683334D01*
X77773810Y58683334D01*
X77964286Y58635715D01*
X78059524Y58588096D01*
X78154762Y58492858D01*
X78202381Y58350000D01*
X78202381Y58111905D01*
X78107143Y59683334D02*
X78154762Y59635715D01*
X78202381Y59492858D01*
X78202381Y59397620D01*
X78154762Y59254762D01*
X78059524Y59159524D01*
X77964286Y59111905D01*
X77773810Y59064286D01*
X77630952Y59064286D01*
X77440476Y59111905D01*
X77345238Y59159524D01*
X77250000Y59254762D01*
X77202381Y59397620D01*
X77202381Y59492858D01*
X77250000Y59635715D01*
X77297619Y59683334D01*
X78202381Y60111905D02*
X77202381Y60111905D01*
X77678571Y60111905D02*
X77678571Y60683334D01*
X78202381Y60683334D02*
X77202381Y60683334D01*
X77916667Y61111905D02*
X77916667Y61588096D01*
X78202381Y61016667D02*
X77202381Y61350000D01*
X78202381Y61683334D01*
X59902381Y87240477D02*
X60616667Y87240477D01*
X60759524Y87192857D01*
X60854762Y87097619D01*
X60902381Y86954762D01*
X60902381Y86859524D01*
X60902381Y88240477D02*
X60902381Y87669048D01*
X60902381Y87954762D02*
X59902381Y87954762D01*
X60045238Y87859524D01*
X60140476Y87764286D01*
X60188095Y87669048D01*
X60902381Y89192858D02*
X60902381Y88621429D01*
X60902381Y88907143D02*
X59902381Y88907143D01*
X60045238Y88811905D01*
X60140476Y88716667D01*
X60188095Y88621429D01*
X44230952Y83395238D02*
X44373809Y83347619D01*
X44611905Y83347619D01*
X44707143Y83395238D01*
X44754762Y83442857D01*
X44802381Y83538095D01*
X44802381Y83633333D01*
X44754762Y83728571D01*
X44707143Y83776190D01*
X44611905Y83823810D01*
X44421428Y83871429D01*
X44326190Y83919048D01*
X44278571Y83966667D01*
X44230952Y84061905D01*
X44230952Y84157143D01*
X44278571Y84252381D01*
X44326190Y84300000D01*
X44421428Y84347619D01*
X44659524Y84347619D01*
X44802381Y84300000D01*
X45230952Y83871429D02*
X45564286Y83871429D01*
X45707143Y83347619D02*
X45230952Y83347619D01*
X45230952Y84347619D01*
X45707143Y84347619D01*
X46135714Y83347619D02*
X46135714Y84347619D01*
X46707143Y83347619D01*
X46707143Y84347619D01*
X47135714Y83395238D02*
X47278571Y83347619D01*
X47516667Y83347619D01*
X47611905Y83395238D01*
X47659524Y83442857D01*
X47707143Y83538095D01*
X47707143Y83633333D01*
X47659524Y83728571D01*
X47611905Y83776190D01*
X47516667Y83823810D01*
X47326190Y83871429D01*
X47230952Y83919048D01*
X47183333Y83966667D01*
X47135714Y84061905D01*
X47135714Y84157143D01*
X47183333Y84252381D01*
X47230952Y84300000D01*
X47326190Y84347619D01*
X47564286Y84347619D01*
X47707143Y84300000D01*
X48326190Y84347619D02*
X48516667Y84347619D01*
X48611905Y84300000D01*
X48707143Y84204762D01*
X48754762Y84014286D01*
X48754762Y83680952D01*
X48707143Y83490476D01*
X48611905Y83395238D01*
X48516667Y83347619D01*
X48326190Y83347619D01*
X48230952Y83395238D01*
X48135714Y83490476D01*
X48088095Y83680952D01*
X48088095Y84014286D01*
X48135714Y84204762D01*
X48230952Y84300000D01*
X48326190Y84347619D01*
X49754762Y83347619D02*
X49421428Y83823810D01*
X49183333Y83347619D02*
X49183333Y84347619D01*
X49564286Y84347619D01*
X49659524Y84300000D01*
X49707143Y84252381D01*
X49754762Y84157143D01*
X49754762Y84014286D01*
X49707143Y83919048D01*
X49659524Y83871429D01*
X49564286Y83823810D01*
X49183333Y83823810D01*
X50183333Y83871429D02*
X50516667Y83871429D01*
X50659524Y83347619D02*
X50183333Y83347619D01*
X50183333Y84347619D01*
X50659524Y84347619D01*
X51040476Y83395238D02*
X51183333Y83347619D01*
X51421429Y83347619D01*
X51516667Y83395238D01*
X51564286Y83442857D01*
X51611905Y83538095D01*
X51611905Y83633333D01*
X51564286Y83728571D01*
X51516667Y83776190D01*
X51421429Y83823810D01*
X51230952Y83871429D01*
X51135714Y83919048D01*
X51088095Y83966667D01*
X51040476Y84061905D01*
X51040476Y84157143D01*
X51088095Y84252381D01*
X51135714Y84300000D01*
X51230952Y84347619D01*
X51469048Y84347619D01*
X51611905Y84300000D01*
X51802381Y83252381D02*
X52564286Y83252381D01*
X53278572Y83347619D02*
X52802381Y83347619D01*
X52802381Y84347619D01*
X53611905Y83347619D02*
X53611905Y84347619D01*
X54088095Y83347619D02*
X54088095Y84347619D01*
X54659524Y83347619D01*
X54659524Y84347619D01*
X55135714Y83871429D02*
X55469048Y83871429D01*
X55611905Y83347619D02*
X55135714Y83347619D01*
X55135714Y84347619D01*
X55611905Y84347619D01*
X55992857Y83633333D02*
X56469048Y83633333D01*
X55897619Y83347619D02*
X56230952Y84347619D01*
X56564286Y83347619D01*
X42233334Y50747619D02*
X41900000Y51223810D01*
X41661905Y50747619D02*
X41661905Y51747619D01*
X42042858Y51747619D01*
X42138096Y51700000D01*
X42185715Y51652381D01*
X42233334Y51557143D01*
X42233334Y51414286D01*
X42185715Y51319048D01*
X42138096Y51271429D01*
X42042858Y51223810D01*
X41661905Y51223810D01*
X42566667Y51747619D02*
X43233334Y51747619D01*
X42804762Y50747619D01*
X54913334Y50747619D02*
X54580000Y51223810D01*
X54341905Y50747619D02*
X54341905Y51747619D01*
X54722858Y51747619D01*
X54818096Y51700000D01*
X54865715Y51652381D01*
X54913334Y51557143D01*
X54913334Y51414286D01*
X54865715Y51319048D01*
X54818096Y51271429D01*
X54722858Y51223810D01*
X54341905Y51223810D01*
X55484762Y51319048D02*
X55389524Y51366667D01*
X55341905Y51414286D01*
X55294286Y51509524D01*
X55294286Y51557143D01*
X55341905Y51652381D01*
X55389524Y51700000D01*
X55484762Y51747619D01*
X55675239Y51747619D01*
X55770477Y51700000D01*
X55818096Y51652381D01*
X55865715Y51557143D01*
X55865715Y51509524D01*
X55818096Y51414286D01*
X55770477Y51366667D01*
X55675239Y51319048D01*
X55484762Y51319048D01*
X55389524Y51271429D01*
X55341905Y51223810D01*
X55294286Y51128571D01*
X55294286Y50938095D01*
X55341905Y50842857D01*
X55389524Y50795238D01*
X55484762Y50747619D01*
X55675239Y50747619D01*
X55770477Y50795238D01*
X55818096Y50842857D01*
X55865715Y50938095D01*
X55865715Y51128571D01*
X55818096Y51223810D01*
X55770477Y51271429D01*
X55675239Y51319048D01*
%LPC*%
D14*
X32220000Y56660000D03*
D15*
X65240000Y71900000D03*
X34760000Y56660000D03*
X62700000Y71900000D03*
X37300000Y56660000D03*
X60160000Y71900000D03*
X39840000Y56660000D03*
X57620000Y71900000D03*
X42380000Y56660000D03*
X55080000Y71900000D03*
X44920000Y56660000D03*
X52540000Y71900000D03*
X47460000Y56660000D03*
X50000000Y71900000D03*
X50000000Y56660000D03*
X47460000Y71900000D03*
X52540000Y56660000D03*
X44920000Y71900000D03*
X55080000Y56660000D03*
X42380000Y71900000D03*
X57620000Y56660000D03*
X39840000Y71900000D03*
X60160000Y56660000D03*
X37300000Y71900000D03*
X62700000Y56660000D03*
X34760000Y71900000D03*
X65240000Y56660000D03*
X32220000Y71900000D03*
X67780000Y56660000D03*
X67780000Y71900000D03*
D16*
X14635931Y35430000D03*
D17*
X17175931Y35430000D03*
X19715931Y35430000D03*
X22255931Y35430000D03*
X24795931Y35430000D03*
X27335931Y35430000D03*
X29875931Y35430000D03*
X32415931Y35430000D03*
D18*
X31540000Y86000000D03*
D19*
X29000000Y86000000D03*
D18*
X68460000Y86000000D03*
D19*
X71000000Y86000000D03*
D18*
X70000000Y68400000D03*
D20*
X59840000Y68400000D03*
D21*
X69500000Y43500000D03*
D22*
X69500000Y41000000D03*
X69500000Y38500000D03*
D23*
X30000000Y68240000D03*
X30000000Y66960000D03*
D24*
X33500000Y75300000D03*
D15*
X43660000Y75300000D03*
D24*
X66500000Y75300000D03*
D15*
X56340000Y75300000D03*
D24*
X75950000Y35640000D03*
D15*
X75950000Y45800000D03*
D24*
X87500000Y35640000D03*
D15*
X87500000Y45800000D03*
D24*
X59740000Y65000000D03*
D15*
X69900000Y65000000D03*
D24*
X69900000Y61700000D03*
D15*
X59740000Y61700000D03*
D25*
X75800000Y48600000D03*
X75800000Y52200000D03*
X73300000Y48600000D03*
X70800000Y48600000D03*
X70800000Y52200000D03*
X73300000Y52200000D03*
D26*
X53580000Y68120000D03*
D27*
X35800000Y60500000D03*
X51040000Y68120000D03*
X38340000Y60500000D03*
X48500000Y68120000D03*
X40880000Y60500000D03*
X45960000Y68120000D03*
X43420000Y60500000D03*
X43420000Y68120000D03*
X45960000Y60500000D03*
X40880000Y68120000D03*
X48500000Y60500000D03*
X38340000Y68120000D03*
X51040000Y60500000D03*
X35800000Y68120000D03*
X53580000Y60500000D03*
D28*
X83950000Y39300000D03*
X79450000Y39300000D03*
X83950000Y45800000D03*
X79450000Y45800000D03*
X95550000Y39300000D03*
X91050000Y39300000D03*
X95550000Y45800000D03*
X91050000Y45800000D03*
D16*
X14635931Y50880839D03*
D17*
X17175931Y50880839D03*
X19715931Y50880839D03*
X22255931Y50880839D03*
X24795931Y50880839D03*
X27335931Y50880839D03*
X29875931Y50880839D03*
X32415931Y50880839D03*
D16*
X18500000Y39760000D03*
D17*
X18500000Y42300000D03*
X18500000Y44840000D03*
X18500000Y47380000D03*
D16*
X87740000Y30300000D03*
D17*
X85200000Y30300000D03*
X82660000Y30300000D03*
X80120000Y30300000D03*
X77580000Y30300000D03*
X75040000Y30300000D03*
D16*
X17420000Y30500000D03*
D17*
X19960000Y30500000D03*
X22500000Y30500000D03*
X25040000Y30500000D03*
X27580000Y30500000D03*
D29*
X26500000Y10000000D03*
D30*
X24500000Y10000000D03*
X22500000Y10000000D03*
X20500000Y10000000D03*
X18500000Y10000000D03*
X16500000Y10000000D03*
D29*
X73500000Y10000000D03*
D30*
X75500000Y10000000D03*
X77500000Y10000000D03*
X79500000Y10000000D03*
X81500000Y10000000D03*
X83500000Y10000000D03*
D29*
X26000000Y55500000D03*
D30*
X26000000Y57500000D03*
X26000000Y59500000D03*
D29*
X48000000Y75000000D03*
D30*
X50000000Y75000000D03*
X52000000Y75000000D03*
D29*
X74000000Y59500000D03*
D30*
X74000000Y57500000D03*
X74000000Y55500000D03*
D16*
X57620000Y86000000D03*
D17*
X55080000Y86000000D03*
X52540000Y86000000D03*
X50000000Y86000000D03*
X47460000Y86000000D03*
X44920000Y86000000D03*
X42380000Y86000000D03*
D24*
X47400000Y53700000D03*
D15*
X37240000Y53700000D03*
D24*
X60160000Y53700000D03*
D15*
X50000000Y53700000D03*
M02*
