M48
;DRILL file {KiCad 4.0.6} date 08/31/17 12:08:44
;FORMAT={-:-/ absolute / inch / decimal}
FMAT,2
INCH,TZ
T1C0.012
T2C0.016
T3C0.031
T4C0.035
T5C0.039
T6C0.043
%
G90
G05
M72
T1
X0.5551Y1.1142
X0.9921Y1.8346
X1.7293Y1.7115
X1.7499Y1.7322
X1.7717Y1.6693
X1.7913Y1.8071
X1.7992Y1.7756
X1.8228Y1.8071
X1.9921Y1.6693
X2.0315Y1.6693
X2.5118Y2.9843
X2.5433Y2.9764
T2
X0.2835Y1.626
X0.3189Y1.9685
X0.3583Y1.2835
X0.4803Y0.4173
X0.5591Y1.2835
X0.6142Y0.2559
X0.6181Y2.4528
X0.6535Y1.5669
X0.878Y2.6929
X0.9449Y1.748
X0.9646Y0.5472
X1.0827Y2.9016
X1.2756Y1.748
X1.4961Y3.374
X1.5709Y3.5787
X1.5787Y2.0118
X1.6299Y3.1575
X1.6378Y0.3583
X1.6417Y0.9882
X1.6535Y1.8654
X1.8307Y3.6024
X1.9094Y3.1575
X1.9213Y0.7087
X2.0394Y1.3819
X2.1693Y3.6024
X2.2717Y0.3583
X2.3622Y1.0591
X2.5039Y3.4528
X2.5748Y0.8465
X2.6496Y3.2638
X2.9409Y3.0748
X3.0039Y1.563
X3.0315Y0.8425
X3.0315Y0.5297
X3.0669Y2.7244
X3.2323Y2.4646
X3.4961Y2.2362
X3.6772Y1.9882
T3
X0.6496Y0.3937
X0.7283Y0.3937
X0.8071Y0.3937
X0.8858Y0.3937
X0.9646Y0.3937
X1.0236Y2.3425
X1.0236Y2.2638
X1.0236Y2.185
X1.0433Y0.3937
X1.2685Y2.8307
X1.2685Y2.2307
X1.3189Y2.9646
X1.3685Y2.8307
X1.3685Y2.2307
X1.4094Y2.6819
X1.4094Y2.3819
X1.4661Y2.1142
X1.4685Y2.8307
X1.4685Y2.2307
X1.5094Y2.6819
X1.5094Y2.3819
X1.5685Y2.8307
X1.5685Y2.2307
X1.6094Y2.6819
X1.6094Y2.3819
X1.6685Y2.8307
X1.6685Y2.2307
X1.7094Y2.6819
X1.7094Y2.3819
X1.7189Y2.9646
X1.7685Y2.8307
X1.7685Y2.2307
X1.8094Y2.6819
X1.8094Y2.3819
X1.8661Y2.1142
X1.8685Y2.8307
X1.8685Y2.2307
X1.8898Y2.9528
X1.9094Y2.6819
X1.9094Y2.3819
X1.9685Y2.9528
X1.9685Y2.8307
X1.9685Y2.2307
X1.9685Y2.1142
X2.0094Y2.6819
X2.0094Y2.3819
X2.0472Y2.9528
X2.0685Y2.8307
X2.0685Y2.2307
X2.1094Y2.6819
X2.1094Y2.3819
X2.1685Y2.8307
X2.1685Y2.2307
X2.2181Y2.9646
X2.2685Y2.8307
X2.2685Y2.2307
X2.352Y2.5591
X2.352Y2.4291
X2.3685Y2.8307
X2.3685Y2.2307
X2.3685Y2.1142
X2.4685Y2.8307
X2.4685Y2.2307
X2.5685Y2.8307
X2.5685Y2.2307
X2.6181Y2.9646
X2.6685Y2.8307
X2.6685Y2.2307
X2.752Y2.5591
X2.752Y2.4291
X2.7874Y2.0551
X2.7874Y1.9134
X2.8858Y2.0551
X2.8858Y1.9134
X2.8937Y0.3937
X2.9134Y2.3425
X2.9134Y2.2638
X2.9134Y2.185
X2.9724Y0.3937
X2.9843Y2.0551
X2.9843Y1.9134
X2.9902Y1.8031
X2.9902Y1.4031
X3.0512Y0.3937
X3.1299Y0.3937
X3.2087Y0.3937
X3.2874Y0.3937
X3.4449Y1.8031
X3.4449Y1.4031
T4
X1.1417Y3.3858
X1.2417Y3.3858
X2.3559Y2.6929
X2.6953Y3.3858
X2.7559Y2.6929
X2.7953Y3.3858
T5
X0.5762Y2.0032
X0.5762Y1.3949
X0.6762Y2.0032
X0.6762Y1.3949
X0.6858Y1.2008
X0.7283Y1.8654
X0.7283Y1.7654
X0.7283Y1.6654
X0.7283Y1.5654
X0.7762Y2.0032
X0.7762Y1.3949
X0.7858Y1.2008
X0.8762Y2.0032
X0.8762Y1.3949
X0.8858Y1.2008
X0.9762Y2.0032
X0.9762Y1.3949
X0.9858Y1.2008
X1.0762Y2.0032
X1.0762Y1.3949
X1.0858Y1.2008
X1.1762Y2.0032
X1.1762Y1.3949
X1.2762Y2.0032
X1.2762Y1.3949
X1.6685Y3.3858
X1.7685Y3.3858
X1.8685Y3.3858
X1.9685Y3.3858
X2.0685Y3.3858
X2.1685Y3.3858
X2.2685Y3.3858
X2.7362Y1.7126
X2.7362Y1.6142
X2.7362Y1.5157
X2.9543Y1.1929
X3.0543Y1.1929
X3.1543Y1.1929
X3.2543Y1.1929
X3.3543Y1.1929
X3.4543Y1.1929
T6
X3.128Y1.8031
X3.128Y1.5472
X3.3051Y1.8031
X3.3051Y1.5472
X3.5846Y1.8031
X3.5846Y1.5472
X3.7618Y1.8031
X3.7618Y1.5472
T0
M30
