G04 #@! TF.FileFunction,Profile,NP*
%FSLAX46Y46*%
G04 Gerber Fmt 4.6, Leading zero omitted, Abs format (unit mm)*
G04 Created by KiCad (PCBNEW 4.0.6) date 11/28/17 11:35:20*
%MOMM*%
%LPD*%
G01*
G04 APERTURE LIST*
%ADD10C,0.100000*%
%ADD11C,0.150000*%
G04 APERTURE END LIST*
D10*
D11*
X61000000Y100000000D02*
X63000000Y100000000D01*
X37000000Y100000000D02*
X39000000Y100000000D01*
X59000000Y98000000D02*
X61000000Y100000000D01*
X41000000Y98000000D02*
X59000000Y98000000D01*
X39000000Y100000000D02*
X41000000Y98000000D01*
X100000000Y47200000D02*
X68000000Y95000000D01*
X68000000Y95000000D02*
G75*
G03X63000000Y100000000I-5000000J0D01*
G01*
X32000000Y95000000D02*
X0Y47200000D01*
X37000000Y100000000D02*
G75*
G03X32000000Y95000000I0J-5000000D01*
G01*
X83100000Y57000000D02*
G75*
G03X83100000Y57000000I-1100000J0D01*
G01*
X19100000Y57000000D02*
G75*
G03X19100000Y57000000I-1100000J0D01*
G01*
X70100000Y78000000D02*
G75*
G03X70100000Y78000000I-1100000J0D01*
G01*
X32100000Y78000000D02*
G75*
G03X32100000Y78000000I-1100000J0D01*
G01*
X64100000Y94950000D02*
G75*
G03X64100000Y94950000I-1100000J0D01*
G01*
X38100000Y95000000D02*
G75*
G03X38100000Y95000000I-1100000J0D01*
G01*
X34100000Y31000000D02*
G75*
G03X34100000Y31000000I-1100000J0D01*
G01*
X68100000Y31000000D02*
G75*
G03X68100000Y31000000I-1100000J0D01*
G01*
X68100000Y7000000D02*
G75*
G03X68100000Y7000000I-1100000J0D01*
G01*
X34100000Y7000000D02*
G75*
G03X34100000Y7000000I-1100000J0D01*
G01*
X91100000Y7000000D02*
G75*
G03X91100000Y7000000I-1100000J0D01*
G01*
X11100000Y7000000D02*
G75*
G03X11100000Y7000000I-1100000J0D01*
G01*
X95000000Y4000000D02*
X100000000Y9000000D01*
X69000000Y4000000D02*
X95000000Y4000000D01*
X65000000Y0D02*
X69000000Y4000000D01*
X35000000Y0D02*
X65000000Y0D01*
X5000000Y4000000D02*
X0Y9000000D01*
X31000000Y4000000D02*
X5000000Y4000000D01*
X35000000Y0D02*
X31000000Y4000000D01*
X97100000Y29500000D02*
G75*
G03X97100000Y29500000I-1100000J0D01*
G01*
X97100000Y11500000D02*
G75*
G03X97100000Y11500000I-1100000J0D01*
G01*
X5100000Y11500000D02*
G75*
G03X5100000Y11500000I-1100000J0D01*
G01*
X5100000Y29500000D02*
G75*
G03X5100000Y29500000I-1100000J0D01*
G01*
X0Y47200000D02*
X0Y9000000D01*
X100000000Y9000000D02*
X100000000Y47200000D01*
M02*
